<?xml version="1.0" encoding="utf-8" ?>
<svg baseProfile="full" height="200mm" version="1.1" viewBox="0,0,200,200" width="200mm" xmlns="http://www.w3.org/2000/svg" xmlns:ev="http://www.w3.org/2001/xml-events" xmlns:xlink="http://www.w3.org/1999/xlink"><defs /><rect fill="#1a1a1a" height="200" width="200" x="0" y="0" /><rect fill="#1a1a1a" height="200" width="180" x="10" y="0" /><text alignment-baseline="middle" fill="#e1ed5e" style="dominant-baseline: central; font-size:9.0px; font-family:Arial;" text-anchor="middle" x="100.0" y="100.0">2025</text><line stroke="#e1ed5e" stroke-width="0.3" x1="100.0" x2="100.0" y1="15.0" y2="10.0" /><path d="M 100.0 14.0 a86.0,86.0 0 0,1 42.46469731375804,11.215312516191453" fill="none" id="id145" stroke="none" /><text fill="#e1ed5e" style="font-size:6.75px; font-family:Arial;" text-anchor="middle"><textPath startOffset="22.20632615414155" xlink:href="#id145">January</textPath></text><path d="M 100.0 79.0 l 0.0 -57.3459203517227 a78.3459203517227,78.3459203517227 0 0,0 1.3485962303708598,0.011607793521826964 l -0.9871157510983314 57.33742393480943" fill="#46fff7" stroke="none" /><path d="M 100.72285384407766 79.0124445844662 l 0.14252682825188648 -4.138166699457108 a25.14062042805994,25.14062042805994 0 0,0 0.43236978795304265,0.01861875258326685 l -0.21373744859426064 4.1351002203496465" fill="#ff3304" stroke="none" /><path d="M 101.08401301168833 79.027996857942 l 0.30066071154689006 -5.816772787103491 a26.824537966247245,26.824537966247245 0 0,0 0.4609195866935571,0.027803928186148075 l -0.40074234708005907 5.810735589537039" fill="#ff4b06" stroke="none" /><path d="M 101.44485096284872 79.0497635885617 l 0.19111907649618418 -2.7712130443104095 a23.777795571736142,23.777795571736142 0 0,0 0.40808337139954215,0.03167512365979085 l -0.2387926372580675 2.767512658462154" fill="#ff2003" stroke="none" /><path d="M 101.80526077348638 79.07773832637324 l 0.3017995132114188 -3.4977375463535134 a24.510733668244537,24.510733668244537 0 0,0 0.42003796018020834,0.03988766555455931 l -0.36196260048187134 3.4920243362837757" fill="#ff2a04" stroke="none" /><path d="M 102.16513564639614 79.11191278185805 l 0.9924589263299887 -9.57472047911194 a30.626019269333387,30.626019269333387 0 0,0 0.523899326690348,0.058866193657030885 l -1.1571249565300619 9.55621833198431" fill="#ff7e0b" stroke="none" /><path d="M 102.52436894288641 79.15227682838746 l 0.1564258963681062 -1.2918570375948317 a22.30129307484435,22.30129307484435 0 0,0 0.38069929059817464,0.049425694062441995 l -0.17863991547412697 1.288973020368253" fill="#ff0b01" stroke="none" /><path d="M 103.2404852339499 79.25152402106235 l 4.524979607437088 -28.972954329944816 a50.324179835978185,50.324179835978185 0 0,0 0.8547221510718261,0.14103647846884296 l -5.0230309646477895 28.89077158853635" fill="#92ff23" stroke="none" /><path d="M 103.59715602781102 79.31037775812273 l 5.091861385016204 -29.28666083692091 a50.72600806265544,50.72600806265544 0 0,0 0.8589721882882791,0.1569716769976295 l -5.595228694407384 29.194673678572542" fill="#8dff24" stroke="none" /><path d="M 103.95276090670814 79.375362276772 l 9.604040127351956 -50.11177072962407 a72.02379006332433,72.02379006332433 0 0,0 1.2156024055204773,0.24383840675371585 l -10.465208942339558 49.939028366793146" fill="#3effb7" stroke="none" /><path d="M 104.307194497241 79.44645832069477 l 5.462033762649538 -26.06432996380846 a47.630492096215704,47.630492096215704 0 0,0 0.8010026112345932,0.17506814613710364 l -5.90987909803766 25.966448319575488" fill="#afff20" stroke="none" /><path d="M 105.01212808612495 79.60689891045804 l 11.379506086794484 -46.300376604396426 a68.6782763162463,68.6782763162463 0 0,0 1.14558998733404,0.29203639539654275 l -12.17480496281355 46.09763721283102" fill="#3aff94" stroke="none" /><path d="M 105.36241919743992 79.69619591428918 l 6.640960689103038 -25.14476392237811 a47.006951216671666,47.006951216671666 0 0,0 0.7805439576386412,0.21335214884145914 l -7.0728025359653905 25.02672523271036" fill="#b6ff1f" stroke="none" /><path d="M 105.71112130821622 79.79150937346287 l 8.949438422039169 -31.667098754208915 a53.907409372034905,53.907409372034905 0 0,0 0.8907808756801865,0.2600433644309848 l -9.493209515442782 31.508357060859225" fill="#6cff28" stroke="none" /><path d="M 106.0581310904928 79.89281104454417 l 10.53042267435139 -34.95091065729587 a57.5028212262391,57.5028212262391 0 0,0 0.9452769046523014,0.29370213564766373 l -11.13048495171441 34.764468386765685" fill="#47ff2c" stroke="none" /><path d="M 107.76421540070413 80.48803036053334 l 2.3995337298404134 -6.030181656381696 a27.49005800664402,27.49005800664402 0 0,0 0.4381602781321263,0.17873657899948453 l -2.5029778775609275 5.987984191198633" fill="#ff5407" stroke="none" /><path d="M 108.09893153111575 80.62456947434976 l 0.8847448492999463 -2.116614061333643 a23.29408555485581,23.29408555485581 0 0,0 0.3686191893952658,0.15782349944857238 l -0.9210477964855274 2.1010710339222793" fill="#ff1902" stroke="none" /><path d="M 108.43124777332544 80.76684994638697 l 16.584187139640818 -37.83142997920763 a62.30680763935065,62.30680763935065 0 0,0 0.9785666333670698,0.4390543238591036 l -17.232935891474668 37.54035532483199" fill="#32ff4b" stroke="none" /><path d="M 108.76106565485865 80.91482961587045 l 24.047150773692685 -52.384491550324114 a78.64026730783513,78.64026730783513 0 0,0 1.2253718539213123,0.5753285158587648 l -24.945300838913596 51.962798051825345" fill="#46fffa" stroke="none" /><path d="M 109.41281617654863 81.2277094730956 l 6.34150478077744 -12.647072660262774 a35.147901956070704,35.147901956070704 0 0,0 0.538498516077353,0.2758398553306588 l -6.5582637844435485 12.536040279619614" fill="#ffb911" stroke="none" /><path d="M 109.73455568895987 81.39251694778311 l 1.9355903797001477 -3.699857121075539 a25.175578143725865,25.175578143725865 0 0,0 0.38225513322097987,0.20418745383304734 l -1.9989905594494386 3.6659909407407376" fill="#ff3404" stroke="none" /><path d="M 110.05341064243156 81.56283822128135 l 2.4273494664015582 -4.451567373230035 a26.07035279940618,26.07035279940618 0 0,0 0.39214268755837367,0.21822698106235552 l -2.503616243031967 4.4091249946075" fill="#ff4006" stroke="none" /><line stroke="#e1ed5e" stroke-width="0.3" x1="143.23703022742887" x2="145.7803849466894" y1="26.81831364943548" y2="22.513508569990506" /><path d="M 143.74570117128098 25.957352633546492 a86.0,86.0 0 0,1 28.547481713284135,27.462654790039103" fill="none" id="id146" stroke="none" /><text fill="#e1ed5e" style="font-size:6.75px; font-family:Arial;" text-anchor="middle"><textPath startOffset="19.985693538727396" xlink:href="#id146">February</textPath></text><path d="M 110.68208982089419 81.91981866633111 l 4.378475258085678 -7.4108744598203495 a29.60767714571626,29.60767714571626 0 0,0 0.4365552369283266,0.2630196455994313 l -4.505392561231642 7.334408204762304" fill="#ff710a" stroke="none" /><path d="M 111.2981086023043 82.29822771554956 l 2.033276130630139 -3.185718275754793 a24.77928733438837,24.77928733438837 0 0,0 0.35756862570883924,0.23257258057943472 l -2.0878117821232585 3.15024677101583" fill="#ff2e04" stroke="none" /><path d="M 111.60114157652 82.49532879139004 l 3.6724135092491386 -5.541212526150987 a27.647680591220382,27.647680591220382 0 0,0 0.39443406265128533,0.26632363981786406 l -3.767252266306966 5.477176974034452" fill="#ff5608" stroke="none" /><path d="M 112.19680574252982 82.90503203632743 l 3.0066860267720887 -4.214152655171319 a26.176798572928448,26.176798572928448 0 0,0 0.36454892121506594,0.26486029480121953 l -3.0787802643409434 4.161773125553425" fill="#ff4206" stroke="none" /><path d="M 112.77801427241765 83.33499621200491 l 4.055684649223078 -5.289397757843345 a27.665306190612846,27.665306190612846 0 0,0 0.375414838850997,0.2930172364547057 l -4.146132043233505 5.218802132165415" fill="#ff5608" stroke="none" /><path d="M 113.06298171725822 83.55741782278167 l 4.22078883957561 -5.312773825268308 a27.785324174034876,27.785324174034876 0 0,0 0.37192191405262337,0.30073498906179574 l -4.311614152192725 5.239332738942383" fill="#ff5808" stroke="none" /><path d="M 113.34407831869373 83.78471172551755 l 13.366324421162375 -16.24232101184337 a42.035009398227764,42.035009398227764 0 0,0 0.5547469542176902,0.46458462048898047 l -13.643928912339183 16.009835233960573" fill="#f0ff19" stroke="none" /><path d="M 113.6212207817346 84.01681056812373 l 19.329699051601285 -22.68153835500483 a50.80082964575031,50.80082964575031 0 0,0 0.6606676957211294,0.5729245154017826 l -19.71726054596918 22.345448846183373" fill="#8cff24" stroke="none" /><path d="M 113.89432698308785 84.25364557470407 l 9.349640556200866 -10.595889540116568 a35.13112358153122,35.13112358153122 0 0,0 0.44999458270663373,0.40400957942800475 l -9.53064612650349 10.433380951919267" fill="#ffb911" stroke="none" /><path d="M 114.16331599549186 84.49514656593476 l 7.505398669957762 -8.216303751110514 a32.12828183168976,32.12828183168976 0 0,0 0.4051102731547004,0.37650584838477613 l -7.645716826907309 8.085893316651097" fill="#ff920d" stroke="none" /><path d="M 114.68862486808459 84.99185889309783 l 44.06587460425377 -45.02442332070654 a84.0,84.0 0 0,0 1.0246567993307099,1.0202565973995252 l -44.8343672037518 44.25923087265689" fill="#4dd2ff" stroke="none" /><path d="M 114.94478906791727 85.2469230424477 l 20.698199439645585 -20.43268244390237 a50.084531488347906,50.084531488347906 0 0,0 0.6003841148240038,0.61874860557977 l -21.046847818172697 20.073369642772484" fill="#94ff23" stroke="none" /><path d="M 115.19652480421416 85.50635884689758 l 4.851054380524701 -4.626678948729974 a27.703647268273368,27.703647268273368 0 0,0 0.32615461453909017,0.34791900231744854 l -4.929976317034254 4.54249052953447" fill="#ff5708" stroke="none" /><path d="M 115.4437574822437 85.77008943001954 l 2.570015094715745 -2.3680173042960675 a24.494636396037848,24.494636396037848 0 0,0 0.2830371091569759,0.3125366451982952 l -2.6103958444887567 2.323427871828223" fill="#ff2a04" stroke="none" /><path d="M 115.9244219780498 86.31012108654704 l 9.473808766807979 -8.144427160092976 a33.49338810395754,33.49338810395754 0 0,0 0.3720786649052448,0.44042377959556295 l -9.612598045200341 7.980144430868306" fill="#ffa40f" stroke="none" /><path d="M 116.15771136456269 86.58626213691792 l 7.712255560349553 -6.402526452261941 a31.023533847902968,31.023533847902968 0 0,0 0.3375678221602094,0.41381823549983476 l -7.821321874586172 6.2688240471540055" fill="#ff840c" stroke="none" /><path d="M 116.38621287248628 86.86637796730983 l 4.276150778845918 -3.4273537467864355 a26.48016598188737,26.48016598188737 0 0,0 0.28200862224017326,0.3581223118210487 l -4.334513481680055 3.3532390410123485" fill="#ff4606" stroke="none" /><path d="M 116.60985879189232 87.15038557335679 l 2.1590336734847875 -1.6702580428895957 a23.72968648988828,23.72968648988828 0 0,0 0.2471549222036843,0.32522690644571456 l -2.1874645359125853 1.6328463605628476" fill="#ff1f03" stroke="none" /><path d="M 116.82858285166822 87.43820079747576 l 7.98715454005409 -5.962060645037821 a30.966985742029305,30.966985742029305 0 0,0 0.3151810776585297,0.42990663571861526 l -8.088598230226246 5.823691565647711" fill="#ff830c" stroke="none" /><path d="M 117.04232023915458 87.72973835380427 l 4.216093759663046 -3.0355358208269982 a26.19518279849646,26.19518279849646 0 0,0 0.2603144796179342,0.3681963705276482 l -4.267720859084863 2.962512949967557" fill="#ff4206" stroke="none" /><path d="M 117.65298651832404 88.62581576622439 l 4.613491894527724 -2.972568223224968 a26.488211849282045,26.488211849282045 0 0,0 0.24365674067010343,0.385406449447265 l -4.663976231443782 2.8927141260634968" fill="#ff4606" stroke="none" /><line stroke="#e1ed5e" stroke-width="0.3" x1="172.23445277983987" x2="176.4835382374775" y1="55.19839476539836" y2="52.563006222186495" /><path d="M 173.08426987136738 54.67131705675599 a86.0,86.0 0 0,1 12.851231095245387,41.99856678651699" fill="none" id="id147" stroke="none" /><text fill="#e1ed5e" style="font-size:6.75px; font-family:Arial;" text-anchor="middle"><textPath startOffset="22.20632615414155" xlink:href="#id147">March</textPath></text><path d="M 117.84615892207809 88.93136811851018 l 16.031268317692874 -9.942991563434457 a39.86437502554463,39.86437502554463 0 0,0 0.35666125135681165,0.5862573194689028 l -16.200045367335907 9.665566470758472" fill="#fff417" stroke="none" /><path d="M 118.03404312379186 89.2402003453031 l 20.69324199001923 -12.346379372079074 a45.096542234453366,45.096542234453366 0 0,0 0.391997023797131,0.6700499813715008 l -20.90269868828669 11.988349978353678" fill="#ccff1d" stroke="none" /><path d="M 118.3937258080291 89.86733742301442 l 9.221701473484453 -5.0800142609346075 a31.528358037099817,31.528358037099817 0 0,0 0.2577697009481171,0.47760810742401744 l -9.307779273651034 4.920525170178132" fill="#ff8a0c" stroke="none" /><path d="M 118.73160827565052 90.50648371742162 l 21.684455484498145 -10.990072405503588 a45.3104360540364,45.3104360540364 0 0,0 0.34660323146646843,0.6987309646205317 l -21.87041872891802 10.615181852384106" fill="#c9ff1d" stroke="none" /><path d="M 118.89224826269711 90.83032412892265 l 42.01245041893324 -20.391461489101097 a67.69965408720729,67.69965408720729 0 0,0 0.4998226974270929,1.0527540714614014 l -42.35723131020209 19.665265001999156" fill="#39ff89" stroke="none" /><path d="M 119.04729006885535 91.15688171328212 l 35.30433084785746 -16.390802712219532 a59.92369702592346,59.92369702592346 0 0,0 0.42630769022206383,0.9393124861785876 l -35.58124085504287 15.780668217198881" fill="#30ff2f" stroke="none" /><path d="M 119.196687751892 91.48605970444005 l 3.0200812110745487 -1.339438941298446 a24.30378377000557,24.30378377000557 0 0,0 0.16631807208211796,0.3838850412520518 l -3.0426899929993474 1.2872547554597915" fill="#ff2703" stroke="none" /><path d="M 119.47837535516314 92.15188598940014 l 3.0928875806375085 -1.2461683231901255 a24.334499823989233,24.334499823989233 0 0,0 0.15319894462542868,0.38987460386402556 l -3.1138800751446376 1.1927447144303156" fill="#ff2803" stroke="none" /><path d="M 119.61058180528143 92.48833698450437 l 13.893857216466321 -5.321921319407252 a35.87824300384675,35.87824300384675 0 0,0 0.2159450137290426,0.5786252756877185 l -13.98340681869699 5.081972906690201" fill="#ffc312" stroke="none" /><path d="M 119.85752413597 93.16781622104841 l 5.284701052340576 -1.8182553151733054 a26.58874919850279,26.58874919850279 0 0,0 0.14517799706304807,0.43406373261426295 l -5.315216343175394 1.7270184796367285" fill="#ff4706" stroke="none" /><path d="M 119.97218684219823 93.5106431181261 l 4.648437838702422 -1.5103690105087386 a25.887656789115372,25.887656789115372 0 0,0 0.1340543197098602,0.42498882712654784 l -4.673747642180488 1.4301300169557716" fill="#ff3e05" stroke="none" /><path d="M 120.08093135843002 93.85539295169968 l 8.542152003661545 -2.613831324477724 a29.93311116277414,29.93311116277414 0 0,0 0.14652130041109798,0.493996985346044 l -8.585879201184346 2.46640495238515" fill="#ff750a" stroke="none" /><path d="M 120.28053869075195 94.5502522615342 l 2.679868706446936 -0.7201292157492957 a23.774938264388826,23.774938264388826 0 0,0 0.10280245733160023,0.396139803860241 l -2.691867495648839 0.6738929863402043" fill="#ff2003" stroke="none" /><path d="M 120.37134235888165 94.90015583598534 l 7.004227137468518 -1.7534665247466212 a28.220376904750708,28.220376904750708 0 0,0 0.11391249170476007,0.472240819641296 l -7.033372429434097 1.632640473445919" fill="#ff5e08" stroke="none" /><path d="M 120.45610955862082 95.25157060432595 l 7.2551953163241025 -1.6841317070904849 a28.44809765543113,28.44809765543113 0 0,0 0.10662023640936212,0.4779576136957425 l -7.2831099397355015 1.5589959238447784" fill="#ff6109" stroke="none" /><path d="M 120.53481517161879 95.60439243477599 l 9.485084778059397 -2.0303426185618965 a30.699954865653904,30.699954865653904 0 0,0 0.10616439703436205,0.5176953034577411 l -9.518628471008755 1.8667716589407435" fill="#ff7f0b" stroke="none" /><path d="M 120.6074358757038 95.95851677861258 l 4.432407886152159 -0.8692737034474691 a25.51684363695813,25.51684363695813 0 0,0 0.08082068488655159,0.4317473303891016 l -4.4467142949485705 0.7928482955958047" fill="#ff3905" stroke="none" /><path d="M 120.67395015179393 96.31383870115 l 8.19428655566516 -1.4610397022050816 a29.323519037508973,29.323519037508973 0 0,0 0.08432346325483182,0.4976818534075848 l -8.218221880440215 1.319772060481659" fill="#ff6d0a" stroke="none" /><path d="M 120.73433829027371 96.67025291283417 l 18.66753910979356 -2.9978378429634835 a39.9067196559418,39.9067196559418 0 0,0 0.10308115969070918,0.679176048883521 l -18.716376162923567 2.6760626816878803" fill="#fff517" stroke="none" /><path d="M 120.78858239683441 97.02765380044208 l 6.790966090961745 -0.9709705965747085 a27.86002947136562,27.86002947136562 0 0,0 0.06379150873094552,0.47532083567277084 l -6.8066735987505265 0.8539314188372733" fill="#ff5908" stroke="none" /><path d="M 120.87857604477298 97.74499172005257 l 9.526802009014377 -1.0289503156574493 a30.582207223341182,30.582207223341182 0 0,0 0.05202306404759312,0.5238651553954001 l -9.543102198744199 0.8648096295576142" fill="#ff7e0b" stroke="none" /><path d="M 120.94382443527127 98.46500227214037 l 4.918304636380369 -0.3604683788817094 a25.931496522194276,25.931496522194276 0 0,0 0.02879557967945834,0.4454548724159774 l -4.923780807064243 0.27575444221269674" fill="#ff3e05" stroke="none" /><path d="M 120.98425023603335 99.18683210126433 l 4.435093965429426 -0.17186585176965655 a25.438422732592404,25.438422732592404 0 0,0 0.013189586632330025,0.4376981683670555 l -4.437395246517402 0.095497535977602" fill="#ff3705" stroke="none" /><line stroke="#e1ed5e" stroke-width="0.3" x1="184.98032266829074" x2="189.97916517819016" y1="98.17113171792111" y2="98.06355123074" /><path d="M 185.9800911702706 98.14961562048488 a86.0,86.0 0 0,1 -9.607161424134198,41.387399972396054" fill="none" id="id148" stroke="none" /><text fill="#e1ed5e" style="font-size:6.75px; font-family:Arial;" text-anchor="middle"><textPath startOffset="21.466115282336823" xlink:href="#id148">April</textPath></text><path d="M 120.99513854157772 99.54816195383933 l 5.731704959116935 -0.1233524782305242 a26.733032144707657,26.733032144707657 0 0,0 0.00594108908291581,0.4601438967817125 l -5.732979055317567 0.02467232338834893" fill="#ff4906" stroke="none" /><path d="M 120.99980553446 99.90962569577887 l 6.813496369692195 -0.029322414091581823 a27.813559465050325,27.813559465050325 0 0,0 -0.0020604585642070433,0.47877800590637554 l -6.812991613838484 -0.0879650700184784" fill="#ff5808" stroke="none" /><path d="M 120.95626037817324 101.35467743843564 l 5.3748945415392075 0.3474497948583301 a26.386112948371494,26.386112948371494 0 0,0 -0.03320056702702163,0.4529953591103968 l -5.368117415847848 -0.4399182904654972" fill="#ff4506" stroke="none" /><path d="M 120.92983693683757 101.71520430193887 l 9.548139090738301 0.7824718985325998 a30.58014730409079,30.58014730409079 0 0,0 -0.04750903103345087,0.5242581985904257 l -9.533255463427775 -0.9467114856715961" fill="#ff7e0b" stroke="none" /><path d="M 120.8583938346157 102.4346265915055 l 11.027006779275114 1.2870906620327192 a32.10186835097909,32.10186835097909 0 0,0 -0.06878741076906816,0.5483033443666467 l -11.003217859259198 -1.4767117606867608" fill="#ff920d" stroke="none" /><path d="M 120.81339534386255 102.79330883721812 l 6.073469664824532 0.8151037448261972 a27.127921987458187,27.127921987458187 0 0,0 -0.06609647011599544,0.46227855804638696 l -6.0585391436919345 -0.9195277748529934" fill="#ff4f07" stroke="none" /><path d="M 120.64145759157962 103.86396538481128 l 8.463103839315611 1.5842456928293143 a29.610108071928416,29.610108071928416 0 0,0 -0.09809415253151851,0.5001799704072022 l -8.434579753808428 -1.7296893903044612" fill="#ff710a" stroke="none" /><path d="M 120.49622156327973 104.57218783832717 l 10.925029640619732 2.437097369482784 a32.19355690729089,32.19355690729089 0 0,0 -0.1253087201087857,0.5398266865947488 l -10.881460354580392 -2.624792713426098" fill="#ff930d" stroke="none" /><path d="M 120.41448212921028 104.9243191809786 l 5.33049660857626 1.2858061511241914 a26.483383221361773,26.483383221361773 0 0,0 -0.11071149552493273,0.4422373911572231 l -5.307573798756266 -1.3773713816788102" fill="#ff4606" stroke="none" /><path d="M 120.32669344350535 105.2749913415812 l 9.149629008772475 2.3744252322246786 a30.45270364401614,30.45270364401614 0 0,0 -0.13603936711613926,0.5062530929259075 l -9.107401565314559 -2.5315692583261344" fill="#ff7c0b" stroke="none" /><path d="M 120.13307415673323 105.97154293290107 l 4.833744920169906 1.4337063030105421 a26.041884936862456,26.041884936862456 0 0,0 -0.13116829618075565,0.42866558126553456 l -4.808349851483018 -1.5166988568281339" fill="#ff4006" stroke="none" /><path d="M 120.02730092923936 106.31721596034902 l 4.752319187500297 1.499025092099117 a25.983132938887568,25.983132938887568 0 0,0 -0.13821510914993987,0.42538236601965373 l -4.725811827334111 -1.580606358096566" fill="#ff3f05" stroke="none" /><path d="M 119.9155931802556 106.66101706037122 l 10.619672224480418 3.55188104228521 a32.197914854737284,32.197914854737284 0 0,0 -0.18032238149648847,0.5241012476645576 l -10.5569590120407 -3.7341549930390676" fill="#ff930d" stroke="none" /><path d="M 119.79798401119884 107.00284435728193 l 0.7047623568597847 0.24928503281791473 a21.74755134086803,21.74755134086803 0 0,0 -0.1278711891971644,0.3518465941801038 l -0.7003669066573937 -0.26137942400414965" fill="#ff0300" stroke="none" /><path d="M 119.67450827220406 107.3425965602758 l 11.451673351240002 4.273805281172451 a33.22318428744646,33.22318428744646 0 0,0 -0.20456894183266433,0.5340649547714912 l -11.37641012981383 -4.4702938027770855" fill="#ffa10e" stroke="none" /><path d="M 119.54520255179757 107.68017299344265 l 5.157600036092279 2.0266487596226885 a26.54149287892525,26.54149287892525 0 0,0 -0.17074696674518267,0.42377996860471906 l -5.121950455089704 -2.115128096070221" fill="#ff4706" stroke="none" /><path d="M 119.41010516605496 108.01547362559984 l 5.035243308889634 2.0793220642341272 a26.447683491772324,26.447683491772324 0 0,0 -0.17738715569297622,0.41929083673949896 l -4.998705172004349 -2.16568742663979" fill="#ff4606" stroke="none" /><path d="M 119.26925614724726 108.34839909993367 l 0.552151914104604 0.2392196412520074 a21.601745604894724,21.601745604894724 0 0,0 -0.15075849541735067,0.3399206080856778 l -0.5479523339559804 -0.24868858583037287" fill="#ff0100" stroke="none" /><path d="M 118.81262510543309 109.33194174019688 l 3.0838339501699163 1.5297258409256094 a24.44239640085452,24.44239640085452 0 0,0 -0.19020994921137882,0.3753022750166078 l -3.0570453311722687 -1.5825823276449114" fill="#ff2904" stroke="none" /><path d="M 118.64920377521936 109.65438752849418 l 6.898955275182965 3.5714762180286246 a28.768592296221943,28.768592296221943 0 0,0 -0.23144673858796957,0.4378100064276782 l -6.836456028370103 -3.689701239542437" fill="#ff6509" stroke="none" /><line stroke="#e1ed5e" stroke-width="0.3" x1="174.80103733775053" x2="179.2010983576182" y1="140.37084112569926" y2="142.7455964860345" /><path d="M 175.68104954172406 140.8457921977663 a86.0,86.0 0 0,1 -30.038265399797805,32.042727171017184" fill="none" id="id149" stroke="none" /><text fill="#e1ed5e" style="font-size:6.75px; font-family:Arial;" text-anchor="middle"><textPath startOffset="22.206326154141568" xlink:href="#id149">May</textPath></text><path d="M 118.48025628344425 109.97397251340804 l 14.626406083596308 7.894012399515538 a37.62068550589801,37.62068550589801 0 0,0 -0.3124730973730611,0.5672294356786522 l -14.488356576771737 -8.144612353591995" fill="#ffd914" stroke="none" /><path d="M 118.30583269289576 110.29060199501025 l 5.599611574007538 3.1478149615738187 a27.42373635916568,27.42373635916568 0 0,0 -0.23486210677330277,0.40950187974514773 l -5.544597471081855 -3.2437366871772815" fill="#ff5307" stroke="none" /><path d="M 118.12598468904814 110.60418214915192 l 1.1166815291913181 0.6532883339183762 a22.29374003759291,22.29374003759291 0 0,0 -0.1966298574844919,0.3295629512722795 l -1.105270796008599 -0.6724133790767597" fill="#ff0b01" stroke="none" /><path d="M 117.94076556474637 110.91462005526583 l 4.705287023943538 2.862554551085135 a26.50762603447526,26.50762603447526 0 0,0 -0.2405066703821729,0.38777333164705646 l -4.655315713893402 -2.943124214097465" fill="#ff4606" stroke="none" /><path d="M 117.75023020441432 111.22182372390056 l 4.811878331405351 3.0421042315529356 a26.692852644490337,26.692852644490337 0 0,0 -0.24887289192305947,0.3862562550066732 l -4.758800576105241 -3.124482086481062" fill="#ff4906" stroke="none" /><path d="M 117.35343817320211 111.8261652097733 l 6.818688619909534 4.646856566877749 a29.25153261209205,29.25153261209205 0 0,0 -0.2871373522273259,0.41364277159914714 l -6.737690360520072 -4.763540600663916" fill="#ff6c09" stroke="none" /><path d="M 116.93607887273984 112.41649034213515 l 2.14561024753546 1.573029336760545 a23.660463235723903,23.660463235723903 0 0,0 -0.24363374283334668,0.32638721258250347 l -2.1182152380070214 -1.6097294288523634" fill="#ff1e03" stroke="none" /><path d="M 116.71984013943494 112.70617746262583 l 4.1844551705915105 3.179960426567502 a26.255645858429332,26.255645858429332 0 0,0 -0.2765509463533916,0.35747937760448495 l -4.12909740702005 -3.25151779828524" fill="#ff4306" stroke="none" /><path d="M 116.498646956653 112.99209946851258 l 5.687897315903302 4.4790174545254136 a28.23973571577052,28.23973571577052 0 0,0 -0.30402373398288157,0.37931635392976437 l -5.609955669865567 -4.576261642033428" fill="#ff5e08" stroke="none" /><path d="M 116.0416608686014 113.55231037782055 l 8.464445018331366 7.150929508113018 a32.08073202899322,32.08073202899322 0 0,0 -0.3600030857659467,0.41876492022901435 l -8.34009942299464 -7.29557152750356" fill="#ff920d" stroke="none" /><path d="M 115.56566222782051 114.09645910891815 l 5.377559240476492 4.869985152554342 a28.25499130054157,28.25499130054157 0 0,0 -0.3295791243389183,0.35769304680229413 l -5.2929337081418515 -4.9618294541579715" fill="#ff5e08" stroke="none" /><path d="M 115.32070863581623 114.36230785411682 l 5.660024089325545 5.305956164623567 a28.75815980195383,28.75815980195383 0 0,0 -0.3416653554754427,0.35823475925591136 l -5.567852182471137 -5.402598040461986" fill="#ff6509" stroke="none" /><path d="M 114.55890576462653 115.13401014063108 l 8.451826554878886 8.78568972533447 a33.19105065462381,33.19105065462381 0 0,0 -0.4151476012328191,0.3925479691723887 l -8.29934311925526 -8.92987233125278" fill="#ffa00e" stroke="none" /><path d="M 114.29624159901734 115.38237550388516 l 4.60357867074609 4.953328137652647 a27.76227744306678,27.76227744306678 0 0,0 -0.3528459217800211,0.32231638364999166 l -4.517633199499205 -5.031837287889221" fill="#ff5808" stroke="none" /><path d="M 114.0293411484842 115.62618273729858 l 0.6677582862896015 0.7437635805893883 a21.999542591748632,21.999542591748632 0 0,0 -0.28395925009765205,0.25056102283529313 l -0.6548566832853618 -0.7551477451969703" fill="#ff0601" stroke="none" /><path d="M 113.75828350139079 115.86535959552629 l 3.5941639658532627 4.1446088647454165 a26.485963657842106,26.485963657842106 0 0,0 -0.3470096661141921,0.2957291656764475 l -3.5222888231620235 -4.20586242064481" fill="#ff4606" stroke="none" /><path d="M 113.48314897796784 116.09983520530334 l 4.064721188158576 4.853565097574194 a27.330801883952432,27.330801883952432 0 0,0 -0.36327824841134077,0.2989532665852999 l -3.9805728112025442 -4.9228134830166725" fill="#ff5207" stroke="none" /><path d="M 113.20401910651253 116.32954008644616 l 2.6555581990397226 3.2841549011180824 a25.223465728880136,25.223465728880136 0 0,0 -0.33996728486953337,0.270090572079958 l -2.5986334214528384 -3.3293793872031663" fill="#ff3405" stroke="none" /><path d="M 112.92097659922987 116.55440617244103 l 1.096564333980696 1.404922548966669 a22.7822066959681,22.7822066959681 0 0,0 -0.31121717155220996,0.2386280561652385 l -1.0722184339349923 -1.423589946959279" fill="#ff1202" stroke="none" /><path d="M 112.63410532772338 116.77436683061366 l 9.333588708677647 12.392253886143996 a36.51398835120762,36.51398835120762 0 0,0 -0.5053101811820191,0.37381639177817155 l -9.118893557077064 -12.551080226661936" fill="#ffcb12" stroke="none" /><path d="M 112.04921762599082 117.19931262002967 l 10.703861305246194 15.278922046627859 a39.6552433848738,39.6552433848738 0 0,0 -0.5624305347994577,0.3868448503504914 l -10.439273885823853 -15.460907686343445" fill="#fff216" stroke="none" /><path d="M 111.45004920935366 117.60387380957326 l 0.913716774034521 1.4047935073199598 a22.67580522178455,22.67580522178455 0 0,0 -0.3290347859198568,0.21000556811613458 l -0.8894001860677337 -1.4203135042599033" fill="#ff1001" stroke="none" /><line stroke="#e1ed5e" stroke-width="0.3" x1="143.8653032363475" x2="146.44561519142675" y1="172.8068346515853" y2="177.08958963109032" /><path d="M 144.38136562736335 173.6633856474863 a86.0,86.0 0 0,1 -40.68145358897372,12.25698825130547" fill="none" id="id150" stroke="none" /><text fill="#e1ed5e" style="font-size:6.75px; font-family:Arial;" text-anchor="middle"><textPath startOffset="21.466115282336833" xlink:href="#id150">June</textPath></text><path d="M 110.8373102113329 117.98757091392108 l 0.4508033072713052 0.7482351524175319 a21.87354419759966,21.87354419759966 0 0,0 -0.32417855851303434,0.19153040647859032 l -0.43785687772988874 -0.7558841311898717" fill="#ff0500" stroke="none" /><path d="M 110.21172684928248 118.3499491758327 l 6.31115451012782 11.340820824032317 a33.978631985440984,33.978631985440984 0 0,0 -0.5135258417185359,0.2800152335950015 l -6.115005856540635 -11.447776709387089" fill="#ffaa0f" stroke="none" /><path d="M 109.57404056367764 118.69057910512821 l 5.760084094749148 11.244918664073955 a33.63434859975855,33.63434859975855 0 0,0 -0.5175623008403711,0.25951648205847955 l -5.5656678862260165 -11.342402987041737" fill="#ffa60f" stroke="none" /><path d="M 109.2508944713604 118.85261126421891 l 1.222058727104769 2.490461673244487 a23.774135338874558,23.774135338874558 0 0,0 -0.36893759696129586,0.177112466842267 l -1.1790084621432402 -2.511128416586314" fill="#ff2003" stroke="none" /><path d="M 108.92500713936063 119.00905698771935 l 3.1337201463683444 6.674399685706862 a28.373453269691122,28.373453269691122 0 0,0 -0.44388511760433763,0.2037658863019693 l -3.0183670329965873 -6.727352642342906" fill="#ff6008" stroke="none" /><path d="M 108.2653958097858 119.30500536409082 l 3.7332378041455674 8.719506904815066 a30.485086460619073,30.485086460619073 0 0,0 -0.4841736378239994,0.2023846198780765 l -3.5825927068241072 -8.782476567713116" fill="#ff7d0b" stroke="none" /><path d="M 107.93186726928326 119.44442032107085 l 2.0929279587331497 5.130667161933677 a26.541127409380827,26.541127409380827 0 0,0 -0.4245050149951696,0.16891930625163454 l -2.0043018676961135 -5.16593331259138" fill="#ff4706" stroke="none" /><path d="M 107.59598834532513 119.57807347666477 l 2.282222566480102 5.882252455554211 a27.309471752359666,27.309471752359666 0 0,0 -0.4397212216561374,0.16626494058108177 l -2.18063112406369 -5.920665646241923" fill="#ff5107" stroke="none" /><path d="M 107.2578585660854 119.70592522655815 l 0.800243825386039 2.17275451739446 a23.315437836117937,23.315437836117937 0 0,0 -0.37779940147544366,0.13546542391022384 l -0.7627248632808605 -2.186207482344644" fill="#ff1902" stroke="none" /><path d="M 106.91757812671514 119.82793768551818 l 0.8207796105058349 2.3526105050846144 a23.491677217790578,23.491677217790578 0 0,0 -0.3829481969389862,0.12991682022988613 l -0.7801616806296218 -2.3663903122126233" fill="#ff1c02" stroke="none" /><path d="M 106.57524785965236 119.94407469862006 l 3.295438475033639 9.995740466923227 a31.5249580628532,31.5249580628532 0 0,0 -0.5168271503782673,0.16547173268763998 l -3.122889979564431 -10.050985046270574" fill="#ff8a0c" stroke="none" /><path d="M 106.2309692047433 120.05430185196036 l 3.2876375097564465 10.581223054399477 a32.08020043692859,32.08020043692859 0 0,0 -0.528750485533045,0.1593081838847352 l -3.1050120497831557 -10.636246607389937" fill="#ff920d" stroke="none" /><path d="M 105.88484417918355 120.15858648285463 l 1.5212218843428476 5.210959199839146 a26.428463116186002,26.428463116186002 0 0,0 -0.4377923139532445,0.12372448091241378 l -1.4312984022849973 -5.2363724740900786" fill="#ff4506" stroke="none" /><path d="M 105.53697534728816 120.25689768951611 l 1.0528363360225093 3.8517776592699464 a24.99307594304195,24.99307594304195 0 0,0 -0.41596756693481945,0.10986081509786944 l -0.9863783262761924 -3.8693298236713995" fill="#ff3104" stroke="none" /><path d="M 105.18746579009965 120.34920634021253 l 1.503513332449993 5.897928637076893 a27.08655194251282,27.08655194251282 0 0,0 -0.4527926231929295,0.11128541039103208 l -1.4017674245138523 -5.922935305781955" fill="#ff4e07" stroke="none" /><path d="M 104.13013068566511 120.58985236759428 l 2.304152282947829 11.486841204084355 a32.7156578385878,32.7156578385878 0 0,0 -0.5531008592042737,0.10600309605763875 l -2.1060838091718512 -11.524801498490461" fill="#ff9a0e" stroke="none" /><path d="M 103.7750983002368 120.6578951692458 l 1.5125869895451194 8.27709929101133 a29.414172096778234,29.414172096778234 0 0,0 -0.49885179264598556,0.0867317784695364 l -1.369886225427084 -8.301909648001873" fill="#ff6e0a" stroke="none" /><path d="M 103.41894727170886 120.7198165907248 l 0.13582366499021992 0.8231309826169942 a21.83426175899138,21.83426175899138 0 0,0 -0.37135310689979695,0.05799771803537614 l -0.12163469448190581 -0.8253470079994761" fill="#ff0400" stroke="none" /><path d="M 103.06178313531738 120.77559828337769 l 2.98771621623809 20.273020377343464 a41.491993641638565,41.491993641638565 0 0,0 -0.7074807913204092,0.09805039109735643 l -2.63830683373085 -20.321445333933422" fill="#f6ff19" stroke="none" /><path d="M 102.34483914955558 120.86867818915974 l 0.6261469262752649 5.572603436805703 a26.607670553552758,26.607670553552758 0 0,0 -0.45558338149116817,0.047223080259620555 l -0.530130948178494 -5.5825558855210815" fill="#ff4806" stroke="none" /><path d="M 101.98527174616119 120.90594882070398 l 0.13731284997246296 1.445976058189586 a22.452481180471903,22.452481180471903 0 0,0 -0.3850661275213359,0.033225125756304874 l -0.11240240470958539 -1.4481254362245541" fill="#ff0d01" stroke="none" /><path d="M 101.26447882468166 120.96189622390904 l 0.9172010379923055 15.204899124899649 a36.232538040079476,36.232538040079476 0 0,0 -0.622875168768151,0.03219553149160732 l -0.6553378008106749 -15.218434463153459" fill="#ffc712" stroke="none" /><line stroke="#e1ed5e" stroke-width="0.3" x1="102.19456741930631" x2="102.32365962044197" y1="184.97166512339345" y2="189.96999836594603" /><path d="M 102.22038585953345 185.97133177190398 a86.0,86.0 0 0,1 -42.740103519485714,-10.115201625700543" fill="none" id="id151" stroke="none" /><text fill="#e1ed5e" style="font-size:6.75px; font-family:Arial;" text-anchor="middle"><textPath startOffset="22.20632615414155" xlink:href="#id151">July</textPath></text><path d="M 100.54218724476979 120.99299961872073 l 0.17710239378975062 6.857244468894391 a27.85953110380504,27.85953110380504 0 0,0 -0.47950274102876933,0.008255074537399286 l -0.059039962868313325 -6.859277020710951" fill="#ff5908" stroke="none" /><path d="M 100.18074693466247 120.99922214144158 l 0.058396640982882345 6.784535730044837 a27.784787044552917,27.784787044552917 0 0,0 -0.4782871512906709,0.0 l 0.058396640982877675 -6.784535730044837" fill="#ff5808" stroke="none" /><path d="M 99.81925306533755 120.99922214144158 l -0.0761314592390675 8.84497116091578 a29.845298798600176,29.845298798600176 0 0,0 -0.5136806691910492,-0.008843478565931357 l 0.22837181832278458 -8.842350205070689" fill="#ff740a" stroke="none" /><path d="M 99.45781275523022 120.99299961872073 l -0.32335097602296337 12.519857266737004 a33.524032171515785,33.524032171515785 0 0,0 -0.5767405025415798,-0.019864109041918467 l 0.5388118302391862 -12.512436359268992" fill="#ffa50f" stroke="none" /><path d="M 99.09653310690486 120.98055641714683 l -0.25594413615972395 5.943605050032022 a26.949113244139895,26.949113244139895 0 0,0 -0.4632834012766939,-0.023946460034426412 l 0.35821560584990675 -5.938318783235394" fill="#ff4c07" stroke="none" /><path d="M 98.73552117531835 120.96189622390904 l -0.31728689183053166 5.259823074880458 a26.269384190849287,26.269384190849287 0 0,0 -0.4511294376488337,-0.031112527303054693 l 0.4077790902582954 -5.253582203061118" fill="#ff4306" stroke="none" /><path d="M 98.37488393609728 120.93702456842531 l -0.6092556323302165 7.849285614662927 a28.872895089233722,28.872895089233722 0 0,0 -0.4951779633161839,-0.042726038275125965 l 0.744277913387942 -7.837635324109138" fill="#ff6709" stroke="none" /><path d="M 97.65516085044442 120.86867818915974 l -1.7342680882173067 15.434697358066419 a36.531824372459,36.531824372459 0 0,0 -0.6242985691989725,-0.07559386251445856 l 1.9996940804676684 -15.402557966826611" fill="#ffcb12" stroke="none" /><path d="M 97.2962882734958 120.8252237178851 l -0.35696809954717695 2.749531490485513 a23.772607011688784,23.772607011688784 0 0,0 -0.40534718494462957,-0.056177426301362056 l 0.40424387567863757 -2.742979498691546" fill="#ff2003" stroke="none" /><path d="M 96.93821686468263 120.77559828337769 l -1.2836162375856766 8.709922983926983 a29.804000740080223,29.804000740080223 0 0,0 -0.5069009612067557,-0.07916750519570416 l 1.4333530624009494 -8.686537171384172" fill="#ff730a" stroke="none" /><path d="M 96.58105272829116 120.7198165907248 l -0.7435011167874724 4.505833389801216 a25.566763454276096,25.566763454276096 0 0,0 -0.43360138573196366,-0.07538715884314125 l 0.820951473991486 -4.4923676524370695" fill="#ff3905" stroke="none" /><path d="M 96.22490169976321 120.6578951692458 l -0.9692933270133786 5.30411617001758 a26.391954923664944,26.391954923664944 0 0,0 -0.4461904148888125,-0.08551345495557637 l 1.0604513564738862 -5.286645516713536" fill="#ff4506" stroke="none" /><path d="M 95.86986931433489 120.58985236759428 l -0.8669907611307978 4.322190539323485 a25.408288107429414,25.408288107429414 0 0,0 -0.4280794896605092,-0.08970821919727814 l 0.9412617122206938 -4.306626339399666" fill="#ff3705" stroke="none" /><path d="M 95.51606077576429 120.51570834832081 l -1.697259128086356 7.765598845573137 a28.94891275447399,28.94891275447399 0 0,0 -0.4859004020445736,-0.11058934954945092 l 1.8306796795237923 -7.735232762445999" fill="#ff6809" stroke="none" /><path d="M 95.16358092515715 120.4354850818985 l -2.2984030971860623 9.711520337236541 a30.97979378833618,30.97979378833618 0 0,0 -0.5178740404156241,-0.12728083932135603 l 2.465230422344897 -9.670518239601156" fill="#ff830c" stroke="none" /><path d="M 94.81253420990036 120.34920634021253 l -1.390749285370277 5.4555818429714 a26.63005833185742,26.63005833185742 0 0,0 -0.44321237597484275,-0.1170564167895558 l 1.484452104156609 -5.430834076878263" fill="#ff4806" stroke="none" /><path d="M 94.46302465271185 120.25689768951611 l -0.5906899668930401 2.1610257360882685 a23.24030062023469,23.24030062023469 0 0,0 -0.3849798204599361,-0.10879914272146585 l 0.6278009554575902 -2.1505378000282813" fill="#ff1802" stroke="none" /><path d="M 94.11515582081647 120.15858648285463 l -3.688713702631461 12.635721851059076 a34.16313319378456,34.16313319378456 0 0,0 -0.5630816833285699,-0.16965189215741702 l 3.9056703604002765 -12.570354589795933" fill="#ffad10" stroke="none" /><path d="M 93.76903079525671 120.05430185196036 l -8.895282235380016 28.629362326312595 a50.97943350462704,50.97943350462704 0 0,0 -0.835768133095183,-0.26758656352932464 l 9.386771713566139 -28.472002916123564" fill="#8aff24" stroke="none" /><path d="M 93.42475214034765 119.94407469862007 l -0.868225071564902 2.6335046301084524 a23.77293371931183,23.77293371931183 0 0,0 -0.3875330832856023,-0.13147226261094147 l 0.9134278877877301 -2.618169380599388" fill="#ff2003" stroke="none" /><path d="M 93.08242187328487 119.8279376855182 l -4.693243025198878 13.452299134469675 a35.247486869509004,35.247486869509004 0 0,0 -0.5711443008883078,-0.2047920259576473 l 4.924106886716912 -13.36951956747207" fill="#ffbb11" stroke="none" /><path d="M 92.40401165467489 119.57807347666478 l -4.524383932308842 11.661250259539832 a33.50818962050673,33.50818962050673 0 0,0 -0.5359378415962466,-0.21326072766764811 l 4.724442849946946 -11.581642687466116" fill="#ffa40f" stroke="none" /><path d="M 91.7346041902142 119.30500536409082 l -2.633656310431888 6.151278217053331 a27.691365276613773,27.691365276613773 0 0,0 -0.43657326350415626,-0.1913808890146588 l 2.7391502485937878 -6.10503277474422" fill="#ff5708" stroke="none" /><path d="M 91.07499286063937 119.00905698771935 l -0.9506317601295032 2.0247169576978306 a23.2367788228066,23.2367788228066 0 0,0 -0.3605986597539485,-0.17310927022636313 l 0.9853430878836938 -2.008053410971905" fill="#ff1802" stroke="none" /><path d="M 90.7491055286396 118.85261126421891 l -2.212060947426426 4.508010037699363 a26.02149062880011,26.02149062880011 0 0,0 -0.400416333950782,-0.20077706234965922 l 2.2893311890599684 -4.469265134440402" fill="#ff4006" stroke="none" /><path d="M 90.10565033884886 118.52300852407294 l -1.188251287570122 2.2245007991602863 a23.521972428056422,23.521972428056422 0 0,0 -0.35549226040571014,-0.19384272465353347 l 1.2263663598444727 -2.203717422746987" fill="#ff1c02" stroke="none" /><line stroke="#e1ed5e" stroke-width="0.3" x1="58.666819895761336" x2="56.23545636021788" y1="174.27360380694188" y2="178.64263932499728" /><path d="M 58.180547188652646 175.14741091055294 a86.0,86.0 0 0,1 -31.652253787137756,-30.449443065178592" fill="none" id="id152" stroke="none" /><text fill="#e1ed5e" style="font-size:6.75px; font-family:Arial;" text-anchor="middle"><textPath startOffset="22.20632615414155" xlink:href="#id152">August</textPath></text><path d="M 89.1626897886671 117.98757091392108 l -6.003451372872141 9.964419693817446 a32.63318908214671,32.63318908214671 0 0,0 -0.4786524290401465,-0.29402741611963856 l 6.174083001844597 -9.859603810869428" fill="#ff990e" stroke="none" /><path d="M 88.54995079064634 117.60387380957326 l -4.833276206642301 7.4309186688069095 a29.864485949682454,29.864485949682454 0 0,0 -0.42852024884591633,-0.2839998544401001 l 4.960471154228179 -7.34662079327549" fill="#ff740a" stroke="none" /><path d="M 88.24862548938628 117.40417183066458 l -1.268667470147691 1.8789382149707197 a23.26714048208052,23.26714048208052 0 0,0 -0.32999798129046326,-0.22697562061382456 l 1.3008223360610447 -1.856821804991794" fill="#ff1902" stroke="none" /><path d="M 87.95078237400918 117.19931262002967 l -7.785190793001911 11.112748927912728 a34.56843338113384,34.56843338113384 0 0,0 -0.48440691729257107,-0.3456114736868994 l 7.975325038143369 -10.97709319238161" fill="#ffb210" stroke="none" /><path d="M 87.36589467227662 116.77436683061367 l -9.997985152702535 13.274376472899181 a37.61832656611127,37.61832656611127 0 0,0 -0.5138865320936946,-0.3940262795635661 l 10.225000413289715 -13.10031085150825" fill="#ffd914" stroke="none" /><path d="M 86.79598089348748 116.32954008644616 l -1.6364929540370927 2.023866905869208 a23.602719047704852,23.602719047704852 0 0,0 -0.31372494922769906,-0.25817427492859046 l 1.6710880318094807 -1.9953975120834366" fill="#ff1d03" stroke="none" /><path d="M 86.51685102203217 116.09983520530335 l -2.8994278982289674 3.4621223445222964 a25.515857976671654,25.515857976671654 0 0,0 -0.334299686863765,-0.2848974456221264 l 2.958593061669789 -3.4117005086772187" fill="#ff3905" stroke="none" /><path d="M 86.24171649860922 115.8653595955263 l -10.38636794452058 11.977036402441403 a36.853265911614905,36.853265911614905 0 0,0 -0.4756837878909616,-0.4197356360081171 l 10.59099408531813 -11.796477624660996" fill="#ffcf13" stroke="none" /><path d="M 85.44109423537348 115.13401014063109 l -3.8431335935823037 3.9949446556890065 a26.543397750490126,26.543397750490126 0 0,0 -0.32654705109273147,-0.31959501853793926 l 3.911330597050829 -3.9281995342284977" fill="#ff4706" stroke="none" /><path d="M 85.18274418774928 114.88116024355367 l -1.9186297941407067 1.9269045345804348 a23.71920969628145,23.71920969628145 0 0,0 -0.2868436032687796,-0.2905710556968759 l 1.9515140224650196 -1.8935929849028943" fill="#ff1f03" stroke="none" /><path d="M 84.67929136418377 114.36230785411682 l -5.02612488717389 4.7117111002342185 a27.88927810975425,27.88927810975425 0 0,0 -0.3253132786376376,-0.3530633138083099 l 5.106484573807257 -4.6244965316245645" fill="#ff5908" stroke="none" /><path d="M 84.43433777217949 114.09645910891817 l -1.7462406416090077 1.5814174455601748 a23.355894207202248,23.355894207202248 0 0,0 -0.2673039276786048,-0.3003187964163966 l 1.7732034189359507 -1.551124479402914" fill="#ff1a02" stroke="none" /><path d="M 84.19399662182784 113.82643327865904 l -4.171302144515039 3.6488813399794475 a26.542030008407206,26.542030008407206 0 0,0 -0.2978489610799202,-0.34646563143077597 l 4.233493615165738 -3.5765386093871414" fill="#ff4706" stroke="none" /><path d="M 83.95833913139862 113.55231037782056 l -2.21042583929772 1.8674111918143925 a23.89364941731867,23.89364941731867 0 0,0 -0.26272091560001687,-0.31646426723321563 l 2.2422427547912736 -1.8290856674674156" fill="#ff2203" stroke="none" /><path d="M 83.72743513129214 113.27417163493432 l -2.1759533153958883 1.775010762667986 a23.808101856836668,23.808101856836668 0 0,0 -0.2563135894192465,-0.31979061281654186 l 2.2061848168699956 -1.7372923162731846" fill="#ff2003" stroke="none" /><path d="M 83.50135304334701 112.99209946851258 l -3.15993860280848 2.4883396044501427 a25.02206986023295,25.02206986023295 0 0,0 -0.2635576796274651,-0.3406838288512442 l 3.2023030996540136 -2.4335777814856456" fill="#ff3204" stroke="none" /><path d="M 82.6465618267979 111.8261652097733 l -2.266605913331266 1.5446654276210485 a23.742898767660954,23.742898767660954 0 0,0 -0.22724994861177372,-0.33970783949667727 l 2.29285896735377 -1.5054206739185503" fill="#ff1f03" stroke="none" /><path d="M 82.44556493220864 111.52570212397912 l -46.8458732020192 30.757559453156546 a77.04072893507114,77.04072893507114 0 0,0 -0.7182952403511546,-1.1148101642702288 l 47.3683733057474 -29.946627688964867" fill="#44ffeb" stroke="none" /><line stroke="#e1ed5e" stroke-width="0.3" x1="26.63291911575756" x2="22.317208475507996" y1="142.92168965132927" y2="145.44649492493687" /><path d="M 25.769776987707644 143.4266507060508 a86.0,86.0 0 0,1 -11.730757126820373,-40.83630448921669" fill="none" id="id153" stroke="none" /><text fill="#e1ed5e" style="font-size:6.75px; font-family:Arial;" text-anchor="middle"><textPath startOffset="21.46611528233685" xlink:href="#id153">September</textPath></text><path d="M 81.87401531095188 110.60418214915194 l -1.6145606297271986 0.9445608226085163 a22.870561727041363,22.870561727041363 0 0,0 -0.1958678511182014,-0.3415121081748922 l 1.6305804769977772 -0.9166288685753171" fill="#ff1302" stroke="none" /><path d="M 81.69416730710424 110.29060199501025 l -3.5132849059752447 1.974988915773225 a25.030353836573234,25.030353836573234 0 0,0 -0.2078992470892434,-0.37739752188539316 l 3.546760562516005 -1.9142208754900092" fill="#ff3204" stroke="none" /><path d="M 81.18737489456691 109.33194174019688 l -3.30187374588779 1.6378837752532331 a24.68578804260647,24.68578804260647 0 0,0 -0.18555101192498777,-0.3822900429597971 l 3.3295780144274962 -1.5808047763281512" fill="#ff2d04" stroke="none" /><path d="M 80.32549172779594 107.34259656027581 l -3.1160361257789932 1.1629157802720966 a24.32596666386866,24.32596666386866 0 0,0 -0.14303174812302183,-0.39356194114310156 l 3.1355921349072395 -1.109106042122878" fill="#ff2803" stroke="none" /><path d="M 80.0844068197444 106.66101706037122 l -5.458224383295352 1.825570818172232 a26.75542546042966,26.75542546042966 0 0,0 -0.1423232548231966,-0.4380259383265525 l 5.488839889134798 -1.731345979867876" fill="#ff4a06" stroke="none" /><path d="M 79.86692584326677 105.97154293290107 l -12.820908079310023 3.80272791121536 a34.372973623874884,34.372973623874884 0 0,0 -0.16336551713249753,-0.5686967966806202 l 12.884466233328626 -3.581473639030144" fill="#ffb010" stroke="none" /><path d="M 79.58551787078972 104.9243191809786 l -16.574116062479643 3.997957779073541 a38.049486492437254,38.049486492437254 0 0,0 -0.14810207107260984,-0.6380198459894866 l 16.64047869948281 -3.7120692757354803" fill="#ffde14" stroke="none" /><path d="M 79.50377843672027 104.57218783832718 l -2.607016976910035 0.5815594488642514 a23.671095077016247,23.671095077016247 0 0,0 -0.0852902934975044,-0.39844785661958676 l 2.6166413091319805 -0.5365977728285009" fill="#ff1e03" stroke="none" /><path d="M 79.4281124754447 104.21870165774334 l -11.572805880875459 2.373249187568003 a32.81364243841491,32.81364243841491 0 0,0 -0.10870701446443053,-0.5542947247584805 l 11.611942828315556 -2.173690735741568" fill="#ff9b0e" stroke="none" /><path d="M 79.35854240842038 103.8639653848113 l -11.135990664808185 2.084595153394285 a32.329422979139316,32.329422979139316 0 0,0 -0.09768651929274162,-0.5478778779947833 l 11.170223626440116 -1.892598524666288" fill="#ff950d" stroke="none" /><path d="M 79.29508885075956 103.50808413554451 l -9.035894244029054 1.5309738360842542 a30.16467488108836,30.16467488108836 0 0,0 -0.08233267830695358,-0.512685666410087 l 9.060908676697299 -1.3752089399809535" fill="#ff780b" stroke="none" /><path d="M 79.18660465613746 102.79330883721812 l -1.520767136992174 0.20409799616686697 a22.534401732596358,22.534401732596358 0 0,0 -0.04828638419009747,-0.3848899913922558 l 1.5240550304291196 -0.17789025048720256" fill="#ff0e01" stroke="none" /><path d="M 79.10278846688536 102.07522291339032 l -10.764904184679157 1.0690218543798145 a31.81785421562264,31.81785421562264 0 0,0 -0.04943192092294519,-0.545477128289172 l 10.781710701879177 -0.8835633375420764" fill="#ff8e0d" stroke="none" /><path d="M 79.07016306316243 101.71520430193888 l -3.957162316409978 0.32429023929138956 a24.970427906122318,24.970427906122318 0 0,0 -0.03141926842399365,-0.42869095492038284 l 3.962158143498307 -0.2561261478742461" fill="#ff3104" stroke="none" /><path d="M 79.04373962182676 101.35467743843564 l -11.369505898384377 0.7349599999599193 a32.39323617656275,32.39323617656275 0 0,0 -0.031180262366207426,-0.5567445302641717 l 11.380472511638116 -0.5391437533603101" fill="#ff960d" stroke="none" /><path d="M 79.0235259727143 100.99374915477108 l -0.5531213857418265 0.026203827623830295 a21.553741733976317,21.553741733976317 0 0,0 -0.014366972064368001,-0.3707477107760112 l 0.5534904906573953 -0.01667886983382229" fill="#ff0000" stroke="none" /><path d="M 79.0095281055655 100.63252640178507 l -6.291570686541885 0.18959004771064525 a27.29442658944753,27.29442658944753 0 0,0 -0.010109254241018505,-0.4697373210283351 l 6.2939020034679105 -0.08126291089218132" fill="#ff5107" stroke="none" /><line stroke="#e1ed5e" stroke-width="0.3" x1="15.007084014347285" x2="10.007500721073583" y1="101.09737516637583" y2="101.16192664675087" /><path d="M 14.007167355692545 101.11028546245083 a86.0,86.0 0 0,1 10.666146001902534,-42.60595125391555" fill="none" id="id154" stroke="none" /><text fill="#e1ed5e" style="font-size:6.75px; font-family:Arial;" text-anchor="middle"><textPath startOffset="22.20632615414155" xlink:href="#id154">October</textPath></text><path d="M 79.00175016825051 100.2711162175752 l -12.026993434281062 0.1552849877885479 a33.027995863637145,33.027995863637145 0 0,0 -0.0024467496517782653,-0.5685384504110973 l 12.027884481222344 0.05176294082622473" fill="#ff9e0e" stroke="none" /><path d="M 79.00019446554 99.90962569577889 l -6.780166963366114 -0.029178978386810814 a27.78022975008229,27.78022975008229 0 0,0 0.0061738159291362255,-0.4781688474954545 l 6.778660140319262 0.14588408394273727" fill="#ff5808" stroke="none" /><path d="M 79.00486145842228 99.54816195383935 l -2.776183693859263 -0.059746470047449284 a23.776826523701686,23.776826523701686 0 0,0 0.012328064384056505,-0.40910843916717204 l 2.7747439350195613 0.10752505663961574" fill="#ff2003" stroke="none" /><path d="M 79.01574976396665 99.18683210126434 l -2.842709020895461 -0.11015879505997594 a23.844842620885995,23.844842620885995 0 0,0 0.01942377235635433,-0.41000513498686814 l 2.840391640305608 0.1590750366698532" fill="#ff2103" stroke="none" /><path d="M 79.05617556472873 98.46500227214037 l -3.0356708188401416 -0.22248791398394166 a24.043813100738365,24.043813100738365 0 0,0 0.03380504727365898,-0.4125072017834917 l 3.0313912877469855 0.2747090329752117" fill="#ff2403" stroke="none" /><path d="M 79.08570108090925 98.10471618934814 l -11.684804262598856 -1.058893747058588 a32.73268539690757,32.73268539690757 0 0,0 0.055681219357946565,-0.5607022801438771 l 11.66484591755868 1.2598715579068953" fill="#ff9a0e" stroke="none" /><path d="M 79.16333360222342 97.38593545837743 l -5.498710980012055 -0.6898409334332852 a26.541814049130956,26.541814049130956 0 0,0 0.060773171987867206,-0.45283072105400735 l 5.4860218089663535 0.784389996551952" fill="#ff4706" stroke="none" /><path d="M 79.21141760316559 97.0276538004421 l -5.672771320841792 -0.8110913940448746 a26.73046278306201,26.73046278306201 0 0,0 0.06904619388672294,-0.45492814880173865 l 5.657969233515766 0.9086186552387053" fill="#ff4906" stroke="none" /><path d="M 79.26566170972629 96.67025291283419 l -2.4576848622142604 -0.3946819472395813 a23.489174305153007,23.489174305153007 0 0,0 0.067546071938819,-0.3986607401468199 l 2.450526928755218 0.4369284757022292" fill="#ff1c02" stroke="none" /><path d="M 79.32604984820605 96.31383870115002 l -8.110563303540506 -1.4461118626035596 a29.23847538200489,29.23847538200489 0 0,0 0.09260838209587559,-0.49471768022843887 l 8.084469197534768 1.5855076202945713" fill="#ff6c09" stroke="none" /><path d="M 79.3925641242962 95.95851677861259 l -7.919724112310066 -1.5531981907392587 a29.070591963097947,29.070591963097947 0 0,0 0.10052985031086062,-0.490219252565406 l 7.891814966084211 1.6892930994680673" fill="#ff6909" stroke="none" /><path d="M 79.54389044137918 95.25157060432595 l -5.608994833082029 -1.3020029966727573 a26.758127720091466,26.758127720091466 0 0,0 0.10801007414741058,-0.4477714882849626 l 5.585751958673804 1.3983597166171169" fill="#ff4a06" stroke="none" /><path d="M 79.62865764111835 94.90015583598534 l -2.1994699384402643 -0.550624192155398 a23.267345366522093,23.267345366522093 0 0,0 0.10060763366288639,-0.3876822529397696 l 2.1896659729070707 0.5884028706440315" fill="#ff1902" stroke="none" /><path d="M 79.71946130924805 94.55025226153421 l -4.283779151507742 -1.151128976355145 a25.435748160017297,25.435748160017297 0 0,0 0.11726271059200104,-0.421856360629355 l 4.263329670349381 1.2246966404034427" fill="#ff3705" stroke="none" /><path d="M 80.02781315780177 93.51064311812611 l -5.430608364433647 -1.7645116201316595 a26.71007954983434,26.71007954983434 0 0,0 0.14584047641691641,-0.436044461560364 l 5.399430594244958 1.8577291846143458" fill="#ff4906" stroke="none" /><path d="M 80.14247586403 93.16781622104843 l -3.6488926790038985 -1.255438754696888 a24.858826797056732,24.858826797056732 0 0,0 0.14269785643179708,-0.4034260560327 l 3.6267417417622916 1.318062437156199" fill="#ff2f04" stroke="none" /><path d="M 80.2630227832202 92.82701384747504 l -0.7392190492211285 -0.2686534997485768 a21.786523684105283,21.786523684105283 0 0,0 0.13112936315102494,-0.35136149982708254 l 0.7344850975684759 0.28133813660500073" fill="#ff0300" stroke="none" /><path d="M 80.52162464483688 92.15188598940014 l -5.1409671906138446 -2.071368679420994 a26.542572675306502,26.542572675306502 0 0,0 0.17439520968758285,-0.422311833162428 l 5.104550294040062 2.159555083036733" fill="#ff4706" stroke="none" /><path d="M 80.65960295795068 91.81776055985345 l -8.10803810615952 -3.4302247792633658 a29.80379031822131,29.80379031822131 0 0,0 0.2039562643156747,-0.47075917824360186 l 8.047791132001166 3.569283102093567" fill="#ff730a" stroke="none" /><path d="M 80.95270993114464 91.15688171328213 l -7.095250300514201 -3.2941241223554383 a28.822648564292713,28.822648564292713 0 0,0 0.21279597579392331,-0.4482025947617767 l 7.037496130878527 3.415769132757747" fill="#ff6609" stroke="none" /><path d="M 81.26839172434947 90.50648371742162 l -7.9937786534175626 -4.051390926437232 a29.961822671680814,29.961822671680814 0 0,0 0.23711296635060863,-0.45802677944801207 l 7.92285625390684 4.1883904281455795" fill="#ff760a" stroke="none" /><path d="M 81.6062741919709 89.86733742301443 l -4.376946056573869 -2.411154649786678 a25.997131529922488,25.997131529922488 0 0,0 0.2192949142305424,-0.3901011828320437 l 4.334793501050896 2.4861393425535065" fill="#ff3f05" stroke="none" /><line stroke="#e1ed5e" stroke-width="0.3" x1="26.266209847984243" x2="21.928928074336255" y1="57.711370442889674" y2="55.22380399835377" /><path d="M 25.398753493254645 57.213857153982495 a86.0,86.0 0 0,1 29.58750427330803,-30.492523968695096" fill="none" id="id155" stroke="none" /><text fill="#e1ed5e" style="font-size:6.75px; font-family:Arial;" text-anchor="middle"><textPath startOffset="21.46611528233685" xlink:href="#id155">November</textPath></text><path d="M 81.78341655067845 89.55222093294921 l -5.4774184182882255 -3.1414703888506335 a27.314344679618657,27.314344679618657 0 0,0 0.23742711283082557,-0.4058398989572839 l 5.422531630987075 3.2352897001618093" fill="#ff5107" stroke="none" /><path d="M 82.15384107792192 88.93136811851018 l -2.1430693941746806 -1.3291849705126793 a23.52180076811889,23.52180076811889 0 0,0 0.2163696569048137,-0.342244835937919 l 2.119872141023904 1.3658774541648138" fill="#ff1c02" stroke="none" /><path d="M 82.34701348167596 88.62581576622439 l -8.865874107725379 -5.712466011915541 a31.54684747359729,31.54684747359729 0 0,0 0.2980476515529617,-0.45394702118918445 l 8.766229820814496 5.864231097082392" fill="#ff8b0c" stroke="none" /><path d="M 82.95767976084542 87.72973835380427 l -2.022610175178428 -1.4562545304528467 a23.49231402078465,23.49231402078465 0 0,0 0.23910408689580248,-0.3261377058153 l 1.9972434757689923 1.4908546799396474" fill="#ff1c02" stroke="none" /><path d="M 83.39014120810768 87.1503855733568 l -5.11144114883249 -3.9542809333837146 a27.462442906370622,27.462442906370622 0 0,0 0.29246968061575407,-0.3714067936209251 l 5.042617387622764 4.041680120957688" fill="#ff5407" stroke="none" /><path d="M 83.6137871275137 86.86637796730984 l -6.056204870612632 -4.854074967908973 a28.76142134076695,28.76142134076695 0 0,0 0.31295372125673676,-0.38364425819622666 l 5.971752657279502 4.9576033957132815" fill="#ff6509" stroke="none" /><path d="M 83.84228863543731 86.58626213691792 l -3.219653859621439 -2.6728781018790855 a25.18454875981628,25.18454875981628 0 0,0 0.2797756157038641,-0.33116608322154356 l 3.173167630430451 2.7279031347297447" fill="#ff3404" stroke="none" /><path d="M 84.07557802195018 86.31012108654704 l -23.906400021936467 -20.55181167693217 a52.52606739212694,52.52606739212694 0 0,0 0.595315781599273,-0.6805488491063612 l 23.54909237675935 20.960276082241474" fill="#7aff26" stroke="none" /><path d="M 84.31358615837235 86.03803664274999 l -3.90524682181202 -3.475932330846812 a26.22810274458135,26.22810274458135 0 0,0 0.30306742502611567,-0.3346546202675372 l 3.8448357561698594 3.542639738383905" fill="#ff4206" stroke="none" /><path d="M 84.5562425177563 85.77008943001954 l -2.5535914645539024 -2.3528845369817537 a24.472303991906582,24.472303991906582 0 0,0 0.28811205968915077,-0.30733785724395923 l 2.5127120828942955 2.396491811103763" fill="#ff2a04" stroke="none" /><path d="M 84.80347519578584 85.50635884689758 l -4.296048357131041 -4.097343574720822 a26.936687279629467,26.936687279629467 0 0,0 0.32290127646363664,-0.3327781492193058 l 4.2248828169642865 4.170685919490251" fill="#ff4c07" stroke="none" /><path d="M 85.05521093208273 85.24692304244772 l -3.29919911595419 -3.256876911059931 a25.635942409101755,25.635942409101755 0 0,0 0.31271479400878055,-0.3113718973028726 l 3.2426485217780963 3.313184659012913" fill="#ff3a05" stroke="none" /><path d="M 85.31137513191541 84.99185889309783 l -0.5033446264480582 -0.5142936964471956 a21.719620607806263,21.719620607806263 0 0,0 0.2694440528911601,-0.2592049654010499 l 0.4944173299444705 0.5228817486105591" fill="#ff0200" stroke="none" /><path d="M 85.57189188830299 84.74124197986013 l -0.7611735051605956 -0.8049955154668661 a22.1078821620011,22.1078821620011 0 0,0 0.2787615667852487,-0.259078495793837 l 0.7472040545804908 0.8179785973353506" fill="#ff0801" stroke="none" /><path d="M 85.83668400450813 84.49514656593479 l -4.214693668857814 -4.613905926120909 a27.249141590442946,27.249141590442946 0 0,0 0.34903427072718046,-0.31336641448944014 l 4.134648410534663 4.685771349379628" fill="#ff5107" stroke="none" /><path d="M 86.10567301691215 84.25364557470407 l -3.3791361488477034 -3.8295539982506193 a26.10725414855836,26.10725414855836 0 0,0 0.33952633372743035,-0.29443389086037575 l 3.3127160164735 3.8871528825306756" fill="#ff4106" stroke="none" /><path d="M 86.65592168130627 83.78471172551755 l -1.7766457348038036 -2.1589218875548015 a23.795963838027905,23.795963838027905 0 0,0 0.3185221220357948,-0.2575560709574711 l 1.7392202142035083 2.189184055776407" fill="#ff2003" stroke="none" /><path d="M 87.80319425747018 82.90503203632743 l -6.440770467312203 -9.027344300166979 a32.0894756109727,32.0894756109727 0 0,0 0.4524140226427911,-0.3169449347367872 l 6.284425305085752 9.13687407766771" fill="#ff920d" stroke="none" /><path d="M 88.09926311788651 82.69761687909137 l -2.3551767541049 -3.4241720425083497 a25.155936924421724,25.155936924421724 0 0,0 0.3588857433505687,-0.2423212559417458 l 2.295886316347792 3.464205210748761" fill="#ff3304" stroke="none" /><path d="M 88.39885842347998 82.49532879139004 l -1.7166646171567135 -2.5902321336721847 a24.107449100806924,24.107449100806924 0 0,0 0.3478739048462588,-0.22626686445420452 l 1.6718236865261675 2.6193979222859243" fill="#ff2503" stroke="none" /><path d="M 89.00827224532344 82.1063720568725 l -2.4603196136688092 -4.005197796992226 a25.700508695283396,25.700508695283396 0 0,0 0.3789453528363282,-0.22831033503539788 l 2.3910121946148317 4.0469547414862435" fill="#ff3b05" stroke="none" /><line stroke="#e1ed5e" stroke-width="0.3" x1="56.762969772571076" x2="54.21961505331055" y1="26.818313649435495" y2="22.513508569990535" /><path d="M 56.25429882871897 25.957352633546506 a86.0,86.0 0 0,1 42.265352541879196,-11.944610805530505" fill="none" id="id156" stroke="none" /><text fill="#e1ed5e" style="font-size:6.75px; font-family:Arial;" text-anchor="middle"><textPath startOffset="22.20632615414155" xlink:href="#id156">December</textPath></text><path d="M 89.63071344664047 81.73862282372117 l -1.331529027787203 -2.3449591900522817 a23.696628108369893,23.696628108369893 0 0,0 0.35643780903106237,-0.19835725481875985 l 1.2909671296840952 2.367531842431226" fill="#ff1f03" stroke="none" /><path d="M 90.26544431104013 81.39251694778311 l -3.5614646342544343 -6.807695691557555 a28.68301704865324,28.68301704865324 0 0,0 0.43945047236747004,-0.2251036002955667 l 3.4437536742982005 6.867991817165627" fill="#ff6409" stroke="none" /><path d="M 90.58718382345135 81.22770947309562 l -2.361641921915862 -4.709900570370745 a26.26882491169797,26.26882491169797 0 0,0 0.40595183170087146,-0.1991988007861686 l 2.2802188232045646 4.749854531291743" fill="#ff4306" stroke="none" /><path d="M 90.91171255644093 81.06846463323043 l -2.343389484300706 -4.881443415568436 a26.414791232774128,26.414791232774128 0 0,0 0.41159501120646524,-0.19324937664799183 l 2.259016261794632 4.921057774856435" fill="#ff4506" stroke="none" /><path d="M 91.56875222667455 80.76684994638697 l -3.7581505983452863 -8.572998484368037 a30.360555482065138,30.360555482065138 0 0,0 0.48044312900946395,-0.20570067453810706 l 3.610023711545514 8.63641868686893" fill="#ff7b0b" stroke="none" /><path d="M 91.90106846888425 80.62456947434976 l -1.3044801340796386 -3.120765265497797 a24.382431708482223,24.382431708482223 0 0,0 0.38862824721374967,-0.15853121991264837 l 1.2505680172775084 3.1427573715940227" fill="#ff2903" stroke="none" /><path d="M 92.57280143429618 80.3572730644239 l -0.9255547607485339 -2.447816531155731 a23.61695574768538,23.61695574768538 0 0,0 0.3814899429077135,-0.14050596549897637 l 0.883282492068251 2.4633857644610297" fill="#ff1e03" stroke="none" /><path d="M 92.91201910852362 80.23233633223022 l -10.629340712456406 -29.644158954582704 a52.49220608509428,52.49220608509428 0 0,0 0.8531683134886381,-0.29765367217721733 l 10.117490394904483 29.822733479932133" fill="#7aff26" stroke="none" /><path d="M 93.25333710446033 80.11325718540243 l -10.88471086022738 -32.08422428097087 a54.880294836709915,54.880294836709915 0 0,0 0.897207044659225,-0.29579505638678055 l 10.330820993325746 32.266833061616886" fill="#62ff29" stroke="none" /><path d="M 93.59665428221793 80.00007090966166 l -0.7303537039173026 -2.2811547170799082 a23.395220945149244,23.395220945149244 0 0,0 0.3845891656633261,-0.11949372585572517 l 0.6909791655432477 2.2933885778181584" fill="#ff1b02" stroke="none" /><path d="M 93.94186890950719 79.89281104454417 l -2.452653992237117 -8.140460569045414 a29.50191801194412,29.50191801194412 0 0,0 0.4874978164793431,-0.1423139807006418 l 2.312165958034353 8.181472878664755" fill="#ff6f0a" stroke="none" /><path d="M 94.28887869178378 79.79150937346287 l -0.704981427306555 -2.494538252078726 a23.592242254098018,23.592242254098018 0 0,0 0.39174593675948866,-0.10707896280486223 l 0.6619376013233438 2.5063037557098844" fill="#ff1d03" stroke="none" /><path d="M 95.33964822691252 79.52364482259891 l -1.739137797798579 -7.641312283723688 a28.836724679170388,28.836724679170388 0 0,0 0.4849475777157498,-0.1059907573503671 l 1.6073474959293081 7.670116539169924" fill="#ff6609" stroke="none" /><path d="M 95.692805502759 79.44645832069477 l -3.002776681760863 -14.3289781136541 a35.640228194331705,35.640228194331705 0 0,0 0.6015282879203611,-0.12066091567249723 l 2.7556819843733655 14.378542985403808" fill="#ffc011" stroke="none" /><path d="M 96.04723909329186 79.375362276772 l -4.057335236766668 -21.170283595445103 a42.555576464921565,42.555576464921565 0 0,0 0.7206176483430952,-0.13168826916261273 l 3.6923224673206794 21.236987345958454" fill="#e9ff1a" stroke="none" /><path d="M 96.40284397218896 79.31037775812273 l -8.618809106709005 -49.57246869860507 a71.3161358143893,71.3161358143893 0 0,0 1.2112563226678703,-0.19986767168485323 l 7.76422357790225 49.71348263322955" fill="#3dffb0" stroke="none" /><path d="M 96.75951476605007 79.25152402106235 l -1.6453668095772438 -10.535105473522522 a31.66281760494395,31.66281760494395 0 0,0 0.5392193210741826,-0.07946691118027259 l 1.4637785080744123 10.561866868863765" fill="#ff8c0c" stroke="none" /><path d="M 98.19473922651362 79.07773832637324 l -0.45091037550662505 -5.225873738719492 a26.24529088800398,26.24529088800398 0 0,0 0.4504314437655224,-0.03496214911330731 l 0.3608887423787685 5.232861150021261" fill="#ff4306" stroke="none" /><path d="M 98.55514903715128 79.0497635885617 l -0.36112838367426864 -5.236335931797212 a26.248773923510687,26.248773923510687 0 0,0 0.45102637157292985,-0.027207142432871173 l 0.2709399632617158 5.24177634361039" fill="#ff4306" stroke="none" /><path d="M 98.91598698831166 79.02799685794201 l -0.27511808128478266 -5.32260886440382 a26.329714352766004,26.329714352766004 0 0,0 0.4528198913843731,-0.019499377054957738 l 0.1834573575110854 5.32655596798297" fill="#ff4406" stroke="none" /><path d="M 99.27714615592234 79.0124445844662 l -0.6422300780223179 -18.64670079912843 a39.65775737234605,39.65775737234605 0 0,0 0.6824408201080849,-0.01762543298685595 l 0.3211626227193539 18.654993024257642" fill="#fff216" stroke="none" /><path d="M 99.63851952072746 79.00311137660856 l -0.6843904948499935 -39.753380387765404 a60.75927115282437,60.75927115282437 0 0,0 1.0458709741225194,-0.00900214166752302 l 9.738212830747611e-15 39.75927115282437" fill="#30ff39" stroke="none" /></svg>