<?xml version="1.0" encoding="utf-8" ?>
<svg baseProfile="full" height="200mm" version="1.1" viewBox="0,0,200,200" width="200mm" xmlns="http://www.w3.org/2000/svg" xmlns:ev="http://www.w3.org/2001/xml-events" xmlns:xlink="http://www.w3.org/1999/xlink"><defs /><rect fill="#1a1a1a" height="200" width="200" x="0" y="0" /><rect fill="#1a1a1a" height="200" width="180" x="10" y="0" /><text alignment-baseline="middle" fill="#e1ed5e" style="dominant-baseline: central; font-size:9.0px; font-family:Arial;" text-anchor="middle" x="100.0" y="100.0">2016</text><line stroke="#e1ed5e" stroke-width="0.3" x1="100.0" x2="100.0" y1="15.0" y2="10.0" /><path d="M 100.0 14.0 a86.0,86.0 0 0,1 42.35913384403234,11.155469271406648" fill="none" id="id37" stroke="none" /><text fill="#e1ed5e" style="font-size:6.75px; font-family:Arial;" text-anchor="middle"><textPath startOffset="22.145653131862478" xlink:href="#id37">January</textPath></text><path d="M 100.36049292484886 79.00309439819443 l 0.16055365980665923 -9.351445774971186 a30.352823935042494,30.352823935042494 0 0,0 0.5208930298354402,0.013416356713780034 l -0.32106000371284077 9.347311700907362" fill="#ff6f0a" stroke="none" /><path d="M 103.23170211078529 79.25015418208739 l 1.9665952621894605 -12.62695232350881 a33.77917923441997,33.77917923441997 0 0,0 0.5721911420040829,0.09415383467250603 l -2.183063907246614 12.591332490340637" fill="#ff9d0e" stroke="none" /><path d="M 105.69591212413111 79.78721728523813 l 3.024773925762157 -10.733855577526883 a32.15190175984238,32.15190175984238 0 0,0 0.5299551846218911,0.15426223059381688 l -3.2085891227656522 10.680349652630552" fill="#ff870c" stroke="none" /><path d="M 106.38641147887787 79.99465700312896 l 1.6983316189441258 -5.319999607256469 a26.584507687264328,26.584507687264328 0 0,0 0.4335518768436588,0.14251711335300443 l -1.789406233435527 5.290061572501443" fill="#ff3a05" stroke="none" /><path d="M 106.72888874123014 80.10723608172694 l 1.5466380306897094 -4.572360518166114 a25.82685921755131,25.82685921755131 0 0,0 0.41875697570391124,0.1456654136931964 l -1.624900778438639 4.545136671904327" fill="#ff3004" stroke="none" /><path d="M 107.40779381753099 80.34994680014964 l 1.8968197868200753 -5.031539840287595 a26.377203591837812,26.377203591837812 0 0,0 0.42232130883006047,0.16336295475048407 l -1.9829133581436618 4.998236997399072" fill="#ff3705" stroke="none" /><path d="M 107.74402155503746 80.48000691201159 l 2.5569611227185263 -6.445212359882079 a27.9338887031067,27.9338887031067 0 0,0 0.4442094054288217,0.18065609805607613 l -2.6672249893377877 6.400369005246709" fill="#ff4d07" stroke="none" /><path d="M 108.07796709384702 80.6158196554323 l 2.0211398547748964 -4.849999881330525 a26.25428445760844,26.25428445760844 0 0,0 0.41452380250671855,0.17693556218117917 l -2.1040987324520453 4.814589669489945" fill="#ff3605" stroke="none" /><path d="M 110.02825361518725 81.54914285379988 l 2.107176707593497 -3.8769678057131913 a25.41260388473304,25.41260388473304 0 0,0 0.3814986223213788,0.21161085488455114 l -2.1734195180709763 3.840224035395494" fill="#ff2a04" stroke="none" /><line stroke="#e1ed5e" stroke-width="0.3" x1="143.13028292997686" x2="145.6673583964461" y1="26.7553504044142" y2="22.446841604673864" /><path d="M 143.63769802327073 25.89364864446614 a86.0,86.0 0 0,1 29.32050498858742,28.57503671076993" fill="none" id="id38" stroke="none" /><text fill="#e1ed5e" style="font-size:6.75px; font-family:Arial;" text-anchor="middle"><textPath startOffset="20.669276256404974" xlink:href="#id38">February</textPath></text><path d="M 110.96478420261332 82.08984904055464 l 2.8304154359845155 -4.623270900702717 a26.420874962729165,26.420874962729165 0 0,0 0.38478339582687354,0.2401332974528794 l -2.9093629606011016 4.574001806408292" fill="#ff3805" stroke="none" /><path d="M 112.16784306229584 82.88440491214696 l 10.354572004029887 -14.565002262246109 a38.87054706174027,38.87054706174027 0 0,0 0.5405208513895488,0.39129541262659473 l -10.603073865793403 14.385106078246439" fill="#ffdf14" stroke="none" /><path d="M 114.39649973595853 84.71141617570332 l 16.83115010610304 -17.874098147187127 a45.551395041207954,45.551395041207954 0 0,0 0.5646800684021341,0.5409507319493243 l -17.135502660370484 17.58253528493222" fill="#ceff1d" stroke="none" /><path d="M 114.91283532996326 85.21462403516908 l 3.9171646558273996 -3.88368481721164 a26.51608436305171,26.51608436305171 0 0,0 0.3177046098829705,0.32599291798844443 l -3.983256066861182 3.8158692071554534" fill="#ff3905" stroke="none" /><path d="M 115.41159269507618 85.73525988315684 l 3.201063177127216 -2.962856287650567 a25.361802705903866,25.361802705903866 0 0,0 0.2929919832022367,0.322049514180206 l -3.2514528611713303 2.907469197912689" fill="#ff2904" stroke="none" /><path d="M 115.6541949942343 86.00192230759917 l 3.4472660059563265 -3.0825665194232026 a25.624484756434057,25.624484756434057 0 0,0 0.2903973268472888,0.33041885045018565 l -3.4996743967622055 3.022935391161719" fill="#ff2d04" stroke="none" /><path d="M 117.01052211995028 87.68569379921539 l 3.6952223160196414 -2.6750559893790804 a25.561862833440134,25.561862833440134 0 0,0 0.254261295207324,0.3576503537234589 l -3.740598709756926 2.6112284089461175" fill="#ff2c04" stroke="none" /><path d="M 117.21940702142032 87.97951657250589 l 3.147328621852773 -2.1970798119120474 a24.838337811324735,24.838337811324735 0 0,0 0.24106229363790277,0.35171709065162887 l -3.184580652306001 2.1427279861903696" fill="#ff2103" stroke="none" /><path d="M 117.81537515405839 88.88188828441811 l 3.8370983526372453 -2.3946331626127897 a25.523006936905624,25.523006936905624 0 0,0 0.2287736928072682,0.3736846341901904 l -3.877640009899916 2.3284114122980446" fill="#ff2b04" stroke="none" /><line stroke="#e1ed5e" stroke-width="0.3" x1="172.87174338648825" x2="177.1583165268699" y1="56.24261187166439" y2="53.66864786411523" /><path d="M 173.72905801456457 55.72781907015455 a86.0,86.0 0 0,1 12.242430191666344,42.057860355516425" fill="none" id="id39" stroke="none" /><text fill="#e1ed5e" style="font-size:6.75px; font-family:Arial;" text-anchor="middle"><textPath startOffset="22.145653131862474" xlink:href="#id39">March</textPath></text><path d="M 118.18653347947321 89.5 l 4.652354955767554 -2.686038386078087 a26.372076772156174,26.372076772156174 0 0,0 0.22299052046808115,0.39400288312810966 l -4.697778841257011 2.6057787328508595" fill="#ff3705" stroke="none" /><path d="M 118.8641267826498 90.77261029715802 l 1.3983946857458882 -0.6840249152496423 a22.55672662397886,22.55672662397886 0 0,0 0.16715688262947617,0.34929359487872147 l -1.4099308263352763 0.6599188183058173" fill="#ff0000" stroke="none" /><path d="M 119.31412917781788 91.75594674310238 l 3.014718819480839 -1.2868041977743203 a24.27786433580488,24.27786433580488 0 0,0 0.1603196349155036,0.3847087614833756 l -3.036364298932826 1.234862926849667" fill="#ff1902" stroke="none" /><path d="M 119.94978838288452 93.4421083053983 l 5.232968214555005 -1.7201805920801954 a26.50844602441672,26.50844602441672 0 0,0 0.13839338162810305,0.4335152968335783 l -5.261726311960365 1.63009626155523" fill="#ff3905" stroke="none" /><path d="M 120.05942366710727 93.78553927170692 l 4.24534071967901 -1.3152174069651748 a25.444402620572184,25.444402620572184 0 0,0 0.12567557500548074,0.41833311542767754 l -4.2672926146881185 1.2421466879467737" fill="#ff2a04" stroke="none" /><path d="M 120.26092885502905 94.47779374421319 l 4.325575455664769 -1.1789548254210886 a25.483362298881627,25.483362298881627 0 0,0 0.1114114630238802,0.42304747197720727 l -4.345176399493379 1.104526849071083" fill="#ff2b04" stroke="none" /><path d="M 120.35273937422433 94.82641323984039 l 4.246886672489731 -1.0795419848257433 a25.38194674841815,25.38194674841815 0 0,0 0.10371845868159721,0.42320670543172 l -4.26479265768762 1.0064794547859282" fill="#ff2904" stroke="none" /><path d="M 120.43855184770803 95.1765574152323 l 34.37482860114684 -8.112365952065035 a56.31910704842984,56.31910704842984 0 0,0 0.21398347758265593,0.9428506848305008 l -34.50902294028716 7.521080933295508" fill="#58ff2a" stroke="none" /><path d="M 120.7213421655516 96.59031103205396 l 4.3662987837046465 -0.7184728032870474 a25.4250161850149,25.4250161850149 0 0,0 0.06716866477643256,0.4312710114136519 l -4.377988940619344 0.6434136099419543" fill="#ff2a04" stroke="none" /><path d="M 120.77682067341334 96.94652285012252 l 4.4042541840778435 -0.6472736962370208 a25.451563563042487,25.451563563042487 0 0,0 0.05981782019427139,0.43281194871195994 l -4.414716520827327 0.5715734393249752" fill="#ff2a04" stroke="none" /><path d="M 120.82617615685814 97.30363454192243 l 4.421818189843312 -0.5724928925594612 a25.45872450551279,25.45872450551279 0 0,0 0.052393950458011374,0.43389707038037545 l -4.430994226560987 0.4965021452556728" fill="#ff2a04" stroke="none" /><path d="M 120.9064616781168 98.02013634271609 l 13.434811469650652 -1.2722906142967376 a34.494920623415474,34.494920623415474 0 0,0 0.050767287228512425,0.5899928314465737 l -13.454672379576905 1.041476735474502" fill="#ffa70f" stroke="none" /><path d="M 120.96210409425399 98.7389718711861 l 5.460755831298236 -0.32850551055794364 a26.470627945631527,26.470627945631527 0 0,0 0.02339298955987382,0.4538177479741674 l -5.465590410314682 0.23471596920704557" fill="#ff3905" stroke="none" /><path d="M 120.98066250479742 99.09900007780936 l 2.411948599291636 -0.10357945082967125 a23.414171648466418,23.414171648466418 0 0,0 0.013797985850442679,0.40171330311251635 l -2.413371272138927 0.06215988315303496" fill="#ff0d01" stroke="none" /><line stroke="#e1ed5e" stroke-width="0.3" x1="184.99686870605535" x2="189.99668451229388" y1="99.2704041080226" y2="99.22748670261217" /><path d="M 185.99683186730306 99.26182062694052 a86.0,86.0 0 0,1 -10.086455211305974,41.156179273409016" fill="none" id="id40" stroke="none" /><text fill="#e1ed5e" style="font-size:6.75px; font-family:Arial;" text-anchor="middle"><textPath startOffset="21.40746469413373" xlink:href="#id40">April</textPath></text><path d="M 120.98066250479742 100.90099992219065 l 15.583985405349214 0.6692433870679312 a36.59834888138073,36.59834888138073 0 0,0 -0.03234319922629752,0.627449424435059 l -15.570200616666343 -0.9366646048797209" fill="#ffc212" stroke="none" /><path d="M 120.9064616781168 101.97986365728391 l 9.393933791486237 0.8896152968898846 a30.435963514940457,30.435963514940457 0 0,0 -0.0537232547625783,0.5197237560199688 l -9.377278144241993 -1.0507435751927847" fill="#ff700a" stroke="none" /><path d="M 120.82617615685814 102.69636545807757 l 20.237759994409167 2.6201832053465797 a41.406672673929194,41.406672673929194 0 0,0 -0.09731649274580677,0.7041336633520078 l -20.18979898510815 -2.9672051768986725" fill="#ffff18" stroke="none" /><path d="M 120.77682067341334 103.0534771498775 l 4.143624522347165 0.6089701112379319 a25.188134283732783,25.188134283732783 0 0,0 -0.06654286218487822,0.42725290985539116 l -4.132560168024019 -0.6800112030247737" fill="#ff2603" stroke="none" /><path d="M 120.592083275326 104.11899336999214 l 5.290308140985808 1.0582097919177622 a26.395105948013565,26.395105948013565 0 0,0 -0.09268740645904541,0.4435427931253635 l -5.271363023702398 -1.1488690363285348" fill="#ff3805" stroke="none" /><path d="M 120.43855184770803 104.8234425847677 l 6.156211287732482 1.4528491014105966 a27.325322753083388,27.325322753083388 0 0,0 -0.11165969210393455,0.4556096477474246 l -6.130364069112251 -1.5583145737661208" fill="#ff4506" stroke="none" /><path d="M 120.26092885502905 105.52220625578681 l 17.631006266554934 4.8054091595519 a39.27414400627303,39.27414400627303 0 0,0 -0.1828707154006421,0.6489436555080427 l -17.545917059079713 -5.107360738962951" fill="#ffe415" stroke="none" /><path d="M 120.05942366710727 106.21446072829308 l 4.222450804509563 1.308126052734108 a25.4204394087404,25.4204394087404 0 0,0 -0.13271319522115835,0.41572219381587383 l -4.19937289351115 -1.3804172802413655" fill="#ff2a04" stroke="none" /><path d="M 119.94978838288452 106.5578916946017 l 23.873857266198268 7.8478110784587 a46.13064263981299,46.13064263981299 0 0,0 -0.25375055891113724,0.7501684389012871 l -23.735621285714764 -8.256481191834148" fill="#c7ff1e" stroke="none" /><path d="M 119.83427380445688 106.89939002012753 l 23.476944477465786 8.166499970093103 a45.85676253576764,45.85676253576764 0 0,0 -0.26500804303219216,0.7412746616397186 l -23.33329626438965 -8.568309588113742" fill="#caff1d" stroke="none" /><path d="M 119.71291397450082 107.23885506374661 l 5.0743389001222265 1.8633675310423665 a26.40565017634665,26.40565017634665 0 0,0 -0.15990421316005232,0.4241649231704013 l -5.041604003147734 -1.9502007344069268" fill="#ff3805" stroke="none" /><path d="M 119.58574465831526 107.57618678355244 l 19.526965775075503 7.553449848801079 a41.93697678747634,41.93697678747634 0 0,0 -0.26548367914485654,0.6691922982200806 l -19.39442342096452 -7.887543164234724" fill="#f9ff18" stroke="none" /><path d="M 119.4528033332814 107.91128576633889 l 24.234011762029574 9.855761610781322 a47.16148625385681,47.16148625385681 0 0,0 -0.3114323465075114,0.7473242586531239 l -24.061253570985578 -10.270318378875723" fill="#bbff1f" stroke="none" /><path d="M 119.0197475246899 108.90220220490707 l 3.7886157239066813 1.7732634572107735 a25.183069733116106,25.183069733116106 0 0,0 -0.18661942851022903,0.38996283032533563 l -3.7576170374365403 -1.8380387896012127" fill="#ff2603" stroke="none" /><path d="M 118.8641267826498 109.22738970284198 l 8.741682150059654 4.275994790872971 a30.73145098452663,30.73145098452663 0 0,0 -0.2358713303245427,0.4719006645892919 l -8.66699090652338 -4.4254273116260086" fill="#ff740a" stroke="none" /><line stroke="#e1ed5e" stroke-width="0.3" x1="174.33088141563837" x2="178.70328620479359" y1="141.23008692659167" y2="143.65538615756765" /><path d="M 175.20536237346943 141.71514677278685 a86.0,86.0 0 0,1 -30.301960400862466,31.631185727798858" fill="none" id="id41" stroke="none" /><text fill="#e1ed5e" style="font-size:6.75px; font-family:Arial;" text-anchor="middle"><textPath startOffset="22.145653131862474" xlink:href="#id41">May</textPath></text><path d="M 118.36410011445183 110.18625677009912 l 17.136802609014406 9.50549553237043 a40.5965417606331,40.5965417606331 0 0,0 -0.34326625296212904,0.6065185778469941 l -16.971102991030897 -9.798270880316547" fill="#fff517" stroke="none" /><path d="M 118.18653347947321 110.5 l 2.744557955116599 1.5845712741930964 a24.169142548386194,24.169142548386194 0 0,0 -0.21053197979624352,0.3575293283810874 l -2.71695226519059 -1.6314517708677332" fill="#ff1802" stroke="none" /><path d="M 117.81537515405839 111.11811171558189 l 4.866510508804596 3.0370624830551036 a26.73643382758717,26.73643382758717 0 0,0 -0.24633461593586709,0.3872789313433615 l -4.813658201242839 -3.120155089077137" fill="#ff3d05" stroke="none" /><path d="M 117.423217284605 111.72311816256416 l 5.178651471764546 3.484427826075229 a27.241768046085696,27.241768046085696 0 0,0 -0.26438818643279627,0.3857502653421277 l -5.1180735485164295 -3.5728128264874006" fill="#ff4406" stroke="none" /><path d="M 117.21940702142032 112.02048342749411 l 41.25507740682544 28.79924806074001 a71.3128025527022,71.3128025527022 0 0,0 -0.7093413207035033,0.9977774008167867 l -40.754620987591984 -29.5032026882663" fill="#3dffae" stroke="none" /><path d="M 114.91283532996324 114.78537596483092 l 3.782641739026867 3.750311662021947 a26.32665148926847,26.32665148926847 0 0,0 -0.32094454748453444,0.31820144817712903 l -3.717705271412368 -3.8146931204277377" fill="#ff3705" stroke="none" /><path d="M 113.59037401385872 116.0094264158162 l 16.12043807944878 18.989835523325674 a45.90948367743306,45.90948367743306 0 0,0 -0.6051868279661438,0.5048683761047634 l -15.79207691732074 -19.263766083342308" fill="#caff1d" stroke="none" /><path d="M 112.7482090630111 116.68781488649013 l 2.7076790068088656 3.544438737576611 a25.460333123024235,25.460333123024235 0 0,0 -0.3495909979695358,0.26233960225439074 l -2.646435019928563 -3.5903973670950164" fill="#ff2a04" stroke="none" /><path d="M 112.45986205192187 116.90419585922612 l 5.326891058715854 7.226950780197753 a29.978005676698352,29.978005676698352 0 0,0 -0.41686413946251943,0.3017774893251214 l -5.202045908879367 -7.3173290408959515" fill="#ff6a09" stroke="none" /><path d="M 111.5731344415666 117.5232005979908 l 6.718535097823106 10.17271844876792 a33.19109980676822,33.19109980676822 0 0,0 -0.4781325987018561,0.3099197738443707 l -6.542916866864241 -10.286552064316187" fill="#ff950d" stroke="none" /><path d="M 110.96478420261333 117.91015095944535 l 4.717967770111083 7.706445783433459 a30.035957419820342,30.035957419820342 0 0,0 -0.44205383637628964,0.2654406275056098 l -4.584981177177357 -7.786300411474992" fill="#ff6b09" stroke="none" /><line stroke="#e1ed5e" stroke-width="0.3" x1="143.1302829299769" x2="145.66735839644613" y1="173.24464959558577" y2="177.55315839532614" /><path d="M 143.63769802327073 174.10635135553383 a86.0,86.0 0 0,1 -40.68552437913181,11.842963189579606" fill="none" id="id42" stroke="none" /><text fill="#e1ed5e" style="font-size:6.75px; font-family:Arial;" text-anchor="middle"><textPath startOffset="21.407464694133747" xlink:href="#id42">June</textPath></text><path d="M 110.65571695917076 118.09573695890943 l 4.683061244832149 7.952861808703703 a30.229250975631054,30.229250975631054 0 0,0 -0.4494190402633529,0.25947220387499104 l -4.545849736708397 -8.032080909854866" fill="#ff6d0a" stroke="none" /><path d="M 110.34350942703117 118.27599006163325 l 3.89289507608077 6.878372589433021 a28.903584095360625,28.903584095360625 0 0,0 -0.4339058509134052,0.24068026115660326 l -3.77424503701127 -6.944185766022768" fill="#ff5b08" stroke="none" /><path d="M 109.3889696526874 118.78422872680471 l 10.725793078400244 21.45877108074163 a44.990029042423686,44.990029042423686 0 0,0 -0.6937885614662259,0.3393667516013019 l -10.35584426767195 -21.639731582440156" fill="#d4ff1c" stroke="none" /><path d="M 107.74402155503746 119.51999308798841 l 3.101348961859012 7.817425334973134 a29.410142938803347,29.410142938803347 0 0,0 -0.4708812295264644,0.18214697526176094 l -2.9666954698390184 -7.869512198372935" fill="#ff6209" stroke="none" /><path d="M 107.407793817531 119.65005319985036 l 5.071770565971977 13.453473988832107 a35.3777195355189,35.3777195355189 0 0,0 -0.570104956217015,0.20935043669935655 l -4.840076458100835 -13.538555274540185" fill="#ffb210" stroke="none" /><path d="M 105.69591212413111 120.21278271476187 l 2.5804707674550524 9.157180410735421 a30.513820602494384,30.513820602494384 0 0,0 -0.5053940159090302,0.13774738642336978 l -2.422895350611327 -9.200128291302933" fill="#ff710a" stroke="none" /><path d="M 104.64783097203109 120.47920084513623 l 13.943492916093243 61.4376025354087 a84.0,84.0 0 0,0 -1.4089503335234566,0.30707416746512495 l -12.88678016595065 -61.66790816100754" fill="#4dd2ff" stroke="none" /><path d="M 104.29559338865022 120.5559693870025 l 0.9128140373543475 4.368145611141791 a25.46250216212031,25.46250216212031 0 0,0 -0.42862304768976633,0.08573661382651053 l -0.8376945041336225 -4.3831716216311625" fill="#ff2a04" stroke="none" /><path d="M 103.94208987418118 120.62667999033965 l 0.8530169130208523 4.463344939562853 a25.544126528104268,25.544126528104268 0 0,0 -0.4314102114902671,0.07861731156379408 l -0.7762719679795279 -4.47733042505801" fill="#ff2b04" stroke="none" /><path d="M 103.2317021107853 120.74984581791261 l 0.8392029407563241 5.388284883225556 a26.45324449833043,26.45324449833043 0 0,0 -0.4492956279893372,0.06603098496974881 l -0.7465822071593013 -5.401896941494187" fill="#ff3805" stroke="none" /><path d="M 102.875027216393 120.80226474461374 l 0.7655503593357597 5.539141041668602 a26.591793167864548,26.591793167864548 0 0,0 -0.45272170539071105,0.058613888567128555 l -0.6703508320542733 -5.551466526436125" fill="#ff3a05" stroke="none" /><path d="M 102.51750503828377 120.84855314841334 l 3.7375371742889683 30.95216940477519 a52.17701036005687,52.17701036005687 0 0,0 -0.890149979705311,0.09974316190116123 l -3.205651292982858 -31.011768327183322" fill="#83ff25" stroke="none" /><path d="M 101.44090949804482 120.95050786540614 l 0.30521214849680495 4.437717654284582 a25.44820103353469,25.44820103353469 0 0,0 -0.4360799461898046,0.026233486680745786 l -0.2289878501745352 -4.4423031187900195" fill="#ff2a04" stroke="none" /><path d="M 100.72087961077811 120.9876233191556 l 0.16457976388753798 4.791560253311716 a25.79438590017511,25.79438590017511 0 0,0 -0.44266444048306863,0.011401465747973176 l -0.0823020093337255 -4.793679436409734" fill="#ff2f04" stroke="none" /><line stroke="#e1ed5e" stroke-width="0.3" x1="101.45913802915013" x2="101.54496967792366" y1="184.9874750549273" y2="189.98673829345242" /><path d="M 101.47630435890484 185.9873277026323 a86.0,86.0 0 0,1 -42.54439059252881,-10.42667462771756" fill="none" id="id43" stroke="none" /><text fill="#e1ed5e" style="font-size:6.75px; font-family:Arial;" text-anchor="middle"><textPath startOffset="22.145653131862474" xlink:href="#id43">July</textPath></text><path d="M 100.0 121.0 l 1.1895742493683148e-15 9.713610897415833 a30.713610897415833,30.713610897415833 0 0,0 -0.5272399726228101,-0.00452572105264476 l 0.1667470477739568 -9.712179574557624" fill="#ff740a" stroke="none" /><path d="M 99.63950707515114 120.99690560180557 l -0.36063907151194485 21.005417912249154 a42.00851356493692,42.00851356493692 0 0,0 -0.720919475451515,-0.01856832841019576 l 0.7211718610342038 -20.99613186648891" fill="#f8ff18" stroke="none" /><path d="M 98.91894614982273 120.97215588758144 l -0.2461299770931136 4.774855801454482 a25.781195236581265,25.781195236581265 0 0,0 -0.44178612926951616,-0.026576756485117276 l 0.3280604584950761 -4.769927067144673" fill="#ff2f04" stroke="none" /><path d="M 98.55909050195518 120.95050786540614 l -1.1150752887910935 16.212949973636125 a37.25125040565495,37.25125040565495 0 0,0 -0.6375835418659025,-0.04935299850055878 l 1.3932278254322321 -16.191419208140513" fill="#ffca12" stroke="none" /><path d="M 97.84075906011543 120.88869738790638 l -1.4077420870760289 13.61862769178641 a34.691192716166725,34.691192716166725 0 0,0 -0.5918385181357328,-0.06631674041412501 l 1.641316506812561 -13.592455190865314" fill="#ffa90f" stroke="none" /><path d="M 97.12497278360702 120.80226474461374 l -0.7208153577420637 5.215460854852764 a26.265036249491388,26.265036249491388 0 0,0 -0.44609900145226994,-0.06556119095068026 l 0.8102394648020186 -5.202318590603201" fill="#ff3605" stroke="none" /><path d="M 96.41257539226777 120.69131181640829 l -1.2620469505682221 7.2791514349514825 a28.38774716123899,28.38774716123899 0 0,0 -0.47943561480124036,-0.08736913985740755 l 1.3868172989205196 -7.256414121162709" fill="#ff5407" stroke="none" /><path d="M 96.05791012581884 120.62667999033965 l -0.8775386117701914 4.5916528293029915 a25.674756648211083,25.674756648211083 0 0,0 -0.43219603372761983,-0.08645131110139115 l 0.9562311310287693 -4.575912121538739" fill="#ff2d04" stroke="none" /><path d="M 95.35216902796893 120.47920084513623 l -4.927104481575086 21.709731457607834 a43.2618237917248,43.2618237917248 0 0,0 -0.7228182351946171,-0.17058313537391423 l 5.2990548705095915 -21.62195217858769" fill="#e9ff1a" stroke="none" /><path d="M 95.00130118170881 120.39639698878247 l -2.972996508755252 12.130840293267704 a33.489835645909764,33.489835645909764 0 0,0 -0.557198633592043,-0.14163771375079146 l 3.1808004355726736 -12.07801734768165" fill="#ff990e" stroke="none" /><path d="M 93.27111125876986 119.89276391827306 l -2.7623545754355705 8.166410464033836 a29.62095485822256,29.62095485822256 0 0,0 -0.4802744836066548,-0.16706439629632883 l 2.9021348310872472 -8.117787635168918" fill="#ff6509" stroke="none" /><path d="M 92.93061703081489 119.77432235084164 l -1.443739418625186 4.038396105990279 a25.288709201819312,25.288709201819312 0 0,0 -0.4075225492647602,-0.14964792486549844 l 1.512851119544065 -4.013017332116061" fill="#ff2803" stroke="none" /><path d="M 92.59220618246901 119.65005319985036 l -1.5309251001733526 4.060960713053321 a25.3399462641032,25.3399462641032 0 0,0 -0.4057139429007139,-0.1569388688421573 l 1.6004113055675948 -4.034081956073123" fill="#ff2903" stroke="none" /><path d="M 92.25597844496254 119.51999308798841 l -8.064135708543919 20.32688986886689 a42.86807573763308,42.86807573763308 0 0,0 -0.6816953642825174,-0.2772395700521271 l 8.411885534016877 -20.18546304223547" fill="#eeff19" stroke="none" /><path d="M 91.26138138417905 119.09545874513695 l -1.010370432820223 2.20784173854373 a23.428047271774815,23.428047271774815 0 0,0 -0.3642629450565108,-0.17049345100078434 l 1.0481220917482237 -2.190172055972419" fill="#ff0d01" stroke="none" /><path d="M 90.93487009805054 118.94263497670748 l -2.009780618094513 4.199668514804052 a25.65579571793102,25.65579571793102 0 0,0 -0.39563649953704993,-0.19352563752139165 l 2.081577366893632 -4.164549127185439" fill="#ff2d04" stroke="none" /><path d="M 90.6110303473126 118.78422872680471 l -3.9783056672349293 7.9592762957855125 a29.89814560088824,29.89814560088824 0 0,0 -0.4571181273185249,-0.2334077729044475 l 4.114351016267037 -7.889810571208229" fill="#ff6909" stroke="none" /><path d="M 90.28995756902619 118.62028667847754 l -3.850139802461597 7.383150731181926 a29.32673352629056,29.32673352629056 0 0,0 -0.44438545735775514,-0.23661022593257822 l 3.976314075605914 -7.315970037526775" fill="#ff6108" stroke="none" /><path d="M 89.97174638481275 118.45085714620012 l -8.937628604691438 16.44422996654282 a39.7161402075306,39.7161402075306 0 0,0 -0.5962259059252912,-0.33071645944472333 l 9.218598698772832 -16.28838059166495" fill="#ffea16" stroke="none" /><line stroke="#e1ed5e" stroke-width="0.3" x1="58.13341422392154" x2="55.67067388415222" y1="173.97424548756322" y2="178.32567169271397" /><path d="M 57.64086615596768 174.84453072859336 a86.0,86.0 0 0,1 -31.369924170532247,-30.572349798747897" fill="none" id="id44" stroke="none" /><text fill="#e1ed5e" style="font-size:6.75px; font-family:Arial;" text-anchor="middle"><textPath startOffset="22.145653131862474" xlink:href="#id44">August</textPath></text><path d="M 89.03521579738668 117.91015095944536 l -3.7985409116541624 6.2046311077550005 a28.275050531840414,28.275050531840414 0 0,0 -0.4117868910914435,-0.2569854756678426 l 3.9044919315353184 -6.1385098352456104" fill="#ff5207" stroke="none" /><path d="M 88.72937992617639 117.7192867562869 l -4.146677986607163 6.519266539853082 a28.726304067421914,28.726304067421914 0 0,0 -0.4138152244070968,-0.26823002888697844 l 4.257978843271269 -6.4471226692622094" fill="#ff5808" stroke="none" /><path d="M 88.4268655584334 117.5232005979908 l -6.03940418449766 9.144427687385601 a31.95878463304906,31.95878463304906 0 0,0 -0.4551900529358737,-0.30627218210187573 l 6.1954905255305395 -9.039405831226604" fill="#ff850c" stroke="none" /><path d="M 88.1277618465304 117.32195027204791 l -2.9456926135132853 4.297853556206181 a26.210436657699702,26.210436657699702 0 0,0 -0.3689492256426246,-0.2575552135394105 l 3.0190369303296754 -4.246653526861642" fill="#ff3505" stroke="none" /><path d="M 87.54013794807813 116.9041958592261 l -3.1366578893188395 4.255478839451031 a26.286560589612268,26.286560589612268 0 0,0 -0.36093577037289243,-0.27085293096493873 l 3.209246648602498 -4.201006881222077" fill="#ff3605" stroke="none" /><path d="M 87.2517909369889 116.68781488649013 l -2.8456523193155303 3.7250502326506663 a25.68761521012515,25.68761521012515 0 0,0 -0.3481161826113556,-0.27069724916049587 l 2.909178446562114 -3.6756519318693774" fill="#ff2e04" stroke="none" /><path d="M 86.96720088162412 116.46651593811092 l -3.5141752359760186 4.440045611608029 a26.662458178415697,26.662458178415697 0 0,0 -0.35645069495358356,-0.28713144803383545 l 3.589876701284864 -4.379065869780782" fill="#ff3b05" stroke="none" /><path d="M 86.40962598614128 116.0094264158162 l -7.013828769797472 8.26227265479984 a31.83784773072089,31.83784773072089 0 0,0 -0.4136199133869542,-0.3572750298780525 l 7.154628162947288 -8.140653492457066" fill="#ff830c" stroke="none" /><path d="M 85.86807049272751 115.53346607816431 l -4.947356784909173 5.438011755961192 a28.3517556416926,28.3517556416926 0 0,0 -0.35719192732253,-0.33061151536389394 l 5.039978483545671 -5.35228249446492" fill="#ff5307" stroke="none" /><path d="M 85.60350026404147 115.28858382429668 l -3.028963135604575 3.216653884536179 a25.4183118823543,25.4183118823543 0 0,0 -0.3150993307539731,-0.30185803102707803 l 3.0837349522238626 -3.1641837232035184" fill="#ff2a04" stroke="none" /><path d="M 85.34317274990678 115.03919595460226 l -6.028990806574616 6.186275692646551 a29.638213767393744,29.638213767393744 0 0,0 -0.3613153427318182,-0.3582271959657469 l 6.134298069436397 -6.081868486452144" fill="#ff6509" stroke="none" /><path d="M 84.83555147118756 114.52719865689866 l -6.897344356795676 6.607499869568717 a30.55156603403713,30.55156603403713 0 0,0 -0.35955434835875805,-0.3818342579858518 l 7.009754538890687 -6.488124151638376" fill="#ff720a" stroke="none" /><path d="M 84.58840730492382 114.26474011684316 l -15.779703104261346 14.605457616015624 a42.50159115581598,42.50159115581598 0 0,0 -0.49099922534663726,-0.539694159060305 l 16.028100030449863 -14.332425881397645" fill="#f2ff19" stroke="none" /><path d="M 84.3458050057657 113.99807769240083 l -15.662962785474859 14.005917905393012 a42.011761934492284,42.011761934492284 0 0,0 -0.47611116781022483,-0.541727110446433 l 15.901085017243675 -13.734978517135279" fill="#f8ff18" stroke="none" /><path d="M 84.1078160697243 113.72728997021213 l -6.082492330389285 5.2539120065039695 a29.037431450490327,29.037431450490327 0 0,0 -0.3225995532947121,-0.38002146261613146 l 6.17178644719111 -5.148723761438284" fill="#ff5d08" stroke="none" /><path d="M 83.4222238831116 112.89097897827486 l -8.4156266934023 6.544042218252624 a31.66054694642719,31.66054694642719 0 0,0 -0.3299451473860524,-0.43190878930985777 l 8.526723818142647 -6.398612515701895" fill="#ff810b" stroke="none" /><path d="M 83.20337586046588 112.60449989151573 l -5.828948183439119 4.374151385151315 a28.28764963931715,28.28764963931715 0 0,0 -0.28812719659857744,-0.39089987861629943 l 5.903177399621526 -4.273445197266136" fill="#ff5207" stroke="none" /><path d="M 82.98947788004972 112.3143062007846 l -3.658283795587779 2.6483153492038785 a25.516261121535045,25.516261121535045 0 0,0 -0.25380769953598303,-0.35701231460637567 l 3.703206593653723 -2.585125807887999" fill="#ff2b04" stroke="none" /><path d="M 82.576782715395 111.72311816256416 l -13.158559784963682 8.853666271188406 a36.85985819785419,36.85985819785419 0 0,0 -0.34872157184576824,-0.5280089060706408 l 13.308605795730177 -8.626477486778704" fill="#ffc512" stroke="none" /><line stroke="#e1ed5e" stroke-width="0.3" x1="26.387840678322732" x2="22.057713659400548" y1="142.50000000000003" y2="145.00000000000006" /><path d="M 25.521815274538298 143.00000000000003 a86.0,86.0 0 0,1 -11.493303480769221,-40.785679425670985" fill="none" id="id45" stroke="none" /><text fill="#e1ed5e" style="font-size:6.75px; font-family:Arial;" text-anchor="middle"><textPath startOffset="21.40746469413373" xlink:href="#id45">September</textPath></text><path d="M 81.81346652052679 110.50000000000001 l -8.26093375766874 4.769452328747719 a30.53890465749543,30.53890465749543 0 0,0 -0.2582233588554486,-0.45625593261321884 l 8.341590481545566 -4.626939626035378" fill="#ff720a" stroke="none" /><path d="M 81.4637452351635 109.86951160357371 l -45.57851491776939 24.26799197364995 a72.63658060466886,72.63658060466886 0 0,0 -0.5765681849547144,-1.1056455180154763 l 45.98839117169905 -23.48200021252997" fill="#3fffbc" stroke="none" /><path d="M 80.68587082218212 108.24405325689762 l -6.772403056704563 2.8907361529284636 a28.363545251324865,28.363545251324865 0 0,0 -0.1872995563656501,-0.44945075126819223 l 6.821028457606699 -2.77405289221899" fill="#ff5307" stroke="none" /><path d="M 80.5471966667186 107.91128576633889 l -4.105641518280163 1.669728663204495 a25.432187505662696,25.432187505662696 0 0,0 -0.16099946216727493,-0.40582381729435446 l 4.1336996554135625 -1.599003828696575" fill="#ff2a04" stroke="none" /><path d="M 80.28708602549918 107.23885506374661 l -25.58954736225246 9.396836243583085 a48.26032768683602,48.26032768683602 0 0,0 -0.278898341033238,-0.7801282972991815 l 25.74708587332964 -8.956172989902981" fill="#afff20" stroke="none" /><path d="M 80.05021161711548 106.5578916946017 l -4.272547608998079 1.404471262656451 a25.497466242094877,25.497466242094877 0 0,0 -0.13311533135294865,-0.4169818795211316 l 4.296027656128283 -1.3309203494439277" fill="#ff2b04" stroke="none" /><path d="M 79.94057633289273 106.21446072829308 l -4.1048983514652715 1.2717080022915066 a25.297374980026127,25.297374980026127 0 0,0 -0.12494937272268644,-0.4159158242127569 l 4.126124044191588 -1.2010545744880263" fill="#ff2803" stroke="none" /><path d="M 79.83685265289637 105.86919833188381 l -5.003079107626906 1.4563234125740099 a26.210727246669514,26.210727246669514 0 0,0 -0.12204402066673174,-0.4330911744444844 l 5.027341620368213 -1.3702243142265298" fill="#ff3505" stroke="none" /><path d="M 79.64726062577567 105.17358676015961 l -43.06510275000193 10.94698071427617 a65.43466508962297,65.43466508962297 0 0,0 -0.26738621251992784,-1.0910269928500576 l 43.24667648903815 -10.206097896818013" fill="#36ff6c" stroke="none" /><path d="M 79.17382384314188 102.69636545807758 l -8.30812936678572 1.075653681075007 a29.377472436054774,29.377472436054774 0 0,0 -0.06045871760240916,-0.5006849114701215 l 8.32537017064779 -0.9328750926814863" fill="#ff6209" stroke="none" /><path d="M 79.13060592940153 102.33845913500099 l -5.005711066318643 0.5609003658951299 a26.037038068143442,26.037038068143442 0 0,0 -0.04595860514523146,-0.44460781449444753 l 5.01460206394554 -0.47488802911775096" fill="#ff3304" stroke="none" /><line stroke="#e1ed5e" stroke-width="0.3" x1="15.003131293944662" x2="10.003315487706104" y1="100.72959589197737" y2="100.7725132973878" /><path d="M 14.003168132696942 100.73817937305945 a86.0,86.0 0 0,1 10.791469493833604,-42.45332614584628" fill="none" id="id46" stroke="none" /><text fill="#e1ed5e" style="font-size:6.75px; font-family:Arial;" text-anchor="middle"><textPath startOffset="22.145653131862435" xlink:href="#id46">October</textPath></text><path d="M 79.01933749520258 99.09900007780938 l -32.48563589493529 -1.3950729824168726 a53.51557731495133,53.51557731495133 0 0,0 0.04729352639426276,-0.9174817774815163 l 32.45690077908446 1.952526553275101" fill="#75ff27" stroke="none" /><path d="M 79.13060592940154 97.66154086499901 l -4.640567232516689 -0.5199852377004701 a25.66960907217446,25.66960907217446 0 0,0 0.05282795002996531,-0.437491209420703 l 4.6309571962270555 0.5995701240446094" fill="#ff2d04" stroke="none" /><path d="M 79.2786578344484 96.59031103205396 l -5.513824820766626 -0.9072977760007245 a26.587973998547056,26.587973998547056 0 0,0 0.07797263005772613,-0.44972540975285913 l 5.497437373216665 1.0018162186741764" fill="#ff3a05" stroke="none" /><path d="M 79.56144815229197 95.17655741523228 l -12.3368763953871 -2.9114692377385216 a33.6757710738778,33.6757710738778 0 0,0 0.1376095815390643,-0.561494052064226 l 12.285079287331737 3.122819114410865" fill="#ff9c0e" stroke="none" /><path d="M 79.64726062577567 94.8264132398404 l -5.421575644788356 -1.3781433279985562 a26.593993341493107,26.593993341493107 0 0,0 0.11626706362657867,-0.4414849783535644 l 5.397119100357052 1.4710088107249053" fill="#ff3a05" stroke="none" /><path d="M 79.73907114497095 94.47779374421319 l -5.209566921162061 -1.4198906302778151 a26.39959969886812,26.39959969886812 0 0,0 0.12292346034203497,-0.4362119956018875 l 5.184424968745444 1.5091105497827157" fill="#ff3805" stroke="none" /><path d="M 80.28708602549916 92.7611449362534 l -35.48676205254764 -13.031230568567423 a58.803746522075045,58.803746522075045 0 0,0 0.35609677306483445,-0.9445889973961498 l 35.25783459566836 13.638487846157718" fill="#3eff2d" stroke="none" /><path d="M 80.83023694016515 91.42560881287825 l -6.403276798349622 -2.864104265509013 a28.014630924003736,28.014630924003736 0 0,0 0.2001252309501322,-0.43730974647990506 l 6.353167102544443 2.9736029942035898" fill="#ff4f07" stroke="none" /><path d="M 81.1358732173502 90.77261029715801 l -5.003698574010985 -2.4475597110818677 a26.57023769321119,26.57023769321119 0 0,0 0.20393301035125577,-0.4080026300103447 l 4.960945650447986 2.533094197255983" fill="#ff3a05" stroke="none" /><path d="M 81.29705330413844 90.45014215332179 l -10.53067992910991 -5.377040205868718 a32.824034047011494,32.824034047011494 0 0,0 0.2605476961585078,-0.4996345618854033 l 10.436824163976462 5.557021010858608" fill="#ff900d" stroke="none" /><path d="M 81.46374523516351 90.13048839642627 l -17.02813037380012 -9.066520310791 a40.291423342333246,40.291423342333246 0 0,0 0.33030266185710866,-0.6077196950529496 l 16.86998236232766 9.357494839318571" fill="#fff116" stroke="none" /><line stroke="#e1ed5e" stroke-width="0.3" x1="26.387840678322718" x2="22.05771365940052" y1="57.49999999999999" y2="54.99999999999999" /><path d="M 25.521815274538284 56.99999999999999 a86.0,86.0 0 0,1 29.574782752854787,-30.34633250058573" fill="none" id="id47" stroke="none" /><text fill="#e1ed5e" style="font-size:6.75px; font-family:Arial;" text-anchor="middle"><textPath startOffset="21.40746469413373" xlink:href="#id47">November</textPath></text><path d="M 81.99639281039701 89.18935116829357 l -7.325893263192689 -4.39898841453708 a29.54516302798978,29.54516302798978 0 0,0 0.26482600844075144,-0.4325733823407746 l 7.249299290296544 4.524098913002398" fill="#ff6409" stroke="none" /><path d="M 82.576782715395 88.27688183743585 l -4.560303099642965 -3.0683754453007763 a26.49647998576707,26.49647998576707 0 0,0 0.2571549790174747,-0.3751967995561499 l 4.506958383810177 3.146206979926961" fill="#ff3905" stroke="none" /><path d="M 82.78059297857968 87.97951657250589 l -18.43375159125408 -12.868190247990093 a43.48095900949356,43.48095900949356 0 0,0 0.43250075421525597,-0.6083664743570983 l 18.210135738508853 13.182733949056711" fill="#e6ff1a" stroke="none" /><path d="M 83.2033758604659 87.39550010848427 l -5.065649648017382 -3.8013579340987045 a27.333334706108133,27.333334706108133 0 0,0 0.2848498215592698,-0.37287756022319524 l 4.9996478491038046 3.8877564075627844" fill="#ff4506" stroke="none" /><path d="M 83.64595745247003 86.82634096563983 l -2.8367862622224798 -2.2851142072832795 a24.642678031045577,24.642678031045577 0 0,0 0.26819821173684777,-0.327158209899723 l 2.7971412312470023 2.3334746988814956" fill="#ff1e03" stroke="none" /><path d="M 83.8745106332314 86.54754324733833 l -5.596744945158822 -4.669003688383213 a28.28856291893655,28.28856291893655 0 0,0 0.3142797866456641,-0.3702207984233092 l 5.515770595006043 4.764391269256079" fill="#ff5207" stroke="none" /><path d="M 84.34580500576568 86.00192230759919 l -4.171227686213136 -3.72993751807809 a26.595674606247,26.595674606247 0 0,0 0.30724627653033937,-0.3377174795324505 l 4.106583708840931 3.800992573168198" fill="#ff3b05" stroke="none" /><path d="M 85.86807049272753 84.46653392183569 l -28.57097740126838 -31.404509062560265 a63.45637689587064,63.45637689587064 0 0,0 0.8120451306188824,-0.7261357631181615 l 28.027667243826105 31.89034035556183" fill="#33ff55" stroke="none" /><path d="M 86.68645165197937 83.75963576809568 l -4.631365456663752 -5.649512807640171 a28.30524065016811,28.30524065016811 0 0,0 0.37841307178305167,-0.3048227841725695 l 4.533701614525454 5.72818388560614" fill="#ff5307" stroke="none" /><path d="M 86.96720088162412 83.53348406188908 l -3.3089972591037133 -4.18080994046556 a26.33185095619256,26.33185095619256 0 0,0 0.3568468057847298,-0.27748623454681515 l 3.236740508683739 4.2369972266331795" fill="#ff3705" stroke="none" /><path d="M 87.83215693770416 82.88440491214696 l -3.6240926847417123 -5.097740218650204 a27.25467849888723,27.25467849888723 0 0,0 0.38364841679770934,-0.2678163905623775 l 3.5360491767702373 5.159201425017708" fill="#ff4406" stroke="none" /><path d="M 88.12776184653039 82.6780497279521 l -20.16085353273302 -29.415287818664865 a56.66117177860547,56.66117177860547 0 0,0 0.8070269904645242,-0.5430037756547837 l 19.65293025417151 29.75704126837676" fill="#54ff2b" stroke="none" /><line stroke="#e1ed5e" stroke-width="0.3" x1="56.869717070023135" x2="54.33264160355391" y1="26.7553504044142" y2="22.446841604673864" /><path d="M 56.362301976729285 25.89364864446614 a86.0,86.0 0 0,1 42.16139366436587,-11.88097634709845" fill="none" id="id48" stroke="none" /><text fill="#e1ed5e" style="font-size:6.75px; font-family:Arial;" text-anchor="middle"><textPath startOffset="22.145653131862474" xlink:href="#id48">December</textPath></text><path d="M 89.34428304082924 81.90426304109057 l -4.094296472532755 -6.953010509065664 a29.068929219182166,29.068929219182166 0 0,0 0.4321685073076944,-0.24951260402937478 l 3.9743354973646605 7.022270010371213" fill="#ff5d08" stroke="none" /><path d="M 89.65649057296885 81.72400993836675 l -1.0973549810618313 -1.9389211050128212 a23.227914496996092,23.227914496996092 0 0,0 0.3487016686757684,-0.19341893755513662 l 1.0639091242299603 1.9574729580011039" fill="#ff0a01" stroke="none" /><path d="M 90.28995756902619 81.37971332152246 l -1.4396077687867967 -2.760637716048085 a24.11345324795772,24.11345324795772 0 0,0 0.36867492516197276,-0.18824804370054973 l 1.3920056219112416 2.7849437114214686" fill="#ff1702" stroke="none" /><path d="M 90.93487009805054 81.0573650232925 l -3.615668866302413 -7.555357316642927 a29.375946843963277,29.375946843963277 0 0,0 0.4567418183459161,-0.21377823323228023 l 3.485438334084974 7.61631178144575" fill="#ff6209" stroke="none" /><path d="M 91.26138138417902 80.90454125486306 l -2.098868946869699 -4.586407434447124 a26.04384615257898,26.04384615257898 0 0,0 0.40812765270971435,-0.18255030788288926 l 2.019827891304366 4.621761493239859" fill="#ff3304" stroke="none" /><path d="M 92.592206182469 80.34994680014964 l -5.393975788403604 -14.308161621615234 a36.29112369304975,36.29112369304975 0 0,0 0.584824283637618,-0.21475557761213093 l 5.147562353111859 14.398648048236087" fill="#ffbe11" stroke="none" /><path d="M 92.93061703081487 80.22567764915836 l -6.811620313653892 -19.05331432755286 a41.234301523944765,41.234301523944765 0 0,0 0.668573412507575,-0.23256453830645568 l 6.4835411291013125 19.167437298427902" fill="#fffc17" stroke="none" /><path d="M 93.27111125876988 80.10723608172694 l -6.897092392890593 -20.390028126576986 a42.524942055175664,42.524942055175664 0 0,0 0.6935155112735313,-0.2279723235239906 l 6.5460541439693 20.505421371503008" fill="#f2ff19" stroke="none" /><path d="M 93.61358852112211 79.99465700312896 l -11.914192357343083 -37.32103786729791 a60.17662373176199,60.17662373176199 0 0,0 0.9867801935329735,-0.3057070263800082 l 11.271771530938494 37.52006148148456" fill="#31ff2f" stroke="none" /><path d="M 93.95794788825049 79.88797359093562 l -4.1869798853838205 -13.937094297036397 a35.552436153616796,35.552436153616796 0 0,0 0.5860057052388576,-0.17057772025637774 l 3.9471141677633383 14.006915711595296" fill="#ffb510" stroke="none" /></svg>