<?xml version="1.0" encoding="utf-8" ?>
<svg baseProfile="full" height="200mm" version="1.1" viewBox="0,0,200,200" width="200mm" xmlns="http://www.w3.org/2000/svg" xmlns:ev="http://www.w3.org/2001/xml-events" xmlns:xlink="http://www.w3.org/1999/xlink"><defs /><rect fill="#1a1a1a" height="200" width="200" x="0" y="0" /><rect fill="#1a1a1a" height="200" width="180" x="10" y="0" /><text alignment-baseline="middle" fill="#e1ed5e" style="dominant-baseline: central; font-size:9.0px; font-family:Arial;" text-anchor="middle" x="100.0" y="100.0">2023</text><line stroke="#e1ed5e" stroke-width="0.3" x1="100.0" x2="100.0" y1="15.0" y2="10.0" /><path d="M 100.0 14.0 a86.0,86.0 0 0,1 42.46469731375804,11.215312516191453" fill="none" id="id121" stroke="none" /><text fill="#e1ed5e" style="font-size:6.75px; font-family:Arial;" text-anchor="middle"><textPath startOffset="22.20632615414155" xlink:href="#id121">January</textPath></text><path d="M 100.0 79.0 l 0.0 -10.34345699474747 a31.34345699474747,31.34345699474747 0 0,0 0.5395260884056761,0.004643871377372768 l -0.17804560913314768 10.341924499978656" fill="#ff890c" stroke="none" /><path d="M 100.36148047927253 79.00311137660856 l 0.08372839707100625 -4.863432270127065 a25.864152946874654,25.864152946874654 0 0,0 0.4450769513450795,0.011495024548332502 l -0.16743198361095354 4.861270453436373" fill="#ff3e05" stroke="none" /><path d="M 101.08401301168833 79.027996857942 l 0.5662616041553271 -10.95525608412785 a31.96988095072872,31.96988095072872 0 0,0 0.5493307781477367,0.03313713269515524 l -0.7547544311426757 10.94388568205239" fill="#ff910d" stroke="none" /><path d="M 101.44485096284872 79.0497635885617 l 1.1318169204229884 -16.411265014196765 a37.450247077401436,37.450247077401436 0 0,0 0.6427350694047518,0.04988861156988228 l -1.4141421791900814 16.389351140438418" fill="#ffd714" stroke="none" /><path d="M 102.16513564639614 79.11191278185805 l 0.7469710518642647 -7.206382891870467 a28.244992763044458,28.244992763044458 0 0,0 0.4831686599815435,0.05428962867190807 l -0.8709064153555335 7.192457309727958" fill="#ff5f08" stroke="none" /><path d="M 102.52436894288641 79.15227682838746 l 0.6610382225333645 -5.459242361567323 a26.499117992367616,26.499117992367616 0 0,0 0.45235921465697737,0.058729208858865914 l -0.7549121656981881 5.447054829544321" fill="#ff4706" stroke="none" /><path d="M 104.66035177308747 79.52364482259891 l 4.769997448848081 -20.95810932598394 a42.49407411781006,42.49407411781006 0 0,0 0.7118289866240227,0.16846692286174278 l -5.1300501224346275 20.87289649098133" fill="#eaff1a" stroke="none" /><path d="M 105.01212808612495 79.60689891045804 l 3.545420219447726 -14.425432011655303 a35.85473302538145,35.85473302538145 0 0,0 0.5980759179696478,0.1524628682062718 l -3.7932050261023984 14.362266147280163" fill="#ffc312" stroke="none" /><path d="M 105.36241919743992 79.69619591428918 l 2.8673542091389246 -10.85670402912346 a32.22896889908652,32.22896889908652 0 0,0 0.5351575944407069,0.14627878625589216 l -3.0538096928033425 10.805738702041273" fill="#ff940d" stroke="none" /><path d="M 105.71112130821622 79.79150937346287 l 2.9513154738178833 -10.443068509646285 a31.852093941869594,31.852093941869594 0 0,0 0.5263327706581482,0.15365096874999193 l -3.1306384621994585 10.390719211977588" fill="#ff8f0d" stroke="none" /><path d="M 106.74666289553966 80.11325718540242 l 4.572195293484301 -13.47719210333582 a35.231643502841735,35.231643502841735 0 0,0 0.5726282835212917,0.19977876426949207 l -4.803505581068865 13.39649248589412" fill="#ffbb11" stroke="none" /><path d="M 107.08798089147638 80.2323363322302 l 4.412861870279235 -12.307026584807232 a34.07425918533499,34.07425918533499 0 0,0 0.5504090929462742,0.2027203140255275 l -4.624053288998085 12.22924300297538" fill="#ffac0f" stroke="none" /><path d="M 107.76421540070413 80.48803036053334 l 2.0722347736180833 -5.20765845638649 a26.604807182710722,26.604807182710722 0 0,0 0.4240503862163813,0.17298079980876505 l -2.1615690294228522 5.171216770394145" fill="#ff4806" stroke="none" /><path d="M 108.09893153111575 80.62456947434976 l 3.5162296873163412 -8.412031112632572 a30.117353708936776,30.117353708936776 0 0,0 0.47659456237398956,0.20405291915329127 l -3.660508007480646 8.35025866551649" fill="#ff780b" stroke="none" /><path d="M 109.08828744355905 81.06846463323043 l 2.139427259623907 -4.456575904067102 a25.943502582980347,25.943502582980347 0 0,0 0.400924382026962,0.19673185306515611 l -2.2158229086613006 4.419088890867114" fill="#ff3f05" stroke="none" /><path d="M 109.41281617654863 81.2277094730956 l 2.273197485803795 -4.5335129070994284 a26.07150530792405,26.07150530792405 0 0,0 0.3994396859808883,0.20460852148098574 l -2.3508976593734388 4.493711860305942" fill="#ff4106" stroke="none" /><path d="M 109.73455568895987 81.39251694778311 l 6.573613091572036 -12.5653802907493 a35.18101445344578,35.18101445344578 0 0,0 0.5341733679352508,0.28533691355576574 l -6.788931506035598 12.45036465069178" fill="#ffba11" stroke="none" /><path d="M 110.05341064243156 81.56283822128135 l 7.898309871004905 -14.48487702825467 a37.498332077579036,37.498332077579036 0 0,0 0.5640390382516478,0.31388711411493253 l -8.146472998328589 14.346774516579558" fill="#ffd814" stroke="none" /><line stroke="#e1ed5e" stroke-width="0.3" x1="143.23703022742887" x2="145.7803849466894" y1="26.81831364943548" y2="22.513508569990506" /><path d="M 143.74570117128098 25.957352633546492 a86.0,86.0 0 0,1 28.547481713284135,27.462654790039103" fill="none" id="id122" stroke="none" /><text fill="#e1ed5e" style="font-size:6.75px; font-family:Arial;" text-anchor="middle"><textPath startOffset="19.985693538727396" xlink:href="#id122">February</textPath></text><path d="M 110.68208982089419 81.91981866633111 l 3.5190086777489915 -5.956167386273687 a27.918045389225416,27.918045389225416 0 0,0 0.41164218521723667,0.24800981069753777 l -3.6210129291838653 5.894710966117534" fill="#ff5a08" stroke="none" /><path d="M 111.2981086023043 82.29822771554956 l 6.215420531948516 -9.738263525472806 a32.55271521680169,32.55271521680169 0 0,0 0.4697402909973684,0.3055321519409579 l -6.382127848730165 9.629832449372321" fill="#ff980e" stroke="none" /><path d="M 111.60114157652 82.49532879139004 l 14.053713219073025 -21.205294973545445 a46.43956348208474,46.43956348208474 0 0,0 0.662527391097237,0.4473414519274017 l -14.416645304576804 20.96024160931937" fill="#bcff1f" stroke="none" /><path d="M 111.90073688211348 82.69761687909136 l 9.137189042202884 -13.284483727556053 a37.12345284052563,37.12345284052563 0 0,0 0.5233856370102142,0.36666508609824977 l -9.364505818796749 13.125233798693866" fill="#ffd313" stroke="none" /><path d="M 112.19680574252982 82.90503203632743 l 13.21934297849983 -18.52814986880177 a43.760566037425164,43.760566037425164 0 0,0 0.6094277379359198,0.44277516935654904 l -13.536316032789538 18.297855464628547" fill="#dbff1b" stroke="none" /><path d="M 112.48926042617603 83.11751280151076 l 6.225012444663585 -8.414725077491788 a31.467013808435798,31.467013808435798 0 0,0 0.4326772031868529,0.32588349910120057 l -6.36893580160882 8.30632498888474" fill="#ff8a0c" stroke="none" /><path d="M 113.06298171725822 83.55741782278167 l 6.769189603035 -8.520486266472105 a31.882123602448967,31.882123602448967 0 0,0 0.4267598376759632,0.3450767762432396 l -6.914852839275453 8.402703392964735" fill="#ff900d" stroke="none" /><path d="M 113.34407831869373 83.78471172551755 l 10.384362735128336 -12.61873853520537 a37.34220155409298,37.34220155409298 0 0,0 0.49281474828906685,0.4127181790986524 l -10.60003502037652 12.438119198712897" fill="#ffd614" stroke="none" /><path d="M 113.6212207817346 84.01681056812373 l 13.948798700239086 -16.367570539051158 a42.505030819103865,42.505030819103865 0 0,0 0.5527803574003655,0.4793656787495019 l -14.228472856286215 16.125039866881988" fill="#eaff1a" stroke="none" /><path d="M 113.89432698308785 84.25364557470407 l 10.326776005019136 -11.703271071970635 a36.60797412997163,36.60797412997163 0 0,0 0.46891156225393404,0.42099343044457455 l -10.52669855486906 11.523778632756763" fill="#ffcc13" stroke="none" /><path d="M 114.42810811169701 84.74124197986012 l 3.2818733914741918 -3.470816239077272 a25.776741391692543,25.776741391692543 0 0,0 0.3197749075050125,0.3076232076624948 l -3.3411315425916226 3.413809944652475" fill="#ff3d05" stroke="none" /><path d="M 114.94478906791727 85.2469230424477 l 3.7277978262513063 -3.6799775468859197 a26.238197340592322,26.238197340592322 0 0,0 0.31452818698272067,0.32414894449387716 l -3.7905902769371362 3.615264406841928" fill="#ff4306" stroke="none" /><path d="M 115.19652480421416 85.50635884689758 l 14.964539113533784 -14.272385478091534 a41.679420159078944,41.679420159078944 0 0,0 0.4906911745070172,0.5234351325113547 l -15.207997610011263 14.012680928702125" fill="#f3ff19" stroke="none" /><path d="M 115.4437574822437 85.77008943001954 l 18.046619710703336 -16.628193292274275 a45.53930103218063,45.53930103218063 0 0,0 0.5262095713028268,0.5810537514888452 l -18.3301729226222 16.31508675351588" fill="#c6ff1e" stroke="none" /><path d="M 115.68641384162765 86.03803664274999 l 20.42998268332698 -18.184058669732647 a48.35039638004026,48.35039638004026 0 0,0 0.5479898922707493,0.626447176496679 l -20.739964439175576 17.82969593703302" fill="#a7ff21" stroke="none" /><path d="M 115.9244219780498 86.31012108654704 l 3.613188005327046 -3.106179072160303 a25.764816469725343,25.764816469725343 0 0,0 0.2862218203732973,0.33879635631253574 l -3.6661204391874604 3.043523766218661" fill="#ff3d05" stroke="none" /><path d="M 116.15771136456269 86.58626213691792 l 2.016152064592336 -1.6737602669315446 a23.62037069490534,23.62037069490534 0 0,0 0.2570138248333368,0.3150685595889471 l -2.0446643815020815 1.6388075377344966" fill="#ff1e03" stroke="none" /><path d="M 116.60985879189232 87.15038557335679 l 11.991813886933329 -9.27703159032117 a36.16136258476342,36.16136258476342 0 0,0 0.3766361919793952,0.49560907984670904 l -12.149726019136839 9.069237734593429" fill="#ffc712" stroke="none" /><path d="M 116.82858285166822 87.43820079747576 l 5.036765822325068 -3.7597248352919035 a27.28526378014898,27.28526378014898 0 0,0 0.277708618916458,0.37879424410682555 l -5.100737053755153 3.6724681475135843" fill="#ff5207" stroke="none" /><path d="M 117.04232023915458 87.72973835380427 l 15.092616652661334 -10.866498965816417 a39.597523415720694,39.597523415720694 0 0,0 0.3935001630419597,0.5565780745148593 l -15.277429435507177 10.605094390969766" fill="#fff116" stroke="none" /><path d="M 117.2510076193507 88.02491185347247 l 11.541395261080922 -8.011661036560433 a35.049573557131254,35.049573557131254 0 0,0 0.3397731269036204,0.4985751379293114 l -11.677592853653275 7.811807875360715" fill="#ffb911" stroke="none" /><path d="M 117.45458315368197 88.32363383020206 l 1.536740178929692 -1.0280131515623605 a22.84888653446393,22.84888653446393 0 0,0 0.21587123651250698,0.32878670328279835 l -1.554208050800124 1.0014083843018882" fill="#ff1302" stroke="none" /><path d="M 117.65298651832404 88.62581576622439 l 3.9892638341392606 -2.5703651764271473 a25.745629892707694,25.745629892707694 0 0,0 0.2368259625017297,0.3746017987998231 l -4.032917392886946 2.501315729913118" fill="#ff3c05" stroke="none" /><line stroke="#e1ed5e" stroke-width="0.3" x1="172.23445277983987" x2="176.4835382374775" y1="55.19839476539836" y2="52.563006222186495" /><path d="M 173.08426987136738 54.67131705675599 a86.0,86.0 0 0,1 12.851231095245387,41.99856678651699" fill="none" id="id123" stroke="none" /><text fill="#e1ed5e" style="font-size:6.75px; font-family:Arial;" text-anchor="middle"><textPath startOffset="22.20632615414155" xlink:href="#id123">March</textPath></text><path d="M 118.03404312379186 89.2402003453031 l 6.480687359247946 -3.8666258659568347 a28.54652928408832,28.54652928408832 0 0,0 0.2481377499171341,0.42414784964180824 l -6.546284783635407 3.7544986039611308" fill="#ff6309" stroke="none" /><path d="M 118.3937258080291 89.86733742301442 l 6.489881838494632 -3.5751203165846905 a28.40945690018365,28.40945690018365 0 0,0 0.2322701740649348,0.4303613568164437 l -6.550460111778032 3.462877976435788" fill="#ff6109" stroke="none" /><path d="M 118.56541770881063 90.18545643968196 l 10.180866323709154 -5.382079605372897 a32.515937650916925,32.515937650916925 0 0,0 0.25732581473981897,0.4970715689155342 l -10.272001571609088 5.206035314197018" fill="#ff980e" stroke="none" /><path d="M 119.04729006885535 91.15688171328212 l 4.309549311341838 -2.0008019085588313 a25.751360178325736,25.751360178325736 0 0,0 0.18319969265162842,0.4036562387183698 l -4.343351320956814 1.9263236609983987" fill="#ff3d05" stroke="none" /><path d="M 119.196687751892 91.48605970444005 l 2.6227649505942594 -1.1632248483307188 a23.869144129150666,23.869144129150666 0 0,0 0.1633437028315708,0.37701978693452115 l -2.6423993632685105 1.117905916809595" fill="#ff2203" stroke="none" /><path d="M 119.47837535516314 92.15188598940014 l 5.0215856182509135 -2.0232681487768596 a26.41386517409506,26.41386517409506 0 0,0 0.16628968326526136,0.4231891058272795 l -5.055668851397876 1.9365300380537955" fill="#ff4606" stroke="none" /><path d="M 119.61058180528143 92.48833698450437 l 5.734859465104219 -2.196688102924452 a27.141176736263603,27.141176736263603 0 0,0 0.16335810486334065,0.4377185044938189 l -5.771822158469185 2.0976464614013" fill="#ff5007" stroke="none" /><path d="M 119.7369772167798 92.82701384747503 l 0.8357033252876532 -0.3037186654302395 a21.88918225107543,21.88918225107543 0 0,0 0.1256511182837972,0.35523263174985364 l -0.8408075243812599 0.2892884072537713" fill="#ff0600" stroke="none" /><path d="M 120.08093135843002 93.85539295169968 l 4.500666539126025 -1.3771685607975352 a25.70665407070222,25.70665407070222 0 0,0 0.12583297349798292,0.42424623171324205 l -4.523705409735711 1.2994929423377635" fill="#ff3c05" stroke="none" /><path d="M 120.18372546131832 94.20196356495316 l 1.1869715899989042 -0.34097295563044294 a22.23497534871587,22.23497534871587 0 0,0 0.1025066557088805,0.3687709801293327 l -1.1926650162741477 0.3204906720821584" fill="#ff0b01" stroke="none" /><path d="M 120.28053869075195 94.5502522615342 l 6.278942409957408 -1.6872654479452402 a27.50169074006074,27.50169074006074 0 0,0 0.11891687614124025,0.4582352330189207 l -6.307055617968951 1.578933789377469" fill="#ff5507" stroke="none" /><path d="M 120.45610955862082 95.25157060432595 l 0.5774352236692096 -0.13403870282914926 a21.59278816738362,21.59278816738362 0 0,0 0.08092731566900369,0.36278128789219855 l -0.5796569263402509 0.12407924538698682" fill="#ff0100" stroke="none" /><path d="M 120.53481517161879 95.60439243477599 l 10.144474427918597 -2.171489159649709 a31.374281979451425,31.374281979451425 0 0,0 0.10849630702424701,0.5290665247293966 l -10.180350030857841 1.9965469787569001" fill="#ff890c" stroke="none" /><path d="M 120.67395015179393 96.31383870115 l 4.598917645197193 -0.8199861233995105 a25.67144739346103,25.67144739346103 0 0,0 0.07382147238917307,0.43569850883485006 l -4.612350979106589 0.7407018262488225" fill="#ff3b05" stroke="none" /><path d="M 120.73433829027371 96.67025291283417 l 0.902320644224454 -0.14490452961333974 a21.913881758049747,21.913881758049747 0 0,0 0.05660471129724918,0.37295432339342566 l -0.9046812489610031 0.12935109382783191" fill="#ff0601" stroke="none" /><path d="M 120.78858239683441 97.02765380044208 l 4.8976459815711495 -0.7002641710826725 a25.947454504096235,25.947454504096235 0 0,0 0.05941225842008171,0.4426903342347282 l -4.908974239049067 0.6158554947832799" fill="#ff3f05" stroke="none" /><path d="M 120.83666639777658 97.38593545837742 l 4.75323951893881 -0.5963177912961626 a25.790499017077238,25.790499017077238 0 0,0 0.05147003379366639,0.4409638173242054 l -4.762799905736065 0.5144102356471045" fill="#ff3d05" stroke="none" /><path d="M 120.87857604477298 97.74499172005257 l 5.874515737618207 -0.6344820451645209 a26.908680277114353,26.908680277114353 0 0,0 0.0457740668379261,0.46093860629185707 l -5.884566930138362 0.5332679081682289" fill="#ff4d07" stroke="none" /><path d="M 120.91429891909075 98.10471618934814 l 10.335368634903245 -0.9366059520632873 a31.37772015082225,31.37772015082225 0 0,0 0.04411635162002228,0.538331232385267 l -10.349959470342762 0.7585608024702516" fill="#ff890c" stroke="none" /><path d="M 120.96714384426684 98.82574320788733 l 4.6776083088747935 -0.2619676465395538 a25.684938264170402,25.684938264170402 0 0,0 0.020922696021207426,0.44164504448885045 l -4.681424613129497 0.18141149542770357" fill="#ff3c05" stroke="none" /><path d="M 120.98425023603335 99.18683210126433 l 0.8144724265161455 -0.03156190114960571 a21.815083730152477,21.815083730152477 0 0,0 0.011310918910932685,0.3753543327679665 l -0.8148950398827233 0.017537420956640175" fill="#ff0500" stroke="none" /><line stroke="#e1ed5e" stroke-width="0.3" x1="184.98032266829074" x2="189.97916517819016" y1="98.17113171792111" y2="98.06355123074" /><path d="M 185.9800911702706 98.14961562048488 a86.0,86.0 0 0,1 -9.607161424134198,41.387399972396054" fill="none" id="id124" stroke="none" /><text fill="#e1ed5e" style="font-size:6.75px; font-family:Arial;" text-anchor="middle"><textPath startOffset="21.466115282336823" xlink:href="#id124">April</textPath></text><path d="M 120.99980553446 99.90962569577887 l 7.17223569660934 -0.030866276819914808 a28.17230211401904,28.17230211401904 0 0,0 -0.002087034607605686,0.48495334244762756 l -7.171704364712231 -0.09259654383139747" fill="#ff5e08" stroke="none" /><path d="M 120.99824983174949 100.27111621757518 l 9.951337978240508 0.12848542778996325 a30.952167405260337,30.952167405260337 0 0,0 -0.011464000849584302,0.5326870725538257 l -9.947651914705917 -0.29976231613390386" fill="#ff830c" stroke="none" /><path d="M 120.9764740272857 100.99374915477107 l 4.771493704470413 0.22604694333495118 a25.776845129621837,25.776845129621837 0 0,0 -0.02481162393698453,0.4430282129010482 l -4.766895729645899 -0.3081468725714227" fill="#ff3d05" stroke="none" /><path d="M 120.95626037817324 101.35467743843564 l 5.985594500972921 0.38692732767043814 a26.99808755245999,26.99808755245999 0 0,0 -0.03397058964845246,0.4635017059939994 l -5.9780473526601305 -0.4899021701612078" fill="#ff4e07" stroke="none" /><path d="M 120.92983693683757 101.71520430193887 l 0.6400415708672104 0.05245153409862283 a21.642187181332254,21.642187181332254 0 0,0 -0.033623099725622364,0.3710281037045316 l -0.6390438748645126 -0.063461026351725" fill="#ff0200" stroke="none" /><path d="M 120.8583938346157 102.4346265915055 l 4.66623663356381 0.5446509391091333 a25.697915385134706,25.697915385134706 0 0,0 -0.05506511465872683,0.4389231428796486 l -4.656170009658235 -0.6248918362761768" fill="#ff3c05" stroke="none" /><path d="M 120.76222939487914 103.15116336523771 l 6.491982678244543 0.9853131662483029 a27.56632934981253,27.56632934981253 0 0,0 -0.07524064938238947,0.46852359552694767 l -6.474060274500866 -1.0969159914684556" fill="#ff5607" stroke="none" /><path d="M 120.64145759157962 103.86396538481128 l 4.629810682695387 0.8666746588410591 a25.7102305593121,25.7102305593121 0 0,0 -0.08517440301059388,0.43430244594448575 l -4.614206346709129 -0.9462408318534897" fill="#ff3c05" stroke="none" /><path d="M 120.23288151984713 105.62410040840565 l 3.0704113063527516 0.8534771216394853 a24.18682424795294,24.18682424795294 0 0,0 -0.11495348334702547,0.4001681560112267 l -3.0552651861196267 -0.906202753155294" fill="#ff2703" stroke="none" /><path d="M 120.13307415673323 105.97154293290107 l 4.927910933614856 1.4616362846779767 a26.14010571859452,26.14010571859452 0 0,0 -0.13166301661364951,0.43028235626456435 l -4.902021144495074 -1.546245613494598" fill="#ff4206" stroke="none" /><path d="M 120.02730092923936 106.31721596034902 l 5.140722656947671 1.6215392843468426 a26.390400642469462,26.390400642469462 0 0,0 -0.14038153574045967,0.43204994147179526 l -5.112048870190964 -1.709788125796433" fill="#ff4506" stroke="none" /><path d="M 119.54520255179757 107.68017299344265 l 3.3449257782859276 1.3143690150757248 a24.593896822396665,24.593896822396665 0 0,0 -0.15821767456805771,0.3926832929408677 l -3.3218054894604774 -1.371751675859406" fill="#ff2c04" stroke="none" /><path d="M 119.41010516605496 108.01547362559984 l 4.367767579138752 1.8036855304917605 a25.72553437383339,25.72553437383339 0 0,0 -0.17254363213609344,0.407842177804757 l -4.33607296581035 -1.8786022339626811" fill="#ff3c05" stroke="none" /><path d="M 119.12269723197855 108.67885076344098 l 6.930935659844378 3.145610449879878 a28.611355610093113,28.611355610093113 0 0,0 -0.20739878907039358,0.4467185405951801 l -6.875762253934153 -3.2644490577538883" fill="#ff6409" stroke="none" /><path d="M 118.81262510543309 109.33194174019688 l 3.5966829688172517 1.7841229352551995 a25.014875219266933,25.014875219266933 0 0,0 -0.19466496111729034,0.3840924361540602 l -3.5654393379136926 -1.8457695831119538" fill="#ff3204" stroke="none" /><path d="M 118.64920377521936 109.65438752849418 l 14.063429283988023 7.280407138218256 a36.83617287490735,36.83617287490735 0 0,0 -0.2963513816099917,0.560585131071991 l -13.93602539415314 -7.521407284376381" fill="#ffcf13" stroke="none" /><line stroke="#e1ed5e" stroke-width="0.3" x1="174.80103733775053" x2="179.2010983576182" y1="140.37084112569926" y2="142.7455964860345" /><path d="M 175.68104954172406 140.8457921977663 a86.0,86.0 0 0,1 -30.038265399797805,32.042727171017184" fill="none" id="id125" stroke="none" /><text fill="#e1ed5e" style="font-size:6.75px; font-family:Arial;" text-anchor="middle"><textPath startOffset="22.206326154141568" xlink:href="#id125">May</textPath></text><path d="M 118.12598468904814 110.60418214915192 l 6.578384169962135 3.848529345140882 a28.62143794884003,28.62143794884003 0 0,0 -0.25243988919722277,0.4231037746098427 l -6.511163405066685 -3.961195213636829" fill="#ff6409" stroke="none" /><path d="M 117.94076556474637 110.91462005526583 l 6.564216385018549 3.9934710447257804 a28.68353744927486,28.68353744927486 0 0,0 -0.2602489592140507,0.4196041873256572 l -6.494502786136535 -4.105871563416711" fill="#ff6509" stroke="none" /><path d="M 117.75023020441432 111.22182372390056 l 0.6263170496138181 0.3959621619043473 a21.740985209229525,21.740985209229525 0 0,0 -0.20270376996945824,0.3146007524529535 l -0.6194084162673095 -0.40668451427875374" fill="#ff0400" stroke="none" /><path d="M 117.55443506779139 111.5257021239791 l 3.8857265589908225 2.551248540964711 a25.64841263325678,25.64841263325678 0 0,0 -0.24548815668709728,0.36697148597671897 l -3.841235296893004 -2.617756941147237" fill="#ff3b05" stroke="none" /><path d="M 117.14729908036423 112.12312394758627 l 2.034734125637515 1.4385550686366866 a23.49190361923052,23.49190361923052 0 0,0 -0.23628403618791421,0.32817786027919904 l -2.0096702970739977 -1.4733665343670168" fill="#ff1d02" stroke="none" /><path d="M 116.93607887273984 112.41649034213515 l 7.910167528815426 5.799247834414384 a30.80826313772657,30.80826313772657 0 0,0 -0.31723522839172774,0.42498843027082506 l -7.809171033728606 -5.934549144194524" fill="#ff810b" stroke="none" /><path d="M 116.498646956653 112.99209946851258 l 6.297080530187225 4.958727635325023 a29.015123390503675,29.015123390503675 0 0,0 -0.31237141324338646,0.3897313673216074 l -6.210791204888985 -5.066386836224881" fill="#ff6909" stroke="none" /><path d="M 116.27256486870786 113.27417163493432 l 3.6099541803260506 2.9447817090006003 a25.658702447862282,25.658702447862282 0 0,0 -0.2821284301310824,0.3398418687114398 l -3.5587297503014246 -3.00648483482581" fill="#ff3b05" stroke="none" /><path d="M 116.0416608686014 113.55231037782055 l 0.3813420682704372 0.32216527401078143 a21.49921161526072,21.49921161526072 0 0,0 -0.2412595359742431,0.28063934541502095 l -0.37574002272541535 -0.32868171858733036" fill="#ff0000" stroke="none" /><path d="M 115.56566222782051 114.09645910891815 l 1.2594607239446582 1.1405834415861034 a22.699168002988404,22.699168002988404 0 0,0 -0.26477346370669447,0.2873593014594361 l -1.2396408522422417 -1.1620939978468743" fill="#ff1101" stroke="none" /><path d="M 115.32070863581623 114.36230785411682 l 4.962506121931667 4.6520720643758136 a27.802076264079602,27.802076264079602 0 0,0 -0.33030647075953595,0.34632501404350574 l -4.881693099793167 -4.7368041950018265" fill="#ff5908" stroke="none" /><path d="M 114.55890576462653 115.13401014063108 l 3.425737499333475 3.5610606244886913 a25.941338906169396,25.941338906169396 0 0,0 -0.32446953040829823,0.3068061933679963 l -3.363932134534369 -3.619501454602609" fill="#ff3f05" stroke="none" /><path d="M 112.63410532772338 116.77436683061366 l 1.3651417366473773 1.8125057273391036 a23.269094306716596,23.269094306716596 0 0,0 -0.32201659667998384,0.23822017989429284 l -1.3337401695488291 -1.8357358559731654" fill="#ff1902" stroke="none" /><path d="M 112.34349029814194 116.9893568818739 l 2.69653667618277 3.711464328985395 a25.58762220669159,25.58762220669159 0 0,0 -0.3585589505122074,0.2558222908598657 l -2.632250397821678 -3.7573308816894797" fill="#ff3a05" stroke="none" /><path d="M 112.04921762599082 117.19931262002967 l 3.459234156959075 4.93778530176821 a27.028932296769515,27.028932296769515 0 0,0 -0.38335149526604756,0.26367265402954837 l -3.373725777070144 -4.996598745162853" fill="#ff4e07" stroke="none" /><path d="M 111.7513745106137 117.40417183066458 l 3.5942932973070096 5.323266491050692 a27.423091968967068,27.423091968967068 0 0,0 -0.3934891166205082,0.260783130190357 l -3.5021294819465374 -5.384347642332368" fill="#ff5407" stroke="none" /><path d="M 111.45004920935366 117.60387380957326 l 14.286197506313368 21.964308931906935 a47.201647010171726,47.201647010171726 0 0,0 -0.6849143246360201,0.4371447275823906 l -13.906001379630418 -22.206968088313133" fill="#b4ff20" stroke="none" /><line stroke="#e1ed5e" stroke-width="0.3" x1="143.8653032363475" x2="146.44561519142675" y1="172.8068346515853" y2="177.08958963109032" /><path d="M 144.38136562736335 173.6633856474863 a86.0,86.0 0 0,1 -40.68145358897372,12.25698825130547" fill="none" id="id126" stroke="none" /><text fill="#e1ed5e" style="font-size:6.75px; font-family:Arial;" text-anchor="middle"><textPath startOffset="21.466115282336833" xlink:href="#id126">June</textPath></text><path d="M 110.8373102113329 117.98757091392108 l 10.149129947688229 16.845341795027274 a40.666478558357994,40.666478558357994 0 0,0 -0.6027006999760195,0.3560861970045948 l -9.857661376683827 -17.017546564325617" fill="#fffe18" stroke="none" /><path d="M 110.5260780823613 118.17145234162733 l 1.5485386902610283 2.6732840844490364 a24.089404452544837,24.089404452544837 0 0,0 -0.3605968568472108,0.20475630631771594 l -1.5022930664926184 -2.699543556561381" fill="#ff2503" stroke="none" /><path d="M 110.21172684928248 118.3499491758327 l 1.2506137335628187 2.247288709165634 a23.571836163700805,23.571836163700805 0 0,0 -0.35624586098706,0.19425364777693016 l -1.2117450607071099 -2.2684830087023347" fill="#ff1e03" stroke="none" /><path d="M 109.57404056367764 118.69057910512821 l 1.0363375283369853 2.0231529649541256 a23.273135146057594,23.273135146057594 0 0,0 -0.35812488944854853,0.17957125412025318 l -1.0013587312056764 -2.0406920599836806" fill="#ff1a02" stroke="none" /><path d="M 109.2508944713604 118.85261126421891 l 5.73566960191267 11.688853405432406 a34.02026112318773,34.02026112318773 0 0,0 -0.5279415300652883,0.25344401738528544 l -5.533615403847149 -11.785851699317252" fill="#ffac0f" stroke="none" /><path d="M 108.2653958097858 119.30500536409082 l 2.012954177855965 4.701540264432357 a26.114339192918912,26.114339192918912 0 0,0 -0.414756068438214,0.1733680702448866 l -1.9317266499202903 -4.7354933776972175" fill="#ff4206" stroke="none" /><path d="M 107.2578585660854 119.70592522655815 l 1.3680520743243998 3.714419568417526 a24.958342987704114,24.958342987704114 0 0,0 -0.4044207579909397,0.1450108952141832 l -1.3039117557037252 -3.737418004671669" fill="#ff3104" stroke="none" /><path d="M 106.91757812671514 119.82793768551818 l 1.3153577999937796 3.770225939583515 a24.993090254115586,24.993090254115586 0 0,0 -0.4074233934007323,0.1382201357285055 l -1.2502646736558203 -3.7923090622101436" fill="#ff3204" stroke="none" /><path d="M 106.57524785965236 119.94407469862006 l 1.6770366256209575 5.086795881710602 a26.356112786887714,26.356112786887714 0 0,0 -0.4320879551857699,0.13834091836258763 l -1.589227325344247 -5.1149096467328965" fill="#ff4506" stroke="none" /><path d="M 106.2309692047433 120.05430185196036 l 2.2633981195104838 7.284720499865258 a28.62824513296215,28.62824513296215 0 0,0 -0.4718548608751158,0.14216599889722695 l -2.1376682841951222 -7.32260186786821" fill="#ff6409" stroke="none" /><path d="M 105.18746579009965 120.34920634021253 l 2.7539006361007177 10.80290348929308 a32.1483941674349,32.1483941674349 0 0,0 -0.5374089606313587,0.13208204742813628 l -2.5675383907261478 -10.848706795035245" fill="#ff930d" stroke="none" /><path d="M 104.83641907484287 120.43548508189849 l 1.0928590088715533 4.617694130060183 a25.745254460201686,25.745254460201686 0 0,0 -0.4321277831416496,0.09835087655576516 l -1.0132110763370417 -4.6358217401936335" fill="#ff3c05" stroke="none" /><path d="M 103.41894727170886 120.7198165907248 l 0.9686868617524332 5.870524613069946 a26.949908694155887,26.949908694155887 0 0,0 -0.4583590887894049,0.07158626303814124 l -0.8674919093545111 -5.886329183455193" fill="#ff4d07" stroke="none" /><path d="M 103.06178313531738 120.77559828337769 l 1.6012025777644379 10.864891488304092 a31.98224552392006,31.98224552392006 0 0,0 -0.5453298910361305,0.07557775384032378 l -1.4139440955414768 -10.890843807637019" fill="#ff910d" stroke="none" /><path d="M 102.70371172650421 120.8252237178851 l 0.08277201365533719 0.6375478883545663 a21.642898527133113,21.642898527133113 0 0,0 -0.3698591793842736,0.044784795826069076 l -0.07178541121968326 -0.6388782129059863" fill="#ff0200" stroke="none" /><path d="M 102.34483914955558 120.86867818915974 l 0.5287593674545249 4.705870371109885 a25.735483335242645,25.735483335242645 0 0,0 -0.4406495675215706,0.0456751293809904 l -0.44767720332735167 -4.714274868946634" fill="#ff3c05" stroke="none" /><path d="M 101.62511606390274 120.93702456842531 l 0.7431228911881992 9.573951409231663 a30.60274841999606,30.60274841999606 0 0,0 -0.525547176322111,0.03624481026461622 l -0.5782129540871578 -9.585324564012565" fill="#ff7f0b" stroke="none" /><path d="M 100.90346689309514 120.98055641714683 l 0.08188462169677768 1.9015471826758479 a22.903309428131138,22.903309428131138 0 0,0 -0.39402378931818277,0.013570975996370593 l -0.04914048070394263 -1.9026749570983124" fill="#ff1402" stroke="none" /><line stroke="#e1ed5e" stroke-width="0.3" x1="102.19456741930631" x2="102.32365962044197" y1="184.97166512339345" y2="189.96999836594603" /><path d="M 102.22038585953345 185.97133177190398 a86.0,86.0 0 0,1 -42.740103519485714,-10.115201625700543" fill="none" id="id127" stroke="none" /><text fill="#e1ed5e" style="font-size:6.75px; font-family:Arial;" text-anchor="middle"><textPath startOffset="22.20632615414155" xlink:href="#id127">July</textPath></text><path d="M 100.54218724476979 120.99299961872073 l 0.1580226125356657 6.118492599579678 a27.12053288833447,27.12053288833447 0 0,0 -0.46678351511598615,0.008036101528521853 l -0.05267940752701163 -6.12030617838736" fill="#ff5007" stroke="none" /><path d="M 98.37488393609728 120.93702456842531 l -0.24292770898808783 3.129735484381586 a24.139149259591115,24.139149259591115 0 0,0 -0.4139929414631808,-0.035721052980892495 l 0.2967649681928103 -3.1250901791220302" fill="#ff2603" stroke="none" /><path d="M 98.01472825383883 120.90594882070398 l -0.3236787732654808 3.4085066093954364 a24.42384071687849,24.42384071687849 0 0,0 -0.4181912851184087,-0.04334723658352223 l 0.3823026549894828 -3.402430004356153" fill="#ff2a04" stroke="none" /><path d="M 97.65516085044442 120.86867818915974 l -0.5517631984026805 4.910600638116006 a25.94150192291543,25.94150192291543 0 0,0 -0.4433187449997142,-0.053679726196697274 l 0.6362093664537841 -4.90037538319396" fill="#ff3f05" stroke="none" /><path d="M 96.93821686468263 120.77559828337769 l -0.651605472066507 4.421441012836866 a25.469197950552527,25.469197950552527 0 0,0 -0.4331754328853723,-0.06765309391397356 l 0.7276167685603965 -4.409569611575787" fill="#ff3905" stroke="none" /><path d="M 96.58105272829116 120.7198165907248 l -0.5761184763627974 3.4914458212157924 a24.538658844999304,24.538658844999304 0 0,0 -0.41616517077823717,-0.07235564937478293 l 0.6361326186130846 -3.4810115933200034" fill="#ff2b04" stroke="none" /><path d="M 96.22490169976321 120.6578951692458 l -0.7349178756929958 4.021579102488122 a25.08817841606531,25.08817841606531 0 0,0 -0.4241483728145991,-0.08128904513155119 l 0.8040338630792899 -4.008332859008103" fill="#ff3304" stroke="none" /><path d="M 95.86986931433489 120.58985236759428 l -1.1037874586430492 5.502688062037101 a26.61230101312673,26.61230101312673 0 0,0 -0.44836472997407706,-0.0939591885346836 l 1.198343650046513 -5.482872892775876" fill="#ff4806" stroke="none" /><path d="M 94.81253420990036 120.34920634021253 l -1.5093582457497783 5.92085685512993 a27.1102134343206,27.1102134343206 0 0,0 -0.4512037472721623,-0.11916701058162135 l 1.61105243583343 -5.893998495244727" fill="#ff4f07" stroke="none" /><path d="M 92.7421414339146 119.70592522655815 l -1.7115009244224175 4.646922909114245 a25.952083191703224,25.952083191703224 0 0,0 -0.41786534097244676,-0.15800091663988042 l 1.7912364861551473 -4.616773742367732" fill="#ff3f05" stroke="none" /><path d="M 92.06813273071674 119.44442032107085 l -1.7957647473700995 4.402192240514012 a25.754373518176603,25.754373518176603 0 0,0 -0.4090389814797452,-0.17097832743257776 l 1.8712751883473069 -4.370628870061461" fill="#ff3d05" stroke="none" /><path d="M 91.7346041902142 119.30500536409082 l -1.9861073227168016 4.638835622767541 a26.046129034458634,26.046129034458634 0 0,0 -0.4106349918336156,-0.18001031296983294 l 2.0656629892081604 -4.603960756503256" fill="#ff4106" stroke="none" /><path d="M 91.40352486487194 119.15986991738527 l -2.440954973225026 5.440413544625404 a26.96291545452856,26.96291545452856 0 0,0 -0.4218181263918994,-0.19363601295391022 l 2.534241095384345 -5.397590461337419" fill="#ff4d07" stroke="none" /><path d="M 90.42595943632237 118.69057910512821 l -1.6889361776024099 3.2971653943844332 a24.704565433345792,24.704565433345792 0 0,0 -0.3768141455919107,-0.19713135163733425 l 1.7454412257208163 -3.267604623802382" fill="#ff2e04" stroke="none" /><line stroke="#e1ed5e" stroke-width="0.3" x1="58.666819895761336" x2="56.23545636021788" y1="174.27360380694188" y2="178.64263932499728" /><path d="M 58.180547188652646 175.14741091055294 a86.0,86.0 0 0,1 -31.652253787137756,-30.449443065178592" fill="none" id="id128" stroke="none" /><text fill="#e1ed5e" style="font-size:6.75px; font-family:Arial;" text-anchor="middle"><textPath startOffset="22.20632615414155" xlink:href="#id128">August</textPath></text><path d="M 89.4739219176387 118.17145234162733 l -3.0258057460421353 5.223530025049229 a27.036618783339925,27.036618783339925 0 0,0 -0.40069830591109135,-0.2367396220109607 l 3.115271922981609 -5.170671830744518" fill="#ff4e07" stroke="none" /><path d="M 88.8546689885994 117.79835938074946 l -2.708628549241375 4.325501351107717 a26.103589967483686,26.103589967483686 0 0,0 -0.37877328071417316,-0.241751028789299 l 2.7826836320024717 -4.278235893494614" fill="#ff4106" stroke="none" /><path d="M 88.54995079064634 117.60387380957326 l -2.5428845092918015 3.9095568233298756 a25.663785606397596,25.663785606397596 0 0,0 -0.3682451394914661,-0.24405279866122565 l 2.6098043475232293 -3.8652060035773315" fill="#ff3b05" stroke="none" /><path d="M 88.24862548938628 117.40417183066458 l -2.1636714241229984 3.204468482944195 a24.866534920280575,24.866534920280575 0 0,0 -0.3526822013947645,-0.24257803404732506 l 2.218510510140653 -3.1667496595317686" fill="#ff3004" stroke="none" /><path d="M 87.65650970185807 116.9893568818739 l -4.396865206479731 6.051765776947457 a28.480393884213886,28.480393884213886 0 0,0 -0.39413478624532183,-0.2915714924323228 l 4.500384963143617 -5.975184335775368" fill="#ff6209" stroke="none" /><path d="M 86.51685102203217 116.09983520530335 l -3.963701614395554 4.732940568930905 a27.173463931780432,27.173463931780432 0 0,0 -0.35601704993433103,-0.3034054535789929 l 4.044584140906942 -4.664010725128961" fill="#ff5007" stroke="none" /><path d="M 86.24171649860922 115.8653595955263 l -1.7724252060359167 2.0438714791050807 a23.705346878699782,23.705346878699782 0 0,0 -0.3059769308796918,-0.2699890661735949 l 1.8073444898221962 -2.013059271159197" fill="#ff2003" stroke="none" /><path d="M 84.43433777217949 114.09645910891817 l -2.1999882696932294 1.9923369934369013 a23.968055774780016,23.968055774780016 0 0,0 -0.27431000460016275,-0.30819019810867854 l 2.2339571239417304 -1.9541726255873586" fill="#ff2303" stroke="none" /><path d="M 84.19399662182784 113.82643327865904 l -2.6043542370947605 2.278180589465861 a24.460168751736315,24.460168751736315 0 0,0 -0.274486761119497,-0.31929011491544995 l 2.6431835077850363 -2.2330133753888806" fill="#ff2a04" stroke="none" /><path d="M 83.95833913139862 113.55231037782056 l -3.3989243409860386 2.87147808428817 a25.449502563691208,25.449502563691208 0 0,0 -0.2798281877464762,-0.3370710785783422 l 3.4478485286260514 -2.8125457485960665" fill="#ff3805" stroke="none" /><path d="M 83.50135304334701 112.99209946851258 l -1.6324904760624896 1.2855283649699965 a23.077885543425616,23.077885543425616 0 0,0 -0.24307956929654467,-0.3142131107714771 l 1.654376862577103 -1.2572372600852666" fill="#ff1702" stroke="none" /><path d="M 83.28015986056508 112.70617746262583 l -1.934910578374571 1.4704277659421572 a23.430233890217043,23.430233890217043 0 0,0 -0.2412630522599249,-0.3232112851466857 l 1.9599348973295811 -1.4369036012861633" fill="#ff1c02" stroke="none" /><path d="M 83.06392112726016 112.41649034213515 l -3.1909657196320933 2.3394196105020013 a24.956658481328468,24.956658481328468 0 0,0 -0.25101669457320264,-0.3486402342216479 l 3.2307622065809034 -2.284145770829215" fill="#ff3104" stroke="none" /><path d="M 82.6465618267979 111.8261652097733 l -5.5713919792485935 3.7968384902968113 a27.742135500554326,27.742135500554326 0 0,0 -0.26552776594695965,-0.39692798281032365 l 5.635922850606284 -3.7003735932806667" fill="#ff5808" stroke="none" /><line stroke="#e1ed5e" stroke-width="0.3" x1="26.63291911575756" x2="22.317208475507996" y1="142.92168965132927" y2="145.44649492493687" /><path d="M 25.769776987707644 143.4266507060508 a86.0,86.0 0 0,1 -11.730757126820373,-40.83630448921669" fill="none" id="id129" stroke="none" /><text fill="#e1ed5e" style="font-size:6.75px; font-family:Arial;" text-anchor="middle"><textPath startOffset="21.46611528233685" xlink:href="#id129">September</textPath></text><path d="M 81.69416730710424 110.29060199501025 l -2.351201587373965 1.3217251655037603 a23.69724050051081,23.69724050051081 0 0,0 -0.196826560675716,-0.35729737976566006 l 2.373604557501198 -1.2810572673402776" fill="#ff2003" stroke="none" /><path d="M 81.35079622478065 109.6543875284942 l -4.253720075123232 2.2020812544042294 a25.789916108712646,25.789916108712646 0 0,0 -0.20069630459935278,-0.3959928490378796 l 4.290995049508851 -2.128534193663665" fill="#ff3d05" stroke="none" /><path d="M 81.18737489456691 109.33194174019688 l -9.284812142685386 4.605700985302121 a31.364372537253324,31.364372537253324 0 0,0 -0.23575066968229436,-0.4857162065873288 l 9.3627160689824 -4.445195822749508" fill="#ff890c" stroke="none" /><path d="M 80.73074385275274 108.34839909993369 l -4.4202148242203885 1.9150566673694194 a25.81723376342624,25.81723376342624 0 0,0 -0.17315866875749714,-0.40929594269887337 l 4.452524474170192 -1.8386861990043872" fill="#ff3d05" stroke="none" /><path d="M 80.45479744820244 107.68017299344265 l -15.033287909954812 5.9072425319053155 a37.15225246565768,37.15225246565768 0 0,0 -0.22876184618074738,-0.597224993879559 l 15.132744035729068 -5.647593971192599" fill="#ffd313" stroke="none" /><path d="M 80.0844068197444 106.66101706037122 l -10.145631812604675 3.393332349196813 a31.698062876476357,31.698062876476357 0 0,0 -0.16861520243221748,-0.5189442326431107 l 10.202539266053142 -3.2181892165758987" fill="#ff8d0d" stroke="none" /><path d="M 79.86692584326677 105.97154293290107 l -10.012478331891991 2.969737445865358 a31.443613495528332,31.443613495528332 0 0,0 -0.14944305475053307,-0.5202308786735295 l 10.062114023528627 -2.7969490916872326" fill="#ff8a0c" stroke="none" /><path d="M 79.58551787078972 104.9243191809786 l -9.638052092777405 2.3248615608928365 a30.914485837420315,30.914485837420315 0 0,0 -0.12033012270945734,-0.518379019300443 l 9.676642781417417 -2.1586138842438194" fill="#ff830c" stroke="none" /><path d="M 79.1416061653843 102.43462659150553 l -10.896419675412528 1.27184831700404 a31.970394700473783,31.970394700473783 0 0,0 -0.05909605439882667,-0.5471560688640738 l 10.916698031312405 -1.0840959262551841" fill="#ff910d" stroke="none" /><path d="M 79.10278846688536 102.07522291339032 l -4.699862924857398 0.46672558278898796 a25.722980444812244,25.722980444812244 0 0,0 -0.03996298199851884,-0.4409881762920805 l 4.707200503132992 -0.3857560179483413" fill="#ff3c05" stroke="none" /><path d="M 79.07016306316243 101.71520430193888 l -3.5868865076771246 0.29394606308212906 a24.59891082231245,24.59891082231245 0 0,0 -0.030951803668315212,-0.4223127697316285 l 3.591414870009775 -0.23216015685373992" fill="#ff2c04" stroke="none" /><line stroke="#e1ed5e" stroke-width="0.3" x1="15.007084014347285" x2="10.007500721073583" y1="101.09737516637583" y2="101.16192664675087" /><path d="M 14.007167355692545 101.11028546245083 a86.0,86.0 0 0,1 10.666146001902534,-42.60595125391555" fill="none" id="id130" stroke="none" /><text fill="#e1ed5e" style="font-size:6.75px; font-family:Arial;" text-anchor="middle"><textPath startOffset="22.20632615414155" xlink:href="#id130">October</textPath></text><path d="M 79.00175016825051 100.2711162175752 l -4.324350347440335 0.05583329653956995 a25.324710774654164,25.324710774654164 0 0,0 -0.001876081961651511,-0.43593537677479705 l 4.324670726691489 0.018611558438902477" fill="#ff3705" stroke="none" /><path d="M 79.00019446554 99.90962569577889 l -11.129252726688465 -0.047895608843853 a32.12935578745909,32.12935578745909 0 0,0 0.007140355941545534,-0.5530284366210187 l 11.126779363629204 0.23946030352534373" fill="#ff930d" stroke="none" /><path d="M 79.01574976396665 99.18683210126434 l -1.7323186806450224 -0.06712967704996796 a22.733618875316182,22.733618875316182 0 0,0 0.018518580511975472,-0.3908979658162949 l 1.730906491899548 0.09693874948927195" fill="#ff1202" stroke="none" /><path d="M 79.03285615573316 98.82574320788736 l -1.8067781019231166 -0.1011879097020521 a22.80960937847337,22.80960937847337 0 0,0 0.0253288861964854,-0.3918266586292267 l 1.8047686247222179 0.13227363258429062" fill="#ff1302" stroke="none" /><path d="M 79.05617556472873 98.46500227214037 l -6.033708673796974 -0.44221766342004554 a27.049892298387924,27.049892298387924 0 0,0 0.038031525368424475,-0.4640809398160795 l 6.0252026646090515 0.5460125204439034" fill="#ff4f07" stroke="none" /><path d="M 79.12142395522702 97.74499172005258 l -3.2313414466942803 -0.34900376836078034 a24.25013402422951,24.25013402422951 0 0,0 0.048395931265291264,-0.4146267841838535 l 3.2248551624254 0.40457429086949565" fill="#ff2703" stroke="none" /><path d="M 79.16333360222342 97.38593545837743 l -5.886270508628399 -0.7384622244874072 a26.93241156341528,26.93241156341528 0 0,0 0.06166752871381269,-0.45949471748273163 l 5.872686980856752 0.8396752840347982" fill="#ff4d07" stroke="none" /><path d="M 79.32604984820605 96.31383870115002 l -4.677720996016916 -0.8340367455534055 a25.751493555663398,25.751493555663398 0 0,0 0.08156390248070546,-0.43571762849564233 l 4.662671369626349 0.9144324515116204" fill="#ff3d05" stroke="none" /><path d="M 79.3925641242962 95.95851677861259 l -5.824756867261186 -1.1423380031210797 a26.93571635744844,26.93571635744844 0 0,0 0.09314717556723351,-0.45421870861191127 l 5.804230395778958 1.2424323678963933" fill="#ff4d07" stroke="none" /><path d="M 79.54389044137918 95.25157060432595 l -3.5494173285314674 -0.8239180344637338 a24.643789826484788,24.643789826484788 0 0,0 0.099475478788197,-0.4123900806146984 l 3.534709049482456 0.8848933467378289" fill="#ff2d04" stroke="none" /><path d="M 79.71946130924805 94.55025226153421 l -6.205770025878959 -1.667602704231653 a27.425922532466327,27.425922532466327 0 0,0 0.12643772050308946,-0.4548637529221786 l 6.176145534809509 1.7741777605727742" fill="#ff5407" stroke="none" /><path d="M 79.91906864156998 93.8553929516997 l -7.247539224547678 -2.217689996898148 a28.5792462510265,28.5792462510265 0 0,0 0.14799220513510716,-0.4691757327952335 l 7.208291535644367 2.342115896119796" fill="#ff6309" stroke="none" /><path d="M 80.14247586403 93.16781622104843 l -7.161606115834859 -2.4640236517309 a28.57363946294333,28.57363946294333 0 0,0 0.16402210510995555,-0.4637125786000639 l 7.118130929915093 2.586933856757575" fill="#ff6309" stroke="none" /><path d="M 80.38941819471856 92.48833698450439 l -58.83174541584431 -22.534989046486853 a84.0,84.0 0 0,0 0.5288258004732356,-1.3458039804169464 l 58.435126065489385 23.544342031799562" fill="#4dd2ff" stroke="none" /><path d="M 80.52162464483688 92.15188598940014 l -4.443850301894417 -1.790490386358708 a25.79099794711812,25.79099794711812 0 0,0 0.1694570662030878,-0.4103537270246957 l 4.41237154880513 1.866718683836715" fill="#ff3d05" stroke="none" /><path d="M 80.65960295795068 91.81776055985345 l -1.8229921441797752 -0.7712436403841552 a22.979423428823196,22.979423428823196 0 0,0 0.1572550775800311,-0.36296640039273315 l 1.8094463567570633 0.8025091853634876" fill="#ff1502" stroke="none" /><path d="M 80.803312248108 91.48605970444005 l -2.7101302395857467 -1.2019723064334613 a23.964716401437087,23.964716401437087 0 0,0 0.1704891954764317,-0.3756503430330731 l 2.6890387271459635 1.2484446583086053" fill="#ff2303" stroke="none" /><path d="M 80.95270993114464 91.15688171328213 l -3.2424549472074364 -1.5053801634697337 a24.57486832222365,24.57486832222365 0 0,0 0.18143485575136573,-0.38214807786939825 l 3.216061897614319 1.560970656979664" fill="#ff2c04" stroke="none" /><path d="M 81.43458229118936 90.18545643968196 l -4.3732112342203076 -2.3118829228581417 a25.946693759281427,25.946693759281427 0 0,0 0.21213510335844016,-0.39305412878457496 l 4.332768031643396 2.3868180349751897" fill="#ff3f05" stroke="none" /><path d="M 81.6062741919709 89.86733742301443 l -5.711115055877365 -3.146116366173455 a27.52034380772775,27.52034380772775 0 0,0 0.23214374354972112,-0.4129578164799597 l 5.656113671035214 3.243957692588199" fill="#ff5507" stroke="none" /><line stroke="#e1ed5e" stroke-width="0.3" x1="26.266209847984243" x2="21.928928074336255" y1="57.711370442889674" y2="55.22380399835377" /><path d="M 25.398753493254645 57.213857153982495 a86.0,86.0 0 0,1 29.58750427330803,-30.492523968695096" fill="none" id="id131" stroke="none" /><text fill="#e1ed5e" style="font-size:6.75px; font-family:Arial;" text-anchor="middle"><textPath startOffset="21.46611528233685" xlink:href="#id131">November</textPath></text><path d="M 81.96595687620814 89.24020034530311 l -4.33252591081723 -2.5849506114175687 a26.045071895560135,26.045071895560135 0 0,0 0.2330217876988287,-0.3830265500232228 l 4.287388324832184 2.6591449346478657" fill="#ff4106" stroke="none" /><path d="M 82.15384107792192 88.93136811851018 l -3.4428447367966943 -2.1353379841072218 a25.05127735264568,25.05127735264568 0 0,0 0.23043883158664966,-0.3644988915649756 l 3.405578308964082 2.1942845233864126" fill="#ff3304" stroke="none" /><path d="M 82.54541684631803 88.32363383020206 l -4.108491760044979 -2.7484044605077407 a25.943018472643647,25.943018472643647 0 0,0 0.25149351655877,-0.3690357028800109 l 4.060573777817469 2.818718186658167" fill="#ff3f05" stroke="none" /><path d="M 82.95767976084542 87.72973835380427 l -7.3077774120208545 -5.26151014881429 a30.004837574865967,30.004837574865967 0 0,0 0.3053883616764105,-0.4165493821242838 l 7.216126437830811 5.3865219746100745" fill="#ff770a" stroke="none" /><path d="M 83.39014120810768 87.1503855733568 l -8.818668693868878 -6.822242975830527 a32.14952540485432,32.14952540485432 0 0,0 0.34238619845886337,-0.4347957021799215 l 8.699928414816043 6.973031071963496" fill="#ff930d" stroke="none" /><path d="M 84.07557802195018 86.31012108654704 l -5.7258809231000924 -4.922415182047955 a28.550886277118586,28.550886277118586 0 0,0 0.32358777314371023,-0.36991676250584926 l 5.640301286378539 5.020247500756748" fill="#ff6309" stroke="none" /><path d="M 84.5562425177563 85.77008943001954 l -9.282598123980085 -8.55300540125515 a33.62222362839521,33.62222362839521 0 0,0 0.3958339232836363,-0.42224803063682237 l 9.133996878725993 8.711522848770024" fill="#ffa60f" stroke="none" /><path d="M 84.80347519578584 85.50635884689758 l -2.452093326146241 -2.3386768488822773 a24.3885352416094,24.3885352416094 0 0,0 0.29235551791661846,-0.3012980599886235 l 2.4114735445265043 2.380539104421025" fill="#ff2904" stroke="none" /><path d="M 85.05521093208273 85.24692304244772 l -3.5195106799697813 -3.4743623130813117 a25.94551806274945,25.94551806274945 0 0,0 0.316491089228035,-0.3151319759103529 l 3.459183790574433 3.534430139641774" fill="#ff3f05" stroke="none" /><path d="M 85.57189188830299 84.74124197986013 l -2.1421976477169515 -2.2655274887582713 a24.117952142705754,24.117952142705754 0 0,0 0.30410683744768763,-0.28263416264719116 l 2.1028829264744076 2.30206623748011" fill="#ff2603" stroke="none" /><path d="M 85.83668400450813 84.49514656593479 l -1.6630338762822243 -1.820555053339806 a23.465786360555875,23.465786360555875 0 0,0 0.30057327135285,-0.26985765076583723 l 1.6314496173334028 1.8489117128749222" fill="#ff1c02" stroke="none" /><path d="M 86.10567301691215 84.25364557470407 l -7.540388036466774 -8.545474902885871 a32.39660445292121,32.39660445292121 0 0,0 0.42131969423239685,-0.3653642870851238 l 7.392174543587603 8.674004183390677" fill="#ff960d" stroke="none" /><path d="M 86.37877921826538 84.01681056812374 l -1.220050315732878 -1.4316114264095887 a22.88096625412217,22.88096625412217 0 0,0 0.3019660640201379,-0.25288789453776156 l 1.1952267147536297 1.4524004783411626" fill="#ff1402" stroke="none" /><path d="M 87.22198572758235 83.33499621200491 l -3.043478610638865 -3.9692851716765505 a26.00179835934113,26.00179835934113 0 0,0 0.3575294897837399,-0.2692837993414567 l 2.9747029670967353 4.021085560523861" fill="#ff4006" stroke="none" /><path d="M 87.80319425747018 82.90503203632743 l -7.6151691635950405 -10.673374294686656 a34.11151098175365,34.11151098175365 0 0,0 0.4809217230212982,-0.33691640065904443 l 7.430316300990081 10.802875538109642" fill="#ffad10" stroke="none" /><path d="M 88.39885842347998 82.49532879139004 l -2.1919407921476854 -3.3073644194586964 a24.967778199368304,24.967778199368304 0 0,0 0.36028857558632443,-0.23434171164007622 l 2.134685190777074 3.3446050552583078" fill="#ff3204" stroke="none" /><path d="M 88.70189139769569 82.29822771554957 l -2.277352781726021 -3.568135320035041 a25.23295704614597,25.23295704614597 0 0,0 0.3681378460930002,-0.23052788545040684 l 2.2155957832607784 3.6068075468083785" fill="#ff3505" stroke="none" /><line stroke="#e1ed5e" stroke-width="0.3" x1="56.762969772571076" x2="54.21961505331055" y1="26.818313649435495" y2="22.513508569990535" /><path d="M 56.25429882871897 25.957352633546506 a86.0,86.0 0 0,1 42.265352541879196,-11.944610805530505" fill="none" id="id132" stroke="none" /><text fill="#e1ed5e" style="font-size:6.75px; font-family:Arial;" text-anchor="middle"><textPath startOffset="22.20632615414155" xlink:href="#id132">December</textPath></text><path d="M 90.58718382345135 81.22770947309562 l -1.1936312247924445 -2.380498217910004 a23.66299216414022,23.66299216414022 0 0,0 0.36568194598907827,-0.17943854275758525 l 1.1524780117929403 2.400691920802419" fill="#ff1f03" stroke="none" /><path d="M 90.91171255644093 81.06846463323043 l -0.6439666880011008 -1.3414274366458716 a22.487992158259384,22.487992158259384 0 0,0 0.35040766753838165,-0.1645210983631216 l 0.6207808091631107 1.3523135176490009" fill="#ff0e01" stroke="none" /><path d="M 91.56875222667455 80.76684994638697 l -21.50260849497199 -49.051208889425524 a74.55728956549332,74.55728956549332 0 0,0 1.1798380141783145,-0.5051450644377917 l 20.655086723003368 49.41407348182611" fill="#41ffd2" stroke="none" /><path d="M 91.90106846888425 80.62456947434976 l -0.6136243792897559 -1.4680006225631081 a22.591087900370187,22.591087900370187 0 0,0 0.360076263038127,-0.14688414866978391 l 0.5882642466632484 1.4783456574164688" fill="#ff1001" stroke="none" /><path d="M 92.23578459929587 80.48803036053334 l -1.3608855904586188 -3.419992485191496 a24.680809447537893,24.680809447537893 0 0,0 0.39608801358358603,-0.15367599567393272 l 1.3018144118753563 3.4429111847559803" fill="#ff2d04" stroke="none" /><path d="M 93.25333710446033 80.11325718540243 l -3.1746109713531463 -9.357614705403153 a30.881452716792865,30.881452716792865 0 0,0 0.5048634853230385,-0.1664455534513499 l 3.013064663787698 9.410873983113737" fill="#ff820c" stroke="none" /><path d="M 94.28887869178378 79.79150937346287 l -2.2217729832628335 -7.861622277567018 a29.169539768205713,29.169539768205713 0 0,0 0.48435619464504287,-0.1323928446577434 l 2.086118899394068 7.898701663051057" fill="#ff6b09" stroke="none" /><path d="M 94.63758080256005 79.69619591428918 l -4.409571467523508 -16.696023172019135 a38.2685121040522,38.2685121040522 0 0,0 0.6383390301571427,-0.16272683199845023 l 4.121523548681365 16.76945300018645" fill="#ffe115" stroke="none" /><path d="M 95.692805502759 79.44645832069477 l -0.8126865419975136 -3.878066505669966 a24.962304788622795,24.962304788622795 0 0,0 0.4213085387717748,-0.08451052941266576 l 0.7458115937586023 3.8914809911598423" fill="#ff3104" stroke="none" /><path d="M 96.75951476605007 79.25152402106235 l -3.2965624151388604 -21.10753209642133 a42.36340878601453,42.36340878601453 0 0,0 0.7214509084123959,-0.10632311013174457 l 2.9327425262978157 21.161149690714044" fill="#ebff1a" stroke="none" /><path d="M 97.11714578562143 79.19881850522333 l -1.9924286135225189 -14.376331969392382 a35.51374151189681,35.51374151189681 0 0,0 0.6062453936949567,-0.0787080514609088 l 1.7446684913197046 14.408498344017428" fill="#ffbf11" stroke="none" /><path d="M 97.83486435360386 79.11191278185805 l -0.7323517539291348 -7.065343612947979 a28.103197833406295,28.103197833406295 0 0,0 0.48160165469785887,-0.04573388015899133 l 0.6106249721410396 7.076903037622151" fill="#ff5d08" stroke="none" /><path d="M 98.55514903715128 79.0497635885617 l -0.3398391378839099 -4.927643378864378 a25.939348125907266,25.939348125907266 0 0,0 0.4457095824851497,-0.0268864191955751 l 0.25496750655913725 4.932763067440259" fill="#ff3f05" stroke="none" /><path d="M 99.27714615592234 79.0124445844662 l -0.7513118026231107 -21.81381232331529 a42.82674683734575,42.82674683734575 0 0,0 0.7369736003937479,-0.019033853814261415 l 0.3757115670344838 21.82351296927191" fill="#e6ff1a" stroke="none" /><path d="M 99.63851952072746 79.00311137660856 l -0.46405347560226917 -26.9549248195287 a47.95891907430012,47.95891907430012 0 0,0 0.8255339548747982,-0.007105631379978341 l 6.6030307905628335e-15 26.95891907430012" fill="#abff21" stroke="none" /></svg>