<?xml version="1.0" encoding="utf-8" ?>
<svg baseProfile="full" height="300mm" version="1.1" viewBox="0,0,200,300" width="200mm" xmlns="http://www.w3.org/2000/svg" xmlns:ev="http://www.w3.org/2001/xml-events" xmlns:xlink="http://www.w3.org/1999/xlink"><defs /><rect fill="#222222" height="300" width="200" x="0" y="0" /><text fill="#555555" style="font-size:6px; font-family:Arial;" x="11" y="19">Running for 4672 Days</text><text fill="#555555" style="font-size:6px; font-family:Arial;" x="11" y="39">Races</text><text fill="#555555" style="font-size:8px; font-family:Arial;" x="11" y="59">1</text><text fill="#FFFFFF" style="font-size:10px; font-family:Arial; font-weight:bold;" x="23" y="59">Full</text><text fill="#555555" style="font-size:6px; font-family:Arial;" x="49" y="59">4x</text><text fill="#555555" style="font-size:8px; font-family:Arial;" x="11" y="77">2</text><text fill="#FFFFFF" style="font-size:10px; font-family:Arial; font-weight:bold;" x="23" y="77">Half</text><text fill="#555555" style="font-size:6px; font-family:Arial;" x="49" y="77">13x</text><text fill="#555555" style="font-size:8px; font-family:Arial;" x="11" y="95">3</text><text fill="#FFFFFF" style="font-size:10px; font-family:Arial; font-weight:bold;" x="23" y="95">10K</text><text fill="#555555" style="font-size:6px; font-family:Arial;" x="49" y="95">22x</text><text fill="#555555" style="font-size:6px; font-family:Arial;" x="11" y="133">Stats</text><text fill="#555555" style="font-size:5px; font-family:Arial;" x="11" y="139">Distance</text><text fill="#FFFFFF" style="font-size:10px; font-family:Arial; font-weight:bold;" x="11" y="150">1337</text><text fill="#555555" style="font-size:6px; font-family:Arial;" x="35" y="150">km</text><text fill="#555555" style="font-size:5px; font-family:Arial;" x="53" y="139">Runs</text><text fill="#FFFFFF" style="font-size:10px; font-family:Arial; font-weight:bold;" x="53" y="150">159</text><text fill="#555555" style="font-size:5px; font-family:Arial;" x="11" y="167">Avg Pace</text><text fill="#FFFFFF" style="font-size:10px; font-family:Arial; font-weight:bold;" x="11" y="178">6'49"</text><text fill="#555555" style="font-size:5px; font-family:Arial;" x="53" y="167">Streak</text><text fill="#FFFFFF" style="font-size:10px; font-family:Arial; font-weight:bold;" x="53" y="178">5</text><text fill="#555555" style="font-size:6px; font-family:Arial;" x="59" y="178">d</text><text fill="#555555" style="font-size:5px; font-family:Arial;" x="11" y="195">Time</text><text fill="#FFFFFF" style="font-size:10px; font-family:Arial; font-weight:bold;" x="11" y="206">152</text><text fill="#555555" style="font-size:6px; font-family:Arial;" x="29" y="206">h</text><text fill="#555555" style="font-size:5px; font-family:Arial;" x="53" y="195">Longest</text><text fill="#FFFFFF" style="font-size:10px; font-family:Arial; font-weight:bold;" x="53" y="206">49.5</text><text fill="#555555" style="font-size:5px; font-family:Arial;" x="11" y="252.0645161290322">Runner</text><text fill="#FFFFFF" style="font-size:8px; font-family:Arial; font-weight:bold;" x="11" y="262.0645161290322">yihong0618</text><text fill="#555555" style="font-size:7px; font-family:Arial;" x="11" y="285.5806451612903">running_page/2014</text><circle cx="85.41666666666667" cy="17.419354838709676" fill="#555555" r="3.3125"><title>2014-01-01</title></circle><circle cx="85.41666666666667" cy="26.25806451612903" fill="#555555" r="3.3125"><title>2014-01-02</title></circle><circle cx="85.41666666666667" cy="35.096774193548384" fill="#527d8c" r="3.3125"><title>2014-01-03: 3 km</title></circle><circle cx="85.41666666666667" cy="43.935483870967744" fill="#555555" r="3.3125"><title>2014-01-04</title></circle><circle cx="85.41666666666667" cy="52.774193548387096" fill="#53666c" r="3.3125"><title>2014-01-05: 1 km</title></circle><circle cx="85.41666666666667" cy="61.61290322580645" fill="#555555" r="3.3125"><title>2014-01-06</title></circle><circle cx="85.41666666666667" cy="70.45161290322581" fill="#555555" r="3.3125"><title>2014-01-07</title></circle><circle cx="85.41666666666667" cy="79.29032258064517" fill="#527885" r="3.3125"><title>2014-01-08: 2 km</title></circle><circle cx="85.41666666666667" cy="88.12903225806451" fill="#509db7" r="3.3125"><title>2014-01-09: 5 km</title></circle><circle cx="85.41666666666667" cy="96.96774193548387" fill="#555555" r="3.3125"><title>2014-01-10</title></circle><circle cx="85.41666666666667" cy="105.80645161290322" fill="#555555" r="3.3125"><title>2014-01-11</title></circle><circle cx="85.41666666666667" cy="114.64516129032258" fill="#4dc8f1" r="3.3125"><title>2014-01-12: 9 km</title></circle><circle cx="85.41666666666667" cy="123.48387096774194" fill="#555555" r="3.3125"><title>2014-01-13</title></circle><circle cx="85.41666666666667" cy="132.32258064516128" fill="#555555" r="3.3125"><title>2014-01-14</title></circle><circle cx="85.41666666666667" cy="141.16129032258064" fill="#50a2be" r="3.3125"><title>2014-01-15: 6 km</title></circle><circle cx="85.41666666666667" cy="149.99999999999997" fill="#555555" r="3.3125"><title>2014-01-16</title></circle><circle cx="85.41666666666667" cy="158.83870967741933" fill="#555555" r="3.3125"><title>2014-01-17</title></circle><circle cx="85.41666666666667" cy="167.6774193548387" fill="#53717b" r="3.3125"><title>2014-01-18: 2 km</title></circle><circle cx="85.41666666666667" cy="176.51612903225805" fill="#53676e" r="3.3125"><title>2014-01-19: 1 km</title></circle><circle cx="85.41666666666667" cy="185.35483870967738" fill="#4ec0e7" r="3.3125"><title>2014-01-20: 8 km</title></circle><circle cx="85.41666666666667" cy="194.19354838709674" fill="#555555" r="3.3125"><title>2014-01-21</title></circle><circle cx="85.41666666666667" cy="203.0322580645161" fill="#518da1" r="3.3125"><title>2014-01-22: 4 km</title></circle><circle cx="85.41666666666667" cy="211.87096774193546" fill="#555555" r="3.3125"><title>2014-01-23</title></circle><circle cx="85.41666666666667" cy="220.70967741935482" fill="#555555" r="3.3125"><title>2014-01-24</title></circle><circle cx="85.41666666666667" cy="229.54838709677418" fill="#555555" r="3.3125"><title>2014-01-25</title></circle><circle cx="85.41666666666667" cy="238.3870967741935" fill="#555555" r="3.3125"><title>2014-01-26</title></circle><circle cx="85.41666666666667" cy="247.22580645161287" fill="#555555" r="3.3125"><title>2014-01-27</title></circle><circle cx="85.41666666666667" cy="256.06451612903226" fill="#555555" r="3.3125"><title>2014-01-28</title></circle><circle cx="85.41666666666667" cy="264.90322580645164" fill="#555555" r="3.3125"><title>2014-01-29</title></circle><circle cx="85.41666666666667" cy="273.741935483871" fill="#555555" r="3.3125"><title>2014-01-30</title></circle><circle cx="85.41666666666667" cy="282.5806451612903" fill="#FFFF00" r="3.3125"><title>2014-01-31: 11 km</title></circle><circle cx="94.25" cy="17.419354838709676" fill="#555555" r="3.3125"><title>2014-02-01</title></circle><circle cx="94.25" cy="26.25806451612903" fill="#555555" r="3.3125"><title>2014-02-02</title></circle><circle cx="94.25" cy="35.096774193548384" fill="#555555" r="3.3125"><title>2014-02-03</title></circle><circle cx="94.25" cy="43.935483870967744" fill="#555555" r="3.3125"><title>2014-02-04</title></circle><circle cx="94.25" cy="52.774193548387096" fill="#555555" r="3.3125"><title>2014-02-05</title></circle><circle cx="94.25" cy="61.61290322580645" fill="#555555" r="3.3125"><title>2014-02-06</title></circle><circle cx="94.25" cy="70.45161290322581" fill="#555555" r="3.3125"><title>2014-02-07</title></circle><circle cx="94.25" cy="79.29032258064517" fill="#536c75" r="3.3125"><title>2014-02-08: 1 km</title></circle><circle cx="94.25" cy="88.12903225806451" fill="#536d76" r="3.3125"><title>2014-02-09: 1 km</title></circle><circle cx="94.25" cy="96.96774193548387" fill="#555555" r="3.3125"><title>2014-02-10</title></circle><circle cx="94.25" cy="105.80645161290322" fill="#555555" r="3.3125"><title>2014-02-11</title></circle><circle cx="94.25" cy="114.64516129032258" fill="#555555" r="3.3125"><title>2014-02-12</title></circle><circle cx="94.25" cy="123.48387096774194" fill="#555555" r="3.3125"><title>2014-02-13</title></circle><circle cx="94.25" cy="132.32258064516128" fill="#555555" r="3.3125"><title>2014-02-14</title></circle><circle cx="94.25" cy="141.16129032258064" fill="#546266" r="3.3125"><title>2014-02-15: 1 km</title></circle><circle cx="94.25" cy="149.99999999999997" fill="#555555" r="3.3125"><title>2014-02-16</title></circle><circle cx="94.25" cy="158.83870967741933" fill="#555555" r="3.3125"><title>2014-02-17</title></circle><circle cx="94.25" cy="167.6774193548387" fill="#555555" r="3.3125"><title>2014-02-18</title></circle><circle cx="94.25" cy="176.51612903225805" fill="#555555" r="3.3125"><title>2014-02-19</title></circle><circle cx="94.25" cy="185.35483870967738" fill="#555555" r="3.3125"><title>2014-02-20</title></circle><circle cx="94.25" cy="194.19354838709674" fill="#555555" r="3.3125"><title>2014-02-21</title></circle><circle cx="94.25" cy="203.0322580645161" fill="#555555" r="3.3125"><title>2014-02-22</title></circle><circle cx="94.25" cy="211.87096774193546" fill="#555555" r="3.3125"><title>2014-02-23</title></circle><circle cx="94.25" cy="220.70967741935482" fill="#555555" r="3.3125"><title>2014-02-24</title></circle><circle cx="94.25" cy="229.54838709677418" fill="#555555" r="3.3125"><title>2014-02-25</title></circle><circle cx="94.25" cy="238.3870967741935" fill="#555555" r="3.3125"><title>2014-02-26</title></circle><circle cx="94.25" cy="247.22580645161287" fill="#555555" r="3.3125"><title>2014-02-27</title></circle><circle cx="94.25" cy="256.06451612903226" fill="#5191a7" r="3.3125"><title>2014-02-28: 4 km</title></circle><circle cx="103.08333333333334" cy="17.419354838709676" fill="#4ebfe5" r="3.3125"><title>2014-03-01: 8 km</title></circle><circle cx="103.08333333333334" cy="26.25806451612903" fill="#536d76" r="3.3125"><title>2014-03-02: 1 km</title></circle><circle cx="103.08333333333334" cy="35.096774193548384" fill="#536b73" r="3.3125"><title>2014-03-03: 1 km</title></circle><circle cx="103.08333333333334" cy="43.935483870967744" fill="#555555" r="3.3125"><title>2014-03-04</title></circle><circle cx="103.08333333333334" cy="52.774193548387096" fill="#555555" r="3.3125"><title>2014-03-05</title></circle><circle cx="103.08333333333334" cy="61.61290322580645" fill="#555555" r="3.3125"><title>2014-03-06</title></circle><circle cx="103.08333333333334" cy="70.45161290322581" fill="#4faccb" r="3.3125"><title>2014-03-07: 6 km</title></circle><circle cx="103.08333333333334" cy="79.29032258064517" fill="#555555" r="3.3125"><title>2014-03-08</title></circle><circle cx="103.08333333333334" cy="88.12903225806451" fill="#528394" r="3.3125"><title>2014-03-09: 3 km</title></circle><circle cx="103.08333333333334" cy="96.96774193548387" fill="#527c8a" r="3.3125"><title>2014-03-10: 3 km</title></circle><circle cx="103.08333333333334" cy="105.80645161290322" fill="#518ea2" r="3.3125"><title>2014-03-11: 4 km</title></circle><circle cx="103.08333333333334" cy="114.64516129032258" fill="#4ebfe6" r="3.3125"><title>2014-03-12: 8 km</title></circle><circle cx="103.08333333333334" cy="123.48387096774194" fill="#555555" r="3.3125"><title>2014-03-13</title></circle><circle cx="103.08333333333334" cy="132.32258064516128" fill="#555555" r="3.3125"><title>2014-03-14</title></circle><circle cx="103.08333333333334" cy="141.16129032258064" fill="#555555" r="3.3125"><title>2014-03-15</title></circle><circle cx="103.08333333333334" cy="149.99999999999997" fill="#5099b2" r="3.3125"><title>2014-03-16: 5 km</title></circle><circle cx="103.08333333333334" cy="158.83870967741933" fill="#555555" r="3.3125"><title>2014-03-17</title></circle><circle cx="103.08333333333334" cy="167.6774193548387" fill="#555555" r="3.3125"><title>2014-03-18</title></circle><circle cx="103.08333333333334" cy="176.51612903225805" fill="#FFFF00" r="3.3125"><title>2014-03-19: 10 km</title></circle><circle cx="103.08333333333334" cy="185.35483870967738" fill="#555555" r="3.3125"><title>2014-03-20</title></circle><circle cx="103.08333333333334" cy="194.19354838709674" fill="#52808f" r="3.3125"><title>2014-03-21: 3 km</title></circle><circle cx="103.08333333333334" cy="203.0322580645161" fill="#555555" r="3.3125"><title>2014-03-22</title></circle><circle cx="103.08333333333334" cy="211.87096774193546" fill="#4eb9de" r="3.3125"><title>2014-03-23: 8 km</title></circle><circle cx="103.08333333333334" cy="220.70967741935482" fill="#555555" r="3.3125"><title>2014-03-24</title></circle><circle cx="103.08333333333334" cy="229.54838709677418" fill="#555555" r="3.3125"><title>2014-03-25</title></circle><circle cx="103.08333333333334" cy="238.3870967741935" fill="#555555" r="3.3125"><title>2014-03-26</title></circle><circle cx="103.08333333333334" cy="247.22580645161287" fill="#555555" r="3.3125"><title>2014-03-27</title></circle><circle cx="103.08333333333334" cy="256.06451612903226" fill="#518a9d" r="3.3125"><title>2014-03-28: 4 km</title></circle><circle cx="103.08333333333334" cy="264.90322580645164" fill="#4dc2ea" r="3.3125"><title>2014-03-29: 8 km</title></circle><circle cx="103.08333333333334" cy="273.741935483871" fill="#FFFF00" r="3.3125"><title>2014-03-30: 23 km</title></circle><circle cx="103.08333333333334" cy="282.5806451612903" fill="#555555" r="3.3125"><title>2014-03-31</title></circle><circle cx="111.91666666666667" cy="17.419354838709676" fill="#527581" r="3.3125"><title>2014-04-01: 2 km</title></circle><circle cx="111.91666666666667" cy="26.25806451612903" fill="#5192a8" r="3.3125"><title>2014-04-02: 4 km</title></circle><circle cx="111.91666666666667" cy="35.096774193548384" fill="#518799" r="3.3125"><title>2014-04-03: 4 km</title></circle><circle cx="111.91666666666667" cy="43.935483870967744" fill="#546166" r="3.3125"><title>2014-04-04: 1 km</title></circle><circle cx="111.91666666666667" cy="52.774193548387096" fill="#555555" r="3.3125"><title>2014-04-05</title></circle><circle cx="111.91666666666667" cy="61.61290322580645" fill="#555555" r="3.3125"><title>2014-04-06</title></circle><circle cx="111.91666666666667" cy="70.45161290322581" fill="#555555" r="3.3125"><title>2014-04-07</title></circle><circle cx="111.91666666666667" cy="79.29032258064517" fill="#555555" r="3.3125"><title>2014-04-08</title></circle><circle cx="111.91666666666667" cy="88.12903225806451" fill="#555555" r="3.3125"><title>2014-04-09</title></circle><circle cx="111.91666666666667" cy="96.96774193548387" fill="#518799" r="3.3125"><title>2014-04-10: 4 km</title></circle><circle cx="111.91666666666667" cy="105.80645161290322" fill="#53717b" r="3.3125"><title>2014-04-11: 2 km</title></circle><circle cx="111.91666666666667" cy="114.64516129032258" fill="#FFFF00" r="3.3125"><title>2014-04-12: 49 km</title></circle><circle cx="111.91666666666667" cy="123.48387096774194" fill="#518496" r="3.3125"><title>2014-04-13: 3 km</title></circle><circle cx="111.91666666666667" cy="132.32258064516128" fill="#51899c" r="3.3125"><title>2014-04-14: 4 km</title></circle><circle cx="111.91666666666667" cy="141.16129032258064" fill="#555555" r="3.3125"><title>2014-04-15</title></circle><circle cx="111.91666666666667" cy="149.99999999999997" fill="#4ebee4" r="3.3125"><title>2014-04-16: 8 km</title></circle><circle cx="111.91666666666667" cy="158.83870967741933" fill="#555555" r="3.3125"><title>2014-04-17</title></circle><circle cx="111.91666666666667" cy="167.6774193548387" fill="#555555" r="3.3125"><title>2014-04-18</title></circle><circle cx="111.91666666666667" cy="176.51612903225805" fill="#555555" r="3.3125"><title>2014-04-19</title></circle><circle cx="111.91666666666667" cy="185.35483870967738" fill="#555555" r="3.3125"><title>2014-04-20</title></circle><circle cx="111.91666666666667" cy="194.19354838709674" fill="#537079" r="3.3125"><title>2014-04-21: 2 km</title></circle><circle cx="111.91666666666667" cy="203.0322580645161" fill="#4fb1d3" r="3.3125"><title>2014-04-22: 7 km</title></circle><circle cx="111.91666666666667" cy="211.87096774193546" fill="#555555" r="3.3125"><title>2014-04-23</title></circle><circle cx="111.91666666666667" cy="220.70967741935482" fill="#555555" r="3.3125"><title>2014-04-24</title></circle><circle cx="111.91666666666667" cy="229.54838709677418" fill="#555555" r="3.3125"><title>2014-04-25</title></circle><circle cx="111.91666666666667" cy="238.3870967741935" fill="#555555" r="3.3125"><title>2014-04-26</title></circle><circle cx="111.91666666666667" cy="247.22580645161287" fill="#555555" r="3.3125"><title>2014-04-27</title></circle><circle cx="111.91666666666667" cy="256.06451612903226" fill="#FFFF00" r="3.3125"><title>2014-04-28: 47 km</title></circle><circle cx="111.91666666666667" cy="264.90322580645164" fill="#555555" r="3.3125"><title>2014-04-29</title></circle><circle cx="111.91666666666667" cy="273.741935483871" fill="#FFFF00" r="3.3125"><title>2014-04-30: 47 km</title></circle><circle cx="120.75000000000001" cy="17.419354838709676" fill="#555555" r="3.3125"><title>2014-05-01</title></circle><circle cx="120.75000000000001" cy="26.25806451612903" fill="#555555" r="3.3125"><title>2014-05-02</title></circle><circle cx="120.75000000000001" cy="35.096774193548384" fill="#555555" r="3.3125"><title>2014-05-03</title></circle><circle cx="120.75000000000001" cy="43.935483870967744" fill="#518799" r="3.3125"><title>2014-05-04: 4 km</title></circle><circle cx="120.75000000000001" cy="52.774193548387096" fill="#536e77" r="3.3125"><title>2014-05-05: 2 km</title></circle><circle cx="120.75000000000001" cy="61.61290322580645" fill="#FFFF00" r="3.3125"><title>2014-05-06: 44 km</title></circle><circle cx="120.75000000000001" cy="70.45161290322581" fill="#555555" r="3.3125"><title>2014-05-07</title></circle><circle cx="120.75000000000001" cy="79.29032258064517" fill="#555555" r="3.3125"><title>2014-05-08</title></circle><circle cx="120.75000000000001" cy="88.12903225806451" fill="#555555" r="3.3125"><title>2014-05-09</title></circle><circle cx="120.75000000000001" cy="96.96774193548387" fill="#555555" r="3.3125"><title>2014-05-10</title></circle><circle cx="120.75000000000001" cy="105.80645161290322" fill="#FFFF00" r="3.3125"><title>2014-05-11: 21 km</title></circle><circle cx="120.75000000000001" cy="114.64516129032258" fill="#555555" r="3.3125"><title>2014-05-12</title></circle><circle cx="120.75000000000001" cy="123.48387096774194" fill="#555555" r="3.3125"><title>2014-05-13</title></circle><circle cx="120.75000000000001" cy="132.32258064516128" fill="#50a0bb" r="3.3125"><title>2014-05-14: 6 km</title></circle><circle cx="120.75000000000001" cy="141.16129032258064" fill="#518b9f" r="3.3125"><title>2014-05-15: 4 km</title></circle><circle cx="120.75000000000001" cy="149.99999999999997" fill="#555555" r="3.3125"><title>2014-05-16</title></circle><circle cx="120.75000000000001" cy="158.83870967741933" fill="#555555" r="3.3125"><title>2014-05-17</title></circle><circle cx="120.75000000000001" cy="167.6774193548387" fill="#555555" r="3.3125"><title>2014-05-18</title></circle><circle cx="120.75000000000001" cy="176.51612903225805" fill="#53656b" r="3.3125"><title>2014-05-19: 1 km</title></circle><circle cx="120.75000000000001" cy="185.35483870967738" fill="#5099b2" r="3.3125"><title>2014-05-20: 5 km</title></circle><circle cx="120.75000000000001" cy="194.19354838709674" fill="#555555" r="3.3125"><title>2014-05-21</title></circle><circle cx="120.75000000000001" cy="203.0322580645161" fill="#4dcbf6" r="3.3125"><title>2014-05-22: 9 km</title></circle><circle cx="120.75000000000001" cy="211.87096774193546" fill="#555555" r="3.3125"><title>2014-05-23</title></circle><circle cx="120.75000000000001" cy="220.70967741935482" fill="#555555" r="3.3125"><title>2014-05-24</title></circle><circle cx="120.75000000000001" cy="229.54838709677418" fill="#555555" r="3.3125"><title>2014-05-25</title></circle><circle cx="120.75000000000001" cy="238.3870967741935" fill="#4dc8f2" r="3.3125"><title>2014-05-26: 9 km</title></circle><circle cx="120.75000000000001" cy="247.22580645161287" fill="#555555" r="3.3125"><title>2014-05-27</title></circle><circle cx="120.75000000000001" cy="256.06451612903226" fill="#555555" r="3.3125"><title>2014-05-28</title></circle><circle cx="120.75000000000001" cy="264.90322580645164" fill="#518494" r="3.3125"><title>2014-05-29: 3 km</title></circle><circle cx="120.75000000000001" cy="273.741935483871" fill="#555555" r="3.3125"><title>2014-05-30</title></circle><circle cx="120.75000000000001" cy="282.5806451612903" fill="#555555" r="3.3125"><title>2014-05-31</title></circle><circle cx="129.58333333333334" cy="17.419354838709676" fill="#518ea3" r="3.3125"><title>2014-06-01: 4 km</title></circle><circle cx="129.58333333333334" cy="26.25806451612903" fill="#FFFF00" r="3.3125"><title>2014-06-02: 21 km</title></circle><circle cx="129.58333333333334" cy="35.096774193548384" fill="#518799" r="3.3125"><title>2014-06-03: 4 km</title></circle><circle cx="129.58333333333334" cy="43.935483870967744" fill="#555555" r="3.3125"><title>2014-06-04</title></circle><circle cx="129.58333333333334" cy="52.774193548387096" fill="#4faccc" r="3.3125"><title>2014-06-05: 7 km</title></circle><circle cx="129.58333333333334" cy="61.61290322580645" fill="#555555" r="3.3125"><title>2014-06-06</title></circle><circle cx="129.58333333333334" cy="70.45161290322581" fill="#5093aa" r="3.3125"><title>2014-06-07: 5 km</title></circle><circle cx="129.58333333333334" cy="79.29032258064517" fill="#FFFF00" r="3.3125"><title>2014-06-08: 42 km</title></circle><circle cx="129.58333333333334" cy="88.12903225806451" fill="#555555" r="3.3125"><title>2014-06-09</title></circle><circle cx="129.58333333333334" cy="96.96774193548387" fill="#555555" r="3.3125"><title>2014-06-10</title></circle><circle cx="129.58333333333334" cy="105.80645161290322" fill="#555555" r="3.3125"><title>2014-06-11</title></circle><circle cx="129.58333333333334" cy="114.64516129032258" fill="#518ea3" r="3.3125"><title>2014-06-12: 4 km</title></circle><circle cx="129.58333333333334" cy="123.48387096774194" fill="#555555" r="3.3125"><title>2014-06-13</title></circle><circle cx="129.58333333333334" cy="132.32258064516128" fill="#FFFF00" r="3.3125"><title>2014-06-14: 10 km</title></circle><circle cx="129.58333333333334" cy="141.16129032258064" fill="#5191a7" r="3.3125"><title>2014-06-15: 4 km</title></circle><circle cx="129.58333333333334" cy="149.99999999999997" fill="#536e77" r="3.3125"><title>2014-06-16: 2 km</title></circle><circle cx="129.58333333333334" cy="158.83870967741933" fill="#FFFF00" r="3.3125"><title>2014-06-17: 16 km</title></circle><circle cx="129.58333333333334" cy="167.6774193548387" fill="#555555" r="3.3125"><title>2014-06-18</title></circle><circle cx="129.58333333333334" cy="176.51612903225805" fill="#555555" r="3.3125"><title>2014-06-19</title></circle><circle cx="129.58333333333334" cy="185.35483870967738" fill="#555555" r="3.3125"><title>2014-06-20</title></circle><circle cx="129.58333333333334" cy="194.19354838709674" fill="#FFFF00" r="3.3125"><title>2014-06-21: 10 km</title></circle><circle cx="129.58333333333334" cy="203.0322580645161" fill="#555555" r="3.3125"><title>2014-06-22</title></circle><circle cx="129.58333333333334" cy="211.87096774193546" fill="#5093aa" r="3.3125"><title>2014-06-23: 5 km</title></circle><circle cx="129.58333333333334" cy="220.70967741935482" fill="#518da1" r="3.3125"><title>2014-06-24: 4 km</title></circle><circle cx="129.58333333333334" cy="229.54838709677418" fill="#555555" r="3.3125"><title>2014-06-25</title></circle><circle cx="129.58333333333334" cy="238.3870967741935" fill="#555555" r="3.3125"><title>2014-06-26</title></circle><circle cx="129.58333333333334" cy="247.22580645161287" fill="#555555" r="3.3125"><title>2014-06-27</title></circle><circle cx="129.58333333333334" cy="256.06451612903226" fill="#555555" r="3.3125"><title>2014-06-28</title></circle><circle cx="129.58333333333334" cy="264.90322580645164" fill="#555555" r="3.3125"><title>2014-06-29</title></circle><circle cx="129.58333333333334" cy="273.741935483871" fill="#4fa4c0" r="3.3125"><title>2014-06-30: 6 km</title></circle><circle cx="138.41666666666666" cy="17.419354838709676" fill="#555555" r="3.3125"><title>2014-07-01</title></circle><circle cx="138.41666666666666" cy="26.25806451612903" fill="#555555" r="3.3125"><title>2014-07-02</title></circle><circle cx="138.41666666666666" cy="35.096774193548384" fill="#555555" r="3.3125"><title>2014-07-03</title></circle><circle cx="138.41666666666666" cy="43.935483870967744" fill="#555555" r="3.3125"><title>2014-07-04</title></circle><circle cx="138.41666666666666" cy="52.774193548387096" fill="#555555" r="3.3125"><title>2014-07-05</title></circle><circle cx="138.41666666666666" cy="61.61290322580645" fill="#FFFF00" r="3.3125"><title>2014-07-06: 15 km</title></circle><circle cx="138.41666666666666" cy="70.45161290322581" fill="#555555" r="3.3125"><title>2014-07-07</title></circle><circle cx="138.41666666666666" cy="79.29032258064517" fill="#4fabca" r="3.3125"><title>2014-07-08: 6 km</title></circle><circle cx="138.41666666666666" cy="88.12903225806451" fill="#555555" r="3.3125"><title>2014-07-09</title></circle><circle cx="138.41666666666666" cy="96.96774193548387" fill="#555555" r="3.3125"><title>2014-07-10</title></circle><circle cx="138.41666666666666" cy="105.80645161290322" fill="#FFFF00" r="3.3125"><title>2014-07-11: 10 km</title></circle><circle cx="138.41666666666666" cy="114.64516129032258" fill="#555555" r="3.3125"><title>2014-07-12</title></circle><circle cx="138.41666666666666" cy="123.48387096774194" fill="#555555" r="3.3125"><title>2014-07-13</title></circle><circle cx="138.41666666666666" cy="132.32258064516128" fill="#555555" r="3.3125"><title>2014-07-14</title></circle><circle cx="138.41666666666666" cy="141.16129032258064" fill="#555555" r="3.3125"><title>2014-07-15</title></circle><circle cx="138.41666666666666" cy="149.99999999999997" fill="#555555" r="3.3125"><title>2014-07-16</title></circle><circle cx="138.41666666666666" cy="158.83870967741933" fill="#518799" r="3.3125"><title>2014-07-17: 4 km</title></circle><circle cx="138.41666666666666" cy="167.6774193548387" fill="#5094ab" r="3.3125"><title>2014-07-18: 5 km</title></circle><circle cx="138.41666666666666" cy="176.51612903225805" fill="#555555" r="3.3125"><title>2014-07-19</title></circle><circle cx="138.41666666666666" cy="185.35483870967738" fill="#555555" r="3.3125"><title>2014-07-20</title></circle><circle cx="138.41666666666666" cy="194.19354838709674" fill="#527885" r="3.3125"><title>2014-07-21: 2 km</title></circle><circle cx="138.41666666666666" cy="203.0322580645161" fill="#FFFF00" r="3.3125"><title>2014-07-22: 10 km</title></circle><circle cx="138.41666666666666" cy="211.87096774193546" fill="#5098b0" r="3.3125"><title>2014-07-23: 5 km</title></circle><circle cx="138.41666666666666" cy="220.70967741935482" fill="#FFFF00" r="3.3125"><title>2014-07-24: 10 km</title></circle><circle cx="138.41666666666666" cy="229.54838709677418" fill="#555555" r="3.3125"><title>2014-07-25</title></circle><circle cx="138.41666666666666" cy="238.3870967741935" fill="#FFFF00" r="3.3125"><title>2014-07-26: 21 km</title></circle><circle cx="138.41666666666666" cy="247.22580645161287" fill="#FFFF00" r="3.3125"><title>2014-07-27: 21 km</title></circle><circle cx="138.41666666666666" cy="256.06451612903226" fill="#555555" r="3.3125"><title>2014-07-28</title></circle><circle cx="138.41666666666666" cy="264.90322580645164" fill="#527581" r="3.3125"><title>2014-07-29: 2 km</title></circle><circle cx="138.41666666666666" cy="273.741935483871" fill="#FFFF00" r="3.3125"><title>2014-07-30: 15 km</title></circle><circle cx="138.41666666666666" cy="282.5806451612903" fill="#555555" r="3.3125"><title>2014-07-31</title></circle><circle cx="147.25" cy="17.419354838709676" fill="#555555" r="3.3125"><title>2014-08-01</title></circle><circle cx="147.25" cy="26.25806451612903" fill="#FFFF00" r="3.3125"><title>2014-08-02: 12 km</title></circle><circle cx="147.25" cy="35.096774193548384" fill="#555555" r="3.3125"><title>2014-08-03</title></circle><circle cx="147.25" cy="43.935483870967744" fill="#555555" r="3.3125"><title>2014-08-04</title></circle><circle cx="147.25" cy="52.774193548387096" fill="#555555" r="3.3125"><title>2014-08-05</title></circle><circle cx="147.25" cy="61.61290322580645" fill="#5097af" r="3.3125"><title>2014-08-06: 5 km</title></circle><circle cx="147.25" cy="70.45161290322581" fill="#555555" r="3.3125"><title>2014-08-07</title></circle><circle cx="147.25" cy="79.29032258064517" fill="#518fa4" r="3.3125"><title>2014-08-08: 4 km</title></circle><circle cx="147.25" cy="88.12903225806451" fill="#FFFF00" r="3.3125"><title>2014-08-09: 17 km</title></circle><circle cx="147.25" cy="96.96774193548387" fill="#555555" r="3.3125"><title>2014-08-10</title></circle><circle cx="147.25" cy="105.80645161290322" fill="#555555" r="3.3125"><title>2014-08-11</title></circle><circle cx="147.25" cy="114.64516129032258" fill="#5098b1" r="3.3125"><title>2014-08-12: 5 km</title></circle><circle cx="147.25" cy="123.48387096774194" fill="#555555" r="3.3125"><title>2014-08-13</title></circle><circle cx="147.25" cy="132.32258064516128" fill="#555555" r="3.3125"><title>2014-08-14</title></circle><circle cx="147.25" cy="141.16129032258064" fill="#555555" r="3.3125"><title>2014-08-15</title></circle><circle cx="147.25" cy="149.99999999999997" fill="#555555" r="3.3125"><title>2014-08-16</title></circle><circle cx="147.25" cy="158.83870967741933" fill="#555555" r="3.3125"><title>2014-08-17</title></circle><circle cx="147.25" cy="167.6774193548387" fill="#4faece" r="3.3125"><title>2014-08-18: 7 km</title></circle><circle cx="147.25" cy="176.51612903225805" fill="#53676d" r="3.3125"><title>2014-08-19: 1 km</title></circle><circle cx="147.25" cy="185.35483870967738" fill="#555555" r="3.3125"><title>2014-08-20</title></circle><circle cx="147.25" cy="194.19354838709674" fill="#555555" r="3.3125"><title>2014-08-21</title></circle><circle cx="147.25" cy="203.0322580645161" fill="#555555" r="3.3125"><title>2014-08-22</title></circle><circle cx="147.25" cy="211.87096774193546" fill="#555555" r="3.3125"><title>2014-08-23</title></circle><circle cx="147.25" cy="220.70967741935482" fill="#555555" r="3.3125"><title>2014-08-24</title></circle><circle cx="147.25" cy="229.54838709677418" fill="#555555" r="3.3125"><title>2014-08-25</title></circle><circle cx="147.25" cy="238.3870967741935" fill="#555555" r="3.3125"><title>2014-08-26</title></circle><circle cx="147.25" cy="247.22580645161287" fill="#50a1bd" r="3.3125"><title>2014-08-27: 6 km</title></circle><circle cx="147.25" cy="256.06451612903226" fill="#FFFF00" r="3.3125"><title>2014-08-28: 10 km</title></circle><circle cx="147.25" cy="264.90322580645164" fill="#555555" r="3.3125"><title>2014-08-29</title></circle><circle cx="147.25" cy="273.741935483871" fill="#555555" r="3.3125"><title>2014-08-30</title></circle><circle cx="147.25" cy="282.5806451612903" fill="#528292" r="3.3125"><title>2014-08-31: 3 km</title></circle><circle cx="156.08333333333334" cy="17.419354838709676" fill="#555555" r="3.3125"><title>2014-09-01</title></circle><circle cx="156.08333333333334" cy="26.25806451612903" fill="#555555" r="3.3125"><title>2014-09-02</title></circle><circle cx="156.08333333333334" cy="35.096774193548384" fill="#555555" r="3.3125"><title>2014-09-03</title></circle><circle cx="156.08333333333334" cy="43.935483870967744" fill="#518596" r="3.3125"><title>2014-09-04: 3 km</title></circle><circle cx="156.08333333333334" cy="52.774193548387096" fill="#555555" r="3.3125"><title>2014-09-05</title></circle><circle cx="156.08333333333334" cy="61.61290322580645" fill="#4fa8c5" r="3.3125"><title>2014-09-06: 6 km</title></circle><circle cx="156.08333333333334" cy="70.45161290322581" fill="#FFFF00" r="3.3125"><title>2014-09-07: 16 km</title></circle><circle cx="156.08333333333334" cy="79.29032258064517" fill="#FFFF00" r="3.3125"><title>2014-09-08: 11 km</title></circle><circle cx="156.08333333333334" cy="88.12903225806451" fill="#555555" r="3.3125"><title>2014-09-09</title></circle><circle cx="156.08333333333334" cy="96.96774193548387" fill="#555555" r="3.3125"><title>2014-09-10</title></circle><circle cx="156.08333333333334" cy="105.80645161290322" fill="#509fba" r="3.3125"><title>2014-09-11: 5 km</title></circle><circle cx="156.08333333333334" cy="114.64516129032258" fill="#5095ac" r="3.3125"><title>2014-09-12: 5 km</title></circle><circle cx="156.08333333333334" cy="123.48387096774194" fill="#FFFF00" r="3.3125"><title>2014-09-13: 21 km</title></circle><circle cx="156.08333333333334" cy="132.32258064516128" fill="#FFFF00" r="3.3125"><title>2014-09-14: 22 km</title></circle><circle cx="156.08333333333334" cy="141.16129032258064" fill="#555555" r="3.3125"><title>2014-09-15</title></circle><circle cx="156.08333333333334" cy="149.99999999999997" fill="#5093aa" r="3.3125"><title>2014-09-16: 5 km</title></circle><circle cx="156.08333333333334" cy="158.83870967741933" fill="#4dcbf6" r="3.3125"><title>2014-09-17: 9 km</title></circle><circle cx="156.08333333333334" cy="167.6774193548387" fill="#4dc5ed" r="3.3125"><title>2014-09-18: 8 km</title></circle><circle cx="156.08333333333334" cy="176.51612903225805" fill="#555555" r="3.3125"><title>2014-09-19</title></circle><circle cx="156.08333333333334" cy="185.35483870967738" fill="#FFFF00" r="3.3125"><title>2014-09-20: 21 km</title></circle><circle cx="156.08333333333334" cy="194.19354838709674" fill="#555555" r="3.3125"><title>2014-09-21</title></circle><circle cx="156.08333333333334" cy="203.0322580645161" fill="#555555" r="3.3125"><title>2014-09-22</title></circle><circle cx="156.08333333333334" cy="211.87096774193546" fill="#555555" r="3.3125"><title>2014-09-23</title></circle><circle cx="156.08333333333334" cy="220.70967741935482" fill="#555555" r="3.3125"><title>2014-09-24</title></circle><circle cx="156.08333333333334" cy="229.54838709677418" fill="#527a88" r="3.3125"><title>2014-09-25: 3 km</title></circle><circle cx="156.08333333333334" cy="238.3870967741935" fill="#FFFF00" r="3.3125"><title>2014-09-26: 10 km</title></circle><circle cx="156.08333333333334" cy="247.22580645161287" fill="#FFFF00" r="3.3125"><title>2014-09-27: 42 km</title></circle><circle cx="156.08333333333334" cy="256.06451612903226" fill="#555555" r="3.3125"><title>2014-09-28</title></circle><circle cx="156.08333333333334" cy="264.90322580645164" fill="#518ea3" r="3.3125"><title>2014-09-29: 4 km</title></circle><circle cx="156.08333333333334" cy="273.741935483871" fill="#555555" r="3.3125"><title>2014-09-30</title></circle><circle cx="164.91666666666666" cy="17.419354838709676" fill="#555555" r="3.3125"><title>2014-10-01</title></circle><circle cx="164.91666666666666" cy="26.25806451612903" fill="#555555" r="3.3125"><title>2014-10-02</title></circle><circle cx="164.91666666666666" cy="35.096774193548384" fill="#555555" r="3.3125"><title>2014-10-03</title></circle><circle cx="164.91666666666666" cy="43.935483870967744" fill="#518ca1" r="3.3125"><title>2014-10-04: 4 km</title></circle><circle cx="164.91666666666666" cy="52.774193548387096" fill="#FFFF00" r="3.3125"><title>2014-10-05: 19 km</title></circle><circle cx="164.91666666666666" cy="61.61290322580645" fill="#518a9d" r="3.3125"><title>2014-10-06: 4 km</title></circle><circle cx="164.91666666666666" cy="70.45161290322581" fill="#FFFF00" r="3.3125"><title>2014-10-07: 30 km</title></circle><circle cx="164.91666666666666" cy="79.29032258064517" fill="#555555" r="3.3125"><title>2014-10-08</title></circle><circle cx="164.91666666666666" cy="88.12903225806451" fill="#555555" r="3.3125"><title>2014-10-09</title></circle><circle cx="164.91666666666666" cy="96.96774193548387" fill="#509ab3" r="3.3125"><title>2014-10-10: 5 km</title></circle><circle cx="164.91666666666666" cy="105.80645161290322" fill="#5094ab" r="3.3125"><title>2014-10-11: 5 km</title></circle><circle cx="164.91666666666666" cy="114.64516129032258" fill="#FFFF00" r="3.3125"><title>2014-10-12: 21 km</title></circle><circle cx="164.91666666666666" cy="123.48387096774194" fill="#4fa9c8" r="3.3125"><title>2014-10-13: 6 km</title></circle><circle cx="164.91666666666666" cy="132.32258064516128" fill="#555555" r="3.3125"><title>2014-10-14</title></circle><circle cx="164.91666666666666" cy="141.16129032258064" fill="#51889b" r="3.3125"><title>2014-10-15: 4 km</title></circle><circle cx="164.91666666666666" cy="149.99999999999997" fill="#4ec1e8" r="3.3125"><title>2014-10-16: 8 km</title></circle><circle cx="164.91666666666666" cy="158.83870967741933" fill="#555555" r="3.3125"><title>2014-10-17</title></circle><circle cx="164.91666666666666" cy="167.6774193548387" fill="#509ab3" r="3.3125"><title>2014-10-18: 5 km</title></circle><circle cx="164.91666666666666" cy="176.51612903225805" fill="#FFFF00" r="3.3125"><title>2014-10-19: 42 km</title></circle><circle cx="164.91666666666666" cy="185.35483870967738" fill="#555555" r="3.3125"><title>2014-10-20</title></circle><circle cx="164.91666666666666" cy="194.19354838709674" fill="#555555" r="3.3125"><title>2014-10-21</title></circle><circle cx="164.91666666666666" cy="203.0322580645161" fill="#555555" r="3.3125"><title>2014-10-22</title></circle><circle cx="164.91666666666666" cy="211.87096774193546" fill="#555555" r="3.3125"><title>2014-10-23</title></circle><circle cx="164.91666666666666" cy="220.70967741935482" fill="#555555" r="3.3125"><title>2014-10-24</title></circle><circle cx="164.91666666666666" cy="229.54838709677418" fill="#555555" r="3.3125"><title>2014-10-25</title></circle><circle cx="164.91666666666666" cy="238.3870967741935" fill="#555555" r="3.3125"><title>2014-10-26</title></circle><circle cx="164.91666666666666" cy="247.22580645161287" fill="#555555" r="3.3125"><title>2014-10-27</title></circle><circle cx="164.91666666666666" cy="256.06451612903226" fill="#555555" r="3.3125"><title>2014-10-28</title></circle><circle cx="164.91666666666666" cy="264.90322580645164" fill="#555555" r="3.3125"><title>2014-10-29</title></circle><circle cx="164.91666666666666" cy="273.741935483871" fill="#555555" r="3.3125"><title>2014-10-30</title></circle><circle cx="164.91666666666666" cy="282.5806451612903" fill="#5096ae" r="3.3125"><title>2014-10-31: 5 km</title></circle><circle cx="173.75" cy="17.419354838709676" fill="#555555" r="3.3125"><title>2014-11-01</title></circle><circle cx="173.75" cy="26.25806451612903" fill="#5094ab" r="3.3125"><title>2014-11-02: 5 km</title></circle><circle cx="173.75" cy="35.096774193548384" fill="#555555" r="3.3125"><title>2014-11-03</title></circle><circle cx="173.75" cy="43.935483870967744" fill="#528292" r="3.3125"><title>2014-11-04: 3 km</title></circle><circle cx="173.75" cy="52.774193548387096" fill="#555555" r="3.3125"><title>2014-11-05</title></circle><circle cx="173.75" cy="61.61290322580645" fill="#5093aa" r="3.3125"><title>2014-11-06: 5 km</title></circle><circle cx="173.75" cy="70.45161290322581" fill="#555555" r="3.3125"><title>2014-11-07</title></circle><circle cx="173.75" cy="79.29032258064517" fill="#555555" r="3.3125"><title>2014-11-08</title></circle><circle cx="173.75" cy="88.12903225806451" fill="#555555" r="3.3125"><title>2014-11-09</title></circle><circle cx="173.75" cy="96.96774193548387" fill="#555555" r="3.3125"><title>2014-11-10</title></circle><circle cx="173.75" cy="105.80645161290322" fill="#555555" r="3.3125"><title>2014-11-11</title></circle><circle cx="173.75" cy="114.64516129032258" fill="#555555" r="3.3125"><title>2014-11-12</title></circle><circle cx="173.75" cy="123.48387096774194" fill="#52808f" r="3.3125"><title>2014-11-13: 3 km</title></circle><circle cx="173.75" cy="132.32258064516128" fill="#555555" r="3.3125"><title>2014-11-14</title></circle><circle cx="173.75" cy="141.16129032258064" fill="#555555" r="3.3125"><title>2014-11-15</title></circle><circle cx="173.75" cy="149.99999999999997" fill="#555555" r="3.3125"><title>2014-11-16</title></circle><circle cx="173.75" cy="158.83870967741933" fill="#5094aa" r="3.3125"><title>2014-11-17: 5 km</title></circle><circle cx="173.75" cy="167.6774193548387" fill="#555555" r="3.3125"><title>2014-11-18</title></circle><circle cx="173.75" cy="176.51612903225805" fill="#555555" r="3.3125"><title>2014-11-19</title></circle><circle cx="173.75" cy="185.35483870967738" fill="#555555" r="3.3125"><title>2014-11-20</title></circle><circle cx="173.75" cy="194.19354838709674" fill="#555555" r="3.3125"><title>2014-11-21</title></circle><circle cx="173.75" cy="203.0322580645161" fill="#555555" r="3.3125"><title>2014-11-22</title></circle><circle cx="173.75" cy="211.87096774193546" fill="#555555" r="3.3125"><title>2014-11-23</title></circle><circle cx="173.75" cy="220.70967741935482" fill="#555555" r="3.3125"><title>2014-11-24</title></circle><circle cx="173.75" cy="229.54838709677418" fill="#555555" r="3.3125"><title>2014-11-25</title></circle><circle cx="173.75" cy="238.3870967741935" fill="#555555" r="3.3125"><title>2014-11-26</title></circle><circle cx="173.75" cy="247.22580645161287" fill="#555555" r="3.3125"><title>2014-11-27</title></circle><circle cx="173.75" cy="256.06451612903226" fill="#555555" r="3.3125"><title>2014-11-28</title></circle><circle cx="173.75" cy="264.90322580645164" fill="#555555" r="3.3125"><title>2014-11-29</title></circle><circle cx="173.75" cy="273.741935483871" fill="#555555" r="3.3125"><title>2014-11-30</title></circle><circle cx="182.58333333333334" cy="17.419354838709676" fill="#555555" r="3.3125"><title>2014-12-01</title></circle><circle cx="182.58333333333334" cy="26.25806451612903" fill="#555555" r="3.3125"><title>2014-12-02</title></circle><circle cx="182.58333333333334" cy="35.096774193548384" fill="#555555" r="3.3125"><title>2014-12-03</title></circle><circle cx="182.58333333333334" cy="43.935483870967744" fill="#555555" r="3.3125"><title>2014-12-04</title></circle><circle cx="182.58333333333334" cy="52.774193548387096" fill="#555555" r="3.3125"><title>2014-12-05</title></circle><circle cx="182.58333333333334" cy="61.61290322580645" fill="#555555" r="3.3125"><title>2014-12-06</title></circle><circle cx="182.58333333333334" cy="70.45161290322581" fill="#FFFF00" r="3.3125"><title>2014-12-07: 15 km</title></circle><circle cx="182.58333333333334" cy="79.29032258064517" fill="#555555" r="3.3125"><title>2014-12-08</title></circle><circle cx="182.58333333333334" cy="88.12903225806451" fill="#555555" r="3.3125"><title>2014-12-09</title></circle><circle cx="182.58333333333334" cy="96.96774193548387" fill="#5094ab" r="3.3125"><title>2014-12-10: 5 km</title></circle><circle cx="182.58333333333334" cy="105.80645161290322" fill="#518fa5" r="3.3125"><title>2014-12-11: 4 km</title></circle><circle cx="182.58333333333334" cy="114.64516129032258" fill="#FFFF00" r="3.3125"><title>2014-12-12: 10 km</title></circle><circle cx="182.58333333333334" cy="123.48387096774194" fill="#FFFF00" r="3.3125"><title>2014-12-13: 10 km</title></circle><circle cx="182.58333333333334" cy="132.32258064516128" fill="#555555" r="3.3125"><title>2014-12-14</title></circle><circle cx="182.58333333333334" cy="141.16129032258064" fill="#555555" r="3.3125"><title>2014-12-15</title></circle><circle cx="182.58333333333334" cy="149.99999999999997" fill="#53727c" r="3.3125"><title>2014-12-16: 2 km</title></circle><circle cx="182.58333333333334" cy="158.83870967741933" fill="#555555" r="3.3125"><title>2014-12-17</title></circle><circle cx="182.58333333333334" cy="167.6774193548387" fill="#555555" r="3.3125"><title>2014-12-18</title></circle><circle cx="182.58333333333334" cy="176.51612903225805" fill="#FFFF00" r="3.3125"><title>2014-12-19: 13 km</title></circle><circle cx="182.58333333333334" cy="185.35483870967738" fill="#555555" r="3.3125"><title>2014-12-20</title></circle><circle cx="182.58333333333334" cy="194.19354838709674" fill="#555555" r="3.3125"><title>2014-12-21</title></circle><circle cx="182.58333333333334" cy="203.0322580645161" fill="#4ec0e7" r="3.3125"><title>2014-12-22: 8 km</title></circle><circle cx="182.58333333333334" cy="211.87096774193546" fill="#509bb4" r="3.3125"><title>2014-12-23: 5 km</title></circle><circle cx="182.58333333333334" cy="220.70967741935482" fill="#4fadcd" r="3.3125"><title>2014-12-24: 7 km</title></circle><circle cx="182.58333333333334" cy="229.54838709677418" fill="#FFFF00" r="3.3125"><title>2014-12-25: 20 km</title></circle><circle cx="182.58333333333334" cy="238.3870967741935" fill="#555555" r="3.3125"><title>2014-12-26</title></circle><circle cx="182.58333333333334" cy="247.22580645161287" fill="#5190a5" r="3.3125"><title>2014-12-27: 4 km</title></circle><circle cx="182.58333333333334" cy="256.06451612903226" fill="#FFFF00" r="3.3125"><title>2014-12-28: 14 km</title></circle><circle cx="182.58333333333334" cy="264.90322580645164" fill="#555555" r="3.3125"><title>2014-12-29</title></circle><circle cx="182.58333333333334" cy="273.741935483871" fill="#555555" r="3.3125"><title>2014-12-30</title></circle><circle cx="182.58333333333334" cy="282.5806451612903" fill="#5099b2" r="3.3125"><title>2014-12-31: 5 km</title></circle></svg>