<?xml version="1.0" encoding="utf-8" ?>
<svg baseProfile="full" height="200mm" version="1.1" viewBox="0,0,200,200" width="200mm" xmlns="http://www.w3.org/2000/svg" xmlns:ev="http://www.w3.org/2001/xml-events" xmlns:xlink="http://www.w3.org/1999/xlink"><defs /><rect fill="#1a1a1a" height="200" width="200" x="0" y="0" /><rect fill="#1a1a1a" height="200" width="180" x="10" y="0" /><text alignment-baseline="middle" fill="#e1ed5e" style="dominant-baseline: central; font-size:9.0px; font-family:Arial;" text-anchor="middle" x="100.0" y="100.0">2018</text><line stroke="#e1ed5e" stroke-width="0.3" x1="100.0" x2="100.0" y1="15.0" y2="10.0" /><path d="M 100.0 14.0 a86.0,86.0 0 0,1 42.46469731375804,11.215312516191453" fill="none" id="id61" stroke="none" /><text fill="#e1ed5e" style="font-size:6.75px; font-family:Arial;" text-anchor="middle"><textPath startOffset="22.20632615414155" xlink:href="#id61">January</textPath></text><path d="M 101.08401301168833 79.027996857942 l 0.17263613525180543 -3.3399281483667016 a24.344386830414045,24.344386830414045 0 0,0 0.41830374600678755,0.025233224297109308 l -0.23010193009820487 3.3364616546892885" fill="#ff2603" stroke="none" /><path d="M 101.44485096284872 79.0497635885617 l 0.15691246208139417 -2.2752195631476058 a23.28062394560919,23.28062394560919 0 0,0 0.3995507270363597,0.031012826236541505 l -0.19605337848009505 2.2721814747225997" fill="#ff1702" stroke="none" /><path d="M 101.80526077348638 79.07773832637324 l 1.1397007601469527 -13.208683135221204 a34.257761047377365,34.257761047377365 0 0,0 0.587071781099891,0.05574953952015522 l -1.366897668337088 13.18710805118587" fill="#ffad10" stroke="none" /><path d="M 103.59715602781102 79.31037775812273 l 0.2378536215848828 -1.3680534125866872 a22.388576423892875,22.388576423892875 0 0,0 0.3791184289474702,0.06928146962613725 l -0.26136717163525386 1.3637564616098115" fill="#ff0a01" stroke="none" /><path d="M 103.95276090670814 79.375362276772 l 0.5015992307554423 -2.6172345509246724 a23.664867441890557,23.664867441890557 0 0,0 0.39941066366256167,0.08011802167027113 l -0.5465763038851293 2.608212573177193" fill="#ff1d02" stroke="none" /><path d="M 104.307194497241 79.44645832069477 l 0.32028669599803145 -1.5283790782467086 a22.561578103860192,22.561578103860192 0 0,0 0.3794183553312704,0.08292615672732238 l -0.3465477754828298 1.5226394234235157" fill="#ff0d01" stroke="none" /><path d="M 104.66035177308747 79.52364482259891 l 0.9696618210889542 -4.260438013551277 a25.369390817332583,25.369390817332583 0 0,0 0.42496908408228895,0.10057645200184986 l -1.0428545921337666 4.2431156494085585" fill="#ff3505" stroke="none" /><path d="M 105.36241919743992 79.69619591428918 l 0.5904899614039497 -2.235780540366651 a23.31244308453225,23.31244308453225 0 0,0 0.38709991004421435,0.10580902819890087 l -0.6288877606718749 2.225284971341457" fill="#ff1702" stroke="none" /><path d="M 105.71112130821622 79.79150937346287 l 1.069765797645921 -3.7853078104323736 a24.93356760225795,24.93356760225795 0 0,0 0.4120091364303686,0.12027676495843835 l -1.1347651517997166 3.766332716555232" fill="#ff2f04" stroke="none" /><path d="M 108.09893153111575 80.62456947434976 l 1.4072389807800403 -3.3665997792840017 a24.64887868021149,24.64887868021149 0 0,0 0.3900582256042998,0.16700257589563772 l -1.4649809641746552 3.3418776754255735" fill="#ff2b04" stroke="none" /><path d="M 108.43124777332544 80.76684994638697 l 2.1469293213995924 -4.897521090961081 a26.347431004463164,26.347431004463164 0 0,0 0.41380256560641493,0.18566114913233123 l -2.2309140054727874 4.859839611312218" fill="#ff4206" stroke="none" /><path d="M 110.05341064243156 81.56283822128135 l 1.3068742344517974 -2.396704217306213 a23.72985555843663,23.72985555843663 0 0,0 0.3569376067004858,0.1986353916806732 l -1.3479359302243183 2.37385342806536" fill="#ff1d03" stroke="none" /><line stroke="#e1ed5e" stroke-width="0.3" x1="143.23703022742887" x2="145.7803849466894" y1="26.81831364943548" y2="22.513508569990506" /><path d="M 143.74570117128098 25.957352633546492 a86.0,86.0 0 0,1 28.547481713284135,27.462654790039103" fill="none" id="id62" stroke="none" /><text fill="#e1ed5e" style="font-size:6.75px; font-family:Arial;" text-anchor="middle"><textPath startOffset="19.985693538727396" xlink:href="#id62">February</textPath></text><path d="M 110.68208982089419 81.91981866633111 l 2.236589275112506 -3.7855831902739148 a25.396927526811503,25.396927526811503 0 0,0 0.3744691506582057,0.2256134733076442 l -2.3014204919883494 3.746523107507656" fill="#ff3505" stroke="none" /><path d="M 111.2981086023043 82.29822771554956 l 5.3007923183628 -8.30523248180538 a30.852679116831585,30.852679116831585 0 0,0 0.445208529299843,0.28957601173754133 l -5.442967873446922 8.21275754590831" fill="#ff800b" stroke="none" /><path d="M 113.34407831869373 83.78471172551755 l 6.532991415918152 -7.938677859483832 a31.28117614853082,31.28117614853082 0 0,0 0.41282581926759726,0.3457297514016222 l -6.668674772144867 7.82504695068839" fill="#ff860c" stroke="none" /><path d="M 113.89432698308785 84.25364557470407 l 0.7530058932530636 -0.853376899358403 a22.1380992960337,22.1380992960337 0 0,0 0.2835669269591435,0.25458918685504084 l -0.767583807808197 0.8402887037340647" fill="#ff0701" stroke="none" /><path d="M 114.94478906791727 85.2469230424477 l 5.862688997484134 -5.787482283290087 a29.238086759716612,29.238086759716612 0 0,0 0.35048910944617334,0.3612098361467919 l -5.961442370633416 5.685708251593181" fill="#ff6a09" stroke="none" /><path d="M 115.68641384162765 86.03803664274999 l 2.9796407558265576 -2.652080677625579 a24.988958630321655,24.988958630321655 0 0,0 0.28321787974919543,0.32376699571421974 l -3.0248504991536014 2.6003981257084114" fill="#ff2f04" stroke="none" /><path d="M 115.9244219780498 86.31012108654704 l 5.170276172670136 -4.444773873144584 a27.818194077984966,27.818194077984966 0 0,0 0.3090328300166391,0.36579739676743506 l -5.246019616173893 4.355117526748042" fill="#ff5708" stroke="none" /><path d="M 116.82858285166822 87.43820079747576 l 6.482079178222581 -4.838587881666082 a29.088836947383264,29.088836947383264 0 0,0 0.2960653340071809,0.4038327828608802 l -6.564407124743388 4.726292655133708" fill="#ff6809" stroke="none" /><path d="M 117.65298651832404 88.62581576622439 l 3.727113272061831 -2.4014561486566097 a25.433775476577505,25.433775476577505 0 0,0 0.23395731168338765,0.37006428211319015 l -3.767898179991174 2.3369442188292133" fill="#ff3605" stroke="none" /><line stroke="#e1ed5e" stroke-width="0.3" x1="172.23445277983987" x2="176.4835382374775" y1="55.19839476539836" y2="52.563006222186495" /><path d="M 173.08426987136738 54.67131705675599 a86.0,86.0 0 0,1 12.851231095245387,41.99856678651699" fill="none" id="id63" stroke="none" /><text fill="#e1ed5e" style="font-size:6.75px; font-family:Arial;" text-anchor="middle"><textPath startOffset="22.20632615414155" xlink:href="#id63">March</textPath></text><path d="M 118.73160827565052 90.50648371742162 l 1.9220866642033294 -0.974148123034427 a23.15485073968472,23.15485073968472 0 0,0 0.1771235677566058,0.35707030437070925 l -1.9385702449133433 0.9409182301647678" fill="#ff1502" stroke="none" /><path d="M 118.89224826269711 90.83032412892265 l 1.7442731947495806 -0.8466128331609596 a22.93887654769321,22.93887654769321 0 0,0 0.16935642148549215,0.3567078149206931 l -1.7585878100768289 0.8164626025997261" fill="#ff1202" stroke="none" /><path d="M 119.04729006885535 91.15688171328212 l 3.986681634120701 -1.8509035739241897 a25.39539241613313,25.39539241613313 0 0,0 0.18066727556080378,0.3980763933433437 l -4.017951226644852 1.782005171738783" fill="#ff3505" stroke="none" /><path d="M 119.47837535516314 92.15188598940014 l 10.90091430400721 -4.392133158834017 a32.752479157532605,32.752479157532605 0 0,0 0.2061947143805229,0.5247430573658061 l -10.974902568269433 4.203841096572427" fill="#ff990e" stroke="none" /><path d="M 120.18372546131832 94.20196356495316 l 15.02889386079748 -4.3172443239160145 a36.63669559822347,36.63669559822347 0 0,0 0.16890080079243447,0.6076260455686607 l -15.100981432156276 4.057906974928402" fill="#ffcb12" stroke="none" /><path d="M 120.6074358757038 95.95851677861258 l 2.850634041073047 -0.5590598324217326 a23.904937578047395,23.904937578047395 0 0,0 0.07571521990399162,0.4044737323032966 l -2.859834984886898 0.5099080226558732" fill="#ff2003" stroke="none" /><path d="M 120.67395015179393 96.31383870115 l 2.213019164489884 -0.39458088743858666 a23.247920794674787,23.247920794674787 0 0,0 0.06685231715789085,0.3945661601585645 l -2.2194833431679974 0.3564289389641843" fill="#ff1702" stroke="none" /><path d="M 120.73433829027371 96.67025291283417 l 11.406079281475098 -1.831713109517944 a32.552221322796555,32.552221322796555 0 0,0 0.08408410296291766,0.5540091806846132 l -11.435919277877316 1.6351048164412485" fill="#ff960d" stroke="none" /><path d="M 120.78858239683441 97.02765380044208 l 1.0272716976160237 -0.14687904485432113 a22.03771893812353,22.03771893812353 0 0,0 0.05046008086589871,0.3759862132506592 l -1.0296477775397586 0.12917448953899763" fill="#ff0500" stroke="none" /><path d="M 120.83666639777658 97.38593545837742 l 3.7056489721036994 -0.46489229115412056 a24.73469666061753,24.73469666061753 0 0,0 0.04936297169570423,0.4229117960300038 l -3.7131022968029925 0.40103675679926404" fill="#ff2c04" stroke="none" /><line stroke="#e1ed5e" stroke-width="0.3" x1="184.98032266829074" x2="189.97916517819016" y1="98.17113171792111" y2="98.06355123074" /><path d="M 185.9800911702706 98.14961562048488 a86.0,86.0 0 0,1 -9.607161424134198,41.387399972396054" fill="none" id="id64" stroke="none" /><text fill="#e1ed5e" style="font-size:6.75px; font-family:Arial;" text-anchor="middle"><textPath startOffset="21.466115282336823" xlink:href="#id64">April</textPath></text><path d="M 120.89721153311464 102.0752229133903 l 2.9918088467483615 0.29710520283615227 a24.006524850559874,24.006524850559874 0 0,0 -0.04437514493602565,0.410858730002637 l -2.986251400311284 -0.3485602547235807" fill="#ff2103" stroke="none" /><path d="M 120.8583938346157 102.4346265915055 l 1.6036313084146492 0.18717852665902593 a22.614518248323606,22.614518248323606 0 0,0 -0.04845805668019877,0.3862583900484476 l -1.6001717424876023 -0.21475467099486842" fill="#ff0d01" stroke="none" /><path d="M 120.81339534386255 102.79330883721812 l 0.7869671292000362 0.10561670502467285 a21.794022764674676,21.794022764674676 0 0,0 -0.05310056461525588,0.3713852252428986 l -0.785032513568179 -0.11914740224798079" fill="#ff0200" stroke="none" /><path d="M 120.76222939487914 103.15116336523771 l 3.5552866487481087 0.5395995211967448 a24.596002057569255,24.596002057569255 0 0,0 -0.06713331846028618,0.4180392381359588 l -3.545471575926534 -0.6007179890259086" fill="#ff2a04" stroke="none" /><path d="M 120.32669344350535 105.2749913415812 l 2.2624800760131554 0.5871374429215215 a23.337423040708916,23.337423040708916 0 0,0 -0.1042537404130778,0.3879669514204452 l -2.2520382592583004 -0.6259953275175149" fill="#ff1802" stroke="none" /><path d="M 120.23288151984713 105.62410040840565 l 2.3636747200748145 0.657026728766775 a23.453292136015342,23.453292136015342 0 0,0 -0.1114672021159844,0.38803195368884313 l -2.3520148810727304 -0.6976161579602002" fill="#ff1902" stroke="none" /><path d="M 120.02730092923936 106.31721596034902 l 2.527111421710399 0.7971273145200382 a23.64984982466801,23.64984982466801 0 0,0 -0.12580340417702235,0.387183065956229 l -2.51301576651713 -0.8405092804540624" fill="#ff1c02" stroke="none" /><path d="M 119.54520255179757 107.68017299344265 l 3.2794474986703497 1.2886397081817218 a24.52354483355014,24.52354483355014 0 0,0 -0.15776508553115492,0.39156000406783176 l -3.2567797988818024 -1.344899080092367" fill="#ff2904" stroke="none" /><path d="M 119.41010516605496 108.01547362559984 l 3.2278442577459496 1.332950042988617 a24.492239162681567,24.492239162681567 0 0,0 -0.16427180259366686,0.3882900162254061 l -3.204421473959974 -1.3883145848801866" fill="#ff2803" stroke="none" /><path d="M 119.26925614724726 108.34839909993367 l 0.9228708976062641 0.39983352299936853 a22.00576216858792,22.00576216858792 0 0,0 -0.15357812538523036,0.3462781293026742 l -0.9158516874897609 -0.41565998879473043" fill="#ff0500" stroke="none" /><path d="M 119.12269723197855 108.67885076344098 l 0.7953448865042653 0.36096788500594984 a21.87342504114214,21.87342504114214 0 0,0 -0.1585566908530043,0.3415170062319632 l -0.7890135788114296 -0.37460495851674364" fill="#ff0300" stroke="none" /><line stroke="#e1ed5e" stroke-width="0.3" x1="174.80103733775053" x2="179.2010983576182" y1="140.37084112569926" y2="142.7455964860345" /><path d="M 175.68104954172406 140.8457921977663 a86.0,86.0 0 0,1 -30.038265399797805,32.042727171017184" fill="none" id="id65" stroke="none" /><text fill="#e1ed5e" style="font-size:6.75px; font-family:Arial;" text-anchor="middle"><textPath startOffset="22.206326154141568" xlink:href="#id65">May</textPath></text><path d="M 118.48025628344425 109.97397251340804 l 8.334477072774757 4.498197641985952 a30.47086533021012,30.47086533021012 0 0,0 -0.25308751133403634,0.45942734730832024 l -8.25581315198921 -4.640995507692077" fill="#ff7b0b" stroke="none" /><path d="M 118.12598468904814 110.60418214915192 l 2.7149313284210423 1.5883068877582505 a24.145404725586573,24.145404725586573 0 0,0 -0.21296146281833483,0.3569356612039839 l -2.6871889899044805 -1.6348046428483385" fill="#ff2303" stroke="none" /><path d="M 117.55443506779139 111.5257021239791 l 52.663305203374144 34.5771063719373 a84.0,84.0 0 0,0 -0.8039875783571158,1.2018523431767725 l -52.0603145196063 -35.47849562931987" fill="#4dd2ff" stroke="none" /><path d="M 117.35343817320211 111.8261652097733 l 0.5686581727417793 0.3875338956816739 a21.68815306271805,21.68815306271805 0 0,0 -0.2128941046513065,0.3066898361428323 l -0.5619031609283366 -0.39726499401152576" fill="#ff0000" stroke="none" /><path d="M 116.71984013943494 112.70617746262583 l 3.405158983809506 2.5877373214048234 a25.276855404337397,25.276855404337397 0 0,0 -0.2662413379811455,0.3441528190341628 l -3.360110828610292 -2.645968134552239" fill="#ff3304" stroke="none" /><path d="M 116.498646956653 112.99209946851258 l 1.9944896771507594 1.5705899000411703 a23.53864958321787,23.53864958321787 0 0,0 -0.2534127164372875,0.3161713277419372 l -1.967159048658618 -1.6046890613613578" fill="#ff1b02" stroke="none" /><path d="M 116.0416608686014 113.55231037782055 l 2.1661701481509277 1.830023114150921 a23.83571467342306,23.83571467342306 0 0,0 -0.26747927154884965,0.31113882142080296 l -2.1343483670312993 -1.867039034733252" fill="#ff1f03" stroke="none" /><path d="M 115.32070863581623 114.36230785411682 l 1.6981285319638264 1.5919005661988797 a23.327614212822635,23.327614212822635 0 0,0 -0.2771469960980096,0.29058751738967437 l -1.6704749844868523 -1.620895200171061" fill="#ff1802" stroke="none" /><path d="M 115.07121518719521 114.62390073753431 l 2.585968505741878 2.5092168261580645 a24.603248838668186,24.603248838668186 0 0,0 -0.2975345569843473,0.3014009353669792 l -2.542393323701995 -2.5533582555057084" fill="#ff2a04" stroke="none" /><path d="M 114.81725581225074 114.88116024355365 l 2.2505593858187214 2.2602656849800864 a24.18964238054915,24.18964238054915 0 0,0 -0.2975902505251133,0.29125469458388775 l -2.211319182917814 -2.2986704824865463" fill="#ff2403" stroke="none" /><path d="M 114.55890576462653 115.13401014063108 l 42.38505748642921 44.059347603539194 a82.13688910451205,82.13688910451205 0 0,0 -1.0273532115414963,0.9714265856667668 l -41.62036844049691 -44.78240882595188" fill="#4be3ff" stroke="none" /><path d="M 113.75828350139079 115.86535959552629 l 3.7125586727969595 4.28113567782343 a26.666675797228265,26.666675797228265 0 0,0 -0.34937729222594227,0.2977469080134325 l -3.63831590399397 -4.344406976059809" fill="#ff4706" stroke="none" /><path d="M 113.48314897796784 116.09983520530334 l 3.417688835420621 4.080962624027185 a26.323049212102553,26.323049212102553 0 0,0 -0.34988330204218837,0.28793013764679337 l -3.346935404833742 -4.139187880531157" fill="#ff4206" stroke="none" /><path d="M 113.20401910651253 116.32954008644616 l 3.3524937436375937 4.146061932710222 a26.33188933221593,26.33188933221593 0 0,0 -0.3549068560990301,0.281959470999313 l -3.2806293948212124 -4.203155317714661" fill="#ff4206" stroke="none" /><path d="M 112.92097659922987 116.55440617244103 l 5.050997725174727 6.47135820396129 a29.209205505022844,29.209205505022844 0 0,0 -0.3990134249009879,0.30594647940878045 l -4.938855571780246 -6.557344025197442" fill="#ff6a09" stroke="none" /><path d="M 112.34349029814194 116.9893568818739 l 2.0379353759444623 2.804977406538581 a24.46714274983275,24.46714274983275 0 0,0 -0.34285768937600347,0.2446198579335235 l -1.9893503587195742 -2.8396415263163237" fill="#ff2803" stroke="none" /><path d="M 112.04921762599082 117.19931262002967 l 0.8984260886312587 1.2824327391205903 a22.565823478908655,22.565823478908655 0 0,0 -0.32005119838134477,0.2201341326293263 l -0.8762180056270308 -1.297707661115011" fill="#ff0d01" stroke="none" /><path d="M 111.7513745106137 117.40417183066458 l 6.668270156223496 9.875927237906177 a32.91636545616146,32.91636545616146 0 0,0 -0.47231113035539474,0.3130220628608005 l -6.4972843271281375 -9.989247321858297" fill="#ff9b0e" stroke="none" /><path d="M 111.45004920935366 117.60387380957326 l 3.6096623732422386 5.549674045226923 a27.620313018057843,27.620313018057843 0 0,0 -0.4007815242743949,0.25579773111343657 l -3.513599046920913 -5.610986205164168" fill="#ff5407" stroke="none" /><path d="M 111.1453310114006 117.79835938074945 l 6.355254264781044 10.148922382377863 a32.97455144435682,32.97455144435682 0 0,0 -0.4836594151316206,0.2971031159253939 l -6.179615649717114 -10.256813965131634" fill="#ff9c0e" stroke="none" /><line stroke="#e1ed5e" stroke-width="0.3" x1="143.8653032363475" x2="146.44561519142675" y1="172.8068346515853" y2="177.08958963109032" /><path d="M 144.38136562736335 173.6633856474863 a86.0,86.0 0 0,1 -40.68145358897372,12.25698825130547" fill="none" id="id66" stroke="none" /><text fill="#e1ed5e" style="font-size:6.75px; font-family:Arial;" text-anchor="middle"><textPath startOffset="21.466115282336833" xlink:href="#id66">June</textPath></text><path d="M 108.92500713936063 119.00905698771935 l 1.0273158119535213 2.1880436070114597 a23.417211741588527,23.417211741588527 0 0,0 -0.36634778604775226,0.16817230035029898 l -0.9895000301383495 -2.205402977695833" fill="#ff1902" stroke="none" /><path d="M 108.2653958097858 119.30500536409082 l 2.7088431480469812 6.326887750688717 a27.88239346525146,27.88239346525146 0 0,0 -0.4428368570563261,0.18510584216467682 l -2.599534831493194 -6.372578635873367" fill="#ff5808" stroke="none" /><path d="M 107.93186726928326 119.44442032107085 l 6.365790571441619 15.605292340980576 a37.85373663752113,37.85373663752113 0 0,0 -0.6054415395050086,0.24091768345839532 l -6.0962279558947445 -15.71255686884504" fill="#ffda14" stroke="none" /><path d="M 107.59598834532513 119.57807347666477 l 1.5056430666918794 3.8806787542619356 a25.16252671319444,25.16252671319444 0 0,0 -0.40515236203076777,0.1531939558105026 l -1.438620483900837 -3.906020960179069" fill="#ff3204" stroke="none" /><path d="M 107.2578585660854 119.70592522655815 l 4.757771978256598 12.917901057846946 a34.76621087799424,34.76621087799424 0 0,0 -0.5633457863239606,0.20199575609273163 l -4.534706631302902 -12.997884354979638" fill="#ffb310" stroke="none" /><path d="M 106.57524785965236 119.94407469862006 l 1.3269264760842507 4.024840024813932 a25.237932408413045,25.237932408413045 0 0,0 -0.4137562582025813,0.13247168788448122 l -1.2574488727907291 -4.047084559358121" fill="#ff3304" stroke="none" /><path d="M 105.53697534728816 120.25689768951611 l 2.648773029766718 9.69047555774527 a31.045960138208695,31.045960138208695 0 0,0 -0.5167076085903439,0.1364671757110839 l -2.4815749783648764 -9.734634082759937" fill="#ff820c" stroke="none" /><path d="M 101.98527174616119 120.90594882070398 l 0.44446891768524677 4.680489944758931 a25.701546420251294,25.701546420251294 0 0,0 -0.4407884755277639,0.03803308440971194 l -0.36383612441594115 -4.687447281447307" fill="#ff3905" stroke="none" /><path d="M 101.62511606390274 120.93702456842531 l 0.2148374777226766 2.7678377250767414 a23.77616296607246,23.77616296607246 0 0,0 -0.40831284625498143,0.028159644476991128 l -0.16716187068876484 -2.7711257140700174" fill="#ff1e03" stroke="none" /><path d="M 100.90346689309514 120.98055641714683 l 0.5658722420109579 13.140840676226102 a34.153018857746574,34.153018857746574 0 0,0 -0.5875614591512215,0.020236804666874324 l -0.33959043118508414 -13.14863427931907" fill="#ffab0f" stroke="none" /><line stroke="#e1ed5e" stroke-width="0.3" x1="102.19456741930631" x2="102.32365962044197" y1="184.97166512339345" y2="189.96999836594603" /><path d="M 102.22038585953345 185.97133177190398 a86.0,86.0 0 0,1 -42.740103519485714,-10.115201625700543" fill="none" id="id67" stroke="none" /><text fill="#e1ed5e" style="font-size:6.75px; font-family:Arial;" text-anchor="middle"><textPath startOffset="22.20632615414155" xlink:href="#id67">July</textPath></text><path d="M 99.81925306533755 120.99922214144158 l -0.03008434479846858 3.495206381134913 a24.4953358514638,24.4953358514638 0 0,0 -0.4216000850636345,-0.007258227804302307 l 0.09024411975477102 -3.494170676051451" fill="#ff2803" stroke="none" /><path d="M 99.45781275523022 120.99299961872073 l -0.2002022723307616 7.751650868310793 a28.754235754349352,28.754235754349352 0 0,0 -0.4946819133902733,-0.017037845314047152 l 0.3336045373956779 -7.747056224570652" fill="#ff6409" stroke="none" /><path d="M 99.09653310690486 120.98055641714683 l -0.10032545032402698 2.329785171638006 a23.331944283632662,23.331944283632662 0 0,0 -0.40110048921443253,-0.020732313759339257 l 0.14041400795194842 -2.3277130511164645" fill="#ff1802" stroke="none" /><path d="M 98.37488393609728 120.93702456842531 l -0.24579756515028772 3.1667089968035413 a24.17623398279634,24.17623398279634 0 0,0 -0.4146289545006734,-0.035775930861970645 l 0.30027083739250277 -3.1620088136629074" fill="#ff2403" stroke="none" /><path d="M 98.01472825383883 120.90594882070398 l -0.24954936820069215 2.627885240361009 a23.639707507220564,23.639707507220564 0 0,0 -0.40476515454164574,-0.041955563253104976 l 0.2947471193479312 -2.623200308652143" fill="#ff1c02" stroke="none" /><path d="M 97.2962882734958 120.8252237178851 l -0.46909404883914957 3.613176810249209 a24.643500499352093,24.643500499352093 0 0,0 -0.42019680675671606,-0.05823544857445503 l 0.5312194467826966 -3.604566796182149" fill="#ff2a04" stroke="none" /><path d="M 96.93821686468263 120.77559828337769 l -0.7720212708633389 5.238517256388552 a26.295099610786004,26.295099610786004 0 0,0 -0.4472222163721143,-0.06984691260790969 l 0.8620793508439704 -5.2244520364335365" fill="#ff4206" stroke="none" /><path d="M 95.86986931433489 120.58985236759428 l -7.73298582189914 38.55108919101009 a60.31902271846171,60.31902271846171 0 0,0 -1.0162564417155502,-0.2129664182378012 l 8.395433725044077 -38.41226679204575" fill="#30ff33" stroke="none" /><path d="M 90.42595943632237 118.69057910512821 l -2.529498768845359 4.938123723309985 a26.548281709530173,26.548281709530173 0 0,0 -0.40493600732628354,-0.21184338057549137 l 2.614125678698138 -4.893850923789777" fill="#ff4506" stroke="none" /><line stroke="#e1ed5e" stroke-width="0.3" x1="58.666819895761336" x2="56.23545636021788" y1="174.27360380694188" y2="178.64263932499728" /><path d="M 58.180547188652646 175.14741091055294 a86.0,86.0 0 0,1 -31.652253787137756,-30.449443065178592" fill="none" id="id68" stroke="none" /><text fill="#e1ed5e" style="font-size:6.75px; font-family:Arial;" text-anchor="middle"><textPath startOffset="22.20632615414155" xlink:href="#id68">August</textPath></text><path d="M 89.7882731507175 118.34994917583269 l -2.596368838227217 4.665541580416711 a26.339326678778384,26.339326678778384 0 0,0 -0.39427618190186325,-0.2238803060601382 l 2.6762937870502874 -4.62015810856194" fill="#ff4206" stroke="none" /><path d="M 89.4739219176387 118.17145234162733 l -2.6632315120382444 4.597608351093171 a26.313266851641764,26.313266851641764 0 0,0 -0.38997781249689367,-0.2304057655378782 l 2.74197719556352 -4.551084013261543" fill="#ff4206" stroke="none" /><path d="M 89.1626897886671 117.98757091392108 l -1.173428460221268 1.9476352737943137 a23.27381123028828,23.27381123028828 0 0,0 -0.3413722836084674,-0.20969873836332176 l 1.206779943762044 -1.927148068602614" fill="#ff1702" stroke="none" /><path d="M 88.54995079064634 117.60387380957326 l -1.675085399823707 2.575359411963578 a24.07219582668357,24.07219582668357 0 0,0 -0.3454076980698124,-0.22891738777457213 l 1.719167796633481 -2.546144003097688" fill="#ff2203" stroke="none" /><path d="M 87.95078237400918 117.19931262002967 l -4.375888621721362 6.246237617376224 a28.62652513287908,28.62652513287908 0 0,0 -0.40114304977396786,-0.28620491500517314 l 4.482758999344217 -6.169988440526832" fill="#ff6209" stroke="none" /><path d="M 87.65650970185807 116.9893568818739 l -1.8735335068972445 2.578697646290323 a24.187445584233547,24.187445584233547 0 0,0 -0.3347254863791142,-0.24762191266707018 l 1.9176439636949232 -2.5460657848834862" fill="#ff2403" stroke="none" /><path d="M 87.36589467227662 116.77436683061367 l -9.816482331819135 13.033394241129395 a37.31663846555479,37.31663846555479 0 0,0 -0.5097653107125031,-0.39086630274636347 l 10.039376371025124 -12.862488596555664" fill="#ffd413" stroke="none" /><path d="M 86.79598089348748 116.32954008644616 l -8.399079289331622 10.387223832229493 a34.35810435089185,34.35810435089185 0 0,0 -0.4566844405196481,-0.37582020362924734 l 8.57663385839596 -10.241108509743066" fill="#ffae10" stroke="none" /><path d="M 85.44109423537348 115.13401014063109 l -7.01060404102179 7.287536190155073 a31.11220810420805,31.11220810420805 0 0,0 -0.3827543069245881,-0.3746056484286 l 7.135008300322173 -7.165780438803904" fill="#ff830c" stroke="none" /><path d="M 84.9287848128048 114.62390073753433 l -11.420867345378102 11.081895409287107 a36.913661325512194,36.913661325512194 0 0,0 -0.43855793644434476,-0.45982624303037073 l 11.609931833201404 -10.883662049674236" fill="#ffcf13" stroke="none" /><path d="M 84.67929136418377 114.36230785411682 l -2.566944495932219 2.406366961957769 a24.51849484876681,24.51849484876681 0 0,0 -0.28599492303541174,-0.3103910042716364 l 2.60798582696336 -2.3618247028847885" fill="#ff2903" stroke="none" /><path d="M 84.43433777217949 114.09645910891817 l -2.610657831025684 2.364244503305235 a24.522099712118433,24.522099712118433 0 0,0 -0.28065093589755696,-0.3153143016410522 l 2.650967616571579 -2.318956031923319" fill="#ff2904" stroke="none" /><path d="M 84.19399662182784 113.82643327865904 l -2.062213871381497 1.803938783054892 a23.739876125726823,23.739876125726823 0 0,0 -0.2664037919471127,-0.3098877956728651 l 2.0929601728993887 -1.7681738882204965" fill="#ff1e03" stroke="none" /><path d="M 83.95833913139862 113.55231037782056 l -5.54242172982152 4.682346805768571 a28.25553652328268,28.25553652328268 0 0,0 -0.3106817337323929,-0.37423616229343104 l 5.6221994634474495 -4.586249386361378" fill="#ff5d08" stroke="none" /><path d="M 83.50135304334701 112.99209946851258 l -3.760060946967835 2.960914671307443 a25.785924572710723,25.785924572710723 0 0,0 -0.27160336796250967,-0.3510839655939913 l 3.8104711321484133 -2.895752711600199" fill="#ff3b05" stroke="none" /><path d="M 83.28015986056508 112.70617746262583 l -8.859093771692223 6.7324338440097655 a32.12695861049209,32.12695861049209 0 0,0 -0.3308139445177257,-0.4431793395236713 l 8.973668982905034 -6.578941624976786" fill="#ff910d" stroke="none" /><path d="M 83.06392112726016 112.41649034213515 l -3.927062927865059 2.879080764986143 a25.869386952248227,25.869386952248227 0 0,0 -0.2601970134842677,-0.36139089425573484 l 3.976039733724934 -2.81105626527927" fill="#ff3c05" stroke="none" /><path d="M 82.85270091963577 112.12312394758628 l -4.379844956828072 3.0965461693987995 a26.363920210542908,26.363920210542908 0 0,0 -0.2587921236119619,-0.37280935569167295 l 4.432497987602168 -3.020695551520114" fill="#ff4306" stroke="none" /><path d="M 82.6465618267979 111.8261652097733 l -2.3697298346240903 1.6149431742045408 a23.867692616899056,23.867692616899056 0 0,0 -0.22844438557180705,-0.3414933606885922 l 2.397177325606628 -1.573912899310128" fill="#ff1f03" stroke="none" /><path d="M 82.44556493220864 111.52570212397912 l -5.322398291698759 3.4945230113299983 a27.3670726909776,27.3670726909776 0 0,0 -0.255159035071442,-0.39601248876989037 l 5.3817621901472465 -3.4023889226386594" fill="#ff5107" stroke="none" /><path d="M 82.24976979558568 111.22182372390057 l -4.362455456827921 2.7579758446015226 a26.161147970385386,26.161147970385386 0 0,0 -0.23736303596368113,-0.3827047920094554 l 4.409283132459558 -2.682474721226803" fill="#ff4006" stroke="none" /><path d="M 82.05923443525364 110.91462005526583 l -4.368658937199165 2.657760187461901 a26.11359659375157,26.11359659375157 0 0,0 -0.23032083302210957,-0.3860309641746199 l 4.413760645919507 -2.58216712940117" fill="#ff3f05" stroke="none" /><line stroke="#e1ed5e" stroke-width="0.3" x1="26.63291911575756" x2="22.317208475507996" y1="142.92168965132927" y2="145.44649492493687" /><path d="M 25.769776987707644 143.4266507060508 a86.0,86.0 0 0,1 -11.730757126820373,-40.83630448921669" fill="none" id="id69" stroke="none" /><text fill="#e1ed5e" style="font-size:6.75px; font-family:Arial;" text-anchor="middle"><textPath startOffset="21.46611528233685" xlink:href="#id69">September</textPath></text><path d="M 81.69416730710424 110.29060199501025 l -9.24089228012501 5.194756563597025 a31.600923822380217,31.600923822380217 0 0,0 -0.2624736475118411,-0.4764659108585785 l 9.328942337088368 -5.034920134340624" fill="#ff8a0c" stroke="none" /><path d="M 81.35079622478065 109.6543875284942 l -16.938207442797278 8.768632734234048 a40.07332669995232,40.07332669995232 0 0,0 -0.31184935025693916,-0.6153083532124746 l 17.086635462840484 -8.475770169318888" fill="#fff617" stroke="none" /><path d="M 81.02952815118164 109.00673069616217 l -5.676761423529137 2.6951918632047014 a27.284081431613803,27.284081431613803 0 0,0 -0.19777760714765624,-0.42599537067412074 l 5.72231364751662 -2.5970764252517533" fill="#ff4f07" stroke="none" /><path d="M 80.87730276802145 108.67885076344099 l -14.381807039261254 6.527194123725572 a36.79368977925495,36.79368977925495 0 0,0 -0.25678301251339997,-0.5789779044822139 l 14.492031136505934 -6.278667882750662" fill="#ffcd13" stroke="none" /><path d="M 80.45479744820244 107.68017299344265 l -4.0483443673587205 1.590773234298593 a25.349672585343164,25.349672585343164 0 0,0 -0.15608846074840338,-0.4074977168241632 l 4.075127107700633 -1.5208519506412719" fill="#ff3405" stroke="none" /><path d="M 80.20201598880116 107.00284435728193 l -5.127006973744441 1.8134993863780413 a26.438288382682337,26.438288382682337 0 0,0 -0.14806595847478887,-0.43034898346656897 l 5.157463763162459 -1.7249776998221755" fill="#ff4406" stroke="none" /><path d="M 80.0844068197444 106.66101706037122 l -2.550917807595312 0.8531860880168399 a23.689815637156634,23.689815637156634 0 0,0 -0.12601599898413454,-0.387837365494166 l 2.5652260575956958 -0.8091498225448706" fill="#ff1d02" stroke="none" /><path d="M 79.76711848015287 105.62410040840567 l -21.92281208497876 6.093847595538208 a43.75400334514649,43.75400334514649 0 0,0 -0.19545939150269562,-0.7273771084599256 l 22.024459552823227 -5.715579553902744" fill="#dcff1b" stroke="none" /><path d="M 79.50377843672027 104.57218783832718 l -2.318951316409601 0.5172992970351249 a23.375949025250932,23.375949025250932 0 0,0 -0.08422684065352781,-0.39347975897420956 l 2.3275121957875693 -0.4773057186447516" fill="#ff1802" stroke="none" /><path d="M 79.35854240842038 103.8639653848113 l -3.0937674550032535 0.5791359598396215 a24.14750623917041,24.14750623917041 0 0,0 -0.0729640561672381,-0.40922117557492776 l 3.1032779535096804 -0.5257960335314801" fill="#ff2303" stroke="none" /><path d="M 79.29508885075956 103.50808413554451 l -2.9061785725572893 0.49240099954843924 a23.94759777445082,23.94759777445082 0 0,0 -0.06536353769966566,-0.4070188116501937 l 2.9142238646182457 -0.44230295820503185" fill="#ff2103" stroke="none" /><path d="M 79.1416061653843 102.43462659150553 l -5.4205872919009765 0.6327000087867612 a26.457387276915313,26.457387276915313 0 0,0 -0.04890547058977165,-0.4528039190781968 l 5.4306750639918 -0.5392997678237823" fill="#ff4406" stroke="none" /><path d="M 79.10278846688536 102.07522291339032 l -2.2673118302440187 0.22515814870645712 a23.278464203689275,23.278464203689275 0 0,0 -0.03616520441404822,-0.39908001711114854 l 2.2708516309351423 -0.18609674304674237" fill="#ff1702" stroke="none" /><path d="M 79.04373962182676 101.35467743843564 l -7.493903232730837 0.48442906568263006 a28.50954440570211,28.50954440570211 0 0,0 -0.027441996522533235,-0.48999528240041373 l 7.5011315801409015 -0.35536206694677874" fill="#ff6008" stroke="none" /><path d="M 79.0235259727143 100.99374915477108 l -11.922198986795076 0.5648077532348402 a32.93557022009639,32.93557022009639 0 0,0 -0.02195370173385021,-0.5665274926698591 l 11.930154821380127 -0.3595030135509843" fill="#ff9b0e" stroke="none" /><path d="M 79.0095281055655 100.63252640178507 l -10.274045735518456 0.30959786009317186 a31.278709384475235,31.278709384475235 0 0,0 -0.011584944804110353,-0.5383068628804867 l 10.277852743007575 -0.13270118142255632" fill="#ff860c" stroke="none" /><line stroke="#e1ed5e" stroke-width="0.3" x1="15.007084014347285" x2="10.007500721073583" y1="101.09737516637583" y2="101.16192664675087" /><path d="M 14.007167355692545 101.11028546245083 a86.0,86.0 0 0,1 10.666146001902534,-42.60595125391555" fill="none" id="id70" stroke="none" /><text fill="#e1ed5e" style="font-size:6.75px; font-family:Arial;" text-anchor="middle"><textPath startOffset="22.20632615414155" xlink:href="#id70">October</textPath></text><path d="M 79.00175016825051 100.2711162175752 l -9.93881740005283 0.12832376994575687 a30.939645783503856,30.939645783503856 0 0,0 -0.0022920424193911245,-0.5325899380224888 l 9.939553739761724 0.04277564628040727" fill="#ff810b" stroke="none" /><path d="M 79.00019446554 99.90962569577889 l -5.30792950674634 -0.022843089439079887 a26.30797866002903,26.30797866002903 0 0,0 0.00584662615017365,-0.45282763853901636 l 5.30674987347845 0.1142069860385682" fill="#ff4206" stroke="none" /><path d="M 79.00486145842228 99.54816195383935 l -3.922040716255039 -0.0844065501490145 a24.9229488711517,24.9229488711517 0 0,0 0.012922318208354079,-0.4288288305403641 l 3.92000670359104 0.151905528114373" fill="#ff2e04" stroke="none" /><path d="M 79.01574976396665 99.18683210126434 l -8.291187882332872 -0.3212946735033598 a29.297410847208006,29.297410847208006 0 0,0 0.023865380366499135,-0.5037604600775899 l 8.284428893732874 0.4639662402039588" fill="#ff6b09" stroke="none" /><path d="M 79.03285615573316 98.82574320788736 l -4.1336048511419134 -0.23150094301901777 a25.140082336379635,25.140082336379635 0 0,0 0.027916755342131647,-0.4318598488943771 l 4.129007504795369 0.3026198561664067" fill="#ff3104" stroke="none" /><path d="M 79.08570108090925 98.10471618934814 l -5.1532122927215 -0.46699150036207815 a26.174328748278988,26.174328748278988 0 0,0 0.04452486934413329,-0.4483593580067825 l 5.144410297695138 0.555626389073291" fill="#ff4006" stroke="none" /><path d="M 79.12142395522702 97.74499172005258 l -13.972956013474798 -1.5091609426886763 a35.05421881519704,35.05421881519704 0 0,0 0.06995761601332665,-0.5993541316060449 l 13.944908044457883 1.749458812619583" fill="#ffb711" stroke="none" /><path d="M 79.21141760316559 97.0276538004421 l -2.2743013653240354 -0.3251790281236122 a23.297430760794803,23.297430760794803 0 0,0 0.06017849127519199,-0.3965010682329448 l 2.2683669806095415 0.36427920874864905" fill="#ff1702" stroke="none" /><path d="M 79.3925641242962 95.95851677861259 l -53.77683073737967 -10.54658912614901 a75.80125971501556,75.80125971501556 0 0,0 0.2621305167159423,-1.2782414932651143 l 53.58732092474874 11.470706275577527" fill="#43ffde" stroke="none" /><path d="M 80.95270993114464 91.15688171328213 l -4.8454453338606855 -2.2496032813202285 a26.34219574770141,26.34219574770141 0 0,0 0.19448293366179806,-0.4096306576235056 l 4.806004206357136 2.332676354584266" fill="#ff4206" stroke="none" /><line stroke="#e1ed5e" stroke-width="0.3" x1="26.266209847984243" x2="21.928928074336255" y1="57.711370442889674" y2="55.22380399835377" /><path d="M 25.398753493254645 57.213857153982495 a86.0,86.0 0 0,1 29.58750427330803,-30.492523968695096" fill="none" id="id71" stroke="none" /><text fill="#e1ed5e" style="font-size:6.75px; font-family:Arial;" text-anchor="middle"><textPath startOffset="21.46611528233685" xlink:href="#id71">November</textPath></text><path d="M 82.34701348167596 88.62581576622439 l -2.422996742654308 -1.561186902860942 a23.882397918500832,23.882397918500832 0 0,0 0.2256356239405508,-0.34365853523182466 l 2.3957644833558374 1.6026635020704336" fill="#ff2003" stroke="none" /><path d="M 82.54541684631803 88.32363383020206 l -4.4120075393763205 -2.951443475910222 a26.308185105947842,26.308185105947842 0 0,0 0.2550334685823342,-0.37423014566745455 l 4.360549605125246 3.0269516448480926" fill="#ff4206" stroke="none" /><path d="M 82.7489923806493 88.02491185347247 l -2.2366853801411755 -1.5526342097951094 a23.722762288405537,23.722762288405537 0 0,0 0.23574481490393837,-0.3334443222126565 l 2.209627945433359 1.590905032339552" fill="#ff1d03" stroke="none" /><path d="M 82.95767976084542 87.72973835380427 l -0.5799424385470572 -0.41755144609688355 a21.714620488207206,21.714620488207206 0 0,0 0.22101077397177804,-0.30145844732060445 l 0.5726690520616458 0.4274723370889887" fill="#ff0000" stroke="none" /><path d="M 83.6137871275137 86.86637796730984 l -5.338258767935205 -4.278637993802486 a27.841326607862488,27.841326607862488 0 0,0 0.30294214821382065,-0.3713712534273332 l 5.263818127644992 4.369893416837901" fill="#ff5708" stroke="none" /><path d="M 84.07557802195018 86.31012108654704 l -4.036603502447518 -3.4701801576407445 a26.323186842715096,26.323186842715096 0 0,0 0.29833964976794514,-0.34105379290791155 l 3.9762719891017286 3.5391495067515994" fill="#ff4206" stroke="none" /><path d="M 85.57189188830299 84.74124197986013 l -6.51406528440301 -6.889090734045533 a30.481171745695598,30.481171745695598 0 0,0 0.38434161766453223,-0.3572036465565104 l 6.394515782943622 7.000198966676691" fill="#ff7b0b" stroke="none" /><path d="M 86.10567301691215 84.25364557470407 l -2.554626779332391 -2.895142653594032 a24.861083910813345,24.861083910813345 0 0,0 0.32331981849552616,-0.2803797605529215 l 2.504413162190091 2.9386874075666345" fill="#ff2e04" stroke="none" /><path d="M 86.37877921826538 84.01681056812374 l -1.7925330435775293 -2.1033647172664667 a23.763569765024716,23.763569765024716 0 0,0 0.3136140121582364,-0.26264271612636336 l 1.7560614944601827 2.133908590786642" fill="#ff1e03" stroke="none" /><path d="M 86.93701828274178 83.55741782278169 l -1.3278591751300788 -1.671397394517079 a23.134661387521593,23.134661387521593 0 0,0 0.31393454013590116,-0.2450308881232328 l 1.2988920798347519 1.6940066718635334" fill="#ff1502" stroke="none" /><path d="M 87.22198572758235 83.33499621200491 l -2.4341173543353953 -3.1745601519624036 a25.00034491676709,25.00034491676709 0 0,0 0.3437593215277801,-0.2589123940965945 l 2.3791118790492254 3.215989135564852" fill="#ff2f04" stroke="none" /><path d="M 87.51073957382395 83.11751280151077 l -7.112754672266103 -9.614739832700673 a32.9597032186574,32.9597032186574 0 0,0 0.4590104560897949,-0.3334906171483743 l 6.946198899822527 9.735749684665715" fill="#ff9c0e" stroke="none" /><path d="M 88.70189139769569 82.29822771554957 l -2.8095693876976418 -4.402007386284361 a26.222197734018675,26.222197734018675 0 0,0 0.38257043659101475,-0.2395655722962152 l 2.733379798734385 4.449717299903507" fill="#ff4106" stroke="none" /><line stroke="#e1ed5e" stroke-width="0.3" x1="56.762969772571076" x2="54.21961505331055" y1="26.818313649435495" y2="22.513508569990535" /><path d="M 56.25429882871897 25.957352633546506 a86.0,86.0 0 0,1 42.265352541879196,-11.944610805530505" fill="none" id="id72" stroke="none" /><text fill="#e1ed5e" style="font-size:6.75px; font-family:Arial;" text-anchor="middle"><textPath startOffset="22.20632615414155" xlink:href="#id72">December</textPath></text><path d="M 89.63071344664047 81.73862282372117 l -0.6403794115290805 -1.1277738260659056 a22.296903848968636,22.296903848968636 0 0,0 0.33538356257933244,-0.18664058946332104 l 0.6208717598777025 1.1386298130894112" fill="#ff0901" stroke="none" /><path d="M 89.94658935756843 81.56283822128135 l -1.6185037086718859 -2.9682080815732266 a24.380800714402028,24.380800714402028 0 0,0 0.37018757511396755,-0.1977413822182862 l 1.567171087029613 2.9956281902932624" fill="#ff2703" stroke="none" /><path d="M 90.26544431104013 81.39251694778311 l -2.418807767523326 -4.623521193864566 a26.218005293821193,26.218005293821193 0 0,0 0.40168420188710674,-0.20575824970562098 l 2.338863078047455 4.664471968882692" fill="#ff4106" stroke="none" /><path d="M 90.91171255644093 81.06846463323043 l -2.2149297811233484 -4.613852911965868 a26.11796371895728,26.11796371895728 0 0,0 0.4069698478728158,-0.19107780044617398 l 2.135181721950924 4.65129569505205" fill="#ff3f05" stroke="none" /><path d="M 91.23893434514133 80.91482961587045 l -1.1503443299858542 -2.5059186180190234 a23.75733933306457,23.75733933306457 0 0,0 0.3731235871284444,-0.16740967725302677 l 1.1070386243906354 2.525348625788579" fill="#ff1e03" stroke="none" /><path d="M 91.90106846888425 80.62456947434976 l -3.8973853237948397 -9.323886525371401 a31.10566535662713,31.10566535662713 0 0,0 0.49578894962138104,-0.20224476106971803 l 3.736312504585078 9.389592172624695" fill="#ff830c" stroke="none" /><path d="M 93.25333710446033 80.11325718540243 l -1.278470244568482 -3.768471812435997 a24.97943035714556,24.97943035714556 0 0,0 0.4083746443908333,-0.13463469963100672 l 1.2134127779352393 3.7899202363262376" fill="#ff2f04" stroke="none" /><path d="M 93.59665428221793 80.00007090966166 l -1.589739250713254 -4.965321831382452 a26.213606407704894,26.213606407704894 0 0,0 0.4309200174258809,-0.1338889470253809 l 1.5040338605766443 4.991950913290359" fill="#ff4106" stroke="none" /><path d="M 93.94186890950719 79.89281104454417 l -0.9275804445677134 -3.0786780595715917 a24.215379305094803,24.215379305094803 0 0,0 0.4001415952574151,-0.11681230426065052 l 0.874448631586877 3.094188692750941" fill="#ff2403" stroke="none" /><path d="M 94.28887869178378 79.79150937346287 l -3.3216658747156993 -11.753533162937849 a33.21388578608506,33.21388578608506 0 0,0 0.5515120038423839,-0.15074906413676606 l 3.1188559816495927 11.808968767900911" fill="#ff9f0e" stroke="none" /><path d="M 96.75951476605007 79.25152402106235 l -0.43321472392400157 -2.773826956187934 a23.807452756485738,23.807452756485738 0 0,0 0.40544207631898904,-0.05975162277828297 l 0.3854036671763637 2.780873063127186" fill="#ff1f03" stroke="none" /><path d="M 97.47563105711357 79.15227682838746 l -0.6378256625571899 -5.267539391265955 a26.306014777057733,26.306014777057733 0 0,0 0.44999982885164386,-0.050562724022108665 l 0.547059130195828 5.277738068758662" fill="#ff4206" stroke="none" /></svg>