<?xml version="1.0" encoding="utf-8" ?>
<svg baseProfile="full" height="300mm" version="1.1" viewBox="0,0,200,300" width="200mm" xmlns="http://www.w3.org/2000/svg" xmlns:ev="http://www.w3.org/2001/xml-events" xmlns:xlink="http://www.w3.org/1999/xlink"><defs /><rect fill="#222222" height="300" width="200" x="0" y="0" /><text fill="#555555" style="font-size:6px; font-family:Arial;" x="11" y="19">Running for 4680 Days</text><text fill="#555555" style="font-size:6px; font-family:Arial;" x="11" y="39">Races</text><text fill="#555555" style="font-size:8px; font-family:Arial;" x="11" y="59">1</text><text fill="#FFFFFF" style="font-size:10px; font-family:Arial; font-weight:bold;" x="23" y="59">Full</text><text fill="#555555" style="font-size:6px; font-family:Arial;" x="49" y="59">5x</text><text fill="#555555" style="font-size:8px; font-family:Arial;" x="11" y="77">2</text><text fill="#FFFFFF" style="font-size:10px; font-family:Arial; font-weight:bold;" x="23" y="77">Half</text><text fill="#555555" style="font-size:6px; font-family:Arial;" x="49" y="77">18x</text><text fill="#555555" style="font-size:8px; font-family:Arial;" x="11" y="95">3</text><text fill="#FFFFFF" style="font-size:10px; font-family:Arial; font-weight:bold;" x="23" y="95">10K</text><text fill="#555555" style="font-size:6px; font-family:Arial;" x="49" y="95">76x</text><text fill="#555555" style="font-size:6px; font-family:Arial;" x="11" y="133">Stats</text><text fill="#555555" style="font-size:5px; font-family:Arial;" x="11" y="139">Distance</text><text fill="#FFFFFF" style="font-size:10px; font-family:Arial; font-weight:bold;" x="11" y="150">2771</text><text fill="#555555" style="font-size:6px; font-family:Arial;" x="35" y="150">km</text><text fill="#555555" style="font-size:5px; font-family:Arial;" x="53" y="139">Runs</text><text fill="#FFFFFF" style="font-size:10px; font-family:Arial; font-weight:bold;" x="53" y="150">257</text><text fill="#555555" style="font-size:5px; font-family:Arial;" x="11" y="167">Avg Pace</text><text fill="#FFFFFF" style="font-size:10px; font-family:Arial; font-weight:bold;" x="11" y="178">11'17"</text><text fill="#555555" style="font-size:5px; font-family:Arial;" x="53" y="167">Streak</text><text fill="#FFFFFF" style="font-size:10px; font-family:Arial; font-weight:bold;" x="53" y="178">7</text><text fill="#555555" style="font-size:6px; font-family:Arial;" x="59" y="178">d</text><text fill="#555555" style="font-size:5px; font-family:Arial;" x="11" y="195">Time</text><text fill="#FFFFFF" style="font-size:10px; font-family:Arial; font-weight:bold;" x="11" y="206">521</text><text fill="#555555" style="font-size:6px; font-family:Arial;" x="29" y="206">h</text><text fill="#555555" style="font-size:5px; font-family:Arial;" x="53" y="195">Longest</text><text fill="#FFFFFF" style="font-size:10px; font-family:Arial; font-weight:bold;" x="53" y="206">105.9</text><text fill="#555555" style="font-size:5px; font-family:Arial;" x="11" y="252.0645161290322">Runner</text><text fill="#FFFFFF" style="font-size:8px; font-family:Arial; font-weight:bold;" x="11" y="262.0645161290322">yihong0618</text><text fill="#555555" style="font-size:7px; font-family:Arial;" x="11" y="285.5806451612903">running_page/2022</text><circle cx="85.41666666666667" cy="17.419354838709676" fill="#FFFF00" r="3.3125"><title>2022-01-01: 15 km</title></circle><circle cx="85.41666666666667" cy="26.25806451612903" fill="#FFFF00" r="3.3125"><title>2022-01-02: 43 km</title></circle><circle cx="85.41666666666667" cy="35.096774193548384" fill="#FFFF00" r="3.3125"><title>2022-01-03: 15 km</title></circle><circle cx="85.41666666666667" cy="43.935483870967744" fill="#555555" r="3.3125"><title>2022-01-04</title></circle><circle cx="85.41666666666667" cy="52.774193548387096" fill="#FFFF00" r="3.3125"><title>2022-01-05: 12 km</title></circle><circle cx="85.41666666666667" cy="61.61290322580645" fill="#4dd0fc" r="3.3125"><title>2022-01-06: 9 km</title></circle><circle cx="85.41666666666667" cy="70.45161290322581" fill="#FFFF00" r="3.3125"><title>2022-01-07: 13 km</title></circle><circle cx="85.41666666666667" cy="79.29032258064517" fill="#FFFF00" r="3.3125"><title>2022-01-08: 16 km</title></circle><circle cx="85.41666666666667" cy="88.12903225806451" fill="#FFFF00" r="3.3125"><title>2022-01-09: 27 km</title></circle><circle cx="85.41666666666667" cy="96.96774193548387" fill="#555555" r="3.3125"><title>2022-01-10</title></circle><circle cx="85.41666666666667" cy="105.80645161290322" fill="#555555" r="3.3125"><title>2022-01-11</title></circle><circle cx="85.41666666666667" cy="114.64516129032258" fill="#4dccf7" r="3.3125"><title>2022-01-12: 9 km</title></circle><circle cx="85.41666666666667" cy="123.48387096774194" fill="#555555" r="3.3125"><title>2022-01-13</title></circle><circle cx="85.41666666666667" cy="132.32258064516128" fill="#FFFF00" r="3.3125"><title>2022-01-14: 12 km</title></circle><circle cx="85.41666666666667" cy="141.16129032258064" fill="#FFFF00" r="3.3125"><title>2022-01-15: 37 km</title></circle><circle cx="85.41666666666667" cy="149.99999999999997" fill="#FFFF00" r="3.3125"><title>2022-01-16: 16 km</title></circle><circle cx="85.41666666666667" cy="158.83870967741933" fill="#555555" r="3.3125"><title>2022-01-17</title></circle><circle cx="85.41666666666667" cy="167.6774193548387" fill="#FFFF00" r="3.3125"><title>2022-01-18: 11 km</title></circle><circle cx="85.41666666666667" cy="176.51612903225805" fill="#4fb2d3" r="3.3125"><title>2022-01-19: 7 km</title></circle><circle cx="85.41666666666667" cy="185.35483870967738" fill="#4ebbe0" r="3.3125"><title>2022-01-20: 8 km</title></circle><circle cx="85.41666666666667" cy="194.19354838709674" fill="#555555" r="3.3125"><title>2022-01-21</title></circle><circle cx="85.41666666666667" cy="203.0322580645161" fill="#4dcdf9" r="3.3125"><title>2022-01-22: 9 km</title></circle><circle cx="85.41666666666667" cy="211.87096774193546" fill="#FFFF00" r="3.3125"><title>2022-01-23: 10 km</title></circle><circle cx="85.41666666666667" cy="220.70967741935482" fill="#4fa6c3" r="3.3125"><title>2022-01-24: 6 km</title></circle><circle cx="85.41666666666667" cy="229.54838709677418" fill="#5099b2" r="3.3125"><title>2022-01-25: 5 km</title></circle><circle cx="85.41666666666667" cy="238.3870967741935" fill="#4dc9f3" r="3.3125"><title>2022-01-26: 9 km</title></circle><circle cx="85.41666666666667" cy="247.22580645161287" fill="#555555" r="3.3125"><title>2022-01-27</title></circle><circle cx="85.41666666666667" cy="256.06451612903226" fill="#FFFF00" r="3.3125"><title>2022-01-28: 11 km</title></circle><circle cx="85.41666666666667" cy="264.90322580645164" fill="#4dcefa" r="3.3125"><title>2022-01-29: 9 km</title></circle><circle cx="85.41666666666667" cy="273.741935483871" fill="#FFFF00" r="3.3125"><title>2022-01-30: 10 km</title></circle><circle cx="85.41666666666667" cy="282.5806451612903" fill="#555555" r="3.3125"><title>2022-01-31</title></circle><circle cx="94.25" cy="17.419354838709676" fill="#518495" r="3.3125"><title>2022-02-01: 3 km</title></circle><circle cx="94.25" cy="26.25806451612903" fill="#4dc3eb" r="3.3125"><title>2022-02-02: 8 km</title></circle><circle cx="94.25" cy="35.096774193548384" fill="#555555" r="3.3125"><title>2022-02-03</title></circle><circle cx="94.25" cy="43.935483870967744" fill="#4fa3bf" r="3.3125"><title>2022-02-04: 6 km</title></circle><circle cx="94.25" cy="52.774193548387096" fill="#4ebade" r="3.3125"><title>2022-02-05: 8 km</title></circle><circle cx="94.25" cy="61.61290322580645" fill="#555555" r="3.3125"><title>2022-02-06</title></circle><circle cx="94.25" cy="70.45161290322581" fill="#555555" r="3.3125"><title>2022-02-07</title></circle><circle cx="94.25" cy="79.29032258064517" fill="#555555" r="3.3125"><title>2022-02-08</title></circle><circle cx="94.25" cy="88.12903225806451" fill="#555555" r="3.3125"><title>2022-02-09</title></circle><circle cx="94.25" cy="96.96774193548387" fill="#518ea2" r="3.3125"><title>2022-02-10: 4 km</title></circle><circle cx="94.25" cy="105.80645161290322" fill="#555555" r="3.3125"><title>2022-02-11</title></circle><circle cx="94.25" cy="114.64516129032258" fill="#555555" r="3.3125"><title>2022-02-12</title></circle><circle cx="94.25" cy="123.48387096774194" fill="#555555" r="3.3125"><title>2022-02-13</title></circle><circle cx="94.25" cy="132.32258064516128" fill="#555555" r="3.3125"><title>2022-02-14</title></circle><circle cx="94.25" cy="141.16129032258064" fill="#555555" r="3.3125"><title>2022-02-15</title></circle><circle cx="94.25" cy="149.99999999999997" fill="#555555" r="3.3125"><title>2022-02-16</title></circle><circle cx="94.25" cy="158.83870967741933" fill="#555555" r="3.3125"><title>2022-02-17</title></circle><circle cx="94.25" cy="167.6774193548387" fill="#555555" r="3.3125"><title>2022-02-18</title></circle><circle cx="94.25" cy="176.51612903225805" fill="#555555" r="3.3125"><title>2022-02-19</title></circle><circle cx="94.25" cy="185.35483870967738" fill="#555555" r="3.3125"><title>2022-02-20</title></circle><circle cx="94.25" cy="194.19354838709674" fill="#555555" r="3.3125"><title>2022-02-21</title></circle><circle cx="94.25" cy="203.0322580645161" fill="#555555" r="3.3125"><title>2022-02-22</title></circle><circle cx="94.25" cy="211.87096774193546" fill="#4ec1e8" r="3.3125"><title>2022-02-23: 8 km</title></circle><circle cx="94.25" cy="220.70967741935482" fill="#555555" r="3.3125"><title>2022-02-24</title></circle><circle cx="94.25" cy="229.54838709677418" fill="#4fabca" r="3.3125"><title>2022-02-25: 6 km</title></circle><circle cx="94.25" cy="238.3870967741935" fill="#527e8d" r="3.3125"><title>2022-02-26: 3 km</title></circle><circle cx="94.25" cy="247.22580645161287" fill="#555555" r="3.3125"><title>2022-02-27</title></circle><circle cx="94.25" cy="256.06451612903226" fill="#555555" r="3.3125"><title>2022-02-28</title></circle><circle cx="103.08333333333334" cy="17.419354838709676" fill="#555555" r="3.3125"><title>2022-03-01</title></circle><circle cx="103.08333333333334" cy="26.25806451612903" fill="#4faccc" r="3.3125"><title>2022-03-02: 7 km</title></circle><circle cx="103.08333333333334" cy="35.096774193548384" fill="#4dcdf9" r="3.3125"><title>2022-03-03: 9 km</title></circle><circle cx="103.08333333333334" cy="43.935483870967744" fill="#555555" r="3.3125"><title>2022-03-04</title></circle><circle cx="103.08333333333334" cy="52.774193548387096" fill="#555555" r="3.3125"><title>2022-03-05</title></circle><circle cx="103.08333333333334" cy="61.61290322580645" fill="#4eb8dc" r="3.3125"><title>2022-03-06: 7 km</title></circle><circle cx="103.08333333333334" cy="70.45161290322581" fill="#555555" r="3.3125"><title>2022-03-07</title></circle><circle cx="103.08333333333334" cy="79.29032258064517" fill="#53707a" r="3.3125"><title>2022-03-08: 2 km</title></circle><circle cx="103.08333333333334" cy="88.12903225806451" fill="#555555" r="3.3125"><title>2022-03-09</title></circle><circle cx="103.08333333333334" cy="96.96774193548387" fill="#FFFF00" r="3.3125"><title>2022-03-10: 11 km</title></circle><circle cx="103.08333333333334" cy="105.80645161290322" fill="#4ebde2" r="3.3125"><title>2022-03-11: 8 km</title></circle><circle cx="103.08333333333334" cy="114.64516129032258" fill="#555555" r="3.3125"><title>2022-03-12</title></circle><circle cx="103.08333333333334" cy="123.48387096774194" fill="#4dcbf5" r="3.3125"><title>2022-03-13: 9 km</title></circle><circle cx="103.08333333333334" cy="132.32258064516128" fill="#555555" r="3.3125"><title>2022-03-14</title></circle><circle cx="103.08333333333334" cy="141.16129032258064" fill="#555555" r="3.3125"><title>2022-03-15</title></circle><circle cx="103.08333333333334" cy="149.99999999999997" fill="#FFFF00" r="3.3125"><title>2022-03-16: 13 km</title></circle><circle cx="103.08333333333334" cy="158.83870967741933" fill="#FFFF00" r="3.3125"><title>2022-03-17: 13 km</title></circle><circle cx="103.08333333333334" cy="167.6774193548387" fill="#FFFF00" r="3.3125"><title>2022-03-18: 13 km</title></circle><circle cx="103.08333333333334" cy="176.51612903225805" fill="#555555" r="3.3125"><title>2022-03-19</title></circle><circle cx="103.08333333333334" cy="185.35483870967738" fill="#FFFF00" r="3.3125"><title>2022-03-20: 17 km</title></circle><circle cx="103.08333333333334" cy="194.19354838709674" fill="#555555" r="3.3125"><title>2022-03-21</title></circle><circle cx="103.08333333333334" cy="203.0322580645161" fill="#FFFF00" r="3.3125"><title>2022-03-22: 13 km</title></circle><circle cx="103.08333333333334" cy="211.87096774193546" fill="#51889a" r="3.3125"><title>2022-03-23: 4 km</title></circle><circle cx="103.08333333333334" cy="220.70967741935482" fill="#555555" r="3.3125"><title>2022-03-24</title></circle><circle cx="103.08333333333334" cy="229.54838709677418" fill="#FFFF00" r="3.3125"><title>2022-03-25: 13 km</title></circle><circle cx="103.08333333333334" cy="238.3870967741935" fill="#555555" r="3.3125"><title>2022-03-26</title></circle><circle cx="103.08333333333334" cy="247.22580645161287" fill="#FFFF00" r="3.3125"><title>2022-03-27: 13 km</title></circle><circle cx="103.08333333333334" cy="256.06451612903226" fill="#555555" r="3.3125"><title>2022-03-28</title></circle><circle cx="103.08333333333334" cy="264.90322580645164" fill="#555555" r="3.3125"><title>2022-03-29</title></circle><circle cx="103.08333333333334" cy="273.741935483871" fill="#FFFF00" r="3.3125"><title>2022-03-30: 10 km</title></circle><circle cx="103.08333333333334" cy="282.5806451612903" fill="#4dccf7" r="3.3125"><title>2022-03-31: 9 km</title></circle><circle cx="111.91666666666667" cy="17.419354838709676" fill="#555555" r="3.3125"><title>2022-04-01</title></circle><circle cx="111.91666666666667" cy="26.25806451612903" fill="#4dc3ea" r="3.3125"><title>2022-04-02: 8 km</title></circle><circle cx="111.91666666666667" cy="35.096774193548384" fill="#555555" r="3.3125"><title>2022-04-03</title></circle><circle cx="111.91666666666667" cy="43.935483870967744" fill="#FFFF00" r="3.3125"><title>2022-04-04: 10 km</title></circle><circle cx="111.91666666666667" cy="52.774193548387096" fill="#4ebde3" r="3.3125"><title>2022-04-05: 8 km</title></circle><circle cx="111.91666666666667" cy="61.61290322580645" fill="#555555" r="3.3125"><title>2022-04-06</title></circle><circle cx="111.91666666666667" cy="70.45161290322581" fill="#FFFF00" r="3.3125"><title>2022-04-07: 10 km</title></circle><circle cx="111.91666666666667" cy="79.29032258064517" fill="#4eb9dd" r="3.3125"><title>2022-04-08: 8 km</title></circle><circle cx="111.91666666666667" cy="88.12903225806451" fill="#555555" r="3.3125"><title>2022-04-09</title></circle><circle cx="111.91666666666667" cy="96.96774193548387" fill="#555555" r="3.3125"><title>2022-04-10</title></circle><circle cx="111.91666666666667" cy="105.80645161290322" fill="#4dcdf8" r="3.3125"><title>2022-04-11: 9 km</title></circle><circle cx="111.91666666666667" cy="114.64516129032258" fill="#555555" r="3.3125"><title>2022-04-12</title></circle><circle cx="111.91666666666667" cy="123.48387096774194" fill="#4dcdf8" r="3.3125"><title>2022-04-13: 9 km</title></circle><circle cx="111.91666666666667" cy="132.32258064516128" fill="#FFFF00" r="3.3125"><title>2022-04-14: 10 km</title></circle><circle cx="111.91666666666667" cy="141.16129032258064" fill="#555555" r="3.3125"><title>2022-04-15</title></circle><circle cx="111.91666666666667" cy="149.99999999999997" fill="#FFFF00" r="3.3125"><title>2022-04-16: 44 km</title></circle><circle cx="111.91666666666667" cy="158.83870967741933" fill="#FFFF00" r="3.3125"><title>2022-04-17: 26 km</title></circle><circle cx="111.91666666666667" cy="167.6774193548387" fill="#555555" r="3.3125"><title>2022-04-18</title></circle><circle cx="111.91666666666667" cy="176.51612903225805" fill="#FFFF00" r="3.3125"><title>2022-04-19: 21 km</title></circle><circle cx="111.91666666666667" cy="185.35483870967738" fill="#FFFF00" r="3.3125"><title>2022-04-20: 10 km</title></circle><circle cx="111.91666666666667" cy="194.19354838709674" fill="#555555" r="3.3125"><title>2022-04-21</title></circle><circle cx="111.91666666666667" cy="203.0322580645161" fill="#FFFF00" r="3.3125"><title>2022-04-22: 15 km</title></circle><circle cx="111.91666666666667" cy="211.87096774193546" fill="#5094ab" r="3.3125"><title>2022-04-23: 5 km</title></circle><circle cx="111.91666666666667" cy="220.70967741935482" fill="#555555" r="3.3125"><title>2022-04-24</title></circle><circle cx="111.91666666666667" cy="229.54838709677418" fill="#4ec1e7" r="3.3125"><title>2022-04-25: 8 km</title></circle><circle cx="111.91666666666667" cy="238.3870967741935" fill="#4faccc" r="3.3125"><title>2022-04-26: 7 km</title></circle><circle cx="111.91666666666667" cy="247.22580645161287" fill="#FFFF00" r="3.3125"><title>2022-04-27: 13 km</title></circle><circle cx="111.91666666666667" cy="256.06451612903226" fill="#4dc9f3" r="3.3125"><title>2022-04-28: 9 km</title></circle><circle cx="111.91666666666667" cy="264.90322580645164" fill="#FFFF00" r="3.3125"><title>2022-04-29: 11 km</title></circle><circle cx="111.91666666666667" cy="273.741935483871" fill="#FFFF00" r="3.3125"><title>2022-04-30: 15 km</title></circle><circle cx="120.75000000000001" cy="17.419354838709676" fill="#555555" r="3.3125"><title>2022-05-01</title></circle><circle cx="120.75000000000001" cy="26.25806451612903" fill="#5192a9" r="3.3125"><title>2022-05-02: 4 km</title></circle><circle cx="120.75000000000001" cy="35.096774193548384" fill="#5093aa" r="3.3125"><title>2022-05-03: 5 km</title></circle><circle cx="120.75000000000001" cy="43.935483870967744" fill="#555555" r="3.3125"><title>2022-05-04</title></circle><circle cx="120.75000000000001" cy="52.774193548387096" fill="#FFFF00" r="3.3125"><title>2022-05-05: 17 km</title></circle><circle cx="120.75000000000001" cy="61.61290322580645" fill="#4dc9f3" r="3.3125"><title>2022-05-06: 9 km</title></circle><circle cx="120.75000000000001" cy="70.45161290322581" fill="#555555" r="3.3125"><title>2022-05-07</title></circle><circle cx="120.75000000000001" cy="79.29032258064517" fill="#FFFF00" r="3.3125"><title>2022-05-08: 19 km</title></circle><circle cx="120.75000000000001" cy="88.12903225806451" fill="#4dcbf5" r="3.3125"><title>2022-05-09: 9 km</title></circle><circle cx="120.75000000000001" cy="96.96774193548387" fill="#555555" r="3.3125"><title>2022-05-10</title></circle><circle cx="120.75000000000001" cy="105.80645161290322" fill="#555555" r="3.3125"><title>2022-05-11</title></circle><circle cx="120.75000000000001" cy="114.64516129032258" fill="#FFFF00" r="3.3125"><title>2022-05-12: 19 km</title></circle><circle cx="120.75000000000001" cy="123.48387096774194" fill="#555555" r="3.3125"><title>2022-05-13</title></circle><circle cx="120.75000000000001" cy="132.32258064516128" fill="#555555" r="3.3125"><title>2022-05-14</title></circle><circle cx="120.75000000000001" cy="141.16129032258064" fill="#4ebade" r="3.3125"><title>2022-05-15: 8 km</title></circle><circle cx="120.75000000000001" cy="149.99999999999997" fill="#FFFF00" r="3.3125"><title>2022-05-16: 11 km</title></circle><circle cx="120.75000000000001" cy="158.83870967741933" fill="#555555" r="3.3125"><title>2022-05-17</title></circle><circle cx="120.75000000000001" cy="167.6774193548387" fill="#555555" r="3.3125"><title>2022-05-18</title></circle><circle cx="120.75000000000001" cy="176.51612903225805" fill="#FFFF00" r="3.3125"><title>2022-05-19: 30 km</title></circle><circle cx="120.75000000000001" cy="185.35483870967738" fill="#555555" r="3.3125"><title>2022-05-20</title></circle><circle cx="120.75000000000001" cy="194.19354838709674" fill="#555555" r="3.3125"><title>2022-05-21</title></circle><circle cx="120.75000000000001" cy="203.0322580645161" fill="#FFFF00" r="3.3125"><title>2022-05-22: 12 km</title></circle><circle cx="120.75000000000001" cy="211.87096774193546" fill="#FFFF00" r="3.3125"><title>2022-05-23: 20 km</title></circle><circle cx="120.75000000000001" cy="220.70967741935482" fill="#555555" r="3.3125"><title>2022-05-24</title></circle><circle cx="120.75000000000001" cy="229.54838709677418" fill="#4fa9c8" r="3.3125"><title>2022-05-25: 6 km</title></circle><circle cx="120.75000000000001" cy="238.3870967741935" fill="#FFFF00" r="3.3125"><title>2022-05-26: 13 km</title></circle><circle cx="120.75000000000001" cy="247.22580645161287" fill="#FFFF00" r="3.3125"><title>2022-05-27: 20 km</title></circle><circle cx="120.75000000000001" cy="256.06451612903226" fill="#518b9f" r="3.3125"><title>2022-05-28: 4 km</title></circle><circle cx="120.75000000000001" cy="264.90322580645164" fill="#FFFF00" r="3.3125"><title>2022-05-29: 12 km</title></circle><circle cx="120.75000000000001" cy="273.741935483871" fill="#4dd0fc" r="3.3125"><title>2022-05-30: 9 km</title></circle><circle cx="120.75000000000001" cy="282.5806451612903" fill="#FFFF00" r="3.3125"><title>2022-05-31: 21 km</title></circle><circle cx="129.58333333333334" cy="17.419354838709676" fill="#555555" r="3.3125"><title>2022-06-01</title></circle><circle cx="129.58333333333334" cy="26.25806451612903" fill="#555555" r="3.3125"><title>2022-06-02</title></circle><circle cx="129.58333333333334" cy="35.096774193548384" fill="#FFFF00" r="3.3125"><title>2022-06-03: 31 km</title></circle><circle cx="129.58333333333334" cy="43.935483870967744" fill="#555555" r="3.3125"><title>2022-06-04</title></circle><circle cx="129.58333333333334" cy="52.774193548387096" fill="#555555" r="3.3125"><title>2022-06-05</title></circle><circle cx="129.58333333333334" cy="61.61290322580645" fill="#FFFF00" r="3.3125"><title>2022-06-06: 13 km</title></circle><circle cx="129.58333333333334" cy="70.45161290322581" fill="#555555" r="3.3125"><title>2022-06-07</title></circle><circle cx="129.58333333333334" cy="79.29032258064517" fill="#5190a6" r="3.3125"><title>2022-06-08: 4 km</title></circle><circle cx="129.58333333333334" cy="88.12903225806451" fill="#555555" r="3.3125"><title>2022-06-09</title></circle><circle cx="129.58333333333334" cy="96.96774193548387" fill="#4eb9dd" r="3.3125"><title>2022-06-10: 8 km</title></circle><circle cx="129.58333333333334" cy="105.80645161290322" fill="#555555" r="3.3125"><title>2022-06-11</title></circle><circle cx="129.58333333333334" cy="114.64516129032258" fill="#555555" r="3.3125"><title>2022-06-12</title></circle><circle cx="129.58333333333334" cy="123.48387096774194" fill="#555555" r="3.3125"><title>2022-06-13</title></circle><circle cx="129.58333333333334" cy="132.32258064516128" fill="#555555" r="3.3125"><title>2022-06-14</title></circle><circle cx="129.58333333333334" cy="141.16129032258064" fill="#FFFF00" r="3.3125"><title>2022-06-15: 11 km</title></circle><circle cx="129.58333333333334" cy="149.99999999999997" fill="#555555" r="3.3125"><title>2022-06-16</title></circle><circle cx="129.58333333333334" cy="158.83870967741933" fill="#555555" r="3.3125"><title>2022-06-17</title></circle><circle cx="129.58333333333334" cy="167.6774193548387" fill="#555555" r="3.3125"><title>2022-06-18</title></circle><circle cx="129.58333333333334" cy="176.51612903225805" fill="#555555" r="3.3125"><title>2022-06-19</title></circle><circle cx="129.58333333333334" cy="185.35483870967738" fill="#555555" r="3.3125"><title>2022-06-20</title></circle><circle cx="129.58333333333334" cy="194.19354838709674" fill="#4dcbf6" r="3.3125"><title>2022-06-21: 9 km</title></circle><circle cx="129.58333333333334" cy="203.0322580645161" fill="#FFFF00" r="3.3125"><title>2022-06-22: 20 km</title></circle><circle cx="129.58333333333334" cy="211.87096774193546" fill="#555555" r="3.3125"><title>2022-06-23</title></circle><circle cx="129.58333333333334" cy="220.70967741935482" fill="#4dcffb" r="3.3125"><title>2022-06-24: 9 km</title></circle><circle cx="129.58333333333334" cy="229.54838709677418" fill="#53717b" r="3.3125"><title>2022-06-25: 2 km</title></circle><circle cx="129.58333333333334" cy="238.3870967741935" fill="#555555" r="3.3125"><title>2022-06-26</title></circle><circle cx="129.58333333333334" cy="247.22580645161287" fill="#555555" r="3.3125"><title>2022-06-27</title></circle><circle cx="129.58333333333334" cy="256.06451612903226" fill="#555555" r="3.3125"><title>2022-06-28</title></circle><circle cx="129.58333333333334" cy="264.90322580645164" fill="#FFFF00" r="3.3125"><title>2022-06-29: 11 km</title></circle><circle cx="129.58333333333334" cy="273.741935483871" fill="#555555" r="3.3125"><title>2022-06-30</title></circle><circle cx="138.41666666666666" cy="17.419354838709676" fill="#4faccb" r="3.3125"><title>2022-07-01: 6 km</title></circle><circle cx="138.41666666666666" cy="26.25806451612903" fill="#FFFF00" r="3.3125"><title>2022-07-02: 26 km</title></circle><circle cx="138.41666666666666" cy="35.096774193548384" fill="#555555" r="3.3125"><title>2022-07-03</title></circle><circle cx="138.41666666666666" cy="43.935483870967744" fill="#555555" r="3.3125"><title>2022-07-04</title></circle><circle cx="138.41666666666666" cy="52.774193548387096" fill="#5093aa" r="3.3125"><title>2022-07-05: 5 km</title></circle><circle cx="138.41666666666666" cy="61.61290322580645" fill="#FFFF00" r="3.3125"><title>2022-07-06: 20 km</title></circle><circle cx="138.41666666666666" cy="70.45161290322581" fill="#4dcbf5" r="3.3125"><title>2022-07-07: 9 km</title></circle><circle cx="138.41666666666666" cy="79.29032258064517" fill="#546369" r="3.3125"><title>2022-07-08: 1 km</title></circle><circle cx="138.41666666666666" cy="88.12903225806451" fill="#555555" r="3.3125"><title>2022-07-09</title></circle><circle cx="138.41666666666666" cy="96.96774193548387" fill="#FFFF00" r="3.3125"><title>2022-07-10: 20 km</title></circle><circle cx="138.41666666666666" cy="105.80645161290322" fill="#555555" r="3.3125"><title>2022-07-11</title></circle><circle cx="138.41666666666666" cy="114.64516129032258" fill="#4eb3d4" r="3.3125"><title>2022-07-12: 7 km</title></circle><circle cx="138.41666666666666" cy="123.48387096774194" fill="#4dd1fe" r="3.3125"><title>2022-07-13: 9 km</title></circle><circle cx="138.41666666666666" cy="132.32258064516128" fill="#FFFF00" r="3.3125"><title>2022-07-14: 13 km</title></circle><circle cx="138.41666666666666" cy="141.16129032258064" fill="#555555" r="3.3125"><title>2022-07-15</title></circle><circle cx="138.41666666666666" cy="149.99999999999997" fill="#555555" r="3.3125"><title>2022-07-16</title></circle><circle cx="138.41666666666666" cy="158.83870967741933" fill="#555555" r="3.3125"><title>2022-07-17</title></circle><circle cx="138.41666666666666" cy="167.6774193548387" fill="#4faac9" r="3.3125"><title>2022-07-18: 6 km</title></circle><circle cx="138.41666666666666" cy="176.51612903225805" fill="#536b74" r="3.3125"><title>2022-07-19: 1 km</title></circle><circle cx="138.41666666666666" cy="185.35483870967738" fill="#5097af" r="3.3125"><title>2022-07-20: 5 km</title></circle><circle cx="138.41666666666666" cy="194.19354838709674" fill="#555555" r="3.3125"><title>2022-07-21</title></circle><circle cx="138.41666666666666" cy="203.0322580645161" fill="#FFFF00" r="3.3125"><title>2022-07-22: 105 km</title></circle><circle cx="138.41666666666666" cy="211.87096774193546" fill="#555555" r="3.3125"><title>2022-07-23</title></circle><circle cx="138.41666666666666" cy="220.70967741935482" fill="#555555" r="3.3125"><title>2022-07-24</title></circle><circle cx="138.41666666666666" cy="229.54838709677418" fill="#555555" r="3.3125"><title>2022-07-25</title></circle><circle cx="138.41666666666666" cy="238.3870967741935" fill="#555555" r="3.3125"><title>2022-07-26</title></circle><circle cx="138.41666666666666" cy="247.22580645161287" fill="#555555" r="3.3125"><title>2022-07-27</title></circle><circle cx="138.41666666666666" cy="256.06451612903226" fill="#FFFF00" r="3.3125"><title>2022-07-28: 11 km</title></circle><circle cx="138.41666666666666" cy="264.90322580645164" fill="#FFFF00" r="3.3125"><title>2022-07-29: 55 km</title></circle><circle cx="138.41666666666666" cy="273.741935483871" fill="#4eb7da" r="3.3125"><title>2022-07-30: 7 km</title></circle><circle cx="138.41666666666666" cy="282.5806451612903" fill="#FFFF00" r="3.3125"><title>2022-07-31: 10 km</title></circle><circle cx="147.25" cy="17.419354838709676" fill="#4ebce1" r="3.3125"><title>2022-08-01: 8 km</title></circle><circle cx="147.25" cy="26.25806451612903" fill="#555555" r="3.3125"><title>2022-08-02</title></circle><circle cx="147.25" cy="35.096774193548384" fill="#5095ac" r="3.3125"><title>2022-08-03: 5 km</title></circle><circle cx="147.25" cy="43.935483870967744" fill="#518ca0" r="3.3125"><title>2022-08-04: 4 km</title></circle><circle cx="147.25" cy="52.774193548387096" fill="#528090" r="3.3125"><title>2022-08-05: 3 km</title></circle><circle cx="147.25" cy="61.61290322580645" fill="#5098b0" r="3.3125"><title>2022-08-06: 5 km</title></circle><circle cx="147.25" cy="70.45161290322581" fill="#509fba" r="3.3125"><title>2022-08-07: 5 km</title></circle><circle cx="147.25" cy="79.29032258064517" fill="#555555" r="3.3125"><title>2022-08-08</title></circle><circle cx="147.25" cy="88.12903225806451" fill="#FFFF00" r="3.3125"><title>2022-08-09: 10 km</title></circle><circle cx="147.25" cy="96.96774193548387" fill="#FFFF00" r="3.3125"><title>2022-08-10: 13 km</title></circle><circle cx="147.25" cy="105.80645161290322" fill="#527f8f" r="3.3125"><title>2022-08-11: 3 km</title></circle><circle cx="147.25" cy="114.64516129032258" fill="#518597" r="3.3125"><title>2022-08-12: 3 km</title></circle><circle cx="147.25" cy="123.48387096774194" fill="#4fa9c7" r="3.3125"><title>2022-08-13: 6 km</title></circle><circle cx="147.25" cy="132.32258064516128" fill="#555555" r="3.3125"><title>2022-08-14</title></circle><circle cx="147.25" cy="141.16129032258064" fill="#FFFF00" r="3.3125"><title>2022-08-15: 53 km</title></circle><circle cx="147.25" cy="149.99999999999997" fill="#546166" r="3.3125"><title>2022-08-16: 1 km</title></circle><circle cx="147.25" cy="158.83870967741933" fill="#555555" r="3.3125"><title>2022-08-17</title></circle><circle cx="147.25" cy="167.6774193548387" fill="#555555" r="3.3125"><title>2022-08-18</title></circle><circle cx="147.25" cy="176.51612903225805" fill="#555555" r="3.3125"><title>2022-08-19</title></circle><circle cx="147.25" cy="185.35483870967738" fill="#546267" r="3.3125"><title>2022-08-20: 1 km</title></circle><circle cx="147.25" cy="194.19354838709674" fill="#518494" r="3.3125"><title>2022-08-21: 3 km</title></circle><circle cx="147.25" cy="203.0322580645161" fill="#4dc6ef" r="3.3125"><title>2022-08-22: 9 km</title></circle><circle cx="147.25" cy="211.87096774193546" fill="#555555" r="3.3125"><title>2022-08-23</title></circle><circle cx="147.25" cy="220.70967741935482" fill="#4fabcb" r="3.3125"><title>2022-08-24: 6 km</title></circle><circle cx="147.25" cy="229.54838709677418" fill="#4eb6d9" r="3.3125"><title>2022-08-25: 7 km</title></circle><circle cx="147.25" cy="238.3870967741935" fill="#4eb5d7" r="3.3125"><title>2022-08-26: 7 km</title></circle><circle cx="147.25" cy="247.22580645161287" fill="#555555" r="3.3125"><title>2022-08-27</title></circle><circle cx="147.25" cy="256.06451612903226" fill="#5099b2" r="3.3125"><title>2022-08-28: 5 km</title></circle><circle cx="147.25" cy="264.90322580645164" fill="#4ebce1" r="3.3125"><title>2022-08-29: 8 km</title></circle><circle cx="147.25" cy="273.741935483871" fill="#555555" r="3.3125"><title>2022-08-30</title></circle><circle cx="147.25" cy="282.5806451612903" fill="#4fa6c3" r="3.3125"><title>2022-08-31: 6 km</title></circle><circle cx="156.08333333333334" cy="17.419354838709676" fill="#555555" r="3.3125"><title>2022-09-01</title></circle><circle cx="156.08333333333334" cy="26.25806451612903" fill="#555555" r="3.3125"><title>2022-09-02</title></circle><circle cx="156.08333333333334" cy="35.096774193548384" fill="#555555" r="3.3125"><title>2022-09-03</title></circle><circle cx="156.08333333333334" cy="43.935483870967744" fill="#FFFF00" r="3.3125"><title>2022-09-04: 15 km</title></circle><circle cx="156.08333333333334" cy="52.774193548387096" fill="#FFFF00" r="3.3125"><title>2022-09-05: 12 km</title></circle><circle cx="156.08333333333334" cy="61.61290322580645" fill="#555555" r="3.3125"><title>2022-09-06</title></circle><circle cx="156.08333333333334" cy="70.45161290322581" fill="#555555" r="3.3125"><title>2022-09-07</title></circle><circle cx="156.08333333333334" cy="79.29032258064517" fill="#4dd0fc" r="3.3125"><title>2022-09-08: 9 km</title></circle><circle cx="156.08333333333334" cy="88.12903225806451" fill="#4eb3d5" r="3.3125"><title>2022-09-09: 7 km</title></circle><circle cx="156.08333333333334" cy="96.96774193548387" fill="#FFFF00" r="3.3125"><title>2022-09-10: 17 km</title></circle><circle cx="156.08333333333334" cy="105.80645161290322" fill="#555555" r="3.3125"><title>2022-09-11</title></circle><circle cx="156.08333333333334" cy="114.64516129032258" fill="#555555" r="3.3125"><title>2022-09-12</title></circle><circle cx="156.08333333333334" cy="123.48387096774194" fill="#555555" r="3.3125"><title>2022-09-13</title></circle><circle cx="156.08333333333334" cy="132.32258064516128" fill="#FFFF00" r="3.3125"><title>2022-09-14: 31 km</title></circle><circle cx="156.08333333333334" cy="141.16129032258064" fill="#555555" r="3.3125"><title>2022-09-15</title></circle><circle cx="156.08333333333334" cy="149.99999999999997" fill="#555555" r="3.3125"><title>2022-09-16</title></circle><circle cx="156.08333333333334" cy="158.83870967741933" fill="#FFFF00" r="3.3125"><title>2022-09-17: 10 km</title></circle><circle cx="156.08333333333334" cy="167.6774193548387" fill="#5093aa" r="3.3125"><title>2022-09-18: 5 km</title></circle><circle cx="156.08333333333334" cy="176.51612903225805" fill="#FFFF00" r="3.3125"><title>2022-09-19: 31 km</title></circle><circle cx="156.08333333333334" cy="185.35483870967738" fill="#5096ae" r="3.3125"><title>2022-09-20: 5 km</title></circle><circle cx="156.08333333333334" cy="194.19354838709674" fill="#FFFF00" r="3.3125"><title>2022-09-21: 15 km</title></circle><circle cx="156.08333333333334" cy="203.0322580645161" fill="#555555" r="3.3125"><title>2022-09-22</title></circle><circle cx="156.08333333333334" cy="211.87096774193546" fill="#5093aa" r="3.3125"><title>2022-09-23: 5 km</title></circle><circle cx="156.08333333333334" cy="220.70967741935482" fill="#FFFF00" r="3.3125"><title>2022-09-24: 28 km</title></circle><circle cx="156.08333333333334" cy="229.54838709677418" fill="#555555" r="3.3125"><title>2022-09-25</title></circle><circle cx="156.08333333333334" cy="238.3870967741935" fill="#FFFF00" r="3.3125"><title>2022-09-26: 21 km</title></circle><circle cx="156.08333333333334" cy="247.22580645161287" fill="#527783" r="3.3125"><title>2022-09-27: 2 km</title></circle><circle cx="156.08333333333334" cy="256.06451612903226" fill="#4ebde3" r="3.3125"><title>2022-09-28: 8 km</title></circle><circle cx="156.08333333333334" cy="264.90322580645164" fill="#FFFF00" r="3.3125"><title>2022-09-29: 15 km</title></circle><circle cx="156.08333333333334" cy="273.741935483871" fill="#FFFF00" r="3.3125"><title>2022-09-30: 10 km</title></circle><circle cx="164.91666666666666" cy="17.419354838709676" fill="#555555" r="3.3125"><title>2022-10-01</title></circle><circle cx="164.91666666666666" cy="26.25806451612903" fill="#FFFF00" r="3.3125"><title>2022-10-02: 12 km</title></circle><circle cx="164.91666666666666" cy="35.096774193548384" fill="#5099b2" r="3.3125"><title>2022-10-03: 5 km</title></circle><circle cx="164.91666666666666" cy="43.935483870967744" fill="#FFFF00" r="3.3125"><title>2022-10-04: 16 km</title></circle><circle cx="164.91666666666666" cy="52.774193548387096" fill="#528292" r="3.3125"><title>2022-10-05: 3 km</title></circle><circle cx="164.91666666666666" cy="61.61290322580645" fill="#4ec0e7" r="3.3125"><title>2022-10-06: 8 km</title></circle><circle cx="164.91666666666666" cy="70.45161290322581" fill="#555555" r="3.3125"><title>2022-10-07</title></circle><circle cx="164.91666666666666" cy="79.29032258064517" fill="#FFFF00" r="3.3125"><title>2022-10-08: 10 km</title></circle><circle cx="164.91666666666666" cy="88.12903225806451" fill="#528394" r="3.3125"><title>2022-10-09: 3 km</title></circle><circle cx="164.91666666666666" cy="96.96774193548387" fill="#FFFF00" r="3.3125"><title>2022-10-10: 12 km</title></circle><circle cx="164.91666666666666" cy="105.80645161290322" fill="#555555" r="3.3125"><title>2022-10-11</title></circle><circle cx="164.91666666666666" cy="114.64516129032258" fill="#FFFF00" r="3.3125"><title>2022-10-12: 15 km</title></circle><circle cx="164.91666666666666" cy="123.48387096774194" fill="#555555" r="3.3125"><title>2022-10-13</title></circle><circle cx="164.91666666666666" cy="132.32258064516128" fill="#555555" r="3.3125"><title>2022-10-14</title></circle><circle cx="164.91666666666666" cy="141.16129032258064" fill="#555555" r="3.3125"><title>2022-10-15</title></circle><circle cx="164.91666666666666" cy="149.99999999999997" fill="#FFFF00" r="3.3125"><title>2022-10-16: 20 km</title></circle><circle cx="164.91666666666666" cy="158.83870967741933" fill="#555555" r="3.3125"><title>2022-10-17</title></circle><circle cx="164.91666666666666" cy="167.6774193548387" fill="#FFFF00" r="3.3125"><title>2022-10-18: 15 km</title></circle><circle cx="164.91666666666666" cy="176.51612903225805" fill="#555555" r="3.3125"><title>2022-10-19</title></circle><circle cx="164.91666666666666" cy="185.35483870967738" fill="#53656b" r="3.3125"><title>2022-10-20: 1 km</title></circle><circle cx="164.91666666666666" cy="194.19354838709674" fill="#4fafcf" r="3.3125"><title>2022-10-21: 7 km</title></circle><circle cx="164.91666666666666" cy="203.0322580645161" fill="#555555" r="3.3125"><title>2022-10-22</title></circle><circle cx="164.91666666666666" cy="211.87096774193546" fill="#FFFF00" r="3.3125"><title>2022-10-23: 12 km</title></circle><circle cx="164.91666666666666" cy="220.70967741935482" fill="#FFFF00" r="3.3125"><title>2022-10-24: 15 km</title></circle><circle cx="164.91666666666666" cy="229.54838709677418" fill="#555555" r="3.3125"><title>2022-10-25</title></circle><circle cx="164.91666666666666" cy="238.3870967741935" fill="#4dcef9" r="3.3125"><title>2022-10-26: 9 km</title></circle><circle cx="164.91666666666666" cy="247.22580645161287" fill="#51899c" r="3.3125"><title>2022-10-27: 4 km</title></circle><circle cx="164.91666666666666" cy="256.06451612903226" fill="#4ec0e6" r="3.3125"><title>2022-10-28: 8 km</title></circle><circle cx="164.91666666666666" cy="264.90322580645164" fill="#555555" r="3.3125"><title>2022-10-29</title></circle><circle cx="164.91666666666666" cy="273.741935483871" fill="#555555" r="3.3125"><title>2022-10-30</title></circle><circle cx="164.91666666666666" cy="282.5806451612903" fill="#FFFF00" r="3.3125"><title>2022-10-31: 12 km</title></circle><circle cx="173.75" cy="17.419354838709676" fill="#555555" r="3.3125"><title>2022-11-01</title></circle><circle cx="173.75" cy="26.25806451612903" fill="#555555" r="3.3125"><title>2022-11-02</title></circle><circle cx="173.75" cy="35.096774193548384" fill="#5093aa" r="3.3125"><title>2022-11-03: 5 km</title></circle><circle cx="173.75" cy="43.935483870967744" fill="#555555" r="3.3125"><title>2022-11-04</title></circle><circle cx="173.75" cy="52.774193548387096" fill="#FFFF00" r="3.3125"><title>2022-11-05: 70 km</title></circle><circle cx="173.75" cy="61.61290322580645" fill="#555555" r="3.3125"><title>2022-11-06</title></circle><circle cx="173.75" cy="70.45161290322581" fill="#FFFF00" r="3.3125"><title>2022-11-07: 10 km</title></circle><circle cx="173.75" cy="79.29032258064517" fill="#555555" r="3.3125"><title>2022-11-08</title></circle><circle cx="173.75" cy="88.12903225806451" fill="#555555" r="3.3125"><title>2022-11-09</title></circle><circle cx="173.75" cy="96.96774193548387" fill="#FFFF00" r="3.3125"><title>2022-11-10: 11 km</title></circle><circle cx="173.75" cy="105.80645161290322" fill="#555555" r="3.3125"><title>2022-11-11</title></circle><circle cx="173.75" cy="114.64516129032258" fill="#555555" r="3.3125"><title>2022-11-12</title></circle><circle cx="173.75" cy="123.48387096774194" fill="#FFFF00" r="3.3125"><title>2022-11-13: 15 km</title></circle><circle cx="173.75" cy="132.32258064516128" fill="#4ebfe6" r="3.3125"><title>2022-11-14: 8 km</title></circle><circle cx="173.75" cy="141.16129032258064" fill="#4ec1e8" r="3.3125"><title>2022-11-15: 8 km</title></circle><circle cx="173.75" cy="149.99999999999997" fill="#FFFF00" r="3.3125"><title>2022-11-16: 12 km</title></circle><circle cx="173.75" cy="158.83870967741933" fill="#555555" r="3.3125"><title>2022-11-17</title></circle><circle cx="173.75" cy="167.6774193548387" fill="#4dcbf6" r="3.3125"><title>2022-11-18: 9 km</title></circle><circle cx="173.75" cy="176.51612903225805" fill="#FFFF00" r="3.3125"><title>2022-11-19: 15 km</title></circle><circle cx="173.75" cy="185.35483870967738" fill="#FFFF00" r="3.3125"><title>2022-11-20: 14 km</title></circle><circle cx="173.75" cy="194.19354838709674" fill="#FFFF00" r="3.3125"><title>2022-11-21: 13 km</title></circle><circle cx="173.75" cy="203.0322580645161" fill="#555555" r="3.3125"><title>2022-11-22</title></circle><circle cx="173.75" cy="211.87096774193546" fill="#FFFF00" r="3.3125"><title>2022-11-23: 14 km</title></circle><circle cx="173.75" cy="220.70967741935482" fill="#FFFF00" r="3.3125"><title>2022-11-24: 12 km</title></circle><circle cx="173.75" cy="229.54838709677418" fill="#4dc8f1" r="3.3125"><title>2022-11-25: 9 km</title></circle><circle cx="173.75" cy="238.3870967741935" fill="#FFFF00" r="3.3125"><title>2022-11-26: 30 km</title></circle><circle cx="173.75" cy="247.22580645161287" fill="#FFFF00" r="3.3125"><title>2022-11-27: 13 km</title></circle><circle cx="173.75" cy="256.06451612903226" fill="#555555" r="3.3125"><title>2022-11-28</title></circle><circle cx="173.75" cy="264.90322580645164" fill="#FFFF00" r="3.3125"><title>2022-11-29: 12 km</title></circle><circle cx="173.75" cy="273.741935483871" fill="#4fa5c2" r="3.3125"><title>2022-11-30: 6 km</title></circle><circle cx="182.58333333333334" cy="17.419354838709676" fill="#FFFF00" r="3.3125"><title>2022-12-01: 14 km</title></circle><circle cx="182.58333333333334" cy="26.25806451612903" fill="#53727d" r="3.3125"><title>2022-12-02: 2 km</title></circle><circle cx="182.58333333333334" cy="35.096774193548384" fill="#4dcdf9" r="3.3125"><title>2022-12-03: 9 km</title></circle><circle cx="182.58333333333334" cy="43.935483870967744" fill="#FFFF00" r="3.3125"><title>2022-12-04: 26 km</title></circle><circle cx="182.58333333333334" cy="52.774193548387096" fill="#555555" r="3.3125"><title>2022-12-05</title></circle><circle cx="182.58333333333334" cy="61.61290322580645" fill="#FFFF00" r="3.3125"><title>2022-12-06: 21 km</title></circle><circle cx="182.58333333333334" cy="70.45161290322581" fill="#4dcaf4" r="3.3125"><title>2022-12-07: 9 km</title></circle><circle cx="182.58333333333334" cy="79.29032258064517" fill="#555555" r="3.3125"><title>2022-12-08</title></circle><circle cx="182.58333333333334" cy="88.12903225806451" fill="#FFFF00" r="3.3125"><title>2022-12-09: 15 km</title></circle><circle cx="182.58333333333334" cy="96.96774193548387" fill="#4dcdf8" r="3.3125"><title>2022-12-10: 9 km</title></circle><circle cx="182.58333333333334" cy="105.80645161290322" fill="#555555" r="3.3125"><title>2022-12-11</title></circle><circle cx="182.58333333333334" cy="114.64516129032258" fill="#555555" r="3.3125"><title>2022-12-12</title></circle><circle cx="182.58333333333334" cy="123.48387096774194" fill="#555555" r="3.3125"><title>2022-12-13</title></circle><circle cx="182.58333333333334" cy="132.32258064516128" fill="#4dcdf8" r="3.3125"><title>2022-12-14: 9 km</title></circle><circle cx="182.58333333333334" cy="141.16129032258064" fill="#555555" r="3.3125"><title>2022-12-15</title></circle><circle cx="182.58333333333334" cy="149.99999999999997" fill="#4dcef9" r="3.3125"><title>2022-12-16: 9 km</title></circle><circle cx="182.58333333333334" cy="158.83870967741933" fill="#4ec0e6" r="3.3125"><title>2022-12-17: 8 km</title></circle><circle cx="182.58333333333334" cy="167.6774193548387" fill="#FFFF00" r="3.3125"><title>2022-12-18: 18 km</title></circle><circle cx="182.58333333333334" cy="176.51612903225805" fill="#FFFF00" r="3.3125"><title>2022-12-19: 44 km</title></circle><circle cx="182.58333333333334" cy="185.35483870967738" fill="#555555" r="3.3125"><title>2022-12-20</title></circle><circle cx="182.58333333333334" cy="194.19354838709674" fill="#555555" r="3.3125"><title>2022-12-21</title></circle><circle cx="182.58333333333334" cy="203.0322580645161" fill="#555555" r="3.3125"><title>2022-12-22</title></circle><circle cx="182.58333333333334" cy="211.87096774193546" fill="#555555" r="3.3125"><title>2022-12-23</title></circle><circle cx="182.58333333333334" cy="220.70967741935482" fill="#FFFF00" r="3.3125"><title>2022-12-24: 37 km</title></circle><circle cx="182.58333333333334" cy="229.54838709677418" fill="#FFFF00" r="3.3125"><title>2022-12-25: 19 km</title></circle><circle cx="182.58333333333334" cy="238.3870967741935" fill="#FFFF00" r="3.3125"><title>2022-12-26: 15 km</title></circle><circle cx="182.58333333333334" cy="247.22580645161287" fill="#518da1" r="3.3125"><title>2022-12-27: 4 km</title></circle><circle cx="182.58333333333334" cy="256.06451612903226" fill="#FFFF00" r="3.3125"><title>2022-12-28: 11 km</title></circle><circle cx="182.58333333333334" cy="264.90322580645164" fill="#555555" r="3.3125"><title>2022-12-29</title></circle><circle cx="182.58333333333334" cy="273.741935483871" fill="#4dccf7" r="3.3125"><title>2022-12-30: 9 km</title></circle><circle cx="182.58333333333334" cy="282.5806451612903" fill="#FFFF00" r="3.3125"><title>2022-12-31: 24 km</title></circle></svg>