<?xml version="1.0" encoding="utf-8" ?>
<svg baseProfile="full" height="200mm" version="1.1" viewBox="0,0,200,200" width="200mm" xmlns="http://www.w3.org/2000/svg" xmlns:ev="http://www.w3.org/2001/xml-events" xmlns:xlink="http://www.w3.org/1999/xlink"><defs /><rect fill="#1a1a1a" height="200" width="200" x="0" y="0" /><rect fill="#1a1a1a" height="200" width="180" x="10" y="0" /><text alignment-baseline="middle" fill="#e1ed5e" style="dominant-baseline: central; font-size:9.0px; font-family:Arial;" text-anchor="middle" x="100.0" y="100.0">2026</text><line stroke="#e1ed5e" stroke-width="0.3" x1="100.0" x2="100.0" y1="15.0" y2="10.0" /><path d="M 100.0 14.0 a86.0,86.0 0 0,1 42.46469731375804,11.215312516191453" fill="none" id="id157" stroke="none" /><text fill="#e1ed5e" style="font-size:6.75px; font-family:Arial;" text-anchor="middle"><textPath startOffset="22.20632615414155" xlink:href="#id157">January</textPath></text><path d="M 100.0 79.0 l 0.0 -15.551594206650122 a36.55159420665012,36.55159420665012 0 0,0 0.6291756091426123,0.005415513105719384 l -0.2676951298700839 15.549290070152962" fill="#ffc912" stroke="none" /><path d="M 100.36148047927253 79.00311137660856 l 0.2805503371714581 -16.295995276699024 a37.29841006202396,37.29841006202396 0 0,0 0.6418405688569142,0.01657684827944639 l -0.5610175412232401 16.28875163627722" fill="#ffd213" stroke="none" /><path d="M 101.44485096284872 79.0497635885617 l 0.9282452345587882 -13.459490017887608 a34.49146066062149,34.49146066062149 0 0,0 0.5919552764433739,0.04594712231989412 l -1.1597907003645032 13.44151763337925" fill="#ffaf10" stroke="none" /><path d="M 101.80526077348638 79.07773832637324 l 0.2769777191968368 -3.210062725513638 a24.221989968740363,24.221989968740363 0 0,0 0.415089788648658,0.039417777044786544 l -0.332192634935739 3.2048194039536733" fill="#ff2303" stroke="none" /><path d="M 102.16513564639614 79.11191278185805 l 1.178864072261442 -11.37305905092736 a32.433992857998014,32.433992857998014 0 0,0 0.5548271510819359,0.062341295088306305 l -1.3744579268531032 11.351081802368453" fill="#ff940d" stroke="none" /><path d="M 102.88285421437855 79.19881850522331 l 1.1950817780248837 -8.623090561363941 a29.705510397768244,29.705510397768244 0 0,0 0.5058862843067155,0.07455448803695598 l -1.343337042760255 8.601241589166015" fill="#ff6f0a" stroke="none" /><path d="M 103.2404852339499 79.25152402106235 l 1.5068489717206432 -9.648190760469298 a30.76515124173613,30.76515124173613 0 0,0 0.5225252817451236,0.08622114865732466 l -1.672703459604642 9.62082334887235" fill="#ff7e0b" stroke="none" /><path d="M 103.95276090670814 79.375362276772 l 1.4812725881897022 -7.728954829753073 a28.86961951055358,28.86961951055358 0 0,0 0.4872553762115922,0.09773884460745719 l -1.61409437386842 7.702312029068407" fill="#ff6409" stroke="none" /><path d="M 104.307194497241 79.44645832069477 l 1.6100097851671173 -7.682820742067364 a28.84970483923277,28.84970483923277 0 0,0 0.4851658652380108,0.106038466547953 l -1.7420183745586562 7.6539687774235405" fill="#ff6409" stroke="none" /><path d="M 104.66035177308747 79.52364482259891 l 3.56129785587082 -15.647402457994476 a37.047555767177805,37.047555767177805 0 0,0 0.6205929797537193,0.1468743077526995 l -3.830114522587063 15.583782238100907" fill="#ffcf13" stroke="none" /><path d="M 105.01212808612495 79.60689891045804 l 0.6991888496153491 -2.8448253208768652 a23.92948735339967,23.92948735339967 0 0,0 0.39915651039142896,0.10175388208921707 l -0.7480542486918031 2.8323684426187805" fill="#ff1f03" stroke="none" /><path d="M 105.36241919743992 79.69619591428918 l 10.282289833164766 -38.931980257109025 a61.26691658114799,61.26691658114799 0 0,0 1.0173287206000539,0.27807436915505346 l -10.95091644298853 38.74921934712768" fill="#31ff3e" stroke="none" /><path d="M 105.71112130821622 79.79150937346287 l 1.7124851916135795 -6.059535260268452 a27.296870103625487,27.296870103625487 0 0,0 0.45106099769004626,0.1316770741326831 l -1.8165364070270529 6.029159857217065" fill="#ff4e07" stroke="none" /><path d="M 106.0581310904928 79.89281104454417 l 3.4328561580125037 -11.393792309047376 a32.89970607129905,32.89970607129905 0 0,0 0.5408314175871629,0.16803895407677405 l -3.628472948310385 11.33301322008808" fill="#ff9a0e" stroke="none" /><path d="M 106.40334571778207 80.00007090966166 l 1.205587748592947 -3.765479882974546 a24.95376789514046,24.95376789514046 0 0,0 0.4079551032465425,0.13449638351192317 l -1.270225674081907 3.7441697752033867" fill="#ff2e04" stroke="none" /><path d="M 106.74666289553966 80.11325718540242 l 0.2518889652736384 -0.7424783404464539 a21.784042177984542,21.784042177984542 0 0,0 0.35406121998051443,0.12352500747690698 l -0.26463218931742655 0.7380324797973394" fill="#ff0000" stroke="none" /><path d="M 107.08798089147638 80.2323363322302 l 2.644366261295214 -7.374870737947705 a28.83462770815013,28.83462770815013 0 0,0 0.4657721594463005,0.17154781713702294 l -2.7709207465140913 7.328259653004357" fill="#ff6409" stroke="none" /><path d="M 107.4271985657038 80.35727306442388 l 1.5451903760301733 -4.086568085037421 a25.368941749648613,25.368941749648613 0 0,0 0.4071314502749707,0.15796067754010826 l -1.6153049913048112 4.059364703606766" fill="#ff3304" stroke="none" /><path d="M 107.76421540070413 80.48803036053334 l 1.1765808588162299 -2.956822912656169 a24.182317434534344,24.182317434534344 0 0,0 0.3854386531463147,0.15723010440660473 l -1.2273033815509322 2.936131922065985" fill="#ff2303" stroke="none" /><path d="M 108.76106565485865 80.91482961587045 l 21.28247332886671 -46.36189770497358 a72.01342205538026,72.01342205538026 0 0,0 1.1221124178761195,0.5268468260776734 l -22.077363958042426 45.9886858962559" fill="#3effb7" stroke="none" /><path d="M 109.08828744355905 81.06846463323043 l 18.753091403581813 -39.063994767768975 a64.33213731640035,64.33213731640035 0 0,0 0.9941727149429679,0.4878362335778178 l -19.422735385535212 38.735403374056325" fill="#35ff62" stroke="none" /><path d="M 109.41281617654863 81.2277094730956 l 17.113304964834935 -34.12962992688455 a59.17979630335313,59.17979630335313 0 0,0 0.9066894670113144,0.4644415610131545 l -17.698254919435005 33.82999584055889" fill="#38ff2e" stroke="none" /><path d="M 109.73455568895987 81.39251694778311 l 25.159197440420684 -48.09149538390778 a75.27501399453061,75.27501399453061 0 0,0 1.1429433849907993,0.610520773626035 l -25.983285871939795 47.65129588377999" fill="#42ffd9" stroke="none" /><path d="M 110.36928655335952 81.73862282372117 l 31.107859660078564 -54.7841315288365 a84.0,84.0 0 0,0 1.2512130701386868,0.7247833704398019 l -32.04626946268258 54.24054400100664" fill="#4dd2ff" stroke="none" /><line stroke="#e1ed5e" stroke-width="0.3" x1="143.23703022742887" x2="145.7803849466894" y1="26.81831364943548" y2="22.513508569990506" /><path d="M 143.74570117128098 25.957352633546492 a86.0,86.0 0 0,1 28.547481713284135,27.462654790039103" fill="none" id="id158" stroke="none" /><text fill="#e1ed5e" style="font-size:6.75px; font-family:Arial;" text-anchor="middle"><textPath startOffset="19.985693538727396" xlink:href="#id158">February</textPath></text><path d="M 110.68208982089419 81.91981866633111 l 13.441408767459516 -22.750520915886796 a47.42456568419129,47.42456568419129 0 0,0 0.6992592632847107,0.42129588206373925 l -13.831030096961863 22.51577842436444" fill="#b3ff20" stroke="none" /><path d="M 110.99172775467656 82.1063720568725 l 24.9990474866417 -40.69639138107512 a68.76137190953597,68.76137190953597 0 0,0 1.0031984480804608,0.6282027761543821 l -25.695865087094422 40.26004426359779" fill="#3aff94" stroke="none" /><path d="M 111.2981086023043 82.29822771554956 l 6.370745400532766 -9.981625096030715 a32.84142037578768,32.84142037578768 0 0,0 0.4739063473306516,0.3082418708665214 l -6.541618773647698 9.870484301004666" fill="#ff990e" stroke="none" /><path d="M 112.77801427241765 83.33499621200491 l 6.986827061314654 -9.112174784012455 a32.482485866706355,32.482485866706355 0 0,0 0.44078338092882036,0.34403842040508026 l -7.142642997402905 8.990557974384151" fill="#ff940d" stroke="none" /><path d="M 113.34407831869373 83.78471172551755 l 2.3541117283721427 -2.860639708058248 a24.704740418569006,24.704740418569006 0 0,0 0.3260348861137076,0.273044840858857 l -2.403004151444968 2.8196937098055717" fill="#ff2a04" stroke="none" /><path d="M 113.6212207817346 84.01681056812373 l 3.9806370624901724 -4.6708938390194525 a27.136996063112658,27.136996063112658 0 0,0 0.35291818623497206,0.3060471733894115 l -4.060449047371908 4.60168167221037" fill="#ff4c07" stroke="none" /><path d="M 113.89432698308785 84.25364557470407 l 22.818148930408455 -25.85966638216746 a55.487537836257644,55.487537836257644 0 0,0 0.7107399049192895,0.6381093042098731 l -23.259899822923735 25.463058069188293" fill="#5cff2a" stroke="none" /><path d="M 114.16331599549186 84.49514656593476 l 25.6791560660152 -28.11146423907957 a59.07457784306761,59.07457784306761 0 0,0 0.7448801181424727,0.6922848898455045 l -26.15924406795252 27.665274763159427" fill="#39ff2e" stroke="none" /><path d="M 114.42810811169701 84.74124197986012 l 3.7792056860941283 -3.996780771672804 a26.50060470808616,26.50060470808616 0 0,0 0.32875483718381354,0.31626189289871254 l -3.8474437668903603 3.9311357920117898" fill="#ff4306" stroke="none" /><path d="M 114.68862486808459 84.99185889309783 l 5.766849704322254 -5.892293858822719 a29.244736650188507,29.244736650188507 0 0,0 0.3567359315863293,0.35520399412579184 l -5.867421436075906 5.792154014046809" fill="#ff6909" stroke="none" /><path d="M 115.19652480421416 85.50635884689758 l 9.653354294638056 -9.206858467499417 a34.33992098846064,34.33992098846064 0 0,0 0.40428336329999204,0.43126130412610714 l -9.81040497990851 9.039327746495255" fill="#ffad10" stroke="none" /><path d="M 115.4437574822437 85.77008943001954 l 2.308000565967077 -2.1265965673791696 a24.13835618961475,24.13835618961475 0 0,0 0.27892026830882366,0.30799072670962385 l -2.3442644748919363 2.0865530533999967" fill="#ff2203" stroke="none" /><path d="M 115.68641384162765 86.03803664274999 l 27.199790668439316 -24.20964310082333 a57.41339631888464,57.41339631888464 0 0,0 0.6507074030249601,0.7438710478058786 l -27.612489935042124 23.737856496814505" fill="#49ff2c" stroke="none" /><path d="M 115.9244219780498 86.31012108654704 l 2.9784441444829564 -2.5605035928247957 a24.92776121609671,24.92776121609671 0 0,0 0.27692295815442064,0.32778943645751263 l -3.0220777161244943 2.5088552067381764" fill="#ff2d04" stroke="none" /><path d="M 116.15771136456269 86.58626213691792 l 5.912272113461146 -4.908224099058501 a28.684115131242436,28.684115131242436 0 0,0 0.31211255052108544,0.3826130823354673 l -5.99588315605864 4.805726847114933" fill="#ff6109" stroke="none" /><path d="M 116.60985879189232 87.15038557335679 l 6.365311183235369 -4.924291978333924 a29.04772253170455,29.04772253170455 0 0,0 0.3025445618751386,0.3981131795527665 l -6.4491316853346214 4.813994022900125" fill="#ff6609" stroke="none" /><path d="M 116.82858285166822 87.43820079747576 l 19.75193915193118 -14.743956497943646 a45.64798883225255,45.64798883225255 0 0,0 0.4646038989053723,0.6337191959745645 l -20.002805663350177 14.401774858297587" fill="#c7ff1e" stroke="none" /><path d="M 117.45458315368197 88.32363383020206 l 9.251727457555662 -6.18900815599288 a32.130960556206986,32.130960556206986 0 0,0 0.30356622302539366,0.46235218414912477 l -9.35689031593898 6.028837907866081" fill="#ff900d" stroke="none" /><path d="M 117.65298651832404 88.62581576622439 l 6.129222568853115 -3.9491848382473824 a28.29132568091574,28.29132568091574 0 0,0 0.26024301843671516,0.4116419576708234 l -6.1962931835357855 3.843095232862353" fill="#ff5c08" stroke="none" /><line stroke="#e1ed5e" stroke-width="0.3" x1="172.23445277983987" x2="176.4835382374775" y1="55.19839476539836" y2="52.563006222186495" /><path d="M 173.08426987136738 54.67131705675599 a86.0,86.0 0 0,1 12.851231095245387,41.99856678651699" fill="none" id="id159" stroke="none" /><text fill="#e1ed5e" style="font-size:6.75px; font-family:Arial;" text-anchor="middle"><textPath startOffset="22.20632615414155" xlink:href="#id159">March</textPath></text><path d="M 117.84615892207809 88.93136811851018 l 6.360874079962664 -3.945172400572714 a28.484991939299704,28.484991939299704 0 0,0 0.25485142720660336,0.41890873765677444 l -6.427841305455492 3.835095889708858" fill="#ff5f08" stroke="none" /><path d="M 118.03404312379186 89.2402003453031 l 31.80153625134889 -18.974012451188365 a58.03175470381749,58.03175470381749 0 0,0 0.5044350187949028,0.862242962134273 l -32.12343094461412 18.423790076700197" fill="#43ff2d" stroke="none" /><path d="M 118.21658344932153 89.55222093294921 l 39.42421132304674 -22.611015448742418 a66.44806330381434,66.44806330381434 0 0,0 0.5605126983422571,0.9970895466632664 l -39.80758166268143 21.929042392144357" fill="#37ff7a" stroke="none" /><path d="M 118.56541770881063 90.18545643968196 l 5.552648775521375 -2.93538848073634 a27.280797238976803,27.280797238976803 0 0,0 0.2158957693804518,0.4170419081998202 l -5.602353978061943 2.8393738502761754" fill="#ff4e07" stroke="none" /><path d="M 118.73160827565052 90.50648371742162 l 52.824246745939845 -26.77227919875997 a80.22124599982925,80.22124599982925 0 0,0 0.613654281822573,1.2370895864624607 l -53.27726104071583 25.85903002379856" fill="#48f5ff" stroke="none" /><path d="M 118.89224826269711 90.83032412892265 l 5.666093087368049 -2.7501352059354898 a27.298242177436958,27.298242177436958 0 0,0 0.20154137010166553,0.4244975248915871 l -5.71259265131147 2.6521952654033623" fill="#ff4e07" stroke="none" /><line stroke="#e1ed5e" stroke-width="0.3" x1="184.98032266829074" x2="189.97916517819016" y1="98.17113171792111" y2="98.06355123074" /><path d="M 185.9800911702706 98.14961562048488 a86.0,86.0 0 0,1 -9.607161424134198,41.387399972396054" fill="none" id="id160" stroke="none" /><text fill="#e1ed5e" style="font-size:6.75px; font-family:Arial;" text-anchor="middle"><textPath startOffset="21.466115282336823" xlink:href="#id160">April</textPath></text><line stroke="#e1ed5e" stroke-width="0.3" x1="174.80103733775053" x2="179.2010983576182" y1="140.37084112569926" y2="142.7455964860345" /><path d="M 175.68104954172406 140.8457921977663 a86.0,86.0 0 0,1 -30.038265399797805,32.042727171017184" fill="none" id="id161" stroke="none" /><text fill="#e1ed5e" style="font-size:6.75px; font-family:Arial;" text-anchor="middle"><textPath startOffset="22.206326154141568" xlink:href="#id161">May</textPath></text><line stroke="#e1ed5e" stroke-width="0.3" x1="143.8653032363475" x2="146.44561519142675" y1="172.8068346515853" y2="177.08958963109032" /><path d="M 144.38136562736335 173.6633856474863 a86.0,86.0 0 0,1 -40.68145358897372,12.25698825130547" fill="none" id="id162" stroke="none" /><text fill="#e1ed5e" style="font-size:6.75px; font-family:Arial;" text-anchor="middle"><textPath startOffset="21.466115282336833" xlink:href="#id162">June</textPath></text><line stroke="#e1ed5e" stroke-width="0.3" x1="102.19456741930631" x2="102.32365962044197" y1="184.97166512339345" y2="189.96999836594603" /><path d="M 102.22038585953345 185.97133177190398 a86.0,86.0 0 0,1 -42.740103519485714,-10.115201625700543" fill="none" id="id163" stroke="none" /><text fill="#e1ed5e" style="font-size:6.75px; font-family:Arial;" text-anchor="middle"><textPath startOffset="22.20632615414155" xlink:href="#id163">July</textPath></text><line stroke="#e1ed5e" stroke-width="0.3" x1="58.666819895761336" x2="56.23545636021788" y1="174.27360380694188" y2="178.64263932499728" /><path d="M 58.180547188652646 175.14741091055294 a86.0,86.0 0 0,1 -31.652253787137756,-30.449443065178592" fill="none" id="id164" stroke="none" /><text fill="#e1ed5e" style="font-size:6.75px; font-family:Arial;" text-anchor="middle"><textPath startOffset="22.20632615414155" xlink:href="#id164">August</textPath></text><line stroke="#e1ed5e" stroke-width="0.3" x1="26.63291911575756" x2="22.317208475507996" y1="142.92168965132927" y2="145.44649492493687" /><path d="M 25.769776987707644 143.4266507060508 a86.0,86.0 0 0,1 -11.730757126820373,-40.83630448921669" fill="none" id="id165" stroke="none" /><text fill="#e1ed5e" style="font-size:6.75px; font-family:Arial;" text-anchor="middle"><textPath startOffset="21.46611528233685" xlink:href="#id165">September</textPath></text><line stroke="#e1ed5e" stroke-width="0.3" x1="15.007084014347285" x2="10.007500721073583" y1="101.09737516637583" y2="101.16192664675087" /><path d="M 14.007167355692545 101.11028546245083 a86.0,86.0 0 0,1 10.666146001902534,-42.60595125391555" fill="none" id="id166" stroke="none" /><text fill="#e1ed5e" style="font-size:6.75px; font-family:Arial;" text-anchor="middle"><textPath startOffset="22.20632615414155" xlink:href="#id166">October</textPath></text><line stroke="#e1ed5e" stroke-width="0.3" x1="26.266209847984243" x2="21.928928074336255" y1="57.711370442889674" y2="55.22380399835377" /><path d="M 25.398753493254645 57.213857153982495 a86.0,86.0 0 0,1 29.58750427330803,-30.492523968695096" fill="none" id="id167" stroke="none" /><text fill="#e1ed5e" style="font-size:6.75px; font-family:Arial;" text-anchor="middle"><textPath startOffset="21.46611528233685" xlink:href="#id167">November</textPath></text><line stroke="#e1ed5e" stroke-width="0.3" x1="56.762969772571076" x2="54.21961505331055" y1="26.818313649435495" y2="22.513508569990535" /><path d="M 56.25429882871897 25.957352633546506 a86.0,86.0 0 0,1 42.265352541879196,-11.944610805530505" fill="none" id="id168" stroke="none" /><text fill="#e1ed5e" style="font-size:6.75px; font-family:Arial;" text-anchor="middle"><textPath startOffset="22.20632615414155" xlink:href="#id168">December</textPath></text></svg>