<?xml version="1.0" encoding="utf-8" ?>
<svg baseProfile="full" height="200mm" version="1.1" viewBox="0,0,200,200" width="200mm" xmlns="http://www.w3.org/2000/svg" xmlns:ev="http://www.w3.org/2001/xml-events" xmlns:xlink="http://www.w3.org/1999/xlink"><defs /><rect fill="#1a1a1a" height="200" width="200" x="0" y="0" /><rect fill="#1a1a1a" height="200" width="180" x="10" y="0" /><text alignment-baseline="middle" fill="#e1ed5e" style="dominant-baseline: central; font-size:9.0px; font-family:Arial;" text-anchor="middle" x="100.0" y="100.0">2014</text><line stroke="#e1ed5e" stroke-width="0.3" x1="100.0" x2="100.0" y1="15.0" y2="10.0" /><path d="M 100.0 14.0 a86.0,86.0 0 0,1 42.46469731375804,11.215312516191453" fill="none" id="id13" stroke="none" /><text fill="#e1ed5e" style="font-size:6.75px; font-family:Arial;" text-anchor="middle"><textPath startOffset="22.20632615414155" xlink:href="#id13">January</textPath></text><path d="M 100.72285384407766 79.0124445844662 l 0.14240439017797946 -4.134611795679327 a25.13706341639968,25.13706341639968 0 0,0 0.43230861426873785,0.018616118315738422 l -0.2135538368360488 4.131547950839394" fill="#ff2904" stroke="none" /><path d="M 101.44485096284872 79.0497635885617 l 0.12270136744478458 -1.7791611190864067 a22.783387202275943,22.783387202275943 0 0,0 0.3910169651074634,0.030350442068683918 l -0.15330852191458919 1.7767854148292581" fill="#ff0701" stroke="none" /><path d="M 102.52436894288641 79.15227682838746 l 0.4351082077780932 -3.5933794428171844 a24.61962635813933,24.61962635813933 0 0,0 0.4202749256682365,0.054563747322867756 l -0.49689786195417585 3.5853573723301797" fill="#ff2203" stroke="none" /><path d="M 102.88285421437855 79.19881850522331 l 1.0117865850543868 -7.3005274719496835 a28.370306198685917,28.370306198685917 0 0,0 0.48314769197082247,0.07120341060538102 l -1.137303257453865 7.282029577183334" fill="#ff5708" stroke="none" /><path d="M 103.95276090670814 79.375362276772 l 2.2133205620233114 -11.548620276939236 a32.75880173364647,32.75880173364647 0 0,0 0.5528961771433751,0.11090577175777874 l -2.411783148633812 11.508810549104249" fill="#ff930d" stroke="none" /><path d="M 105.01212808612495 79.60689891045804 l 1.8831854050191439 -7.662212472426431 a28.89023999902945,28.89023999902945 0 0,0 0.4819044893055413,0.12284818437503144 l -2.0147987830097103 7.628661291882531" fill="#ff5e08" stroke="none" /><path d="M 106.0581310904928 79.89281104454417 l 0.8268362339154207 -2.744303835987556 a23.866158003657763,23.866158003657763 0 0,0 0.39233080190761066,0.12189908992118018 l -0.8739524085337496 2.729664611183855" fill="#ff1702" stroke="none" /><path d="M 106.40334571778207 80.00007090966166 l 0.5826349390225001 -1.8197764074559046 a22.91077200243851,22.91077200243851 0 0,0 0.37455531352974414,0.12348499796675123 l -0.6138730747946617 1.8094776852299173" fill="#ff0901" stroke="none" /><path d="M 106.74666289553966 80.11325718540242 l 3.518515840364735 -10.371322932509472 a31.95190819397672,31.95190819397672 0 0,0 0.5193219652915428,0.1811812365361286 l -3.6965198097195513 10.309220842801135" fill="#ff880c" stroke="none" /><path d="M 107.4271985657038 80.35727306442388 l 2.022125615874493 -5.3479196699371485 a26.717450201136558,26.717450201136558 0 0,0 0.4287728812412406,0.1663572165352182 l -2.113881662115401 5.312319749511384" fill="#ff4006" stroke="none" /><path d="M 110.36928655335952 81.73862282372117 l 6.962773347500246 -12.262158021898678 a35.10108974663568,35.10108974663568 0 0,0 0.5228445507988286,0.3028653111032926 l -7.172814630764403 12.140488553405335" fill="#ffb110" stroke="none" /><line stroke="#e1ed5e" stroke-width="0.3" x1="143.23703022742887" x2="145.7803849466894" y1="26.81831364943548" y2="22.513508569990506" /><path d="M 143.74570117128098 25.957352633546492 a86.0,86.0 0 0,1 28.547481713284135,27.462654790039103" fill="none" id="id14" stroke="none" /><text fill="#e1ed5e" style="font-size:6.75px; font-family:Arial;" text-anchor="middle"><textPath startOffset="19.985693538727396" xlink:href="#id14">February</textPath></text><path d="M 112.77801427241765 83.33499621200491 l 1.4727033855600358 -1.9206902556000702 a23.42031120308878,23.42031120308878 0 0,0 0.3178107733769132,0.248056349651637 l -1.5055467140963794 1.8950555167252092" fill="#ff1101" stroke="none" /><path d="M 113.06298171725822 83.55741782278167 l 1.5451663644673364 -1.9449253987442934 a23.484003603170063,23.484003603170063 0 0,0 0.31434636195001664,0.2541795633727507 l -1.5784161249818442 1.918039738107413" fill="#ff1201" stroke="none" /><path d="M 114.68862486808459 84.99185889309783 l 0.9355537717419358 -0.9559045278571726 a22.337540401706956,22.337540401706956 0 0,0 0.27247991253492226,0.2713097971966662 l -0.9518694844441805 0.9396588800103877" fill="#ff0100" stroke="none" /><path d="M 117.65298651832404 88.62581576622439 l 5.225045145158929 -3.366604628012529 a27.215715846972437,27.215715846972437 0 0,0 0.25034882143079534,0.39599171410400874 l -5.28222156283568 3.276165266194314" fill="#ff4706" stroke="none" /><line stroke="#e1ed5e" stroke-width="0.3" x1="172.23445277983987" x2="176.4835382374775" y1="55.19839476539836" y2="52.563006222186495" /><path d="M 173.08426987136738 54.67131705675599 a86.0,86.0 0 0,1 12.851231095245387,41.99856678651699" fill="none" id="id15" stroke="none" /><text fill="#e1ed5e" style="font-size:6.75px; font-family:Arial;" text-anchor="middle"><textPath startOffset="22.20632615414155" xlink:href="#id15">March</textPath></text><path d="M 117.84615892207809 88.93136811851018 l 9.22140342477773 -5.71934388712083 a31.851044909208,31.851044909208 0 0,0 0.2849670545960084,0.4684109107139028 l -9.31848627765996 5.559765203199846" fill="#ff860c" stroke="none" /><path d="M 118.03404312379186 89.2402003453031 l 2.13317276662968 -1.2727324338883377 a23.484003603170063,23.484003603170063 0 0,0 0.20413226964107953,0.3489282192640173 l -2.1547647107410866 1.2358248022704252" fill="#ff1201" stroke="none" /><path d="M 118.21658344932153 89.55222093294921 l 1.9890135791456194 -1.1407613559419314 a23.292926402926213,23.292926402926213 0 0,0 0.1964839963912435,0.3495231053065369 l -2.0083552168292957 1.1063547407006007" fill="#ff0f01" stroke="none" /><path d="M 118.89224826269711 90.83032412892265 l 8.00998673178224 -3.8877840816383316 a29.90363703824274,29.90363703824274 0 0,0 0.22077685224331955,0.46501235594145784 l -8.075721777867315 3.7493293100563334" fill="#ff6c0a" stroke="none" /><path d="M 119.196687751892 91.48605970444005 l 4.352204598591021 -1.930250186145437 a25.761045121516002,25.761045121516002 0 0,0 0.17629054800589222,0.40690289062618956 l -4.384785856439593 1.8550481509326449" fill="#ff3204" stroke="none" /><path d="M 119.34039704204932 91.81776055985345 l 3.6808793957921195 -1.557250169228261 a24.9967363205406,24.9967363205406 0 0,0 0.16423845289803393,0.3977164409698165 l -3.7071395355763506 1.4936591578051412" fill="#ff2703" stroke="none" /><path d="M 119.47837535516314 92.15188598940014 l 5.413293576931251 -2.181092847322252 a26.836172834888067,26.836172834888067 0 0,0 0.1689483402505569,0.4299550978612766 l -5.4500354670635085 2.087588744565191" fill="#ff4106" stroke="none" /><path d="M 119.61058180528143 92.48833698450437 l 10.146682663755476 -3.8865986563833586 a31.86557951490655,31.86557951490655 0 0,0 0.19179347787718068,0.5139111669928995 l -10.212080730134282 3.7113643523611257" fill="#ff870c" stroke="none" /><path d="M 120.08093135843002 93.85539295169968 l 6.692960297920469 -2.0479932074132443 a27.999285229732422,27.999285229732422 0 0,0 0.13705530508113853,0.4620823548917711 l -6.72722150011331 1.9324814657749434" fill="#ff5207" stroke="none" /><path d="M 120.37134235888165 94.90015583598534 l 12.442157005392072 -3.1148198618358593 a33.826120758768575,33.826120758768575 0 0,0 0.13654026356000848,0.5660475423954101 l -12.4939300692129 2.9001870877810427" fill="#ffa10e" stroke="none" /><path d="M 120.53481517161879 95.60439243477599 l 4.305022381183752 -0.9215173737401734 a25.40254607841849,25.40254607841849 0 0,0 0.08784527532221356,0.4283647600856497 l -4.320246952420963 0.8472769574911119" fill="#ff2d04" stroke="none" /><path d="M 120.67395015179393 96.31383870115 l 10.107227361025062 -1.8021166764618248 a31.266628923022175,31.266628923022175 0 0,0 0.08991111986663158,0.5306605190295319 l -10.136750342411917 1.6278703691164549" fill="#ff7f0b" stroke="none" /><path d="M 120.91429891909075 98.10471618934814 l 5.421915844633565 -0.491341802218899 a26.444133373907754,26.444133373907754 0 0,0 0.03717984227670249,0.45368824886288256 l -5.429570170729762 0.3979396361482477" fill="#ff3c05" stroke="none" /><path d="M 120.94382443527127 98.46500227214037 l 11.135613586522828 -0.8161423242666717 a32.16548154992928,32.16548154992928 0 0,0 0.03571809618108228,0.5525431387177724 l -11.148012273708325 0.624340121295864" fill="#ff8b0c" stroke="none" /><path d="M 120.96714384426684 98.82574320788733 l 29.469401022554536 -1.6504224212535654 a50.515580475347505,50.515580475347505 0 0,0 0.04114949094874432,0.8686007167685729 l -29.493444121736776 1.1429105978619927" fill="#94ff23" stroke="none" /><line stroke="#e1ed5e" stroke-width="0.3" x1="184.98032266829074" x2="189.97916517819016" y1="98.17113171792111" y2="98.06355123074" /><path d="M 185.9800911702706 98.14961562048488 a86.0,86.0 0 0,1 -9.607161424134198,41.387399972396054" fill="none" id="id16" stroke="none" /><text fill="#e1ed5e" style="font-size:6.75px; font-family:Arial;" text-anchor="middle"><textPath startOffset="21.466115282336823" xlink:href="#id16">April</textPath></text><path d="M 120.99513854157772 99.54816195383933 l 3.3283036933236736 -0.07162868846245263 a24.329074367448534,24.329074367448534 0 0,0 0.005406838900259587,0.4187656313706299 l -3.3290435393416486 0.014326799031359997" fill="#ff1e03" stroke="none" /><path d="M 120.99980553446 99.90962569577887 l 6.226091006326623 -0.02679446920548225 a27.226148662105754,27.226148662105754 0 0,0 -0.0020169425366681824,0.4686664136366029 l -6.225629766500452 -0.08038142263480533" fill="#ff4706" stroke="none" /><path d="M 120.99824983174949 100.27111621757518 l 5.169430297493777 0.0667444382510382 a26.169861160677726,26.169861160677726 0 0,0 -0.009692739983324256,0.4503835401346503 l -5.167515494825445 -0.15571779417580334" fill="#ff3805" stroke="none" /><path d="M 120.9904718944345 100.63252640178507 l 1.2840418966582587 0.03869328925615402 a22.284624755719427,22.284624755719427 0 0,0 -0.014854153180540428,0.3833196906438477 l -1.283185610626515 -0.0607902269140079" fill="#ff0000" stroke="none" /><path d="M 120.81339534386255 102.79330883721812 l 5.081097132761564 0.6819201427359495 a26.126652236462583,26.126652236462583 0 0,0 -0.06365690263989729,0.4452162288005381 l -5.068606179105065 -0.769281843516897" fill="#ff3705" stroke="none" /><path d="M 120.76222939487914 103.15116336523771 l 2.8517789366378663 0.4328254514472427 a23.884437722481092,23.884437722481092 0 0,0 -0.06519114611046095,0.4059453290596488 l -2.8439060361661173 -0.4818500102000965" fill="#ff1702" stroke="none" /><path d="M 120.70491114924044 103.5080841355445 l 62.114733447721314 10.524252406633499 a84.0,84.0 0 0,0 -0.25381423064324515,1.4235249970671267 l -61.924372774738885 -11.591896154433844" fill="#4dd2ff" stroke="none" /><path d="M 120.64145759157962 103.86396538481128 l 4.806019330691437 0.8996599319662903 a25.889499953999934,25.889499953999934 0 0,0 -0.08576829747744362,0.43733070103602606 l -4.7898211002383295 -0.9822543600702613" fill="#ff3404" stroke="none" /><path d="M 120.5718875245553 104.21870165774334 l 5.2394942775169335 1.0744693780730379 a26.348531081385744,26.348531081385744 0 0,0 -0.09493747297485436,0.4435162674263526 l -5.220222765817637 -1.1644994649155596" fill="#ff3b05" stroke="none" /><path d="M 120.41448212921028 104.9243191809786 l 10.484526038409525 2.5290454270468845 a31.78523792144402,31.78523792144402 0 0,0 -0.1328754410448744,0.530771336056219 l -10.43943928306959 -2.709144602500499" fill="#ff860c" stroke="none" /><path d="M 119.9155931802556 106.66101706037122 l 2.6177757209561734 0.8755475460706743 a23.760313973202685,23.760313973202685 0 0,0 -0.1330681325198243,0.3867582809147333 l -2.602316757493118 -0.9204785300747079" fill="#ff1602" stroke="none" /><path d="M 119.79798401119884 107.00284435728193 l 8.901193659033225 3.1484859141706085 a30.44162126476931,30.44162126476931 0 0,0 -0.17899055627935215,0.49250513749573227 l -8.845678841748645 -3.301238848672472" fill="#ff730a" stroke="none" /><path d="M 118.97047184881838 109.00673069616215 l 54.548869914571696 25.89851138210521 a81.38470088330237,81.38470088330237 0 0,0 -0.6117290474197554,1.260343025843454 l -54.09498761053723 -26.833643363913936" fill="#4aeaff" stroke="none" /><path d="M 118.64920377521936 109.65438752849418 l 53.56704266686079 27.73078115798398 a81.31935248081899,81.31935248081899 0 0,0 -0.6542238397338185,1.2375449540851362 l -53.08176631890208 -28.64874112715525" fill="#4aebff" stroke="none" /><line stroke="#e1ed5e" stroke-width="0.3" x1="174.80103733775053" x2="179.2010983576182" y1="140.37084112569926" y2="142.7455964860345" /><path d="M 175.68104954172406 140.8457921977663 a86.0,86.0 0 0,1 -30.038265399797805,32.042727171017184" fill="none" id="id17" stroke="none" /><text fill="#e1ed5e" style="font-size:6.75px; font-family:Arial;" text-anchor="middle"><textPath startOffset="22.206326154141568" xlink:href="#id17">May</textPath></text><path d="M 117.94076556474637 110.91462005526583 l 4.393056988291758 2.6726032250571223 a26.14215496664237,26.14215496664237 0 0,0 -0.23719071030595987,0.3824269481795272 l -4.346401638317835 -2.7478265046019232" fill="#ff3805" stroke="none" /><path d="M 117.75023020441432 111.22182372390056 l 2.164689356866383 1.3685322443715153 a23.561007714868335,23.561007714868335 0 0,0 -0.2196728916431913,0.34093720612535683 l -2.1408116018461416 -1.405591050418325" fill="#ff1302" stroke="none" /><path d="M 117.55443506779139 111.5257021239791 l 47.22767012901373 31.00823557206294 a77.49746453698152,77.49746453698152 0 0,0 -0.7417499862131456,1.1088155874289294 l -46.68691703738987 -31.816588073697677" fill="#45ffee" stroke="none" /><path d="M 116.498646956653 112.99209946851258 l 21.354377820531216 16.815815349068043 a48.18052791900753,48.18052791900753 0 0,0 -0.518702588106125,0.6471612328313358 l -21.061757320370237 -17.180904415477627" fill="#aeff20" stroke="none" /><path d="M 115.80600337817218 113.82643327865902 l 5.765853309449928 5.04372827021778 a28.660565204336343,28.660565204336343 0 0,0 -0.32801491480661926,0.368528234047474 l -5.67817954499497 -5.142230674006121" fill="#ff5b08" stroke="none" /><path d="M 115.56566222782051 114.09645910891815 l 4.12397225898249 3.7347210458645086 a26.563747701260404,26.563747701260404 0 0,0 -0.30985168650091044,0.3362828092454288 l -4.059074164485858 -3.805155109911272" fill="#ff3e05" stroke="none" /><path d="M 114.55890576462653 115.13401014063108 l 1.1613842200898405 1.2072610983384189 a22.675199291497872,22.675199291497872 0 0,0 -0.2836172524725447,0.2681778147091187 l -1.1404311332264883 -1.227073549793459" fill="#ff0600" stroke="none" /><path d="M 114.29624159901734 115.38237550388516 l 4.75871810452095 5.1202540397687 a27.990164478040782,27.990164478040782 0 0,0 -0.35574226236598405,0.32496212210369635 l -4.669876292688103 -5.20140892845898" fill="#ff5207" stroke="none" /><path d="M 113.75828350139079 115.86535959552629 l 7.913923227099499 9.125937679408127 a33.079442014135665,33.079442014135665 0 0,0 -0.43339507207887695,0.36934868273091104 l -7.755662678443574 -9.260810752361984" fill="#ff970d" stroke="none" /><path d="M 112.63410532772338 116.77436683061366 l 7.087490798571201 9.410098101917248 a32.78059727295429,32.78059727295429 0 0,0 -0.45364448791317813,0.3355953470501633 l -6.924461340239459 -9.53070339770718" fill="#ff930d" stroke="none" /><path d="M 111.7513745106137 117.40417183066458 l 2.683233820003682 3.9739574654025516 a25.795005909239343,25.795005909239343 0 0,0 -0.37012799650504524,0.24530065362077294 l -2.6144311247586725 -4.019556140114643" fill="#ff3304" stroke="none" /><line stroke="#e1ed5e" stroke-width="0.3" x1="143.8653032363475" x2="146.44561519142675" y1="172.8068346515853" y2="177.08958963109032" /><path d="M 144.38136562736335 173.6633856474863 a86.0,86.0 0 0,1 -40.68145358897372,12.25698825130547" fill="none" id="id18" stroke="none" /><text fill="#e1ed5e" style="font-size:6.75px; font-family:Arial;" text-anchor="middle"><textPath startOffset="21.466115282336833" xlink:href="#id18">June</textPath></text><path d="M 110.8373102113329 117.98757091392108 l 3.0382693340845046 5.042864330420889 a26.887407001513452,26.887407001513452 0 0,0 -0.3984869011241627,0.23543308508368233 l -2.95101456193196 -5.09441598779832" fill="#ff4206" stroke="none" /><path d="M 110.5260780823613 118.17145234162733 l 13.42788086758458 23.180912712707684 a47.78922728986816,47.78922728986816 0 0,0 -0.7153620250691971,0.40620122763630545 l -13.026870075594184 -23.40861710613862" fill="#b2ff20" stroke="none" /><path d="M 110.21172684928248 118.3499491758327 l 2.48816280942929 4.471100898809551 a26.11680539141002,26.11680539141002 0 0,0 -0.3947084884809251,0.21522653900734903 l -2.410831509079716 -4.513268089576671" fill="#ff3705" stroke="none" /><path d="M 109.57404056367764 118.69057910512821 l 4.069274798171539 7.944096539999856 a29.92567460867086,29.92567460867086 0 0,0 -0.4604935623690107,0.23090103186136265 l -3.9319273281197678 -8.012965412770521" fill="#ff6c0a" stroke="none" /><path d="M 108.92500713936063 119.00905698771935 l 2.7219634534057655 5.797413671087131 a27.40461476713351,27.40461476713351 0 0,0 -0.42872823879372124,0.19680810663797585 l -2.621767218844625 -5.843408848059181" fill="#ff4906" stroke="none" /><path d="M 108.59647513512805 119.15986991738527 l 22.285373343836618 49.669759711567494 a75.44008536803591,75.44008536803591 0 0,0 -1.1893644079719423,0.521382404256875 l -21.42708826120692 -50.046006669118825" fill="#42ffda" stroke="none" /><path d="M 107.2578585660854 119.70592522655815 l 2.0395063258572512 5.537495500978381 a26.901139082970978,26.901139082970978 0 0,0 -0.4359014965101894,0.15629876801615813 l -1.9438852687173271 -5.5717818100345" fill="#ff4206" stroke="none" /><path d="M 106.57524785965236 119.94407469862006 l 4.058749394492752 12.31101896606254 a33.96281738782302,33.96281738782302 0 0,0 -0.5567939565334158,0.1782678419083787 l -3.846234092868396 -12.379059654630627" fill="#ffa30f" stroke="none" /><path d="M 106.2309692047433 120.05430185196036 l 1.8316282365304861 5.895074157643737 a27.17306741587801,27.17306741587801 0 0,0 -0.44787041208846184,0.13493968122524158 l -1.7298828500017784 -5.925729207974705" fill="#ff4606" stroke="none" /><path d="M 105.88484417918355 120.15858648285463 l 0.7146350954875277 2.4479889250129747 a23.550167268374498,23.550167268374498 0 0,0 -0.39011281802812303,0.11024977910636238 l -0.6723911093547988 -2.459927497457856" fill="#ff1202" stroke="none" /><path d="M 105.53697534728816 120.25689768951611 l 5.610230781296009 20.524901019641995 a42.27783474147457,42.27783474147457 0 0,0 -0.7036432047324508,0.1858385656834085 l -5.256097133752061 -20.618430934628986" fill="#f3ff19" stroke="none" /><path d="M 104.13013068566511 120.58985236759428 l 2.5088812430500935 12.507472119834153 a33.75661961179988,33.75661961179988 0 0,0 -0.570699675465376,0.10937595107961476 l -2.293213953013013 -12.548805269262237" fill="#ffa00e" stroke="none" /><path d="M 103.41894727170886 120.7198165907248 l 1.0427307166560889 6.319251946763855 a27.404703936493622,27.404703936493622 0 0,0 -0.46609416259723885,0.07279432248709752 l -0.9338006904503329 -6.336264576598059" fill="#ff4906" stroke="none" /><path d="M 103.06178313531738 120.77559828337769 l 0.8369427160365182 5.679038941068356 a26.740379465165816,26.740379465165816 0 0,0 -0.45595073082336535,0.0631906166595972 l -0.7390633940263224 -5.692604123220556" fill="#ff4006" stroke="none" /><path d="M 100.90346689309514 120.98055641714683 l 0.34760506660945667 8.072180360589904 a29.079661196871186,29.079661196871186 0 0,0 -0.5002804652678992,0.01723067076064605 l -0.20860424966690524 -8.076967829776644" fill="#ff6108" stroke="none" /><line stroke="#e1ed5e" stroke-width="0.3" x1="102.19456741930631" x2="102.32365962044197" y1="184.97166512339345" y2="189.96999836594603" /><path d="M 102.22038585953345 185.97133177190398 a86.0,86.0 0 0,1 -42.740103519485714,-10.115201625700543" fill="none" id="id19" stroke="none" /><text fill="#e1ed5e" style="font-size:6.75px; font-family:Arial;" text-anchor="middle"><textPath startOffset="22.20632615414155" xlink:href="#id19">July</textPath></text><path d="M 98.73552117531835 120.96189622390904 l -1.154362068423943 19.13643582699915 a40.17122134726613,40.17122134726613 0 0,0 -0.6898684934674556,-0.047577370367107345 l 1.4835933226703288 -19.113730112115757" fill="#fff216" stroke="none" /><path d="M 98.01472825383883 120.90594882070398 l -0.830160063963356 8.742019244352482 a29.78134763008667,29.78134763008667 0 0,0 -0.5099238969969729,-0.052855696876755405 l 0.9805165575659222 -8.726434179019966" fill="#ff6a09" stroke="none" /><path d="M 96.93821686468263 120.77559828337769 l -1.969730259638193 13.365520284183884 a34.50988415060119,34.50988415060119 0 0,0 -0.586937760458076,-0.09166760719884864 l 2.1995038837047862 -13.32963436963793" fill="#ffaa0f" stroke="none" /><path d="M 94.81253420990036 120.34920634021253 l -1.2623470277083593 4.951890032473444 a26.110257812681663,26.110257812681663 0 0,0 -0.4345611736280105,-0.11477155562020286 l 1.3473986441478591 -4.929427127549659" fill="#ff3705" stroke="none" /><path d="M 94.46302465271185 120.25689768951611 l -1.7019326877763616 6.226481818744995 a27.454893547757674,27.454893547757674 0 0,0 -0.4547953213462207,-0.1285297006401191 l 1.8088591772271962 -6.196263324766355" fill="#ff4a06" stroke="none" /><path d="M 93.42475214034765 119.94407469862007 l -1.1415787323874544 3.462642321485837 a24.645969534812952,24.645969534812952 0 0,0 -0.40176482537492925,-0.13630044222728724 l 1.2010132906996094 -3.442478892360427" fill="#ff2203" stroke="none" /><path d="M 93.08242187328487 119.8279376855182 l -4.241293105025501 12.156869622865738 a33.87548236883157,33.87548236883157 0 0,0 -0.5489125725879026,-0.19682051915612833 l 4.44992523824313 -12.082061562669653" fill="#ffa10e" stroke="none" /><path d="M 92.7421414339146 119.70592522655815 l -2.371328444181062 6.438430920519626 a27.861238321796247,27.861238321796247 0 0,0 -0.44860544586162426,-0.16962419398275141 l 2.481804110802969 -6.396658476430241" fill="#ff5007" stroke="none" /><path d="M 92.40401165467489 119.57807347666478 l -4.831118900871346 12.451835958117828 a34.35619438920505,34.35619438920505 0 0,0 -0.549501028702045,-0.21865779972932597 l 5.04474100561525 -12.366831313982434" fill="#ffa80f" stroke="none" /><path d="M 91.7346041902142 119.30500536409082 l -10.540098744221863 24.617897010369944 a47.77936770633558,47.77936770633558 0 0,0 -0.7532743250234852,-0.330213327398459 l 10.962293743903093 -24.432819129677032" fill="#b2ff20" stroke="none" /><path d="M 91.40352486487194 119.15986991738527 l -11.116045419989375 24.775501690504242 a48.1549617896149,48.1549617896149 0 0,0 -0.7533545766897866,-0.3458281364496442 l 11.54086799244658 -24.580486483720524" fill="#aeff20" stroke="none" /><path d="M 90.7491055286396 118.85261126421891 l -1.4662841086921088 2.988174212737393 a24.32853935128785,24.32853935128785 0 0,0 -0.3743653534835647,-0.1877145599339132 l 1.517503369858434 -2.9624918118941777" fill="#ff1e03" stroke="none" /><path d="M 90.42595943632237 118.69057910512821 l -9.211077848908023 17.981998095105048 a41.20386622978398,41.20386622978398 0 0,0 -0.6284749144991006,-0.3287883717070983 l 9.519243665933619 -17.820780304453233" fill="#fffe18" stroke="none" /><line stroke="#e1ed5e" stroke-width="0.3" x1="58.666819895761336" x2="56.23545636021788" y1="174.27360380694188" y2="178.64263932499728" /><path d="M 58.180547188652646 175.14741091055294 a86.0,86.0 0 0,1 -31.652253787137756,-30.449443065178592" fill="none" id="id20" stroke="none" /><text fill="#e1ed5e" style="font-size:6.75px; font-family:Arial;" text-anchor="middle"><textPath startOffset="22.20632615414155" xlink:href="#id20">August</textPath></text><path d="M 89.4739219176387 118.17145234162733 l -7.87673626632878 13.597822147168857 a36.714443717654625,36.714443717654625 0 0,0 -0.5441292610597281,-0.3214811584877672 l 8.10963339841689 -13.46022241638734" fill="#ffc612" stroke="none" /><path d="M 88.24862548938628 117.40417183066458 l -3.7969976528773546 5.6234783030377935 a27.785329719379373,27.785329719379373 0 0,0 -0.39407948406667365,-0.2710514625496407 l 3.8932340215669186 -5.557286051123052" fill="#ff4f07" stroke="none" /><path d="M 87.65650970185807 116.9893568818739 l -3.486168177856227 4.7982988517232465 a26.931023557089116,26.931023557089116 0 0,0 -0.372693343223895,-0.27570962547757805 l 3.568246491498686 -4.737579277505902" fill="#ff4306" stroke="none" /><path d="M 87.36589467227662 116.77436683061367 l -13.587714097862861 18.040478114972622 a43.58505756074284,43.58505756074284 0 0,0 -0.5953952800540413,-0.4565237117882428 l 13.896238106410388 -17.803915061357014" fill="#e3ff1b" stroke="none" /><path d="M 86.51685102203217 116.09983520530335 l -4.4378174952581615 5.299068523355961 a27.911899256820902,27.911899256820902 0 0,0 -0.3656917666597442,-0.31165045706088707 l 4.528374738494962 -5.221893676072122" fill="#ff5107" stroke="none" /><path d="M 84.9287848128048 114.62390073753433 l -6.543385117187913 6.349177107000333 a30.117452425315605,30.117452425315605 0 0,0 -0.35781462234629385,-0.3751672010060802 l 6.651706290913165 -6.235602789411753" fill="#ff6f0a" stroke="none" /><path d="M 84.67929136418377 114.36230785411682 l -1.353991240744923 1.2692910944011404 a22.85590736900849,22.85590736900849 0 0,0 -0.26660174326454844,-0.28934353782988664 l 1.3756393920052004 -1.2457963017699096" fill="#ff0801" stroke="none" /><path d="M 82.85270091963577 112.12312394758628 l -6.378774663017264 4.509787547943009 a28.811974777809567,28.811974777809567 0 0,0 -0.28282258778881636,-0.4074270316151409 l 6.455458157968215 -4.399319254140856" fill="#ff5d08" stroke="none" /><path d="M 82.6465618267979 111.8261652097733 l -11.473902179998749 7.819330176943543 a34.88496869467987,34.88496869467987 0 0,0 -0.33389382740354956,-0.49912596865889763 l 11.606799112813029 -7.6206672940788245" fill="#ffaf10" stroke="none" /><path d="M 82.05923443525364 110.91462005526583 l -3.952348500939772 2.404489488370779 a25.626297479904036,25.626297479904036 0 0,0 -0.22602287515830632,-0.37882733957681125 l 3.9931522517963103 -2.3361000549078565" fill="#ff3004" stroke="none" /><line stroke="#e1ed5e" stroke-width="0.3" x1="26.63291911575756" x2="22.317208475507996" y1="142.92168965132927" y2="145.44649492493687" /><path d="M 25.769776987707644 143.4266507060508 a86.0,86.0 0 0,1 -11.730757126820373,-40.83630448921669" fill="none" id="id21" stroke="none" /><text fill="#e1ed5e" style="font-size:6.75px; font-family:Arial;" text-anchor="middle"><textPath startOffset="21.46611528233685" xlink:href="#id21">September</textPath></text><path d="M 81.35079622478065 109.6543875284942 l -4.359045801329416 2.2566066588006226 a25.908518504664205,25.908518504664205 0 0,0 -0.20161926466187371,-0.3978139368024773 l 4.397243735777557 -2.1812385102954606" fill="#ff3405" stroke="none" /><path d="M 81.02952815118164 109.00673069616217 l -7.645238492958391 3.6297781501042623 a29.463153137760596,29.463153137760596 0 0,0 -0.21357332264297474,-0.46001793659821705 l 7.706586432441193 -3.4976401462272184" fill="#ff6609" stroke="none" /><path d="M 80.87730276802145 108.67885076344099 l -18.735749942900927 8.503234440362537 a41.575065537457704,41.575065537457704 0 0,0 -0.2901522146378928,-0.6542166460608614 l 18.8793432422701 -8.17946945780898" fill="#fbff18" stroke="none" /><path d="M 80.73074385275274 108.34839909993369 l -13.017137622102217 5.639670736516503 a35.18632291642445,35.18632291642445 0 0,0 -0.2359980503918591,-0.5578296784292531 l 13.112286653686382 -5.4147665324210905" fill="#ffb310" stroke="none" /><path d="M 80.32549172779594 107.34259656027581 l -7.134756905841492 2.6627166885410065 a28.615432769638744,28.615432769638744 0 0,0 -0.1682529384707839,-0.46295982490991 l 7.1795341053175 -2.539509066624979" fill="#ff5a08" stroke="none" /><path d="M 80.20201598880116 107.00284435728193 l -6.1704489769625654 2.182580497881804 a27.545081986272773,27.545081986272773 0 0,0 -0.15426448590505654,-0.4483648056453011 l 6.20710429381085 -2.076042989147206" fill="#ff4b07" stroke="none" /><path d="M 80.0844068197444 106.66101706037122 l -25.60350184641491 8.56340863466197 a47.9976160844541,47.9976160844541 0 0,0 -0.255319316637173,-0.7857920575370665 l 25.747113414068334 -8.1214176771471" fill="#b0ff20" stroke="none" /><path d="M 79.97269907076064 106.31721596034903 l -26.938037755015323 8.497071205337441 a49.24638201892776,49.24638201892776 0 0,0 -0.2480451794541932,-0.8106259982543408 l 27.080309706975644 -8.032118234531053" fill="#a2ff22" stroke="none" /><path d="M 79.76711848015287 105.62410040840567 l -6.147805097119314 1.7088951528525762 a27.380895717343236,27.380895717343236 0 0,0 -0.12231688089186793,-0.4551866167952181 l 6.176310054352957 -1.602817602881819" fill="#ff4906" stroke="none" /><path d="M 79.67330655649465 105.27499134158121 l -11.699472376657196 3.0361364803115047 a33.08700867126532,33.08700867126532 0 0,0 -0.1383173811980183,-0.5525091818395163 l 11.750001072150273 -2.8342994590745967" fill="#ff970d" stroke="none" /><path d="M 79.58551787078972 104.9243191809786 l -11.112917014094261 2.680623983638852 a32.43165208986897,32.43165208986897 0 0,0 -0.12623547084585798,-0.543819104514737 l 11.157413050870675 -2.488936221775541" fill="#ff8e0d" stroke="none" /><path d="M 79.4281124754447 104.21870165774334 l -26.222853245294807 5.377551978380117 a47.76856547528179,47.76856547528179 0 0,0 -0.15825058579864856,-0.806916327619611 l 26.31153376406912 -4.925371923692551" fill="#b2ff20" stroke="none" /><path d="M 79.1416061653843 102.43462659150553 l -3.8105023636804916 0.4447682048372894 a24.83637159561594,24.83637159561594 0 0,0 -0.04590908497173612,-0.4250611096428901 l 3.8175937501532795 -0.3791107733096172" fill="#ff2503" stroke="none" /><path d="M 79.10278846688536 102.07522291339032 l -13.493561981928996 1.3399945233735147 a34.55993363858506,34.55993363858506 0 0,0 -0.05369198988553915,-0.5924866343055758 l 13.514628568091611 -1.1075265005193728" fill="#ffaa0f" stroke="none" /><path d="M 79.07016306316243 101.71520430193888 l -53.58708938938031 4.391472639104859 a74.76672931437659,74.76672931437659 0 0,0 -0.09407591837609279,-1.2835911625765664 l 53.65474186642074 -3.4684083400315324" fill="#41ffd3" stroke="none" /><path d="M 79.0235259727143 100.99374915477108 l -5.857831509217196 0.2775116115083918 a26.864401306604094,26.864401306604094 0 0,0 -0.017906872405803336,-0.462096809394872 l 5.8617405144742 -0.176637555099523" fill="#ff4206" stroke="none" /><line stroke="#e1ed5e" stroke-width="0.3" x1="15.007084014347285" x2="10.007500721073583" y1="101.09737516637583" y2="101.16192664675087" /><path d="M 14.007167355692545 101.11028546245083 a86.0,86.0 0 0,1 10.666146001902534,-42.60595125391555" fill="none" id="id22" stroke="none" /><text fill="#e1ed5e" style="font-size:6.75px; font-family:Arial;" text-anchor="middle"><textPath startOffset="22.20632615414155" xlink:href="#id22">October</textPath></text><path d="M 79.01574976396665 99.18683210126434 l -5.700344148964517 -0.22089599683308825 a26.704622551760185,26.704622551760185 0 0,0 0.021753320730807265,-0.45917821929834857 l 5.69569722000021 0.3189853227544459" fill="#ff4006" stroke="none" /><path d="M 79.03285615573316 98.82574320788736 l -24.5531601184621 -1.3750902483943717 a45.591635671383614,45.591635671383614 0 0,0 0.05062714280946572,-0.7831794911586044 l 24.52585238464822 1.797528803805988" fill="#cbff1d" stroke="none" /><path d="M 79.05617556472873 98.46500227214037 l -5.434486775170506 -0.39829997991777505 a26.449063165674044,26.449063165674044 0 0,0 0.03718677345034537,-0.45377282673736846 l 5.426825517900664 0.49178672386292194" fill="#ff3c05" stroke="none" /><path d="M 79.08570108090925 98.10471618934814 l -38.495416005433114 -3.4885098956297003 a59.653159699088796,59.653159699088796 0 0,0 0.10147534888516621,-1.02184291497898 l 38.42966353086572 4.15062834131311" fill="#35ff2f" stroke="none" /><path d="M 79.21141760316559 97.0276538004421 l -7.0203323689135395 -1.0037653283925216 a28.091728379210398,28.091728379210398 0 0,0 0.07256241465124127,-0.47809565034143114 l 7.002014060822996 1.1244600911260447" fill="#ff5307" stroke="none" /><path d="M 79.26566170972629 96.67025291283419 l -6.392139273795999 -1.0265197195931077 a27.474039483222107,27.474039483222107 0 0,0 0.07900505242436556,-0.4662922916282107 l 6.373522359851411 1.1363977995371464" fill="#ff4a06" stroke="none" /><path d="M 79.32604984820605 96.31383870115002 l -27.386305505825845 -4.882972955475453 a48.81821622862134,48.81821622862134 0 0,0 0.15462420535517113,-0.8260086878667413 l 27.29819557656081 5.3536597208047665" fill="#a7ff21" stroke="none" /><path d="M 79.3925641242962 95.95851677861259 l -8.46466394149378 -1.660070544466114 a29.62591269692831,29.62591269692831 0 0,0 0.10245022091484933,-0.4995836616361934 l 8.434834424663936 1.8055298622657099" fill="#ff6809" stroke="none" /><path d="M 79.54389044137918 95.25157060432595 l -5.159652627720974 -1.1976982298968948 a26.296838329479776,26.296838329479776 0 0,0 0.10614806415162258,-0.4400522547449729 l 5.138271763308537 1.2863357163012645" fill="#ff3a05" stroke="none" /><path d="M 79.62865764111835 94.90015583598534 l -10.68864178457514 -2.675837775734147 a32.018492229021696,32.018492229021696 0 0,0 0.13844745439891568,-0.5334945180700295 l 10.640997998305917 2.8594287193530405" fill="#ff890c" stroke="none" /><path d="M 79.81627453868168 94.20196356495316 l -6.788572839495735 -1.9501054322602167 a28.063117753093884,28.063117753093884 0 0,0 0.1373677625560865,-0.46313580616637284 l 6.753999179827942 2.0666706251731286" fill="#ff5307" stroke="none" /><path d="M 79.91906864156998 93.8553929516997 l -51.92126135005665 -15.887497584332335 a75.29760546905409,75.29760546905409 0 0,0 0.3899143657211874,-1.236135093045043 l 51.640091500567266 16.778882843803792" fill="#42ffd8" stroke="none" /><path d="M 81.6062741919709 89.86733742301443 l -5.859722228497923 -3.227980494866004 a27.690007673417725,27.690007673417725 0 0,0 0.23357491770951952,-0.4155037156155369 l 5.803289669495973 3.3283677204163253" fill="#ff4d07" stroke="none" /><line stroke="#e1ed5e" stroke-width="0.3" x1="26.266209847984243" x2="21.928928074336255" y1="57.711370442889674" y2="55.22380399835377" /><path d="M 25.398753493254645 57.213857153982495 a86.0,86.0 0 0,1 29.58750427330803,-30.492523968695096" fill="none" id="id23" stroke="none" /><text fill="#e1ed5e" style="font-size:6.75px; font-family:Arial;" text-anchor="middle"><textPath startOffset="21.46611528233685" xlink:href="#id23">November</textPath></text><path d="M 81.96595687620814 89.24020034530311 l -5.548087003620726 -3.310200836052718 a27.460549432884893,27.460549432884893 0 0,0 0.2456858766104503,-0.4038429823959548 l 5.490285328724058 3.4052115916557475" fill="#ff4a06" stroke="none" /><path d="M 82.34701348167596 88.62581576622439 l -3.875244314573052 -2.4969000423294974 a25.60999222548323,25.60999222548323 0 0,0 0.24195755361873222,-0.3685179539149247 l 3.8316901255963995 2.5632360602220894" fill="#ff3004" stroke="none" /><path d="M 82.7489923806493 88.02491185347247 l -5.249824244474632 -3.644257162743469 a27.390717085435774,27.390717085435774 0 0,0 0.27219509477394016,-0.3850006581204769 l 5.186316529896814 3.734084321195732" fill="#ff4906" stroke="none" /><path d="M 84.31358615837235 86.03803664274999 l -3.2816519049759316 -2.920890913060947 a25.393272464966653,25.393272464966653 0 0,0 0.29342090710445895,-0.32400269424250216 l 3.230887357255428 2.976946394573005" fill="#ff2d04" stroke="none" /><path d="M 85.31137513191541 84.99185889309783 l -4.506562518480904 -4.604592110688 a27.44293211502241,27.44293211502241 0 0,0 0.3404449362080943,-0.32750775889801376 l 4.426634338660382 4.681482956348328" fill="#ff4a06" stroke="none" /><line stroke="#e1ed5e" stroke-width="0.3" x1="56.762969772571076" x2="54.21961505331055" y1="26.818313649435495" y2="22.513508569990535" /><path d="M 56.25429882871897 25.957352633546506 a86.0,86.0 0 0,1 42.265352541879196,-11.944610805530505" fill="none" id="id24" stroke="none" /><text fill="#e1ed5e" style="font-size:6.75px; font-family:Arial;" text-anchor="middle"><textPath startOffset="22.20632615414155" xlink:href="#id24">December</textPath></text><path d="M 91.23893434514133 80.91482961587045 l -8.276878401201314 -18.030413280608734 a40.839418316518874,40.839418316518874 0 0,0 0.6414081158192126,-0.28778112497027036 l 7.965288166915327 18.17021473609553" fill="#fffa17" stroke="none" /><path d="M 92.23578459929587 80.48803036053334 l -2.40752382717361 -6.050261281757309 a27.51166895319013,27.51166895319013 0 0,0 0.44151883791337165,-0.1713024497036859 l 2.303021824260562 6.0908064353515465" fill="#ff4b07" stroke="none" /><path d="M 92.57280143429618 80.3572730644239 l -2.1204762322385777 -5.608027742192813 a26.99553121989144,26.99553121989144 0 0,0 0.43606482452121736,-0.16060635497360193 l 2.023629081944791 5.643697364972737" fill="#ff4406" stroke="none" /><path d="M 92.91201910852362 80.23233633223022 l -4.600586011417186 -12.830570276748954 a34.63044112547504,34.63044112547504 0 0,0 0.5628567982548346,-0.19636968492817075 l 4.379047209099066 12.907860814849334" fill="#ffab0f" stroke="none" /><path d="M 93.25333710446033 80.11325718540243 l -4.385411026641104 -12.926619066852883 a34.650249461900316,34.650249461900316 0 0,0 0.5664774216121948,-0.1867586995276658 l 4.1622507827865 13.000191490639782" fill="#ffac0f" stroke="none" /><path d="M 94.28887869178378 79.79150937346287 l -0.8142569587686597 -2.881203748061953 a23.994052343020982,23.994052343020982 0 0,0 0.39841793800418585,-0.10890267278134515 l 0.7645411315407513 2.8947929616695944" fill="#ff1902" stroke="none" /><path d="M 95.33964822691252 79.52364482259891 l -3.904188873936943 -17.153975054854676 a38.592656165171576,38.592656165171576 0 0,0 0.6490132056653247,-0.14184914897992948 l 3.6083329441180974 17.218637701930472" fill="#ffde14" stroke="none" /><path d="M 96.40284397218896 79.31037775812273 l -1.878321544627826 -10.803468881158755 a31.965538367594117,31.965538367594117 0 0,0 0.5429130450365572,-0.08958530428950709 l 1.6920792934523832 10.83420044838789" fill="#ff880c" stroke="none" /><path d="M 96.75951476605007 79.25152402106235 l -1.1021867446201452 -7.057182348946939 a28.142733253195487,28.142733253195487 0 0,0 0.479272113660232,-0.07063225110618669 l 0.9805456505312645 7.075109084214095" fill="#ff5407" stroke="none" /><path d="M 97.11714578562143 79.19881850522333 l -1.2405720014361645 -8.951324430664853 a30.036881539212782,30.036881539212782 0 0,0 0.5127514111124767,-0.06656984922643569 l 1.08630586181583 8.971352603055426" fill="#ff6e0a" stroke="none" /><path d="M 97.47563105711357 79.15227682838746 l -3.1825777616558555 -26.28359865308194 a47.47558043490788,47.47558043490788 0 0,0 0.8121337744010236,-0.09125269227071266 l 2.7296772837451138 26.334487298823248" fill="#b6ff1f" stroke="none" /><path d="M 98.19473922651362 79.07773832637324 l -0.5181817090104416 -6.005522010798496 a27.027836005212666,27.027836005212666 0 0,0 0.4638617741230754,-0.03600460123138408 l 0.414729745525032 6.013551874218343" fill="#ff4406" stroke="none" /><path d="M 98.55514903715128 79.0497635885617 l -1.3014452003781884 -18.870863033995583 a39.915687438140026,39.915687438140026 0 0,0 0.6858616606826878,-0.041373048379327676 l 0.9764214908558775 18.890469351755215" fill="#ffef16" stroke="none" /><path d="M 99.63851952072746 79.00311137660856 l -0.12010798856288828 -6.9765705293677485 a27.977604336744754,27.977604336744754 0 0,0 0.4815884678354223,-0.0041451839855648955 l 1.7090201633422308e-15 6.977604336744754" fill="#ff5107" stroke="none" /></svg>