<?xml version="1.0" encoding="utf-8" ?>
<svg baseProfile="full" height="300mm" version="1.1" viewBox="0,0,200,300" width="200mm" xmlns="http://www.w3.org/2000/svg" xmlns:ev="http://www.w3.org/2001/xml-events" xmlns:xlink="http://www.w3.org/1999/xlink"><defs /><rect fill="#222222" height="300" width="200" x="0" y="0" /><text fill="#555555" style="font-size:6px; font-family:Arial;" x="11" y="19">Running for 4676 Days</text><text fill="#555555" style="font-size:6px; font-family:Arial;" x="11" y="39">Races</text><text fill="#555555" style="font-size:8px; font-family:Arial;" x="11" y="59">1</text><text fill="#FFFFFF" style="font-size:10px; font-family:Arial; font-weight:bold;" x="23" y="59">Full</text><text fill="#555555" style="font-size:6px; font-family:Arial;" x="49" y="59">14x</text><text fill="#555555" style="font-size:8px; font-family:Arial;" x="11" y="77">2</text><text fill="#FFFFFF" style="font-size:10px; font-family:Arial; font-weight:bold;" x="23" y="77">Half</text><text fill="#555555" style="font-size:6px; font-family:Arial;" x="49" y="77">49x</text><text fill="#555555" style="font-size:8px; font-family:Arial;" x="11" y="95">3</text><text fill="#FFFFFF" style="font-size:10px; font-family:Arial; font-weight:bold;" x="23" y="95">10K</text><text fill="#555555" style="font-size:6px; font-family:Arial;" x="49" y="95">99x</text><text fill="#555555" style="font-size:6px; font-family:Arial;" x="11" y="133">Stats</text><text fill="#555555" style="font-size:5px; font-family:Arial;" x="11" y="139">Distance</text><text fill="#FFFFFF" style="font-size:10px; font-family:Arial; font-weight:bold;" x="11" y="150">4303</text><text fill="#555555" style="font-size:6px; font-family:Arial;" x="35" y="150">km</text><text fill="#555555" style="font-size:5px; font-family:Arial;" x="53" y="139">Runs</text><text fill="#FFFFFF" style="font-size:10px; font-family:Arial; font-weight:bold;" x="53" y="150">309</text><text fill="#555555" style="font-size:5px; font-family:Arial;" x="11" y="167">Avg Pace</text><text fill="#FFFFFF" style="font-size:10px; font-family:Arial; font-weight:bold;" x="11" y="178">7'04"</text><text fill="#555555" style="font-size:5px; font-family:Arial;" x="53" y="167">Streak</text><text fill="#FFFFFF" style="font-size:10px; font-family:Arial; font-weight:bold;" x="53" y="178">14</text><text fill="#555555" style="font-size:6px; font-family:Arial;" x="65" y="178">d</text><text fill="#555555" style="font-size:5px; font-family:Arial;" x="11" y="195">Time</text><text fill="#FFFFFF" style="font-size:10px; font-family:Arial; font-weight:bold;" x="11" y="206">506</text><text fill="#555555" style="font-size:6px; font-family:Arial;" x="29" y="206">h</text><text fill="#555555" style="font-size:5px; font-family:Arial;" x="53" y="195">Longest</text><text fill="#FFFFFF" style="font-size:10px; font-family:Arial; font-weight:bold;" x="53" y="206">117.4</text><text fill="#555555" style="font-size:5px; font-family:Arial;" x="11" y="252.0645161290322">Runner</text><text fill="#FFFFFF" style="font-size:8px; font-family:Arial; font-weight:bold;" x="11" y="262.0645161290322">yihong0618</text><text fill="#555555" style="font-size:7px; font-family:Arial;" x="11" y="285.5806451612903">running_page/2024</text><circle cx="85.41666666666667" cy="17.419354838709676" fill="#FFFF00" r="3.3125"><title>2024-01-01: 29 km</title></circle><circle cx="85.41666666666667" cy="26.25806451612903" fill="#FFFF00" r="3.3125"><title>2024-01-02: 12 km</title></circle><circle cx="85.41666666666667" cy="35.096774193548384" fill="#555555" r="3.3125"><title>2024-01-03</title></circle><circle cx="85.41666666666667" cy="43.935483870967744" fill="#555555" r="3.3125"><title>2024-01-04</title></circle><circle cx="85.41666666666667" cy="52.774193548387096" fill="#FFFF00" r="3.3125"><title>2024-01-05: 42 km</title></circle><circle cx="85.41666666666667" cy="61.61290322580645" fill="#FFFF00" r="3.3125"><title>2024-01-06: 52 km</title></circle><circle cx="85.41666666666667" cy="70.45161290322581" fill="#FFFF00" r="3.3125"><title>2024-01-07: 11 km</title></circle><circle cx="85.41666666666667" cy="79.29032258064517" fill="#555555" r="3.3125"><title>2024-01-08</title></circle><circle cx="85.41666666666667" cy="88.12903225806451" fill="#5093aa" r="3.3125"><title>2024-01-09: 5 km</title></circle><circle cx="85.41666666666667" cy="96.96774193548387" fill="#555555" r="3.3125"><title>2024-01-10</title></circle><circle cx="85.41666666666667" cy="105.80645161290322" fill="#555555" r="3.3125"><title>2024-01-11</title></circle><circle cx="85.41666666666667" cy="114.64516129032258" fill="#FFFF00" r="3.3125"><title>2024-01-12: 45 km</title></circle><circle cx="85.41666666666667" cy="123.48387096774194" fill="#FFFF00" r="3.3125"><title>2024-01-13: 31 km</title></circle><circle cx="85.41666666666667" cy="132.32258064516128" fill="#FFFF00" r="3.3125"><title>2024-01-14: 41 km</title></circle><circle cx="85.41666666666667" cy="141.16129032258064" fill="#4dd1fd" r="3.3125"><title>2024-01-15: 9 km</title></circle><circle cx="85.41666666666667" cy="149.99999999999997" fill="#FFFF00" r="3.3125"><title>2024-01-16: 26 km</title></circle><circle cx="85.41666666666667" cy="158.83870967741933" fill="#FFFF00" r="3.3125"><title>2024-01-17: 48 km</title></circle><circle cx="85.41666666666667" cy="167.6774193548387" fill="#555555" r="3.3125"><title>2024-01-18</title></circle><circle cx="85.41666666666667" cy="176.51612903225805" fill="#50a0bc" r="3.3125"><title>2024-01-19: 6 km</title></circle><circle cx="85.41666666666667" cy="185.35483870967738" fill="#FFFF00" r="3.3125"><title>2024-01-20: 25 km</title></circle><circle cx="85.41666666666667" cy="194.19354838709674" fill="#FFFF00" r="3.3125"><title>2024-01-21: 29 km</title></circle><circle cx="85.41666666666667" cy="203.0322580645161" fill="#555555" r="3.3125"><title>2024-01-22</title></circle><circle cx="85.41666666666667" cy="211.87096774193546" fill="#555555" r="3.3125"><title>2024-01-23</title></circle><circle cx="85.41666666666667" cy="220.70967741935482" fill="#FFFF00" r="3.3125"><title>2024-01-24: 22 km</title></circle><circle cx="85.41666666666667" cy="229.54838709677418" fill="#555555" r="3.3125"><title>2024-01-25</title></circle><circle cx="85.41666666666667" cy="238.3870967741935" fill="#FFFF00" r="3.3125"><title>2024-01-26: 32 km</title></circle><circle cx="85.41666666666667" cy="247.22580645161287" fill="#FFFF00" r="3.3125"><title>2024-01-27: 28 km</title></circle><circle cx="85.41666666666667" cy="256.06451612903226" fill="#FFFF00" r="3.3125"><title>2024-01-28: 14 km</title></circle><circle cx="85.41666666666667" cy="264.90322580645164" fill="#FFFF00" r="3.3125"><title>2024-01-29: 20 km</title></circle><circle cx="85.41666666666667" cy="273.741935483871" fill="#FFFF00" r="3.3125"><title>2024-01-30: 18 km</title></circle><circle cx="85.41666666666667" cy="282.5806451612903" fill="#5093aa" r="3.3125"><title>2024-01-31: 5 km</title></circle><circle cx="94.25" cy="17.419354838709676" fill="#555555" r="3.3125"><title>2024-02-01</title></circle><circle cx="94.25" cy="26.25806451612903" fill="#518da1" r="3.3125"><title>2024-02-02: 4 km</title></circle><circle cx="94.25" cy="35.096774193548384" fill="#555555" r="3.3125"><title>2024-02-03</title></circle><circle cx="94.25" cy="43.935483870967744" fill="#4faece" r="3.3125"><title>2024-02-04: 7 km</title></circle><circle cx="94.25" cy="52.774193548387096" fill="#FFFF00" r="3.3125"><title>2024-02-05: 73 km</title></circle><circle cx="94.25" cy="61.61290322580645" fill="#FFFF00" r="3.3125"><title>2024-02-06: 23 km</title></circle><circle cx="94.25" cy="70.45161290322581" fill="#527a87" r="3.3125"><title>2024-02-07: 2 km</title></circle><circle cx="94.25" cy="79.29032258064517" fill="#FFFF00" r="3.3125"><title>2024-02-08: 29 km</title></circle><circle cx="94.25" cy="88.12903225806451" fill="#FFFF00" r="3.3125"><title>2024-02-09: 56 km</title></circle><circle cx="94.25" cy="96.96774193548387" fill="#FFFF00" r="3.3125"><title>2024-02-10: 26 km</title></circle><circle cx="94.25" cy="105.80645161290322" fill="#FFFF00" r="3.3125"><title>2024-02-11: 37 km</title></circle><circle cx="94.25" cy="114.64516129032258" fill="#555555" r="3.3125"><title>2024-02-12</title></circle><circle cx="94.25" cy="123.48387096774194" fill="#FFFF00" r="3.3125"><title>2024-02-13: 15 km</title></circle><circle cx="94.25" cy="132.32258064516128" fill="#FFFF00" r="3.3125"><title>2024-02-14: 30 km</title></circle><circle cx="94.25" cy="141.16129032258064" fill="#4ec1e9" r="3.3125"><title>2024-02-15: 8 km</title></circle><circle cx="94.25" cy="149.99999999999997" fill="#555555" r="3.3125"><title>2024-02-16</title></circle><circle cx="94.25" cy="158.83870967741933" fill="#FFFF00" r="3.3125"><title>2024-02-17: 12 km</title></circle><circle cx="94.25" cy="167.6774193548387" fill="#FFFF00" r="3.3125"><title>2024-02-18: 21 km</title></circle><circle cx="94.25" cy="176.51612903225805" fill="#FFFF00" r="3.3125"><title>2024-02-19: 36 km</title></circle><circle cx="94.25" cy="185.35483870967738" fill="#FFFF00" r="3.3125"><title>2024-02-20: 23 km</title></circle><circle cx="94.25" cy="194.19354838709674" fill="#555555" r="3.3125"><title>2024-02-21</title></circle><circle cx="94.25" cy="203.0322580645161" fill="#FFFF00" r="3.3125"><title>2024-02-22: 12 km</title></circle><circle cx="94.25" cy="211.87096774193546" fill="#FFFF00" r="3.3125"><title>2024-02-23: 29 km</title></circle><circle cx="94.25" cy="220.70967741935482" fill="#FFFF00" r="3.3125"><title>2024-02-24: 23 km</title></circle><circle cx="94.25" cy="229.54838709677418" fill="#FFFF00" r="3.3125"><title>2024-02-25: 19 km</title></circle><circle cx="94.25" cy="238.3870967741935" fill="#555555" r="3.3125"><title>2024-02-26</title></circle><circle cx="94.25" cy="247.22580645161287" fill="#FFFF00" r="3.3125"><title>2024-02-27: 21 km</title></circle><circle cx="94.25" cy="256.06451612903226" fill="#555555" r="3.3125"><title>2024-02-28</title></circle><circle cx="94.25" cy="264.90322580645164" fill="#5097af" r="3.3125"><title>2024-02-29: 5 km</title></circle><circle cx="103.08333333333334" cy="17.419354838709676" fill="#FFFF00" r="3.3125"><title>2024-03-01: 60 km</title></circle><circle cx="103.08333333333334" cy="26.25806451612903" fill="#FFFF00" r="3.3125"><title>2024-03-02: 21 km</title></circle><circle cx="103.08333333333334" cy="35.096774193548384" fill="#FFFF00" r="3.3125"><title>2024-03-03: 10 km</title></circle><circle cx="103.08333333333334" cy="43.935483870967744" fill="#509db7" r="3.3125"><title>2024-03-04: 5 km</title></circle><circle cx="103.08333333333334" cy="52.774193548387096" fill="#FFFF00" r="3.3125"><title>2024-03-05: 30 km</title></circle><circle cx="103.08333333333334" cy="61.61290322580645" fill="#555555" r="3.3125"><title>2024-03-06</title></circle><circle cx="103.08333333333334" cy="70.45161290322581" fill="#FFFF00" r="3.3125"><title>2024-03-07: 70 km</title></circle><circle cx="103.08333333333334" cy="79.29032258064517" fill="#FFFF00" r="3.3125"><title>2024-03-08: 22 km</title></circle><circle cx="103.08333333333334" cy="88.12903225806451" fill="#555555" r="3.3125"><title>2024-03-09</title></circle><circle cx="103.08333333333334" cy="96.96774193548387" fill="#FFFF00" r="3.3125"><title>2024-03-10: 14 km</title></circle><circle cx="103.08333333333334" cy="105.80645161290322" fill="#555555" r="3.3125"><title>2024-03-11</title></circle><circle cx="103.08333333333334" cy="114.64516129032258" fill="#FFFF00" r="3.3125"><title>2024-03-12: 18 km</title></circle><circle cx="103.08333333333334" cy="123.48387096774194" fill="#555555" r="3.3125"><title>2024-03-13</title></circle><circle cx="103.08333333333334" cy="132.32258064516128" fill="#FFFF00" r="3.3125"><title>2024-03-14: 12 km</title></circle><circle cx="103.08333333333334" cy="141.16129032258064" fill="#FFFF00" r="3.3125"><title>2024-03-15: 28 km</title></circle><circle cx="103.08333333333334" cy="149.99999999999997" fill="#FFFF00" r="3.3125"><title>2024-03-16: 14 km</title></circle><circle cx="103.08333333333334" cy="158.83870967741933" fill="#FFFF00" r="3.3125"><title>2024-03-17: 17 km</title></circle><circle cx="103.08333333333334" cy="167.6774193548387" fill="#555555" r="3.3125"><title>2024-03-18</title></circle><circle cx="103.08333333333334" cy="176.51612903225805" fill="#FFFF00" r="3.3125"><title>2024-03-19: 10 km</title></circle><circle cx="103.08333333333334" cy="185.35483870967738" fill="#518799" r="3.3125"><title>2024-03-20: 4 km</title></circle><circle cx="103.08333333333334" cy="194.19354838709674" fill="#555555" r="3.3125"><title>2024-03-21</title></circle><circle cx="103.08333333333334" cy="203.0322580645161" fill="#FFFF00" r="3.3125"><title>2024-03-22: 18 km</title></circle><circle cx="103.08333333333334" cy="211.87096774193546" fill="#555555" r="3.3125"><title>2024-03-23</title></circle><circle cx="103.08333333333334" cy="220.70967741935482" fill="#555555" r="3.3125"><title>2024-03-24</title></circle><circle cx="103.08333333333334" cy="229.54838709677418" fill="#FFFF00" r="3.3125"><title>2024-03-25: 10 km</title></circle><circle cx="103.08333333333334" cy="238.3870967741935" fill="#FFFF00" r="3.3125"><title>2024-03-26: 12 km</title></circle><circle cx="103.08333333333334" cy="247.22580645161287" fill="#555555" r="3.3125"><title>2024-03-27</title></circle><circle cx="103.08333333333334" cy="256.06451612903226" fill="#51879a" r="3.3125"><title>2024-03-28: 4 km</title></circle><circle cx="103.08333333333334" cy="264.90322580645164" fill="#4dc6ee" r="3.3125"><title>2024-03-29: 9 km</title></circle><circle cx="103.08333333333334" cy="273.741935483871" fill="#FFFF00" r="3.3125"><title>2024-03-30: 15 km</title></circle><circle cx="103.08333333333334" cy="282.5806451612903" fill="#FFFF00" r="3.3125"><title>2024-03-31: 10 km</title></circle><circle cx="111.91666666666667" cy="17.419354838709676" fill="#555555" r="3.3125"><title>2024-04-01</title></circle><circle cx="111.91666666666667" cy="26.25806451612903" fill="#FFFF00" r="3.3125"><title>2024-04-02: 21 km</title></circle><circle cx="111.91666666666667" cy="35.096774193548384" fill="#FFFF00" r="3.3125"><title>2024-04-03: 36 km</title></circle><circle cx="111.91666666666667" cy="43.935483870967744" fill="#FFFF00" r="3.3125"><title>2024-04-04: 40 km</title></circle><circle cx="111.91666666666667" cy="52.774193548387096" fill="#555555" r="3.3125"><title>2024-04-05</title></circle><circle cx="111.91666666666667" cy="61.61290322580645" fill="#FFFF00" r="3.3125"><title>2024-04-06: 10 km</title></circle><circle cx="111.91666666666667" cy="70.45161290322581" fill="#FFFF00" r="3.3125"><title>2024-04-07: 22 km</title></circle><circle cx="111.91666666666667" cy="79.29032258064517" fill="#FFFF00" r="3.3125"><title>2024-04-08: 10 km</title></circle><circle cx="111.91666666666667" cy="88.12903225806451" fill="#555555" r="3.3125"><title>2024-04-09</title></circle><circle cx="111.91666666666667" cy="96.96774193548387" fill="#FFFF00" r="3.3125"><title>2024-04-10: 12 km</title></circle><circle cx="111.91666666666667" cy="105.80645161290322" fill="#555555" r="3.3125"><title>2024-04-11</title></circle><circle cx="111.91666666666667" cy="114.64516129032258" fill="#518da1" r="3.3125"><title>2024-04-12: 4 km</title></circle><circle cx="111.91666666666667" cy="123.48387096774194" fill="#536c74" r="3.3125"><title>2024-04-13: 1 km</title></circle><circle cx="111.91666666666667" cy="132.32258064516128" fill="#5093aa" r="3.3125"><title>2024-04-14: 5 km</title></circle><circle cx="111.91666666666667" cy="141.16129032258064" fill="#4ec1e8" r="3.3125"><title>2024-04-15: 8 km</title></circle><circle cx="111.91666666666667" cy="149.99999999999997" fill="#FFFF00" r="3.3125"><title>2024-04-16: 14 km</title></circle><circle cx="111.91666666666667" cy="158.83870967741933" fill="#555555" r="3.3125"><title>2024-04-17</title></circle><circle cx="111.91666666666667" cy="167.6774193548387" fill="#FFFF00" r="3.3125"><title>2024-04-18: 10 km</title></circle><circle cx="111.91666666666667" cy="176.51612903225805" fill="#536d75" r="3.3125"><title>2024-04-19: 1 km</title></circle><circle cx="111.91666666666667" cy="185.35483870967738" fill="#FFFF00" r="3.3125"><title>2024-04-20: 15 km</title></circle><circle cx="111.91666666666667" cy="194.19354838709674" fill="#FFFF00" r="3.3125"><title>2024-04-21: 22 km</title></circle><circle cx="111.91666666666667" cy="203.0322580645161" fill="#555555" r="3.3125"><title>2024-04-22</title></circle><circle cx="111.91666666666667" cy="211.87096774193546" fill="#555555" r="3.3125"><title>2024-04-23</title></circle><circle cx="111.91666666666667" cy="220.70967741935482" fill="#FFFF00" r="3.3125"><title>2024-04-24: 19 km</title></circle><circle cx="111.91666666666667" cy="229.54838709677418" fill="#555555" r="3.3125"><title>2024-04-25</title></circle><circle cx="111.91666666666667" cy="238.3870967741935" fill="#518799" r="3.3125"><title>2024-04-26: 4 km</title></circle><circle cx="111.91666666666667" cy="247.22580645161287" fill="#555555" r="3.3125"><title>2024-04-27</title></circle><circle cx="111.91666666666667" cy="256.06451612903226" fill="#FFFF00" r="3.3125"><title>2024-04-28: 15 km</title></circle><circle cx="111.91666666666667" cy="264.90322580645164" fill="#50a1bd" r="3.3125"><title>2024-04-29: 6 km</title></circle><circle cx="111.91666666666667" cy="273.741935483871" fill="#555555" r="3.3125"><title>2024-04-30</title></circle><circle cx="120.75000000000001" cy="17.419354838709676" fill="#FFFF00" r="3.3125"><title>2024-05-01: 14 km</title></circle><circle cx="120.75000000000001" cy="26.25806451612903" fill="#FFFF00" r="3.3125"><title>2024-05-02: 16 km</title></circle><circle cx="120.75000000000001" cy="35.096774193548384" fill="#555555" r="3.3125"><title>2024-05-03</title></circle><circle cx="120.75000000000001" cy="43.935483870967744" fill="#FFFF00" r="3.3125"><title>2024-05-04: 22 km</title></circle><circle cx="120.75000000000001" cy="52.774193548387096" fill="#FFFF00" r="3.3125"><title>2024-05-05: 16 km</title></circle><circle cx="120.75000000000001" cy="61.61290322580645" fill="#555555" r="3.3125"><title>2024-05-06</title></circle><circle cx="120.75000000000001" cy="70.45161290322581" fill="#4fa3bf" r="3.3125"><title>2024-05-07: 6 km</title></circle><circle cx="120.75000000000001" cy="79.29032258064517" fill="#555555" r="3.3125"><title>2024-05-08</title></circle><circle cx="120.75000000000001" cy="88.12903225806451" fill="#555555" r="3.3125"><title>2024-05-09</title></circle><circle cx="120.75000000000001" cy="96.96774193548387" fill="#555555" r="3.3125"><title>2024-05-10</title></circle><circle cx="120.75000000000001" cy="105.80645161290322" fill="#FFFF00" r="3.3125"><title>2024-05-11: 22 km</title></circle><circle cx="120.75000000000001" cy="114.64516129032258" fill="#555555" r="3.3125"><title>2024-05-12</title></circle><circle cx="120.75000000000001" cy="123.48387096774194" fill="#FFFF00" r="3.3125"><title>2024-05-13: 21 km</title></circle><circle cx="120.75000000000001" cy="132.32258064516128" fill="#555555" r="3.3125"><title>2024-05-14</title></circle><circle cx="120.75000000000001" cy="141.16129032258064" fill="#4dcaf4" r="3.3125"><title>2024-05-15: 9 km</title></circle><circle cx="120.75000000000001" cy="149.99999999999997" fill="#FFFF00" r="3.3125"><title>2024-05-16: 10 km</title></circle><circle cx="120.75000000000001" cy="158.83870967741933" fill="#FFFF00" r="3.3125"><title>2024-05-17: 10 km</title></circle><circle cx="120.75000000000001" cy="167.6774193548387" fill="#555555" r="3.3125"><title>2024-05-18</title></circle><circle cx="120.75000000000001" cy="176.51612903225805" fill="#555555" r="3.3125"><title>2024-05-19</title></circle><circle cx="120.75000000000001" cy="185.35483870967738" fill="#FFFF00" r="3.3125"><title>2024-05-20: 10 km</title></circle><circle cx="120.75000000000001" cy="194.19354838709674" fill="#4fb0d1" r="3.3125"><title>2024-05-21: 7 km</title></circle><circle cx="120.75000000000001" cy="203.0322580645161" fill="#FFFF00" r="3.3125"><title>2024-05-22: 10 km</title></circle><circle cx="120.75000000000001" cy="211.87096774193546" fill="#50a0bb" r="3.3125"><title>2024-05-23: 6 km</title></circle><circle cx="120.75000000000001" cy="220.70967741935482" fill="#555555" r="3.3125"><title>2024-05-24</title></circle><circle cx="120.75000000000001" cy="229.54838709677418" fill="#555555" r="3.3125"><title>2024-05-25</title></circle><circle cx="120.75000000000001" cy="238.3870967741935" fill="#FFFF00" r="3.3125"><title>2024-05-26: 23 km</title></circle><circle cx="120.75000000000001" cy="247.22580645161287" fill="#FFFF00" r="3.3125"><title>2024-05-27: 20 km</title></circle><circle cx="120.75000000000001" cy="256.06451612903226" fill="#FFFF00" r="3.3125"><title>2024-05-28: 20 km</title></circle><circle cx="120.75000000000001" cy="264.90322580645164" fill="#555555" r="3.3125"><title>2024-05-29</title></circle><circle cx="120.75000000000001" cy="273.741935483871" fill="#555555" r="3.3125"><title>2024-05-30</title></circle><circle cx="120.75000000000001" cy="282.5806451612903" fill="#FFFF00" r="3.3125"><title>2024-05-31: 16 km</title></circle><circle cx="129.58333333333334" cy="17.419354838709676" fill="#FFFF00" r="3.3125"><title>2024-06-01: 11 km</title></circle><circle cx="129.58333333333334" cy="26.25806451612903" fill="#527d8c" r="3.3125"><title>2024-06-02: 3 km</title></circle><circle cx="129.58333333333334" cy="35.096774193548384" fill="#FFFF00" r="3.3125"><title>2024-06-03: 10 km</title></circle><circle cx="129.58333333333334" cy="43.935483870967744" fill="#FFFF00" r="3.3125"><title>2024-06-04: 28 km</title></circle><circle cx="129.58333333333334" cy="52.774193548387096" fill="#555555" r="3.3125"><title>2024-06-05</title></circle><circle cx="129.58333333333334" cy="61.61290322580645" fill="#FFFF00" r="3.3125"><title>2024-06-06: 12 km</title></circle><circle cx="129.58333333333334" cy="70.45161290322581" fill="#555555" r="3.3125"><title>2024-06-07</title></circle><circle cx="129.58333333333334" cy="79.29032258064517" fill="#555555" r="3.3125"><title>2024-06-08</title></circle><circle cx="129.58333333333334" cy="88.12903225806451" fill="#555555" r="3.3125"><title>2024-06-09</title></circle><circle cx="129.58333333333334" cy="96.96774193548387" fill="#FFFF00" r="3.3125"><title>2024-06-10: 10 km</title></circle><circle cx="129.58333333333334" cy="105.80645161290322" fill="#555555" r="3.3125"><title>2024-06-11</title></circle><circle cx="129.58333333333334" cy="114.64516129032258" fill="#FFFF00" r="3.3125"><title>2024-06-12: 14 km</title></circle><circle cx="129.58333333333334" cy="123.48387096774194" fill="#4eb6d9" r="3.3125"><title>2024-06-13: 7 km</title></circle><circle cx="129.58333333333334" cy="132.32258064516128" fill="#51899c" r="3.3125"><title>2024-06-14: 4 km</title></circle><circle cx="129.58333333333334" cy="141.16129032258064" fill="#FFFF00" r="3.3125"><title>2024-06-15: 28 km</title></circle><circle cx="129.58333333333334" cy="149.99999999999997" fill="#FFFF00" r="3.3125"><title>2024-06-16: 10 km</title></circle><circle cx="129.58333333333334" cy="158.83870967741933" fill="#53656b" r="3.3125"><title>2024-06-17: 1 km</title></circle><circle cx="129.58333333333334" cy="167.6774193548387" fill="#FFFF00" r="3.3125"><title>2024-06-18: 13 km</title></circle><circle cx="129.58333333333334" cy="176.51612903225805" fill="#555555" r="3.3125"><title>2024-06-19</title></circle><circle cx="129.58333333333334" cy="185.35483870967738" fill="#FFFF00" r="3.3125"><title>2024-06-20: 10 km</title></circle><circle cx="129.58333333333334" cy="194.19354838709674" fill="#528090" r="3.3125"><title>2024-06-21: 3 km</title></circle><circle cx="129.58333333333334" cy="203.0322580645161" fill="#555555" r="3.3125"><title>2024-06-22</title></circle><circle cx="129.58333333333334" cy="211.87096774193546" fill="#50a0bb" r="3.3125"><title>2024-06-23: 6 km</title></circle><circle cx="129.58333333333334" cy="220.70967741935482" fill="#4dcffb" r="3.3125"><title>2024-06-24: 9 km</title></circle><circle cx="129.58333333333334" cy="229.54838709677418" fill="#FFFF00" r="3.3125"><title>2024-06-25: 13 km</title></circle><circle cx="129.58333333333334" cy="238.3870967741935" fill="#555555" r="3.3125"><title>2024-06-26</title></circle><circle cx="129.58333333333334" cy="247.22580645161287" fill="#5097ae" r="3.3125"><title>2024-06-27: 5 km</title></circle><circle cx="129.58333333333334" cy="256.06451612903226" fill="#536a71" r="3.3125"><title>2024-06-28: 1 km</title></circle><circle cx="129.58333333333334" cy="264.90322580645164" fill="#FFFF00" r="3.3125"><title>2024-06-29: 30 km</title></circle><circle cx="129.58333333333334" cy="273.741935483871" fill="#FFFF00" r="3.3125"><title>2024-06-30: 20 km</title></circle><circle cx="138.41666666666666" cy="17.419354838709676" fill="#FFFF00" r="3.3125"><title>2024-07-01: 37 km</title></circle><circle cx="138.41666666666666" cy="26.25806451612903" fill="#FFFF00" r="3.3125"><title>2024-07-02: 12 km</title></circle><circle cx="138.41666666666666" cy="35.096774193548384" fill="#555555" r="3.3125"><title>2024-07-03</title></circle><circle cx="138.41666666666666" cy="43.935483870967744" fill="#FFFF00" r="3.3125"><title>2024-07-04: 21 km</title></circle><circle cx="138.41666666666666" cy="52.774193548387096" fill="#5099b1" r="3.3125"><title>2024-07-05: 5 km</title></circle><circle cx="138.41666666666666" cy="61.61290322580645" fill="#555555" r="3.3125"><title>2024-07-06</title></circle><circle cx="138.41666666666666" cy="70.45161290322581" fill="#555555" r="3.3125"><title>2024-07-07</title></circle><circle cx="138.41666666666666" cy="79.29032258064517" fill="#FFFF00" r="3.3125"><title>2024-07-08: 10 km</title></circle><circle cx="138.41666666666666" cy="88.12903225806451" fill="#555555" r="3.3125"><title>2024-07-09</title></circle><circle cx="138.41666666666666" cy="96.96774193548387" fill="#4fa9c8" r="3.3125"><title>2024-07-10: 6 km</title></circle><circle cx="138.41666666666666" cy="105.80645161290322" fill="#555555" r="3.3125"><title>2024-07-11</title></circle><circle cx="138.41666666666666" cy="114.64516129032258" fill="#FFFF00" r="3.3125"><title>2024-07-12: 14 km</title></circle><circle cx="138.41666666666666" cy="123.48387096774194" fill="#FFFF00" r="3.3125"><title>2024-07-13: 37 km</title></circle><circle cx="138.41666666666666" cy="132.32258064516128" fill="#FFFF00" r="3.3125"><title>2024-07-14: 40 km</title></circle><circle cx="138.41666666666666" cy="141.16129032258064" fill="#555555" r="3.3125"><title>2024-07-15</title></circle><circle cx="138.41666666666666" cy="149.99999999999997" fill="#4dcdf8" r="3.3125"><title>2024-07-16: 9 km</title></circle><circle cx="138.41666666666666" cy="158.83870967741933" fill="#555555" r="3.3125"><title>2024-07-17</title></circle><circle cx="138.41666666666666" cy="167.6774193548387" fill="#FFFF00" r="3.3125"><title>2024-07-18: 20 km</title></circle><circle cx="138.41666666666666" cy="176.51612903225805" fill="#555555" r="3.3125"><title>2024-07-19</title></circle><circle cx="138.41666666666666" cy="185.35483870967738" fill="#4fb2d4" r="3.3125"><title>2024-07-20: 7 km</title></circle><circle cx="138.41666666666666" cy="194.19354838709674" fill="#FFFF00" r="3.3125"><title>2024-07-21: 26 km</title></circle><circle cx="138.41666666666666" cy="203.0322580645161" fill="#FFFF00" r="3.3125"><title>2024-07-22: 16 km</title></circle><circle cx="138.41666666666666" cy="211.87096774193546" fill="#555555" r="3.3125"><title>2024-07-23</title></circle><circle cx="138.41666666666666" cy="220.70967741935482" fill="#4faccb" r="3.3125"><title>2024-07-24: 6 km</title></circle><circle cx="138.41666666666666" cy="229.54838709677418" fill="#FFFF00" r="3.3125"><title>2024-07-25: 22 km</title></circle><circle cx="138.41666666666666" cy="238.3870967741935" fill="#FFFF00" r="3.3125"><title>2024-07-26: 29 km</title></circle><circle cx="138.41666666666666" cy="247.22580645161287" fill="#555555" r="3.3125"><title>2024-07-27</title></circle><circle cx="138.41666666666666" cy="256.06451612903226" fill="#555555" r="3.3125"><title>2024-07-28</title></circle><circle cx="138.41666666666666" cy="264.90322580645164" fill="#FFFF00" r="3.3125"><title>2024-07-29: 31 km</title></circle><circle cx="138.41666666666666" cy="273.741935483871" fill="#555555" r="3.3125"><title>2024-07-30</title></circle><circle cx="138.41666666666666" cy="282.5806451612903" fill="#FFFF00" r="3.3125"><title>2024-07-31: 36 km</title></circle><circle cx="147.25" cy="17.419354838709676" fill="#FFFF00" r="3.3125"><title>2024-08-01: 69 km</title></circle><circle cx="147.25" cy="26.25806451612903" fill="#518799" r="3.3125"><title>2024-08-02: 4 km</title></circle><circle cx="147.25" cy="35.096774193548384" fill="#53656b" r="3.3125"><title>2024-08-03: 1 km</title></circle><circle cx="147.25" cy="43.935483870967744" fill="#FFFF00" r="3.3125"><title>2024-08-04: 12 km</title></circle><circle cx="147.25" cy="52.774193548387096" fill="#5095ac" r="3.3125"><title>2024-08-05: 5 km</title></circle><circle cx="147.25" cy="61.61290322580645" fill="#FFFF00" r="3.3125"><title>2024-08-06: 14 km</title></circle><circle cx="147.25" cy="70.45161290322581" fill="#4fa9c8" r="3.3125"><title>2024-08-07: 6 km</title></circle><circle cx="147.25" cy="79.29032258064517" fill="#5096ae" r="3.3125"><title>2024-08-08: 5 km</title></circle><circle cx="147.25" cy="88.12903225806451" fill="#FFFF00" r="3.3125"><title>2024-08-09: 10 km</title></circle><circle cx="147.25" cy="96.96774193548387" fill="#FFFF00" r="3.3125"><title>2024-08-10: 56 km</title></circle><circle cx="147.25" cy="105.80645161290322" fill="#FFFF00" r="3.3125"><title>2024-08-11: 17 km</title></circle><circle cx="147.25" cy="114.64516129032258" fill="#FFFF00" r="3.3125"><title>2024-08-12: 18 km</title></circle><circle cx="147.25" cy="123.48387096774194" fill="#518799" r="3.3125"><title>2024-08-13: 4 km</title></circle><circle cx="147.25" cy="132.32258064516128" fill="#555555" r="3.3125"><title>2024-08-14</title></circle><circle cx="147.25" cy="141.16129032258064" fill="#4dc6ef" r="3.3125"><title>2024-08-15: 9 km</title></circle><circle cx="147.25" cy="149.99999999999997" fill="#5099b2" r="3.3125"><title>2024-08-16: 5 km</title></circle><circle cx="147.25" cy="158.83870967741933" fill="#51899c" r="3.3125"><title>2024-08-17: 4 km</title></circle><circle cx="147.25" cy="167.6774193548387" fill="#FFFF00" r="3.3125"><title>2024-08-18: 44 km</title></circle><circle cx="147.25" cy="176.51612903225805" fill="#FFFF00" r="3.3125"><title>2024-08-19: 21 km</title></circle><circle cx="147.25" cy="185.35483870967738" fill="#5193a9" r="3.3125"><title>2024-08-20: 4 km</title></circle><circle cx="147.25" cy="194.19354838709674" fill="#555555" r="3.3125"><title>2024-08-21</title></circle><circle cx="147.25" cy="203.0322580645161" fill="#4dccf7" r="3.3125"><title>2024-08-22: 9 km</title></circle><circle cx="147.25" cy="211.87096774193546" fill="#555555" r="3.3125"><title>2024-08-23</title></circle><circle cx="147.25" cy="220.70967741935482" fill="#5095ad" r="3.3125"><title>2024-08-24: 5 km</title></circle><circle cx="147.25" cy="229.54838709677418" fill="#518698" r="3.3125"><title>2024-08-25: 3 km</title></circle><circle cx="147.25" cy="238.3870967741935" fill="#555555" r="3.3125"><title>2024-08-26</title></circle><circle cx="147.25" cy="247.22580645161287" fill="#536c74" r="3.3125"><title>2024-08-27: 1 km</title></circle><circle cx="147.25" cy="256.06451612903226" fill="#5098b0" r="3.3125"><title>2024-08-28: 5 km</title></circle><circle cx="147.25" cy="264.90322580645164" fill="#4fafcf" r="3.3125"><title>2024-08-29: 7 km</title></circle><circle cx="147.25" cy="273.741935483871" fill="#5094ab" r="3.3125"><title>2024-08-30: 5 km</title></circle><circle cx="147.25" cy="282.5806451612903" fill="#555555" r="3.3125"><title>2024-08-31</title></circle><circle cx="156.08333333333334" cy="17.419354838709676" fill="#555555" r="3.3125"><title>2024-09-01</title></circle><circle cx="156.08333333333334" cy="26.25806451612903" fill="#555555" r="3.3125"><title>2024-09-02</title></circle><circle cx="156.08333333333334" cy="35.096774193548384" fill="#555555" r="3.3125"><title>2024-09-03</title></circle><circle cx="156.08333333333334" cy="43.935483870967744" fill="#518da1" r="3.3125"><title>2024-09-04: 4 km</title></circle><circle cx="156.08333333333334" cy="52.774193548387096" fill="#5093aa" r="3.3125"><title>2024-09-05: 5 km</title></circle><circle cx="156.08333333333334" cy="61.61290322580645" fill="#FFFF00" r="3.3125"><title>2024-09-06: 21 km</title></circle><circle cx="156.08333333333334" cy="70.45161290322581" fill="#555555" r="3.3125"><title>2024-09-07</title></circle><circle cx="156.08333333333334" cy="79.29032258064517" fill="#FFFF00" r="3.3125"><title>2024-09-08: 18 km</title></circle><circle cx="156.08333333333334" cy="88.12903225806451" fill="#FFFF00" r="3.3125"><title>2024-09-09: 17 km</title></circle><circle cx="156.08333333333334" cy="96.96774193548387" fill="#FFFF00" r="3.3125"><title>2024-09-10: 11 km</title></circle><circle cx="156.08333333333334" cy="105.80645161290322" fill="#555555" r="3.3125"><title>2024-09-11</title></circle><circle cx="156.08333333333334" cy="114.64516129032258" fill="#5093aa" r="3.3125"><title>2024-09-12: 5 km</title></circle><circle cx="156.08333333333334" cy="123.48387096774194" fill="#4dc9f3" r="3.3125"><title>2024-09-13: 9 km</title></circle><circle cx="156.08333333333334" cy="132.32258064516128" fill="#FFFF00" r="3.3125"><title>2024-09-14: 22 km</title></circle><circle cx="156.08333333333334" cy="141.16129032258064" fill="#4fb1d2" r="3.3125"><title>2024-09-15: 7 km</title></circle><circle cx="156.08333333333334" cy="149.99999999999997" fill="#509ab3" r="3.3125"><title>2024-09-16: 5 km</title></circle><circle cx="156.08333333333334" cy="158.83870967741933" fill="#FFFF00" r="3.3125"><title>2024-09-17: 25 km</title></circle><circle cx="156.08333333333334" cy="167.6774193548387" fill="#FFFF00" r="3.3125"><title>2024-09-18: 12 km</title></circle><circle cx="156.08333333333334" cy="176.51612903225805" fill="#FFFF00" r="3.3125"><title>2024-09-19: 10 km</title></circle><circle cx="156.08333333333334" cy="185.35483870967738" fill="#555555" r="3.3125"><title>2024-09-20</title></circle><circle cx="156.08333333333334" cy="194.19354838709674" fill="#4ec0e7" r="3.3125"><title>2024-09-21: 8 km</title></circle><circle cx="156.08333333333334" cy="203.0322580645161" fill="#FFFF00" r="3.3125"><title>2024-09-22: 12 km</title></circle><circle cx="156.08333333333334" cy="211.87096774193546" fill="#FFFF00" r="3.3125"><title>2024-09-23: 24 km</title></circle><circle cx="156.08333333333334" cy="220.70967741935482" fill="#555555" r="3.3125"><title>2024-09-24</title></circle><circle cx="156.08333333333334" cy="229.54838709677418" fill="#555555" r="3.3125"><title>2024-09-25</title></circle><circle cx="156.08333333333334" cy="238.3870967741935" fill="#FFFF00" r="3.3125"><title>2024-09-26: 14 km</title></circle><circle cx="156.08333333333334" cy="247.22580645161287" fill="#555555" r="3.3125"><title>2024-09-27</title></circle><circle cx="156.08333333333334" cy="256.06451612903226" fill="#FFFF00" r="3.3125"><title>2024-09-28: 10 km</title></circle><circle cx="156.08333333333334" cy="264.90322580645164" fill="#5094aa" r="3.3125"><title>2024-09-29: 5 km</title></circle><circle cx="156.08333333333334" cy="273.741935483871" fill="#FFFF00" r="3.3125"><title>2024-09-30: 14 km</title></circle><circle cx="164.91666666666666" cy="17.419354838709676" fill="#4ebfe6" r="3.3125"><title>2024-10-01: 8 km</title></circle><circle cx="164.91666666666666" cy="26.25806451612903" fill="#555555" r="3.3125"><title>2024-10-02</title></circle><circle cx="164.91666666666666" cy="35.096774193548384" fill="#53676e" r="3.3125"><title>2024-10-03: 1 km</title></circle><circle cx="164.91666666666666" cy="43.935483870967744" fill="#555555" r="3.3125"><title>2024-10-04</title></circle><circle cx="164.91666666666666" cy="52.774193548387096" fill="#555555" r="3.3125"><title>2024-10-05</title></circle><circle cx="164.91666666666666" cy="61.61290322580645" fill="#FFFF00" r="3.3125"><title>2024-10-06: 10 km</title></circle><circle cx="164.91666666666666" cy="70.45161290322581" fill="#FFFF00" r="3.3125"><title>2024-10-07: 66 km</title></circle><circle cx="164.91666666666666" cy="79.29032258064517" fill="#FFFF00" r="3.3125"><title>2024-10-08: 13 km</title></circle><circle cx="164.91666666666666" cy="88.12903225806451" fill="#4fb0d1" r="3.3125"><title>2024-10-09: 7 km</title></circle><circle cx="164.91666666666666" cy="96.96774193548387" fill="#555555" r="3.3125"><title>2024-10-10</title></circle><circle cx="164.91666666666666" cy="105.80645161290322" fill="#FFFF00" r="3.3125"><title>2024-10-11: 10 km</title></circle><circle cx="164.91666666666666" cy="114.64516129032258" fill="#4ebee4" r="3.3125"><title>2024-10-12: 8 km</title></circle><circle cx="164.91666666666666" cy="123.48387096774194" fill="#FFFF00" r="3.3125"><title>2024-10-13: 23 km</title></circle><circle cx="164.91666666666666" cy="132.32258064516128" fill="#555555" r="3.3125"><title>2024-10-14</title></circle><circle cx="164.91666666666666" cy="141.16129032258064" fill="#FFFF00" r="3.3125"><title>2024-10-15: 25 km</title></circle><circle cx="164.91666666666666" cy="149.99999999999997" fill="#555555" r="3.3125"><title>2024-10-16</title></circle><circle cx="164.91666666666666" cy="158.83870967741933" fill="#FFFF00" r="3.3125"><title>2024-10-17: 10 km</title></circle><circle cx="164.91666666666666" cy="167.6774193548387" fill="#FFFF00" r="3.3125"><title>2024-10-18: 20 km</title></circle><circle cx="164.91666666666666" cy="176.51612903225805" fill="#FFFF00" r="3.3125"><title>2024-10-19: 13 km</title></circle><circle cx="164.91666666666666" cy="185.35483870967738" fill="#555555" r="3.3125"><title>2024-10-20</title></circle><circle cx="164.91666666666666" cy="194.19354838709674" fill="#555555" r="3.3125"><title>2024-10-21</title></circle><circle cx="164.91666666666666" cy="203.0322580645161" fill="#555555" r="3.3125"><title>2024-10-22</title></circle><circle cx="164.91666666666666" cy="211.87096774193546" fill="#FFFF00" r="3.3125"><title>2024-10-23: 13 km</title></circle><circle cx="164.91666666666666" cy="220.70967741935482" fill="#FFFF00" r="3.3125"><title>2024-10-24: 30 km</title></circle><circle cx="164.91666666666666" cy="229.54838709677418" fill="#555555" r="3.3125"><title>2024-10-25</title></circle><circle cx="164.91666666666666" cy="238.3870967741935" fill="#555555" r="3.3125"><title>2024-10-26</title></circle><circle cx="164.91666666666666" cy="247.22580645161287" fill="#4dd0fd" r="3.3125"><title>2024-10-27: 9 km</title></circle><circle cx="164.91666666666666" cy="256.06451612903226" fill="#FFFF00" r="3.3125"><title>2024-10-28: 10 km</title></circle><circle cx="164.91666666666666" cy="264.90322580645164" fill="#FFFF00" r="3.3125"><title>2024-10-29: 13 km</title></circle><circle cx="164.91666666666666" cy="273.741935483871" fill="#555555" r="3.3125"><title>2024-10-30</title></circle><circle cx="164.91666666666666" cy="282.5806451612903" fill="#FFFF00" r="3.3125"><title>2024-10-31: 20 km</title></circle><circle cx="173.75" cy="17.419354838709676" fill="#555555" r="3.3125"><title>2024-11-01</title></circle><circle cx="173.75" cy="26.25806451612903" fill="#FFFF00" r="3.3125"><title>2024-11-02: 10 km</title></circle><circle cx="173.75" cy="35.096774193548384" fill="#FFFF00" r="3.3125"><title>2024-11-03: 12 km</title></circle><circle cx="173.75" cy="43.935483870967744" fill="#FFFF00" r="3.3125"><title>2024-11-04: 10 km</title></circle><circle cx="173.75" cy="52.774193548387096" fill="#4dc7f0" r="3.3125"><title>2024-11-05: 9 km</title></circle><circle cx="173.75" cy="61.61290322580645" fill="#555555" r="3.3125"><title>2024-11-06</title></circle><circle cx="173.75" cy="70.45161290322581" fill="#FFFF00" r="3.3125"><title>2024-11-07: 12 km</title></circle><circle cx="173.75" cy="79.29032258064517" fill="#555555" r="3.3125"><title>2024-11-08</title></circle><circle cx="173.75" cy="88.12903225806451" fill="#FFFF00" r="3.3125"><title>2024-11-09: 10 km</title></circle><circle cx="173.75" cy="96.96774193548387" fill="#FFFF00" r="3.3125"><title>2024-11-10: 21 km</title></circle><circle cx="173.75" cy="105.80645161290322" fill="#555555" r="3.3125"><title>2024-11-11</title></circle><circle cx="173.75" cy="114.64516129032258" fill="#FFFF00" r="3.3125"><title>2024-11-12: 12 km</title></circle><circle cx="173.75" cy="123.48387096774194" fill="#FFFF00" r="3.3125"><title>2024-11-13: 13 km</title></circle><circle cx="173.75" cy="132.32258064516128" fill="#555555" r="3.3125"><title>2024-11-14</title></circle><circle cx="173.75" cy="141.16129032258064" fill="#518596" r="3.3125"><title>2024-11-15: 3 km</title></circle><circle cx="173.75" cy="149.99999999999997" fill="#4eb7db" r="3.3125"><title>2024-11-16: 7 km</title></circle><circle cx="173.75" cy="158.83870967741933" fill="#528394" r="3.3125"><title>2024-11-17: 3 km</title></circle><circle cx="173.75" cy="167.6774193548387" fill="#4fb2d4" r="3.3125"><title>2024-11-18: 7 km</title></circle><circle cx="173.75" cy="176.51612903225805" fill="#528292" r="3.3125"><title>2024-11-19: 3 km</title></circle><circle cx="173.75" cy="185.35483870967738" fill="#518ca0" r="3.3125"><title>2024-11-20: 4 km</title></circle><circle cx="173.75" cy="194.19354838709674" fill="#4dc7f1" r="3.3125"><title>2024-11-21: 9 km</title></circle><circle cx="173.75" cy="203.0322580645161" fill="#FFFF00" r="3.3125"><title>2024-11-22: 12 km</title></circle><circle cx="173.75" cy="211.87096774193546" fill="#FFFF00" r="3.3125"><title>2024-11-23: 10 km</title></circle><circle cx="173.75" cy="220.70967741935482" fill="#555555" r="3.3125"><title>2024-11-24</title></circle><circle cx="173.75" cy="229.54838709677418" fill="#FFFF00" r="3.3125"><title>2024-11-25: 10 km</title></circle><circle cx="173.75" cy="238.3870967741935" fill="#555555" r="3.3125"><title>2024-11-26</title></circle><circle cx="173.75" cy="247.22580645161287" fill="#555555" r="3.3125"><title>2024-11-27</title></circle><circle cx="173.75" cy="256.06451612903226" fill="#FFFF00" r="3.3125"><title>2024-11-28: 10 km</title></circle><circle cx="173.75" cy="264.90322580645164" fill="#555555" r="3.3125"><title>2024-11-29</title></circle><circle cx="173.75" cy="273.741935483871" fill="#FFFF00" r="3.3125"><title>2024-11-30: 66 km</title></circle><circle cx="182.58333333333334" cy="17.419354838709676" fill="#555555" r="3.3125"><title>2024-12-01</title></circle><circle cx="182.58333333333334" cy="26.25806451612903" fill="#5093aa" r="3.3125"><title>2024-12-02: 5 km</title></circle><circle cx="182.58333333333334" cy="35.096774193548384" fill="#555555" r="3.3125"><title>2024-12-03</title></circle><circle cx="182.58333333333334" cy="43.935483870967744" fill="#555555" r="3.3125"><title>2024-12-04</title></circle><circle cx="182.58333333333334" cy="52.774193548387096" fill="#50a1bc" r="3.3125"><title>2024-12-05: 6 km</title></circle><circle cx="182.58333333333334" cy="61.61290322580645" fill="#527a88" r="3.3125"><title>2024-12-06: 3 km</title></circle><circle cx="182.58333333333334" cy="70.45161290322581" fill="#FFFF00" r="3.3125"><title>2024-12-07: 91 km</title></circle><circle cx="182.58333333333334" cy="79.29032258064517" fill="#555555" r="3.3125"><title>2024-12-08</title></circle><circle cx="182.58333333333334" cy="88.12903225806451" fill="#555555" r="3.3125"><title>2024-12-09</title></circle><circle cx="182.58333333333334" cy="96.96774193548387" fill="#555555" r="3.3125"><title>2024-12-10</title></circle><circle cx="182.58333333333334" cy="105.80645161290322" fill="#555555" r="3.3125"><title>2024-12-11</title></circle><circle cx="182.58333333333334" cy="114.64516129032258" fill="#555555" r="3.3125"><title>2024-12-12</title></circle><circle cx="182.58333333333334" cy="123.48387096774194" fill="#546267" r="3.3125"><title>2024-12-13: 1 km</title></circle><circle cx="182.58333333333334" cy="132.32258064516128" fill="#555555" r="3.3125"><title>2024-12-14</title></circle><circle cx="182.58333333333334" cy="141.16129032258064" fill="#518fa4" r="3.3125"><title>2024-12-15: 4 km</title></circle><circle cx="182.58333333333334" cy="149.99999999999997" fill="#5190a5" r="3.3125"><title>2024-12-16: 4 km</title></circle><circle cx="182.58333333333334" cy="158.83870967741933" fill="#555555" r="3.3125"><title>2024-12-17</title></circle><circle cx="182.58333333333334" cy="167.6774193548387" fill="#FFFF00" r="3.3125"><title>2024-12-18: 117 km</title></circle><circle cx="182.58333333333334" cy="176.51612903225805" fill="#555555" r="3.3125"><title>2024-12-19</title></circle><circle cx="182.58333333333334" cy="185.35483870967738" fill="#4fa8c6" r="3.3125"><title>2024-12-20: 6 km</title></circle><circle cx="182.58333333333334" cy="194.19354838709674" fill="#FFFF00" r="3.3125"><title>2024-12-21: 82 km</title></circle><circle cx="182.58333333333334" cy="203.0322580645161" fill="#4eb5d7" r="3.3125"><title>2024-12-22: 7 km</title></circle><circle cx="182.58333333333334" cy="211.87096774193546" fill="#4dc5ee" r="3.3125"><title>2024-12-23: 9 km</title></circle><circle cx="182.58333333333334" cy="220.70967741935482" fill="#53656b" r="3.3125"><title>2024-12-24: 1 km</title></circle><circle cx="182.58333333333334" cy="229.54838709677418" fill="#51899c" r="3.3125"><title>2024-12-25: 4 km</title></circle><circle cx="182.58333333333334" cy="238.3870967741935" fill="#555555" r="3.3125"><title>2024-12-26</title></circle><circle cx="182.58333333333334" cy="247.22580645161287" fill="#51899b" r="3.3125"><title>2024-12-27: 4 km</title></circle><circle cx="182.58333333333334" cy="256.06451612903226" fill="#FFFF00" r="3.3125"><title>2024-12-28: 37 km</title></circle><circle cx="182.58333333333334" cy="264.90322580645164" fill="#FFFF00" r="3.3125"><title>2024-12-29: 17 km</title></circle><circle cx="182.58333333333334" cy="273.741935483871" fill="#4eb8db" r="3.3125"><title>2024-12-30: 7 km</title></circle><circle cx="182.58333333333334" cy="282.5806451612903" fill="#555555" r="3.3125"><title>2024-12-31</title></circle></svg>