<?xml version="1.0" encoding="utf-8" ?>
<svg baseProfile="full" height="200mm" version="1.1" viewBox="0,0,200,200" width="200mm" xmlns="http://www.w3.org/2000/svg" xmlns:ev="http://www.w3.org/2001/xml-events" xmlns:xlink="http://www.w3.org/1999/xlink"><defs /><rect fill="#1a1a1a" height="200" width="200" x="0" y="0" /><rect fill="#1a1a1a" height="200" width="180" x="10" y="0" /><text alignment-baseline="middle" fill="#e1ed5e" style="dominant-baseline: central; font-size:9.0px; font-family:Arial;" text-anchor="middle" x="100.0" y="100.0">2019</text><line stroke="#e1ed5e" stroke-width="0.3" x1="100.0" x2="100.0" y1="15.0" y2="10.0" /><path d="M 100.0 14.0 a86.0,86.0 0 0,1 42.46469731375804,11.215312516191453" fill="none" id="id73" stroke="none" /><text fill="#e1ed5e" style="font-size:6.75px; font-family:Arial;" text-anchor="middle"><textPath startOffset="22.20632615414155" xlink:href="#id73">January</textPath></text><path d="M 100.0 79.0 l 0.0 -11.770522228075684 a32.770522228075684,32.770522228075684 0 0,0 0.564090670524564,0.004855306490985388 l -0.20261019125203555 11.768778298193258" fill="#ff9a0e" stroke="none" /><path d="M 101.08401301168833 79.027996857942 l 0.2968417451193061 -5.742888640829302 a26.75055518733728,26.75055518733728 0 0,0 0.459648358390556,0.027727244223337135 l -0.395652152349474 5.736928127225661" fill="#ff4906" stroke="none" /><path d="M 101.44485096284872 79.0497635885617 l 0.17681653713932516 -2.563827238774236 a23.56991715782565,23.56991715782565 0 0,0 0.4045156847427261,0.031398202510942094 l -0.22092241124439244 2.560403774074829" fill="#ff1c02" stroke="none" /><path d="M 101.80526077348638 79.07773832637324 l 0.17784890854364485 -2.061198834854722 a23.06885738297173,23.06885738297173 0 0,0 0.3953286723271539,0.03754122093905094 l -0.213302707961043 2.057832069400493" fill="#ff1502" stroke="none" /><path d="M 102.16513564639614 79.11191278185805 l 0.5827363887698856 -5.62193344979154 a26.65205426483872,26.65205426483872 0 0,0 0.4559193005617,0.051227845640477235 l -0.6794223928413109 5.611069650680462" fill="#ff4806" stroke="none" /><path d="M 102.52436894288641 79.15227682838746 l 0.2992389886950976 -2.4712915344836786 a23.489342447467997,23.489342447467997 0 0,0 0.40098015735489234,0.05205873263223723 l -0.34173387455783605 2.4657744786873046" fill="#ff1b02" stroke="none" /><path d="M 103.95276090670814 79.375362276772 l 2.4501887770355855 -12.78454656696226 a34.01722151482173,34.01722151482173 0 0,0 0.5741355219738294,0.11516618452138569 l -2.66989070847654 12.740476426363667" fill="#ffab0f" stroke="none" /><path d="M 106.0581310904928 79.89281104454417 l 0.8708374131503274 -2.8903455792122275 a24.018684376912237,24.018684376912237 0 0,0 0.3948381511978406,0.12267813555080556 l -0.9204609370588862 2.874927308778901" fill="#ff2303" stroke="none" /><path d="M 106.40334571778207 80.00007090966166 l 4.495886668338837 -14.04225517845677 a35.74442021347204,35.74442021347204 0 0,0 0.584365403250967,0.19265608583217986 l -4.736934893832222 13.962785368365354" fill="#ffc111" stroke="none" /><path d="M 107.4271985657038 80.35727306442388 l 1.274138292332745 -3.3697160959209858 a24.60255672475779,24.60255672475779 0 0,0 0.3948321809663823,0.1531887521289892 l -1.3319536382987944 3.3472846399014498" fill="#ff2b04" stroke="none" /><path d="M 108.43124777332544 80.76684994638697 l 2.0679079948097403 -4.717259631139371 a26.150609857344584,26.150609857344584 0 0,0 0.4107113687595774,0.18427421921338052 l -2.1488014820360983 4.680965081409459" fill="#ff4106" stroke="none" /><path d="M 108.76106565485865 80.91482961587045 l 16.21774531148092 -35.32885663793434 a59.873427612339235,59.873427612339235 0 0,0 0.9329471466158897,0.4380311947916317 l -16.823470669396407 35.044460460502705" fill="#30ff2f" stroke="none" /><path d="M 109.08828744355905 81.06846463323043 l 5.207262936119036 -10.847091165571722 a33.0322472564398,33.0322472564398 0 0,0 0.5104720642824071,0.2504864249875425 l -5.393206267411874 10.755849580449349" fill="#ff9e0e" stroke="none" /><line stroke="#e1ed5e" stroke-width="0.3" x1="143.23703022742887" x2="145.7803849466894" y1="26.81831364943548" y2="22.513508569990506" /><path d="M 143.74570117128098 25.957352633546492 a86.0,86.0 0 0,1 28.547481713284135,27.462654790039103" fill="none" id="id74" stroke="none" /><text fill="#e1ed5e" style="font-size:6.75px; font-family:Arial;" text-anchor="middle"><textPath startOffset="19.985693538727396" xlink:href="#id74">February</textPath></text><path d="M 110.68208982089419 81.91981866633111 l 2.9561807335045516 -5.003541873643077 a26.811577738484033,26.811577738484033 0 0,0 0.39532769201854207,0.23818051108943464 l -3.041870491740731 4.951914753095028" fill="#ff4a06" stroke="none" /><path d="M 110.99172775467656 82.1063720568725 l 2.395075476118628 -3.8989857119725198 a25.575857965285934,25.575857965285934 0 0,0 0.37314062105766227,0.23366062267432175 l -2.4618352495485536 3.857180747975254" fill="#ff3905" stroke="none" /><path d="M 111.2981086023043 82.29822771554956 l 3.1905294786353493 -4.998892140770397 a26.930295185662953,26.930295185662953 0 0,0 0.38860797364851074,0.25276143589503103 l -3.2761044780681403 4.943231780715838" fill="#ff4c07" stroke="none" /><path d="M 111.90073688211348 82.69761687909136 l 6.683698331518659 -9.71737383508779 a32.79403144126698,32.79403144126698 0 0,0 0.4623472151082779,0.3239037708473729 l -6.849976686210588 9.600885221476481" fill="#ff9b0e" stroke="none" /><path d="M 112.48926042617603 83.11751280151076 l 3.3983119209352632 -4.593703353436211 a26.714073364189666,26.714073364189666 0 0,0 0.36732340155669047,0.2766603706397605 l -3.476881476250337 4.534526393290603" fill="#ff4906" stroke="none" /><path d="M 113.34407831869373 83.78471172551755 l 2.2148438440995744 -2.691405922335232 a24.485570124459834,24.485570124459834 0 0,0 0.3231424387263357,0.27062249935426674 l -2.2608438197850274 2.652882265587146" fill="#ff2904" stroke="none" /><path d="M 113.6212207817346 84.01681056812373 l 3.6891705361142004 -4.328885969184098 a26.687638611825832,26.687638611825832 0 0,0 0.34707426687446175,0.3009793841069146 l -3.7631386016354265 4.264741591657512" fill="#ff4806" stroke="none" /><path d="M 114.42810811169701 84.74124197986012 l 2.804746491583602 -2.9662203590098257 a25.08228687138164,25.08228687138164 0 0,0 0.31115981040548435,0.29933549107848123 l -2.8553895456015046 2.9175017811690425" fill="#ff3204" stroke="none" /><path d="M 114.68862486808459 84.99185889309783 l 5.981635691573009 -6.111752006429765 a29.5518113949501,29.5518113949501 0 0,0 0.36048171998064726,0.35893369691433696 l -6.085953211720979 6.00788245886531" fill="#ff700a" stroke="none" /><path d="M 114.94478906791727 85.2469230424477 l 3.1007100584619938 -3.060934075928138 a25.357031131840284,25.357031131840284 0 0,0 0.3039652810608095,0.31326294143570377 l -3.1529396032259123 3.00710693894232" fill="#ff3605" stroke="none" /><path d="M 115.19652480421416 85.50635884689758 l 5.7696669677317995 -5.502803021123851 a28.973073310074682,28.973073310074682 0 0,0 0.3410995478664699,0.36386121518575537 l -5.863533837568732 5.402672389060041" fill="#ff6809" stroke="none" /><path d="M 115.68641384162765 86.03803664274999 l 4.291756126159772 -3.819951607593086 a26.745537479712663,26.745537479712663 0 0,0 0.3031264539597726,0.34652593758194444 l -4.356874443697393 3.745510113808194" fill="#ff4906" stroke="none" /><path d="M 115.9244219780498 86.31012108654704 l 0.9722305506835719 -0.8358054397932861 a22.282108800714873,22.282108800714873 0 0,0 0.24753235677771804,0.2930002347003778 l -0.9864735209484072 0.8189462554638018" fill="#ff0a01" stroke="none" /><path d="M 116.15771136456269 86.58626213691792 l 4.370297412358381 -3.6281143133706304 a26.68002754776341,26.68002754776341 0 0,0 0.2903060250527091,0.35588086054383294 l -4.432101929487499 3.552349283218697" fill="#ff4806" stroke="none" /><path d="M 117.04232023915458 87.72973835380427 l 4.108818363708337 -2.9582988508550723 a26.06299520411755,26.06299520411755 0 0,0 0.25900086615291695,0.3663383574397651 l -4.159131849665137 2.887133993083514" fill="#ff4006" stroke="none" /><path d="M 117.2510076193507 88.02491185347247 l 2.1950828699959017 -1.5237551009859756 a23.672118712544453,23.672118712544453 0 0,0 0.22947924836473393,0.33673248072328 l -2.220986584029369 1.4857445969922891" fill="#ff1e03" stroke="none" /><path d="M 117.45458315368197 88.32363383020206 l 4.8534937447451805 -3.2467787782439252 a26.83934704955406,26.83934704955406 0 0,0 0.2535722266394227,0.38620789776235 l -4.908662606742528 3.162752816503901" fill="#ff4a06" stroke="none" /><path d="M 117.65298651832404 88.62581576622439 l 3.727379094055803 -2.401627423263866 a25.434091698530523,25.434091698530523 0 0,0 0.23396022050980594,0.3700688831780277 l -3.7681669108115647 2.337110892371632" fill="#ff3705" stroke="none" /><line stroke="#e1ed5e" stroke-width="0.3" x1="172.23445277983987" x2="176.4835382374775" y1="55.19839476539836" y2="52.563006222186495" /><path d="M 173.08426987136738 54.67131705675599 a86.0,86.0 0 0,1 12.851231095245387,41.99856678651699" fill="none" id="id75" stroke="none" /><text fill="#e1ed5e" style="font-size:6.75px; font-family:Arial;" text-anchor="middle"><textPath startOffset="22.20632615414155" xlink:href="#id75">March</textPath></text><path d="M 118.21658344932153 89.55222093294921 l 12.226016316988098 -7.012001877597257 a35.094099663145805,35.094099663145805 0 0,0 0.2960310281451467,0.5266061670404304 l -12.344904986425679 6.800512200622032" fill="#ffb811" stroke="none" /><path d="M 118.56541770881063 90.18545643968196 l 6.47788829288743 -3.4245131365531223 a28.32736835143102,28.32736835143102 0 0,0 0.22417816206697627,0.4330408546375411 l -6.535875888114523 3.3124995596552367" fill="#ff5f08" stroke="none" /><path d="M 118.73160827565052 90.50648371742162 l 3.444543619162089 -1.7457567152455917 a24.86167674114954,24.86167674114954 0 0,0 0.19017997284070556,0.3833912203076169 l -3.4740836049562027 1.6862059064390251" fill="#ff2f04" stroke="none" /><path d="M 118.89224826269711 90.83032412892265 l 0.9961394750973818 -0.483493334515607 a22.107275782435572,22.107275782435572 0 0,0 0.16321676031177207,0.3437761226800259 l -1.00431442925091 0.46627479619504075" fill="#ff0701" stroke="none" /><path d="M 119.04729006885535 91.15688171328212 l 3.430267648298987 -1.5925762908714105 a24.781935401512353,24.781935401512353 0 0,0 0.17630303476904538,0.38846036726074307 l -3.4571730000313794 1.5332939147686047" fill="#ff2e04" stroke="none" /><path d="M 119.34039704204932 91.81776055985345 l 8.601967917305473 -3.639189050918998 a30.340104335535088,30.340104335535088 0 0,0 0.1993464959959,0.4827333520762982 l -8.66333610018757 3.4905811283893966" fill="#ff7a0b" stroke="none" /><path d="M 119.47837535516314 92.15188598940014 l 5.273824567522788 -2.1248988030641973 a26.685808692901176,26.685808692901176 0 0,0 0.168001715991644,0.4275460423755871 l -5.309619833396133 2.033803755792826" fill="#ff4806" stroke="none" /><path d="M 119.61058180528143 92.48833698450437 l 8.8939687317418 -3.4067574662780755 a30.524110259506777,30.524110259506777 0 0,0 0.1837194036605772,0.4922766622695476 l -8.951292723904002 3.253157666979195" fill="#ff7d0b" stroke="none" /><path d="M 120.18372546131832 94.20196356495316 l 46.39752448031149 -13.328289564202837 a69.27394308121455,69.27394308121455 0 0,0 0.31936353072830137,1.1489205401326634 l -46.62007478160616 12.527657720651222" fill="#3bff9a" stroke="none" /><path d="M 120.37134235888165 94.90015583598534 l 11.31644465923298 -2.833004484244127 a32.66566903924631,32.66566903924631 0 0,0 0.13185606152684565,0.5466285008627263 l -11.363533521020644 2.6377907517219943" fill="#ff990e" stroke="none" /><path d="M 120.53481517161879 95.60439243477599 l 2.9820127774172236 -0.6383187681243945 a24.049565715707637,24.049565715707637 0 0,0 0.08316649501015429,0.40554936564904165 l -2.9925585683423748 0.586893746311941" fill="#ff2303" stroke="none" /><path d="M 120.73433829027371 96.67025291283417 l 24.610357401085906 -3.9522006790453528 a45.92568116655251,45.92568116655251 0 0,0 0.1186284544319625,0.7816132958535287 l -24.674741748957167 3.527988270799742" fill="#c3ff1e" stroke="none" /><path d="M 120.87857604477298 97.74499172005257 l 2.9196147845552094 -0.3153354663321108 a23.93659444706283,23.93659444706283 0 0,0 0.04071828357275659,0.4100275587720403 l -2.9246101938101945 0.2650323768556356" fill="#ff2203" stroke="none" /><path d="M 120.96714384426684 98.82574320788733 l 6.678168508129761 -0.37400824775132846 a27.68863340244942,27.68863340244942 0 0,0 0.022554886212447393,0.47609799973390027 l -6.683617002575704 0.2589991413944284" fill="#ff5608" stroke="none" /><path d="M 120.98425023603335 99.18683210126433 l 2.289957505581383 -0.0887389309630908 a23.29167623700142,23.29167623700142 0 0,0 0.01207651845279346,0.400760854330494 l -2.291145718489821 0.04930792920759768" fill="#ff1902" stroke="none" /><line stroke="#e1ed5e" stroke-width="0.3" x1="184.98032266829074" x2="189.97916517819016" y1="98.17113171792111" y2="98.06355123074" /><path d="M 185.9800911702706 98.14961562048488 a86.0,86.0 0 0,1 -9.607161424134198,41.387399972396054" fill="none" id="id76" stroke="none" /><text fill="#e1ed5e" style="font-size:6.75px; font-family:Arial;" text-anchor="middle"><textPath startOffset="21.466115282336823" xlink:href="#id76">April</textPath></text><path d="M 120.99980553446 99.90962569577887 l 0.9032955629437166 -0.003887403046333572 a21.90330392777639,21.90330392777639 0 0,0 -0.0016226204423467154,0.3770398459959604 l -0.903228645211867 -0.011661921153311557" fill="#ff0500" stroke="none" /><path d="M 120.99824983174949 100.27111621757518 l 2.9416816699786614 0.03798114671771296 a23.941926854120346,23.941926854120346 0 0,0 -0.008867562203404034,0.4120407711755824 l -2.94059204509025 -0.08861173368341022" fill="#ff2203" stroke="none" /><path d="M 120.9764740272857 100.99374915477107 l 7.621392497538556 0.36105936311106007 a28.62994020063245,28.62994020063245 0 0,0 -0.027557884063171587,0.4920645322873208 l -7.614048262587856 -0.4921956117338042" fill="#ff6309" stroke="none" /><path d="M 120.95626037817324 101.35467743843564 l 8.73152718561453 0.5644329030077903 a29.74975151047865,29.74975151047865 0 0,0 -0.037432895894650674,0.5107421239082542 l -8.720517731055542 -0.7146481634128148" fill="#ff720a" stroke="none" /><path d="M 120.92983693683757 101.71520430193887 l 5.433701690451231 0.4452929348202878 a26.451917081047128,26.451917081047128 0 0,0 -0.04109545114354712,0.4534848789403303 l -5.425231643030609 -0.5387592023091886" fill="#ff4506" stroke="none" /><path d="M 120.8583938346157 102.4346265915055 l 5.215353371585491 0.6087447625755259 a26.250760037982243,26.250760037982243 0 0,0 -0.05624974203963585,0.44836578867077054 l -5.204102120299007 -0.6984283055336913" fill="#ff4206" stroke="none" /><path d="M 120.81339534386255 102.79330883721812 l 0.8086374952461862 0.1085250255549083 a21.815887418636738,21.815887418636738 0 0,0 -0.05315383727093028,0.3717578140726084 l -0.8066496069586546 -0.12242831160792601" fill="#ff0300" stroke="none" /><path d="M 120.70491114924044 103.5080841355445 l 4.410345083216087 0.7472556393594872 a25.473201844719604,25.473201844719604 0 0,0 -0.0769697753361619,0.4316873759677952 l -4.396828865540736 -0.8230617660605009" fill="#ff3705" stroke="none" /><path d="M 120.32669344350535 105.2749913415812 l 8.464555682334925 2.1966414782978463 a29.744937774708692,29.744937774708692 0 0,0 -0.13287761103521709,0.49448702234666364 l -8.42548999495793 -2.342019433820058" fill="#ff720a" stroke="none" /><path d="M 120.23288151984713 105.62410040840565 l 0.9802348932399868 0.2724742621557219 a22.01739995550546,22.01739995550546 0 0,0 -0.10464279200871963,0.36427528682695814 l -0.9753994643451678 -0.28930702448726203" fill="#ff0601" stroke="none" /><path d="M 120.02730092923936 106.31721596034902 l 3.9821135908309584 1.2560789704414503 a25.175519492262715,25.175519492262715 0 0,0 -0.13391907676082213,0.4121605378604943 l -3.9599022630538894 -1.3244384082797398" fill="#ff3304" stroke="none" /><path d="M 119.9155931802556 106.66101706037122 l 4.800301067659483 1.6055202080698276 a26.06167812871318,26.06167812871318 0 0,0 -0.14595677661633014,0.4242187136997489 l -4.7719534600999225 -1.6879116248588768" fill="#ff4006" stroke="none" /><path d="M 119.67450827220406 107.3425965602758 l 2.3844154004496945 0.8898723198254154 a23.545055902626334,23.545055902626334 0 0,0 -0.14497668645239306,0.37848838049156336 l -2.3687444344037947 -0.9307842671501226" fill="#ff1c02" stroke="none" /><line stroke="#e1ed5e" stroke-width="0.3" x1="174.80103733775053" x2="179.2010983576182" y1="140.37084112569926" y2="142.7455964860345" /><path d="M 175.68104954172406 140.8457921977663 a86.0,86.0 0 0,1 -30.038265399797805,32.042727171017184" fill="none" id="id77" stroke="none" /><text fill="#e1ed5e" style="font-size:6.75px; font-family:Arial;" text-anchor="middle"><textPath startOffset="22.206326154141568" xlink:href="#id77">May</textPath></text><path d="M 118.12598468904814 110.60418214915192 l 4.418132843503311 2.5847249810360484 a26.11866203713768,26.11866203713768 0 0,0 -0.23036551002155228,0.3861058453955011 l -4.372986457783531 -2.6603929203176535" fill="#ff4006" stroke="none" /><path d="M 117.94076556474637 110.91462005526583 l 2.8630635979262014 1.7418014439044718 a24.35126922758495,24.35126922758495 0 0,0 -0.22094180270573074,0.35622853536314375 l -2.832657155552508 -1.790826310632889" fill="#ff2803" stroke="none" /><path d="M 117.75023020441432 111.22182372390056 l 19.415207467316325 12.274434373645366 a43.969806707760135,43.969806707760135 0 0,0 -0.4099559196014564,0.6362606911484341 l -19.20104668433782 -12.606816664715254" fill="#d9ff1c" stroke="none" /><path d="M 117.14729908036423 112.12312394758627 l 18.904703263924414 13.365607014071289 a44.15226244563641,44.15226244563641 0 0,0 -0.4440880971835332,0.6167995259453226 l -18.671835374365276 -13.689040145467743" fill="#d7ff1c" stroke="none" /><path d="M 116.71984013943494 112.70617746262583 l 2.9996421566351463 2.2795663863247877 a24.767529160806138,24.767529160806138 0 0,0 -0.26087660022490533,0.33721817231029516 l -2.9599587391921722 -2.3308625527483353" fill="#ff2d04" stroke="none" /><path d="M 116.27256486870786 113.27417163493432 l 3.474399948203115 2.834204786581826 a25.48376758679095,25.48376758679095 0 0,0 -0.28020494636063303,0.3375249085997561 l -3.4250990019489387 -2.893590952295353" fill="#ff3805" stroke="none" /><path d="M 116.0416608686014 113.55231037782055 l 44.07982395922262 37.23950160699034 a78.70451767594191,78.70451767594191 0 0,0 -0.8832051962359407,1.0273671759248568 l -43.43227625341591 -37.992745882076726" fill="#46fffb" stroke="none" /><path d="M 115.56566222782051 114.09645910891815 l 5.265396194560953 4.768408890193066 a28.10366950454265,28.10366950454265 0 0,0 -0.3278140377923243,0.3557773939647932 l -5.182535748772907 -4.858337538959194" fill="#ff5c08" stroke="none" /><path d="M 115.32070863581623 114.36230785411682 l 9.142701647764074 8.570771679356659 a33.531844261707455,33.531844261707455 0 0,0 -0.3983797839750892,0.4176996107964936 l -8.993815312410021 -8.72687840673566" fill="#ffa40f" stroke="none" /><path d="M 115.07121518719521 114.62390073753431 l 1.906161790103597 1.8495868091538705 a23.65601659156093,23.65601659156093 0 0,0 -0.2860793898699378,0.28979691155857934 l -1.8740417751781238 -1.8821242146931145" fill="#ff1e03" stroke="none" /><path d="M 112.34349029814194 116.9893568818739 l 1.8576217477625332 2.5567969886944124 a24.160374882693056,24.160374882693056 0 0,0 -0.33855895604298936,0.2415528258388669 l -1.8133354638706591 -2.5883940763774986" fill="#ff2503" stroke="none" /><path d="M 112.04921762599082 117.19931262002967 l 0.6687622493511522 0.9546056310124003 a22.16555345519534,22.16555345519534 0 0,0 -0.3143741664358759,0.2162294182912918 l -0.6522311982923931 -0.9659758386687862" fill="#ff0801" stroke="none" /><path d="M 111.1453310114006 117.79835938074945 l 2.0561794217097322 3.2835830772057446 a24.87424723516382,24.87424723516382 0 0,0 -0.36484693021222464,0.22411878361215823 l -1.9993532915651986 -3.318490327646281" fill="#ff2f04" stroke="none" /><line stroke="#e1ed5e" stroke-width="0.3" x1="143.8653032363475" x2="146.44561519142675" y1="172.8068346515853" y2="177.08958963109032" /><path d="M 144.38136562736335 173.6633856474863 a86.0,86.0 0 0,1 -40.68145358897372,12.25698825130547" fill="none" id="id78" stroke="none" /><text fill="#e1ed5e" style="font-size:6.75px; font-family:Arial;" text-anchor="middle"><textPath startOffset="21.466115282336833" xlink:href="#id78">June</textPath></text><path d="M 110.5260780823613 118.17145234162733 l 3.9379101515799793 6.798120447629596 a28.856308164933214,28.856308164933214 0 0,0 -0.4319531454166013,0.24527426925215207 l -3.8203082392421788 -6.864897882676377" fill="#ff6609" stroke="none" /><path d="M 109.89434966115114 118.52300852407294 l 2.154270314213887 4.032965152830326 a25.572273888411207,25.572273888411207 0 0,0 -0.3900491414067741,0.2040552759231387 l -2.0845302702806174 -4.0694498476981815" fill="#ff3905" stroke="none" /><path d="M 109.2508944713604 118.85261126421891 l 1.8284839967008313 3.726309720575252 a25.150751481339814,25.150751481339814 0 0,0 -0.3903005380020489,0.18736797676561756 l -1.7640707906985496 -3.7572319738404296" fill="#ff3304" stroke="none" /><path d="M 108.2653958097858 119.30500536409082 l 2.7750231037125492 6.481460432810783 a28.050537750287575,28.050537750287575 0 0,0 -0.44550737696022785,0.18622211970109334 l -2.66304426725486 -6.528267595531849" fill="#ff5b08" stroke="none" /><path d="M 107.93186726928326 119.44442032107085 l 1.2032959725846961 2.94979629225475 a24.185783948016315,24.185783948016315 0 0,0 -0.3868330994068392,0.15392887357930599 l -1.1523417971359906 -2.9700720102401243" fill="#ff2503" stroke="none" /><path d="M 107.59598834532513 119.57807347666477 l 2.0973275869129195 5.405699921391812 a26.798307912396634,26.798307912396634 0 0,0 -0.4314907589722312,0.1631528838467252 l -2.0039666071804136 -5.441001055345168" fill="#ff4a06" stroke="none" /><path d="M 106.91757812671514 119.82793768551818 l 0.6483667924833549 1.8584215636208392 a22.968275947555647,22.968275947555647 0 0,0 -0.3744160018618186,0.1270222364118474 l -0.6162810576843094 -1.8693067869308095" fill="#ff1402" stroke="none" /><path d="M 105.88484417918355 120.15858648285463 l 0.36275659311531955 1.242625961178027 a22.294492806176322,22.294492806176322 0 0,0 -0.36931234143737274,0.10437135665147149 l -0.34131308357334106 -1.2486861111680174" fill="#ff0a01" stroke="none" /><path d="M 105.53697534728816 120.25689768951611 l 0.6052408682612777 2.214259875996617 a23.29548759679991,23.29548759679991 0 0,0 -0.38771407402132335,0.10239881082741403 l -0.567036351428457 -2.2243500361276154" fill="#ff1902" stroke="none" /><path d="M 105.18746579009965 120.34920634021253 l 1.1888101490100444 4.663422179614888 a25.81256438873428,25.81256438873428 0 0,0 -0.43149599719140624,0.10605121786419403 l -1.1083608670754272 -4.683194655793112" fill="#ff3c05" stroke="none" /><path d="M 104.83641907484287 120.43548508189849 l 0.4063493691228587 1.7169617318612609 a22.7643915094056,22.7643915094056 0 0,0 -0.3820947294475088,0.08696351642861638 l -0.3767344902824878 -1.7237019818675616" fill="#ff1101" stroke="none" /><path d="M 104.48393922423573 120.51570834832081 l 1.1639490040225984 5.325504451482893 a26.451217748974013,26.451217748974013 0 0,0 -0.4456507950084663,0.09339045707554215 l -1.072106747584754 -5.344750889284977" fill="#ff4506" stroke="none" /><path d="M 104.13013068566511 120.58985236759428 l 2.379203442335835 11.860992147341245 a33.097261828170595,33.097261828170595 0 0,0 -0.5595523722857275,0.10723954389442994 l -2.174683455478403 -11.900188889584143" fill="#ff9f0e" stroke="none" /><path d="M 103.41894727170886 120.7198165907248 l 0.48854826856281663 2.9607448480123018 a24.000781475840437,24.000781475840437 0 0,0 -0.4082008756447262,0.06375258170069564 l -0.4375115293095734 -2.968715737060103" fill="#ff2303" stroke="none" /><path d="M 103.06178313531738 120.77559828337769 l 1.1874415915088659 8.05733404355095 a29.14436304585019,29.14436304585019 0 0,0 -0.49694110165666927,0.06887150855198344 l -1.0485718986653663 -8.076580117595537" fill="#ff6a09" stroke="none" /><path d="M 102.70371172650421 120.8252237178851 l 0.6085695179289573 4.687480634313952 a25.726820448802833,25.726820448802833 0 0,0 -0.4396500167217294,0.05323549429431224 l -0.5277920781558476 -4.697261657333616" fill="#ff3b05" stroke="none" /><path d="M 101.26447882468166 120.96189622390904 l 0.571194528067133 9.46897661494827 a30.486188977841998,30.486188977841998 0 0,0 -0.5240894271239251,0.02708943701955059 l -0.4081170325297283 -9.477405858730021" fill="#ff7c0b" stroke="none" /><path d="M 100.90346689309514 120.98055641714683 l 0.2834186662522124 6.58162613641102 a27.587725612065885,27.587725612065885 0 0,0 -0.4746135146296834,0.016346649083645286 l -0.17008479994787673 -6.585529583920759" fill="#ff5507" stroke="none" /><line stroke="#e1ed5e" stroke-width="0.3" x1="102.19456741930631" x2="102.32365962044197" y1="184.97166512339345" y2="189.96999836594603" /><path d="M 102.22038585953345 185.97133177190398 a86.0,86.0 0 0,1 -42.740103519485714,-10.115201625700543" fill="none" id="id79" stroke="none" /><text fill="#e1ed5e" style="font-size:6.75px; font-family:Arial;" text-anchor="middle"><textPath startOffset="22.20632615414155" xlink:href="#id79">July</textPath></text><path d="M 100.18074693466247 120.99922214144158 l 0.08840359214927224 10.270750500475874 a31.271130952243297,31.271130952243297 0 0,0 -0.5383010536234483,0.0 l 0.08840359214926516 -10.270750500475874" fill="#ff870c" stroke="none" /><path d="M 99.45781275523022 120.99299961872073 l -0.07537607491512857 2.918493430486095 a23.91946663903873,23.91946663903873 0 0,0 -0.41150554740390577,-0.014173083091899236 l 0.12560197399367737 -2.9167635489681016" fill="#ff2103" stroke="none" /><path d="M 99.09653310690486 120.98055641714683 l -0.28262938848015773 6.563297311135942 a27.56937980068111,27.56937980068111 0 0,0 -0.4739464311660014,-0.024497616882236062 l 0.39556388805964804 -6.557459887491505" fill="#ff5507" stroke="none" /><path d="M 98.73552117531835 120.96189622390904 l -0.3999316519770211 6.629866488677221 a27.64191801996519,27.64191801996519 0 0,0 -0.47470023816644713,-0.03273810770960301 l 0.5139946509223983 -6.622000036451333" fill="#ff5607" stroke="none" /><path d="M 98.37488393609728 120.93702456842531 l -0.9507450205975624 12.24883089688712 a33.28567354420292,33.28567354420292 0 0,0 -0.5708583078449867,-0.049256056847353215 l 1.1614476461840908 -12.230650587761103" fill="#ffa10e" stroke="none" /><path d="M 97.2962882734958 120.8252237178851 l -0.33613185432612125 2.5890412045147366 a23.61076980643025,23.61076980643025 0 0,0 -0.4025876956072339,-0.055794986223723135 l 0.3806481411201862 -2.5828716527984086" fill="#ff1d02" stroke="none" /><path d="M 96.58105272829116 120.7198165907248 l -10.256841815126537 62.1594497721744 a84.0,84.0 0 0,0 -1.4246041141118002,-0.24768568591597528 l 11.325294900710388 -61.97368550773742" fill="#4dd2ff" stroke="none" /><path d="M 94.81253420990036 120.34920634021253 l -0.414005291255138 1.6240452349139771 a22.675984279829034,22.675984279829034 0 0,0 -0.37740348687888936,-0.09967569105162916 l 0.44189922094551665 -1.6166781945587663" fill="#ff1001" stroke="none" /><path d="M 93.76903079525671 120.05430185196036 l -1.2850541279785732 4.135931751832777 a25.330969356582116,25.330969356582116 0 0,0 -0.4152815265536523,-0.1329600306441072 l 1.3560569996231657 -4.113198874528963" fill="#ff3505" stroke="none" /><path d="M 93.42475214034765 119.94407469862007 l -1.0245756292800723 3.1077479238672883 a24.272285497693638,24.272285497693638 0 0,0 -0.39567323698330303,-0.13423384470753066 l 1.0779185992006013 -3.0896510922616343" fill="#ff2603" stroke="none" /><path d="M 91.7346041902142 119.30500536409082 l -0.9826137669716484 2.2950339558764297 a23.496539740053827,23.496539740053827 0 0,0 -0.370438977381645,-0.16238956148606512 l 1.0219734190110368 -2.2777798410959122" fill="#ff1b02" stroke="none" /><path d="M 90.42595943632237 118.69057910512821 l -1.1781279711198154 2.2999582980376174 a23.58414273774631,23.58414273774631 0 0,0 -0.3597245464292297,-0.1881908810597565 l 1.2175434200755406 -2.279337998033144" fill="#ff1d02" stroke="none" /><path d="M 90.10565033884886 118.52300852407294 l -1.4371339201075681 2.6904288572807302 a24.050206770107994,24.050206770107994 0 0,0 -0.36347557136546,-0.1981958623179884 l 1.4832323033416688 -2.6652923432029763" fill="#ff2303" stroke="none" /><line stroke="#e1ed5e" stroke-width="0.3" x1="58.666819895761336" x2="56.23545636021788" y1="174.27360380694188" y2="178.64263932499728" /><path d="M 58.180547188652646 175.14741091055294 a86.0,86.0 0 0,1 -31.652253787137756,-30.449443065178592" fill="none" id="id80" stroke="none" /><text fill="#e1ed5e" style="font-size:6.75px; font-family:Arial;" text-anchor="middle"><textPath startOffset="22.20632615414155" xlink:href="#id80">August</textPath></text><path d="M 89.7882731507175 118.34994917583269 l -1.2119870800399215 2.1778785947511974 a23.492402025287884,23.492402025287884 0 0,0 -0.35166026403009404,-0.19968187568541126 l 1.2492961109912228 -2.156693553271153" fill="#ff1b02" stroke="none" /><path d="M 88.8546689885994 117.79835938074946 l -4.3148185526909115 6.890480972253089 a29.129968460678526,29.129968460678526 0 0,0 -0.4226872140841864,-0.2697789787818873 l 4.432787568822022 -6.815187564647397" fill="#ff6a09" stroke="none" /><path d="M 86.51685102203217 116.09983520530335 l -1.8761560681647507 2.2402632772388857 a23.922112445382027,23.922112445382027 0 0,0 -0.3134190003300118,-0.2671024715612415 l 1.9144405450718192 -2.2076364154546924" fill="#ff2103" stroke="none" /><path d="M 86.24171649860922 115.8653595955263 l -2.4993045522658845 2.8820721317761606 a24.814821492250687,24.814821492250687 0 0,0 -0.3202974822253576,-0.2826252877141906 l 2.54854438739783 -2.838623702289681" fill="#ff2e04" stroke="none" /><path d="M 85.70375840098266 115.38237550388516 l -3.509115894934101 3.775715317110941 a26.154601877928627,26.154601877928627 0 0,0 -0.32713698471935687,-0.30932843791320497 l 3.573588714044275 -3.714752242451805" fill="#ff4106" stroke="none" /><path d="M 85.44109423537348 115.13401014063109 l -2.631702095345526 2.7356593168457115 a24.796009459483837,24.796009459483837 0 0,0 -0.30505001070228127,-0.29855563998864176 l 2.6784020584236012 -2.6899535739345" fill="#ff2e04" stroke="none" /><path d="M 84.67929136418377 114.36230785411682 l -1.8605657716592903 1.7441763974894298 a23.550265926571058,23.550265926571058 0 0,0 -0.2747010586366368,-0.29813374503207507 l 1.890313238291656 -1.7118913976560106" fill="#ff1c02" stroke="none" /><path d="M 84.43433777217949 114.09645910891817 l -1.830364866649102 1.6576013997659678 a23.469388172315053,23.469388172315053 0 0,0 -0.2686028453039944,-0.3017781441382531 l 1.8586265616014346 -1.6258490858868504" fill="#ff1b02" stroke="none" /><path d="M 84.19399662182784 113.82643327865904 l -2.478648324938966 2.1682182944080663 a24.29315473230891,24.29315473230891 0 0,0 -0.272612565658318,-0.31711000217801505 l 2.5156034001680627 -2.125231193068521" fill="#ff2703" stroke="none" /><path d="M 83.95833913139862 113.55231037782056 l -3.2814494469892423 2.7722329850377356 a25.295717192329732,25.295717192329732 0 0,0 -0.2781372516795609,-0.33503423715621006 l 3.3286826985623397 -2.7153374907677645" fill="#ff3505" stroke="none" /><path d="M 83.28015986056508 112.70617746262583 l -5.576286230474892 4.237677025374087 a28.003775745665138,28.003775745665138 0 0,0 -0.28835719023797757,-0.38630157898232453 l 5.648404687407955 -4.141062566882455" fill="#ff5a08" stroke="none" /><path d="M 83.06392112726016 112.41649034213515 l -3.7970976737634095 2.7837982421252176 a25.708235698959744,25.708235698959744 0 0,0 -0.2585761372376713,-0.3591396389150552 l 3.8444536033766883 -2.7180249977590245" fill="#ff3b05" stroke="none" /><path d="M 82.6465618267979 111.8261652097733 l -1.9881404071325115 1.354894441107547 a23.40591795891239,23.40591795891239 0 0,0 -0.22402461070250507,-0.33488639694191485 l 2.011168123245747 -1.3204711299598113" fill="#ff1a02" stroke="none" /><path d="M 82.05923443525364 110.91462005526583 l -2.593815571117754 1.5779990742319734 a24.036109401067407,24.036109401067407 0 0,0 -0.21199748261367626,-0.3553199749329393 l 2.620593929429662 -1.533117005412923" fill="#ff2303" stroke="none" /><line stroke="#e1ed5e" stroke-width="0.3" x1="26.63291911575756" x2="22.317208475507996" y1="142.92168965132927" y2="145.44649492493687" /><path d="M 25.769776987707644 143.4266507060508 a86.0,86.0 0 0,1 -11.730757126820373,-40.83630448921669" fill="none" id="id81" stroke="none" /><text fill="#e1ed5e" style="font-size:6.75px; font-family:Arial;" text-anchor="middle"><textPath startOffset="21.46611528233685" xlink:href="#id81">September</textPath></text><path d="M 81.87401531095188 110.60418214915194 l -11.471281175318744 6.711003962213194 a34.290141684122986,34.290141684122986 0 0,0 -0.29366731112103245,-0.5120337102308467 l 11.585100482592154 -6.51255040612404" fill="#ffae10" stroke="none" /><path d="M 81.51974371655577 109.97397251340807 l -3.473106539240247 1.8744690889137352 a24.946657243567834,24.946657243567834 0 0,0 -0.2006988175940125,-0.37964652756367656 l 3.504857865059146 -1.8144075462639324" fill="#ff3004" stroke="none" /><path d="M 81.35079622478065 109.6543875284942 l -6.822397613641493 3.5318435698091495 a28.682384278348966,28.682384278348966 0 0,0 -0.22320539964139327,-0.4404054289942261 l 6.8821816830691525 -3.4138839291122385" fill="#ff6409" stroke="none" /><path d="M 81.02952815118164 109.00673069616217 l -8.034436343628007 3.8145600709991148 a29.893988750559075,29.893988750559075 0 0,0 -0.2166963757971317,-0.46674471525241945 l 8.098907336264967 -3.675695288467868" fill="#ff740a" stroke="none" /><path d="M 80.87730276802145 108.67885076344099 l -4.136957359188136 1.8775612613408488 a25.543088429893118,25.543088429893118 0 0,0 -0.17826511109038717,-0.4019407648939216 l 4.168663555009803 -1.8060721599542313" fill="#ff3805" stroke="none" /><path d="M 80.58989483394504 108.01547362559985 l -6.297761775590851 2.6006836635197454 a27.813615699450015,27.813615699450015 0 0,0 -0.17893079852597016,-0.44409156793346966 l 6.3415951883742085 -2.4918927277434704" fill="#ff5808" stroke="none" /><path d="M 80.20201598880116 107.00284435728193 l -3.9770481891459495 1.4067416891661877 a25.218510931457594,25.218510931457594 0 0,0 -0.14123467216656369,-0.410494067800627 l 4.0006736922557415 -1.338074918276264" fill="#ff3404" stroke="none" /><path d="M 79.76711848015287 105.62410040840567 l -7.766656569966806 2.1588846029790303 a29.061125045847415,29.061125045847415 0 0,0 -0.12982285924872244,-0.48311915455356025 l 7.802667505557304 -2.0248745152499312" fill="#ff6909" stroke="none" /><path d="M 79.35854240842038 103.8639653848113 l -42.477066041512245 7.951469129762476 a64.21489327554285,64.21489327554285 0 0,0 -0.19403159205440482,-1.0882322114492164 l 42.60764407590584 -7.219118167580046" fill="#35ff61" stroke="none" /><line stroke="#e1ed5e" stroke-width="0.3" x1="15.007084014347285" x2="10.007500721073583" y1="101.09737516637583" y2="101.16192664675087" /><path d="M 14.007167355692545 101.11028546245083 a86.0,86.0 0 0,1 10.666146001902534,-42.60595125391555" fill="none" id="id82" stroke="none" /><text fill="#e1ed5e" style="font-size:6.75px; font-family:Arial;" text-anchor="middle"><textPath startOffset="22.20632615414155" xlink:href="#id82">October</textPath></text><path d="M 79.00019446554 99.90962569577889 l -3.5139129832640026 -0.015122399130550395 a24.513945523326562,24.513945523326562 0 0,0 0.005447924251146371,-0.4219477370744458 l 3.5131320518951408 0.07560639426546811" fill="#ff2a04" stroke="none" /><path d="M 79.00486145842228 99.54816195383935 l -4.140829559460775 -0.08911512224250445 a25.14178837526936,25.14178837526936 0 0,0 0.013035784464830662,-0.43259422319562224 l 4.138682080540299 0.16037949286312111" fill="#ff3304" stroke="none" /><path d="M 79.03285615573316 98.82574320788736 l -8.163291455728826 -0.45718198477976224 a29.176083583133334,29.176083583133334 0 0,0 0.03239852504592916,-0.5011908425338981 l 8.154212339678484 0.5976318915666721" fill="#ff6a09" stroke="none" /><path d="M 79.12142395522702 97.74499172005258 l -3.838409527252312 -0.41457067029961586 a24.860732642850834,24.860732642850834 0 0,0 0.049614501387334885,-0.4250667488212905 l 3.8307046728613883 0.4805811574457681" fill="#ff2f04" stroke="none" /><path d="M 79.21141760316559 97.0276538004421 l -7.05967763487946 -1.0093909044675025 a28.131473782216336,28.131473782216336 0 0,0 0.0726650791215247,-0.4787720809277481 l 7.041256662318633 1.1307620977873425" fill="#ff5c08" stroke="none" /><path d="M 79.26566170972629 96.67025291283419 l -4.706490513783715 -0.7558197835711093 a25.766793104548757,25.766793104548757 0 0,0 0.07409565096082156,-0.4373167262850907 l 4.69278300130267 0.836722298172028" fill="#ff3c05" stroke="none" /><path d="M 79.32604984820605 96.31383870115002 l -2.9502664903029783 -0.5260319425170491 a23.99679528302367,23.99679528302367 0 0,0 0.0760061650825508,-0.40602797308100175 l 2.940774601310566 0.5767379930606236" fill="#ff2303" stroke="none" /><path d="M 79.54389044137918 95.25157060432595 l -12.858646114103323 -2.9848477796720747 a34.20053393448757,34.20053393448757 0 0,0 0.13805159481959475,-0.5723129861768042 l 12.805361719022914 3.2057459975082754" fill="#ffad10" stroke="none" /><path d="M 79.81627453868168 94.20196356495316 l -6.9655405015460925 -2.0009416841880117 a28.247242379153615,28.247242379153615 0 0,0 0.13826904473491755,-0.46617448162201974 l 6.930065559699468 2.1205455525565706" fill="#ff5e08" stroke="none" /><path d="M 80.2630227832202 92.82701384747504 l -5.242238527198792 -1.9051805122347307 a26.57770360993181,26.57770360993181 0 0,0 0.1599666564028147,-0.4286311087416978 l 5.208667282294349 1.99513475800577" fill="#ff4706" stroke="none" /><path d="M 80.65960295795068 91.81776055985345 l -5.329287019928811 -2.2546332605021884 a26.786594100171918,26.786594100171918 0 0,0 0.18330868685085439,-0.42310172269707513 l 5.2896876232352765 2.346034127785863" fill="#ff4a06" stroke="none" /><path d="M 81.10775173730289 90.83032412892265 l -4.380025272003186 -2.125920191865123 a25.868691615369208,25.868691615369208 0 0,0 0.19788315647643184,-0.39892036846260137 l 4.3427821025733415 2.201000148826686" fill="#ff3d05" stroke="none" /><path d="M 81.26839172434947 90.50648371742162 l -7.740541384420327 -3.923045719704179 a29.677918451034962,29.677918451034962 0 0,0 0.23486619476216244,-0.45368673187216735 l 7.67186575649805 4.055705173836682" fill="#ff710a" stroke="none" /><path d="M 81.6062741919709 89.86733742301443 l -3.3226523257767124 -1.830369509098343 a24.79345106964968,24.79345106964968 0 0,0 0.20914144776087867,-0.3720392989367461 l 3.2906532367234034 1.8872923179698737" fill="#ff2e04" stroke="none" /><line stroke="#e1ed5e" stroke-width="0.3" x1="26.266209847984243" x2="21.928928074336255" y1="57.711370442889674" y2="55.22380399835377" /><path d="M 25.398753493254645 57.213857153982495 a86.0,86.0 0 0,1 29.58750427330803,-30.492523968695096" fill="none" id="id83" stroke="none" /><text fill="#e1ed5e" style="font-size:6.75px; font-family:Arial;" text-anchor="middle"><textPath startOffset="21.46611528233685" xlink:href="#id83">November</textPath></text><path d="M 81.78341655067845 89.55222093294921 l -4.9311949816837 -2.8281942027444043 a26.684660622747813,26.684660622747813 0 0,0 0.2319536493678708,-0.39648397564984456 l 4.881781657845504 2.9126575907481405" fill="#ff4806" stroke="none" /><path d="M 82.15384107792192 88.93136811851018 l -7.930035689749248 -4.918405480986817 a30.331461756664815,30.331461756664815 0 0,0 0.2790095893765999,-0.44132616609596415 l 7.844198504126685 5.054179294796997" fill="#ff7a0b" stroke="none" /><path d="M 82.54541684631803 88.32363383020206 l -16.343727378805497 -10.93325138584183 a40.66350453247662,40.66350453247662 0 0,0 0.39419498395145364,-0.578432497842563 l 16.153107929185303 11.212961906954808" fill="#fffe18" stroke="none" /><path d="M 83.39014120810768 87.1503855733568 l -26.92106161201293 -20.82650226015928 a55.036550276287045,55.036550276287045 0 0,0 0.5861285660703025,-0.7443237566214769 l 26.55857896534866 21.286818410733805" fill="#60ff29" stroke="none" /><path d="M 85.05521093208273 85.24692304244772 l -5.696913393623109 -5.623833252826564 a29.005143513394383,29.005143513394383 0 0,0 0.35381330376861514,-0.3522939170007351 l 5.59926428968718 5.721063020477409" fill="#ff6809" stroke="none" /><path d="M 85.83668400450813 84.49514656593479 l -2.338989722078202 -2.5605368711783796 a24.468028544959143,24.468028544959143 0 0,0 0.31341099208486384,-0.2813834831937721 l 2.2945677423973665 2.6004193631414307" fill="#ff2904" stroke="none" /><path d="M 86.10567301691215 84.25364557470407 l -2.2795453407579767 -2.583394568718433 a24.44532356365194,24.44532356365194 0 0,0 0.3179128313961666,-0.2756908746216926 l 2.2347387107150367 2.6222504367598063" fill="#ff2904" stroke="none" /><path d="M 87.51073957382395 83.11751280151077 l -5.3855125528676355 -7.279922399610738 a30.055441215172735,30.055441215172735 0 0,0 0.4185645024967073,-0.3041049117772648 l 5.259402734017146 7.371546546204671" fill="#ff760a" stroke="none" /><path d="M 89.00827224532344 82.1063720568725 l -0.6271019925092172 -1.020870420628795 a22.198095707664393,22.198095707664393 0 0,0 0.3273034518487654,-0.19719666751556492 l 0.6094364744428026 1.0315136976029793" fill="#ff0901" stroke="none" /><line stroke="#e1ed5e" stroke-width="0.3" x1="56.762969772571076" x2="54.21961505331055" y1="26.818313649435495" y2="22.513508569990535" /><path d="M 56.25429882871897 25.957352633546506 a86.0,86.0 0 0,1 42.265352541879196,-11.944610805530505" fill="none" id="id84" stroke="none" /><text fill="#e1ed5e" style="font-size:6.75px; font-family:Arial;" text-anchor="middle"><textPath startOffset="22.20632615414155" xlink:href="#id84">December</textPath></text><path d="M 89.63071344664047 81.73862282372117 l -3.541496408433611 -6.23693841905544 a28.172279808682728,28.172279808682728 0 0,0 0.4237592641659464,-0.23582157171393012 l 3.433613055195619 6.296975388329555" fill="#ff5d08" stroke="none" /><path d="M 89.94658935756843 81.56283822128135 l -5.7238936834699965 -10.497169328875389 a32.9563172766011,32.9563172766011 0 0,0 0.500394524372812,-0.26729342516014737 l 5.542354112568879 10.594141480537285" fill="#ff9d0e" stroke="none" /><path d="M 91.23893434514133 80.91482961587045 l -2.334803778674171 -5.0861538635764125 a26.596451537258627,26.596451537258627 0 0,0 0.4177135858247496,-0.18741590990079465 l 2.2469080743826466 5.125590103993735" fill="#ff4706" stroke="none" /><path d="M 91.56875222667455 80.76684994638697 l -4.7573056323272915 -10.85224578109636 a32.84918543076682,32.84918543076682 0 0,0 0.5198246600953231,-0.22256179091083195 l 4.56979721444166 10.93252709996998" fill="#ff9b0e" stroke="none" /><path d="M 92.23578459929587 80.48803036053334 l -2.961184747592583 -7.441646568259594 a29.00916467281481,29.00916467281481 0 0,0 0.46555127923977363,-0.18062666357195237 l 2.8326503033531334 7.491515935722098" fill="#ff6809" stroke="none" /><path d="M 92.91201910852362 80.23233633223022 l -4.135737973757198 -11.53415599378502 a33.253207052708454,33.253207052708454 0 0,0 0.5404722852237656,-0.18856016786306565 l 3.936583684470148 11.603637014820295" fill="#ffa10e" stroke="none" /><path d="M 93.94186890950719 79.89281104454417 l -0.5291486012613817 -1.7562662068793646 a22.834248955742734,22.834248955742734 0 0,0 0.3773194170753086,-0.11014988462396168 l 0.49883896646265186 1.765114420422025" fill="#ff1202" stroke="none" /><path d="M 94.63758080256005 79.69619591428918 l -0.15119795731159377 -0.5724829765043086 a21.592112810773784,21.592112810773784 0 0,0 0.36016786629165765,-0.09181480858980975 l 0.14132120233493675 0.5750007812629816" fill="#ff0000" stroke="none" /><path d="M 94.98787191387505 79.60689891045804 l -0.710588242361923 -2.8912066113478376 a23.97724895158004,23.97724895158004 0 0,0 0.4016489634746797,-0.09505733289690733 l 0.6607155919247093 2.9030098563856157" fill="#ff2203" stroke="none" /><path d="M 95.692805502759 79.44645832069477 l -1.1405086812421685 -5.44240403597653 a26.560622424045924,26.560622424045924 0 0,0 0.4482846082162994,-0.08992167516555202 l 1.0466576635587328 5.461229667219293" fill="#ff4706" stroke="none" /><path d="M 96.04723909329186 79.375362276772 l -0.8588459284110163 -4.48126930811465 a25.56282707765685,25.56282707765685 0 0,0 0.43286981081989734,-0.07910419109313796 l 0.7815809964882257 4.495388980558524" fill="#ff3905" stroke="none" /><path d="M 97.83486435360386 79.11191278185805 l -0.3867190112387699 -3.7308611352432006 a24.750850090862293,24.750850090862293 0 0,0 0.4241528109932229,-0.04027842022102919 l 0.32244107315531073 3.7369650999794106" fill="#ff2d04" stroke="none" /><path d="M 98.19473922651362 79.07773832637324 l -0.47730138207545636 -5.531735115298977 a26.552288716841275,26.552288716841275 0 0,0 0.4557002546873045,-0.035371110245232776 l 0.3820109380258177 5.539131487732672" fill="#ff4606" stroke="none" /><path d="M 98.55514903715128 79.0497635885617 l -0.3486747468830318 -5.055759082234689 a26.067768145516574,26.067768145516574 0 0,0 0.44791619280723527,-0.0270195279561947 l 0.2615965052361735 5.061011879571191" fill="#ff4006" stroke="none" /><path d="M 98.91598698831166 79.02799685794201 l -0.6189749528643611 -11.975081955989252 a32.99106825286775,32.99106825286775 0 0,0 0.5673822261329863,-0.02443267217750629 l 0.41275189434205073 11.98396235469095" fill="#ff9d0e" stroke="none" /></svg>