<?xml version="1.0" encoding="utf-8" ?>
<svg baseProfile="full" height="200mm" version="1.1" viewBox="0,0,200,200" width="200mm" xmlns="http://www.w3.org/2000/svg" xmlns:ev="http://www.w3.org/2001/xml-events" xmlns:xlink="http://www.w3.org/1999/xlink"><defs /><rect fill="#1a1a1a" height="200" width="200" x="0" y="0" /><rect fill="#1a1a1a" height="200" width="180" x="10" y="0" /><text alignment-baseline="middle" fill="#e1ed5e" style="dominant-baseline: central; font-size:9.0px; font-family:Arial;" text-anchor="middle" x="100.0" y="100.0">2024</text><line stroke="#e1ed5e" stroke-width="0.3" x1="100.0" x2="100.0" y1="15.0" y2="10.0" /><path d="M 100.0 14.0 a86.0,86.0 0 0,1 42.35913384403234,11.155469271406648" fill="none" id="id133" stroke="none" /><text fill="#e1ed5e" style="font-size:6.75px; font-family:Arial;" text-anchor="middle"><textPath startOffset="22.145653131862478" xlink:href="#id133">January</textPath></text><path d="M 100.0 79.0 l 0.0 -15.837954046925589 a36.83795404692559,36.83795404692559 0 0,0 0.6323724666582815,0.00542815707092775 l -0.27187954180942675 15.835620288049096" fill="#ffcf13" stroke="none" /><path d="M 100.36049292484886 79.00309439819443 l 0.11294557071368448 -6.578513260451919 a27.579482762336685,27.579482762336685 0 0,0 0.4732989710648397,0.012190502587598476 l -0.22585785584926552 6.575605040514275" fill="#ff5507" stroke="none" /><path d="M 101.44090949804482 79.04949213459386 l 1.5778254136126375 -22.941235228849287 a43.9954301299462,43.9954301299462 0 0,0 0.7530153179477401,0.05828814801086668 l -1.9714097263356112 22.910769313843367" fill="#d9ff1c" stroke="none" /><path d="M 101.80034050326958 79.07731436759882 l 2.43725676740482 -28.32461806932841 a49.429284361791204,49.429284361791204 0 0,0 0.8447710351911055,0.0800006953377314 l -2.923127365980938 28.278605618485493" fill="#9bff22" stroke="none" /><path d="M 102.15924093988457 79.11130261209362 l 0.6337769430867085 -6.131217008268817 a27.16388637274189,27.16388637274189 0 0,0 0.4634212028737514,0.051927312386132435 l -0.7389340475612566 6.119433935375714" fill="#ff4f07" stroke="none" /><path d="M 102.87502721639298 79.19773525538626 l 0.3680724885033826 -2.6631891717054206 a23.688504030326545,23.688504030326545 0 0,0 0.4023378415870819,0.059129807448800746 l -0.41373543569814647 2.6564782909577374" fill="#ff1e03" stroke="none" /><path d="M 103.94208987418118 79.37332000966035 l 4.537895630183633 -23.74418746929276 a45.17393090350345,45.17393090350345 0 0,0 0.7604353969890563,0.15210837663319243 l -4.944827512703646 23.662789695996707" fill="#cbff1d" stroke="none" /><path d="M 104.29559338865022 79.4440306129975 l 3.411030186883789 -16.323014251066525 a37.67560856989493,37.67560856989493 0 0,0 0.6319412054792015,0.13772864446836205 l -3.690733808982125 16.262054148464443" fill="#ffd914" stroke="none" /><path d="M 104.64783097203109 79.52079915486377 l 4.896774396692242 -21.576091507337757 a43.1247852921811,43.1247852921811 0 0,0 0.7205285969474985,0.17004278698195457 l -5.266435147379626 21.488852576709576" fill="#e3ff1b" stroke="none" /><path d="M 104.9986988182912 79.60360301121754 l 1.2685192141121644 -5.175991276820872 a26.329167542336936,26.329167542336936 0 0,0 0.4380605606225846,0.1113532814877643 l -1.3571850679601434 5.15345276349784" fill="#ff4306" stroke="none" /><path d="M 105.3480935250658 79.69241777938227 l 3.6260679562187113 -13.768770649453579 a35.23823774279565,35.23823774279565 0 0,0 0.5836435469156864,0.15907464405944144 l -3.861892904069091 13.704495511249997" fill="#ffba11" stroke="none" /><path d="M 105.69591212413111 79.78721728523813 l 7.07522017406904 -25.107460389300293 a47.08530827327591,47.08530827327591 0 0,0 0.7761003820342887,0.22591151020202208 l -7.505180568484933 24.982305184795756" fill="#b5ff1f" stroke="none" /><path d="M 106.38641147887787 79.99465700312896 l 0.9893409227847967 -3.0990963495869717 a24.253182079982608,24.253182079982608 0 0,0 0.3955315905753941,0.13001909007778306 l -1.0423952510079333 3.081656338107167" fill="#ff2603" stroke="none" /><path d="M 106.72888874123014 80.10723608172694 l 4.464514490775457 -13.198543799740287 a34.933177960250376,34.933177960250376 0 0,0 0.5664069266471159,0.197025731093925 l -4.690427189467591 13.119959636077771" fill="#ffb610" stroke="none" /><path d="M 107.06938296918511 80.22567764915836 l 5.348121113549707 -14.959646595983536 a36.886894779091286,36.886894779091286 0 0,0 0.594425016906539,0.21828109985248967 l -5.604135282110371 14.865634647122324" fill="#ffcf13" stroke="none" /><path d="M 108.07796709384702 80.6158196554323 l 4.65841003361578 -11.178488246050534 a33.11030071915566,33.11030071915566 0 0,0 0.5227721128110144,0.22314032900767014 l -4.849617221597224 11.096873267383462" fill="#ff9f0e" stroke="none" /><path d="M 108.73861861582097 80.90454125486305 l 7.226006414507471 -15.790128102227435 a38.36500256801754,38.36500256801754 0 0,0 0.5965050633717341,0.27919448896431415 l -7.49600019175071 15.663757381692587" fill="#ffe215" stroke="none" /><path d="M 109.06512990194946 81.05736502329252 l 6.512519339686011 -13.60866065514303 a36.086701195974626,36.086701195974626 0 0,0 0.5564908723932709,0.27220757180078403 l -6.74517046134135 13.494859333245024" fill="#ffc512" stroke="none" /><path d="M 109.3889696526874 81.21577127319529 l 3.563134821706971 -7.1286564928057645 a28.969546608815495,28.969546608815495 0 0,0 0.4429206102566839,0.2261584195313581 l -3.684982653677234 7.066440121601572" fill="#ff6809" stroke="none" /><path d="M 109.71004243097381 81.37971332152246 l 5.0752279705540175 -9.732418827428958 a31.97624321822305,31.97624321822305 0 0,0 0.4845332486270358,0.2579866634501321 l -5.241550034967613 9.643861696256254" fill="#ff900d" stroke="none" /><path d="M 110.02825361518725 81.54914285379988 l 4.825957593944091 -8.879218413925143 a31.10595796254536,31.10595796254536 0 0,0 0.46696828717449784,0.25901943721759163 l -4.97767006927469 8.795066061274406" fill="#ff840c" stroke="none" /><path d="M 110.34350942703115 81.72400993836675 l 1.3219890335425557 -2.3358279517270786 a23.683979736301357,23.683979736301357 0 0,0 0.3521103268911906,0.20329099201507606 l -1.3618918282941437 2.312790062435831" fill="#ff1e03" stroke="none" /><line stroke="#e1ed5e" stroke-width="0.3" x1="143.13028292997686" x2="145.6673583964461" y1="26.7553504044142" y2="22.446841604673864" /><path d="M 143.63769802327073 25.89364864446614 a86.0,86.0 0 0,1 29.32050498858742,28.57503671076993" fill="none" id="id134" stroke="none" /><text fill="#e1ed5e" style="font-size:6.75px; font-family:Arial;" text-anchor="middle"><textPath startOffset="20.669276256404974" xlink:href="#id134">February</textPath></text><path d="M 110.96478420261332 82.08984904055464 l 1.2554306228650929 -2.0506515731759967 a23.40442881437497,23.40442881437497 0 0,0 0.3408530417439773,0.21271750743021212 l -1.2904477933987828 2.028798268904239" fill="#ff1a02" stroke="none" /><path d="M 111.5731344415666 82.4767994020092 l 2.1170842917296513 -3.2055354505855154 a24.841549612233184,24.841549612233184 0 0,0 0.35381903325911673,0.23806523601848484 l -2.1717996130857693 3.168720540509912" fill="#ff2f04" stroke="none" /><path d="M 111.8722381534696 82.67804972795209 l 22.335381234046476 -32.5879887214289 a60.50754692179929,60.50754692179929 0 0,0 0.8517298995770415,0.5945736185822778 l -22.891506224797276 32.199770287041495" fill="#30ff36" stroke="none" /><path d="M 112.16784306229584 82.88440491214696 l 7.36789262593465 -10.363863684849495 a33.7159550260861,33.7159550260861 0 0,0 0.46884281528544774,0.3394060421397479 l -7.5447164515940655 10.235856871336672" fill="#ffa70f" stroke="none" /><path d="M 112.45986205192187 83.09580414077388 l 0.9548162258857154 -1.2953915881797133 a22.609258646688406,22.609258646688406 0 0,0 0.31044343589123874,0.23296254184809143 l -0.9769126506877205 1.278810019067607" fill="#ff0f01" stroke="none" /><path d="M 112.7482090630111 83.31218511350987 l 9.588906128668704 -12.552185930449284 a36.79571120200003,36.79571120200003 0 0,0 0.4986520708649249,0.387754866374652 l -9.802968144168856 12.38573001245384" fill="#ffce13" stroke="none" /><path d="M 113.03279911837588 83.53348406188908 l 18.871916243750643 -23.844049677114945 a51.408681781949454,51.408681781949454 0 0,0 0.6872832289206625,0.5536267189914095 l -19.278450243026565 23.516574664330125" fill="#86ff25" stroke="none" /><path d="M 113.31354834802062 83.75963576809568 l 9.105327383206973 -11.107018901989308 a35.362202325706406,35.362202325706406 0 0,0 0.46615072401502583,0.3888795131983439 l -9.29465244138389 10.949077204879094" fill="#ffbc11" stroke="none" /><path d="M 113.59037401385872 83.9905735841838 l 13.111022274004483 -15.444751271580705 a41.25930025717659,41.25930025717659 0 0,0 0.536018274323013,0.46299981885731195 l -13.374220028090358 15.217407320258673" fill="#f9ff18" stroke="none" /><path d="M 114.13192950727249 84.46653392183569 l 5.669980342439457 -6.232301630702119 a29.425571832208313,29.425571832208313 0 0,0 0.3707204889935574,0.34313335007689877 l -5.77613060274698 6.134050534492845" fill="#ff6e0a" stroke="none" /><path d="M 114.39649973595853 84.71141617570332 l 11.111029236626969 -11.799528008470622 a37.20752392933177,37.20752392933177 0 0,0 0.4612448672204693,0.44186214901619997 l -11.31194658971275 11.607053729148841" fill="#ffd313" stroke="none" /><path d="M 114.65682725009322 84.96080404539774 l 3.2634183752019834 -3.348554744424665 a25.67575858743957,25.67575858743957 0 0,0 0.3130096026274776,0.31033432295406294 l -3.320419897959424 3.292040411241943" fill="#ff3a05" stroke="none" /><path d="M 115.16444852881244 85.47280134310134 l 4.651742601064681 -4.456264185145228 a27.441816491826515,27.441816491826515 0 0,0 0.32295642179214357,0.34296852823408913 l -4.727554856593085 4.3757541969666445" fill="#ff5307" stroke="none" /><path d="M 115.41159269507618 85.73525988315684 l 8.520664089250396 -7.886599474881475 a32.610347445233586,32.610347445233586 0 0,0 0.37673072697899396,0.4140930624596511 l -8.654792517071268 7.7391688368641525" fill="#ff980e" stroke="none" /><path d="M 115.6541949942343 86.00192230759917 l 14.718327369932602 -13.161219091904101 a40.74453971490873,40.74453971490873 0 0,0 0.4617499836308617,0.5253867190965357 l -14.942088417522054 12.906620094996267" fill="#ffff18" stroke="none" /><path d="M 115.8921839302757 86.27271002978787 l 9.60870428207078 -8.299769905552319 a33.69698304580255,33.69698304580255 0 0,0 0.37436615895211445,0.4410023939152766 l -9.749765004530008 8.13360072918749" fill="#ffa60f" stroke="none" /><path d="M 116.35404254752997 86.82634096563983 l 5.054495939381779 -4.071544139771754 a27.49040837569845,27.49040837569845 0 0,0 0.29288224709600896,0.37004715149765893 l -5.123644617119347 3.9841770443594164" fill="#ff5307" stroke="none" /><path d="M 116.57777611688842 87.10902102172516 l 12.397638743119092 -9.640478873096958 a36.70478523595647,36.70478523595647 0 0,0 0.3825128414535195,0.500721588289827 l -12.56130356192692 9.42623637156625" fill="#ffcd13" stroke="none" /><path d="M 116.7966241395341 87.39550010848427 l 9.874277715609809 -7.409842082627697 a33.345327865005,33.345327865005 0 0,0 0.33964277555427375,0.4607906553231059 l -10.000022510747907 7.239245118035716" fill="#ffa20f" stroke="none" /><path d="M 117.01052211995028 87.68569379921539 l 8.442538653497886 -6.111746915116831 a31.4225673070624,31.4225673070624 0 0,0 0.3125571369462576,0.43965075571754036 l -8.546210888974104 5.965918932689787" fill="#ff890c" stroke="none" /><path d="M 117.42321728460499 88.27688183743584 l 9.702885248813041 -6.528534221411729 a32.69477409921961,32.69477409921961 0 0,0 0.3093167899296488,0.4683450439144874 l -9.813526477663414 6.361009299158183" fill="#ff990e" stroke="none" /><path d="M 117.81537515405839 88.88188828441811 l 2.424780108686371 -1.5132421237817473 a23.858226775584573,23.858226775584573 0 0,0 0.2138515519263289,0.34931043850359994 l -2.4503996250681026 1.4713945691535926" fill="#ff2103" stroke="none" /><line stroke="#e1ed5e" stroke-width="0.3" x1="172.87174338648825" x2="177.1583165268699" y1="56.24261187166439" y2="53.66864786411523" /><path d="M 173.72905801456457 55.72781907015455 a86.0,86.0 0 0,1 12.242430191666344,42.057860355516425" fill="none" id="id135" stroke="none" /><text fill="#e1ed5e" style="font-size:6.75px; font-family:Arial;" text-anchor="middle"><textPath startOffset="22.145653131862474" xlink:href="#id135">March</textPath></text><path d="M 118.00360718960297 89.18935116829356 l 27.658325696726788 -16.608029892640065 a53.261581443894585,53.261581443894585 0 0,0 0.4639496898168022,0.7878880023992116 l -27.93934909667336 16.130790721947296" fill="#72ff27" stroke="none" /><path d="M 118.18653347947321 89.5 l 10.076473073016434 -5.817654441188055 a32.63530888237611,32.63530888237611 0 0,0 0.27594961808245355,0.487576534169982 l -10.174856056120264 5.643821136918955" fill="#ff990e" stroke="none" /><path d="M 118.36410011445183 89.81374322990088 l 4.7285282312008485 -2.622834901110656 a26.407239790479757,26.407239790479757 0 0,0 0.21648233970256622,0.39830312213864727 l -4.772855920518756 2.541276945497405" fill="#ff4406" stroke="none" /><path d="M 118.53625476483649 90.13048839642627 l 2.73583064795769 -1.4566757237634038 a24.099463421062786,24.099463421062786 0 0,0 0.19129457592022114,0.36683257246230677 l -2.760433292852856 1.409496908196599" fill="#ff2403" stroke="none" /><path d="M 118.70294669586156 90.45014215332178 l 14.350123335097697 -7.327275223577821 a37.11257279066794,37.11257279066794 0 0,0 0.2848479858731232,0.5698867838473519 l -14.473791234182558 7.079856583566719" fill="#ffd213" stroke="none" /><path d="M 119.0197475246899 91.09779779509293 l 34.40482716230361 -16.103196313522027 a58.98690647551882,58.98690647551882 0 0,0 0.42137868292714237,0.9207884689403362 l -34.67619031008581 15.510218862367005" fill="#39ff2e" stroke="none" /><path d="M 119.16976305983485 91.42560881287824 l 11.118120189472691 -4.972993743971526 a33.179624925470414,33.179624925470414 0 0,0 0.22809588793443494,0.5219280296901684 l -11.201849959424095 4.781403644505508" fill="#ffa00e" stroke="none" /><path d="M 119.4528033332814 92.08871423366111 l 7.3698190968287 -2.997241267611082 a28.955984460533585,28.955984460533585 0 0,0 0.18330699723064978,0.4620533780145054 l -7.420184769025474 2.8702868723830113" fill="#ff6709" stroke="none" /><path d="M 119.71291397450082 92.76114493625339 l 9.241866920773738 -3.39374154650362 a30.845282416759645,30.845282416759645 0 0,0 0.1782561061449761,0.4986140543356311 l -9.298763196962657 3.234592535787072" fill="#ff810b" stroke="none" /><path d="M 119.94978838288452 93.4421083053983 l 6.1265794146699335 -2.0139283429317465 a27.449099370820797,27.449099370820797 0 0,0 0.14330427672277377,0.4488986057724822 l -6.160248407169965 1.9084607034678773" fill="#ff5307" stroke="none" /><path d="M 120.05942366710727 93.78553927170692 l 14.81010264994446 -4.588207658776746 a36.50454094844312,36.50454094844312 0 0,0 0.18030406303575222,0.6001735851276208 l -14.88668303298384 4.333296470058402" fill="#ffca12" stroke="none" /><path d="M 120.16314734710363 94.1308016681162 l 7.2606281215454915 -2.1134630286538454 a28.561973729977108,28.561973729977108 0 0,0 0.132992040983016,0.4719418362853503 l -7.29583865460309 1.988513268465482" fill="#ff6209" stroke="none" /><path d="M 120.26092885502905 94.47779374421319 l 8.808844278578139 -2.40088967931704 a30.130170249041903,30.130170249041903 0 0,0 0.13172697971459077,0.5001887978753666 l -8.84876073909746 2.2493203770688748" fill="#ff770b" stroke="none" /><path d="M 120.43855184770803 95.1765574152323 l 5.396727429000044 -1.2736129787170722 a26.544975830648678,26.544975830648678 0 0,0 0.10085717864285841,0.44439533849878343 l -5.417795469200569 1.1807833062792625" fill="#ff4606" stroke="none" /><path d="M 120.51834098615036 95.52812308129327 l 2.102669776961621 -0.45826709136005367 a23.15202902349653,23.15202902349653 0 0,0 0.08129921996444446,0.3890461981787985 l -2.110226707750432 0.4221044418958507" fill="#ff1702" stroke="none" /><path d="M 120.65975698304385 96.23510406497455 l 9.88759446122456 -1.8018490839363188 a31.0504320479729,31.0504320479729 0 0,0 0.09105935831520894,0.5252061806793183 l -9.917068637032004 1.631849870336408" fill="#ff840c" stroke="none" /><path d="M 120.82617615685814 97.30363454192243 l 5.329445713103486 -0.6900034467815491 a26.373927461874374,26.373927461874374 0 0,0 0.054277434382913076,0.44949501918895624 l -5.340505233746063 0.5984147506691799" fill="#ff4406" stroke="none" /><path d="M 120.86939407059847 97.66154086499901 l 6.784165973331889 -0.7601799477279146 a27.826622994324634,27.826622994324634 0 0,0 0.049117444748298655,0.47516672218583844 l -6.796215810561853 0.6436087032591448" fill="#ff5808" stroke="none" /><path d="M 120.93736805541906 98.37931529534042 l 2.1736814238369027 -0.16825668952709297 a23.180183764251133,23.180183764251133 0 0,0 0.027304091704448603,0.396995500958279 l -2.1762494767064173 0.1309177644144798" fill="#ff1702" stroke="none" /><path d="M 120.96210409425399 98.7389718711861 l 4.852048248892025 -0.29188717395465613 a25.86081992382925,25.86081992382925 0 0,0 0.022854081577908015,0.44336307709445516 l -4.8563439199265055 0.2085523034834703" fill="#ff3d05" stroke="none" /><path d="M 120.98066250479742 99.09900007780936 l 8.156466247306277 -0.3502737557735911 a29.163983913962,29.163983913962 0 0,0 0.0171863537787698,0.5003619383120612 l -8.161277288081894 0.21020555289740991" fill="#ff6a09" stroke="none" /><path d="M 120.99303781780057 99.45929381324524 l 5.398150554995429 -0.13903720973839898 a26.399940810794995,26.399940810794995 0 0,0 0.007779897118989193,0.45314000397548393 l -5.399741883713085 0.04635028979384867" fill="#ff4406" stroke="none" /><line stroke="#e1ed5e" stroke-width="0.3" x1="184.99686870605535" x2="189.99668451229388" y1="99.2704041080226" y2="99.22748670261217" /><path d="M 185.99683186730306 99.26182062694052 a86.0,86.0 0 0,1 -10.086455211305974,41.156179273409016" fill="none" id="id136" stroke="none" /><text fill="#e1ed5e" style="font-size:6.75px; font-family:Arial;" text-anchor="middle"><textPath startOffset="21.40746469413373" xlink:href="#id136">April</textPath></text><path d="M 120.99922638620191 100.18025310272382 l 11.353090981565021 0.09745263169683423 a32.353509230679194,32.353509230679194 0 0,0 -0.009534376423674894,0.5553296276867354 l -11.349745173542678 -0.2923291753526407" fill="#ff950d" stroke="none" /><path d="M 120.99303781780057 100.54070618675476 l 19.43376476924463 0.5005448441462421 a40.44020983033195,40.44020983033195 0 0,0 -0.023831440693504343,0.6938263934086414 l -19.422308641554277 -0.8340775021189942" fill="#fffb17" stroke="none" /><path d="M 120.98066250479742 100.90099992219065 l 21.59161078520874 0.9272366701001646 a42.61151138033434,42.61151138033434 0 0,0 -0.03765723438438907,0.7305402868461336 l -21.572511961367777 -1.297748750323029" fill="#e9ff1a" stroke="none" /><path d="M 120.93736805541906 101.62068470465957 l 5.364620583441982 0.4152555613902017 a26.380668284289126,26.380668284289126 0 0,0 -0.03882528035618965,0.45120860970862775 l -5.356701680388052 -0.5072852184744868" fill="#ff4406" stroke="none" /><path d="M 120.9064616781168 101.97986365728391 l 11.917093872288108 1.1285611798614665 a32.9704125533591,32.9704125533591 0 0,0 -0.05819687201168882,0.5630019447666972 l -11.895964607794753 -1.3329676469110951" fill="#ff9d0e" stroke="none" /><path d="M 120.86939407059847 102.33845913500097 l 5.512724540451938 0.6177122832006707 a26.547224560419203,26.547224560419203 0 0,0 -0.054634079099882646,0.4524485490622961 l -5.501308375092392 -0.7122545091863755" fill="#ff4606" stroke="none" /><path d="M 120.77682067341334 103.0534771498775 l 6.418393756420025 0.9432828526658854 a27.487338510713393,27.487338510713393 0 0,0 -0.07261697741260546,0.4662530868936606 l -6.401255286869152 -1.0533241214909965" fill="#ff5307" stroke="none" /><path d="M 120.65975698304385 103.76489593502545 l 2.381850522695334 0.43405250885060104 a23.42107692833242,23.42107692833242 0 0,0 -0.07547576735643008,0.39492110783237744 l -2.3740484630567447 -0.474876181716293" fill="#ff1a02" stroke="none" /><path d="M 120.592083275326 104.11899336999214 l 0.9778840095748776 0.19560418915392516 a21.997255300811585,21.997255300811585 0 0,0 -0.07724418864108235,0.3696414053586304 l -0.9743821101094309 -0.2123620457979646" fill="#ff0601" stroke="none" /><path d="M 120.51834098615036 104.47187691870673 l 2.626504512783572 0.5724344339303025 a23.688160548929616,23.688160548929616 0 0,0 -0.09000275816584882,0.3965687591020925 l -2.6162908930600595 -0.6174375269714119" fill="#ff1e03" stroke="none" /><path d="M 120.43855184770803 104.8234425847677 l 4.527128995514183 1.0683901162081837 a25.651489479987738,25.651489479987738 0 0,0 -0.10481989337233158,0.4277009348354436 l -4.508121575625556 -1.1459468756517268" fill="#ff3a05" stroke="none" /><path d="M 120.35273937422433 105.17358676015961 l 7.337923636038817 1.8652714935539 a28.571285295972007,28.571285295972007 0 0,0 -0.12491164462377931,0.4743098604429764 l -7.3048225106103075 -1.9909618583696798" fill="#ff6209" stroke="none" /><path d="M 120.16314734710363 105.8691983318838 l 5.169813866943853 1.5048574709927514 a26.384382176893432,26.384382176893432 0 0,0 -0.13031834351514435,0.4337873818177348 l -5.143219203425079 -1.5933824564012096" fill="#ff4406" stroke="none" /><path d="M 120.05942366710727 106.21446072829308 l 0.9926372358065335 0.3075215530482223 a22.03918149882435,22.03918149882435 0 0,0 -0.1150605679838226,0.3604255904186776 l -0.9872119520454561 -0.3245161771582834" fill="#ff0701" stroke="none" /><path d="M 119.94978838288452 106.5578916946017 l 7.720313775805392 2.5378204830237303 a29.126732283085577,29.126732283085577 0 0,0 -0.16021724765024845,0.47365382393872085 l -7.675611106582779 -2.6699759814366115" fill="#ff6a09" stroke="none" /><path d="M 119.83427380445688 106.89939002012753 l 11.244677280774553 3.9114824659271203 a32.905564338998076,32.905564338998076 0 0,0 -0.19016255679947106,0.531918515888018 l -11.175874553931138 -4.10393593819606" fill="#ff9c0e" stroke="none" /><path d="M 119.4528033332814 107.91128576633889 l 9.59956996566627 3.904061534535601 a31.363080622631593,31.363080622631593 0 0,0 -0.20710708181321674,0.4969816016659048 l -9.531137039316569 -4.0682756456427835" fill="#ff880c" stroke="none" /><path d="M 119.16976305983485 108.57439118712176 l 1.9663863521556042 0.8795396038945503 a23.1541274801559,23.1541274801559 0 0,0 -0.16540375355951614,0.3614370521524165 l -1.950998133741032 -0.9131656382616558" fill="#ff1702" stroke="none" /><path d="M 118.8641267826498 109.22738970284198 l 7.339766950498888 3.590247815901275 a29.170805239829157,29.170805239829157 0 0,0 -0.22389299620187222,0.44793597237602795 l -7.277054041085283 -3.715715644441049" fill="#ff6a09" stroke="none" /><path d="M 118.70294669586154 109.54985784667822 l 2.931460995426066 1.4968248717511083 a24.29149635643078,24.29149635643078 0 0,0 -0.1928188778638777,0.36975562242601806 l -2.905334048587239 -1.546926737281629" fill="#ff2703" stroke="none" /><line stroke="#e1ed5e" stroke-width="0.3" x1="174.33088141563837" x2="178.70328620479359" y1="141.23008692659167" y2="143.65538615756765" /><path d="M 175.20536237346943 141.71514677278685 a86.0,86.0 0 0,1 -30.301960400862466,31.631185727798858" fill="none" id="id137" stroke="none" /><text fill="#e1ed5e" style="font-size:6.75px; font-family:Arial;" text-anchor="middle"><textPath startOffset="22.145653131862474" xlink:href="#id137">May</textPath></text><path d="M 118.36410011445183 110.18625677009912 l 6.572426008666518 3.6456139157109604 a28.51580231657416,28.51580231657416 0 0,0 -0.24111690766998373,0.426030472476995 l -6.508875735975156 -3.757901158287078" fill="#ff6209" stroke="none" /><path d="M 118.18653347947321 110.5 l 7.597680878101553 4.386523100188802 a29.773046200377607,29.773046200377607 0 0,0 -0.2593463275985791,0.4404267627852133 l -7.521260840373208 -4.516301031267564" fill="#ff730a" stroke="none" /><path d="M 117.81537515405839 111.11811171558189 l 10.076619877765511 6.288556067309574 a32.87788725206108,32.87788725206108 0 0,0 -0.30291854857107164,0.47623827178730455 l -9.96718363756855 -6.46060801377555" fill="#ff9c0e" stroke="none" /><path d="M 117.62189284568427 111.42229804090321 l 7.21104643277527 4.674113176333568 a29.593400062886403,29.593400062886403 0 0,0 -0.27997549341606465,0.4239185812989679 l -7.129746500438479 -4.797211635971597" fill="#ff700a" stroke="none" /><path d="M 117.21940702142032 112.02048342749411 l 2.7653626946994754 1.9304379297902017 a24.372509664034816,24.372509664034816 0 0,0 -0.24243091808330924,0.3410094467398154 l -2.7318166780862057 -1.977624603239521" fill="#ff2803" stroke="none" /><path d="M 116.35404254752997 113.17365903436017 l 9.436632546472334 7.60148319526956 a33.11744942572926,33.11744942572926 0 0,0 -0.36043325737877663,0.43966996837423217 l -9.304752469854929 -7.762355445342284" fill="#ff9f0e" stroke="none" /><path d="M 115.89218393027572 113.72728997021213 l 8.621737027047693 7.447251097549116 a32.39280028234989,32.39280028234989 0 0,0 -0.3671013368856419,0.4176939335129155 l -8.492624626203465 -7.594157308873325" fill="#ff950d" stroke="none" /><path d="M 115.41159269507618 114.26474011684316 l 3.701337824520242 3.4259030326107305 a26.04348225733725,26.04348225733725 0 0,0 -0.306499748052101,0.32549211101057746 l -3.6419822427318813 -3.4889366035658047" fill="#ff3f05" stroke="none" /><path d="M 115.16444852881244 114.52719865689866 l 3.8761065998838964 3.7132224416102146 a26.36770186155502,26.36770186155502 0 0,0 -0.3159267529375084,0.3241686801417517 l -3.811793045795581 -3.779213813819704" fill="#ff4406" stroke="none" /><path d="M 114.91283532996324 114.78537596483092 l 4.0050638923139426 3.9708327826869847 a26.639862566550587,26.639862566550587 0 0,0 -0.32476286017448774,0.32198712591198697 l -3.93630911200949 -4.038999918827633" fill="#ff4806" stroke="none" /><path d="M 114.13192950727249 115.5334660781643 l 3.7301569877451493 4.100095956857758 a26.54300081261633,26.54300081261633 0 0,0 -0.3396682195907385,0.3037334164562189 l -3.659223741331033 -4.163524903197364" fill="#ff4606" stroke="none" /><path d="M 113.86319453409587 115.77377054828091 l 2.589892128385563 2.9468218221621507 a24.9231747460755,24.9231747460755 0 0,0 -0.32378826191359894,0.2796805888818982 l -2.5389243867091085 -2.9908465435087663" fill="#ff3004" stroke="none" /><path d="M 113.59037401385872 116.0094264158162 l 3.5591969144891524 4.192725015794878 a26.499711422809497,26.499711422809497 0 0,0 -0.34932382186366073,0.29141835633091867 l -3.4866987584635964 -4.253205556037667" fill="#ff4606" stroke="none" /><path d="M 113.31354834802062 116.24036423190432 l 2.05963020410112 2.5124139578166367 a24.248738289409825,24.248738289409825 0 0,0 -0.3241816473623286,0.26113778750034555 l -2.0161977863835387 -2.5474000391103857" fill="#ff2603" stroke="none" /><path d="M 112.45986205192187 116.90419585922612 l 7.362923421316109 9.989219711402242 a33.409558886230904,33.409558886230904 0 0,0 -0.4645821728480272,0.33632166558642723 l -7.190360238094114 -10.114142148361745" fill="#ffa30f" stroke="none" /><path d="M 112.16784306229584 117.11559508785304 l 6.52672992995108 9.180663011258199 a32.2642255350647,32.2642255350647 0 0,0 -0.4541649260781951,0.31704239062825534 l -6.368169912699127 -9.291350217691576" fill="#ff940d" stroke="none" /><path d="M 111.8722381534696 117.32195027204791 l 6.367402273625285 9.29023020934167 a32.26286771016747,32.26286771016747 0 0,0 -0.4595211185117345,0.3091863163106278 l -6.206984867016548 -9.398166199709419" fill="#ff940d" stroke="none" /><path d="M 110.96478420261333 117.91015095944535 l 4.488695990039015 7.331947561128927 a29.596850977546183,29.596850977546183 0 0,0 -0.4355912926766922,0.26156005569796387 l -4.362171940804886 -7.407921617362814" fill="#ff700a" stroke="none" /><line stroke="#e1ed5e" stroke-width="0.3" x1="143.1302829299769" x2="145.66735839644613" y1="173.24464959558577" y2="177.55315839532614" /><path d="M 143.63769802327073 174.10635135553383 a86.0,86.0 0 0,1 -40.68552437913181,11.842963189579606" fill="none" id="id138" stroke="none" /><text fill="#e1ed5e" style="font-size:6.75px; font-family:Arial;" text-anchor="middle"><textPath startOffset="21.407464694133747" xlink:href="#id138">June</textPath></text><path d="M 110.65571695917076 118.09573695890943 l 3.1463712845000207 5.3432263035456184 a27.200783788427724,27.200783788427724 0 0,0 -0.40439474184989993,0.23347741306590986 l -3.054184074789722 -5.3964506138876995" fill="#ff4f07" stroke="none" /><path d="M 110.34350942703117 118.27599006163325 l 0.8652635106773862 1.5288377154186714 a22.756708770114255,22.756708770114255 0 0,0 -0.3416278427722712,0.1894952055698519 l -0.8388914797490206 -1.543465836421667" fill="#ff1101" stroke="none" /><path d="M 110.02825361518725 118.45085714620011 l 2.565625558671017 4.7204620555255925 a26.37263403973906,26.37263403973906 0 0,0 -0.39962224326729573,0.21277633572746946 l -2.4842144996171673 -4.76380885897563" fill="#ff4406" stroke="none" /><path d="M 109.71004243097381 118.62028667847754 l 7.0701777633982035 13.557998099197679 a36.29073987954469,36.29073987954469 0 0,0 -0.5548556513902432,0.28331324910289735 l -6.836394890294378 -13.677369299973414" fill="#ffc812" stroke="none" /><path d="M 109.06512990194946 118.94263497670748 l 2.783016125210115 5.8154333323793965 a27.44704921623287,27.44704921623287 0 0,0 -0.4267510161916315,0.1997410234997019 l -2.6827763951469774 -5.862350587449632" fill="#ff5307" stroke="none" /><path d="M 107.74402155503746 119.51999308798841 l 1.980784955493894 4.992872032346141 a26.371431854849806,26.371431854849806 0 0,0 -0.4222288984458199,0.16332720842865742 l -1.894783794554545 -5.026139128912838" fill="#ff4406" stroke="none" /><path d="M 107.06938296918513 119.77432235084164 l 2.619594045051119 7.327470770925996 a28.781651550901138,28.781651550901138 0 0,0 -0.46666601067110874,0.16233066299778048 l -2.4934222623349886 -7.371359866492367" fill="#ff6509" stroke="none" /><path d="M 106.72888874123015 119.89276391827305 l 1.3368644245163555 3.9522021258416653 a25.172182658159254,25.172182658159254 0 0,0 -0.410519057342741,0.1349457680931257 l -1.26882262952588 -3.97456881533681" fill="#ff3304" stroke="none" /><path d="M 106.38641147887787 120.00534299687104 l 0.6836223577153183 2.1414372988111254 a23.24790863531144,23.24790863531144 0 0,0 -0.3812207192721022,0.11810315331306678 l -0.6467610055715918 -2.1528570399308364" fill="#ff1802" stroke="none" /><path d="M 106.0420521117495 120.11202640906438 l 4.464447861382866 14.860694947568799 a36.51681504148654,36.51681504148654 0 0,0 -0.6019014241106336,0.17520473235325792 l -4.208686424890625 -14.935143374224575" fill="#ffca12" stroke="none" /><path d="M 105.69591212413111 120.21278271476187 l 1.4562783338147864 5.167818058306859 a26.369086520936392,26.369086520936392 0 0,0 -0.43674565392113857,0.11903697009786354 l -1.3673512789589526 -5.192055522548865" fill="#ff4406" stroke="none" /><path d="M 105.3480935250658 120.30758222061773 l 0.17768317153067895 0.6746919436183547 a21.697696587514024,21.697696587514024 0 0,0 -0.3610028731847028,0.09176551867279577 l -0.1660750051205788 -0.6776426941264205" fill="#ff0200" stroke="none" /><path d="M 104.9986988182912 120.39639698878246 l 1.6905898971258413 6.898183695490411 a28.10232585122604,28.10232585122604 0 0,0 -0.4695334545866571,0.11080861680913784 l -1.571924288799305 -6.926188455945774" fill="#ff5c08" stroke="none" /><path d="M 104.29559338865022 120.5559693870025 l 1.1045196483647486 5.285526358038945 a26.399699300437778,26.399699300437778 0 0,0 -0.4443993563633641,0.08889231740252329 l -1.0136238064704257 -5.30370807210433" fill="#ff4406" stroke="none" /><path d="M 103.94208987418118 120.62667999033965 l 0.352166853112161 1.842685787030244 a22.876036354166462,22.876036354166462 0 0,0 -0.3863493108974358,0.07040571441820426 l -0.3204828086636681 -1.848459675379812" fill="#ff1302" stroke="none" /><path d="M 103.2317021107853 120.74984581791261 l 0.49643759307005547 3.1874854678100726 a24.225912877204465,24.225912877204465 0 0,0 -0.4114654722397293,0.06047125482751626 l -0.4416470152226407 -3.1955377959364712" fill="#ff2603" stroke="none" /><path d="M 102.875027216393 120.80226474461374 l 0.7190375439110717 5.202597479588647 a26.25205060182933,26.25205060182933 0 0,0 -0.44693763385712393,0.0578650247059594 l -0.6296220881631723 -5.2141741004950015" fill="#ff4206" stroke="none" /><path d="M 102.51750503828377 120.84855314841334 l 0.8944085953928455 7.406986224010732 a28.460791624097094,28.460791624097094 0 0,0 -0.48554665956831755,0.05440651595804532 l -0.7671260342237286 -7.421248500475747" fill="#ff6108" stroke="none" /><path d="M 101.80034050326958 120.92268563240118 l 0.24307163499640122 2.8248608504598764 a23.835299392339497,23.835299392339497 0 0,0 -0.40795931525818074,0.031578631116015506 l -0.19454332496298463 -2.8286172485709455" fill="#ff2003" stroke="none" /><path d="M 101.44090949804482 120.95050786540614 l 0.06276569955364045 0.9125994963323943 a21.914755362786465,21.914755362786465 0 0,0 -0.3755308804254313,0.022591005240955093 l -0.047090466995744006 -0.9135424793980412" fill="#ff0500" stroke="none" /><path d="M 101.08105385017728 120.97215588758144 l 0.8467418196628649 16.426565092563937 a37.44837415823844,37.44837415823844 0 0,0 -0.6422828418656704,0.02758238880268736 l -0.5646332171963648 -16.438680049792456" fill="#ffd614" stroke="none" /><path d="M 100.72087961077811 120.9876233191556 l 0.37542440195794874 10.930071839052134 a31.936517447909367,31.936517447909367 0 0,0 -0.548071223008282,0.014116370562224333 l -0.18773986487892289 -10.934905926964404" fill="#ff8f0d" stroke="none" /><line stroke="#e1ed5e" stroke-width="0.3" x1="101.45913802915013" x2="101.54496967792366" y1="184.9874750549273" y2="189.98673829345242" /><path d="M 101.47630435890484 185.9873277026323 a86.0,86.0 0 0,1 -42.54439059252881,-10.42667462771756" fill="none" id="id139" stroke="none" /><text fill="#e1ed5e" style="font-size:6.75px; font-family:Arial;" text-anchor="middle"><textPath startOffset="22.145653131862474" xlink:href="#id139">July</textPath></text><path d="M 100.36049292484886 120.99690560180557 l 0.3483289499999024 20.288415048895892 a41.29140503399588,41.29140503399588 0 0,0 -0.7088218748487521,0.006084383294422735 l -2.4849804225085543e-15 -20.29140503399588" fill="#f9ff18" stroke="none" /><path d="M 100.0 121.0 l 8.145075766068855e-16 6.650959094279081 a27.65095909427908,27.65095909427908 0 0,0 -0.4746654818463159,-0.004074432280749084 l 0.11417255699746293 -6.649979060192766" fill="#ff5607" stroke="none" /><path d="M 99.27912038922189 120.98762331915562 l -0.3870120854781169 11.267434601470162 a32.274079157639136,32.274079157639136 0 0,0 -0.553537710138619,-0.02377129099953214 l 0.5803755562175746 -11.259130742044801" fill="#ff940d" stroke="none" /><path d="M 98.91894614982273 120.97215588758144 l -0.15042487228593218 2.9182023360194296 a23.92207674713576,23.92207674713576 0 0,0 -0.4099283060084704,-0.02466026894768671 l 0.20049753042684892 -2.915190089247051" fill="#ff2203" stroke="none" /><path d="M 97.84075906011543 120.88869738790638 l -0.5520625554150075 5.340704432861886 a26.369161657491972,26.369161657491972 0 0,0 -0.4498630441316255,-0.050408092419464715 l 0.6436615011474323 -5.33044057993545" fill="#ff4406" stroke="none" /><path d="M 97.12497278360702 120.80226474461374 l -0.49909354484313045 3.611192267313631 a24.645518338729055,24.645518338729055 0 0,0 -0.418592269081431,-0.061518648538518454 l 0.5610109195322464 -3.6020925454762303" fill="#ff2c04" stroke="none" /><path d="M 96.41257539226777 120.69131181640829 l -1.3313793069360618 7.679042042124457 a28.79360363013494,28.79360363013494 0 0,0 -0.48629005254795504,-0.08861824674819387 l 1.463004093035074 -7.655055621444897" fill="#ff6509" stroke="none" /><path d="M 96.05791012581884 120.62667999033965 l -3.8189083284698273 19.982142091611244 a41.343796680821356,41.343796680821356 0 0,0 -0.6959608299125647,-0.1392116575023268 l 4.16136564391335 -19.913641037446055" fill="#f8ff18" stroke="none" /><path d="M 95.70440661134978 120.55596938700252 l -4.464847488034976 21.3659115232323 a42.82743774037628,42.82743774037628 0 0,0 -0.7183539605745016,-0.15656190224750619 l 4.830963865228614 -21.28611816285107" fill="#e7ff1a" stroke="none" /><path d="M 95.00130118170881 120.39639698878247 l -1.2268343878268968 5.005902960595141 a26.154045698870917,26.154045698870917 0 0,0 -0.435146910853669,-0.11061264311024557 l 1.3125865919059445 -4.984105085649633" fill="#ff4106" stroke="none" /><path d="M 94.30408787586889 120.21278271476187 l -2.977960568376368 10.5677314870623 a31.979307716311283,31.979307716311283 0 0,0 -0.5271103417604178,-0.15343413829802716 l 3.1589309225183926 -10.515053654461758" fill="#ff900d" stroke="none" /><path d="M 93.61358852112213 120.00534299687104 l -1.223887827246621 3.8338111871967753 a25.024426621614264,25.024426621614264 0 0,0 -0.4081093867288276,-0.13415366150019317 l 1.2895199516231919 -3.8122366042945606" fill="#ff3104" stroke="none" /><path d="M 93.27111125876986 119.89276391827306 l -4.631001739847609 13.690733768776639 a35.45276334276572,35.45276334276572 0 0,0 -0.5748314896793126,-0.19995623143295194 l 4.865339001571944 -13.609219104775097" fill="#ffbd11" stroke="none" /><path d="M 92.93061703081489 119.77432235084164 l -3.0071794552265225 8.411616144390631 a29.93299582651361,29.93299582651361 0 0,0 -0.48236431005639,-0.17713085609458987 l 3.1511329169370317 -8.358754439287322" fill="#ff750a" stroke="none" /><path d="M 92.25597844496254 119.51999308798841 l -1.379585961143828 3.4774578343336096 a24.741118871908956,24.741118871908956 0 0,0 -0.39343744154433274,-0.16000758234722975 l 1.4390778638786015 -3.453262995407089" fill="#ff2d04" stroke="none" /><path d="M 91.92203290615298 119.3841803445677 l -4.6095154126390625 11.061158955168198 a32.983191134704256,32.983191134704256 0 0,0 -0.5207652042484533,-0.2222836990804697 l 4.7987156920579475 -10.980400606428324" fill="#ff9d0e" stroke="none" /><path d="M 91.59046798132341 119.24265499422711 l -6.29553100424106 14.405406965694041 a36.72098789747727,36.72098789747727 0 0,0 -0.5754469024266763,-0.257390080066346 l 6.541891309523372 -14.29521313471784" fill="#ffcd13" stroke="none" /><path d="M 90.6110303473126 118.78422872680471 l -7.508770137141769 15.022570199989959 a37.79461950703434,37.79461950703434 0 0,0 -0.5778487375905501,-0.2950536827489995 l 7.7655460964459015 -14.891458565568122" fill="#ffda14" stroke="none" /><path d="M 89.97174638481275 118.45085714620012 l -9.234861901939444 16.991105755395175 a40.33857153822163,40.33857153822163 0 0,0 -0.6055699580431044,-0.3358994476419141 l 9.52517604813865 -16.830073392320113" fill="#fffa17" stroke="none" /><line stroke="#e1ed5e" stroke-width="0.3" x1="58.13341422392154" x2="55.67067388415222" y1="173.97424548756322" y2="178.32567169271397" /><path d="M 57.64086615596768 174.84453072859336 a86.0,86.0 0 0,1 -31.369924170532247,-30.572349798747897" fill="none" id="id140" stroke="none" /><text fill="#e1ed5e" style="font-size:6.75px; font-family:Arial;" text-anchor="middle"><textPath startOffset="22.145653131862474" xlink:href="#id140">August</textPath></text><path d="M 89.65649057296885 118.27599006163327 l -18.24162943738815 32.23121133669158 a58.035226862562375,58.035226862562375 0 0,0 -0.8628111883772589,-0.4981442718694351 l 18.792233093625807 -31.913320167545976" fill="#42ff2d" stroke="none" /><path d="M 89.34428304082925 118.09573695890944 l -1.0940716292027326 1.8579728132905355 a23.156166900950172,23.156166900950172 0 0,0 -0.340800603465372,-0.20464097038428167 l 1.1258049892255317 -1.8389178423703352" fill="#ff1702" stroke="none" /><path d="M 89.03521579738668 117.91015095944536 l -0.3761603734973434 0.6144297005583625 a21.720430762473327,21.720430762473327 0 0,0 -0.3163279459668456,-0.1974120337970384 l 0.38665244825390155 -0.6078818699197764" fill="#ff0200" stroke="none" /><path d="M 88.72937992617639 117.7192867562869 l -3.6820957926998634 5.78886616597946 a27.86067058779532,27.86067058779532 0 0,0 -0.40134538798869657,-0.26014723157686087 l 3.78092681294557 -5.724805092698705" fill="#ff5908" stroke="none" /><path d="M 88.4268655584334 117.5232005979908 l -1.5267528646402524 2.3116984293000855 a23.77036530762925,23.77036530762925 0 0,0 -0.33856211889533666,-0.22779970314008027 l 1.5662112716325947 -2.2851490521028843" fill="#ff1f03" stroke="none" /><path d="M 88.1277618465304 117.32195027204791 l -4.347316055679281 6.342864046350422 a28.689673673079483,28.689673673079483 0 0,0 -0.4038480176373849,-0.2819172807285265 l 4.455559164490431 -6.2673019498167655" fill="#ff6409" stroke="none" /><path d="M 87.83215693770417 117.11559508785305 l -2.1102254030309595 2.968296300130346 a24.641954719235905,24.641954719235905 0 0,0 -0.34266279616771655,-0.24806143902411054 l 2.1608692095726303 -2.93163408973317" fill="#ff2c04" stroke="none" /><path d="M 87.54013794807813 116.9041958592261 l -1.6764062278509868 2.2743670112181116 a23.825435035971413,23.825435035971413 0 0,0 -0.3271425228820507,-0.24549384804483404 l 1.715201739643804 -2.2452541359092626" fill="#ff2003" stroke="none" /><path d="M 87.2517909369889 116.68781488649013 l -3.3006367270993664 4.32063942763541 a26.437106571322182,26.437106571322182 0 0,0 -0.3582732201341404,-0.27859542297250556 l 3.374319891868735 -4.263342953042111" fill="#ff4506" stroke="none" /><path d="M 86.96720088162412 116.46651593811092 l -18.670755775131703 23.58988999640896 a51.08454804808092,51.08454804808092 0 0,0 -0.6829498814880157,-0.5501360810412379 l 19.07295642697498 -23.265905621574312" fill="#8aff24" stroke="none" /><path d="M 86.68645165197938 116.24036423190432 l -6.032865641635497 7.359115152563231 a30.515883757103794,30.515883757103794 0 0,0 -0.4022657066523115,-0.33558435956498966 l 6.158305682449701 -7.254468609086371" fill="#ff7d0b" stroke="none" /><path d="M 86.40962598614128 116.0094264158162 l -6.463218346674222 7.613654960850868 a30.98703826265201,30.98703826265201 0 0,0 -0.40256666187737167,-0.34772749448257634 l 6.592964488314457 -7.501583333903569" fill="#ff830c" stroke="none" /><path d="M 86.13680546590413 115.77377054828092 l -1.4197843244951494 1.615453935061808 a23.1506926661866,23.1506926661866 0 0,0 -0.296257179650859,-0.2649149968562209 l 1.4473065309693791 -1.590843408322205" fill="#ff1702" stroke="none" /><path d="M 85.60350026404147 115.28858382429668 l -3.333530262637183 3.5400936189969685 a25.86258026598852,25.86258026598852 0 0,0 -0.3206067252263603,-0.3071339903493218 l 3.393809473728858 -3.482347498342064" fill="#ff3d05" stroke="none" /><path d="M 85.34317274990678 115.03919595460226 l -2.0599883212168715 2.1137294926346124 a23.9515088093352,23.9515088093352 0 0,0 -0.2919895133461044,-0.28949389147588733 l 2.095969754692938 -2.0780555909300658" fill="#ff2203" stroke="none" /><path d="M 85.08716467003676 114.78537596483092 l -1.5994514580172827 1.5857810148796694 a23.252320224503258,23.252320224503258 0 0,0 -0.278599555826333,-0.2858676875591027 l 1.6264378149944252 -1.5580906352528294" fill="#ff1802" stroke="none" /><path d="M 84.83555147118756 114.52719865689866 l -17.188283996946517 16.46598725436068 a44.80264361411262,44.80264361411262 0 0,0 -0.5272720001153168,-0.5599445920755861 l 17.468411830798086 -16.168501202340604" fill="#d0ff1d" stroke="none" /><path d="M 84.58840730492382 114.26474011684316 l -8.309507138107206 7.691155753293571 a32.32262273943963,32.32262273943963 0 0,0 -0.3734067900670757,-0.41043947352541077 l 8.440311629016161 -7.5473787042104865" fill="#ff940d" stroke="none" /><path d="M 84.3458050057657 113.99807769240083 l -1.9920106011403622 1.7812681628866327 a23.672269167424776,23.672269167424776 0 0,0 -0.26827324537339226,-0.3052457069945117 l 2.022294910472347 -1.746810178080821" fill="#ff1e03" stroke="none" /><path d="M 83.8745106332314 113.45245675266167 l -3.9340149888237717 3.2818952217683752 a26.123212876599624,26.123212876599624 0 0,0 -0.28431159022158214,-0.34681391165240305 l 3.9897733982839836 -3.2138790284174767" fill="#ff4106" stroke="none" /><path d="M 83.4222238831116 112.89097897827486 l -2.2012918840055584 1.7117378833976515 a23.788500052007784,23.788500052007784 0 0,0 -0.24790791419472152,-0.32451941763184283 l 2.230351775554575 -1.6736975525249385" fill="#ff2003" stroke="none" /><path d="M 83.20337586046588 112.60449989151573 l -1.7092535429834754 1.2826557240391794 a23.136996345484015,23.136996345484015 0 0,0 -0.23566460910453937,-0.3197243029489738 l 1.7310201716718452 -1.2531251118213258" fill="#ff1602" stroke="none" /><path d="M 82.78059297857968 112.02048342749411 l -0.8131400543818984 0.5676349095976618 a21.991668361214646,21.991668361214646 0 0,0 -0.21343465316996416,-0.31140753754686523 l 0.8227644443671875 -0.5535926369807456" fill="#ff0600" stroke="none" /><path d="M 82.576782715395 111.72311816256416 l -2.3951562420517405 1.6115680120792486 a23.886853803259957,23.886853803259957 0 0,0 -0.22598733722767836,-0.34217363177112964 l 2.4224680182001457 -1.5702145019690579" fill="#ff2103" stroke="none" /><path d="M 82.37810715431573 111.42229804090323 l -3.2483319058698656 2.1055294961521507 a24.871035343400894,24.871035343400894 0 0,0 -0.2291478728521563,-0.3602585165736187 l 3.2839974703479116 -2.04945730489986" fill="#ff2f04" stroke="none" /><path d="M 82.18462484594161 111.11811171558189 l -2.321513212855403 1.44879594319663 a23.736500188650684,23.736500188650684 0 0,0 -0.21276046415306615,-0.3475282286244064 l 2.346041641463874 -1.4087305984476666" fill="#ff1f03" stroke="none" /><line stroke="#e1ed5e" stroke-width="0.3" x1="26.387840678322732" x2="22.057713659400548" y1="142.50000000000003" y2="145.00000000000006" /><path d="M 25.521815274538298 143.00000000000003 a86.0,86.0 0 0,1 -11.493303480769221,-40.785679425670985" fill="none" id="id141" stroke="none" /><text fill="#e1ed5e" style="font-size:6.75px; font-family:Arial;" text-anchor="middle"><textPath startOffset="21.40746469413373" xlink:href="#id141">September</textPath></text><path d="M 81.29705330413844 109.54985784667822 l -2.1511031875922337 1.0983686148016327 a23.415296780449708,23.415296780449708 0 0,0 -0.17971807463075332,-0.3595565376269749 l 2.169641175434724 -1.0612802210109051" fill="#ff1a02" stroke="none" /><path d="M 81.1358732173502 109.22738970284198 l -2.4124624543615654 1.180056276463482 a23.685611272936775,23.685611272936775 0 0,0 -0.17552249533178546,-0.3667745079478505 l 2.4323642076532628 -1.138469266450527" fill="#ff1e03" stroke="none" /><path d="M 80.9802524753101 108.90220220490708 l -10.210861791010101 4.779198894829367 a32.273971819702595,32.273971819702595 0 0,0 -0.2305522454183583,-0.503798264294817 l 10.291398501283515 -4.603211648319861" fill="#ff940d" stroke="none" /><path d="M 80.68587082218212 108.24405325689762 l -9.375024753738318 4.001640593939748 a31.193341776683084,31.193341776683084 0 0,0 -0.20598620604601384,-0.49429190786510824 l 9.442336804320817 -3.8401161766333587" fill="#ff860c" stroke="none" /><path d="M 80.5471966667186 107.91128576633889 l -8.54014150530401 3.4732012027201606 a30.219389541894465,30.219389541894465 0 0,0 -0.19130503273401392,-0.4822136521864694 l 8.598505213004149 -3.326086533320126" fill="#ff790b" stroke="none" /><path d="M 80.41425534168474 107.57618678355246 l -5.68571261243831 2.1993557815094076 a27.096268839618126,27.096268839618126 0 0,0 -0.16408637997687828,-0.4352586175233421 l 5.722629676229625 -2.1014288837919204" fill="#ff4e07" stroke="none" /><path d="M 80.16572619554312 106.89939002012753 l -2.5439214873541527 0.8849079474689558 a23.693436208510587,23.693436208510587 0 0,0 -0.13033034738705276,-0.38529851386474445 l 2.558737256313573 -0.8411077591300498" fill="#ff1e03" stroke="none" /><path d="M 80.05021161711548 106.5578916946017 l -4.767080244213877 1.5670339625181449 a26.018032432583468,26.018032432583468 0 0,0 -0.1358330657458519,-0.425495143798612 l 4.793278025736983 -1.4849697850281411" fill="#ff3f05" stroke="none" /><path d="M 79.94057633289273 106.21446072829308 l -11.406592626788381 3.533791553495622 a32.94144204428678,32.94144204428678 0 0,0 -0.16270512348669436,-0.5415924391137025 l 11.465574070278706 -3.3374615107911962" fill="#ff9d0e" stroke="none" /><path d="M 79.83685265289637 105.86919833188381 l -3.8044322095012886 1.1074147697967134 a24.96233162532552,24.96233162532552 0 0,0 -0.11623116322185015,-0.41246339404255283 l 3.8228818647977136 -1.041943451851165" fill="#ff3004" stroke="none" /><path d="M 79.73907114497094 105.5222062557868 l -2.8754138599881998 0.7837068339372606 a23.98030221081222,23.98030221081222 0 0,0 -0.10484019030638515,-0.3980952791295772 l 2.8884435310993175 -0.7342310504348808" fill="#ff2203" stroke="none" /><path d="M 79.64726062577567 105.17358676015961 l -13.135783060292283 3.3390646868462146 a34.553529045603035,34.553529045603035 0 0,0 -0.14119637119020437,-0.5761293778358454 l 13.191166957998782 -3.1130794844022693" fill="#ffb110" stroke="none" /><path d="M 79.56144815229197 104.8234425847677 l -6.270447132564897 1.4798084497429662 a27.442696662906148,27.442696662906148 0 0,0 -0.1042680534889326,-0.45942428241923144 l 6.294926047611495 -1.3719498333847084" fill="#ff5307" stroke="none" /><path d="M 79.48165901384964 104.47187691870673 l -5.538198381921876 1.2070245607114263 a26.668205148694135,26.668205148694135 0 0,0 -0.09364640456524347,-0.44813194622475766 l 5.558102497311486 -1.1117761632012595" fill="#ff4806" stroke="none" /><path d="M 79.34024301695615 103.76489593502545 l -4.556679795405939 0.8303788497133086 a25.63172319897378,25.63172319897378 0 0,0 -0.07516830243796818,-0.43355079326316004 l 4.5702629153361425 -0.7520350235295558" fill="#ff3a05" stroke="none" /><path d="M 79.2786578344484 103.40968896794605 l -6.48448750852914 1.0670199518915757 a27.571690028143838,27.571690028143838 0 0,0 -0.07283982009464898,-0.4676838967689346 l 6.501848820762056 -0.955547873191191" fill="#ff5507" stroke="none" /><path d="M 79.22317932658666 103.0534771498775 l -12.962848891127518 1.905092386778058 a34.102092518997324,34.102092518997324 0 0,0 -0.08014882203590394,-0.5799169501607779 l 12.993642229718635 -1.6822871284171945" fill="#ffac0f" stroke="none" /><path d="M 79.0935383218832 101.97986365728391 l -7.838083136573937 0.7422746222578631 a28.873151774905192,28.873151774905192 0 0,0 -0.042493548698124516,-0.49383944826066634 l 7.849670307969802 -0.6076141266215348" fill="#ff6609" stroke="none" /><path d="M 79.03789590574601 101.26102812881392 l -5.431302143055792 0.32673364981324005 a26.4411210101488,26.4411210101488 0 0,0 -0.02336691328260873,-0.45331187516155796 l 5.436110645794973 -0.23344998127495126" fill="#ff4506" stroke="none" /><path d="M 79.01933749520258 100.90099992219065 l -2.7111491251012247 0.11642840878856392 a23.713647941961185,23.713647941961185 0 0,0 -0.013974467415634179,-0.4068513713247889 l 2.712748279513707 -0.06987077289965518" fill="#ff1f03" stroke="none" /><path d="M 79.00696218219943 100.54070618675478 l -7.974517546988416 0.20539528444925428 a28.97716223541305,28.97716223541305 0 0,0 -0.008539388122400252,-0.49737654734379727 l 7.976868366709482 -0.06847182113640464" fill="#ff6809" stroke="none" /><line stroke="#e1ed5e" stroke-width="0.3" x1="15.003131293944662" x2="10.003315487706104" y1="100.72959589197737" y2="100.7725132973878" /><path d="M 14.003168132696942 100.73817937305945 a86.0,86.0 0 0,1 10.791469493833604,-42.45332614584628" fill="none" id="id142" stroke="none" /><text fill="#e1ed5e" style="font-size:6.75px; font-family:Arial;" text-anchor="middle"><textPath startOffset="22.145653131862435" xlink:href="#id142">October</textPath></text><path d="M 79.00077361379809 100.18025310272382 l -4.5881198761142885 0.0393834909976423 a25.58828890295262,25.58828890295262 0 0,0 0.0,-0.439273187442918 l 4.5881198761142885 0.039383490997640616" fill="#ff3905" stroke="none" /><path d="M 79.00696218219943 99.45929381324524 l -0.807380441193169 -0.020795256189543358 a21.807648202809407,21.807648202809407 0 0,0 0.012851260589158945,-0.3741504300981596 l 0.8069044936071595 0.03465195085184152" fill="#ff0300" stroke="none" /><path d="M 79.06263194458094 98.37931529534042 l -5.354266610906545 -0.41445409843286407 a26.370283338928818,26.370283338928818 0 0,0 0.038809996497159625,-0.45103098809919007 l 5.346362991711642 0.5063061339077348" fill="#ff4406" stroke="none" /><path d="M 79.0935383218832 98.0201363427161 l -35.553297064459 -3.3669341966278408 a56.71236729815165,56.71236729815165 0 0,0 0.10010437011636256,-0.9684189735117908 l 35.49026030186098 3.9767576924225443" fill="#4fff2b" stroke="none" /><path d="M 79.13060592940154 97.66154086499901 l -7.168504637331026 -0.8032458966827587 a28.213366946577313,28.213366946577313 0 0,0 0.05806299328673826,-0.4808448774028259 l 7.153659557784619 0.9261844510090209" fill="#ff5d08" stroke="none" /><path d="M 79.17382384314186 97.30363454192245 l -3.891478431379091 -0.5038297930544048 a24.923958313012246,24.923958313012246 0 0,0 0.05857781009031262,-0.4238398533100385 l 3.88225610473357 0.5705579545645102" fill="#ff3004" stroke="none" /><path d="M 79.2786578344484 96.59031103205396 l -5.300071334971334 -0.8721247212558503 a26.37134598450057,26.37134598450057 0 0,0 0.07733734073480482,-0.44606122975981694 l 5.284319176744295 0.9629789839362598" fill="#ff4406" stroke="none" /><path d="M 79.34024301695615 96.23510406497455 l -4.459132865020878 -0.81260254953793 a25.532569780094384,25.532569780094384 0 0,0 0.08228017450397529,-0.43052464129711093 l 4.4445263982347445 0.8890297558683554" fill="#ff3805" stroke="none" /><path d="M 79.407916724674 95.88100663000787 l -12.468352668838877 -2.49401973034989 a33.715343199847815,33.715343199847815 0 0,0 0.11839269466185218,-0.566551902594888 l 12.423702263352657 2.7076880842301874" fill="#ffa70f" stroke="none" /><path d="M 79.56144815229197 95.17655741523228 l -13.374754130959818 -3.1564055573391263 a34.74215936838269,34.74215936838269 0 0,0 0.14196717283647053,-0.5792745115893198 l 13.31859943160705 3.385535893536564" fill="#ffb410" stroke="none" /><path d="M 79.73907114497095 94.47779374421319 l -5.182033129382309 -1.4123861728909102 a26.37106153896874,26.37106153896874 0 0,0 0.12279057918449315,-0.4357404472518173 l 5.157024058123234 1.5011345440457406" fill="#ff4406" stroke="none" /><path d="M 79.83685265289637 94.1308016681162 l -10.311116044844805 -3.0014156048389244 a31.7390693136429,31.7390693136429 0 0,0 0.15676633661290065,-0.5218241490965942 l 10.258073388228276 3.177977357526242" fill="#ff8d0d" stroke="none" /><path d="M 79.94057633289273 93.78553927170692 l -6.96592669410222 -2.158061896247359 a28.292555509260154,28.292555509260154 0 0,0 0.14770773164978407,-0.4626923656135788 l 6.927854246675179 2.2773232955523297" fill="#ff5e08" stroke="none" /><path d="M 80.41425534168474 92.42381321644754 l -6.734636896586172 -2.6051022280778464 a28.220934271103427,28.220934271103427 0 0,0 0.17865373312829533,-0.45032411273948086 l 6.688924488491745 2.72032735803091" fill="#ff5d08" stroke="none" /><path d="M 80.5471966667186 92.08871423366112 l -15.162671809403669 -6.166526623963359 a37.36864890587289,37.36864890587289 0 0,0 0.24676503942070324,-0.592146262951323 l 15.054580925446487 6.4259053963559465" fill="#ffd513" stroke="none" /><path d="M 80.9802524753101 91.09779779509293 l -4.81811810244432 -2.2551225529888734 a26.31975937219915,26.31975937219915 0 0,0 0.1950428801818275,-0.40756460459497207 l 4.778695964302587 2.3374996596489326" fill="#ff4306" stroke="none" /><path d="M 81.1358732173502 90.77261029715801 l -5.017327760207064 -2.4542264290176 a26.585410031343528,26.585410031343528 0 0,0 0.20404946172158675,-0.40823561075868714 l 4.974458385273733 2.539993895940057" fill="#ff4706" stroke="none" /><path d="M 81.29705330413844 90.45014215332179 l -6.4535055365003355 -3.295205909984552 a28.246110384119028,28.246110384119028 0 0,0 0.22420946113694296,-0.42995120485566773 l 6.395988006388452 3.405503357944706" fill="#ff5e08" stroke="none" /><path d="M 81.63589988554816 89.8137432299009 l -9.489130126599944 -5.2634605230867475 a31.85115695387544,31.85115695387544 0 0,0 0.26931917907028025,-0.4758611837518678 l 9.397377582508296 5.42557847693772" fill="#ff8e0d" stroke="none" /><line stroke="#e1ed5e" stroke-width="0.3" x1="26.387840678322718" x2="22.05771365940052" y1="57.49999999999999" y2="54.99999999999999" /><path d="M 25.521815274538284 56.99999999999999 a86.0,86.0 0 0,1 29.574782752854787,-30.34633250058573" fill="none" id="id143" stroke="none" /><text fill="#e1ed5e" style="font-size:6.75px; font-family:Arial;" text-anchor="middle"><textPath startOffset="21.40746469413373" xlink:href="#id143">November</textPath></text><path d="M 81.99639281039701 89.18935116829357 l -4.607537718414382 -2.7666940145964243 a26.374383648104672,26.374383648104672 0 0,0 0.23640494858653047,-0.38614971699447415 l 4.559364805372458 2.8453808477154414" fill="#ff4406" stroke="none" /><path d="M 82.18462484594161 88.88188828441811 l -5.6966665635186375 -3.5551412592730074 a27.714986173425565,27.714986173425565 0 0,0 0.25535045244718674,-0.40145332382979704 l 5.634798419445561 3.6524082577814765" fill="#ff5708" stroke="none" /><path d="M 82.37810715431573 88.57770195909679 l -4.540585062855086 -2.9431523799502552 a26.41101271894916,26.41101271894916 0 0,0 0.2498677509813803,-0.3783316218715663 l 4.489392872952976 3.0206638801608823" fill="#ff4506" stroke="none" /><path d="M 82.576782715395 88.27688183743585 l -4.073243938077216 -2.740660304639592 a25.9094332752885,25.9094332752885 0 0,0 0.2514575435620299,-0.3668840709567344 l 4.0255966576998725 2.810179110666361" fill="#ff3e05" stroke="none" /><path d="M 82.98947788004972 87.6856937992154 l -5.382181971157948 -3.896284685080265 a27.644465149118375,27.644465149118375 0 0,0 0.2815759650039013,-0.38201187475766396 l 5.3145039865702275 3.9881028691067923" fill="#ff5607" stroke="none" /><path d="M 83.42222388311158 87.10902102172516 l -4.239410561460004 -3.2965912944368396 a26.370299439619302,26.370299439619302 0 0,0 0.2809486294608025,-0.3549694154561043 l 4.18219550135764 3.368880653807627" fill="#ff4406" stroke="none" /><path d="M 83.64595745247003 86.82634096563983 l -8.96202423798325 -7.219172337710126 a32.50801145653576,32.50801145653576 0 0,0 0.35380044850563375,-0.43157902002863924 l 8.836776970238986 7.371953639437258" fill="#ff970d" stroke="none" /><path d="M 84.10781606972428 86.27271002978789 l -5.097117971548466 -4.40276910428454 a27.735353546884145,27.735353546884145 0 0,0 0.31431939435024925,-0.35763777195519214 l 5.020787513239624 4.489619154051033" fill="#ff5708" stroke="none" /><path d="M 84.34580500576568 86.00192230759919 l -5.205251238714714 -4.6545677548306355 a27.98281042578489,27.98281042578489 0 0,0 0.3232711498191248,-0.35533162242144045 l 5.124582388053724 4.743236952809733" fill="#ff5a08" stroke="none" /><path d="M 84.83555147118756 85.47280134310135 l -1.4938948507230367 -1.4311174737239871 a23.068772353018797,23.068772353018797 0 0,0 0.2764003621555709,-0.28361112111451253 l 1.4691076874166633 1.45655128690623" fill="#ff1502" stroke="none" /><path d="M 85.08716467003674 85.21462403516908 l -3.0069469408862983 -2.981246694112842 a25.234331323416274,25.234331323416274 0 0,0 0.30762822423389474,-0.3049989389712278 l 2.955326796522427 3.032425643312743" fill="#ff3404" stroke="none" /><path d="M 85.34317274990677 84.96080404539775 l -1.4032644324772192 -1.439872928570839 a23.010568356929646,23.010568356929646 0 0,0 0.2852516218660035,-0.27326460109489425 l 1.3783403247459152 1.4637496599713016" fill="#ff1402" stroke="none" /><path d="M 85.60350026404147 84.71141617570332 l -2.7505546761406814 -2.920993748532733 a25.01220083064229,25.01220083064229 0 0,0 0.315118271128779,-0.29166876731417146 l 2.700006633697949 2.96778026197927" fill="#ff3104" stroke="none" /><path d="M 85.86807049272753 84.46653392183569 l -1.3093524129819958 -1.4392076666496112 a22.945693308084497,22.945693308084497 0 0,0 0.29363382265079824,-0.26256917485034464 l 1.2844535635078056 1.4614723713833568" fill="#ff1402" stroke="none" /><path d="M 86.13680546590413 84.22622945171909 l -1.566746650482925 -1.7826700845338088 a23.373311546571845,23.373311546571845 0 0,0 0.3036532864667023,-0.2622884766514278 l 1.535913884253374 1.8093026936499472" fill="#ff1a02" stroke="none" /><path d="M 86.40962598614128 83.9905735841838 l -3.193644873979492 -3.7621056312420316 a25.934856265558146,25.934856265558146 0 0,0 0.341877802577539,-0.2852066222155831 l 3.1285927372400435 3.8163744373694968" fill="#ff3e05" stroke="none" /><path d="M 86.68645165197937 83.75963576809568 l -4.161271040651767 -5.0760740563884035 a27.563741653943005,27.563741653943005 0 0,0 0.3684999635938823,-0.2968374859274843 l 4.073520306702639 5.146759836109286" fill="#ff5407" stroke="none" /><path d="M 86.96720088162412 83.53348406188908 l -3.355101481339199 -4.239061119153982 a26.406139576630213,26.406139576630213 0 0,0 0.35785355828965,-0.27826909138392913 l 3.2818379784143046 4.296031262158716" fill="#ff4406" stroke="none" /><path d="M 87.54013794807813 83.09580414077388 l -3.240873930682512 -4.396867914831124 a26.462207547782207,26.462207547782207 0 0,0 0.36797462435132006,-0.2663852506365064 l 3.164918295957224 4.45185393684071" fill="#ff4506" stroke="none" /><path d="M 88.4268655584334 82.4767994020092 l -3.075845280005769 -4.657221785684905 a26.581266786993062,26.581266786993062 0 0,0 0.3829150055178343,-0.2482008803288104 l 2.9954446422309084 4.709336507717622" fill="#ff4706" stroke="none" /><path d="M 89.03521579738668 82.08984904055464 l -18.579597560670834 -30.34837630439159 a56.58406089570782,56.58406089570782 0 0,0 0.8327752249439379,-0.5000575950031481 l 18.055889579169463 30.66284789993066" fill="#50ff2b" stroke="none" /><line stroke="#e1ed5e" stroke-width="0.3" x1="56.869717070023135" x2="54.33264160355391" y1="26.7553504044142" y2="22.446841604673864" /><path d="M 56.362301976729285 25.89364864446614 a86.0,86.0 0 0,1 42.16139366436587,-11.88097634709845" fill="none" id="id144" stroke="none" /><text fill="#e1ed5e" style="font-size:6.75px; font-family:Arial;" text-anchor="middle"><textPath startOffset="22.145653131862474" xlink:href="#id144">December</textPath></text><path d="M 89.65649057296885 81.72400993836675 l -1.3257321653454512 -2.3424417069628323 a23.691579262208432,23.691579262208432 0 0,0 0.35566228829388397,-0.19727987592223453 l 1.2853256888954647 2.3648544983182127" fill="#ff1e03" stroke="none" /><path d="M 90.61103034731259 81.2157712731953 l -1.46316852708057 -2.927317191900444 a24.272620980290114,24.272620980290114 0 0,0 0.37430664419113385,-0.1830921364190209 l 1.4127016336273832 2.952003078416679" fill="#ff2603" stroke="none" /><path d="M 90.93487009805054 81.0573650232925 l -0.6964919141589573 -1.4554002244693898 a22.613471660697627,22.613471660697627 0 0,0 0.3515977959887743,-0.16456552173621644 l 0.6714054042986605 1.4671419777761492" fill="#ff0f01" stroke="none" /><path d="M 91.26138138417902 80.90454125486306 l -20.340510285114412 -44.44768585062519 a69.88080539572474,69.88080539572474 0 0,0 1.0950874501613221,-0.4898186875071287 l 19.57450943209747 44.790308289042166" fill="#3cffa1" stroke="none" /><path d="M 93.27111125876988 80.10723608172694 l -0.18916465142013167 -0.5592316795678165 a21.590358650973407,21.590358650973407 0 0,0 0.35210509161849296,-0.11574393731077752 l 0.1795368221538777 0.5623965382806225" fill="#ff0000" stroke="none" /><path d="M 93.95794788825049 79.88797359093562 l -0.7238061804755417 -2.409315369600976 a23.51568995249615,23.51568995249615 0 0,0 0.3876057442378371,-0.1128263831209927 l 0.6823404238560803 2.421385447024489" fill="#ff1c02" stroke="none" /><path d="M 94.30408787586887 79.78721728523814 l -0.6931896397978976 -2.459885486996741 a23.55568943454801,23.55568943454801 0 0,0 0.390147947578205,-0.10633655802329811 l 0.650860291285015 2.471422539164179" fill="#ff1c02" stroke="none" /><path d="M 95.00130118170881 79.60360301121753 l -14.996096454873559 -61.18919096634739 a84.0,84.0 0 0,0 1.4034713850403762,-0.33121542541507143 l 13.943492916093277 61.43760253540869" fill="#4dd2ff" stroke="none" /><path d="M 95.70440661134978 79.44403061299748 l -0.735185681311322 -3.5181296252871963 a24.594124934713403,24.594124934713403 0 0,0 0.4140052190338774,-0.08281263869916346 l 0.6746839767464679 3.5302316606492257" fill="#ff2b04" stroke="none" /><path d="M 96.05791012581881 79.37332000966035 l -8.324024031775442 -43.55481113199941 a65.3431048622637,65.3431048622637 0 0,0 1.1035680807893897,-0.20110686610679276 l 7.575121217435015 43.69128617203756" fill="#36ff6e" stroke="none" /><path d="M 96.41257539226777 79.30868818359171 l -0.7060831560558882 -4.072500009833396 a25.133256555472798,25.133256555472798 0 0,0 0.42573641801526235,-0.07005476557270465 l 0.636069234987553 4.084020773901769" fill="#ff3304" stroke="none" /><path d="M 96.76829788921471 79.25015418208739 l -0.7434332097154553 -4.77337450937366 a25.83092094160586,25.83092094160586 0 0,0 0.43872576185254814,-0.0644775786409686 l 0.6613823422552223 4.785433161313514" fill="#ff3c05" stroke="none" /><path d="M 97.12497278360702 79.19773525538626 l -0.09551888942320606 -0.6911271011847756 a21.697696587514024,21.697696587514024 0 0,0 0.36940036875812854,-0.047826273388769866 l 0.08364069877428348 0.6926649707739402" fill="#ff0200" stroke="none" /><path d="M 97.48249496171623 79.15144685158666 l -0.27106856709761384 -2.2448365910129375 a23.261143402886898,23.261143402886898 0 0,0 0.3968396461414186,-0.04446671007843745 l 0.23249301935539599 2.2491590615983457" fill="#ff1802" stroke="none" /><path d="M 98.1996594967304 79.07731436759882 l -0.19149412851050313 -2.2254520430993856 a23.23367562492615,23.23367562492615 0 0,0 0.3976620659492257,-0.03078155889514466 l 0.15326306778606022 2.2284113689895837" fill="#ff1802" stroke="none" /><path d="M 98.5590905019552 79.04949213459386 l -1.380066913443699 -20.065870038417803 a41.1132723614099,41.1132723614099 0 0,0 0.7045163457889908,-0.042381953894247315 l 1.0354062155222243 20.086603970136743" fill="#fbff18" stroke="none" /><path d="M 98.9189461498227 79.02784411241856 l -0.47022446572764837 -9.122229013640371 a30.134340327876505,30.134340327876505 0 0,0 0.516838719399474,-0.022195278431153518 l 0.3135599857273543 9.128956860497354" fill="#ff770b" stroke="none" /><path d="M 99.27912038922189 79.0123766808444 l -0.14606686192423746 -4.252577311998076 a25.255085113446402,25.255085113446402 0 0,0 0.43340935366172567,-0.011163087541508465 l 0.07304419419176787 4.25445811688963" fill="#ff3405" stroke="none" /></svg>