<?xml version="1.0" encoding="utf-8" ?>
<svg baseProfile="full" height="200mm" version="1.1" viewBox="0,0,200,200" width="200mm" xmlns="http://www.w3.org/2000/svg" xmlns:ev="http://www.w3.org/2001/xml-events" xmlns:xlink="http://www.w3.org/1999/xlink"><defs /><rect fill="#1a1a1a" height="200" width="200" x="0" y="0" /><rect fill="#1a1a1a" height="200" width="180" x="10" y="0" /><text alignment-baseline="middle" fill="#e1ed5e" style="dominant-baseline: central; font-size:9.0px; font-family:Arial;" text-anchor="middle" x="100.0" y="100.0">2021</text><line stroke="#e1ed5e" stroke-width="0.3" x1="100.0" x2="100.0" y1="15.0" y2="10.0" /><path d="M 100.0 14.0 a86.0,86.0 0 0,1 42.46469731375804,11.215312516191453" fill="none" id="id97" stroke="none" /><text fill="#e1ed5e" style="font-size:6.75px; font-family:Arial;" text-anchor="middle"><textPath startOffset="22.20632615414155" xlink:href="#id97">January</textPath></text><path d="M 100.72285384407766 79.0124445844662 l 0.215072754855947 -6.244486901318538 a27.24818957383818,27.24818957383818 0 0,0 0.46861587930405196,0.02017958552251982 l -0.3225294665493305 6.239859589271823" fill="#ff4d07" stroke="none" /><path d="M 102.88285421437855 79.19881850522331 l 1.0731216364974865 -7.743089406124495 a28.817098157114085,28.817098157114085 0 0,0 0.49075658071505784,0.07232476301688995 l -1.2062471976412001 7.723470158946636" fill="#ff6209" stroke="none" /><path d="M 103.2404852339499 79.25152402106235 l 1.262596837058458 -8.084270796956531 a29.18227261165712,29.18227261165712 0 0,0 0.495641159003405,0.0817850380528886 l -1.4015672022007382 8.061339495964019" fill="#ff6709" stroke="none" /><path d="M 103.95276090670814 79.375362276772 l 1.2761253446017802 -6.658541597386998 a27.77972507549296,27.77972507549296 0 0,0 0.46886036678681436,0.09404897876811069 l -1.3905521208557199 6.635588662541679" fill="#ff5407" stroke="none" /><path d="M 104.66035177308747 79.52364482259891 l 0.9758422597521981 -4.287593229162155 a25.397240477239723,25.397240477239723 0 0,0 0.42543560078140713,0.10068686143198109 l -1.0495015474961287 4.270160455589306" fill="#ff3304" stroke="none" /><path d="M 105.01212808612495 79.60689891045804 l 1.9717360949496556 -8.022503179342054 a29.26125296130561,29.26125296130561 0 0,0 0.48809318182306394,0.12442581989473495 l -2.1095381654577445 7.987374363278452" fill="#ff6809" stroke="none" /><path d="M 105.36241919743992 79.69619591428918 l 0.8570035968899695 -3.2448849094659704 a24.35614857251021,24.35614857251021 0 0,0 0.4044304960769149,0.11054613202831803 l -0.9127319821905953 3.2296522366113587" fill="#ff2403" stroke="none" /><path d="M 106.40334571778207 80.00007090966166 l 1.3389299290132992 -4.18195499937383 a25.391068317800958,25.391068317800958 0 0,0 0.4151042816722568,0.13685335523672335 l -1.4107170329279735 4.15828791987787" fill="#ff3304" stroke="none" /><path d="M 107.4271985657038 80.35727306442388 l 0.4256057099902438 -1.1256002743974245 a22.203376997494907,22.203376997494907 0 0,0 0.35632913533404426,0.13825016860434586 l -0.44491801032395506 1.1181074019025317" fill="#ff0500" stroke="none" /><path d="M 107.76421540070413 80.48803036053334 l 19.097258813716753 -47.99263221580445 a72.6526673193123,72.6526673193123 0 0,0 1.1580009366286874,0.47237765772276813 l -19.920543619933827 47.6567936718981" fill="#3fffbd" stroke="none" /><path d="M 108.09893153111575 80.62456947434976 l 6.628092689029478 -15.856677997643088 a38.18621103720376,38.18621103720376 0 0,0 0.6042808645766449,0.258721530080278 l -6.900057311396438 15.740236939600019" fill="#ffdd14" stroke="none" /><path d="M 109.08828744355905 81.06846463323043 l 1.3041711700419145 -2.7166793285645614 a24.013504440849307,24.013504440849307 0 0,0 0.3710986748013426,0.182096508061169 l -1.350741111853689 2.6938276603685605" fill="#ff1f03" stroke="none" /><path d="M 109.41281617654863 81.2277094730956 l 1.1550264668904697 -2.3035074727956806 a23.576864920100203,23.576864920100203 0 0,0 0.3612194773132768,0.18503064612047657 l -1.194506431792502 2.2832843013627033" fill="#ff1902" stroke="none" /><path d="M 110.05341064243156 81.56283822128135 l 0.9849405299754972 -1.8063032078815993 a23.057386479588065,23.057386479588065 0 0,0 0.34682252180276296,0.1930063578864605 l -1.0158871408502952 1.7890814524349588" fill="#ff1101" stroke="none" /><line stroke="#e1ed5e" stroke-width="0.3" x1="143.23703022742887" x2="145.7803849466894" y1="26.81831364943548" y2="22.513508569990506" /><path d="M 143.74570117128098 25.957352633546492 a86.0,86.0 0 0,1 28.547481713284135,27.462654790039103" fill="none" id="id98" stroke="none" /><text fill="#e1ed5e" style="font-size:6.75px; font-family:Arial;" text-anchor="middle"><textPath startOffset="19.985693538727396" xlink:href="#id98">February</textPath></text><path d="M 110.68208982089419 81.91981866633111 l 2.5931264239239584 -4.389047157604676 a26.097846565181257,26.097846565181257 0 0,0 0.38480396602913575,0.2318400839315911 l -2.668292456170732 4.34376046421447" fill="#ff3d05" stroke="none" /><path d="M 110.99172775467656 82.1063720568725 l 3.7573353560402643 -6.116632654947098 a28.178493157572515,28.178493157572515 0 0,0 0.4111119342137832,0.25743825548918975 l -3.8620664426263107 6.051050058134964" fill="#ff5a08" stroke="none" /><path d="M 111.2981086023043 82.29822771554956 l 3.9933888982904446 -6.2568048696551175 a28.42258459499987,28.42258459499987 0 0,0 0.41014192117717674,0.26676771437339525 l -4.100497845251901 6.187138231122194" fill="#ff5d08" stroke="none" /><path d="M 111.90073688211348 82.69761687909136 l 1.439600016724601 -2.0930225814564842 a23.540313314266616,23.540313314266616 0 0,0 0.3318835112761298,0.2325056089268967 l -1.4754146675843818 2.067932129765652" fill="#ff1802" stroke="none" /><path d="M 112.19680574252982 82.90503203632743 l 6.04141144397482 -8.467605147632112 a31.401874310507495,31.401874310507495 0 0,0 0.43731548654178853,0.31772829912796346 l -6.186272246870397 8.362357613687474" fill="#ff850c" stroke="none" /><path d="M 112.48926042617603 83.11751280151076 l 3.003281293023146 -4.059716608731949 a26.049851232287622,26.049851232287622 0 0,0 0.3581902255878561,0.2697814518506294 l -3.072717672369385 4.007418567375472" fill="#ff3c05" stroke="none" /><path d="M 113.06298171725822 83.55741782278167 l 3.806010225753327 -4.790685408493196 a27.118527643288743,27.118527643288743 0 0,0 0.3629964741173031,0.29351790402350875 l -3.887910098435121 4.724461407205557" fill="#ff4b07" stroke="none" /><path d="M 113.89432698308785 84.25364557470407 l 7.388312513475539 -8.373128657735101 a32.16675625756039,32.16675625756039 0 0,0 0.412023999902937,0.3699192152798685 l -7.531347500974466 8.244710433685935" fill="#ff8f0d" stroke="none" /><path d="M 114.42810811169701 84.74124197986012 l 5.015391371601134 -5.3041356997815 a28.29986343242308,28.29986343242308 0 0,0 0.3510756489345903,0.3377344961182038 l -5.1059502641481425 5.217018116900994" fill="#ff5b08" stroke="none" /><path d="M 114.68862486808459 84.99185889309783 l 4.9848903481057 -5.093324829158148 a28.126786765293055,28.126786765293055 0 0,0 0.3430988488378875,0.34162547334452253 l -5.07182499711091 5.006763505163507" fill="#ff5908" stroke="none" /><path d="M 114.94478906791727 85.2469230424477 l 4.762363889777058 -4.701272172290388 a27.691940664456347,27.691940664456347 0 0,0 0.331954812983654,0.34210861443151114 l -4.842582966463821 4.618599362308762" fill="#ff5307" stroke="none" /><path d="M 115.19652480421416 85.50635884689758 l 18.412141471869166 -17.560526159206066 a46.44364424700764,46.44364424700764 0 0,0 0.5467803116494667,0.5832671133129286 l -18.711689105489096 17.240989629015083" fill="#bfff1e" stroke="none" /><path d="M 115.68641384162765 86.03803664274999 l 1.1888532307192283 -1.0581593353352359 a22.59156312571907,22.59156312571907 0 0,0 0.2560464684959904,0.2927053755984413 l -1.206891562793067 1.0375384035338466" fill="#ff0b01" stroke="none" /><path d="M 116.38621287248628 86.86637796730983 l 9.976654481195258 -7.996332656386516 a33.78573308765465,33.78573308765465 0 0,0 0.35981149234264065,0.4569240558460199 l -10.112820054131863 7.823416206587457" fill="#ffa50f" stroke="none" /><path d="M 116.60985879189232 87.15038557335679 l 8.673327369726222 -6.7098049353336116 a31.965769007811048,31.965769007811048 0 0,0 0.3329372748212687,0.43810642719610704 l -8.787540584771603 6.5595137322564705" fill="#ff8d0d" stroke="none" /><path d="M 116.82858285166822 87.43820079747576 l 9.931539644627753 -7.413458868603165 a33.39333902180053,33.39333902180053 0 0,0 0.3398764305698295,0.46359106933643235 l -10.057678687711208 7.241405355595239" fill="#ffa00e" stroke="none" /><line stroke="#e1ed5e" stroke-width="0.3" x1="172.23445277983987" x2="176.4835382374775" y1="55.19839476539836" y2="52.563006222186495" /><path d="M 173.08426987136738 54.67131705675599 a86.0,86.0 0 0,1 12.851231095245387,41.99856678651699" fill="none" id="id99" stroke="none" /><text fill="#e1ed5e" style="font-size:6.75px; font-family:Arial;" text-anchor="middle"><textPath startOffset="22.20632615414155" xlink:href="#id99">March</textPath></text><path d="M 117.84615892207809 88.93136811851018 l 6.264749385232172 -3.8855534727497565 a28.371879722931226,28.371879722931226 0 0,0 0.25383942727915254,0.4172452758635097 l -6.330704610797548 3.7771404236791652" fill="#ff5c08" stroke="none" /><path d="M 118.03404312379186 89.2402003453031 l 15.088665250534017 -9.002474599738946 a38.57021251896566,38.57021251896566 0 0,0 0.33526757852193567,0.5730809702763242 l -15.24139250352628 8.741414217108726" fill="#ffe215" stroke="none" /><path d="M 118.3937258080291 89.86733742301442 l 4.377452796381714 -2.41143380059826 a25.997710071544553,25.997710071544553 0 0,0 0.2125522027690831,0.3938269506460756 l -4.4183130983692624 2.3357258666197254" fill="#ff3b05" stroke="none" /><path d="M 118.56541770881063 90.18545643968196 l 1.6472771701137174 -0.8708273519925156 a22.863293415475983,22.863293415475983 0 0,0 0.18093636631164442,0.34951146882539225 l -1.6620229695854782 0.8423431609067785" fill="#ff0f01" stroke="none" /><path d="M 119.04729006885535 91.15688171328212 l 8.17987877794332 -3.7976864605345457 a30.018472114187354,30.018472114187354 0 0,0 0.21355667534095094,0.47054382610375 l -8.244037770247619 3.6563206255887333" fill="#ff730a" stroke="none" /><path d="M 119.196687751892 91.48605970444005 l 6.854523268513191 -3.040055795922185 a28.498428400732305,28.498428400732305 0 0,0 0.19502328171754413,0.4501406227838266 l -6.905837260073416 2.9216160285517554" fill="#ff5e08" stroke="none" /><path d="M 120.08093135843002 93.85539295169968 l 6.388487603632013 -1.954826957803291 a27.680877359801958,27.680877359801958 0 0,0 0.1354967121600873,0.4568275543800315 l -6.421190212903803 1.8445700166767298" fill="#ff5307" stroke="none" /><path d="M 120.28053869075195 94.5502522615342 l 3.909200079537124 -1.050472801414421 a25.04788072556054,25.04788072556054 0 0,0 0.10830664041695434,0.4173496665856994 l -3.9267030518243806 0.9830267092798711" fill="#ff2e04" stroke="none" /><path d="M 120.37134235888165 94.90015583598534 l 3.9691796242015362 -0.9936604660509627 a25.091668120824227,25.091668120824227 0 0,0 0.10128335444700651,0.4198848923789767 l -3.985695778909362 0.9251903420125799" fill="#ff2e04" stroke="none" /><path d="M 120.45610955862082 95.25157060432595 l 6.360646341542865 -1.476482122718211 a27.529764263806857,27.529764263806857 0 0,0 0.10317842724153896,0.4625286580673489 l -6.385119155786442 1.3667752951008982" fill="#ff5107" stroke="none" /><path d="M 120.53481517161879 95.60439243477599 l 7.18241921366453 -1.537442434633092 a28.345125934974018,28.345125934974018 0 0,0 0.09802109537028071,0.4779856725089587 l -7.207819604949807 1.4135811059607213" fill="#ff5c08" stroke="none" /><path d="M 120.73433829027371 96.67025291283417 l 6.085922080628384 -0.977344009584164 a27.163898837955582,27.163898837955582 0 0,0 0.07016578205572098,0.4623048359798578 l -6.101843756123405 0.8724400612122242" fill="#ff4c07" stroke="none" /><path d="M 120.78858239683441 97.02765380044208 l 5.642608414786519 -0.8067787094438018 a26.699993123560013,26.699993123560013 0 0,0 0.06113535688138223,0.45552941919862583 l -5.6556597707257374 0.7095309481805117" fill="#ff4506" stroke="none" /><path d="M 120.94382443527127 98.46500227214037 l 6.450732738386524 -0.47278185161719793 a27.46803490569665,27.46803490569665 0 0,0 0.030501825727187203,0.4718497435719667 l -6.457915155118126 0.361673043792196" fill="#ff5007" stroke="none" /><path d="M 120.98425023603335 99.18683210126433 l 6.955709740616541 -0.26954310067651743 a27.960930360147998,27.960930360147998 0 0,0 0.014497483479320082,0.48110089737581635 l -6.9593189185515065 0.149772055875702" fill="#ff5708" stroke="none" /><line stroke="#e1ed5e" stroke-width="0.3" x1="184.98032266829074" x2="189.97916517819016" y1="98.17113171792111" y2="98.06355123074" /><path d="M 185.9800911702706 98.14961562048488 a86.0,86.0 0 0,1 -9.607161424134198,41.387399972396054" fill="none" id="id100" stroke="none" /><text fill="#e1ed5e" style="font-size:6.75px; font-family:Arial;" text-anchor="middle"><textPath startOffset="21.466115282336823" xlink:href="#id100">April</textPath></text><path d="M 120.95626037817324 101.35467743843564 l 3.901419255109987 0.2521997984087175 a24.909562244351708,24.909562244351708 0 0,0 -0.03134268365050745,0.4276460165330759 l -3.896500012795142 -0.3193189514385636" fill="#ff2c04" stroke="none" /><path d="M 120.89721153311464 102.0752229133903 l 8.829449042467393 0.876819136204121 a29.8728790249356,29.8728790249356 0 0,0 -0.05521887672788101,0.5112582189263105 l -8.813047864238461 -1.028673677015223" fill="#ff710a" stroke="none" /><path d="M 120.8583938346157 102.4346265915055 l 1.6351730043716235 0.19086012613053413 a22.64627407863098,22.64627407863098 0 0,0 -0.04852610260574377,0.3868007830260246 l -1.6316453925190317 -0.21897866344395364" fill="#ff0b01" stroke="none" /><path d="M 120.64145759157962 103.86396538481128 l 7.893643110340246 1.4776458301496642 a29.030755802088663,29.030755802088663 0 0,0 -0.09617483937706839,0.4903934339825507 l -7.8670383379875135 -1.61330299120016" fill="#ff6509" stroke="none" /><path d="M 120.41448212921028 104.9243191809786 l 7.105341499203901 1.7139288280974156 a28.309133317165074,28.309133317165074 0 0,0 -0.11834388606475361,0.4727249973865448 l -7.074786298844086 -1.8359816648813565" fill="#ff5b08" stroke="none" /><path d="M 120.32669344350535 105.2749913415812 l 5.0218931236380175 1.3032342333081623 a26.188239586999536,26.188239586999536 0 0,0 -0.11698900632756419,0.4353596135234559 l -4.998716040968676 -1.3894847800071664" fill="#ff3e05" stroke="none" /><path d="M 120.23288151984713 105.62410040840565 l 6.783861170997926 1.8856986013065427 a28.041067504458596,28.041067504458596 0 0,0 -0.13327166697709036,0.463936156347406 l -6.750396867134736 -2.0021922331585307" fill="#ff5808" stroke="none" /><path d="M 120.13307415673323 105.97154293290107 l 7.453096300526754 2.21061543781962 a28.77402502432633,28.77402502432633 0 0,0 -0.1449295949910619,0.47363830200103574 l -7.4139399330295594 -2.3385807123727127" fill="#ff6209" stroke="none" /><path d="M 120.02730092923936 106.31721596034902 l 1.6511175720474838 0.5208123808297536 a22.731310131879766,22.731310131879766 0 0,0 -0.12091730887066032,0.3721452108707691 l -1.6419080121605765 -0.5491564916783179" fill="#ff0d01" stroke="none" /><path d="M 119.9155931802556 106.66101706037122 l 1.5830054825763418 0.5294558103625042 a22.6692003513639,22.6692003513639 0 0,0 -0.1269574198335871,0.36899768948732403 l -1.5736572317995239 -0.5566262029391287" fill="#ff0c01" stroke="none" /><path d="M 119.79798401119884 107.00284435728193 l 2.0223178875895114 0.7153242168356995 a23.145101017121597,23.145101017121597 0 0,0 -0.1360884977237032,0.374457098051557 l -2.009705128860581 -0.7500291118933877" fill="#ff1302" stroke="none" /><path d="M 119.26925614724726 108.34839909993367 l 6.140137349542768 2.6602125546872664 a27.691637879276332,27.691637879276332 0 0,0 -0.19325982902862543,0.43574989535471265 l -6.093436435782871 -2.7655107865346666" fill="#ff5307" stroke="none" /><path d="M 119.12269723197855 108.67885076344098 l 5.729001413108637 2.600111672780375 a27.291425744799785,27.291425744799785 0 0,0 -0.19783084480902086,0.426110039860464 l -5.683395951459786 -2.6983417799196694" fill="#ff4d07" stroke="none" /><path d="M 118.81262510543309 109.33194174019688 l 2.2253996625221903 1.1039022934291756 a23.484150545235146,23.484150545235146 0 0,0 -0.18275291052580203,0.3605888302405213 l -2.2060680822101193 -1.1420453353723912" fill="#ff1802" stroke="none" /><path d="M 118.64920377521936 109.65438752849418 l 1.7130468319556207 0.8868163043043528 a22.928982272094075,22.928982272094075 0 0,0 -0.1844663830393422,0.34894087873892754 l -1.6975279406913855 -0.9161721981294146" fill="#ff1001" stroke="none" /><line stroke="#e1ed5e" stroke-width="0.3" x1="174.80103733775053" x2="179.2010983576182" y1="140.37084112569926" y2="142.7455964860345" /><path d="M 175.68104954172406 140.8457921977663 a86.0,86.0 0 0,1 -30.038265399797805,32.042727171017184" fill="none" id="id101" stroke="none" /><text fill="#e1ed5e" style="font-size:6.75px; font-family:Arial;" text-anchor="middle"><textPath startOffset="22.206326154141568" xlink:href="#id101">May</textPath></text><path d="M 118.30583269289576 110.29060199501025 l 13.606148492689465 7.648680132295424 a36.60863813954589,36.60863813954589 0 0,0 -0.3135233568084378,0.5466543995579031 l -13.472473139728649 -7.881754377711642" fill="#ffc912" stroke="none" /><path d="M 118.12598468904814 110.60418214915192 l 6.127969007501338 3.5850245200286768 a28.0996059725948,28.0996059725948 0 0,0 -0.24783735292708922,0.4153896590837073 l -6.065350778876022 -3.689976272998488" fill="#ff5808" stroke="none" /><path d="M 117.94076556474637 110.91462005526583 l 5.316019202235057 3.2341055675409387 a27.222499415872303,27.222499415872303 0 0,0 -0.2469927969210428,0.39823103285536526 l -5.259561765646051 -3.3251329317615776" fill="#ff4c07" stroke="none" /><path d="M 117.75023020441432 111.22182372390056 l 14.16731108221128 8.956676379706895 a37.76110840818548,37.76110840818548 0 0,0 -0.3520686371340328,0.5464183432510463 l -14.011037581700196 -9.199216322879394" fill="#ffd814" stroke="none" /><path d="M 117.35343817320211 111.8261652097733 l 1.322604871845519 0.9013397555909209 a22.600530225281048,22.600530225281048 0 0,0 -0.2218501332521027,0.31959166331445593 l -1.3068938314312801 -0.9239726810923964" fill="#ff0b01" stroke="none" /><path d="M 116.93607887273984 112.41649034213515 l 5.460680890150752 4.003435036144819 a27.771006415053044,27.771006415053044 0 0,0 -0.28596034522826397,0.3830906134050027 l -5.390959278227395 -4.096838529059137" fill="#ff5407" stroke="none" /><path d="M 116.498646956653 112.99209946851258 l 2.035431776872856 1.6028303518452949 a23.59076198349063,23.59076198349063 0 0,0 -0.25397374883069224,0.3168713019153836 l -2.0075401159873096 -1.6376294873389288" fill="#ff1902" stroke="none" /><path d="M 116.27256486870786 113.27417163493432 l 5.2464500317673375 4.279735785826142 a27.770625992647386,27.770625992647386 0 0,0 -0.3053499346267914,0.3678136667980283 l -5.172004097247003 -4.36941070973794" fill="#ff5407" stroke="none" /><path d="M 115.80600337817218 113.82643327865902 l 2.203226051393869 1.9272903635759853 a23.927226191990204,23.927226191990204 0 0,0 -0.2738427175098731,0.30766519610905907 l -2.1697244842356573 -1.9649297294259107" fill="#ff1e03" stroke="none" /><path d="M 115.56566222782051 114.09645910891815 l 0.9301055307635449 0.8423152442530383 a22.254827186929734,22.254827186929734 0 0,0 -0.25959046947013814,0.28173418486944807 l -0.9154686532976847 -0.8582006839238212" fill="#ff0600" stroke="none" /><path d="M 115.32070863581623 114.36230785411682 l 4.018343641851115 3.7669725219484875 a26.507918627314698,26.507918627314698 0 0,0 -0.31493104924259663,0.3302039460531201 l -3.9529060412295536 -3.8355835845841146" fill="#ff4206" stroke="none" /><path d="M 115.07121518719521 114.62390073753431 l 2.409159674579743 2.337655690289516 a24.35688612615384,24.35688612615384 0 0,0 -0.2945552179138822,0.29838288061826373 l -2.368563831610325 -2.378779064888444" fill="#ff2403" stroke="none" /><path d="M 114.0293411484842 115.62618273729858 l 4.974045641366441 5.54019930893571 a28.4454642853974,28.4454642853974 0 0,0 -0.36716002950854815,0.3239760370766626 l -4.877943258951305 -5.624998487784661" fill="#ff5d08" stroke="none" /><path d="M 113.48314897796784 116.09983520530334 l 4.25586177736764 5.081800504031471 a27.628503287381953,27.628503287381953 0 0,0 -0.3672352652909287,0.30220962208486324 l -4.16775638353202 -5.1543052449735125" fill="#ff5207" stroke="none" /><path d="M 113.20401910651253 116.32954008644616 l 4.427356683464712 5.475355485056359 a28.041378053361175,28.041378053361175 0 0,0 -0.3779477119944758,0.3002645204172327 l -4.332451478752885 -5.550753919478717" fill="#ff5808" stroke="none" /><path d="M 112.34349029814194 116.9893568818739 l 7.033598307016025 9.680917545633509 a32.96627217097344,32.96627217097344 0 0,0 -0.4619558572673003,0.329593238471481 l -6.86591512189984 -9.800555045949208" fill="#ff9a0e" stroke="none" /><path d="M 112.04921762599082 117.19931262002967 l 10.960408802927702 15.645123467456438 a40.102367639621306,40.102367639621306 0 0,0 -0.5687721005611086,0.39120663710683873 l -10.689479817743711 -15.83147089392837" fill="#fff517" stroke="none" /><path d="M 111.7513745106137 117.40417183066458 l 2.9288852773480225 4.3377753464693685 a26.233991204072037,26.233991204072037 0 0,0 -0.37642691918191135,0.2494752361012444 l -2.8537836594261474 -4.387548603661932" fill="#ff3f05" stroke="none" /><path d="M 111.1453310114006 117.79835938074945 l 2.699004129463294 4.3101317867703015 a26.08545566396834,26.08545566396834 0 0,0 -0.3826125201783722,0.2350318599838008 l -2.6244124093526127 -4.355952113582481" fill="#ff3c05" stroke="none" /><line stroke="#e1ed5e" stroke-width="0.3" x1="143.8653032363475" x2="146.44561519142675" y1="172.8068346515853" y2="177.08958963109032" /><path d="M 144.38136562736335 173.6633856474863 a86.0,86.0 0 0,1 -40.68145358897372,12.25698825130547" fill="none" id="id102" stroke="none" /><text fill="#e1ed5e" style="font-size:6.75px; font-family:Arial;" text-anchor="middle"><textPath startOffset="21.466115282336833" xlink:href="#id102">June</textPath></text><path d="M 110.5260780823613 118.17145234162733 l 6.814067360700926 11.763308169365068 a34.59437137508096,34.59437137508096 0 0,0 -0.5178468237782226,0.29404694151318467 l -6.610571770001504 -11.878858276672881" fill="#ffaf10" stroke="none" /><path d="M 109.89434966115114 118.52300852407294 l 2.575468686069563 4.821481962868009 a26.466235200865988,26.466235200865988 0 0,0 -0.4036845671767084,0.2111886862359478 l -2.4920932163663587 -4.865100068048673" fill="#ff4206" stroke="none" /><path d="M 109.2508944713604 118.85261126421891 l 5.335021931398108 10.872364274623509 a33.1107705753436,33.1107705753436 0 0,0 -0.5138276515835773,0.24666849801508134 l -5.147081611814298 -10.96258704913815" fill="#ff9c0e" stroke="none" /><path d="M 108.59647513512805 119.15986991738527 l 2.0688869905298306 4.611146427951811 a26.05400482385962,26.05400482385962 0 0,0 -0.41075915902605104,0.180064744218062 l -1.9892071568460257 -4.646075725464327" fill="#ff3c05" stroke="none" /><path d="M 107.93186726928326 119.44442032107085 l 3.0560154841712537 7.491609171530703 a29.090947943131102,29.090947943131102 0 0,0 -0.46528744247909326,0.1851474758008691 l -2.926606965650294 -7.543103491737641" fill="#ff6609" stroke="none" /><path d="M 107.59598834532513 119.57807347666477 l 1.5286401122317383 3.939951863547662 a25.22610474075082,25.22610474075082 0 0,0 -0.4061760584318219,0.15358103019516223 l -1.4605938330396415 -3.965681143849455" fill="#ff3004" stroke="none" /><path d="M 107.2578585660854 119.70592522655815 l 1.504537223574399 4.084992530285914 a25.35325122518936,25.35325122518936 0 0,0 -0.41081978411295955,0.14730535831509511 l -1.4339978788317047 -4.110285429640968" fill="#ff3204" stroke="none" /><path d="M 106.2309692047433 120.05430185196036 l 4.615911131228562 14.856256242931453 a36.55683081887309,36.55683081887309 0 0,0 -0.6025349524555265,0.18153883850526742 l -4.35950120433279 -14.933510450542446" fill="#ffc812" stroke="none" /><path d="M 105.18746579009965 120.34920634021253 l 3.667862776651138 14.388161674647884 a35.84831349763835,35.84831349763835 0 0,0 -0.5992587000400739,0.1472832085781149 l -3.419650791867853 -14.44916614154003" fill="#ffbf11" stroke="none" /><path d="M 104.48393922423573 120.51570834832081 l 0.18371152990743156 0.8405493427371534 a21.860391262041166,21.860391262041166 0 0,0 -0.3683044326192752,0.07718177481229195 l -0.16921563585877833 -0.8435870982759865" fill="#ff0000" stroke="none" /><path d="M 103.7750983002368 120.6578951692458 l 0.620240139448783 3.3940456013258284 a24.450252653714312,24.450252653714312 0 0,0 -0.4146658395423139,0.07209497142088243 l -0.5617253284344191 -3.4042191512677173" fill="#ff2503" stroke="none" /><path d="M 103.06178313531738 120.77559828337769 l 6.821095383563478 46.28425047707611 a67.78417664613102,67.78417664613102 0 0,0 -1.1557893155676608,0.16018186756144917 l -6.023377476808987 -46.39480691013016" fill="#39ff89" stroke="none" /><path d="M 102.70371172650421 120.8252237178851 l 0.6160419855320473 4.745036995827465 a25.78485985371668,25.78485985371668 0 0,0 -0.44064186199820543,0.053355592944484935 l -0.5342727004824616 -4.7549381174973" fill="#ff3805" stroke="none" /><path d="M 101.62511606390274 120.93702456842531 l 0.5321649375507767 6.856095154950121 a27.87671726149105,27.87671726149105 0 0,0 -0.4787324929395461,0.033016195606892 l -0.4140696838323002 -6.864239695073299" fill="#ff5507" stroke="none" /><line stroke="#e1ed5e" stroke-width="0.3" x1="102.19456741930631" x2="102.32365962044197" y1="184.97166512339345" y2="189.96999836594603" /><path d="M 102.22038585953345 185.97133177190398 a86.0,86.0 0 0,1 -42.740103519485714,-10.115201625700543" fill="none" id="id103" stroke="none" /><text fill="#e1ed5e" style="font-size:6.75px; font-family:Arial;" text-anchor="middle"><textPath startOffset="22.20632615414155" xlink:href="#id103">July</textPath></text><path d="M 100.54218724476979 120.99299961872073 l 0.10919020839501845 4.227746088305544 a25.22915588371866,25.22915588371866 0 0,0 -0.43423018696940446,0.0074756664625743865 l -0.036400331532946015 -4.228999232047277" fill="#ff3004" stroke="none" /><path d="M 99.81925306533755 120.99922214144158 l -0.4402438586057191 51.14763689094848 a72.1495315147984,72.1495315147984 0 0,0 -1.24179757356226,-0.02137867138803901 l 1.3206011220606468 -51.13248074228129" fill="#3effb8" stroke="none" /><path d="M 98.01472825383883 120.90594882070398 l -0.9950417844469432 10.478309914163711 a31.52544948256638,31.52544948256638 0 0,0 -0.5397868576803778,-0.05595111485386952 l 1.1752612387329144 -10.459629430854081" fill="#ff870c" stroke="none" /><path d="M 97.65516085044442 120.86867818915974 l -7.034517448666749 62.60603456747922 a84.0,84.0 0 0,0 -1.4354903077944425,-0.17381788509860563 l 8.111135179512582 -62.47567115365527" fill="#4dd2ff" stroke="none" /><path d="M 96.93821686468263 120.77559828337769 l -2.413936199096964 16.379660654491083 a37.55658090094673,37.55658090094673 0 0,0 -0.6387554182525474,-0.09976045966238895 l 2.6955274809580283 -16.335681887481588" fill="#ffd513" stroke="none" /><path d="M 95.86986931433489 120.58985236759428 l -1.2939280905021593 6.450592096320635 a27.579087193259017,27.579087193259017 0 0,0 -0.46465316833135656,-0.09737258916197132 l 1.4047727202629028 -6.4273635264321225" fill="#ff5107" stroke="none" /><path d="M 95.16358092515715 120.4354850818985 l -0.8005507952792276 3.3825943494696453 a24.47603597635096,24.47603597635096 0 0,0 -0.4091539062859529,-0.1005600755000045 l 0.858657986308391 -3.3683130156556107" fill="#ff2603" stroke="none" /><path d="M 93.42475214034765 119.94407469862007 l -2.278620698975664 6.911523702255582 a28.277449565379417,28.277449565379417 0 0,0 -0.4609631838843078,-0.15638373955533974 l 2.3972536157971978 -6.87127697580212" fill="#ff5b08" stroke="none" /><path d="M 93.08242187328487 119.8279376855182 l -0.5435779210366734 1.55806395650449 a22.650163703635787,22.650163703635787 0 0,0 -0.36701941223246687,-0.13160010330133803 l 0.5703168938988669 -1.5484763121631944" fill="#ff0b01" stroke="none" /><path d="M 92.7421414339146 119.70592522655815 l -0.6567386269600801 1.7831213102913925 a22.900217679992664,22.900217679992664 0 0,0 -0.3687259785084469,-0.13942061444409898 l 0.68733482622881 -1.7715524457406604" fill="#ff0f01" stroke="none" /><path d="M 92.06813273071674 119.44442032107085 l -1.4331644868046571 3.5133029493041024 a24.79437189266247,24.79437189266247 0 0,0 -0.39379193666842177,-0.16460506146487258 l 1.4934278829705412 -3.488112844819257" fill="#ff2a04" stroke="none" /><path d="M 91.07499286063937 119.00905698771935 l -3.3008253731929127 7.030311197042809 a28.766641724167506,28.766641724167506 0 0,0 -0.44641352962294595,-0.21430562272453627 l 3.4213515708161006 -6.97245129781871" fill="#ff6209" stroke="none" /><path d="M 90.7491055286396 118.85261126421891 l -2.8719077677797236 5.852727095770211 a27.519376403015578,27.519376403015578 0 0,0 -0.4234656641734159,-0.21233447501953417 l 2.9722273396359 -5.802424779841375" fill="#ff5007" stroke="none" /><path d="M 90.10565033884886 118.52300852407294 l -3.6846949860858604 6.8980417079718 a28.8204831401522,28.8204831401522 0 0,0 -0.4355697095051789,-0.23750733467635224 l 3.8028875074596797 -6.833593721535682" fill="#ff6209" stroke="none" /><line stroke="#e1ed5e" stroke-width="0.3" x1="58.666819895761336" x2="56.23545636021788" y1="174.27360380694188" y2="178.64263932499728" /><path d="M 58.180547188652646 175.14741091055294 a86.0,86.0 0 0,1 -31.652253787137756,-30.449443065178592" fill="none" id="id104" stroke="none" /><text fill="#e1ed5e" style="font-size:6.75px; font-family:Arial;" text-anchor="middle"><textPath startOffset="22.20632615414155" xlink:href="#id104">August</textPath></text><path d="M 89.7882731507175 118.34994917583269 l -1.5907433468717096 2.858484171944028 a24.271298848602974,24.271298848602974 0 0,0 -0.3633196534039156,-0.20630238126323797 l 1.6397117671968324 -2.8306786248861573" fill="#ff2303" stroke="none" /><path d="M 89.4739219176387 118.17145234162733 l -5.67351082043708 9.794334668297667 a32.31890969237913,32.31890969237913 0 0,0 -0.4789849080762197,-0.28299272648305007 l 5.841263599541683 -9.695223369520868" fill="#ff910d" stroke="none" /><path d="M 89.1626897886671 117.98757091392108 l -5.952634093234741 9.880074094835289 a32.534717888504076,32.534717888504076 0 0,0 -0.4772080873330311,-0.2931401834757166 l 6.12182138050008 -9.776145444531194" fill="#ff940d" stroke="none" /><path d="M 88.54995079064634 117.60387380957326 l -3.5950029138304114 5.527135864920101 a27.59342678883562,27.59342678883562 0 0,0 -0.3959332209496525,-0.2624029492667762 l 3.6896108335200255 -5.4644348945620065" fill="#ff5107" stroke="none" /><path d="M 87.65650970185807 116.9893568818739 l -7.454124893682225 10.259722736598327 a33.6817147327357,33.6817147327357 0 0,0 -0.4661148820670221,-0.34482064652016203 l 7.629624746167812 -10.129892141338399" fill="#ffa30f" stroke="none" /><path d="M 87.07902340077011 116.55440617244103 l -6.475005295470245 8.295802318557696 a31.523593952873465,31.523593952873465 0 0,0 -0.4248817652848207,-0.33755177088924704 l 6.616844553472424 -8.18311663366332" fill="#ff870c" stroke="none" /><path d="M 86.51685102203217 116.09983520530335 l -7.913949188999292 9.449816061087255 a33.32597320110851,33.32597320110851 0 0,0 -0.43662503591870355,-0.3721013279877855 l 8.075439701495053 -9.312190342876518" fill="#ff9f0e" stroke="none" /><path d="M 85.70375840098266 115.38237550388516 l -4.551937388348831 4.897763492089341 a27.686420657713,27.686420657713 0 0,0 -0.34629669432204924,-0.32744513923132645 l 4.635569917061698 -4.8186837161120835" fill="#ff5307" stroke="none" /><path d="M 85.18274418774928 114.88116024355367 l -4.0544155603073255 4.071901599823023 a26.746187272818688,26.746187272818688 0 0,0 -0.32344976199774694,-0.3276529012240938 l 4.123905947360606 -4.001508204618265" fill="#ff4606" stroke="none" /><path d="M 84.67929136418377 114.36230785411682 l -2.8582545959295445 2.6794538952471467 a24.91779179027006,24.91779179027006 0 0,0 -0.29065250494481837,-0.3154458895506983 l 2.903953508870092 -2.629856750895104" fill="#ff2c04" stroke="none" /><path d="M 84.43433777217949 114.09645910891817 l -5.3334425352841395 4.8300325105361575 a28.19547241882104,28.19547241882104 0 0,0 -0.32269201313561896,-0.36254789759241507 l 5.415793398068097 -4.737510443202878" fill="#ff5a08" stroke="none" /><path d="M 84.19399662182784 113.82643327865904 l -19.402359883536732 16.972376125689145 a46.77815199742096,46.77815199742096 0 0,0 -0.5249343765061375,-0.6106172724474233 l 19.69163676961365 -16.63588175408019" fill="#bbff1f" stroke="none" /><path d="M 83.95833913139862 113.55231037782056 l -24.200052016634856 20.44467956125245 a52.68007954488319,52.68007954488319 0 0,0 -0.5792400520400105,-0.6977319571314703 l 24.548388068568403 -20.025086347007218" fill="#7aff26" stroke="none" /><path d="M 83.50135304334701 112.99209946851258 l -2.8128399544263387 2.215011726290497 a24.580271715501713,24.580271715501713 0 0,0 -0.2589042159236435,-0.33466859972083474 l 2.850550987568051 -2.16626513245641" fill="#ff2703" stroke="none" /><path d="M 83.28015986056508 112.70617746262583 l -4.206861239007229 3.196987831085471 a26.283787720600632,26.283787720600632 0 0,0 -0.2706463315789504,-0.36257498954140027 l 4.261268837281264 -3.1240999620347627" fill="#ff3f05" stroke="none" /><path d="M 83.06392112726016 112.41649034213515 l -2.5938193529853453 1.9016286584154065 a24.21622300073053,24.21622300073053 0 0,0 -0.2435693166710901,-0.33829647768169213 l 2.6261684620320427 -1.8566985752825762" fill="#ff2203" stroke="none" /><path d="M 82.85270091963577 112.12312394758628 l -2.464691904712466 1.7425348046595721 a24.018465459568013,24.018465459568013 0 0,0 -0.23576879434252246,-0.33964253271800726 l 2.494321606217122 -1.6998510097545523" fill="#ff1f03" stroke="none" /><path d="M 82.24976979558568 111.22182372390057 l -3.865438365425114 2.4437580500570317 a25.573135375660655,25.573135375660655 0 0,0 -0.2320279316010308,-0.3741029050426522 l 3.9069309366941005 -2.376858813649115" fill="#ff3505" stroke="none" /><line stroke="#e1ed5e" stroke-width="0.3" x1="26.63291911575756" x2="22.317208475507996" y1="142.92168965132927" y2="145.44649492493687" /><path d="M 25.769776987707644 143.4266507060508 a86.0,86.0 0 0,1 -11.730757126820373,-40.83630448921669" fill="none" id="id105" stroke="none" /><text fill="#e1ed5e" style="font-size:6.75px; font-family:Arial;" text-anchor="middle"><textPath startOffset="21.46611528233685" xlink:href="#id105">September</textPath></text><path d="M 81.87401531095188 110.60418214915194 l -9.093697224668908 5.3200542444400885 a31.535573376790463,31.535573376790463 0 0,0 -0.27007666295266675,-0.4709014266876488 l 9.183925883773952 -5.162732971894132" fill="#ff870c" stroke="none" /><path d="M 81.51974371655577 109.97397251340807 l -10.452387500851463 5.641254322126356 a32.877548349506526,32.877548349506526 0 0,0 -0.2645037775887697,-0.5003414663467715 l 10.547943786665119 -5.460497840693458" fill="#ff990e" stroke="none" /><path d="M 81.35079622478065 109.6543875284942 l -3.892343063257616 2.015002290685905 a25.382986282611334,25.382986282611334 0 0,0 -0.19752958967148995,-0.3897446200588831 l 3.9264513227153723 -1.9477034589243367" fill="#ff3304" stroke="none" /><path d="M 81.18737489456691 109.33194174019688 l -8.241592442066398 4.088215232312207 a30.199855964461374,30.199855964461374 0 0,0 -0.22699756736641827,-0.4676822232333574 l 8.310743266047536 -3.945744053113564" fill="#ff750a" stroke="none" /><path d="M 81.02952815118164 109.00673069616217 l -7.343580851597937 3.4865582470978795 a29.129223095374005,29.129223095374005 0 0,0 -0.2111527212786418,-0.45480417660625067 l 7.402508189716405 -3.359634003212802" fill="#ff6709" stroke="none" /><path d="M 80.87730276802145 108.67885076344099 l -4.7757396701582735 2.16747310170429 a26.24458092164999,26.24458092164999 0 0,0 -0.18316082435996045,-0.41297930588625226 l 4.812341579249514 -2.084945459325342" fill="#ff3f05" stroke="none" /><path d="M 80.73074385275274 108.34839909993369 l -1.460392263999726 0.6327144841067014 a22.59156312571907,22.59156312571907 0 0,0 -0.15152378569474276,-0.35815746997966363 l 1.4710670308867755 -0.6074824884608789" fill="#ff0b01" stroke="none" /><path d="M 79.97269907076064 106.31721596034903 l -1.5548640813003207 0.49045112096075516 a22.630381738541484,22.630381738541484 0 0,0 -0.11398516742399341,-0.3725101222792613 l 1.5630760212304444 -0.4636140261294461" fill="#ff0b01" stroke="none" /><path d="M 79.76711848015287 105.62410040840567 l -4.8132016335056935 1.337917648862047 a25.995691503677786,25.995691503677786 0 0,0 -0.1161288488945615,-0.43215864772883444 l 4.83551855874203 -1.2548680679576736" fill="#ff3b05" stroke="none" /><path d="M 79.67330655649465 105.27499134158121 l -3.407916895808261 0.884390378995001 a24.520801600657773,24.520801600657773 0 0,0 -0.1025070926168272,-0.4094648798576454 l 3.422635302720147 -0.8255976597399637" fill="#ff2603" stroke="none" /><path d="M 79.58551787078972 104.9243191809786 l -8.303015550434257 2.0028281136979635 a29.54115845092292,29.54115845092292 0 0,0 -0.1149846463587732,-0.49535084708580956 l 8.336260762723585 -1.8596086092635797" fill="#ff6c0a" stroke="none" /><path d="M 79.35854240842038 103.8639653848113 l -24.301984393054035 4.549195523638363 a45.7241102034539,45.7241102034539 0 0,0 -0.1381598792040072,-0.7748739743246373 l 24.376690714597228 -4.130202798580512" fill="#c7ff1e" stroke="none" /><path d="M 79.18660465613746 102.79330883721812 l -1.6476504405340453 0.221126657143292 a22.662422621565106,22.662422621565106 0 0,0 -0.04856070546573892,-0.38707660186622883 l 1.6512126552466324 -0.19273230098965458" fill="#ff0c01" stroke="none" /><path d="M 79.1416061653843 102.43462659150553 l -1.6965015348566923 0.19801849471446378 a22.708018964186316,22.708018964186316 0 0,0 -0.0419749063647705,-0.38863550183041345 l 1.6996587427225147 -0.16878667099926825" fill="#ff0c01" stroke="none" /><path d="M 79.10278846688536 102.07522291339032 l -2.6296579266893736 0.2611413668850818 a23.64259259533112,23.64259259533112 0 0,0 -0.036730910879967,-0.4053225408230029 l 2.6337634338464158 -0.21583743751351278" fill="#ff1a02" stroke="none" /><path d="M 79.07016306316243 101.71520430193888 l -3.9039979247204393 0.3199334068129021 a24.917085291516692,24.917085291516692 0 0,0 -0.03135214959314971,-0.4277751717996767 l 3.908926632977924 -0.2526850985164647" fill="#ff2c04" stroke="none" /><path d="M 79.04373962182676 101.35467743843564 l -1.0979055909859956 0.07097201059737579 a22.100197124612922,22.100197124612922 0 0,0 -0.02127264904730038,-0.37983743889690663 l 1.0989645909208274 -0.05206285536503156" fill="#ff0300" stroke="none" /><path d="M 79.0235259727143 100.99374915477108 l -2.463538787649562 0.11670882269289098 a23.466301747059397,23.466301747059397 0 0,0 -0.015641817825189072,-0.4036458152130025 l 2.465182738325952 -0.07428576046589172" fill="#ff1702" stroke="none" /><path d="M 79.0095281055655 100.63252640178507 l -1.8460817414395405 0.05562978513234313 a22.846919724587487,22.846919724587487 0 0,0 -0.00846199568850039,-0.3931956888710144 l 1.8467657998130484 -0.023844280471199884" fill="#ff0e01" stroke="none" /><line stroke="#e1ed5e" stroke-width="0.3" x1="15.007084014347285" x2="10.007500721073583" y1="101.09737516637583" y2="101.16192664675087" /><path d="M 14.007167355692545 101.11028546245083 a86.0,86.0 0 0,1 10.666146001902534,-42.60595125391555" fill="none" id="id106" stroke="none" /><text fill="#e1ed5e" style="font-size:6.75px; font-family:Arial;" text-anchor="middle"><textPath startOffset="22.20632615414155" xlink:href="#id106">October</textPath></text><path d="M 79.00175016825051 100.2711162175752 l -4.515975110013601 0.058307435157735066 a25.516351508824023,25.516351508824023 0 0,0 -0.0018902789144891147,-0.43923424863158245 l 4.5163096862175935 0.019436291677522748" fill="#ff3405" stroke="none" /><path d="M 79.00486145842228 99.54816195383935 l -9.024914711629119 -0.19422590720197075 a30.02700444528572,30.02700444528572 0 0,0 0.015568723761046422,-0.5166501471182917 l 9.020234293412427 0.3495462017452569" fill="#ff730a" stroke="none" /><path d="M 79.08570108090925 98.10471618934814 l -7.006464263408794 -0.6349358560725192 a28.035174839032152,28.035174839032152 0 0,0 0.04769033463102336,-0.4802351614561595 l 6.994496803095541 0.7554465482331091" fill="#ff5808" stroke="none" /><path d="M 79.16333360222342 97.38593545837743 l -4.63532184507 -0.581524426359244 a25.671657015003948,25.671657015003948 0 0,0 0.05878076095697218,-0.4379849446325253 l 4.624625085055194 0.6612277130564287" fill="#ff3705" stroke="none" /><path d="M 79.21141760316559 97.0276538004421 l -12.578566133310007 -1.7984801718815129 a33.70648877143896,33.70648877143896 0 0,0 0.08706563660499515,-0.5736537621456318 l 12.54574460326571 2.0147330464192366" fill="#ffa40f" stroke="none" /><path d="M 79.26566170972629 96.67025291283419 l -6.725394017673919 -1.0800374155608743 a27.811564101729907,27.811564101729907 0 0,0 0.07997564687211713,-0.47202079500104205 l 6.705806509281579 1.1956439988777443" fill="#ff5507" stroke="none" /><path d="M 79.32604984820605 96.31383870115002 l -9.777540042945363 -1.7433334916469152 a30.931742090615213,30.931742090615213 0 0,0 0.09797154444591116,-0.523367907955679 l 9.74608277458959 1.9113794770651669" fill="#ff7f0b" stroke="none" /><path d="M 79.3925641242962 95.95851677861259 l -15.248907383677365 -2.990580861556018 a36.53939349799326,36.53939349799326 0 0,0 0.12635792774587332,-0.6161661307935287 l 15.195170160016497 3.2526226485129492" fill="#ffc812" stroke="none" /><path d="M 79.54389044137918 95.25157060432595 l -3.4472202809246313 -0.8001952701904611 a24.53887554678789,24.53887554678789 0 0,0 0.09905198880236081,-0.41063444121968373 l 3.4329354918614556 0.8594149430695417" fill="#ff2703" stroke="none" /><path d="M 79.62865764111835 94.90015583598534 l -9.165871939645518 -2.294621419443517 a30.44872985498845,30.44872985498845 0 0,0 0.13165982670109694,-0.5073390197027373 l 9.125015781074113 2.452056864695118" fill="#ff780b" stroke="none" /><path d="M 79.71946130924805 94.55025226153421 l -12.149175493840023 -3.2647033040582283 a33.58017300531482,33.58017300531482 0 0,0 0.1548097615992782,-0.5569330803327385 l 12.091178961674384 3.4733476878099094" fill="#ffa20f" stroke="none" /><path d="M 80.02781315780177 93.51064311812611 l -16.30524487701525 -5.297895212442944 a38.14434904513607,38.14434904513607 0 0,0 0.2082730613728291,-0.6227099440091372 l 16.21163452187065 5.577778259374403" fill="#ffdc14" stroke="none" /><path d="M 80.2630227832202 92.82701384747504 l -2.9647115855024335 -1.0774616049594299 a24.15443153283981,24.15443153283981 0 0,0 0.1453813958620262,-0.389549861827702 l 2.94572560113878 1.1283346038164732" fill="#ff2103" stroke="none" /><path d="M 80.38941819471856 92.48833698450439 l -7.601049988842615 -2.9115161725974623 a29.13958766499759,29.13958766499759 0 0,0 0.18344959252859966,-0.4668592031816941 l 7.5498068464323245 3.04192438067492" fill="#ff6709" stroke="none" /><path d="M 80.52162464483688 92.15188598940014 l -1.6272570093037362 -0.6556449550181962 a22.754376151618846,22.754376151618846 0 0,0 0.14950525892177402,-0.362038843129837 l 1.6157300634957625 0.6835583686013444" fill="#ff0d01" stroke="none" /><path d="M 80.65960295795068 91.81776055985345 l -2.9681981809548645 -1.2557398986989303 a24.222899802135984,24.222899802135984 0 0,0 0.16576455886270625,-0.38260745642674293 l 2.9461429122494773 1.3066464997122726" fill="#ff2203" stroke="none" /><path d="M 80.803312248108 91.48605970444005 l -7.194237094971003 -3.190722581433292 a28.870054508726426,28.870054508726426 0 0,0 0.2053866310831177,-0.45254221656202276 l 7.138248146924533 3.3140868068373854" fill="#ff6309" stroke="none" /><path d="M 81.26839172434947 90.50648371742162 l -1.5315749417601394 -0.7762297520651071 a22.717048173528813,22.717048173528813 0 0,0 0.17977900537560715,-0.34727581587756057 l 1.5179865032244182 0.8024782902030032" fill="#ff0c01" stroke="none" /><path d="M 81.43458229118936 90.18545643968196 l -0.8961736897808649 -0.4737591070623274 a22.01369372779945,22.01369372779945 0 0,0 0.17997966282610917,-0.33347498104322254 l 0.8878859277362839 0.48911507143802263" fill="#ff0200" stroke="none" /><path d="M 81.6062741919709 89.86733742301443 l -6.865475525507086 -3.7820258742875077 a28.838269828547432,28.838269828547432 0 0,0 0.2432609113559154,-0.4327340175202604 l 6.79935697285874 3.8996434017425528" fill="#ff6309" stroke="none" /><line stroke="#e1ed5e" stroke-width="0.3" x1="26.266209847984243" x2="21.928928074336255" y1="57.711370442889674" y2="55.22380399835377" /><path d="M 25.398753493254645 57.213857153982495 a86.0,86.0 0 0,1 29.58750427330803,-30.492523968695096" fill="none" id="id107" stroke="none" /><text fill="#e1ed5e" style="font-size:6.75px; font-family:Arial;" text-anchor="middle"><textPath startOffset="21.46611528233685" xlink:href="#id107">November</textPath></text><path d="M 81.78341655067845 89.55222093294921 l -1.582652261605863 -0.907700459596454 a22.824474802653565,22.824474802653565 0 0,0 0.19839938383429748,-0.3391288590779883 l 1.5667932033012404 0.9348087310283341" fill="#ff0e01" stroke="none" /><path d="M 81.96595687620814 89.24020034530311 l -10.066206295672531 -6.005883554830465 a32.72173820135991,32.72173820135991 0 0,0 0.29275703145951937,-0.4812155844410057 l 9.961333465926794 6.178266912478546" fill="#ff970d" stroke="none" /><path d="M 82.15384107792192 88.93136811851018 l -2.917562040386315 -1.8095445836522939 a24.433164700349884,24.433164700349884 0 0,0 0.22475300745166096,-0.35550528323704295 l 2.885981436688691 1.8594975146035524" fill="#ff2503" stroke="none" /><path d="M 82.34701348167596 88.62581576622439 l -10.442979883289944 -6.728627873751368 a33.422973150829165,33.422973150829165 0 0,0 0.31577287283173333,-0.4809437492542863 l 10.325610375100291 6.907389686983321" fill="#ffa00e" stroke="none" /><path d="M 82.95767976084542 87.72973835380427 l -1.6696494876593653 -1.2021271624710044 a23.057386479588065,23.057386479588065 0 0,0 0.2346774070671726,-0.32009971950385163 l 1.6487094680785592 1.2306893256463567" fill="#ff1101" stroke="none" /><path d="M 83.17141714833178 87.43820079747576 l -3.942257206075873 -2.942722145050985 a25.91945174809456,25.91945174809456 0 0,0 0.2699622720718362,-0.35523870542470254 l 3.891018993779928 3.010145626356714" fill="#ff3a05" stroke="none" /><path d="M 83.39014120810768 87.1503855733568 l -7.36886215594965 -5.700652766130367 a30.316521423437866,30.316521423437866 0 0,0 0.3228650622351112,-0.41000584157817765 l 7.269643013120567 5.826651001661593" fill="#ff770a" stroke="none" /><path d="M 84.07557802195018 86.31012108654704 l -9.49519287753283 -8.162810614569285 a33.521587954843234,33.521587954843234 0 0,0 0.3799243180496974,-0.43431917208988774 l 9.353276695905288 8.325045342862117" fill="#ffa10e" stroke="none" /><path d="M 84.31358615837235 86.03803664274999 l -8.524715585502612 -7.587570227167719 a32.412361620887815,32.412361620887815 0 0,0 0.3745269366648031,-0.41356199782514785 l 8.392845008221764 7.733185012262423" fill="#ff930d" stroke="none" /><path d="M 84.5562425177563 85.77008943001954 l -12.60973633417438 -11.618637533815116 a38.146375376725395,38.146375376725395 0 0,0 0.4490966924527656,-0.4790650391472656 l 12.407872319751158 11.833971989840432" fill="#ffdc14" stroke="none" /><path d="M 85.83668400450813 84.49514656593479 l -5.246283286189736 -5.743206848724479 a28.77868325786502,28.77868325786502 0 0,0 0.36862617084864113,-0.3309562158613983 l 5.146646127745123 5.832662073355157" fill="#ff6209" stroke="none" /><path d="M 86.10567301691215 84.25364557470407 l -9.94798980730861 -11.273995028026937 a36.035473557500346,36.035473557500346 0 0,0 0.4686433951073123,-0.40640293414835815 l 9.752452613554526 11.443562955594976" fill="#ffc212" stroke="none" /><path d="M 86.37877921826538 84.01681056812374 l -5.287004949592663 -6.203790613975035 a29.151039155780204,29.151039155780204 0 0,0 0.38471384723020674,-0.32218678327734485 l 5.179433565403345 6.293878554646192" fill="#ff6709" stroke="none" /><path d="M 86.93701828274178 83.55741782278169 l -7.040721941097065 -8.862268325039869 a32.31863796208937,32.31863796208937 0 0,0 0.43855998479924735,-0.3423030244590215 l 6.887129401138392 8.982149738722113" fill="#ff910d" stroke="none" /><path d="M 87.22198572758235 83.33499621200491 l -1.551650571812866 -2.0236526666528496 a23.550056786085044,23.550056786085044 0 0,0 0.3238175941043041,-0.24389269843659878 l 1.5165868239501719 2.0500619545953027" fill="#ff1802" stroke="none" /><path d="M 87.51073957382395 83.11751280151077 l -4.812119677361333 -6.504832638478742 a29.091312838091632,29.091312838091632 0 0,0 0.4051376520436789,-0.29434973390597163 l 4.699436708963873 6.586701607201381" fill="#ff6609" stroke="none" /><path d="M 87.80319425747018 82.90503203632743 l -8.054211216292464 -11.288732937269312 a34.86743702511897,34.86743702511897 0 0,0 0.49157915931740304,-0.34438261585635144 l 7.858700917391401 11.425700395889606" fill="#ffb310" stroke="none" /><path d="M 88.09926311788651 82.69761687909137 l -5.161213521939839 -7.503845737454701 a30.10745990222146,30.10745990222146 0 0,0 0.4295263642880427,-0.2900181185316661 l 5.031282463245257 7.591575768285033" fill="#ff740a" stroke="none" /><path d="M 88.39885842347998 82.49532879139004 l -7.867739636413147 -11.871434770617883 a35.241920183016816,35.241920183016816 0 0,0 0.5085458995301116,-0.33077239917887674 l 7.662226711098748 12.005106093956297" fill="#ffb811" stroke="none" /><path d="M 89.00827224532344 82.1063720568725 l -4.67967905950967 -7.618132276655435 a29.940656322923537,29.940656322923537 0 0,0 0.4414649028532153,-0.2659776643845531 l 4.5478520904388064 7.697556550498607" fill="#ff720a" stroke="none" /><line stroke="#e1ed5e" stroke-width="0.3" x1="56.762969772571076" x2="54.21961505331055" y1="26.818313649435495" y2="22.513508569990535" /><path d="M 56.25429882871897 25.957352633546506 a86.0,86.0 0 0,1 42.265352541879196,-11.944610805530505" fill="none" id="id108" stroke="none" /><text fill="#e1ed5e" style="font-size:6.75px; font-family:Arial;" text-anchor="middle"><textPath startOffset="22.20632615414155" xlink:href="#id108">December</textPath></text><path d="M 89.63071344664047 81.73862282372117 l -5.0795775450975595 -8.945657058453058 a31.28721965567521,31.28721965567521 0 0,0 0.47061328614949555,-0.26189578422000215 l 4.924840169876018 9.031768240233244" fill="#ff840c" stroke="none" /><path d="M 89.94658935756843 81.56283822128135 l -3.4666710244361014 -6.3576010952304784 a28.24133272800944,28.24133272800944 0 0,0 0.428804230141338,-0.22905236931059 l 3.3567217477664584 6.416332191042818" fill="#ff5a08" stroke="none" /><path d="M 90.26544431104013 81.39251694778311 l -3.8727321442186433 -7.402679695083619 a29.354503033027616,29.354503033027616 0 0,0 0.449738261567641,-0.23037340550379465 l 3.7447333950622386 7.468245625899919" fill="#ff6a09" stroke="none" /><path d="M 90.58718382345135 81.22770947309562 l -3.5098138783834445 -6.999737866392044 a28.830397413867043,28.830397413867043 0 0,0 0.4455377306813411,-0.21862342949621327 l 3.3888048806916777 7.059116456023087" fill="#ff6309" stroke="none" /><path d="M 91.23893434514133 80.91482961587045 l -3.0363580420902214 -6.614424872889356 a28.278055135739447,28.278055135739447 0 0,0 0.4441242018452064,-0.199265583458195 l 2.9220517217782405 6.6657107868640795" fill="#ff5b08" stroke="none" /><path d="M 91.56875222667455 80.76684994638697 l -3.121913296814935 -7.121629977709547 a28.77585726285155,28.77585726285155 0 0,0 0.45536594056920443,-0.19496393117304792 l 2.998863598455422 7.174313436845381" fill="#ff6209" stroke="none" /><path d="M 91.90106846888425 80.62456947434976 l -3.896145595561074 -9.320920668928272 a31.102450822363068,31.102450822363068 0 0,0 0.4957377135990028,-0.20222386060973005 l 3.735124012373691 9.38660541572158" fill="#ff810b" stroke="none" /><path d="M 92.57280143429618 80.3572730644239 l -4.944602017524656 -13.07699886789438 a34.98059328149631,34.98059328149631 0 0,0 0.5650493093354696,-0.20811242927553636 l 4.718770382416617 13.160174564976238" fill="#ffb410" stroke="none" /><path d="M 92.91201910852362 80.23233633223022 l -2.5341747002059836 -7.067557590241865 a28.5081563451056,28.5081563451056 0 0,0 0.46334984721723715,-0.16165366358135375 l 2.4121428489254613 7.110132106995429" fill="#ff5e08" stroke="none" /><path d="M 93.59665428221793 80.00007090966166 l -3.6662364798829463 -11.450962177857848 a33.0235529160542,33.0235529160542 0 0,0 0.5428673100801513,-0.1686715157845602 l 3.4685837970920663 11.512373828524934" fill="#ff9b0e" stroke="none" /><path d="M 93.94186890950719 79.89281104454417 l -5.8749148701810325 -19.499086703047546 a41.36489643933501,41.36489643933501 0 0,0 0.6835249384431842,-0.19953967301950482 l 5.538399714014427 19.59732470498575" fill="#faff18" stroke="none" /><path d="M 94.28887869178378 79.79150937346287 l -4.674380018506995 -16.54003823259266 a38.18786471010999,38.18786471010999 0 0,0 0.6341042395454416,-0.17332464209419057 l 4.3889778897378315 16.61804941551315" fill="#ffdd14" stroke="none" /><path d="M 94.63758080256005 79.69619591428918 l -5.67634088020723 -21.492410218593236 a43.22936217691823,43.22936217691823 0 0,0 0.7210886342091114,-0.18382154856808894 l 5.30554335731312 21.586934763330188" fill="#e4ff1a" stroke="none" /><path d="M 94.98787191387505 79.60689891045804 l -1.8218830102921708 -7.4127882934716025 a28.63339295379328,28.63339295379328 0 0,0 0.4796452096684932,-0.11351652441333675 l 1.6940141136611435 7.44305073002581" fill="#ff6008" stroke="none" /><path d="M 95.33964822691252 79.52364482259891 l -4.0114523265346875 -17.62526234385918 a39.07599575287406,39.07599575287406 0 0,0 0.657141533860647,-0.14362568669452663 l 3.7074680685205195 17.691701528649574" fill="#ffe815" stroke="none" /><path d="M 96.75951476605007 79.25152402106235 l -1.3799587742102681 -8.835726569173586 a29.942837928964156,29.942837928964156 0 0,0 0.5099279836854846,-0.07515012946336 l 1.2276618100961347 8.858171182797914" fill="#ff720a" stroke="none" /><path d="M 97.47563105711357 79.15227682838746 l -1.1481445322753039 -9.48205270759941 a30.551311921232966,30.551311921232966 0 0,0 0.5226213568365414,-0.05872259885347174 l 0.9847564719290446 9.50041125992348" fill="#ff7a0b" stroke="none" /><path d="M 97.83486435360386 79.11191278185805 l -1.4345197921888644 -13.839490650512998 a34.913638938100206,34.913638938100206 0 0,0 0.5983114940793423,-0.0568168857001507 l 1.1960831710192859 13.862133080728329" fill="#ffb310" stroke="none" /><path d="M 98.19473922651362 79.07773832637324 l -2.298930940227295 -26.64370455917135 a47.74270136138723,47.74270136138723 0 0,0 0.8193779979518192,-0.06359950252377891 l 1.839962752913142 26.67932932388359" fill="#b0ff20" stroke="none" /><path d="M 98.91598698831166 79.02799685794201 l -0.48342610105198547 -9.352667911637537 a30.365153381581788,30.365153381581788 0 0,0 0.5222215961744086,-0.022487960453581087 l 0.3223636724882528 9.359603598615312" fill="#ff770b" stroke="none" /><path d="M 99.63851952072746 79.00311137660856 l -0.2700639604342968 -15.6868855265504 a36.68921005232009,36.68921005232009 0 0,0 0.6315444397068287,-0.005435902378251984 l 3.842748174344856e-15 15.689210052320092" fill="#ffca12" stroke="none" /></svg>