<?xml version="1.0" encoding="utf-8" ?>
<svg baseProfile="full" height="200mm" version="1.1" viewBox="0,0,200,200" width="200mm" xmlns="http://www.w3.org/2000/svg" xmlns:ev="http://www.w3.org/2001/xml-events" xmlns:xlink="http://www.w3.org/1999/xlink"><defs /><rect fill="#1a1a1a" height="200" width="200" x="0" y="0" /><rect fill="#1a1a1a" height="200" width="180" x="10" y="0" /><text alignment-baseline="middle" fill="#e1ed5e" style="dominant-baseline: central; font-size:9.0px; font-family:Arial;" text-anchor="middle" x="100.0" y="100.0">2013</text><line stroke="#e1ed5e" stroke-width="0.3" x1="100.0" x2="100.0" y1="15.0" y2="10.0" /><path d="M 100.0 14.0 a86.0,86.0 0 0,1 42.46469731375804,11.215312516191453" fill="none" id="id1" stroke="none" /><text fill="#e1ed5e" style="font-size:6.75px; font-family:Arial;" text-anchor="middle"><textPath startOffset="22.20632615414155" xlink:href="#id1">January</textPath></text><line stroke="#e1ed5e" stroke-width="0.3" x1="143.23703022742887" x2="145.7803849466894" y1="26.81831364943548" y2="22.513508569990506" /><path d="M 143.74570117128098 25.957352633546492 a86.0,86.0 0 0,1 28.547481713284135,27.462654790039103" fill="none" id="id2" stroke="none" /><text fill="#e1ed5e" style="font-size:6.75px; font-family:Arial;" text-anchor="middle"><textPath startOffset="19.985693538727396" xlink:href="#id2">February</textPath></text><line stroke="#e1ed5e" stroke-width="0.3" x1="172.23445277983987" x2="176.4835382374775" y1="55.19839476539836" y2="52.563006222186495" /><path d="M 173.08426987136738 54.67131705675599 a86.0,86.0 0 0,1 12.851231095245387,41.99856678651699" fill="none" id="id3" stroke="none" /><text fill="#e1ed5e" style="font-size:6.75px; font-family:Arial;" text-anchor="middle"><textPath startOffset="22.20632615414155" xlink:href="#id3">March</textPath></text><line stroke="#e1ed5e" stroke-width="0.3" x1="184.98032266829074" x2="189.97916517819016" y1="98.17113171792111" y2="98.06355123074" /><path d="M 185.9800911702706 98.14961562048488 a86.0,86.0 0 0,1 -9.607161424134198,41.387399972396054" fill="none" id="id4" stroke="none" /><text fill="#e1ed5e" style="font-size:6.75px; font-family:Arial;" text-anchor="middle"><textPath startOffset="21.466115282336823" xlink:href="#id4">April</textPath></text><line stroke="#e1ed5e" stroke-width="0.3" x1="174.80103733775053" x2="179.2010983576182" y1="140.37084112569926" y2="142.7455964860345" /><path d="M 175.68104954172406 140.8457921977663 a86.0,86.0 0 0,1 -30.038265399797805,32.042727171017184" fill="none" id="id5" stroke="none" /><text fill="#e1ed5e" style="font-size:6.75px; font-family:Arial;" text-anchor="middle"><textPath startOffset="22.206326154141568" xlink:href="#id5">May</textPath></text><path d="M 114.55890576462653 115.13401014063108 l 4.723143530932183 4.909716653737635 a27.812738247854178,27.812738247854178 0 0,0 -0.34787665167521375,0.32893908752470985 l -4.6379310448661615 -4.990290378008266" fill="#ff5708" stroke="none" /><path d="M 114.29624159901734 115.38237550388516 l 2.4402501946678052 2.6256442686579353 a24.584526305959063,24.584526305959063 0 0,0 -0.3124581498668671,0.2854231115921549 l -2.3946924953340742 -2.6672601468366732" fill="#ff2a04" stroke="none" /><path d="M 112.92097659922987 116.55440617244103 l 1.7657326049004038 2.2622635765152492 a23.869781894436567,23.869781894436567 0 0,0 -0.32607403250666667,0.25001966361606476 l -1.7265298439002434 -2.292322581958685" fill="#ff2003" stroke="none" /><path d="M 111.7513745106137 117.40417183066458 l 1.9919381431444902 2.9501258502169154 a24.559643254348952,24.559643254348952 0 0,0 -0.3524019953550336,0.23355282662784468 l -1.9408614490494926 -2.9839766979360784" fill="#ff2a04" stroke="none" /><path d="M 111.45004920935366 117.60387380957326 l 1.7216047739351155 2.6468806060287173 a24.157514836102457,24.157514836102457 0 0,0 -0.3505349708515087,0.22372800338555704 l -1.6757880010366764 -2.676123038238083" fill="#ff2403" stroke="none" /><path d="M 111.1453310114006 117.79835938074945 l 1.5454577657469621 2.467994238519961 a23.911946989056517,23.911946989056517 0 0,0 -0.3507322401307338,0.2154483881389491 l -1.5027463256839195 -2.4942310934872887" fill="#ff2103" stroke="none" /><line stroke="#e1ed5e" stroke-width="0.3" x1="143.8653032363475" x2="146.44561519142675" y1="172.8068346515853" y2="177.08958963109032" /><path d="M 144.38136562736335 173.6633856474863 a86.0,86.0 0 0,1 -40.68145358897372,12.25698825130547" fill="none" id="id6" stroke="none" /><text fill="#e1ed5e" style="font-size:6.75px; font-family:Arial;" text-anchor="middle"><textPath startOffset="21.466115282336833" xlink:href="#id6">June</textPath></text><path d="M 110.5260780823613 118.17145234162733 l 21.317612998451132 36.801169971153364 a63.52959834277127,63.52959834277127 0 0,0 -0.9509813131452903,0.5399920086915948 l -20.680982918384643 -37.162665145639586" fill="#34ff59" stroke="none" /><path d="M 110.21172684928248 118.3499491758327 l 1.425635222212182 2.5617933437681604 a23.93176072062282,23.93176072062282 0 0,0 -0.3616854725973139,0.19721975774057668 l -1.3813269377462194 -2.5859537532685075" fill="#ff2103" stroke="none" /><path d="M 109.89434966115114 118.52300852407294 l 13.155636915343587 24.628397324515717 a48.92183263008651,48.92183263008651 0 0,0 -0.7461956217377547,0.3903742819101386 l -12.729750391079335 -24.851201025370575" fill="#a1ff22" stroke="none" /><path d="M 108.92500713936063 119.00905698771935 l 6.096879510935946 12.985527995772836 a35.345587373818844,35.345587373818844 0 0,0 -0.5529598409856428,0.25383674202897955 l -5.872451674182884 -13.08855180813589" fill="#ffbb11" stroke="none" /><path d="M 106.91757812671514 119.82793768551818 l 0.7396713415135064 2.120128894627718 a23.245453233378896,23.245453233378896 0 0,0 -0.3789343911132285,0.1285551193678092 l -0.7030672174630509 -2.1325470008936502" fill="#ff1702" stroke="none" /><path d="M 106.57524785965236 119.94407469862006 l 1.2672090851558535 3.8437049359314255 a25.047207246979717,25.047207246979717 0 0,0 -0.41062946762945846,0.13147058828375915 l -1.2008582724354548 -3.864948370874891" fill="#ff3104" stroke="none" /><path d="M 106.2309692047433 120.05430185196036 l 0.2204197355005551 0.7094183528450768 a21.74287230339511,21.74287230339511 0 0,0 -0.35836915389310015,0.1079736863209953 l -0.2081756071672091 -0.7131074082717976" fill="#ff0200" stroke="none" /><path d="M 105.18746579009965 120.34920634021253 l 7.21218656221899 28.291708987999485 a50.19651404654164,50.19651404654164 0 0,0 -0.8391105415895098,0.20623295566465397 l -6.724122735886269 -28.41166320197817" fill="#93ff23" stroke="none" /><path d="M 104.83641907484287 120.43548508189849 l 0.7813143374724154 3.3013138937323587 a24.39251020910627,24.39251020910627 0 0,0 -0.4094223025923269,0.09318318310543738 l -0.7243718854872264 -3.3142738104154805" fill="#ff2803" stroke="none" /><path d="M 104.13013068566511 120.58985236759428 l 0.8246025224230956 4.1108733574863185 a25.192761510183637,25.192761510183637 0 0,0 -0.4259164864041261,0.08162790830913198 l -0.7537184214472652 -4.124458464143919" fill="#ff3304" stroke="none" /><path d="M 103.7750983002368 120.6578951692458 l 2.304676246979027 12.611528633878768 a33.82038170596076,33.82038170596076 0 0,0 -0.5735792252278948,0.09972410048548802 l -2.0872480502790824 -12.649331312885263" fill="#ffa80f" stroke="none" /><path d="M 103.06178313531738 120.77559828337769 l 0.602159954556771 4.085930572255131 a25.130063589360454,25.130063589360454 0 0,0 -0.42849320347651587,0.05938525356288285 l -0.5317381598934247 -4.095690391310616" fill="#ff3204" stroke="none" /><path d="M 100.90346689309514 120.98055641714683 l 0.16609978076185558 3.857214744428765 a24.86078939101938,24.86078939101938 0 0,0 -0.42769986896561984,0.014730848270423013 l -0.09967956012158341 -3.8595023911252824" fill="#ff2e04" stroke="none" /><line stroke="#e1ed5e" stroke-width="0.3" x1="102.19456741930631" x2="102.32365962044197" y1="184.97166512339345" y2="189.96999836594603" /><path d="M 102.22038585953345 185.97133177190398 a86.0,86.0 0 0,1 -42.740103519485714,-10.115201625700543" fill="none" id="id7" stroke="none" /><text fill="#e1ed5e" style="font-size:6.75px; font-family:Arial;" text-anchor="middle"><textPath startOffset="22.20632615414155" xlink:href="#id7">July</textPath></text><path d="M 100.18074693466247 120.99922214144158 l 0.024522352548055737 2.8490127898933197 a23.849118323753896,23.849118323753896 0 0,0 -0.4105385744210204,0.0 l 0.024522352548053773 -2.8490127898933197" fill="#ff2003" stroke="none" /><path d="M 99.81925306533755 120.99922214144158 l -0.037698335083374494 4.379801595289521 a25.37996383302062,25.37996383302062 0 0,0 -0.43682580944380217,-0.007520352457384615 l 0.11308383441984458 -4.378503765552977" fill="#ff3505" stroke="none" /><path d="M 99.45781275523022 120.99299961872073 l -0.08032683222905085 3.110182274895704 a24.111219404518327,24.111219404518327 0 0,0 -0.4148044222457097,-0.014286703011576215 l 0.13385160614940358 -3.108338773458034" fill="#ff2403" stroke="none" /><path d="M 99.09653310690486 120.98055641714683 l -0.10327633371957057 2.3983113965985305 a23.400534014789407,23.400534014789407 0 0,0 -0.4022796183254752,-0.020793261265887517 l 0.14454402045853468 -2.3961783285704414" fill="#ff1902" stroke="none" /><path d="M 97.65516085044442 120.86867818915974 l -0.5716796693401455 5.08785391484353 a26.11987061390476,26.11987061390476 0 0,0 -0.4463669179417281,-0.05404881748997789 l 0.659174010333263 -5.077259568628204" fill="#ff4006" stroke="none" /><path d="M 97.2962882734958 120.8252237178851 l -0.30031269061124755 2.313145630871509 a23.33255877134149,23.33255877134149 0 0,0 -0.3978439138319195,-0.05513754129510257 l 0.34008519562999806 -2.3076335240838013" fill="#ff1802" stroke="none" /><path d="M 96.93821686468263 120.77559828337769 l -0.6562115034725325 4.4526950415982105 a25.50078956081741,25.50078956081741 0 0,0 -0.4337127371804901,-0.06773700979465003 l 0.7327601042615398 -4.440739724456455" fill="#ff3705" stroke="none" /><path d="M 95.86986931433489 120.58985236759428 l -11.207164859517162 55.87083980602639 a77.9837808926282,77.9837808926282 0 0,0 -1.313872740468176,-0.27533480731048643 l 12.167229061414725 -55.669649017989364" fill="#46fff4" stroke="none" /><path d="M 94.46302465271185 120.25689768951611 l -0.5496485467823825 2.010876639141102 a23.084643466596482,23.084643466596482 0 0,0 -0.3824013313069702,-0.10807043593100568 l 0.5841810461939666 -2.0011174098715747" fill="#ff1502" stroke="none" /><path d="M 94.11515582081647 120.15858648285463 l -1.412418560159598 4.838252437623001 a26.04019968247769,26.04019968247769 0 0,0 -0.4291983228894616,-0.1293139339190661 l 1.4954918574893055 -4.813223134598209" fill="#ff3f05" stroke="none" /><path d="M 93.42475214034765 119.94407469862007 l -6.292834543481308 19.087457215321407 a41.09802949391698,41.09802949391698 0 0,0 -0.6699571148764939,-0.22728582808554107 l 6.620461391295028 -18.976308400337743" fill="#fcff18" stroke="none" /><path d="M 92.7421414339146 119.70592522655815 l -0.5283807137697808 1.4346147340700615 a22.528824912766265,22.528824912766265 0 0,0 -0.3627460282992331,-0.1371595089589735 l 0.5529969628292968 -1.425306975004455" fill="#ff0d01" stroke="none" /><path d="M 92.06813273071674 119.44442032107085 l -2.6617539219237036 6.525104403798238 a28.047121498976967,28.047121498976967 0 0,0 -0.44545311899291123,-0.1861994398663552 l 2.773678500414077 -6.478319920911909" fill="#ff5b08" stroke="none" /><path d="M 91.07499286063937 119.00905698771935 l -12.220739058226401 26.028519816569595 a49.75465713533751,49.75465713533751 0 0,0 -0.7721148794475172,-0.37066206347876607 l 12.666966605674162 -25.814303476591267" fill="#98ff23" stroke="none" /><path d="M 90.7491055286396 118.85261126421891 l -0.41124685772570196 0.838089458953051 a21.93355124079907,21.93355124079907 0 0,0 -0.33751149400495994,-0.16923526971776806 l 0.42561225941342246 -0.8308863483259809" fill="#ff0400" stroke="none" /><path d="M 90.10565033884886 118.52300852407294 l -2.1447403834761976 4.01512436547862 a25.55204733968944,25.55204733968944 0 0,0 -0.38617318741285805,-0.2105724123242983 l 2.2135363827576957 -3.9776113013945555" fill="#ff3805" stroke="none" /><line stroke="#e1ed5e" stroke-width="0.3" x1="58.666819895761336" x2="56.23545636021788" y1="174.27360380694188" y2="178.64263932499728" /><path d="M 58.180547188652646 175.14741091055294 a86.0,86.0 0 0,1 -31.652253787137756,-30.449443065178592" fill="none" id="id8" stroke="none" /><text fill="#e1ed5e" style="font-size:6.75px; font-family:Arial;" text-anchor="middle"><textPath startOffset="22.20632615414155" xlink:href="#id8">August</textPath></text><path d="M 89.7882731507175 118.34994917583269 l -1.7754644818888865 3.1904185733724693 a24.65117033288903,24.65117033288903 0 0,0 -0.36900599004662005,-0.2095312316132358 l 1.8301192388567138 -3.1593841759646004" fill="#ff2b04" stroke="none" /><path d="M 89.1626897886671 117.98757091392108 l -27.655022368033976 45.90130449997543 a74.58852504945368,74.58852504945368 0 0,0 -1.0940389124572265,-0.6720480562674788 l 28.441040480423514 -45.418467976879576" fill="#41ffd2" stroke="none" /><path d="M 88.54995079064634 117.60387380957326 l -1.008165943767258 1.5500043474651541 a22.849030028780767,22.849030028780767 0 0,0 -0.32785670747247736,-0.21728554823292423 l 1.0346973499796972 -1.5324207781409114" fill="#ff1101" stroke="none" /><path d="M 88.24862548938628 117.40417183066458 l -0.4551582863969548 0.6741043798279676 a21.81337923539949,21.81337923539949 0 0,0 -0.30937927754160666,-0.21279388816398256 l 0.46669444856145176 -0.666169702298884" fill="#ff0300" stroke="none" /><path d="M 87.95078237400918 117.19931262002967 l -2.6251405024218637 3.747182063942731 a25.57523071306681,25.57523071306681 0 0,0 -0.3583853087054946,-0.2556984020412541 l 2.6892531389762455 -3.7014394000572577" fill="#ff3805" stroke="none" /><path d="M 85.44109423537348 115.13401014063109 l -2.064721065633461 2.1462814616736425 a23.978186896686392,23.978186896686392 0 0,0 -0.29498884412862075,-0.2887086709014544 l 2.1013598621378757 -2.1104226878496184" fill="#ff2203" stroke="none" /><path d="M 84.43433777217949 114.09645910891817 l -2.4113801433781203 2.183776127843321 a24.2532495097082,24.2532495097082 0 0,0 -0.27757399461567356,-0.31185732549242556 l 2.4486129876421323 -2.1419446326100315" fill="#ff2603" stroke="none" /><path d="M 84.19399662182784 113.82643327865904 l -0.4809330603021596 0.4207002055277354 a21.638972042755142,21.638972042755142 0 0,0 -0.24282789747922648,-0.2824637041677422 l 0.4881034673521648 -0.41235940219846295" fill="#ff0000" stroke="none" /><path d="M 83.72743513129214 113.27417163493432 l -2.1302005503457937 1.7376884314345324 a23.749057196464804,23.749057196464804 0 0,0 -0.25567792560501396,-0.3189975244705072 l 2.159796388005669 -1.7007630733857655" fill="#ff1e03" stroke="none" /><path d="M 83.50135304334701 112.99209946851258 l -49.49594086995897 38.976298405537754 a84.0,84.0 0 0,0 -0.8847727311277263,-1.1436880235469893 l 50.159520418304766 -38.118532387877515" fill="#4dd2ff" stroke="none" /><path d="M 82.05923443525364 110.91462005526583 l -7.802088674702248 4.746555168704778 a30.132490003141264,30.132490003141264 0 0,0 -0.2657673053054099,-0.44544129059870774 l 7.88263685570589 -4.611551784219959" fill="#ff770a" stroke="none" /><line stroke="#e1ed5e" stroke-width="0.3" x1="26.63291911575756" x2="22.317208475507996" y1="142.92168965132927" y2="145.44649492493687" /><path d="M 25.769776987707644 143.4266507060508 a86.0,86.0 0 0,1 -11.730757126820373,-40.83630448921669" fill="none" id="id9" stroke="none" /><text fill="#e1ed5e" style="font-size:6.75px; font-family:Arial;" text-anchor="middle"><textPath startOffset="21.46611528233685" xlink:href="#id9">September</textPath></text><path d="M 81.87401531095188 110.60418214915194 l -8.151222398060185 4.768681455386159 a30.44366186421252,30.44366186421252 0 0,0 -0.2607253245757438,-0.4545965800008259 l 8.232099718788305 -4.627665029527026" fill="#ff7b0b" stroke="none" /><path d="M 81.51974371655577 109.97397251340807 l -2.17892357557397 1.1759860641684365 a23.476015179943456,23.476015179943456 0 0,0 -0.18886732769171174,-0.3572658074819096 l 2.198843411490568 -1.1383052416004007" fill="#ff1a02" stroke="none" /><path d="M 81.18737489456691 109.33194174019688 l -25.50216717674334 12.650267413950647 a49.467346141764374,49.467346141764374 0 0,0 -0.37182188058999777,-0.7660632040185635 l 25.71614231394806 -12.2094152539668" fill="#9bff22" stroke="none" /><path d="M 80.45479744820244 107.68017299344265 l -2.358156086812246 0.9266236379111944 a23.533679438308134,23.533679438308134 0 0,0 -0.1449066368374217,-0.37830550305123395 l 2.3737570032431767 -0.8858945680268026" fill="#ff1b02" stroke="none" /><path d="M 80.32549172779594 107.34259656027581 l -2.3485013667912993 0.8764690745520242 a23.506722303819608,23.506722303819608 0 0,0 -0.13821475751471904,-0.3803076518041978 l 2.3632403853112427 -0.8359136257417092" fill="#ff1b02" stroke="none" /><path d="M 80.20201598880116 107.00284435728193 l -3.545177134150663 1.2539824092901957 a24.76041923132434,24.76041923132434 0 0,0 -0.13866915863301724,-0.40303748458187566 l 3.5662371237269084 -1.1927722216190233" fill="#ff2d04" stroke="none" /><path d="M 79.86692584326677 105.97154293290107 l -14.125730750623314 4.189743055594795 a35.73398167879307,35.73398167879307 0 0,0 -0.16983402309145737,-0.5912145145120181 l 14.195757410600876 -3.9459710655781812" fill="#ffc011" stroke="none" /><path d="M 79.67330655649465 105.27499134158121 l -2.80442688761677 0.7277783566418017 a23.897321436151696,23.897321436151696 0 0,0 -0.09990068765468009,-0.3990535876490637 l 2.8165388895665084 -0.6793969295953461" fill="#ff2003" stroke="none" /><path d="M 79.4281124754447 104.21870165774334 l -16.495153626248747 3.3826809457675657 a37.838426991094096,37.838426991094096 0 0,0 -0.1253534238983699,-0.6391744078300962 l 16.550936983122785 -3.0982428108695146" fill="#ffdb14" stroke="none" /><path d="M 79.35854240842038 103.8639653848113 l -8.776257248477442 1.6428662591225929 a29.928700960207834,29.928700960207834 0 0,0 -0.09043250248055838,-0.5071934993643253 l 8.80323619329719 -1.4915540090250539" fill="#ff740a" stroke="none" /><path d="M 79.23777060512086 103.15116336523772 l -2.2567638091980555 0.3425177183184977 a23.282608437263875,23.282608437263875 0 0,0 -0.05672746454769261,-0.3967517549229622 l 2.2623253247623474 -0.30362049141513486" fill="#ff1802" stroke="none" /><line stroke="#e1ed5e" stroke-width="0.3" x1="15.007084014347285" x2="10.007500721073583" y1="101.09737516637583" y2="101.16192664675087" /><path d="M 14.007167355692545 101.11028546245083 a86.0,86.0 0 0,1 10.666146001902534,-42.60595125391555" fill="none" id="id10" stroke="none" /><text fill="#e1ed5e" style="font-size:6.75px; font-family:Arial;" text-anchor="middle"><textPath startOffset="22.20632615414155" xlink:href="#id10">October</textPath></text><path d="M 79.00019446554 99.90962569577889 l -15.300599479480507 -0.06584732557903868 a36.30074116838021,36.30074116838021 0 0,0 0.008067395269260976,-0.6248286541857613 l 15.29719907709353 0.32921223782527187" fill="#ffc712" stroke="none" /><path d="M 79.00486145842228 99.54816195383935 l -5.370904388285751 -0.11558766045352906 a26.37214802991841,26.37214802991841 0 0,0 0.013673714552890941,-0.45376401713031633 l 5.368118979277215 0.2080218250088398" fill="#ff4306" stroke="none" /><path d="M 79.01574976396665 99.18683210126434 l -6.307704296373671 -0.24443201881572726 a27.312438554339614,27.312438554339614 0 0,0 0.02224844161947738,-0.46962943871493107 l 6.3025622465206945 0.35297256415366746" fill="#ff5007" stroke="none" /><path d="M 79.05617556472873 98.46500227214037 l -12.720593121242793 -0.9323073538207713 a33.75471231969572,33.75471231969572 0 0,0 0.04745834784587606,-0.5791120513067388 l 12.70266028957742 1.1511333223352886" fill="#ffa70f" stroke="none" /><path d="M 79.08570108090925 98.10471618934814 l -25.16721809155262 -2.280689455218795 a46.27034647287052,46.27034647287052 0 0,0 0.0787099891280994,-0.7925988490035945 l 25.12423097674229 2.71356383492682" fill="#bfff1e" stroke="none" /><path d="M 79.21141760316559 97.0276538004421 l -1.2178782626593996 -0.1741319228237072 a22.23026395103025,22.23026395103025 0 0,0 0.057421943172958255,-0.378338860374109 l 1.2147004260471392 0.19506989558990828" fill="#ff0901" stroke="none" /><path d="M 79.26566170972629 96.67025291283419 l -28.205614630776243 -4.529566453664183 a49.56700314975337,49.56700314975337 0 0,0 0.14253614524927846,-0.84125639776982 l 28.123466624006742 5.01440863974983" fill="#9aff22" stroke="none" /><path d="M 79.32604984820605 96.31383870115002 l -8.115713557328114 -1.4470301518541262 a29.24370686068921,29.24370686068921 0 0,0 0.0926249520014741,-0.4948061973267163 l 8.089602881416779 1.586514426643415" fill="#ff6b09" stroke="none" /><path d="M 79.3925641242962 95.95851677861259 l -8.756245946833612 -1.7172549408823992 a29.92304923293742,29.92304923293742 0 0,0 0.10347775731743795,-0.5045942940573412 l 8.72538889360118 1.867724891103143" fill="#ff740a" stroke="none" /><path d="M 79.62865764111835 94.90015583598534 l -1.0416589169310964 -0.26077310247003826 a22.073804409654716,22.073804409654716 0 0,0 0.09544678142733491,-0.36779538403206846 l 1.0370158036334542 0.27866491205097055" fill="#ff0601" stroke="none" /><path d="M 79.71946130924805 94.55025226153421 l -3.4525143328144874 -0.927753077183121 a24.574993844821584,24.574993844821584 0 0,0 0.11329450082995163,-0.40758059879525804 l 3.4360330614181747 0.9870449793973216" fill="#ff2a04" stroke="none" /><path d="M 79.81627453868168 94.20196356495316 l -2.270434211364418 -0.6522116200052557 a23.362255596967408,23.362255596967408 0 0,0 0.11435724312082228,-0.3855557737726234 l 2.2588710711318885 0.6911967805244182" fill="#ff1902" stroke="none" /><path d="M 79.91906864156998 93.8553929516997 l -3.415163696642659 -1.045013229064215 a24.571469686807543,24.571469686807543 0 0,0 0.12723869448553,-0.4033814326278715 l 3.3966695183889253 1.103644828118501" fill="#ff2a04" stroke="none" /><path d="M 80.02781315780177 93.51064311812611 l -24.18825856265835 -7.859241624581942 a46.43304014874306,46.43304014874306 0 0,0 0.2535303829456583,-0.7580235750512772 l 24.04939088594092 8.274438302555541" fill="#bdff1f" stroke="none" /><path d="M 80.14247586403 93.16781622104843 l -3.0339958670779685 -1.043877232958158 a24.20855272653179,24.20855272653179 0 0,0 0.13896506901127106,-0.39287296333231286 l 3.015577717256888 1.0959478227170818" fill="#ff2503" stroke="none" /><line stroke="#e1ed5e" stroke-width="0.3" x1="26.266209847984243" x2="21.928928074336255" y1="57.711370442889674" y2="55.22380399835377" /><path d="M 25.398753493254645 57.213857153982495 a86.0,86.0 0 0,1 29.58750427330803,-30.492523968695096" fill="none" id="id11" stroke="none" /><text fill="#e1ed5e" style="font-size:6.75px; font-family:Arial;" text-anchor="middle"><textPath startOffset="21.46611528233685" xlink:href="#id11">November</textPath></text><path d="M 82.54541684631803 88.32363383020206 l -1.7786819949173456 -1.1898618310973854 a23.13997215312386,23.13997215312386 0 0,0 0.22432058073726943,-0.32916277252612824 l 1.7579369485113359 1.2203026268939294" fill="#ff1602" stroke="none" /><path d="M 83.6137871275137 86.86637796730984 l -2.5332616460953674 -2.030420404557996 a24.24653994074049,24.24653994074049 0 0,0 0.2638271875423418,-0.32342093664911065 l 2.4979359664766334 2.0737255108151884" fill="#ff2503" stroke="none" /><path d="M 84.5562425177563 85.77008943001954 l -0.9894055265260765 -0.9116403295051647 a22.345366636386018,22.345366636386018 0 0,0 0.2630716588126543,-0.2806265034803737 l 0.9735665457429663 0.9285362498635885" fill="#ff0a01" stroke="none" /><path d="M 84.80347519578584 85.50635884689758 l -1.738899661362053 -1.658470473857539 a23.402976559382616,23.402976559382616 0 0,0 0.2805412159864211,-0.2891223833430966 l 1.7100941816725135 1.6881570527507592" fill="#ff1902" stroke="none" /><path d="M 85.31137513191541 84.99185889309783 l -4.383205277648281 -4.478551525296187 a27.26657101377911,27.26657101377911 0 0,0 0.3382570780152922,-0.3254030410499759 l 4.305464956020561 4.553337653108477" fill="#ff5007" stroke="none" /><path d="M 85.57189188830299 84.74124197986013 l -1.0983353968055147 -1.1615683716164258 a22.598618693064598,22.598618693064598 0 0,0 0.28494933652617604,-0.264829353400521 l 1.0781781764844824 1.1803023110915942" fill="#ff0e01" stroke="none" /><path d="M 85.83668400450813 84.49514656593479 l -1.3332421978929363 -1.4595257831584554 a22.976803042780613,22.976803042780613 0 0,0 0.29430988374663986,-0.26423431953069376 l 1.3079213265503251 1.482259111458428" fill="#ff1302" stroke="none" /><path d="M 86.37877921826538 84.01681056812374 l -1.2805167952052452 -1.5025630107919121 a22.97418815319178,22.97418815319178 0 0,0 0.30319633767335225,-0.25391821334155235 l 1.2544629205727824 1.5243823815272768" fill="#ff1302" stroke="none" /><path d="M 86.65592168130627 83.78471172551755 l -1.4241674254739392 -1.7306017548500163 a23.241257524174994,23.241257524174994 0 0,0 0.31109707157775346,-0.2515521965313828 l 1.3941669553316853 1.7548600486455332" fill="#ff1702" stroke="none" /><path d="M 87.51073957382395 83.11751280151077 l -1.8705845019775302 -2.528581984097292 a24.145284284343774,24.145284284343774 0 0,0 0.3362572131869412,-0.24430516572887853 l 1.8267819724368073 2.5604063846428384" fill="#ff2403" stroke="none" /><path d="M 87.80319425747018 82.90503203632743 l -0.7250065114699752 -1.016164670378895 a22.248288860400553,22.248288860400553 0 0,0 0.31366788233868276,-0.2197443967720574 l 0.7074074895476322 1.0284939099148949" fill="#ff0901" stroke="none" /><line stroke="#e1ed5e" stroke-width="0.3" x1="56.762969772571076" x2="54.21961505331055" y1="26.818313649435495" y2="22.513508569990535" /><path d="M 56.25429882871897 25.957352633546506 a86.0,86.0 0 0,1 42.265352541879196,-11.944610805530505" fill="none" id="id12" stroke="none" /><text fill="#e1ed5e" style="font-size:6.75px; font-family:Arial;" text-anchor="middle"><textPath startOffset="22.20632615414155" xlink:href="#id12">December</textPath></text><path d="M 89.63071344664047 81.73862282372117 l -1.0706604335828078 -1.8855428389178186 a23.16831399050829,23.16831399050829 0 0,0 0.348491061257937,-0.19393489828677685 l 1.038045283252825 1.9036931347647799" fill="#ff1602" stroke="none" /><path d="M 89.94658935756843 81.56283822128135 l -1.5131000257426208 -2.77490604474629 a24.160628931885523,24.160628931885523 0 0,0 0.3668445816153923,-0.19595567086654375 l 1.4651103975989233 2.800540442114583" fill="#ff2403" stroke="none" /><path d="M 90.91171255644093 81.06846463323043 l -0.7227940638542341 -1.5056303476014279 a22.67013592331921,22.67013592331921 0 0,0 0.35324582985283404,-0.16585365362535878 l 0.6967700227017916 1.5178489838667943" fill="#ff0f01" stroke="none" /><path d="M 92.23578459929587 80.48803036053334 l -0.5197434927818175 -1.306148622634745 a22.40575870002632,22.40575870002632 0 0,0 0.35957704204113505,-0.1395103059474378 l 0.4971832857410061 1.3149016324727343" fill="#ff0b01" stroke="none" /><path d="M 92.91201910852362 80.23233633223022 l -0.4210452531564721 -1.1742527358273507 a22.247456850076833,22.247456850076833 0 0,0 0.36159320889317903,-0.12615277051405838 l 0.4007700402000078 1.1813263595136188" fill="#ff0901" stroke="none" /><path d="M 93.25333710446033 80.11325718540243 l -0.6020218749611022 -1.7745445980454007 a22.873883365736457,22.873883365736457 0 0,0 0.3739522419752829,-0.12328617475697 l 0.57138681074341 1.7846444970616047" fill="#ff1202" stroke="none" /><path d="M 93.59665428221793 80.00007090966166 l -0.9350134027462917 -2.920379841667986 a24.066409705655122,24.066409705655122 0 0,0 0.39562269793945876,-0.12292189804240257 l 0.8846053320961043 2.936041874592914" fill="#ff2303" stroke="none" /><path d="M 93.94186890950719 79.89281104454417 l -0.4286077899437694 -1.4225670741434282 a22.485732720928457,22.485732720928457 0 0,0 0.37156043884851075,-0.10846868095797838 l 0.40405713337183735 1.4297340840201054" fill="#ff0c01" stroke="none" /><path d="M 94.63758080256005 79.69619591428918 l -0.8867907203617865 -3.3576683187781895 a24.47279920534524,24.47279920534524 0 0,0 0.4082192395537737,-0.10406417354277885 l 0.8288625921230134 3.3724354884898315" fill="#ff2903" stroke="none" /><path d="M 94.98787191387505 79.60689891045804 l -0.4851364844770805 -1.9738995492860734 a23.032642821363986,23.032642821363986 0 0,0 0.3858256272003943,-0.09131246043227498 l 0.4510871703141522 1.9819579218592194" fill="#ff1402" stroke="none" /><path d="M 98.19473922651362 79.07773832637324 l -0.06641477145277187 -0.7697210551168567 a21.772581014882796,21.772581014882796 0 0,0 0.3736691333651022,-0.029003916446276763 l 0.05315544872533548 0.7707502337515957" fill="#ff0200" stroke="none" /><path d="M 99.63851952072746 79.00311137660856 l -0.02043909762499361 -1.1872216647999099 a22.18739759056602,22.18739759056602 0 0,0 0.38191957689752903,-0.003287302374670597 l 2.908285317203916e-16 1.1873975905660217" fill="#ff0801" stroke="none" /></svg>