<?xml version="1.0" encoding="utf-8" ?>
<svg baseProfile="full" height="200mm" version="1.1" viewBox="0,0,200,200" width="200mm" xmlns="http://www.w3.org/2000/svg" xmlns:ev="http://www.w3.org/2001/xml-events" xmlns:xlink="http://www.w3.org/1999/xlink"><defs /><rect fill="#1a1a1a" height="200" width="200" x="0" y="0" /><rect fill="#1a1a1a" height="200" width="180" x="10" y="0" /><text alignment-baseline="middle" fill="#e1ed5e" style="dominant-baseline: central; font-size:9.0px; font-family:Arial;" text-anchor="middle" x="100.0" y="100.0">2017</text><line stroke="#e1ed5e" stroke-width="0.3" x1="100.0" x2="100.0" y1="15.0" y2="10.0" /><path d="M 100.0 14.0 a86.0,86.0 0 0,1 42.46469731375804,11.215312516191453" fill="none" id="id49" stroke="none" /><text fill="#e1ed5e" style="font-size:6.75px; font-family:Arial;" text-anchor="middle"><textPath startOffset="22.20632615414155" xlink:href="#id49">January</textPath></text><line stroke="#e1ed5e" stroke-width="0.3" x1="143.23703022742887" x2="145.7803849466894" y1="26.81831364943548" y2="22.513508569990506" /><path d="M 143.74570117128098 25.957352633546492 a86.0,86.0 0 0,1 28.547481713284135,27.462654790039103" fill="none" id="id50" stroke="none" /><text fill="#e1ed5e" style="font-size:6.75px; font-family:Arial;" text-anchor="middle"><textPath startOffset="19.985693538727396" xlink:href="#id50">February</textPath></text><line stroke="#e1ed5e" stroke-width="0.3" x1="172.23445277983987" x2="176.4835382374775" y1="55.19839476539836" y2="52.563006222186495" /><path d="M 173.08426987136738 54.67131705675599 a86.0,86.0 0 0,1 12.851231095245387,41.99856678651699" fill="none" id="id51" stroke="none" /><text fill="#e1ed5e" style="font-size:6.75px; font-family:Arial;" text-anchor="middle"><textPath startOffset="22.20632615414155" xlink:href="#id51">March</textPath></text><path d="M 117.84615892207809 88.93136811851018 l 4.726076907205349 -2.931230510603039 a26.561287192647924,26.561287192647924 0 0,0 0.23764029717528568,0.39061816524722315 l -4.775833002666859 2.8494445721487343" fill="#ff4106" stroke="none" /><path d="M 118.03404312379186 89.2402003453031 l 3.210437383825462 -1.9154696934454276 a24.7384398272504,24.7384398272504 0 0,0 0.2150363266267861,0.3675667872545938 l -3.242933384922575 1.8599234938369384" fill="#ff2703" stroke="none" /><path d="M 118.21658344932153 89.55222093294921 l 2.2681624204489688 -1.300861927428032 a23.614728001106176,23.614728001106176 0 0,0 0.19919850563588462,0.3543519143596723 l -2.2902185673772864 1.2616265031335656" fill="#ff1702" stroke="none" /><path d="M 118.3937258080291 89.86733742301442 l 19.239735339418143 -10.598708945619448 a42.96588371190217,42.96588371190217 0 0,0 0.3512806782502327,0.6508697465086785 l -19.41932411688684 10.265958215778312" fill="#e8ff1a" stroke="none" /><path d="M 119.61058180528143 92.48833698450437 l 17.97564434002092 -6.885414421120018 a40.24922650886247,40.24922650886247 0 0,0 0.24225321652756976,0.6491181795722544 l -18.091502145050114 6.57497310451843" fill="#fff517" stroke="none" /><path d="M 120.08093135843002 93.85539295169968 l 3.504735093078002 -1.0724213718459836 a24.66514060732252,24.66514060732252 0 0,0 0.1207348095877829,0.40705775744108735 l -3.522675799777487 1.0119342276583665" fill="#ff2603" stroke="none" /><path d="M 120.28053869075195 94.5502522615342 l 11.050881431893053 -2.9695718151202555 a32.442916463337276,32.442916463337276 0 0,0 0.14028265808077958,0.540566306482941 l -11.100360421844137 2.7789090830884637" fill="#ff910d" stroke="none" /><path d="M 120.45610955862082 95.25157060432595 l 2.947757357282472 -0.6842560970121369 a24.026132819905833,24.026132819905833 0 0,0 0.09004721483624532,0.40366400762642207 l -2.959098959120755 0.6334139198357509" fill="#ff1d02" stroke="none" /><path d="M 120.53481517161879 95.60439243477599 l 6.828979924042966 -1.4617865106657237 a27.983680018854397,27.983680018854397 0 0,0 0.09677116885041138,0.4718905868957075 l -6.853130388808374 1.3440202676066044" fill="#ff5507" stroke="none" /><path d="M 120.6074358757038 95.95851677861258 l 2.6498166091842266 -0.5196759766894598 a23.70029464745178,23.70029464745178 0 0,0 0.0750670448380139,0.40101115518268093 l -2.6583693779321 0.4739867440442161" fill="#ff1802" stroke="none" /><path d="M 120.67395015179393 96.31383870115 l 9.00279319349792 -1.605196278783837 a30.144776671866513,30.144776671866513 0 0,0 0.08668509276679169,0.5116203244713535 l -9.029090147784936 1.4499901659966457" fill="#ff730a" stroke="none" /><path d="M 120.78858239683441 97.02765380044208 l 14.383728293054048 -2.056581796257695 a35.53000923238186,35.53000923238186 0 0,0 0.08135357130499704,0.6061786006778835 l -14.416997863416881 1.8086848535151472" fill="#ffba11" stroke="none" /><path d="M 120.87857604477298 97.74499172005257 l 2.5928950780639366 -0.2800478278561975 a23.60797463019393,23.60797463019393 0 0,0 0.04015927193388342,0.40439838785665116 l -2.5973314756800487 0.23537390929511132" fill="#ff1702" stroke="none" /><path d="M 120.96714384426684 98.82574320788733 l 9.223080892515666 -0.5165350828268613 a30.23753374238376,30.23753374238376 0 0,0 0.024631195154766004,0.519925599880336 l -9.230605695903929 0.3576983763235255" fill="#ff740a" stroke="none" /><line stroke="#e1ed5e" stroke-width="0.3" x1="184.98032266829074" x2="189.97916517819016" y1="98.17113171792111" y2="98.06355123074" /><path d="M 185.9800911702706 98.14961562048488 a86.0,86.0 0 0,1 -9.607161424134198,41.387399972396054" fill="none" id="id52" stroke="none" /><text fill="#e1ed5e" style="font-size:6.75px; font-family:Arial;" text-anchor="middle"><textPath startOffset="21.466115282336823" xlink:href="#id52">April</textPath></text><path d="M 120.99980553446 99.90962569577887 l 34.86663664710121 -0.15005129558661676 a55.86695952434465,55.86695952434465 0 0,0 -0.00413868477901183,0.9616845880775702 l -34.86405366503269 -0.45014277069463815" fill="#5aff2a" stroke="none" /><path d="M 120.99824983174949 100.27111621757518 l 13.485824679724663 0.17412050086768643 a34.48694870017282,34.48694870017282 0 0,0 -0.012773205960728942,0.5935206896460151 l -13.480829411078927 -0.4062310063038164" fill="#ffac0f" stroke="none" /><path d="M 120.89721153311464 102.0752229133903 l 8.76294555431909 0.8702149267282757 a29.806048421775877,29.806048421775877 0 0,0 -0.05509534290864497,0.5101144491841075 l -8.746667909909394 -1.0209256977971746" fill="#ff6e0a" stroke="none" /><path d="M 120.81339534386255 102.79330883721812 l 3.5424731189545784 0.47542562399370075 a24.574233529369,24.574233529369 0 0,0 -0.0598744751938009,0.4187619400521687 l -3.533764592744176 -0.5363330360262788" fill="#ff2503" stroke="none" /><path d="M 120.70491114924044 103.5080841355445 l 3.184963948505743 0.5396362930272247 a24.23035643266087,24.23035643266087 0 0,0 -0.0732143961448503,0.41062521511594047 l -3.175203110021704 -0.5943802588763835" fill="#ff2003" stroke="none" /><path d="M 120.49622156327973 104.57218783832717 l 56.48978916370882 12.601441012264598 a78.87825667161943,78.87825667161943 0 0,0 -0.3070220981296556,1.3226431632277078 l -56.26450649964861 -13.571952832840871" fill="#47fffc" stroke="none" /><path d="M 119.26925614724726 108.34839909993367 l 2.3809488943925436 1.031545351571568 a23.594803162102664,23.594803162102664 0 0,0 -0.16466803606747138,0.3712829502402104 l -2.3628397735937994 -1.072376638304466" fill="#ff1702" stroke="none" /><path d="M 118.97047184881838 109.00673069616215 l 2.32665865007283 1.1046424174424225 a23.57557281868942,23.57557281868942 0 0,0 -0.1772060663272755,0.36509698333726953 l -2.3072993271308397 -1.1445283567449676" fill="#ff1702" stroke="none" /><line stroke="#e1ed5e" stroke-width="0.3" x1="174.80103733775053" x2="179.2010983576182" y1="140.37084112569926" y2="142.7455964860345" /><path d="M 175.68104954172406 140.8457921977663 a86.0,86.0 0 0,1 -30.038265399797805,32.042727171017184" fill="none" id="id53" stroke="none" /><text fill="#e1ed5e" style="font-size:6.75px; font-family:Arial;" text-anchor="middle"><textPath startOffset="22.206326154141568" xlink:href="#id53">May</textPath></text><path d="M 117.14729908036423 112.12312394758627 l 1.9762859235476464 1.3972322460085767 a23.42032311911008,23.42032311911008 0 0,0 -0.2355640719928048,0.3271778929820401 l -1.9519420591792387 -1.4310437444417479" fill="#ff1402" stroke="none" /><path d="M 116.93607887273984 112.41649034213515 l 2.492860339710212 1.827611725529016 a24.091038222441007,24.091038222441007 0 0,0 -0.2480674090105126,0.33232683296618887 l -2.4610316640046075 -1.8702514380045199" fill="#ff1e03" stroke="none" /><path d="M 116.71984013943494 112.70617746262583 l 1.9720324150337558 1.498638361282581 a23.476858652376354,23.476858652376354 0 0,0 -0.24728195652574544,0.31964526275271843 l -1.945943641289942 -1.5323616181485522" fill="#ff1502" stroke="none" /><path d="M 116.0416608686014 113.55231037782055 l 11.37648557782119 9.61107860478502 a35.892859230172355,35.892859230172355 0 0,0 -0.4027819585957965,0.4685264138838939 l -11.209361109654616 -9.805482117830442" fill="#ffbe11" stroke="none" /><path d="M 115.56566222782051 114.09645910891815 l 1.7839675240384736 1.615583383872994 a23.406792429161783,23.406792429161783 0 0,0 -0.2730275182296057,0.29631744744848937 l -1.755893597813146 -1.646052086122818" fill="#ff1402" stroke="none" /><path d="M 114.81725581225074 114.88116024355365 l 4.040456468031442 4.057882304236568 a26.726403519233813,26.726403519233813 0 0,0 -0.32879845819132364,0.32179849424228946 l -3.9700080574643244 -4.12683090140143" fill="#ff4306" stroke="none" /><path d="M 114.29624159901734 115.38237550388516 l 5.79855508716081 6.239090960578199 a29.51759925760816,29.51759925760816 0 0,0 -0.37515526383391334,0.34269543866682756 l -5.690300273860032 -6.33797916583161" fill="#ff6a09" stroke="none" /><path d="M 114.0293411484842 115.62618273729858 l 21.946858300523584 24.4448840956892 a53.851437528895744,53.851437528895744 0 0,0 -0.6950878071038267,0.6133341732955782 l -21.52282814051317 -24.81904141075707" fill="#6fff28" stroke="none" /><path d="M 113.48314897796784 116.09983520530334 l 1.602625704404633 1.9136486423801733 a23.4960889957896,23.4960889957896 0 0,0 -0.31230763338558326,0.25700792048090515 l -1.5694479424743586 -1.9409516817182568" fill="#ff1502" stroke="none" /><path d="M 112.92097659922987 116.55440617244103 l 3.1274408192045837 4.006889510539799 a26.082917432666097,26.082917432666097 0 0,0 -0.356306651833721,0.27320074693102675 l -3.0580054388773688 -4.060129599298197" fill="#ff3a05" stroke="none" /><path d="M 112.34349029814194 116.9893568818739 l 6.010075290909845 8.272158971078838 a31.22495080893816,31.22495080893816 0 0,0 -0.4375547482063507,0.31218369504612165 l -5.86679321485461 -8.374386927969178" fill="#ff810b" stroke="none" /><path d="M 112.04921762599082 117.19931262002967 l 6.966958214924279 9.94478613206333 a33.14237530226191,33.14237530226191 0 0,0 -0.4700584910011094,0.3233105163327226 l -6.794742839300286 -10.063237437761146" fill="#ff9b0e" stroke="none" /><path d="M 111.1453310114006 117.79835938074945 l 2.547558399939493 4.068282933830254 a25.800102064622873,25.800102064622873 0 0,0 -0.3784270514177729,0.23246080322055337 l -2.4771521485894117 -4.111532203879185" fill="#ff3605" stroke="none" /><line stroke="#e1ed5e" stroke-width="0.3" x1="143.8653032363475" x2="146.44561519142675" y1="172.8068346515853" y2="177.08958963109032" /><path d="M 144.38136562736335 173.6633856474863 a86.0,86.0 0 0,1 -40.68145358897372,12.25698825130547" fill="none" id="id54" stroke="none" /><text fill="#e1ed5e" style="font-size:6.75px; font-family:Arial;" text-anchor="middle"><textPath startOffset="21.466115282336833" xlink:href="#id54">June</textPath></text><path d="M 110.5260780823613 118.17145234162733 l 1.3024304145581673 2.248420733842826 a23.59840735473491,23.59840735473491 0 0,0 -0.35324706907889347,0.20058290500518752 l -1.2635345785580747 -2.270506804642642" fill="#ff1702" stroke="none" /><path d="M 109.89434966115114 118.52300852407294 l 1.1832915337802083 2.2152157460871567 a23.51144573017782,23.51144573017782 0 0,0 -0.3586157124824065,0.18761079154550736 l -1.1449849187713064 -2.235255956577381" fill="#ff1602" stroke="none" /><path d="M 109.2508944713604 118.85261126421891 l 1.240076278745082 2.527180057402842 a23.815036095619536,23.815036095619536 0 0,0 -0.3695723130799812,0.177417169150871 l -1.196391297664868 -2.548151503053273" fill="#ff1a02" stroke="none" /><path d="M 108.92500713936063 119.00905698771935 l 2.6109370062083297 5.560942368715572 a27.143376276817502,27.143376276817502 0 0,0 -0.42464132427913975,0.1949320046348301 l -2.5148276861617704 -5.605061443684477" fill="#ff4906" stroke="none" /><path d="M 108.2653958097858 119.30500536409082 l 1.0213175716870813 2.3854321866251036 a23.594875006474073,23.594875006474073 0 0,0 -0.3747411535356729,0.15664183257031872 l -0.9801049586539473 -2.4026590622153954" fill="#ff1702" stroke="none" /><path d="M 107.93186726928326 119.44442032107085 l 6.56184539246254 16.085907083572906 a38.37280120348825,38.37280120348825 0 0,0 -0.6137435798803339,0.24422123665832388 l -6.2839807365403395 -16.1964751646373" fill="#ffde14" stroke="none" /><path d="M 107.59598834532513 119.57807347666477 l 0.8372435841112295 2.157930694783631 a23.314658009863397,23.314658009863397 0 0,0 -0.3753990555202286,0.1419438011774519 l -0.7999743078307261 -2.1720227460677135" fill="#ff1302" stroke="none" /><path d="M 106.57524785965236 119.94407469862006 l 0.9440673847476558 2.863549913832998 a24.015158592173428,24.015158592173428 0 0,0 -0.39370983321624825,0.1260534556490936 l -0.8946362064404672 -2.879376216141798" fill="#ff1d02" stroke="none" /><path d="M 106.2309692047433 120.05430185196036 l 1.4959840126479766 4.8148071302472975 a26.041858374407056,26.041858374407056 0 0,0 -0.4292256616888162,0.12932217087504805 l -1.4128833765189146 -4.8398446702280715" fill="#ff3a05" stroke="none" /><path d="M 105.18746579009965 120.34920634021253 l 1.484959035344644 5.825144500164618 a27.0114400757597,27.0114400757597 0 0,0 -0.4515370149024301,0.11097681242202527 l -1.3844687356990029 -5.849842570900674" fill="#ff4706" stroke="none" /><path d="M 104.13013068566511 120.58985236759428 l 0.5906414476919793 2.9445122045094796 a24.00316656917943,24.00316656917943 0 0,0 -0.40580483261373773,0.07777346199406461 l -0.5398690005065373 -2.9542428648520125" fill="#ff1d02" stroke="none" /><path d="M 103.06178313531738 120.77559828337769 l 1.503034718072332 10.198777682340246 a31.308936879112814,31.308936879112814 0 0,0 -0.533849292226025,0.07398664745669775 l -1.3272568346594764 -10.223138895289546" fill="#ff820c" stroke="none" /><path d="M 102.70371172650421 120.8252237178851 l 1.369406006073488 10.54779108199112 a31.636313718521166,31.636313718521166 0 0,0 -0.5406383537771743,0.06546377551034593 l -1.1876402292449335 -10.569800386226817" fill="#ff870c" stroke="none" /><path d="M 101.98527174616119 120.90594882070398 l 0.24472977299674864 2.5771323845542304 a23.58872632568783,23.58872632568783 0 0,0 -0.4045530392112456,0.03490653849355838 l -0.2003324160439614 -2.580963175326452" fill="#ff1702" stroke="none" /><path d="M 101.26447882468166 120.96189622390904 l 0.20452644528534197 3.3905369053496655 a24.396700100591623,24.396700100591623 0 0,0 -0.4194047536976971,0.021678435154364198 l -0.1461336231741653 -3.3935551472662313" fill="#ff2203" stroke="none" /><path d="M 100.90346689309514 120.98055641714683 l 0.7825275823470444 18.172070515124833 a39.188911353453875,39.188911353453875 0 0,0 -0.674197910096621,0.023220739211093733 l -0.46960932057577115 -18.182848052762022" fill="#ffe815" stroke="none" /><line stroke="#e1ed5e" stroke-width="0.3" x1="102.19456741930631" x2="102.32365962044197" y1="184.97166512339345" y2="189.96999836594603" /><path d="M 102.22038585953345 185.97133177190398 a86.0,86.0 0 0,1 -42.740103519485714,-10.115201625700543" fill="none" id="id55" stroke="none" /><text fill="#e1ed5e" style="font-size:6.75px; font-family:Arial;" text-anchor="middle"><textPath startOffset="22.20632615414155" xlink:href="#id55">July</textPath></text><path d="M 99.81925306533755 120.99922214144158 l -0.09632162500089364 11.190669452822693 a32.191083980463276,32.191083980463276 0 0,0 -0.5540550179328484,-0.009538559594138678 l 0.2889363328264099 -11.187353415949394" fill="#ff8e0d" stroke="none" /><path d="M 98.73552117531835 120.96189622390904 l -0.17466236790378603 2.895465197800492 a23.900728469615107,23.900728469615107 0 0,0 -0.41045203479306763,-0.02830717544314676 l 0.2244771634757837 -2.89202967784106" fill="#ff1b02" stroke="none" /><path d="M 98.01472825383883 120.90594882070398 l -0.09621905601078432 1.0132369356626085 a22.017795261597616,22.017795261597616 0 0,0 -0.3769943557467774,-0.039077006410071516 l 0.11364600836315505 -1.0114305607967764" fill="#ff0000" stroke="none" /><path d="M 97.65516085044442 120.86867818915974 l -1.0049669724138586 8.944038801985148 a30.000321589091058,30.000321589091058 0 0,0 -0.5126806056173403,-0.06207848155826009 l 1.1587750010825884 -8.92541479170154" fill="#ff710a" stroke="none" /><path d="M 97.2962882734958 120.8252237178851 l -0.6704278145800228 5.163941513607257 a26.207280039571422,26.207280039571422 0 0,0 -0.4468608421395515,-0.06193084091527211 l 0.7592172479064053 -5.15163610719938" fill="#ff3c05" stroke="none" /><path d="M 96.58105272829116 120.7198165907248 l -0.4704966245129661 2.851346625650433 a23.88990391765647,23.88990391765647 0 0,0 -0.40516256436701215,-0.0704427052179939 l 0.5195081603520282 -2.842825341911433" fill="#ff1b02" stroke="none" /><path d="M 95.51606077576429 120.51570834832081 l -6.778116269665366 31.012431164957473 a52.74450735050598,52.74450735050598 0 0,0 -0.8853036224406383,-0.20149222216634766 l 7.310940041498867 -30.89116220921344" fill="#7aff26" stroke="none" /><path d="M 93.08242187328487 119.8279376855182 l -3.158067627556898 9.052007361366101 a30.587086544433035,30.587086544433035 0 0,0 -0.4956279642093452,-0.17771455436713784 l 3.31341515239597 -8.996305265959005" fill="#ff790b" stroke="none" /><path d="M 91.7346041902142 119.30500536409082 l -1.010162198132881 2.359377227944566 a23.566532401954053,23.566532401954053 0 0,0 -0.37154245944263714,-0.16287329559325558 l 1.0506253322332615 -2.341639379056858" fill="#ff1602" stroke="none" /><path d="M 91.07499286063937 119.00905698771935 l -6.62235886817349 14.104727890139992 a36.5820084018001,36.5820084018001 0 0,0 -0.5676958627264459,-0.2725285129294621 l 6.864167398900178 -13.988645100710967" fill="#ffc712" stroke="none" /><path d="M 90.10565033884886 118.52300852407294 l -1.5345715552869024 2.87283985030221 a24.257010694452827,24.257010694452827 0 0,0 -0.36660104031798824,-0.19990011719230458 l 1.5837954074735312 -2.8459990813501395" fill="#ff2003" stroke="none" /><line stroke="#e1ed5e" stroke-width="0.3" x1="58.666819895761336" x2="56.23545636021788" y1="174.27360380694188" y2="178.64263932499728" /><path d="M 58.180547188652646 175.14741091055294 a86.0,86.0 0 0,1 -31.652253787137756,-30.449443065178592" fill="none" id="id56" stroke="none" /><text fill="#e1ed5e" style="font-size:6.75px; font-family:Arial;" text-anchor="middle"><textPath startOffset="22.20632615414155" xlink:href="#id56">August</textPath></text><path d="M 89.7882731507175 118.34994917583269 l -2.132298665963221 3.831631292690735 a25.384985286633857,25.384985286633857 0 0,0 -0.3799905441209697,-0.21576854809590293 l 2.1979379770053984 -3.794359578800199" fill="#ff3104" stroke="none" /><path d="M 89.4739219176387 118.17145234162733 l -1.6848655126223953 2.908628752809066 a24.361382605014185,24.361382605014185 0 0,0 -0.3610497606119383,-0.2133145625861059 l 1.7346831442627157 -2.8791956179292106" fill="#ff2203" stroke="none" /><path d="M 88.24862548938628 117.40417183066458 l -2.4032014808986717 3.5592203686038197 a25.29458111928019,25.29458111928019 0 0,0 -0.35875318298692527,-0.24675371054457887 l 2.464111548508487 -3.5173258686941393" fill="#ff2f04" stroke="none" /><path d="M 87.65650970185807 116.9893568818739 l -2.705809550489869 3.72422734553249 a25.603398162741755,25.603398162741755 0 0,0 -0.3543205864024034,-0.26211789921161965 l 2.769515107310837 -3.6770994975811035" fill="#ff3404" stroke="none" /><path d="M 87.36589467227662 116.77436683061367 l -2.2289104552959835 2.959335911794418 a24.704822648462926,24.704822648462926 0 0,0 -0.3374811374051174,-0.25876614522828956 l 2.279520321194588 -2.920530424738762" fill="#ff2703" stroke="none" /><path d="M 87.07902340077011 116.55440617244103 l -2.2851637924038637 2.9277608623069558 a24.713994779879204,24.713994779879204 0 0,0 -0.3331005260698635,-0.26463520359281284 l 2.335221811191085 -2.887991744709012" fill="#ff2703" stroke="none" /><path d="M 86.51685102203217 116.09983520530335 l -4.505850076063063 5.380304245169923 a28.017859978551225,28.017859978551225 0 0,0 -0.36708002631092623,-0.3128335620532744 l 4.597795578951046 -5.301946292893698" fill="#ff5507" stroke="none" /><path d="M 86.24171649860922 115.8653595955263 l -4.551448011509536 5.248500612423228 a27.94711722083924,27.94711722083924 0 0,0 -0.3607276112821175,-0.31830017587628057 l 4.641117975698242 -5.169377294774659" fill="#ff5407" stroke="none" /><path d="M 84.67929136418377 114.36230785411682 l -11.941689087775384 11.194665929213404 a37.36839893012707,37.36839893012707 0 0,0 -0.43588207358967546,-0.47306390312652746 l 12.132617569360788 -10.987450771285532" fill="#ffd113" stroke="none" /><path d="M 84.43433777217949 114.09645910891817 l -4.813474111261868 4.359142578589789 a27.49397082225218,27.49397082225218 0 0,0 -0.3146634559597672,-0.35352772849519526 l 4.887796416869974 -4.275640680353729" fill="#ff4e07" stroke="none" /><path d="M 83.50135304334701 112.99209946851258 l -2.068287138355358 1.6287027840257118 a23.63258132740079,23.63258132740079 0 0,0 -0.24892218481717265,-0.32176547892438684 l 2.0960161403905992 -1.5928593109880722" fill="#ff1702" stroke="none" /><path d="M 83.06392112726016 112.41649034213515 l -16.84544620289165 12.35004404849729 a41.88761943770376,41.88761943770376 0 0,0 -0.42131007973920614,-0.585162851936856 l 17.055536075006465 -12.058247591109296" fill="#f5ff19" stroke="none" /><path d="M 82.85270091963577 112.12312394758628 l -1.325461468549767 0.9370999826660306 a22.623269688660137,22.623269688660137 0 0,0 -0.2220733471736569,-0.31991321961653957 l 1.3413957228855578 -0.9141455008624785" fill="#ff0901" stroke="none" /><line stroke="#e1ed5e" stroke-width="0.3" x1="26.63291911575756" x2="22.317208475507996" y1="142.92168965132927" y2="145.44649492493687" /><path d="M 25.769776987707644 143.4266507060508 a86.0,86.0 0 0,1 -11.730757126820373,-40.83630448921669" fill="none" id="id57" stroke="none" /><text fill="#e1ed5e" style="font-size:6.75px; font-family:Arial;" text-anchor="middle"><textPath startOffset="21.46611528233685" xlink:href="#id57">September</textPath></text><path d="M 81.87401531095188 110.60418214915194 l -3.625851507903442 2.1212193707090923 a25.20075835725374,25.20075835725374 0 0,0 -0.2158240993332563,-0.3763075090550089 l 3.6618276033890753 -2.0584920157957765" fill="#ff2e04" stroke="none" /><path d="M 81.51974371655577 109.97397251340807 l -5.301389219869056 2.8612108809995958 a27.024222386839178,27.024222386839178 0 0,0 -0.21741307568711246,-0.4112636049431986 l 5.349854803781054 -2.769532260970271" fill="#ff4806" stroke="none" /><path d="M 81.35079622478065 109.6543875284942 l -3.7309661500237223 1.931460104258492 a25.201267254884538,25.201267254884538 0 0,0 -0.19611545799357286,-0.38695440409964554 l 3.763660277803562 -1.8669514884561613" fill="#ff2e04" stroke="none" /><path d="M 81.18737489456691 109.33194174019688 l -2.345186508777295 1.163322170465461 a23.617865205324275,23.617865205324275 0 0,0 -0.1775239575415704,-0.36575193339498485 l 2.3648637229335843 -1.1227812811051914" fill="#ff1702" stroke="none" /><path d="M 81.02952815118164 109.00673069616217 l -3.6630952467760385 1.7391508585042657 a25.05498612766916,25.05498612766916 0 0,0 -0.1816192792074888,-0.39119176980333736 l 3.6924891428233537 -1.6758390214221013" fill="#ff2c04" stroke="none" /><path d="M 80.73074385275274 108.34839909993369 l -2.3066699075786636 0.9993640041483818 a23.51385251661995,23.51385251661995 0 0,0 -0.1577096693026063,-0.3727790715481753 l 2.3235305580735766 -0.9595104069340477" fill="#ff1602" stroke="none" /><path d="M 80.58989483394504 108.01547362559985 l -4.965163612795751 2.050382398481422 a26.37186352040271,26.37186352040271 0 0,0 -0.16965570565558893,-0.42107154807401376 l 4.999721932708727 -1.9646114825646028" fill="#ff3e05" stroke="none" /><path d="M 80.32549172779594 107.34259656027581 l -3.936829328068619 1.4692387267186975 a25.202057542970014,25.202057542970014 0 0,0 -0.14818298472890862,-0.4077359319144126 l 3.9615365738027517 -1.4012549977981679" fill="#ff2e04" stroke="none" /><path d="M 80.20201598880116 107.00284435728193 l -2.381606746601567 0.8424100836362604 a23.526203761470985,23.526203761470985 0 0,0 -0.13175701311651883,-0.3829475542073354 l 2.3957545906613142 -0.8012898263396281" fill="#ff1602" stroke="none" /><path d="M 79.97269907076064 106.31721596034903 l -4.015564482838183 1.2666303927036222 a25.21059504910553,25.21059504910553 0 0,0 -0.12698123835166014,-0.4149820340185078 l 4.036772493695974 -1.1973213861330665" fill="#ff2e04" stroke="none" /><path d="M 79.86692584326677 105.97154293290107 l -3.848573529798922 1.1415008897652583 a25.014292278298107,25.014292278298107 0 0,0 -0.11888621678367725,-0.41385851703037074 l 3.8676523834687035 -1.0750848972302915" fill="#ff2b04" stroke="none" /><path d="M 79.67330655649465 105.27499134158121 l -12.28411856799457 3.187858333438505 a33.69102083154158,33.69102083154158 0 0,0 -0.14084240185042093,-0.5625953841859126 l 12.337172284140049 -2.9759351098552007" fill="#ffa20f" stroke="none" /><path d="M 79.50377843672027 104.57218783832718 l -1.1886304608938978 0.26515334647342065 a22.217845913780103,22.217845913780103 0 0,0 -0.08005403183516321,-0.37398578537439625 l 1.1930185314535016 -0.24465374168286064" fill="#ff0300" stroke="none" /><path d="M 79.29508885075956 103.50808413554451 l -3.6171331191839284 0.6128597809523695 a24.66868492964526,24.66868492964526 0 0,0 -0.06733170201815866,-0.41927457274020935 l 3.6271465755633776 -0.5505059785189464" fill="#ff2603" stroke="none" /><path d="M 79.23777060512086 103.15116336523772 l -4.496138850773908 0.6823962765325784 a25.547628969437156,25.547628969437156 0 0,0 -0.06224612764271803,-0.4353492717560847 l 4.507219029433225 -0.6049015327960932" fill="#ff3304" stroke="none" /><path d="M 79.18660465613746 102.79330883721812 l -2.8001390461509823 0.37579899933816013 a23.825243983390266,23.825243983390266 0 0,0 -0.05105238195610354,-0.40693771507680127 l 2.806192937353934 -0.32754352997395025" fill="#ff1a02" stroke="none" /><path d="M 79.07016306316243 101.71520430193888 l -2.538105063916844 0.20799821506210012 a23.546613549981494,23.546613549981494 0 0,0 -0.029627741037690593,-0.4042469871094145 l 2.5413093636188697 -0.16427809145592498" fill="#ff1602" stroke="none" /><path d="M 79.04373962182676 101.35467743843564 l -2.773863173188524 0.1793110884392222 a23.779652742701643,23.779652742701643 0 0,0 -0.02288921697891986,-0.4087023452648861 l 2.7765387410549756 -0.1315370268388985" fill="#ff1a02" stroke="none" /><path d="M 79.0235259727143 100.99374915477108 l -4.234248641073912 0.20059524792796 a25.23899752393506,25.23899752393506 0 0,0 -0.01682343496709111,-0.43413810324774954 l 4.237074208892205 -0.12767989766621368" fill="#ff2e04" stroke="none" /><line stroke="#e1ed5e" stroke-width="0.3" x1="15.007084014347285" x2="10.007500721073583" y1="101.09737516637583" y2="101.16192664675087" /><path d="M 14.007167355692545 101.11028546245083 a86.0,86.0 0 0,1 10.666146001902534,-42.60595125391555" fill="none" id="id58" stroke="none" /><text fill="#e1ed5e" style="font-size:6.75px; font-family:Arial;" text-anchor="middle"><textPath startOffset="22.20632615414155" xlink:href="#id58">October</textPath></text><path d="M 79.00175016825051 100.2711162175752 l -13.781643171150446 0.17793992349228793 a34.78279184756449,34.78279184756449 0 0,0 -0.002576746835995646,-0.5987452178337634 l 13.782664215275945 0.05931477254515091" fill="#ffb010" stroke="none" /><path d="M 79.00019446554 99.90962569577889 l -6.68663142800674 -0.028776440900728763 a27.686693348551163,27.686693348551163 0 0,0 0.006153028609127641,-0.47655884665235926 l 6.685145392279897 0.14387154561356" fill="#ff5107" stroke="none" /><path d="M 79.00486145842228 99.54816195383935 l -9.301381021703252 -0.20017576064665074 a30.30353477158289,30.30353477158289 0 0,0 0.015712102174618027,-0.5214081786436953 l 9.296557225072988 0.3602540867153404" fill="#ff750a" stroke="none" /><path d="M 79.03285615573316 98.82574320788736 l -5.379592530894962 -0.3012820017414607 a26.388022516938307,26.388022516938307 0 0,0 0.029302528078916132,-0.45329713977490094 l 5.373609411811633 0.3938382057693734" fill="#ff3f05" stroke="none" /><path d="M 79.12142395522702 97.74499172005258 l -2.3833344126009957 -0.25741405078457835 a23.397195218548013,23.397195218548013 0 0,0 0.04669372344359355,-0.4000433070883461 l 2.378550336153813 0.29840109619778626" fill="#ff1402" stroke="none" /><path d="M 79.21141760316559 97.0276538004421 l -2.839568300518735 -0.40600075009045283 a23.86844639872961,23.86844639872961 0 0,0 0.06165345475671391,-0.40621923470132076 l 2.8321589523227186 0.45481909718386565" fill="#ff1b02" stroke="none" /><path d="M 79.26566170972629 96.67025291283419 l -2.961261562409605 -0.47555180800704944 a23.99920315469015,23.99920315469015 0 0,0 0.06901272397665377,-0.4073170034965326 l 2.952636976912728 0.52645459981941" fill="#ff1d02" stroke="none" /><path d="M 79.3925641242962 95.95851677861259 l -5.0321981105913425 -0.986903191319903 a26.128059646033428,26.128059646033428 0 0,0 0.09035419466047453,-0.4405991418035748 l 5.014464620015874 1.0733779892868802" fill="#ff3b05" stroke="none" /><path d="M 79.54389044137918 95.25157060432595 l -9.058798339427328 -2.102797905004968 a30.29965517552692,30.29965517552692 0 0,0 0.12230556772820608,-0.5070355383003786 l 9.021259971438308 2.2584186749647435" fill="#ff750a" stroke="none" /><path d="M 79.71946130924805 94.55025226153421 l -2.345896331137587 -0.6303847950114895 a23.429118067576475,23.429118067576475 0 0,0 0.10801183728114779,-0.3885760473238054 l 2.3346977232900783 0.6706721457542375" fill="#ff1502" stroke="none" /><path d="M 79.81627453868168 94.20196356495316 l -2.3956934491838378 -0.6881939576611583 a23.492580595652562,23.492580595652562 0 0,0 0.11499517842195363,-0.38770657447341245 l 2.383492373650177 0.72932991888111" fill="#ff1502" stroke="none" /><path d="M 80.2630227832202 92.82701384747504 l -9.052312093086165 -3.2898710161573215 a30.631594132519602,30.631594132519602 0 0,0 0.1843663307252831,-0.49401010517105576 l 8.994341173859254 3.4452042583577183" fill="#ff790b" stroke="none" /><path d="M 80.65960295795068 91.81776055985345 l -2.381606231256765 -1.0075735463920457 a23.585972291450567,23.585972291450567 0 0,0 0.16140587312736007,-0.3725470088014724 l 2.363909648286724 1.0484196997801172" fill="#ff1702" stroke="none" /><path d="M 81.10775173730289 90.83032412892265 l -9.185016807383855 -4.45810502926789 a31.209761711416558,31.209761711416558 0 0,0 0.2387397960499538,-0.48128486073688065 l 9.106916998380488 4.615549478503732" fill="#ff810b" stroke="none" /><path d="M 81.26839172434947 90.50648371742162 l -4.579986538435503 -2.3212196271020527 a26.134621431955253,26.134621431955253 0 0,0 0.20682512142487983,-0.3995203034789184 l 4.5393519838505085 2.3997126528413064" fill="#ff3b05" stroke="none" /><line stroke="#e1ed5e" stroke-width="0.3" x1="26.266209847984243" x2="21.928928074336255" y1="57.711370442889674" y2="55.22380399835377" /><path d="M 25.398753493254645 57.213857153982495 a86.0,86.0 0 0,1 29.58750427330803,-30.492523968695096" fill="none" id="id59" stroke="none" /><text fill="#e1ed5e" style="font-size:6.75px; font-family:Arial;" text-anchor="middle"><textPath startOffset="21.46611528233685" xlink:href="#id59">November</textPath></text><path d="M 81.78341655067845 89.55222093294921 l -7.120749909276667 -4.083972280027919 a29.208770240084693,29.208770240084693 0 0,0 0.25389421085459735,-0.43398750736816105 l 7.049396023951745 4.205939199749972" fill="#ff6609" stroke="none" /><path d="M 81.96595687620814 89.24020034530311 l -7.5184758860217125 -4.4858101806098905 a29.75499700886033,29.75499700886033 0 0,0 0.26621399333360596,-0.4375858087839607 l 7.440146094401889 4.614563762600926" fill="#ff6d0a" stroke="none" /><path d="M 82.15384107792192 88.93136811851018 l -7.831984179395377 -4.857591494163668 a30.216082210487855,30.216082210487855 0 0,0 0.27794824917283545,-0.43964738077501003 l 7.747208333976579 4.991686522652894" fill="#ff740a" stroke="none" /><path d="M 82.34701348167596 88.62581576622439 l -11.290003487629647 -7.2743826963767635 a34.43059277783506,34.43059277783506 0 0,0 0.32529264065446506,-0.49544300876203595 l 11.16311421161726 7.467643769116466" fill="#ffab0f" stroke="none" /><path d="M 83.6137871275137 86.86637796730984 l -2.6555184285658737 -2.1284097559960267 a24.4032199772968,24.4032199772968 0 0,0 0.2655320268097057,-0.32551086800843476 l 2.6184879096797755 2.1738047936125438" fill="#ff2303" stroke="none" /><path d="M 84.07557802195018 86.31012108654704 l -1.9223178662322136 -1.652574822380404 a23.53501667103023,23.53501667103023 0 0,0 0.2667393075493471,-0.3049291390805582 l 1.8935866951050229 1.6854195176639053" fill="#ff1602" stroke="none" /><path d="M 84.5562425177563 85.77008943001954 l -1.979969096140837 -1.8243476823436797 a23.692307948163716,23.692307948163716 0 0,0 0.278929178225008,-0.29754219955590594 l 1.948272595945373 1.8581592987776359" fill="#ff1802" stroke="none" /><path d="M 85.05521093208273 85.24692304244772 l -2.0163768526946475 -1.9905107223689238 a23.833356410328292,23.833356410328292 0 0,0 0.2907263178180468,-0.28947784661681664 l 1.9818147347092876 2.0249244196358496" fill="#ff1a02" stroke="none" /><path d="M 85.31137513191541 84.99185889309783 l -1.8831739640450549 -1.9241379526712654 a23.692331896287516,23.692331896287516 0 0,0 0.2939166408037451,-0.28274757558335045 l 1.8497740796288824 1.9562686150169293" fill="#ff1802" stroke="none" /><path d="M 85.57189188830299 84.74124197986013 l -16.23994973065047 -17.174910340347108 a44.637121492538306,44.637121492538306 0 0,0 0.5628360886340632,-0.5230948042924982 l 15.94190575822155 17.451909730714252" fill="#d5ff1c" stroke="none" /><path d="M 85.83668400450813 84.49514656593479 l -1.895595074507935 -2.075144253643461 a23.810605692716113,23.810605692716113 0 0,0 0.30499006238216425,-0.2738230893616569 l 1.8595940245297995 2.1074663517743963" fill="#ff1a02" stroke="none" /><path d="M 86.37877921826538 84.01681056812374 l -2.673949398443589 -3.1376218366481012 a25.12245996648213,25.12245996648213 0 0,0 0.33154763965509537,-0.27766161341146595 l 2.6195442218293836 3.1831846074533794" fill="#ff2d04" stroke="none" /><path d="M 86.65592168130627 83.78471172551755 l -4.91108474942847 -5.967789835348673 a28.728730098467654,28.728730098467654 0 0,0 0.3845499235350953,-0.3109459611774307 l 4.807631427328874 6.051441893790237" fill="#ff5f08" stroke="none" /><path d="M 87.51073957382395 83.11751280151077 l -2.1282842164213758 -2.8769302434573243 a24.57859208790102,24.57859208790102 0 0,0 0.34229163683507313,-0.2486894311412477 l 2.0784472632325213 2.91313890941524" fill="#ff2503" stroke="none" /><path d="M 87.80319425747018 82.90503203632743 l -4.233276222003728 -5.933333933833751 a28.28869529766235,28.28869529766235 0 0,0 0.3988286561639981,-0.2794049611032169 l 4.1305164262560705 6.005323737700911" fill="#ff5908" stroke="none" /><path d="M 88.09926311788651 82.69761687909137 l -5.600144327349779 -8.142003612383116 a30.88199571499642,30.88199571499642 0 0,0 0.44057623540810903,-0.2974790408374968 l 5.4591633975351295 8.237194565519278" fill="#ff7d0b" stroke="none" /><path d="M 89.00827224532344 82.1063720568725 l -2.9369056058913663 -4.781040559665129 a26.6110394198472,26.6110394198472 0 0,0 0.39237082198867496,-0.23639902998108728 l 2.854172717685042 4.830886199104836" fill="#ff4206" stroke="none" /><line stroke="#e1ed5e" stroke-width="0.3" x1="56.762969772571076" x2="54.21961505331055" y1="26.818313649435495" y2="22.513508569990535" /><path d="M 56.25429882871897 25.957352633546506 a86.0,86.0 0 0,1 42.265352541879196,-11.944610805530505" fill="none" id="id60" stroke="none" /><text fill="#e1ed5e" style="font-size:6.75px; font-family:Arial;" text-anchor="middle"><textPath startOffset="22.20632615414155" xlink:href="#id60">December</textPath></text><path d="M 89.3179101791058 81.91981866633112 l -4.231041480234495 -7.161332517845347 a29.317835982911305,29.317835982911305 0 0,0 0.43670070916668896,-0.25296523782971464 l 4.107144038602486 7.233101913065108" fill="#ff6709" stroke="none" /><path d="M 89.63071344664047 81.73862282372117 l -1.3652551447571408 -2.4043543412529003 a23.76493063359418,23.76493063359418 0 0,0 0.3574651958107719,-0.19892899444934017 l 1.3236658598743232 2.4274987332624254" fill="#ff1902" stroke="none" /><path d="M 89.94658935756843 81.56283822128135 l -7.008962922952826 -12.853884906094597 a35.64062561622467,35.64062561622467 0 0,0 0.5411519058363526,-0.2890646068204646 l 6.786665970588168 12.972628239416812" fill="#ffbb11" stroke="none" /><path d="M 90.26544431104013 81.39251694778311 l -1.4326101551693398 -2.7384166298395893 a24.090517350748307,24.090517350748307 0 0,0 0.3690891098173423,-0.18906177754724313 l 1.3852605577632338 2.7626709326993377" fill="#ff1e03" stroke="none" /><path d="M 90.58718382345135 81.22770947309562 l -4.5079134354071995 -8.99028081419819 a31.05715827951737,31.05715827951737 0 0,0 0.4799495346051634,-0.2355091522328092 l 4.35249263379161 9.066545126565828" fill="#ff7f0b" stroke="none" /><path d="M 91.90106846888425 80.62456947434976 l -2.316099640148378 -5.540907154946168 a27.005494954025778,27.005494954025778 0 0,0 0.4304368938505726,-0.17558601662840778 l 2.2203788767094252 5.579954057758153" fill="#ff4706" stroke="none" /><path d="M 94.28887869178378 79.79150937346287 l -17.133363924648684 -60.625471879611354 a84.0,84.0 0 0,0 1.39480844310511,-0.38125383669481616 l 16.08725759231985 60.91141225713247" fill="#4dd2ff" stroke="none" /></svg>