<?xml version="1.0" encoding="utf-8" ?>
<svg baseProfile="full" height="200mm" version="1.1" viewBox="0,0,200,200" width="200mm" xmlns="http://www.w3.org/2000/svg" xmlns:ev="http://www.w3.org/2001/xml-events" xmlns:xlink="http://www.w3.org/1999/xlink"><defs /><rect fill="#1a1a1a" height="200" width="200" x="0" y="0" /><rect fill="#1a1a1a" height="200" width="180" x="10" y="0" /><text alignment-baseline="middle" fill="#e1ed5e" style="dominant-baseline: central; font-size:9.0px; font-family:Arial;" text-anchor="middle" x="100.0" y="100.0">2020</text><line stroke="#e1ed5e" stroke-width="0.3" x1="100.0" x2="100.0" y1="15.0" y2="10.0" /><path d="M 100.0 14.0 a86.0,86.0 0 0,1 42.35913384403234,11.155469271406648" fill="none" id="id85" stroke="none" /><text fill="#e1ed5e" style="font-size:6.75px; font-family:Arial;" text-anchor="middle"><textPath startOffset="22.145653131862478" xlink:href="#id85">January</textPath></text><path d="M 100.0 79.0 l 0.0 -11.248073058511167 a32.24807305851117,32.24807305851117 0 0,0 0.5535810560762974,0.004751827573631526 l -0.1930881312274426 11.24641562913197" fill="#ff920d" stroke="none" /><path d="M 101.08105385017728 79.02784411241856 l 0.29047937898933307 -5.635222350203134 a26.642704068604605,26.642704068604605 0 0,0 0.45654893016908527,0.027464849927968 l -0.38717266129088074 5.629405522450474" fill="#ff4606" stroke="none" /><path d="M 102.87502721639298 79.19773525538626 l 1.9423428721586409 -14.053825445920443 a35.18741362960235,35.18741362960235 0 0,0 0.597641287632249,0.08783268837390625 l -2.183309265398572 14.018411684247654" fill="#ffb811" stroke="none" /><path d="M 103.23170211078529 79.25015418208739 l 1.285779107072974 -8.255624223104663 a29.355151657827513,29.355151657827513 0 0,0 0.49725180218943804,0.08182259482376947 l -1.4273084123154827 8.232335629785224" fill="#ff6b09" stroke="none" /><path d="M 104.29559338865022 79.4440306129975 l 1.5144254543533093 -7.247074027266342 a28.40361846757865,28.40361846757865 0 0,0 0.4764200918234303,0.10383354159439002 l -1.6386079627958738 7.220009027538233" fill="#ff5e08" stroke="none" /><path d="M 104.9986988182912 79.60360301121754 l 6.474948142329907 -26.419998002177465 a48.20186111061011,48.20186111061011 0 0,0 0.8019750061300897,0.20385891045940305 l -6.927528441685391 26.304953859882794" fill="#aaff21" stroke="none" /><path d="M 105.3480935250658 79.69241777938227 l 1.322704272662944 -5.0225235674678315 a26.193774117026134,26.193774117026134 0 0,0 0.43384199131510165,0.1182455639425733 l -1.4087276649127385 4.999077509381116" fill="#ff3f05" stroke="none" /><path d="M 106.04205211174951 79.88797359093562 l 2.215309751689038 -7.374045672924007 a28.699619918041268,28.699619918041268 0 0,0 0.470618235800069,0.14579873245280806 l -2.3415686203607375 7.334930352664553" fill="#ff6209" stroke="none" /><path d="M 106.72888874123014 80.10723608172694 l 2.397064694543998 -7.086495838936063 a28.480931922233182,28.480931922233182 0 0,0 0.46179013934758,0.16063458184650314 l -2.5183606059365964 7.04430282452097" fill="#ff5f08" stroke="none" /><path d="M 107.06938296918511 80.22567764915836 l 5.493187119722529 -15.365422033629859 a37.317821515258814,37.317821515258814 0 0,0 0.6013693160666045,0.22083114269263163 l -5.7561455874432585 15.268860041928505" fill="#ffd313" stroke="none" /><path d="M 107.40779381753099 80.34994680014964 l 2.4769945282013404 -6.570522270707215 a28.02191318677459,28.02191318677459 0 0,0 0.4486544986377168,0.1735491982694326 l -2.589421289332583 6.527033184299745" fill="#ff5908" stroke="none" /><path d="M 108.73861861582097 80.90454125486305 l 2.189176772977104 -4.783746332459556 a26.260867220968677,26.260867220968677 0 0,0 0.4083080729127675,0.19110879480639442 l -2.2709735597613765 4.745461306082627" fill="#ff4006" stroke="none" /><path d="M 109.06512990194946 81.05736502329252 l 3.6065424197983282 -7.536286553550588 a29.354804799816222,29.354804799816222 0 0,0 0.4526786985396744,0.2214278354746181 l -3.73538136760007 7.473264967978749" fill="#ff6b09" stroke="none" /><path d="M 109.3889696526874 81.21577127319529 l 4.019297217475366 -8.041286855417294 a29.989830054762557,29.989830054762557 0 0,0 0.4585199074295347,0.2341235318172086 l -4.156744346618479 7.97110537192725" fill="#ff740a" stroke="none" /><path d="M 109.71004243097381 81.37971332152246 l 6.851804503263798 -13.139238579296318 a35.81846197803992,35.81846197803992 0 0,0 0.5427540572731512,0.28898596475410004 l -7.0763473763235085 13.019682146819646" fill="#ffc011" stroke="none" /><path d="M 110.34350942703115 81.72400993836675 l 5.210254561933055 -9.20602057398609 a31.578164652187986,31.578164652187986 0 0,0 0.4694733740741735,0.271050578899086 l -5.367520403867625 9.115223097810832" fill="#ff890c" stroke="none" /><line stroke="#e1ed5e" stroke-width="0.3" x1="143.13028292997686" x2="145.6673583964461" y1="26.7553504044142" y2="22.446841604673864" /><path d="M 143.63769802327073 25.89364864446614 a86.0,86.0 0 0,1 29.32050498858742,28.57503671076993" fill="none" id="id86" stroke="none" /><text fill="#e1ed5e" style="font-size:6.75px; font-family:Arial;" text-anchor="middle"><textPath startOffset="20.669276256404974" xlink:href="#id86">February</textPath></text><path d="M 110.96478420261332 82.08984904055464 l 5.648492203864777 -9.226387514344042 a31.818118632274505,31.818118632274505 0 0,0 0.46338676343685486,0.2891876123214406 l -5.8060430960913445 9.128064105181055" fill="#ff8c0c" stroke="none" /><path d="M 111.5731344415666 82.4767994020092 l 3.871732371471356 -5.862296281926135 a28.025441569992893,28.025441569992893 0 0,0 0.3991673143478803,0.26857758336448767 l -3.9717959739162376 5.794969024504528" fill="#ff5908" stroke="none" /><path d="M 112.45986205192187 83.09580414077388 l 8.163509697142393 -11.075368751606781 a34.75887653696354,34.75887653696354 0 0,0 0.47726753134538713,0.35815045315610383 l -8.352430217398545 10.933599271186663" fill="#ffb210" stroke="none" /><path d="M 113.31354834802062 83.75963576809568 l 3.3530620737128167 -4.090190529662712 a26.288920857709428,26.288920857709428 0 0,0 0.3465451438381295,0.28910028429490947 l -3.422781551712839 4.032028061455932" fill="#ff4106" stroke="none" /><path d="M 113.59037401385872 83.9905735841838 l 7.565343076046323 -8.911955120797987 a32.69005388924275,32.69005388924275 0 0,0 0.42469130993539717,0.3668382385259311 l -7.71721386574458 8.780772749807335" fill="#ff980e" stroke="none" /><path d="M 114.39649973595853 84.71141617570332 l 5.738599763990261 -6.094194084324261 a29.370826051751518,29.370826051751518 0 0,0 0.36409686353022874,0.348796559057699 l -5.842369113385802 5.994785394960982" fill="#ff6b09" stroke="none" /><path d="M 115.16444852881244 85.47280134310134 l 7.815160277175167 -7.4867467594561985 a31.82257396362642,31.82257396362642 0 0,0 0.3745125481241263,0.39771934777627244 l -7.9425286590355535 7.351485951735431" fill="#ff8c0c" stroke="none" /><path d="M 115.6541949942343 86.00192230759917 l 8.67002151874114 -7.752786704064036 a32.63077705117532,32.63077705117532 0 0,0 0.36979828155303174,0.420762561473102 l -8.80183086425276 7.602811864779636" fill="#ff970d" stroke="none" /><path d="M 116.35404254752997 86.82634096563983 l 9.036867633896984 -7.279460879572219 a32.604116826790275,32.604116826790275 0 0,0 0.3473635920684469,0.4388825511052123 l -9.160497656606989 7.1232583845523285" fill="#ff960d" stroke="none" /><path d="M 117.42321728460499 88.27688183743584 l 3.132446900789893 -2.107650071514926 a24.775501610412196,24.775501610412196 0 0,0 0.23439460397472095,0.3549033051740497 l -3.168165943685339 2.053566888001818" fill="#ff2b04" stroke="none" /><path d="M 117.81537515405839 88.88188828441811 l 6.742639644842041 -4.20790582185343 a28.94793437226199,28.94793437226199 0 0,0 0.25947279103344284,0.4238293040158476 l -6.813880400330886 4.091539401713028" fill="#ff6509" stroke="none" /><line stroke="#e1ed5e" stroke-width="0.3" x1="172.87174338648825" x2="177.1583165268699" y1="56.24261187166439" y2="53.66864786411523" /><path d="M 173.72905801456457 55.72781907015455 a86.0,86.0 0 0,1 12.242430191666344,42.057860355516425" fill="none" id="id87" stroke="none" /><text fill="#e1ed5e" style="font-size:6.75px; font-family:Arial;" text-anchor="middle"><textPath startOffset="22.145653131862474" xlink:href="#id87">March</textPath></text><path d="M 118.36410011445183 89.81374322990088 l 7.1846429827615195 -3.985200351108204 a29.21589414660494,29.21589414660494 0 0,0 0.23950724011828428,0.4406663455549878 l -7.251995572495145 3.8612791720786133" fill="#ff6909" stroke="none" /><path d="M 118.70294669586156 90.45014215332178 l 7.595748001646599 -3.878443051488028 a29.528640466578132,29.528640466578132 0 0,0 0.22663946824487993,0.4534307562507341 l -7.661207383103215 3.7474804390735432" fill="#ff6d0a" stroke="none" /><path d="M 119.0197475246899 91.09779779509293 l 6.884490802545458 -3.2222893139104323 a28.60127371121935,28.60127371121935 0 0,0 0.20431597055312953,0.4464672688205339 l -6.938791237953639 3.1036330628752142" fill="#ff6108" stroke="none" /><path d="M 119.4528033332814 92.08871423366111 l 7.630234541922964 -3.103149962045075 a29.237112288399054,29.237112288399054 0 0,0 0.18508668798971314,0.4665393613073949 l -7.682379904878802 2.9717095835241145" fill="#ff6909" stroke="none" /><path d="M 119.71291397450082 92.76114493625339 l 11.057111335794781 -4.06032443945441 a32.77904689038091,32.77904689038091 0 0,0 0.18943140746372564,0.5298733610683395 l -11.125182913302451 3.8699161220051543" fill="#ff990e" stroke="none" /><path d="M 119.94978838288452 93.4421083053983 l 10.528526730232125 -3.4609358593405783 a32.08277727519965,32.08277727519965 0 0,0 0.16749544786768897,0.5246771048326584 l -10.586386893877071 3.2796897208165325" fill="#ff900d" stroke="none" /><path d="M 120.26092885502905 94.47779374421319 l 3.7655881867349636 -1.026327805121495 a24.902948008319278,24.902948008319278 0 0,0 0.10887393267317148,0.41341205591860414 l -3.7826516002128656 0.9615352448300923" fill="#ff2d04" stroke="none" /><path d="M 120.43855184770803 95.1765574152323 l 14.78854288644727 -3.490055854086961 a36.19478497935844,36.19478497935844 0 0,0 0.1375214623623108,0.6059449375810417 l -14.846275210367248 3.2356765825668927" fill="#ffc512" stroke="none" /><path d="M 120.592083275326 95.88100663000786 l 7.2005664998731715 -1.4403149636007644 a28.343205370508716,28.343205370508716 0 0,0 0.09133760933479083,0.4779169676395772 l -7.22423040149012 1.3164954309278727" fill="#ff5d08" stroke="none" /><path d="M 120.77682067341334 96.94652285012252 l 3.8807577077983533 -0.5703377418151648 a24.922443820678016,24.922443820678016 0 0,0 0.058574250637862826,0.42381409888526894 l -3.8899764749914287 0.5036353347298103" fill="#ff2e04" stroke="none" /><path d="M 120.86939407059847 97.66154086499901 l 4.232230318011116 -0.4742302347208205 a25.258716682313562,25.258716682313562 0 0,0 0.04458477125699014,0.43131721786734867 l -4.239747481749772 0.40150849457054044" fill="#ff3204" stroke="none" /><path d="M 120.9064616781168 98.02013634271609 l 2.670359277479949 -0.2528857999394242 a23.68230682410388,23.68230682410388 0 0,0 0.03485401476636297,0.4050564838480878 l -2.674306914944053 0.20700826871567443" fill="#ff1c02" stroke="none" /><path d="M 120.93736805541906 98.37931529534042 l 15.1861480776781 -1.1755039051251817 a36.23157584979738,36.23157584979738 0 0,0 0.04267741272721151,0.6205202146490784 l -15.204089451570377 0.9146402663217691" fill="#ffc512" stroke="none" /><path d="M 120.99303781780057 99.45929381324524 l 9.4888259121818 -0.24439849631505747 a30.491972809521414,30.491972809521414 0 0,0 0.008985793305873279,0.5233774113037793 l -9.49162313708634 0.08147416904221176" fill="#ff7a0b" stroke="none" /><line stroke="#e1ed5e" stroke-width="0.3" x1="184.99686870605535" x2="189.99668451229388" y1="99.2704041080226" y2="99.22748670261217" /><path d="M 185.99683186730306 99.26182062694052 a86.0,86.0 0 0,1 -10.086455211305974,41.156179273409016" fill="none" id="id88" stroke="none" /><text fill="#e1ed5e" style="font-size:6.75px; font-family:Arial;" text-anchor="middle"><textPath startOffset="21.40746469413373" xlink:href="#id88">April</textPath></text><path d="M 120.99922638620191 99.81974689727618 l 7.822268988556014 -0.0671447714118684 a28.822557161801573,28.822557161801573 0 0,0 0.0,0.4947957482713896 l -7.822268988556014 -0.06714477141186745" fill="#ff6409" stroke="none" /><path d="M 120.96210409425399 101.26102812881392 l 5.967339794484139 0.3589803438242556 a26.978127726143544,26.978127726143544 0 0,0 -0.031777715006080676,0.46204100193864545 l -5.960298118312992 -0.4613647699172445" fill="#ff4a06" stroke="none" /><path d="M 120.93736805541906 101.62068470465957 l 14.528069775779702 1.124564482580181 a35.57152897555382,35.57152897555382 0 0,0 -0.05235176646365296,0.6084068819374228 l -14.506624386618308 -1.3737924118932612" fill="#ffbd11" stroke="none" /><path d="M 120.82617615685814 102.69636545807757 l 5.697153456137193 0.7376105758827435 a26.744704245166155,26.744704245166155 0 0,0 -0.06285703845752845,0.45480221807998344 l -5.683651901124454 -0.835301102162812" fill="#ff4706" stroke="none" /><path d="M 120.65975698304385 103.76489593502545 l 6.1000446819830865 1.111631344237046 a27.200505573554498,27.200505573554498 0 0,0 -0.08765519352201075,0.4586490120663181 l -6.080063196178916 -1.2161829213366786" fill="#ff4d07" stroke="none" /><path d="M 120.51834098615036 104.47187691870673 l 14.861432329220145 3.238980006074574 a36.21029790489787,36.21029790489787 0 0,0 -0.13758040345581538,0.6062046429143828 l -14.803641064206666 -3.4936189829279733" fill="#ffc512" stroke="none" /><path d="M 120.26092885502905 105.52220625578681 l 5.465233124271472 1.4895735908323886 a26.664592005179138,26.664592005179138 0 0,0 -0.12415733402297725,0.4405905780074453 l -5.4388572981739145 -1.5831720927428423" fill="#ff4606" stroke="none" /><path d="M 120.16314734710363 105.8691983318838 l 4.901705205199968 1.42681494701661 a26.105145914830885,26.105145914830885 0 0,0 -0.12893913338707014,0.4291964398651594 l -4.8764897518092685 -1.510748990472493" fill="#ff3e05" stroke="none" /><path d="M 119.71291397450082 107.23885506374661 l 0.8844058827377335 0.32476609043922156 a21.942150083012407,21.942150083012407 0 0,0 -0.13287467722369536,0.3524658677971645 l -0.8787005216995974 -0.33990023843054495" fill="#ff0300" stroke="none" /><path d="M 119.58574465831526 107.57618678355244 l 7.88037783444561 3.0482994361605273 a29.449407332240426,29.449407332240426 0 0,0 -0.18643063010525585,0.469926973366532 l -7.826888529374229 -3.1831274267406235" fill="#ff6c0a" stroke="none" /><path d="M 118.5362547648365 109.86951160357373 l 3.431778822902331 1.8272289274845799 a24.887913507622997,24.887913507622997 0 0,0 -0.2040271451765962,0.37538696706865315 l -3.399906328110396 -1.8858707280278364" fill="#ff2d04" stroke="none" /><line stroke="#e1ed5e" stroke-width="0.3" x1="174.33088141563837" x2="178.70328620479359" y1="141.23008692659167" y2="143.65538615756765" /><path d="M 175.20536237346943 141.71514677278685 a86.0,86.0 0 0,1 -30.301960400862466,31.631185727798858" fill="none" id="id89" stroke="none" /><text fill="#e1ed5e" style="font-size:6.75px; font-family:Arial;" text-anchor="middle"><textPath startOffset="22.145653131862474" xlink:href="#id89">May</textPath></text><path d="M 117.423217284605 111.72311816256416 l 7.448086875399426 5.011405247324862 a29.977091993313444,29.977091993313444 0 0,0 -0.29093519088897934,0.42448313821053874 l -7.3609619476951265 -5.138523120605444" fill="#ff730a" stroke="none" /><path d="M 117.01052211995028 112.31430620078461 l 4.643698777284371 3.361679802915771 a26.732785486260948,26.732785486260948 0 0,0 -0.27228994411476043,0.36941360398959305 l -4.585306813585782 -3.4408997161742416" fill="#ff4706" stroke="none" /><path d="M 116.79662413953412 112.60449989151573 l 10.871287426773444 8.15801675700311 a34.59184048328503,34.59184048328503 0 0,0 -0.3604931375924882,0.47189708909374983 l -10.729642311826652 -8.343434759337738" fill="#ffb010" stroke="none" /><path d="M 116.1254893667686 113.45245675266167 l 9.18987897470375 7.666523890069739 a32.96785127442316,32.96785127442316 0 0,0 -0.3662656634196108,0.4314600305463905 l -9.056918747777024 -7.823150703065686" fill="#ff9b0e" stroke="none" /><path d="M 114.39649973595853 115.28858382429668 l 4.10537968657431 4.359770959602439 a26.988467683066325,26.988467683066325 0 0,0 -0.34001643175211727,0.314714133079177 l -4.029933483508226 -4.429602838813996" fill="#ff4a06" stroke="none" /><path d="M 113.86319453409587 115.77377054828091 l 3.8274282766481593 4.354910787507586 a26.79779744213575,26.79779744213575 0 0,0 -0.34814233520824256,0.30071705734577475 l -3.752106461677061 -4.4199719773180774" fill="#ff4806" stroke="none" /><path d="M 113.59037401385872 116.0094264158162 l 2.220218506139775 2.6154118175726295 a24.430706806257874,24.430706806257874 0 0,0 -0.32204984183513613,0.2686654321584096 l -2.1749943301427437 -2.653139433642909" fill="#ff2703" stroke="none" /><path d="M 112.7482090630111 116.68781488649013 l 7.1554279911200664 9.366684932700462 a32.78706648681437,32.78706648681437 0 0,0 -0.450192982088424,0.33783320664649097 l -6.993582020120876 -9.488137166610969" fill="#ff990e" stroke="none" /><path d="M 112.45986205192187 116.90419585922612 l 1.8040653303856278 2.447561101446883 a24.04059320883529,24.04059320883529 0 0,0 -0.3343004637549777,0.24200775524197252 l -1.761783856256682 -2.478169628061933" fill="#ff2103" stroke="none" /><path d="M 111.5731344415666 117.5232005979908 l 6.211266408729453 9.404648999566513 a32.270636770176665,32.270636770176665 0 0,0 -0.4648729180568424,0.30132500904918946 l -6.0489078584156015 -9.509887850319597" fill="#ff920d" stroke="none" /><line stroke="#e1ed5e" stroke-width="0.3" x1="143.1302829299769" x2="145.66735839644613" y1="173.24464959558577" y2="177.55315839532614" /><path d="M 143.63769802327073 174.10635135553383 a86.0,86.0 0 0,1 -40.68552437913181,11.842963189579606" fill="none" id="id90" stroke="none" /><text fill="#e1ed5e" style="font-size:6.75px; font-family:Arial;" text-anchor="middle"><textPath startOffset="21.407464694133747" xlink:href="#id90">June</textPath></text><path d="M 110.34350942703117 118.27599006163325 l 3.846219395350662 6.795901133960267 a28.808820388492364,28.808820388492364 0 0,0 -0.4324832409447342,0.23989116338789848 l -3.728991966249833 -6.860925212781308" fill="#ff6409" stroke="none" /><path d="M 110.02825361518725 118.45085714620011 l 2.6960016050625812 4.9603392963259285 a26.64565236170057,26.64565236170057 0 0,0 -0.40375926629316905,0.21497906746999837 l -2.6104535229828585 -5.0058888315184955" fill="#ff4606" stroke="none" /><path d="M 109.71004243097381 118.62028667847754 l 3.597409247185823 6.898506567667828 a28.780150779766046,28.780150779766046 0 0,0 -0.44002490335054734,0.22467985095235546 l -3.478457122121693 -6.959244370293019" fill="#ff6309" stroke="none" /><path d="M 108.73861861582097 119.09545874513695 l 2.328100350558782 5.087319421189498 a26.59471805683573,26.59471805683573 0 0,0 -0.41676025082562307,0.1864115592179188 l -2.2404266968775324 -5.126534731317268" fill="#ff4506" stroke="none" /><path d="M 108.4095320186766 119.2426549942271 l 3.4008505847193096 7.781811680285115 a29.492489489366914,29.492489489366914 0 0,0 -0.4656511933608948,0.19875880511423813 l -3.2667643161879836 -7.839045135058757" fill="#ff6d0a" stroke="none" /><path d="M 107.407793817531 119.65005319985036 l 4.9443420064155745 13.115454595185135 a35.01647841345209,35.01647841345209 0 0,0 -0.564283626951489,0.20721276395924326 l -4.718469227809958 -13.1983982081531" fill="#ffb610" stroke="none" /><path d="M 106.72888874123015 119.89276391827305 l 5.227341239834719 15.453705537903504 a37.31386254968167,37.31386254968167 0 0,0 -0.6085309282763673,0.20003620308451736 l -4.961287573910617 -15.541162662390041" fill="#ffd313" stroke="none" /><path d="M 104.29559338865022 120.5559693870025 l 0.40997414022376144 1.9618746732801033 a23.00425323482591,23.00425323482591 0 0,0 -0.3872421126784177,0.07745926788356479 l -0.376235542014385 -1.9686233378265297" fill="#ff1202" stroke="none" /><path d="M 103.94208987418118 120.62667999033965 l 0.4718239908851354 2.4687824941520695 a23.513464716642446,23.513464716642446 0 0,0 -0.39711472518408614,0.07236753151605013 l -0.42937453214999205 -2.476518199599483" fill="#ff1902" stroke="none" /><path d="M 103.58742460773223 120.69131181640829 l 0.7851938121163311 4.528789251151275 a25.596353054752115,25.596353054752115 0 0,0 -0.43358088673197825,0.07134556991486687 l -0.7073354223312807 -4.541600819561812" fill="#ff3705" stroke="none" /><path d="M 103.2317021107853 120.74984581791261 l 0.8595699899570105 5.519055949429239 a26.585592102952468,26.585592102952468 0 0,0 -0.4515434883656058,0.06636134303573694 l -0.7647013959837192 -5.532998365763858" fill="#ff4506" stroke="none" /><path d="M 102.875027216393 120.80226474461374 l 0.183923557566646 1.3307792411345267 a22.343428920212215,22.343428920212215 0 0,0 -0.38039387495156723,0.04924960286316962 l -0.1610518607243034 -1.333740440198091" fill="#ff0901" stroke="none" /><path d="M 101.80034050326958 120.92268563240118 l 0.18332076716104614 2.1304651949092164 a23.138337777431826,23.138337777431826 0 0,0 -0.39603028602725987,0.030655248809088605 l -0.14672148635855045 -2.1332982107133587" fill="#ff1402" stroke="none" /><path d="M 100.72087961077811 120.9876233191556 l 0.7242631273672954 21.086130712909288 a42.09856548487504,42.09856548487504 0 0,0 -0.7224648808318992,0.01860813257086884 l -0.36218493246465233 -21.0954565628302" fill="#f0ff19" stroke="none" /><line stroke="#e1ed5e" stroke-width="0.3" x1="101.45913802915013" x2="101.54496967792366" y1="184.9874750549273" y2="189.98673829345242" /><path d="M 101.47630435890484 185.9873277026323 a86.0,86.0 0 0,1 -42.54439059252881,-10.42667462771756" fill="none" id="id91" stroke="none" /><text fill="#e1ed5e" style="font-size:6.75px; font-family:Arial;" text-anchor="middle"><textPath startOffset="22.145653131862474" xlink:href="#id91">July</textPath></text><path d="M 99.63950707515114 120.99690560180557 l -0.3023445311758988 17.610053187546672 a38.61264845171659,38.61264845171659 0 0,0 -0.6626421147840744,-0.0170673103234327 l 0.6045999600307171 -17.602268159873194" fill="#ffe315" stroke="none" /><path d="M 98.91894614982273 120.97215588758144 l -0.2731361456206016 5.298768256131835 a26.30580327436241,26.30580327436241 0 0,0 -0.4507758038081952,-0.027117552982033048 l 0.3640563015612432 -5.29329872532511" fill="#ff4106" stroke="none" /><path d="M 98.19965949673042 120.92268563240118 l -1.2779948604926712 14.852237483604867 a35.907120081787866,35.907120081787866 0 0,0 -0.613670527378112,-0.05811523697354925 l 1.5327649512557986 -14.828110491126132" fill="#ffc112" stroke="none" /><path d="M 97.12497278360702 120.80226474461374 l -0.10299431026991249 0.7452155225548158 a21.75229914462574,21.75229914462574 0 0,0 -0.3694523333428301,-0.0542967702115676 l 0.1157717492204275 -0.7433376790443659" fill="#ff0000" stroke="none" /><path d="M 96.41257539226777 120.69131181640829 l -0.5381826501665206 3.1040945096866674 a24.150403670961417,24.150403670961417 0 0,0 -0.4078718739433837,-0.07432784235947044 l 0.5913892576609614 -3.0943984933958313" fill="#ff2303" stroke="none" /><path d="M 96.05791012581884 120.62667999033965 l -1.0913819120386596 5.710571337885197 a26.813926339660753,26.813926339660753 0 0,0 -0.45137224751352806,-0.090287090919762 l 1.1892506450831457 -5.690994850302573" fill="#ff4806" stroke="none" /><path d="M 95.70440661134978 120.55596938700252 l -1.9802327629298655 9.476130622949043 a30.680825036047985,30.680825036047985 0 0,0 -0.5146161746108875,-0.11215820006056663 l 2.1426113541598895 -9.440740964754758" fill="#ff7d0b" stroke="none" /><path d="M 95.00130118170881 120.39639698878247 l -1.3675318466429294 5.579996605690105 a26.745128847214456,26.745128847214456 0 0,0 -0.44498125958199813,-0.11311249610006531 l 1.463118399450306 -5.555698877754776" fill="#ff4706" stroke="none" /><path d="M 94.6519064749342 120.30758222061772 l -0.8417796059901491 3.1963742743399006 a24.305359497350153,24.305359497350153 0 0,0 -0.4025645757212825,-0.10972076523798675 l 0.8965255826461268 -3.1814530149577696" fill="#ff2503" stroke="none" /><path d="M 93.95794788825049 120.11202640906438 l -3.244736789595805 10.800673479116645 a32.277538048539235,32.277538048539235 0 0,0 -0.5292891702312731,-0.1639751379151848 l 3.4296665926987115 -10.74338175339481" fill="#ff920d" stroke="none" /><path d="M 92.59220618246901 119.65005319985036 l -2.1327680391139445 5.65742061183579 a27.046081994803775,27.046081994803775 0 0,0 -0.4330306170251141,-0.16750554522247169 l 2.2295709186325867 -5.619975178475278" fill="#ff4b07" stroke="none" /><path d="M 90.93487009805054 118.94263497670748 l -5.036946649122694 10.525281248420107 a32.668435066642495,32.668435066642495 0 0,0 -0.5037779937609417,-0.24642306138567976 l 5.216884892145705 -10.437264436937205" fill="#ff970e" stroke="none" /><path d="M 90.6110303473126 118.78422872680471 l -1.97910357766979 3.959532904267723 a25.42659595977814,25.42659595977814 0 0,0 -0.3887518003415319,-0.19849943922062926 l 2.0467825997249043 -3.9249755133742577" fill="#ff3505" stroke="none" /><path d="M 90.28995756902619 118.62028667847754 l -2.8165129972415355 5.401035043369612 a27.09129912279286,27.09129912279286 0 0,0 -0.4105121131306854,-0.2185745780553647 l 2.908813926158783 -5.351889997591674" fill="#ff4c07" stroke="none" /><line stroke="#e1ed5e" stroke-width="0.3" x1="58.13341422392154" x2="55.67067388415222" y1="173.97424548756322" y2="178.32567169271397" /><path d="M 57.64086615596768 174.84453072859336 a86.0,86.0 0 0,1 -31.369924170532247,-30.572349798747897" fill="none" id="id92" stroke="none" /><text fill="#e1ed5e" style="font-size:6.75px; font-family:Arial;" text-anchor="middle"><textPath startOffset="22.145653131862474" xlink:href="#id92">August</textPath></text><path d="M 89.65649057296885 118.27599006163327 l -9.679015651973119 17.101893231669486 a40.65090573227003,40.65090573227003 0 0,0 -0.6043580456148361,-0.3489262803226444 l 9.971166165448356 -16.93322005407067" fill="#fffc17" stroke="none" /><path d="M 88.72937992617639 117.7192867562869 l -4.373048561612946 6.875158682915291 a29.148089385708197,29.148089385708197 0 0,0 -0.4198912300682706,-0.27216842234833355 l 4.490425423938227 -6.799076418863063" fill="#ff6809" stroke="none" /><path d="M 88.4268655584334 117.5232005979908 l -0.7421159292531747 1.1236581032499788 a22.346604465108683,22.346604465108683 0 0,0 -0.3182834449496207,-0.21415530630093876 l 0.7612956622998011 -1.1107531228919187" fill="#ff0901" stroke="none" /><path d="M 88.1277618465304 117.32195027204791 l -2.0313005860664646 2.9637282612244564 a24.593030375231262,24.593030375231262 0 0,0 -0.34618192865862163,-0.2416618720471859 l 2.0818776058988515 -2.9284215733721415" fill="#ff2904" stroke="none" /><path d="M 87.83215693770417 117.11559508785305 l -3.372405400501694 4.743710533704495 a26.820301350695853,26.820301350695853 0 0,0 -0.37295415723315634,-0.26999004843233504 l 3.4533405681088043 -4.685119713899095" fill="#ff4806" stroke="none" /><path d="M 87.54013794807813 116.9041958592261 l -4.716630543822201 6.399015187819078 a28.949465331760102,28.949465331760102 0 0,0 -0.3974996095735436,-0.29829111755585375 l 4.825783142306511 -6.317105042999209" fill="#ff6509" stroke="none" /><path d="M 85.86807049272751 115.53346607816431 l -40.88456145327982 44.93929495815313 a81.75432162869487,81.75432162869487 0 0,0 -1.029988550922632,-0.953342025897778 l 41.64997977551642 -44.230835186122974" fill="#4ae7ff" stroke="none" /><path d="M 83.20337586046588 112.60449989151573 l -16.616311755894742 12.469190117293175 a41.774564220466516,41.774564220466516 0 0,0 -0.4254997580725412,-0.577272141420066 l 16.82791353355111 -12.18211166660423" fill="#f4ff19" stroke="none" /><path d="M 82.576782715395 111.72311816256416 l -7.11528901475671 4.78748399438782 a29.5759746244982,29.5759746244982 0 0,0 -0.27981063585659666,-0.4236689659420187 l 7.196424089534033 -4.66463515010674" fill="#ff6e0a" stroke="none" /><line stroke="#e1ed5e" stroke-width="0.3" x1="26.387840678322732" x2="22.057713659400548" y1="142.50000000000003" y2="145.00000000000006" /><path d="M 25.521815274538298 143.00000000000003 a86.0,86.0 0 0,1 -11.493303480769221,-40.785679425670985" fill="none" id="id93" stroke="none" /><text fill="#e1ed5e" style="font-size:6.75px; font-family:Arial;" text-anchor="middle"><textPath startOffset="21.40746469413373" xlink:href="#id93">September</textPath></text><path d="M 81.4637452351635 109.86951160357371 l -7.677679959255864 4.087932131260256 a29.69815834913053,29.69815834913053 0 0,0 -0.23573539824306197,-0.4520537090084261 l 7.746723426473876 -3.955532179147327" fill="#ff700a" stroke="none" /><path d="M 81.1358732173502 109.22738970284198 l -2.2942901906999107 1.1222523006189182 a23.554059064584507,23.554059064584507 0 0,0 -0.17454762617555727,-0.36473740635347507 l 2.31321707483538 -1.0827023922003385" fill="#ff1a02" stroke="none" /><path d="M 80.68587082218212 108.24405325689762 l -13.916696017115047 5.9402099918083735 a36.13144153012415,36.13144153012415 0 0,0 -0.23859510189853902,-0.5725413870594516 l 14.016616963550073 -5.700436095307641" fill="#ffc412" stroke="none" /><path d="M 80.5471966667186 107.91128576633889 l -13.224505626394627 5.378291310330963 a35.276328886703496,35.276328886703496 0 0,0 -0.2233181859299592,-0.5629077107797174 l 13.31488248729071 -5.15048258233768" fill="#ffb911" stroke="none" /><path d="M 80.41425534168474 107.57618678355246 l -15.342544374013926 5.9348257592606695 a37.450404999919314,37.450404999919314 0 0,0 -0.2267877330815318,-0.6015814060023131 l 15.442162790909894 -5.670576073064212" fill="#ffd513" stroke="none" /><path d="M 80.28708602549918 107.23885506374661 l -2.1738683349176333 0.7982745637957056 a23.315803492691206,23.315803492691206 0 0,0 -0.13474294986484947,-0.37690001188858496 l 2.187251454826426 -0.7608395955261992" fill="#ff1702" stroke="none" /><path d="M 80.05021161711548 106.5578916946017 l -2.064299370949536 0.6785762054266008 a23.172969755766015,23.172969755766015 0 0,0 -0.12097976787897545,-0.37896739978394656 l 2.0756438546057665 -0.6430397719512625" fill="#ff1502" stroke="none" /><path d="M 79.94057633289273 106.21446072829308 l -5.453459265294441 1.6894956206090053 a26.7091692399405,26.7091692399405 0 0,0 -0.13192253920059457,-0.4391272275182282 l 5.481658124498666 -1.5956307895000534" fill="#ff4706" stroke="none" /><path d="M 79.73907114497094 105.5222062557868 l -0.8710150922026787 0.23739903661191014 a21.90278767904148,21.90278767904148 0 0,0 -0.09575744326840495,-0.36360660921414445 l 0.8749620162758163 -0.22241192302496304" fill="#ff0200" stroke="none" /><path d="M 79.64726062577567 105.17358676015961 l -3.6093748087543194 0.9174889620349508 a24.72416064443067,24.72416064443067 0 0,0 -0.10103054189081455,-0.4122390876714787 l 3.6245928771614273 -0.8553940497553725" fill="#ff2b04" stroke="none" /><path d="M 79.34024301695615 103.76489593502545 l -6.299639612478522 1.1480041894302753 a27.403387608606714,27.403387608606714 0 0,0 -0.08036393462890899,-0.46351781905498113 l 6.318418364599665 -1.0396933374547015" fill="#ff5007" stroke="none" /><path d="M 79.2786578344484 103.40968896794605 l -11.144744780136557 1.8338635124987006 a32.29461781544002,32.29461781544002 0 0,0 -0.08531700992216833,-0.5477964059936606 l 11.174583282196993 -1.64227892457359" fill="#ff920d" stroke="none" /><path d="M 79.17382384314188 102.69636545807758 l -5.0214148072552875 0.6501226790259255 a26.06332560322823,26.06332560322823 0 0,0 -0.05363821703365134,-0.44420138256188774 l 5.0318351105486006 -0.5638276195406384" fill="#ff3e05" stroke="none" /><path d="M 79.13060592940153 102.33845913500099 l -3.266574836076957 0.3660265238055107 a24.287017884925536,24.287017884925536 0 0,0 -0.042869602226151264,-0.4147245133698982 l 3.2723768307847743 -0.30989748815268114" fill="#ff2403" stroke="none" /><line stroke="#e1ed5e" stroke-width="0.3" x1="15.003131293944662" x2="10.003315487706104" y1="100.72959589197737" y2="100.7725132973878" /><path d="M 14.003168132696942 100.73817937305945 a86.0,86.0 0 0,1 10.791469493833604,-42.45332614584628" fill="none" id="id94" stroke="none" /><text fill="#e1ed5e" style="font-size:6.75px; font-family:Arial;" text-anchor="middle"><textPath startOffset="22.145653131862435" xlink:href="#id94">October</textPath></text><path d="M 79.06263194458094 98.37931529534042 l -7.827381396179827 -0.6058888238840646 a28.85079618816905,28.85079618816905 0 0,0 0.042460647260098426,-0.49345708367829827 l 7.815827126221985 0.7401669549380436" fill="#ff6409" stroke="none" /><path d="M 79.13060592940154 97.66154086499901 l -5.40243005824755 -0.6053535564173974 a26.436239827539236,26.436239827539236 0 0,0 0.05440567297549103,-0.4505570186973704 l 5.391242299012391 0.6980042520382042" fill="#ff4306" stroke="none" /><path d="M 79.22317932658666 96.9465228501225 l -3.350711193358637 -0.4924391573467082 a24.3867036813083,24.3867036813083 0 0,0 0.06442561580500966,-0.4136586692865634 l 3.34176408541536 0.5498860085647216" fill="#ff2603" stroke="none" /><path d="M 79.2786578344484 96.59031103205396 l -5.314099379237692 -0.8744330306015825 a26.385562676027593,26.385562676027593 0 0,0 0.07737903299872617,-0.4463016996588272 l 5.298305528746731 0.9655277631810024" fill="#ff4206" stroke="none" /><path d="M 79.407916724674 95.88100663000787 l -1.7892680334273163 -0.3579037180593035 a22.82471235180933,22.82471235180933 0 0,0 0.08014983517132239,-0.38354597586172534 l 1.7828604874316272 0.3885661452064379" fill="#ff1001" stroke="none" /><path d="M 79.73907114497095 94.47779374421319 l -60.782786565087164 -16.56661876736044 a84.0,84.0 0 0,0 0.3911260317016718,-1.3879683043879474 l 60.48944204131091 17.607594995651397" fill="#4dd2ff" stroke="none" /><path d="M 80.16572619554312 93.10060997987247 l -6.143415792979931 -2.1369989155869766 a27.504484758276796,27.504484758276796 0 0,0 0.15894950444254413,-0.4446100532470816 l 6.105826118493444 2.2421439252149793" fill="#ff5207" stroke="none" /><path d="M 80.28708602549916 92.7611449362534 l -3.417662699501395 -1.2550130828179609 a24.640807076131253,24.640807076131253 0 0,0 0.14921688505390568,-0.3958155156378876 l 3.395615130633053 1.3134968786499932" fill="#ff2a04" stroke="none" /><path d="M 80.41425534168474 92.42381321644754 l -3.9128727995841817 -1.513583256960604 a25.195415095253058,25.195415095253058 0 0,0 0.15950056512101313,-0.4020456175857543 l 3.886313559497037 1.580529891759941" fill="#ff3104" stroke="none" /><path d="M 80.68587082218212 91.75594674310238 l -9.441430539382486 -4.029985275099142 a31.26554391873612,31.26554391873612 0 0,0 0.2149373905797922,-0.49181881264033445 l 9.370859266785716 4.191466157515342" fill="#ff850c" stroke="none" /><path d="M 81.29705330413844 90.45014215332179 l -5.898603350082442 -3.011868899764959 a27.623056375343275,27.623056375343275 0 0,0 0.21926383847714606,-0.4204673213007163 l 5.846031442630356 3.112682464170162" fill="#ff5307" stroke="none" /><path d="M 81.46374523516351 90.13048839642627 l -4.320167072681208 -2.300245631824668 a25.894381830487625,25.894381830487625 0 0,0 0.21227801195020068,-0.39056763261759936 l 4.280043711115657 2.374068097916887" fill="#ff3b05" stroke="none" /><line stroke="#e1ed5e" stroke-width="0.3" x1="26.387840678322718" x2="22.05771365940052" y1="57.49999999999999" y2="54.99999999999999" /><path d="M 25.521815274538284 56.99999999999999 a86.0,86.0 0 0,1 29.574782752854787,-30.34633250058573" fill="none" id="id95" stroke="none" /><text fill="#e1ed5e" style="font-size:6.75px; font-family:Arial;" text-anchor="middle"><textPath startOffset="21.40746469413373" xlink:href="#id95">November</textPath></text><path d="M 81.81346652052679 89.5 l -8.19497931922412 -4.731373515957462 a30.462747031914923,30.462747031914923 0 0,0 0.26535415684777486,-0.45062937028727634 l 8.112551452246564 4.871354054538312" fill="#ff7a0b" stroke="none" /><path d="M 81.99639281039701 89.18935116829357 l -1.3330220035455027 -0.8004414122959954 a22.55488074026752,22.55488074026752 0 0,0 0.20216910062887655,-0.3302280322795073 l 1.319084938461233 0.8232065607000457" fill="#ff0c01" stroke="none" /><path d="M 82.18462484594161 88.88188828441811 l -2.859212998783299 -1.7843603777198596 a24.370317630430097,24.370317630430097 0 0,0 0.22453453861647082,-0.35300558890067174 l 2.8281607685409385 1.8331796412992032" fill="#ff2603" stroke="none" /><path d="M 82.37810715431573 88.57770195909679 l -1.1793015240496196 -0.7644089999721639 a22.405372976780257,22.405372976780257 0 0,0 0.21197143082629302,-0.32095176308255957 l 1.1660056543025976 0.7845406413937845" fill="#ff0901" stroke="none" /><path d="M 82.576782715395 88.27688183743585 l -4.3767039388116675 -2.9448417361232684 a26.275190064710756,26.275190064710756 0 0,0 0.25500730487220774,-0.372063278794186 l 4.325506897124146 3.019539749987489" fill="#ff4106" stroke="none" /><path d="M 82.78059297857968 87.97951657250589 l -1.3239951594939754 -0.9242514479727442 a22.614683845662423,22.614683845662423 0 0,0 0.22494600032747725,-0.3164147202199973 l 1.307934060636526 0.9468433949022618" fill="#ff0d01" stroke="none" /><path d="M 83.2033758604659 87.39550010848427 l -4.536378570195696 -3.4041830501716484 a26.6716128897525,26.6716128897525 0 0,0 0.27795379722351043,-0.3638504430023312 l 4.477272795617878 3.481554406414864" fill="#ff4606" stroke="none" /><path d="M 83.64595745247003 86.82634096563983 l -1.3971750430038408 -1.1254653138119681 a22.794093161847137,22.794093161847137 0 0,0 0.2480791664148171,-0.30261624591785563 l 1.3776490573503937 1.1492838414283166" fill="#ff0f01" stroke="none" /><path d="M 83.8745106332314 86.54754324733833 l -5.632931465694292 -4.699191770832103 a28.335688120160576,28.335688120160576 0 0,0 0.31480333739049204,-0.3708375398842669 l 5.551433564796686 4.795196093165927" fill="#ff5d08" stroke="none" /><path d="M 84.34580500576568 86.00192230759919 l -0.7801412275938178 -0.6976070963039234 a22.04655434441083,22.04655434441083 0 0,0 0.2546926082128009,-0.2799517920038307 l 0.7680509185391511 0.7108964638654118" fill="#ff0400" stroke="none" /><path d="M 84.58840730492382 85.73525988315684 l -13.988160270362242 -12.947232315140136 a40.060415849911294,40.060415849911294 0 0,0 0.47146181311450364,-0.500676107523023 l 13.763842623511467 13.18544988260767" fill="#fff517" stroke="none" /><path d="M 84.83555147118756 85.47280134310135 l -2.9347277424287435 -2.8114027910194457 a25.06406355456369,25.06406355456369 0 0,0 0.3003071051011123,-0.3081415454457413 l 2.886033836176829 2.8613670285329174" fill="#ff3004" stroke="none" /><path d="M 85.60350026404147 84.71141617570332 l -2.186953786624065 -2.3224691348517497 a24.190083031390934,24.190083031390934 0 0,0 0.3047607523595028,-0.2820820025701062 l 2.146763262950609 2.3596688835542214" fill="#ff2303" stroke="none" /><path d="M 85.86807049272753 84.46653392183569 l -3.225032581836006 -3.544875749991834 a25.79238763423661,25.79238763423661 0 0,0 0.3300626951927264,-0.29514409730891195 l 3.163704859819888 3.5997153771841472" fill="#ff3a05" stroke="none" /><path d="M 88.12776184653039 82.6780497279521 l -2.90148607705661 -4.233354898387536 a26.132242701885318,26.132242701885318 0 0,0 0.3722024186897266,-0.2504343981606258 l 2.828387370269894 4.2825389706052714" fill="#ff3f05" stroke="none" /><path d="M 88.4268655584334 82.4767994020092 l -1.2029520154610411 -1.821422673616476 a23.182813346914017,23.182813346914017 0 0,0 0.333958767721194,-0.21646803846151308 l 1.1715076154828212 1.8418045537818954" fill="#ff1502" stroke="none" /><path d="M 89.03521579738668 82.08984904055464 l -2.7680595674250013 -4.521417275636201 a26.30144960828966,26.30144960828966 0 0,0 0.3870912632846493,-0.2324371815670706 l 2.6900355475829176 4.568268457739196" fill="#ff4106" stroke="none" /><line stroke="#e1ed5e" stroke-width="0.3" x1="56.869717070023135" x2="54.33264160355391" y1="26.7553504044142" y2="22.446841604673864" /><path d="M 56.362301976729285 25.89364864446614 a86.0,86.0 0 0,1 42.16139366436587,-11.88097634709845" fill="none" id="id96" stroke="none" /><text fill="#e1ed5e" style="font-size:6.75px; font-family:Arial;" text-anchor="middle"><textPath startOffset="22.145653131862474" xlink:href="#id96">December</textPath></text><path d="M 89.97174638481275 81.54914285379989 l -5.068011237227459 -9.32456985449651 a31.61283849269595,31.61283849269595 0 0,0 0.4790266082432828,-0.25505468760853506 l 4.907195813197615 9.41019500982762" fill="#ff890c" stroke="none" /><path d="M 90.61103034731259 81.2157712731953 l -0.5882271389125221 -1.176848315564006 a22.3156683186879,22.3156683186879 0 0,0 0.34412859361307563,-0.16833053963989317 l 0.5679382960373933 1.1867726053011132" fill="#ff0801" stroke="none" /><path d="M 90.93487009805054 81.0573650232925 l -1.0811609003270022 -2.2592104589233304 a23.504583955491302,23.504583955491302 0 0,0 0.3654529493915353,-0.171050433116416 l 1.0422192370639445 2.277437123610289" fill="#ff1902" stroke="none" /><path d="M 91.26138138417902 80.90454125486306 l -0.6470242753468219 -1.4138648109231637 a22.55488074026752,22.55488074026752 0 0,0 0.3534528072291419,-0.1580949449353878 l 0.6226580652620612 1.4247635067683972" fill="#ff0c01" stroke="none" /><path d="M 91.92203290615298 80.6158196554323 l -0.64411668998654 -1.5456455735200267 a22.67448695105733,22.67448695105733 0 0,0 0.3605735124810075,-0.14664210849905507 l 0.6174887163150916 1.5564749385983732" fill="#ff0d01" stroke="none" /><path d="M 92.25597844496254 80.48000691201159 l -0.5072228741159673 -1.2785329852772331 a22.375471424082804,22.375471424082804 0 0,0 0.35825019678857367,-0.13857887220858506 l 0.4852004148338643 1.2870517456238588" fill="#ff0901" stroke="none" /><path d="M 95.00130118170881 79.60360301121753 l -2.4736070760849063 -10.093160990910933 a31.3918540576407,31.3918540576407 0 0,0 0.5244948677769327,-0.12377936066987262 l 2.2999800545680675 10.134136495227038" fill="#ff860c" stroke="none" /><path d="M 95.35216902796891 79.52079915486377 l -0.7452614751093365 -3.283759569302276 a24.367267672054957,24.367267672054957 0 0,0 0.4087174989714152,-0.08907807659281647 l 0.6887815595188029 3.2960691040288066" fill="#ff2603" stroke="none" /><path d="M 95.70440661134978 79.44403061299748 l -0.8611509616722474 -4.120919091759024 a25.209935289242942,25.209935289242942 0 0,0 0.4243714630611444,-0.0848861778282129 l 0.7902830130801262 4.135094666250103" fill="#ff3204" stroke="none" /><path d="M 96.41257539226777 79.30868818359171 l -0.29116025045265775 -1.6793349517853218 a22.70438850375478,22.70438850375478 0 0,0 0.38459341762898847,-0.06328470051589107 l 0.26228932977059644 1.684085650796881" fill="#ff0e01" stroke="none" /><path d="M 97.12497278360702 79.19773525538626 l -0.1637481482239705 -1.1848000294998524 a22.196062107898094,22.196062107898094 0 0,0 0.37788497477442573,-0.048924775505309784 l 0.14338535155875073 1.187436401205557" fill="#ff0601" stroke="none" /><path d="M 98.1996594967304 79.07731436759882 l -0.735343077208983 -8.5458012017531 a29.57737999747498,29.57737999747498 0 0,0 0.5062394011622771,-0.039186131331694685 l 0.5885346812714888 8.55716510007985" fill="#ff6e0a" stroke="none" /><path d="M 98.9189461498227 79.02784411241856 l -0.21570013467412136 -4.184524987923678 a25.19008065825183,25.19008065825183 0 0,0 0.4320389591185641,-0.01855361185377947 l 0.14383541495473717 4.1876111682032855" fill="#ff3104" stroke="none" /><path d="M 99.63950707515114 79.00309439819443 l -0.0822176083701031 -4.788763503408729 a25.789469242693343,25.789469242693343 0 0,0 0.4427105332189541,-0.003800137479048807 l 1.1730816355358202e-15 4.789469242693343" fill="#ff3a05" stroke="none" /></svg>