<?xml version="1.0" encoding="utf-8" ?>
<svg baseProfile="full" height="300mm" version="1.1" viewBox="0,0,200,300" width="200mm" xmlns="http://www.w3.org/2000/svg" xmlns:ev="http://www.w3.org/2001/xml-events" xmlns:xlink="http://www.w3.org/1999/xlink"><defs /><rect fill="#222222" height="300" width="200" x="0" y="0" /><text fill="#555555" style="font-size:6px; font-family:Arial;" x="11" y="19">Running for 4677 Days</text><text fill="#555555" style="font-size:6px; font-family:Arial;" x="11" y="39">Races</text><text fill="#555555" style="font-size:8px; font-family:Arial;" x="11" y="59">1</text><text fill="#FFFFFF" style="font-size:10px; font-family:Arial; font-weight:bold;" x="23" y="59">Full</text><text fill="#555555" style="font-size:6px; font-family:Arial;" x="49" y="59">6x</text><text fill="#555555" style="font-size:8px; font-family:Arial;" x="11" y="77">2</text><text fill="#FFFFFF" style="font-size:10px; font-family:Arial; font-weight:bold;" x="23" y="77">Half</text><text fill="#555555" style="font-size:6px; font-family:Arial;" x="49" y="77">13x</text><text fill="#555555" style="font-size:8px; font-family:Arial;" x="11" y="95">3</text><text fill="#FFFFFF" style="font-size:10px; font-family:Arial; font-weight:bold;" x="23" y="95">10K</text><text fill="#555555" style="font-size:6px; font-family:Arial;" x="49" y="95">43x</text><text fill="#555555" style="font-size:6px; font-family:Arial;" x="11" y="133">Stats</text><text fill="#555555" style="font-size:5px; font-family:Arial;" x="11" y="139">Distance</text><text fill="#FFFFFF" style="font-size:10px; font-family:Arial; font-weight:bold;" x="11" y="150">2022</text><text fill="#555555" style="font-size:6px; font-family:Arial;" x="35" y="150">km</text><text fill="#555555" style="font-size:5px; font-family:Arial;" x="53" y="139">Runs</text><text fill="#FFFFFF" style="font-size:10px; font-family:Arial; font-weight:bold;" x="53" y="150">180</text><text fill="#555555" style="font-size:5px; font-family:Arial;" x="11" y="167">Avg Pace</text><text fill="#FFFFFF" style="font-size:10px; font-family:Arial; font-weight:bold;" x="11" y="178">9'43"</text><text fill="#555555" style="font-size:5px; font-family:Arial;" x="53" y="167">Streak</text><text fill="#FFFFFF" style="font-size:10px; font-family:Arial; font-weight:bold;" x="53" y="178">8</text><text fill="#555555" style="font-size:6px; font-family:Arial;" x="59" y="178">d</text><text fill="#555555" style="font-size:5px; font-family:Arial;" x="11" y="195">Time</text><text fill="#FFFFFF" style="font-size:10px; font-family:Arial; font-weight:bold;" x="11" y="206">327</text><text fill="#555555" style="font-size:6px; font-family:Arial;" x="29" y="206">h</text><text fill="#555555" style="font-size:5px; font-family:Arial;" x="53" y="195">Longest</text><text fill="#FFFFFF" style="font-size:10px; font-family:Arial; font-weight:bold;" x="53" y="206">119.0</text><text fill="#555555" style="font-size:5px; font-family:Arial;" x="11" y="252.0645161290322">Runner</text><text fill="#FFFFFF" style="font-size:8px; font-family:Arial; font-weight:bold;" x="11" y="262.0645161290322">yihong0618</text><text fill="#555555" style="font-size:7px; font-family:Arial;" x="11" y="285.5806451612903">running_page/2018</text><circle cx="85.41666666666667" cy="17.419354838709676" fill="#555555" r="3.3125"><title>2018-01-01</title></circle><circle cx="85.41666666666667" cy="26.25806451612903" fill="#555555" r="3.3125"><title>2018-01-02</title></circle><circle cx="85.41666666666667" cy="35.096774193548384" fill="#555555" r="3.3125"><title>2018-01-03</title></circle><circle cx="85.41666666666667" cy="43.935483870967744" fill="#4fa3c0" r="3.3125"><title>2018-01-04: 6 km</title></circle><circle cx="85.41666666666667" cy="52.774193548387096" fill="#518a9e" r="3.3125"><title>2018-01-05: 4 km</title></circle><circle cx="85.41666666666667" cy="61.61290322580645" fill="#FFFF00" r="3.3125"><title>2018-01-06: 25 km</title></circle><circle cx="85.41666666666667" cy="70.45161290322581" fill="#555555" r="3.3125"><title>2018-01-07</title></circle><circle cx="85.41666666666667" cy="79.29032258064517" fill="#555555" r="3.3125"><title>2018-01-08</title></circle><circle cx="85.41666666666667" cy="88.12903225806451" fill="#555555" r="3.3125"><title>2018-01-09</title></circle><circle cx="85.41666666666667" cy="96.96774193548387" fill="#555555" r="3.3125"><title>2018-01-10</title></circle><circle cx="85.41666666666667" cy="105.80645161290322" fill="#527581" r="3.3125"><title>2018-01-11: 2 km</title></circle><circle cx="85.41666666666667" cy="114.64516129032258" fill="#5093aa" r="3.3125"><title>2018-01-12: 5 km</title></circle><circle cx="85.41666666666667" cy="123.48387096774194" fill="#527987" r="3.3125"><title>2018-01-13: 2 km</title></circle><circle cx="85.41666666666667" cy="132.32258064516128" fill="#4ebce1" r="3.3125"><title>2018-01-14: 8 km</title></circle><circle cx="85.41666666666667" cy="141.16129032258064" fill="#555555" r="3.3125"><title>2018-01-15</title></circle><circle cx="85.41666666666667" cy="149.99999999999997" fill="#518b9f" r="3.3125"><title>2018-01-16: 4 km</title></circle><circle cx="85.41666666666667" cy="158.83870967741933" fill="#4fb1d3" r="3.3125"><title>2018-01-17: 7 km</title></circle><circle cx="85.41666666666667" cy="167.6774193548387" fill="#555555" r="3.3125"><title>2018-01-18</title></circle><circle cx="85.41666666666667" cy="176.51612903225805" fill="#555555" r="3.3125"><title>2018-01-19</title></circle><circle cx="85.41666666666667" cy="185.35483870967738" fill="#555555" r="3.3125"><title>2018-01-20</title></circle><circle cx="85.41666666666667" cy="194.19354838709674" fill="#555555" r="3.3125"><title>2018-01-21</title></circle><circle cx="85.41666666666667" cy="203.0322580645161" fill="#555555" r="3.3125"><title>2018-01-22</title></circle><circle cx="85.41666666666667" cy="211.87096774193546" fill="#555555" r="3.3125"><title>2018-01-23</title></circle><circle cx="85.41666666666667" cy="220.70967741935482" fill="#4fabca" r="3.3125"><title>2018-01-24: 6 km</title></circle><circle cx="85.41666666666667" cy="229.54838709677418" fill="#FFFF00" r="3.3125"><title>2018-01-25: 10 km</title></circle><circle cx="85.41666666666667" cy="238.3870967741935" fill="#555555" r="3.3125"><title>2018-01-26</title></circle><circle cx="85.41666666666667" cy="247.22580645161287" fill="#555555" r="3.3125"><title>2018-01-27</title></circle><circle cx="85.41666666666667" cy="256.06451612903226" fill="#555555" r="3.3125"><title>2018-01-28</title></circle><circle cx="85.41666666666667" cy="264.90322580645164" fill="#555555" r="3.3125"><title>2018-01-29</title></circle><circle cx="85.41666666666667" cy="273.741935483871" fill="#5095ac" r="3.3125"><title>2018-01-30: 5 km</title></circle><circle cx="85.41666666666667" cy="282.5806451612903" fill="#555555" r="3.3125"><title>2018-01-31</title></circle><circle cx="94.25" cy="17.419354838709676" fill="#4ebce2" r="3.3125"><title>2018-02-01: 8 km</title></circle><circle cx="94.25" cy="26.25806451612903" fill="#555555" r="3.3125"><title>2018-02-02</title></circle><circle cx="94.25" cy="35.096774193548384" fill="#FFFF00" r="3.3125"><title>2018-02-03: 18 km</title></circle><circle cx="94.25" cy="43.935483870967744" fill="#555555" r="3.3125"><title>2018-02-04</title></circle><circle cx="94.25" cy="52.774193548387096" fill="#555555" r="3.3125"><title>2018-02-05</title></circle><circle cx="94.25" cy="61.61290322580645" fill="#555555" r="3.3125"><title>2018-02-06</title></circle><circle cx="94.25" cy="70.45161290322581" fill="#555555" r="3.3125"><title>2018-02-07</title></circle><circle cx="94.25" cy="79.29032258064517" fill="#555555" r="3.3125"><title>2018-02-08</title></circle><circle cx="94.25" cy="88.12903225806451" fill="#555555" r="3.3125"><title>2018-02-09</title></circle><circle cx="94.25" cy="96.96774193548387" fill="#FFFF00" r="3.3125"><title>2018-02-10: 19 km</title></circle><circle cx="94.25" cy="105.80645161290322" fill="#555555" r="3.3125"><title>2018-02-11</title></circle><circle cx="94.25" cy="114.64516129032258" fill="#536f79" r="3.3125"><title>2018-02-12: 2 km</title></circle><circle cx="94.25" cy="123.48387096774194" fill="#555555" r="3.3125"><title>2018-02-13</title></circle><circle cx="94.25" cy="132.32258064516128" fill="#555555" r="3.3125"><title>2018-02-14</title></circle><circle cx="94.25" cy="141.16129032258064" fill="#555555" r="3.3125"><title>2018-02-15</title></circle><circle cx="94.25" cy="149.99999999999997" fill="#FFFF00" r="3.3125"><title>2018-02-16: 15 km</title></circle><circle cx="94.25" cy="158.83870967741933" fill="#555555" r="3.3125"><title>2018-02-17</title></circle><circle cx="94.25" cy="167.6774193548387" fill="#555555" r="3.3125"><title>2018-02-18</title></circle><circle cx="94.25" cy="176.51612903225805" fill="#4eb3d5" r="3.3125"><title>2018-02-19: 7 km</title></circle><circle cx="94.25" cy="185.35483870967738" fill="#FFFF00" r="3.3125"><title>2018-02-20: 12 km</title></circle><circle cx="94.25" cy="194.19354838709674" fill="#555555" r="3.3125"><title>2018-02-21</title></circle><circle cx="94.25" cy="203.0322580645161" fill="#555555" r="3.3125"><title>2018-02-22</title></circle><circle cx="94.25" cy="211.87096774193546" fill="#555555" r="3.3125"><title>2018-02-23</title></circle><circle cx="94.25" cy="220.70967741935482" fill="#FFFF00" r="3.3125"><title>2018-02-24: 15 km</title></circle><circle cx="94.25" cy="229.54838709677418" fill="#555555" r="3.3125"><title>2018-02-25</title></circle><circle cx="94.25" cy="238.3870967741935" fill="#555555" r="3.3125"><title>2018-02-26</title></circle><circle cx="94.25" cy="247.22580645161287" fill="#555555" r="3.3125"><title>2018-02-27</title></circle><circle cx="94.25" cy="256.06451612903226" fill="#4ebde3" r="3.3125"><title>2018-02-28: 8 km</title></circle><circle cx="103.08333333333334" cy="17.419354838709676" fill="#555555" r="3.3125"><title>2018-03-01</title></circle><circle cx="103.08333333333334" cy="26.25806451612903" fill="#555555" r="3.3125"><title>2018-03-02</title></circle><circle cx="103.08333333333334" cy="35.096774193548384" fill="#555555" r="3.3125"><title>2018-03-03</title></circle><circle cx="103.08333333333334" cy="43.935483870967744" fill="#555555" r="3.3125"><title>2018-03-04</title></circle><circle cx="103.08333333333334" cy="52.774193548387096" fill="#555555" r="3.3125"><title>2018-03-05</title></circle><circle cx="103.08333333333334" cy="61.61290322580645" fill="#51879a" r="3.3125"><title>2018-03-06: 4 km</title></circle><circle cx="103.08333333333334" cy="70.45161290322581" fill="#528293" r="3.3125"><title>2018-03-07: 3 km</title></circle><circle cx="103.08333333333334" cy="79.29032258064517" fill="#4ebce2" r="3.3125"><title>2018-03-08: 8 km</title></circle><circle cx="103.08333333333334" cy="88.12903225806451" fill="#555555" r="3.3125"><title>2018-03-09</title></circle><circle cx="103.08333333333334" cy="96.96774193548387" fill="#555555" r="3.3125"><title>2018-03-10</title></circle><circle cx="103.08333333333334" cy="105.80645161290322" fill="#FFFF00" r="3.3125"><title>2018-03-11: 22 km</title></circle><circle cx="103.08333333333334" cy="114.64516129032258" fill="#555555" r="3.3125"><title>2018-03-12</title></circle><circle cx="103.08333333333334" cy="123.48387096774194" fill="#555555" r="3.3125"><title>2018-03-13</title></circle><circle cx="103.08333333333334" cy="132.32258064516128" fill="#555555" r="3.3125"><title>2018-03-14</title></circle><circle cx="103.08333333333334" cy="141.16129032258064" fill="#555555" r="3.3125"><title>2018-03-15</title></circle><circle cx="103.08333333333334" cy="149.99999999999997" fill="#555555" r="3.3125"><title>2018-03-16</title></circle><circle cx="103.08333333333334" cy="158.83870967741933" fill="#FFFF00" r="3.3125"><title>2018-03-17: 29 km</title></circle><circle cx="103.08333333333334" cy="167.6774193548387" fill="#555555" r="3.3125"><title>2018-03-18</title></circle><circle cx="103.08333333333334" cy="176.51612903225805" fill="#555555" r="3.3125"><title>2018-03-19</title></circle><circle cx="103.08333333333334" cy="185.35483870967738" fill="#555555" r="3.3125"><title>2018-03-20</title></circle><circle cx="103.08333333333334" cy="194.19354838709674" fill="#555555" r="3.3125"><title>2018-03-21</title></circle><circle cx="103.08333333333334" cy="203.0322580645161" fill="#5099b2" r="3.3125"><title>2018-03-22: 5 km</title></circle><circle cx="103.08333333333334" cy="211.87096774193546" fill="#518a9d" r="3.3125"><title>2018-03-23: 4 km</title></circle><circle cx="103.08333333333334" cy="220.70967741935482" fill="#FFFF00" r="3.3125"><title>2018-03-24: 21 km</title></circle><circle cx="103.08333333333334" cy="229.54838709677418" fill="#536d76" r="3.3125"><title>2018-03-25: 1 km</title></circle><circle cx="103.08333333333334" cy="238.3870967741935" fill="#4fadcc" r="3.3125"><title>2018-03-26: 7 km</title></circle><circle cx="103.08333333333334" cy="247.22580645161287" fill="#555555" r="3.3125"><title>2018-03-27</title></circle><circle cx="103.08333333333334" cy="256.06451612903226" fill="#555555" r="3.3125"><title>2018-03-28</title></circle><circle cx="103.08333333333334" cy="264.90322580645164" fill="#555555" r="3.3125"><title>2018-03-29</title></circle><circle cx="103.08333333333334" cy="273.741935483871" fill="#555555" r="3.3125"><title>2018-03-30</title></circle><circle cx="103.08333333333334" cy="282.5806451612903" fill="#555555" r="3.3125"><title>2018-03-31</title></circle><circle cx="111.91666666666667" cy="17.419354838709676" fill="#555555" r="3.3125"><title>2018-04-01</title></circle><circle cx="111.91666666666667" cy="26.25806451612903" fill="#555555" r="3.3125"><title>2018-04-02</title></circle><circle cx="111.91666666666667" cy="35.096774193548384" fill="#555555" r="3.3125"><title>2018-04-03</title></circle><circle cx="111.91666666666667" cy="43.935483870967744" fill="#555555" r="3.3125"><title>2018-04-04</title></circle><circle cx="111.91666666666667" cy="52.774193548387096" fill="#555555" r="3.3125"><title>2018-04-05</title></circle><circle cx="111.91666666666667" cy="61.61290322580645" fill="#555555" r="3.3125"><title>2018-04-06</title></circle><circle cx="111.91666666666667" cy="70.45161290322581" fill="#555555" r="3.3125"><title>2018-04-07</title></circle><circle cx="111.91666666666667" cy="79.29032258064517" fill="#509bb5" r="3.3125"><title>2018-04-08: 5 km</title></circle><circle cx="111.91666666666667" cy="88.12903225806451" fill="#527b88" r="3.3125"><title>2018-04-09: 3 km</title></circle><circle cx="111.91666666666667" cy="96.96774193548387" fill="#53676e" r="3.3125"><title>2018-04-10: 1 km</title></circle><circle cx="111.91666666666667" cy="105.80645161290322" fill="#4fa9c8" r="3.3125"><title>2018-04-11: 6 km</title></circle><circle cx="111.91666666666667" cy="114.64516129032258" fill="#555555" r="3.3125"><title>2018-04-12</title></circle><circle cx="111.91666666666667" cy="123.48387096774194" fill="#555555" r="3.3125"><title>2018-04-13</title></circle><circle cx="111.91666666666667" cy="132.32258064516128" fill="#555555" r="3.3125"><title>2018-04-14</title></circle><circle cx="111.91666666666667" cy="141.16129032258064" fill="#555555" r="3.3125"><title>2018-04-15</title></circle><circle cx="111.91666666666667" cy="149.99999999999997" fill="#555555" r="3.3125"><title>2018-04-16</title></circle><circle cx="111.91666666666667" cy="158.83870967741933" fill="#518ca0" r="3.3125"><title>2018-04-17: 4 km</title></circle><circle cx="111.91666666666667" cy="167.6774193548387" fill="#518ea3" r="3.3125"><title>2018-04-18: 4 km</title></circle><circle cx="111.91666666666667" cy="176.51612903225805" fill="#555555" r="3.3125"><title>2018-04-19</title></circle><circle cx="111.91666666666667" cy="185.35483870967738" fill="#5093aa" r="3.3125"><title>2018-04-20: 5 km</title></circle><circle cx="111.91666666666667" cy="194.19354838709674" fill="#555555" r="3.3125"><title>2018-04-21</title></circle><circle cx="111.91666666666667" cy="203.0322580645161" fill="#555555" r="3.3125"><title>2018-04-22</title></circle><circle cx="111.91666666666667" cy="211.87096774193546" fill="#555555" r="3.3125"><title>2018-04-23</title></circle><circle cx="111.91666666666667" cy="220.70967741935482" fill="#4fa8c6" r="3.3125"><title>2018-04-24: 6 km</title></circle><circle cx="111.91666666666667" cy="229.54838709677418" fill="#4fa7c5" r="3.3125"><title>2018-04-25: 6 km</title></circle><circle cx="111.91666666666667" cy="238.3870967741935" fill="#536c75" r="3.3125"><title>2018-04-26: 1 km</title></circle><circle cx="111.91666666666667" cy="247.22580645161287" fill="#536971" r="3.3125"><title>2018-04-27: 1 km</title></circle><circle cx="111.91666666666667" cy="256.06451612903226" fill="#555555" r="3.3125"><title>2018-04-28</title></circle><circle cx="111.91666666666667" cy="264.90322580645164" fill="#555555" r="3.3125"><title>2018-04-29</title></circle><circle cx="111.91666666666667" cy="273.741935483871" fill="#555555" r="3.3125"><title>2018-04-30</title></circle><circle cx="120.75000000000001" cy="17.419354838709676" fill="#FFFF00" r="3.3125"><title>2018-05-01: 17 km</title></circle><circle cx="120.75000000000001" cy="26.25806451612903" fill="#555555" r="3.3125"><title>2018-05-02</title></circle><circle cx="120.75000000000001" cy="35.096774193548384" fill="#509fba" r="3.3125"><title>2018-05-03: 5 km</title></circle><circle cx="120.75000000000001" cy="43.935483870967744" fill="#555555" r="3.3125"><title>2018-05-04</title></circle><circle cx="120.75000000000001" cy="52.774193548387096" fill="#555555" r="3.3125"><title>2018-05-05</title></circle><circle cx="120.75000000000001" cy="61.61290322580645" fill="#FFFF00" r="3.3125"><title>2018-05-06: 119 km</title></circle><circle cx="120.75000000000001" cy="70.45161290322581" fill="#53656b" r="3.3125"><title>2018-05-07: 1 km</title></circle><circle cx="120.75000000000001" cy="79.29032258064517" fill="#555555" r="3.3125"><title>2018-05-08</title></circle><circle cx="120.75000000000001" cy="88.12903225806451" fill="#555555" r="3.3125"><title>2018-05-09</title></circle><circle cx="120.75000000000001" cy="96.96774193548387" fill="#4eb9de" r="3.3125"><title>2018-05-10: 8 km</title></circle><circle cx="120.75000000000001" cy="105.80645161290322" fill="#5190a6" r="3.3125"><title>2018-05-11: 4 km</title></circle><circle cx="120.75000000000001" cy="114.64516129032258" fill="#555555" r="3.3125"><title>2018-05-12</title></circle><circle cx="120.75000000000001" cy="123.48387096774194" fill="#5097b0" r="3.3125"><title>2018-05-13: 5 km</title></circle><circle cx="120.75000000000001" cy="132.32258064516128" fill="#555555" r="3.3125"><title>2018-05-14</title></circle><circle cx="120.75000000000001" cy="141.16129032258064" fill="#555555" r="3.3125"><title>2018-05-15</title></circle><circle cx="120.75000000000001" cy="149.99999999999997" fill="#518b9f" r="3.3125"><title>2018-05-16: 4 km</title></circle><circle cx="120.75000000000001" cy="158.83870967741933" fill="#4faac8" r="3.3125"><title>2018-05-17: 6 km</title></circle><circle cx="120.75000000000001" cy="167.6774193548387" fill="#50a0bb" r="3.3125"><title>2018-05-18: 6 km</title></circle><circle cx="120.75000000000001" cy="176.51612903225805" fill="#FFFF00" r="3.3125"><title>2018-05-19: 115 km</title></circle><circle cx="120.75000000000001" cy="185.35483870967738" fill="#555555" r="3.3125"><title>2018-05-20</title></circle><circle cx="120.75000000000001" cy="194.19354838709674" fill="#555555" r="3.3125"><title>2018-05-21</title></circle><circle cx="120.75000000000001" cy="203.0322580645161" fill="#FFFF00" r="3.3125"><title>2018-05-22: 10 km</title></circle><circle cx="120.75000000000001" cy="211.87096774193546" fill="#FFFF00" r="3.3125"><title>2018-05-23: 10 km</title></circle><circle cx="120.75000000000001" cy="220.70967741935482" fill="#FFFF00" r="3.3125"><title>2018-05-24: 10 km</title></circle><circle cx="120.75000000000001" cy="229.54838709677418" fill="#FFFF00" r="3.3125"><title>2018-05-25: 15 km</title></circle><circle cx="120.75000000000001" cy="238.3870967741935" fill="#555555" r="3.3125"><title>2018-05-26</title></circle><circle cx="120.75000000000001" cy="247.22580645161287" fill="#4fa6c4" r="3.3125"><title>2018-05-27: 6 km</title></circle><circle cx="120.75000000000001" cy="256.06451612903226" fill="#527987" r="3.3125"><title>2018-05-28: 2 km</title></circle><circle cx="120.75000000000001" cy="264.90322580645164" fill="#FFFF00" r="3.3125"><title>2018-05-29: 22 km</title></circle><circle cx="120.75000000000001" cy="273.741935483871" fill="#FFFF00" r="3.3125"><title>2018-05-30: 12 km</title></circle><circle cx="120.75000000000001" cy="282.5806451612903" fill="#FFFF00" r="3.3125"><title>2018-05-31: 22 km</title></circle><circle cx="129.58333333333334" cy="17.419354838709676" fill="#555555" r="3.3125"><title>2018-06-01</title></circle><circle cx="129.58333333333334" cy="26.25806451612903" fill="#555555" r="3.3125"><title>2018-06-02</title></circle><circle cx="129.58333333333334" cy="35.096774193548384" fill="#555555" r="3.3125"><title>2018-06-03</title></circle><circle cx="129.58333333333334" cy="43.935483870967744" fill="#555555" r="3.3125"><title>2018-06-04</title></circle><circle cx="129.58333333333334" cy="52.774193548387096" fill="#555555" r="3.3125"><title>2018-06-05</title></circle><circle cx="129.58333333333334" cy="61.61290322580645" fill="#555555" r="3.3125"><title>2018-06-06</title></circle><circle cx="129.58333333333334" cy="70.45161290322581" fill="#518ea2" r="3.3125"><title>2018-06-07: 4 km</title></circle><circle cx="129.58333333333334" cy="79.29032258064517" fill="#555555" r="3.3125"><title>2018-06-08</title></circle><circle cx="129.58333333333334" cy="88.12903225806451" fill="#FFFF00" r="3.3125"><title>2018-06-09: 13 km</title></circle><circle cx="129.58333333333334" cy="96.96774193548387" fill="#FFFF00" r="3.3125"><title>2018-06-10: 31 km</title></circle><circle cx="129.58333333333334" cy="105.80645161290322" fill="#4eb7da" r="3.3125"><title>2018-06-11: 7 km</title></circle><circle cx="129.58333333333334" cy="114.64516129032258" fill="#FFFF00" r="3.3125"><title>2018-06-12: 26 km</title></circle><circle cx="129.58333333333334" cy="123.48387096774194" fill="#555555" r="3.3125"><title>2018-06-13</title></circle><circle cx="129.58333333333334" cy="132.32258064516128" fill="#4eb9dd" r="3.3125"><title>2018-06-14: 8 km</title></circle><circle cx="129.58333333333334" cy="141.16129032258064" fill="#555555" r="3.3125"><title>2018-06-15</title></circle><circle cx="129.58333333333334" cy="149.99999999999997" fill="#555555" r="3.3125"><title>2018-06-16</title></circle><circle cx="129.58333333333334" cy="158.83870967741933" fill="#FFFF00" r="3.3125"><title>2018-06-17: 18 km</title></circle><circle cx="129.58333333333334" cy="167.6774193548387" fill="#555555" r="3.3125"><title>2018-06-18</title></circle><circle cx="129.58333333333334" cy="176.51612903225805" fill="#555555" r="3.3125"><title>2018-06-19</title></circle><circle cx="129.58333333333334" cy="185.35483870967738" fill="#555555" r="3.3125"><title>2018-06-20</title></circle><circle cx="129.58333333333334" cy="194.19354838709674" fill="#555555" r="3.3125"><title>2018-06-21</title></circle><circle cx="129.58333333333334" cy="203.0322580645161" fill="#555555" r="3.3125"><title>2018-06-22</title></circle><circle cx="129.58333333333334" cy="211.87096774193546" fill="#555555" r="3.3125"><title>2018-06-23</title></circle><circle cx="129.58333333333334" cy="220.70967741935482" fill="#555555" r="3.3125"><title>2018-06-24</title></circle><circle cx="129.58333333333334" cy="229.54838709677418" fill="#555555" r="3.3125"><title>2018-06-25</title></circle><circle cx="129.58333333333334" cy="238.3870967741935" fill="#555555" r="3.3125"><title>2018-06-26</title></circle><circle cx="129.58333333333334" cy="247.22580645161287" fill="#4dc4eb" r="3.3125"><title>2018-06-27: 8 km</title></circle><circle cx="129.58333333333334" cy="256.06451612903226" fill="#5096ae" r="3.3125"><title>2018-06-28: 5 km</title></circle><circle cx="129.58333333333334" cy="264.90322580645164" fill="#555555" r="3.3125"><title>2018-06-29</title></circle><circle cx="129.58333333333334" cy="273.741935483871" fill="#FFFF00" r="3.3125"><title>2018-06-30: 24 km</title></circle><circle cx="138.41666666666666" cy="17.419354838709676" fill="#555555" r="3.3125"><title>2018-07-01</title></circle><circle cx="138.41666666666666" cy="26.25806451612903" fill="#555555" r="3.3125"><title>2018-07-02</title></circle><circle cx="138.41666666666666" cy="35.096774193548384" fill="#4fa7c5" r="3.3125"><title>2018-07-03: 6 km</title></circle><circle cx="138.41666666666666" cy="43.935483870967744" fill="#FFFF00" r="3.3125"><title>2018-07-04: 14 km</title></circle><circle cx="138.41666666666666" cy="52.774193548387096" fill="#518c9f" r="3.3125"><title>2018-07-05: 4 km</title></circle><circle cx="138.41666666666666" cy="61.61290322580645" fill="#555555" r="3.3125"><title>2018-07-06</title></circle><circle cx="138.41666666666666" cy="70.45161290322581" fill="#50a0bb" r="3.3125"><title>2018-07-07: 6 km</title></circle><circle cx="138.41666666666666" cy="79.29032258064517" fill="#5193a9" r="3.3125"><title>2018-07-08: 4 km</title></circle><circle cx="138.41666666666666" cy="88.12903225806451" fill="#555555" r="3.3125"><title>2018-07-09</title></circle><circle cx="138.41666666666666" cy="96.96774193548387" fill="#4fabca" r="3.3125"><title>2018-07-10: 6 km</title></circle><circle cx="138.41666666666666" cy="105.80645161290322" fill="#FFFF00" r="3.3125"><title>2018-07-11: 10 km</title></circle><circle cx="138.41666666666666" cy="114.64516129032258" fill="#555555" r="3.3125"><title>2018-07-12</title></circle><circle cx="138.41666666666666" cy="123.48387096774194" fill="#555555" r="3.3125"><title>2018-07-13</title></circle><circle cx="138.41666666666666" cy="132.32258064516128" fill="#FFFF00" r="3.3125"><title>2018-07-14: 74 km</title></circle><circle cx="138.41666666666666" cy="141.16129032258064" fill="#555555" r="3.3125"><title>2018-07-15</title></circle><circle cx="138.41666666666666" cy="149.99999999999997" fill="#555555" r="3.3125"><title>2018-07-16</title></circle><circle cx="138.41666666666666" cy="158.83870967741933" fill="#555555" r="3.3125"><title>2018-07-17</title></circle><circle cx="138.41666666666666" cy="167.6774193548387" fill="#555555" r="3.3125"><title>2018-07-18</title></circle><circle cx="138.41666666666666" cy="176.51612903225805" fill="#555555" r="3.3125"><title>2018-07-19</title></circle><circle cx="138.41666666666666" cy="185.35483870967738" fill="#555555" r="3.3125"><title>2018-07-20</title></circle><circle cx="138.41666666666666" cy="194.19354838709674" fill="#555555" r="3.3125"><title>2018-07-21</title></circle><circle cx="138.41666666666666" cy="203.0322580645161" fill="#555555" r="3.3125"><title>2018-07-22</title></circle><circle cx="138.41666666666666" cy="211.87096774193546" fill="#555555" r="3.3125"><title>2018-07-23</title></circle><circle cx="138.41666666666666" cy="220.70967741935482" fill="#555555" r="3.3125"><title>2018-07-24</title></circle><circle cx="138.41666666666666" cy="229.54838709677418" fill="#555555" r="3.3125"><title>2018-07-25</title></circle><circle cx="138.41666666666666" cy="238.3870967741935" fill="#555555" r="3.3125"><title>2018-07-26</title></circle><circle cx="138.41666666666666" cy="247.22580645161287" fill="#555555" r="3.3125"><title>2018-07-27</title></circle><circle cx="138.41666666666666" cy="256.06451612903226" fill="#555555" r="3.3125"><title>2018-07-28</title></circle><circle cx="138.41666666666666" cy="264.90322580645164" fill="#555555" r="3.3125"><title>2018-07-29</title></circle><circle cx="138.41666666666666" cy="273.741935483871" fill="#FFFF00" r="3.3125"><title>2018-07-30: 10 km</title></circle><circle cx="138.41666666666666" cy="282.5806451612903" fill="#555555" r="3.3125"><title>2018-07-31</title></circle><circle cx="147.25" cy="17.419354838709676" fill="#FFFF00" r="3.3125"><title>2018-08-01: 10 km</title></circle><circle cx="147.25" cy="26.25806451612903" fill="#FFFF00" r="3.3125"><title>2018-08-02: 10 km</title></circle><circle cx="147.25" cy="35.096774193548384" fill="#518a9e" r="3.3125"><title>2018-08-03: 4 km</title></circle><circle cx="147.25" cy="43.935483870967744" fill="#555555" r="3.3125"><title>2018-08-04</title></circle><circle cx="147.25" cy="52.774193548387096" fill="#509db7" r="3.3125"><title>2018-08-05: 5 km</title></circle><circle cx="147.25" cy="61.61290322580645" fill="#555555" r="3.3125"><title>2018-08-06</title></circle><circle cx="147.25" cy="70.45161290322581" fill="#FFFF00" r="3.3125"><title>2018-08-07: 14 km</title></circle><circle cx="147.25" cy="79.29032258064517" fill="#50a0bb" r="3.3125"><title>2018-08-08: 6 km</title></circle><circle cx="147.25" cy="88.12903225806451" fill="#FFFF00" r="3.3125"><title>2018-08-09: 30 km</title></circle><circle cx="147.25" cy="96.96774193548387" fill="#555555" r="3.3125"><title>2018-08-10</title></circle><circle cx="147.25" cy="105.80645161290322" fill="#FFFF00" r="3.3125"><title>2018-08-11: 25 km</title></circle><circle cx="147.25" cy="114.64516129032258" fill="#555555" r="3.3125"><title>2018-08-12</title></circle><circle cx="147.25" cy="123.48387096774194" fill="#555555" r="3.3125"><title>2018-08-13</title></circle><circle cx="147.25" cy="132.32258064516128" fill="#555555" r="3.3125"><title>2018-08-14</title></circle><circle cx="147.25" cy="141.16129032258064" fill="#555555" r="3.3125"><title>2018-08-15</title></circle><circle cx="147.25" cy="149.99999999999997" fill="#FFFF00" r="3.3125"><title>2018-08-16: 19 km</title></circle><circle cx="147.25" cy="158.83870967741933" fill="#555555" r="3.3125"><title>2018-08-17</title></circle><circle cx="147.25" cy="167.6774193548387" fill="#FFFF00" r="3.3125"><title>2018-08-18: 30 km</title></circle><circle cx="147.25" cy="176.51612903225805" fill="#4fa8c5" r="3.3125"><title>2018-08-19: 6 km</title></circle><circle cx="147.25" cy="185.35483870967738" fill="#4fa8c6" r="3.3125"><title>2018-08-20: 6 km</title></circle><circle cx="147.25" cy="194.19354838709674" fill="#5095ac" r="3.3125"><title>2018-08-21: 5 km</title></circle><circle cx="147.25" cy="203.0322580645161" fill="#FFFF00" r="3.3125"><title>2018-08-22: 13 km</title></circle><circle cx="147.25" cy="211.87096774193546" fill="#555555" r="3.3125"><title>2018-08-23</title></circle><circle cx="147.25" cy="220.70967741935482" fill="#4dc6ee" r="3.3125"><title>2018-08-24: 9 km</title></circle><circle cx="147.25" cy="229.54838709677418" fill="#FFFF00" r="3.3125"><title>2018-08-25: 21 km</title></circle><circle cx="147.25" cy="238.3870967741935" fill="#4dc7f1" r="3.3125"><title>2018-08-26: 9 km</title></circle><circle cx="147.25" cy="247.22580645161287" fill="#FFFF00" r="3.3125"><title>2018-08-27: 10 km</title></circle><circle cx="147.25" cy="256.06451612903226" fill="#5098b1" r="3.3125"><title>2018-08-28: 5 km</title></circle><circle cx="147.25" cy="264.90322580645164" fill="#FFFF00" r="3.3125"><title>2018-08-29: 12 km</title></circle><circle cx="147.25" cy="273.741935483871" fill="#4dcefa" r="3.3125"><title>2018-08-30: 9 km</title></circle><circle cx="147.25" cy="282.5806451612903" fill="#4dcdf9" r="3.3125"><title>2018-08-31: 9 km</title></circle><circle cx="156.08333333333334" cy="17.419354838709676" fill="#555555" r="3.3125"><title>2018-09-01</title></circle><circle cx="156.08333333333334" cy="26.25806451612903" fill="#FFFF00" r="3.3125"><title>2018-09-02: 20 km</title></circle><circle cx="156.08333333333334" cy="35.096774193548384" fill="#555555" r="3.3125"><title>2018-09-03</title></circle><circle cx="156.08333333333334" cy="43.935483870967744" fill="#FFFF00" r="3.3125"><title>2018-09-04: 36 km</title></circle><circle cx="156.08333333333334" cy="52.774193548387096" fill="#555555" r="3.3125"><title>2018-09-05</title></circle><circle cx="156.08333333333334" cy="61.61290322580645" fill="#FFFF00" r="3.3125"><title>2018-09-06: 11 km</title></circle><circle cx="156.08333333333334" cy="70.45161290322581" fill="#FFFF00" r="3.3125"><title>2018-09-07: 29 km</title></circle><circle cx="156.08333333333334" cy="79.29032258064517" fill="#555555" r="3.3125"><title>2018-09-08</title></circle><circle cx="156.08333333333334" cy="88.12903225806451" fill="#555555" r="3.3125"><title>2018-09-09</title></circle><circle cx="156.08333333333334" cy="96.96774193548387" fill="#4ebbe0" r="3.3125"><title>2018-09-10: 8 km</title></circle><circle cx="156.08333333333334" cy="105.80645161290322" fill="#555555" r="3.3125"><title>2018-09-11</title></circle><circle cx="156.08333333333334" cy="114.64516129032258" fill="#FFFF00" r="3.3125"><title>2018-09-12: 10 km</title></circle><circle cx="156.08333333333334" cy="123.48387096774194" fill="#5094ab" r="3.3125"><title>2018-09-13: 5 km</title></circle><circle cx="156.08333333333334" cy="132.32258064516128" fill="#555555" r="3.3125"><title>2018-09-14</title></circle><circle cx="156.08333333333334" cy="141.16129032258064" fill="#555555" r="3.3125"><title>2018-09-15</title></circle><circle cx="156.08333333333334" cy="149.99999999999997" fill="#FFFF00" r="3.3125"><title>2018-09-16: 42 km</title></circle><circle cx="156.08333333333334" cy="158.83870967741933" fill="#555555" r="3.3125"><title>2018-09-17</title></circle><circle cx="156.08333333333334" cy="167.6774193548387" fill="#555555" r="3.3125"><title>2018-09-18</title></circle><circle cx="156.08333333333334" cy="176.51612903225805" fill="#518da1" r="3.3125"><title>2018-09-19: 4 km</title></circle><circle cx="156.08333333333334" cy="185.35483870967738" fill="#555555" r="3.3125"><title>2018-09-20</title></circle><circle cx="156.08333333333334" cy="194.19354838709674" fill="#509fba" r="3.3125"><title>2018-09-21: 5 km</title></circle><circle cx="156.08333333333334" cy="203.0322580645161" fill="#509ab3" r="3.3125"><title>2018-09-22: 5 km</title></circle><circle cx="156.08333333333334" cy="211.87096774193546" fill="#555555" r="3.3125"><title>2018-09-23</title></circle><circle cx="156.08333333333334" cy="220.70967741935482" fill="#555555" r="3.3125"><title>2018-09-24</title></circle><circle cx="156.08333333333334" cy="229.54838709677418" fill="#FFFF00" r="3.3125"><title>2018-09-25: 10 km</title></circle><circle cx="156.08333333333334" cy="238.3870967741935" fill="#518a9e" r="3.3125"><title>2018-09-26: 4 km</title></circle><circle cx="156.08333333333334" cy="247.22580645161287" fill="#555555" r="3.3125"><title>2018-09-27</title></circle><circle cx="156.08333333333334" cy="256.06451612903226" fill="#FFFF00" r="3.3125"><title>2018-09-28: 14 km</title></circle><circle cx="156.08333333333334" cy="264.90322580645164" fill="#FFFF00" r="3.3125"><title>2018-09-29: 22 km</title></circle><circle cx="156.08333333333334" cy="273.741935483871" fill="#FFFF00" r="3.3125"><title>2018-09-30: 19 km</title></circle><circle cx="164.91666666666666" cy="17.419354838709676" fill="#FFFF00" r="3.3125"><title>2018-10-01: 18 km</title></circle><circle cx="164.91666666666666" cy="26.25806451612903" fill="#FFFF00" r="3.3125"><title>2018-10-02: 10 km</title></circle><circle cx="164.91666666666666" cy="35.096774193548384" fill="#4fb1d2" r="3.3125"><title>2018-10-03: 7 km</title></circle><circle cx="164.91666666666666" cy="43.935483870967744" fill="#FFFF00" r="3.3125"><title>2018-10-04: 15 km</title></circle><circle cx="164.91666666666666" cy="52.774193548387096" fill="#4eb6d9" r="3.3125"><title>2018-10-05: 7 km</title></circle><circle cx="164.91666666666666" cy="61.61290322580645" fill="#555555" r="3.3125"><title>2018-10-06</title></circle><circle cx="164.91666666666666" cy="70.45161290322581" fill="#4dcffb" r="3.3125"><title>2018-10-07: 9 km</title></circle><circle cx="164.91666666666666" cy="79.29032258064517" fill="#FFFF00" r="3.3125"><title>2018-10-08: 26 km</title></circle><circle cx="164.91666666666666" cy="88.12903225806451" fill="#555555" r="3.3125"><title>2018-10-09</title></circle><circle cx="164.91666666666666" cy="96.96774193548387" fill="#518b9e" r="3.3125"><title>2018-10-10: 4 km</title></circle><circle cx="164.91666666666666" cy="105.80645161290322" fill="#555555" r="3.3125"><title>2018-10-11</title></circle><circle cx="164.91666666666666" cy="114.64516129032258" fill="#555555" r="3.3125"><title>2018-10-12</title></circle><circle cx="164.91666666666666" cy="123.48387096774194" fill="#FFFF00" r="3.3125"><title>2018-10-13: 103 km</title></circle><circle cx="164.91666666666666" cy="132.32258064516128" fill="#555555" r="3.3125"><title>2018-10-14</title></circle><circle cx="164.91666666666666" cy="141.16129032258064" fill="#555555" r="3.3125"><title>2018-10-15</title></circle><circle cx="164.91666666666666" cy="149.99999999999997" fill="#555555" r="3.3125"><title>2018-10-16</title></circle><circle cx="164.91666666666666" cy="158.83870967741933" fill="#555555" r="3.3125"><title>2018-10-17</title></circle><circle cx="164.91666666666666" cy="167.6774193548387" fill="#555555" r="3.3125"><title>2018-10-18</title></circle><circle cx="164.91666666666666" cy="176.51612903225805" fill="#555555" r="3.3125"><title>2018-10-19</title></circle><circle cx="164.91666666666666" cy="185.35483870967738" fill="#555555" r="3.3125"><title>2018-10-20</title></circle><circle cx="164.91666666666666" cy="194.19354838709674" fill="#555555" r="3.3125"><title>2018-10-21</title></circle><circle cx="164.91666666666666" cy="203.0322580645161" fill="#555555" r="3.3125"><title>2018-10-22</title></circle><circle cx="164.91666666666666" cy="211.87096774193546" fill="#555555" r="3.3125"><title>2018-10-23</title></circle><circle cx="164.91666666666666" cy="220.70967741935482" fill="#555555" r="3.3125"><title>2018-10-24</title></circle><circle cx="164.91666666666666" cy="229.54838709677418" fill="#555555" r="3.3125"><title>2018-10-25</title></circle><circle cx="164.91666666666666" cy="238.3870967741935" fill="#555555" r="3.3125"><title>2018-10-26</title></circle><circle cx="164.91666666666666" cy="247.22580645161287" fill="#FFFF00" r="3.3125"><title>2018-10-27: 10 km</title></circle><circle cx="164.91666666666666" cy="256.06451612903226" fill="#555555" r="3.3125"><title>2018-10-28</title></circle><circle cx="164.91666666666666" cy="264.90322580645164" fill="#555555" r="3.3125"><title>2018-10-29</title></circle><circle cx="164.91666666666666" cy="273.741935483871" fill="#555555" r="3.3125"><title>2018-10-30</title></circle><circle cx="164.91666666666666" cy="282.5806451612903" fill="#555555" r="3.3125"><title>2018-10-31</title></circle><circle cx="173.75" cy="17.419354838709676" fill="#555555" r="3.3125"><title>2018-11-01</title></circle><circle cx="173.75" cy="26.25806451612903" fill="#555555" r="3.3125"><title>2018-11-02</title></circle><circle cx="173.75" cy="35.096774193548384" fill="#555555" r="3.3125"><title>2018-11-03</title></circle><circle cx="173.75" cy="43.935483870967744" fill="#5099b1" r="3.3125"><title>2018-11-04: 5 km</title></circle><circle cx="173.75" cy="52.774193548387096" fill="#FFFF00" r="3.3125"><title>2018-11-05: 10 km</title></circle><circle cx="173.75" cy="61.61290322580645" fill="#5095ac" r="3.3125"><title>2018-11-06: 5 km</title></circle><circle cx="173.75" cy="70.45161290322581" fill="#53656b" r="3.3125"><title>2018-11-07: 1 km</title></circle><circle cx="173.75" cy="79.29032258064517" fill="#555555" r="3.3125"><title>2018-11-08</title></circle><circle cx="173.75" cy="88.12903225806451" fill="#555555" r="3.3125"><title>2018-11-09</title></circle><circle cx="173.75" cy="96.96774193548387" fill="#FFFF00" r="3.3125"><title>2018-11-10: 12 km</title></circle><circle cx="173.75" cy="105.80645161290322" fill="#555555" r="3.3125"><title>2018-11-11</title></circle><circle cx="173.75" cy="114.64516129032258" fill="#FFFF00" r="3.3125"><title>2018-11-12: 10 km</title></circle><circle cx="173.75" cy="123.48387096774194" fill="#555555" r="3.3125"><title>2018-11-13</title></circle><circle cx="173.75" cy="132.32258064516128" fill="#555555" r="3.3125"><title>2018-11-14</title></circle><circle cx="173.75" cy="141.16129032258064" fill="#555555" r="3.3125"><title>2018-11-15</title></circle><circle cx="173.75" cy="149.99999999999997" fill="#555555" r="3.3125"><title>2018-11-16</title></circle><circle cx="173.75" cy="158.83870967741933" fill="#555555" r="3.3125"><title>2018-11-17</title></circle><circle cx="173.75" cy="167.6774193548387" fill="#FFFF00" r="3.3125"><title>2018-11-18: 17 km</title></circle><circle cx="173.75" cy="176.51612903225805" fill="#555555" r="3.3125"><title>2018-11-19</title></circle><circle cx="173.75" cy="185.35483870967738" fill="#4fb0d0" r="3.3125"><title>2018-11-20: 7 km</title></circle><circle cx="173.75" cy="194.19354838709674" fill="#5096ad" r="3.3125"><title>2018-11-21: 5 km</title></circle><circle cx="173.75" cy="203.0322580645161" fill="#555555" r="3.3125"><title>2018-11-22</title></circle><circle cx="173.75" cy="211.87096774193546" fill="#518799" r="3.3125"><title>2018-11-23: 4 km</title></circle><circle cx="173.75" cy="220.70967741935482" fill="#4eb3d5" r="3.3125"><title>2018-11-24: 7 km</title></circle><circle cx="173.75" cy="229.54838709677418" fill="#FFFF00" r="3.3125"><title>2018-11-25: 22 km</title></circle><circle cx="173.75" cy="238.3870967741935" fill="#555555" r="3.3125"><title>2018-11-26</title></circle><circle cx="173.75" cy="247.22580645161287" fill="#555555" r="3.3125"><title>2018-11-27</title></circle><circle cx="173.75" cy="256.06451612903226" fill="#555555" r="3.3125"><title>2018-11-28</title></circle><circle cx="173.75" cy="264.90322580645164" fill="#4dd0fc" r="3.3125"><title>2018-11-29: 9 km</title></circle><circle cx="173.75" cy="273.741935483871" fill="#555555" r="3.3125"><title>2018-11-30</title></circle><circle cx="182.58333333333334" cy="17.419354838709676" fill="#555555" r="3.3125"><title>2018-12-01</title></circle><circle cx="182.58333333333334" cy="26.25806451612903" fill="#53737e" r="3.3125"><title>2018-12-02: 2 km</title></circle><circle cx="182.58333333333334" cy="35.096774193548384" fill="#4fa4c1" r="3.3125"><title>2018-12-03: 6 km</title></circle><circle cx="182.58333333333334" cy="43.935483870967744" fill="#4dd0fc" r="3.3125"><title>2018-12-04: 9 km</title></circle><circle cx="182.58333333333334" cy="52.774193548387096" fill="#555555" r="3.3125"><title>2018-12-05</title></circle><circle cx="182.58333333333334" cy="61.61290322580645" fill="#4dcdf9" r="3.3125"><title>2018-12-06: 9 km</title></circle><circle cx="182.58333333333334" cy="70.45161290322581" fill="#5096ad" r="3.3125"><title>2018-12-07: 5 km</title></circle><circle cx="182.58333333333334" cy="79.29032258064517" fill="#555555" r="3.3125"><title>2018-12-08</title></circle><circle cx="182.58333333333334" cy="88.12903225806451" fill="#FFFF00" r="3.3125"><title>2018-12-09: 19 km</title></circle><circle cx="182.58333333333334" cy="96.96774193548387" fill="#555555" r="3.3125"><title>2018-12-10</title></circle><circle cx="182.58333333333334" cy="105.80645161290322" fill="#555555" r="3.3125"><title>2018-12-11</title></circle><circle cx="182.58333333333334" cy="114.64516129032258" fill="#555555" r="3.3125"><title>2018-12-12</title></circle><circle cx="182.58333333333334" cy="123.48387096774194" fill="#4eb2d4" r="3.3125"><title>2018-12-13: 7 km</title></circle><circle cx="182.58333333333334" cy="132.32258064516128" fill="#4dd0fc" r="3.3125"><title>2018-12-14: 9 km</title></circle><circle cx="182.58333333333334" cy="141.16129032258064" fill="#50a0bc" r="3.3125"><title>2018-12-15: 6 km</title></circle><circle cx="182.58333333333334" cy="149.99999999999997" fill="#FFFF00" r="3.3125"><title>2018-12-16: 23 km</title></circle><circle cx="182.58333333333334" cy="158.83870967741933" fill="#555555" r="3.3125"><title>2018-12-17</title></circle><circle cx="182.58333333333334" cy="167.6774193548387" fill="#555555" r="3.3125"><title>2018-12-18</title></circle><circle cx="182.58333333333334" cy="176.51612903225805" fill="#555555" r="3.3125"><title>2018-12-19</title></circle><circle cx="182.58333333333334" cy="185.35483870967738" fill="#555555" r="3.3125"><title>2018-12-20</title></circle><circle cx="182.58333333333334" cy="194.19354838709674" fill="#555555" r="3.3125"><title>2018-12-21</title></circle><circle cx="182.58333333333334" cy="203.0322580645161" fill="#555555" r="3.3125"><title>2018-12-22</title></circle><circle cx="182.58333333333334" cy="211.87096774193546" fill="#5097af" r="3.3125"><title>2018-12-23: 5 km</title></circle><circle cx="182.58333333333334" cy="220.70967741935482" fill="#555555" r="3.3125"><title>2018-12-24</title></circle><circle cx="182.58333333333334" cy="229.54838709677418" fill="#FFFF00" r="3.3125"><title>2018-12-25: 10 km</title></circle><circle cx="182.58333333333334" cy="238.3870967741935" fill="#555555" r="3.3125"><title>2018-12-26</title></circle><circle cx="182.58333333333334" cy="247.22580645161287" fill="#555555" r="3.3125"><title>2018-12-27</title></circle><circle cx="182.58333333333334" cy="256.06451612903226" fill="#555555" r="3.3125"><title>2018-12-28</title></circle><circle cx="182.58333333333334" cy="264.90322580645164" fill="#555555" r="3.3125"><title>2018-12-29</title></circle><circle cx="182.58333333333334" cy="273.741935483871" fill="#555555" r="3.3125"><title>2018-12-30</title></circle><circle cx="182.58333333333334" cy="282.5806451612903" fill="#555555" r="3.3125"><title>2018-12-31</title></circle></svg>