<?xml version="1.0" encoding="utf-8" ?>
<svg baseProfile="full" height="200mm" version="1.1" viewBox="0,0,200,200" width="200mm" xmlns="http://www.w3.org/2000/svg" xmlns:ev="http://www.w3.org/2001/xml-events" xmlns:xlink="http://www.w3.org/1999/xlink"><defs /><rect fill="#1a1a1a" height="200" width="200" x="0" y="0" /><rect fill="#1a1a1a" height="200" width="180" x="10" y="0" /><text alignment-baseline="middle" fill="#e1ed5e" style="dominant-baseline: central; font-size:9.0px; font-family:Arial;" text-anchor="middle" x="100.0" y="100.0">2022</text><line stroke="#e1ed5e" stroke-width="0.3" x1="100.0" x2="100.0" y1="15.0" y2="10.0" /><path d="M 100.0 14.0 a86.0,86.0 0 0,1 42.46469731375804,11.215312516191453" fill="none" id="id109" stroke="none" /><text fill="#e1ed5e" style="font-size:6.75px; font-family:Arial;" text-anchor="middle"><textPath startOffset="22.20632615414155" xlink:href="#id109">January</textPath></text><path d="M 100.0 79.0 l 0.0 -9.114460265625052 a30.114460265625052,30.114460265625052 0 0,0 0.518370929992936,0.004461782249992443 l -0.1568904507204076 9.113109859983618" fill="#ff770b" stroke="none" /><path d="M 100.36148047927253 79.00311137660856 l 0.44063501431214436 -25.59464438494152 a46.598437069623145,46.598437069623145 0 0,0 0.8018778094528534,0.02071013804818888 l -0.8811394589598655 25.583267454750974" fill="#bbff1f" stroke="none" /><path d="M 100.72285384407766 79.0124445844662 l 0.3204586684710677 -9.304293140346267 a30.30981012694098,30.30981012694098 0 0,0 0.5212697998039721,0.02244697409971034 l -0.4805693006643713 9.297398439722361" fill="#ff7a0b" stroke="none" /><path d="M 101.44485096284872 79.0497635885617 l 0.4991479309097225 -7.237609570623848 a28.254801234611282,28.254801234611282 0 0,0 0.48491940774147335,0.037639078878823784 l -0.623657528013537 7.22794522955656" fill="#ff5e08" stroke="none" /><path d="M 101.80526077348638 79.07773832637324 l 0.5053233729830664 -5.8564989582826055 a26.87825924569921,26.87825924569921 0 0,0 0.46061000619435577,0.04374047019531653 l -0.6060585062676663 5.846932943572111" fill="#ff4b07" stroke="none" /><path d="M 102.16513564639614 79.11191278185805 l 0.8323075868332083 -8.029664790301318 a29.072685585584566,29.072685585584566 0 0,0 0.4973274609873732,0.05588053493862515 l -0.9704017513303067 8.014148301892092" fill="#ff6909" stroke="none" /><path d="M 102.52436894288641 79.15227682838746 l 1.1545765785964794 -9.535172328449175 a30.60481954068198,30.60481954068198 0 0,0 0.5224465258099884,0.06782855336582548 l -1.318537832914314 9.513885451919212" fill="#ff7e0b" stroke="none" /><path d="M 102.88285421437855 79.19881850522331 l 2.2560697363389166 -16.27862963600293 a37.43422141390876,37.43422141390876 0 0,0 0.6375066081483636,0.09395190236440777 l -2.535945324915936 16.237383249477553" fill="#ffd614" stroke="none" /><path d="M 103.95276090670814 79.375362276772 l 1.073818646391086 -5.602949706540035 a26.704921725962087,26.704921725962087 0 0,0 0.4507200615348626,0.09041020418970068 l -1.1701051173930739 5.5836355462731255" fill="#ff4906" stroke="none" /><path d="M 104.66035177308747 79.52364482259891 l 1.603951940819476 -7.047341322464788 a28.227564011738554,28.227564011738554 0 0,0 0.47284706638470225,0.11190762353726362 l -1.7250226941667017 7.018687786786655" fill="#ff5d08" stroke="none" /><path d="M 105.01212808612495 79.60689891045804 l 5.354938237754558 -21.787910231801675 a43.43631867751958,43.43631867751958 0 0,0 0.7245407781418922,0.18470157692174966 l -5.729187904581475 21.692505658711056" fill="#dfff1b" stroke="none" /><path d="M 105.36241919743992 79.69619591428918 l 2.432129271815149 -9.208805658019527 a30.52456584007862,30.52456584007862 0 0,0 0.5068562161412012,0.13854295047587836 l -2.5902833771800613 9.165576166717354" fill="#ff7d0b" stroke="none" /><path d="M 106.0581310904928 79.89281104454417 l 1.928935264194228 -6.402216337124607 a27.686491253325414,27.686491253325414 0 0,0 0.4551324647126044,0.1414118722575218 l -2.0388531016175504 6.3680643299845645" fill="#ff5608" stroke="none" /><path d="M 106.40334571778207 80.00007090966166 l 1.352351593278311 -4.223875636710204 a25.43508514306506,25.43508514306506 0 0,0 0.4158238879686149,0.13709059811870314 l -1.4248583034893434 4.199971314332265" fill="#ff3705" stroke="none" /><path d="M 106.74666289553966 80.11325718540242 l 1.5689537122465667 -4.624712905706826 a25.883603711541667,25.883603711541667 0 0,0 0.4206923688782768,0.1467713069904317 l -1.6483280851881172 4.597020745544186" fill="#ff3d05" stroke="none" /><path d="M 107.4271985657038 80.35727306442388 l 2.035127721145635 -5.382306363812277 a26.75421294664262,26.75421294664262 0 0,0 0.4293628652477347,0.16658612116378646 l -2.1274737513930364 5.346477538757943" fill="#ff4906" stroke="none" /><path d="M 107.76421540070413 80.48803036053334 l 2.3175525686331695 -5.824157757516281 a27.268322223116428,27.268322223116428 0 0,0 0.4346260617780243,0.17729488340975846 l -2.4174624999995813 5.783401987922943" fill="#ff5007" stroke="none" /><path d="M 108.09893153111575 80.62456947434976 l 1.4880422631132417 -3.5599090296556697 a24.858396308861384,24.858396308861384 0 0,0 0.39337375470094826,0.1684221124244198 l -1.5490997756045053 3.533767389268459" fill="#ff2f04" stroke="none" /><path d="M 108.43124777332544 80.76684994638697 l 1.3136000452305012 -2.996551336124032 a24.271828997496094,24.271828997496094 0 0,0 0.3812039628995588,0.17103510632422592 l -1.3649861265968404 2.9734958992832747" fill="#ff2603" stroke="none" /><path d="M 108.76106565485865 80.91482961587045 l 2.3102043549409035 -5.03256629651597 a26.537487488962515,26.537487488962515 0 0,0 0.4135068630358502,0.19414701671702195 l -2.3964894292763517 4.992054297158945" fill="#ff4606" stroke="none" /><path d="M 109.41281617654863 81.2277094730956 l 3.1065101582843355 -6.195415922535951 a27.930626509684082,27.930626509684082 0 0,0 0.4279231502174445,0.2191988581667029 l -3.2126937960905355 6.1410245390567475" fill="#ff5908" stroke="none" /><path d="M 109.73455568895987 81.39251694778311 l 2.6811624118107114 -5.125008858348776 a26.78397334681446,26.78397334681446 0 0,0 0.40667631310883234,0.2172324023701197 l -2.768983771447855 5.0780977294769025" fill="#ff4a06" stroke="none" /><path d="M 110.05341064243156 81.56283822128135 l 3.022250301634783 -5.542568559951379 a27.313007455048112,27.313007455048112 0 0,0 0.4108343385736009,0.2286288646153083 l -3.117208729280419 5.489724297775891" fill="#ff5107" stroke="none" /><line stroke="#e1ed5e" stroke-width="0.3" x1="143.23703022742887" x2="145.7803849466894" y1="26.81831364943548" y2="22.513508569990506" /><path d="M 143.74570117128098 25.957352633546492 a86.0,86.0 0 0,1 28.547481713284135,27.462654790039103" fill="none" id="id110" stroke="none" /><text fill="#e1ed5e" style="font-size:6.75px; font-family:Arial;" text-anchor="middle"><textPath startOffset="19.985693538727396" xlink:href="#id110">February</textPath></text><path d="M 110.68208982089419 81.91981866633111 l 1.148055157951142 -1.9431633495731975 a23.256970192276086,23.256970192276086 0 0,0 0.3429161998273505,0.20660317348043047 l -1.1813334239961302 1.9231135666341526" fill="#ff1802" stroke="none" /><path d="M 110.99172775467656 82.1063720568725 l 2.7487137506149053 -4.474679711270648 a26.251493673353956,26.251493673353956 0 0,0 0.3829978515779216,0.2398332195218041 l -2.82533075456509 4.426702150425899" fill="#ff4206" stroke="none" /><path d="M 111.60114157652 82.49532879139004 l 2.0668824829602293 -3.1186670770642495 a24.74140181428463,24.74140181428463 0 0,0 0.35297180177910203,0.2383281361934215 l -2.120258979145873 3.082627028572158" fill="#ff2d04" stroke="none" /><path d="M 111.90073688211348 82.69761687909136 l 2.7336510116629444 -3.974432641540085 a25.823791317595024,25.823791317595024 0 0,0 0.36407716509666516,0.2550593207890613 l -2.8016593163432604 3.926788477987088" fill="#ff3c05" stroke="none" /><path d="M 113.34407831869373 83.78471172551755 l 1.728661356788956 -2.100612838132297 a23.720449297851673,23.720449297851673 0 0,0 0.31304494013538037,0.2621661346728554 l -1.7645638338834537 2.070545546065622" fill="#ff1f03" stroke="none" /><path d="M 116.60985879189232 87.15038557335679 l 4.0876375216927805 -3.1622524145280617 a26.16803839400785,26.16803839400785 0 0,0 0.272551409233746,0.358645706434528 l -4.14146487115064 3.0914219322125" fill="#ff4106" stroke="none" /><path d="M 117.04232023915458 87.72973835380427 l 3.3324554089014398 -2.399327041018524 a25.106340134728146,25.106340134728146 0 0,0 0.24949411185852602,0.3528917276870508 l -3.373262140563849 2.3416088129996804" fill="#ff3204" stroke="none" /><path d="M 117.2510076193507 88.02491185347247 l 1.6211493919209465 -1.1253491561366276 a22.973457897737642,22.973457897737642 0 0,0 0.22270637937946655,0.3267941312155372 l -1.6402802369691465 1.0972770016506839" fill="#ff1402" stroke="none" /><line stroke="#e1ed5e" stroke-width="0.3" x1="172.23445277983987" x2="176.4835382374775" y1="55.19839476539836" y2="52.563006222186495" /><path d="M 173.08426987136738 54.67131705675599 a86.0,86.0 0 0,1 12.851231095245387,41.99856678651699" fill="none" id="id111" stroke="none" /><text fill="#e1ed5e" style="font-size:6.75px; font-family:Arial;" text-anchor="middle"><textPath startOffset="22.20632615414155" xlink:href="#id111">March</textPath></text><path d="M 118.03404312379186 89.2402003453031 l 3.5892604998331916 -2.1414900486609327 a25.179565834411108,25.179565834411108 0 0,0 0.21887076876710612,0.3741210918250826 l -3.625590943070625 2.079389544481955" fill="#ff3304" stroke="none" /><path d="M 118.21658344932153 89.55222093294921 l 4.995596351163576 -2.8651303978225418 a26.758902247849463,26.758902247849463 0 0,0 0.22572071717187003,0.40153196925429885 l -5.044174709627879 2.778714918633449" fill="#ff4906" stroke="none" /><path d="M 118.73160827565052 90.50648371742162 l 4.245590363739621 -2.151741625929355 a25.759729988290914,25.759729988290914 0 0,0 0.19704965198298843,0.3972400742649558 l -4.282000028676017 2.078341963165449" fill="#ff3b05" stroke="none" /><path d="M 119.04729006885535 91.15688171328212 l 1.1874586456081233 -0.5513034781188425 a22.309195768407236,22.309195768407236 0 0,0 0.15871153134338786,0.3496998213044499 l -1.1967724939148583 0.5307816479723299" fill="#ff0a01" stroke="none" /><path d="M 119.34039704204932 91.81776055985345 l 6.441736767689322 -2.7252714889479193 a27.994503361402643,27.994503361402643 0 0,0 0.18393496906023873,0.44541311717024323 l -6.487693423635758 2.613983801324373" fill="#ff5a08" stroke="none" /><path d="M 119.47837535516314 92.15188598940014 l 4.594033935757469 -1.851001504950073 a25.952913725699116,25.952913725699116 0 0,0 0.1633877425667225,0.4158039832793011 l -4.625215228205892 1.7716485167749876" fill="#ff3e05" stroke="none" /><path d="M 119.7369772167798 92.82701384747503 l 5.284118753673278 -1.9204009931253285 a26.62226386585674,26.62226386585674 0 0,0 0.1528205662332076,0.4320443197800452 l -5.316392400716295 1.8291590469186687" fill="#ff4706" stroke="none" /><path d="M 120.08093135843002 93.85539295169968 l 7.787583121899269 -2.3829391817505816 a29.144007000513476,29.144007000513476 0 0,0 0.14265866924705004,0.4809741132776848 l -7.8274476882580215 2.248535681726367" fill="#ff6a09" stroke="none" /><path d="M 120.18372546131832 94.20196356495316 l 7.726714489653381 -2.2195987663463077 a29.03919992836262,29.03919992836262 0 0,0 0.1338751773920868,0.48162024251456587 l -7.763776437611831 2.08626722041279" fill="#ff6909" stroke="none" /><path d="M 120.28053869075195 94.5502522615342 l 7.688990570470051 -2.066170904602847 a28.961760998661333,28.961760998661333 0 0,0 0.1252301968654312,0.4825630331348332 l -7.7234170992057845 1.9335114459191636" fill="#ff6709" stroke="none" /><path d="M 120.45610955862082 95.25157060432595 l 9.992375724310346 -2.3195070639391933 a31.258054671108482,31.258054671108482 0 0,0 0.11715163590540074,0.5251678126365618 l -10.030821747217786 2.1471610817526674" fill="#ff860c" stroke="none" /><path d="M 120.6074358757038 95.95851677861258 l 8.153443222629848 -1.5990346484418303 a29.30876333707767,29.30876333707767 0 0,0 0.09283100840299896,0.4959069588631044 l -8.179759954942705 1.4584496121161632" fill="#ff6c0a" stroke="none" /><path d="M 120.67395015179393 96.31383870115 l 2.404578365894929 -0.42873585586374835 a23.44250108532896,23.44250108532896 0 0,0 0.0674118572311032,0.39786859734441127 l -2.411602084646255 0.38728147020349923" fill="#ff1b02" stroke="none" /><path d="M 120.78858239683441 97.02765380044208 l 7.82162398003634 -1.1183337982185948 a28.901169038143504,28.901169038143504 0 0,0 0.06617542091712988,0.49308375044073544 l -7.839715400011306 0.9835317057131949" fill="#ff6709" stroke="none" /><path d="M 120.87857604477298 97.74499172005257 l 7.735189846197287 -0.8354457273683207 a28.780175545583248,28.780175545583248 0 0,0 0.0489576473265841,0.4929968273508635 l -7.748424619206099 0.7021733693130222" fill="#ff6509" stroke="none" /><path d="M 120.96714384426684 98.82574320788733 l 6.234873395059568 -0.3491816761734661 a27.244643632377826,27.244643632377826 0 0,0 0.0221932165482967,0.4684637247460022 l -6.239960219841361 0.24180684480446418" fill="#ff5007" stroke="none" /><path d="M 120.98425023603335 99.18683210126433 l 5.670566072257838 -0.21974205634002755 a26.674822125068435,26.674822125068435 0 0,0 0.013830648268526875,0.4589718831388262 l -5.67350841498201 0.12210002577620227" fill="#ff4806" stroke="none" /><line stroke="#e1ed5e" stroke-width="0.3" x1="184.98032266829074" x2="189.97916517819016" y1="98.17113171792111" y2="98.06355123074" /><path d="M 185.9800911702706 98.14961562048488 a86.0,86.0 0 0,1 -9.607161424134198,41.387399972396054" fill="none" id="id112" stroke="none" /><text fill="#e1ed5e" style="font-size:6.75px; font-family:Arial;" text-anchor="middle"><textPath startOffset="21.466115282336823" xlink:href="#id112">April</textPath></text><path d="M 120.99980553446 99.90962569577887 l 5.24025747380792 -0.022551857556863113 a26.240306000423928,26.240306000423928 0 0,0 -0.0019439102461490405,0.4516962813422966 l -5.239869266272268 -0.0676539019891182" fill="#ff4206" stroke="none" /><path d="M 120.9904718944345 100.63252640178507 l 6.088852615669454 0.18348134598203952 a27.09161649972059,27.09161649972059 0 0,0 -0.01805832612424954,0.4660051568985641 l -6.084792156694001 -0.2882637498946098" fill="#ff4e07" stroke="none" /><path d="M 120.9764740272857 100.99374915477107 l 4.975374233207557 0.23570567353161193 a25.98095431870246,25.98095431870246 0 0,0 -0.025008090200256274,0.4465362500103357 l -4.970579792119771 -0.32131363987737094" fill="#ff3e05" stroke="none" /><path d="M 120.92983693683757 101.71520430193887 l 6.2617440425311175 0.5131511703507935 a27.28273527834862,27.28273527834862 0 0,0 -0.04238620252960967,0.46772821292895234 l -6.251983243724433 -0.6208607718283163" fill="#ff5007" stroke="none" /><path d="M 120.89721153311464 102.0752229133903 l 4.765946653069298 0.4732881074957034 a25.789389223335196,25.789389223335196 0 0,0 -0.0476707016830213,0.4413714925338758 l -4.757093649885225 -0.5552559219143706" fill="#ff3c05" stroke="none" /><path d="M 120.76222939487914 103.15116336523771 l 5.669875258954868 0.8605387630430918 a26.734807094820912,26.734807094820912 0 0,0 -0.07297105905545305,0.4543908543946214 l -5.654222445538127 -0.9580088471309182" fill="#ff4906" stroke="none" /><path d="M 120.64145759157962 103.86396538481128 l 5.615994659217209 1.0512827821496733 a26.713544565364007,26.713544565364007 0 0,0 -0.08849824218428369,0.45125063028198015 l -5.597066484057262 -1.1477971394995983" fill="#ff4906" stroke="none" /><path d="M 120.5718875245553 104.21870165774334 l 6.082221052883004 1.2472883690391279 a27.208795471882894,27.208795471882894 0 0,0 -0.09803712688238282,0.45799681855440566 l -6.059849887276179 -1.3517990070097026" fill="#ff4f07" stroke="none" /><path d="M 120.41448212921028 104.9243191809786 l 25.569768213538932 6.167861583269934 a47.30314739730748,47.30314739730748 0 0,0 -0.19774672093888743,0.7898998524341553 l -25.459810178304984 -6.607089275101485" fill="#b3ff20" stroke="none" /><path d="M 120.32669344350535 105.2749913415812 l 15.279154382692772 3.965101717079266 a36.785264973289,36.785264973289 0 0,0 -0.16432840330579448,0.6115271203673864 l -15.208637903045199 -4.227519770622201" fill="#ffce13" stroke="none" /><path d="M 120.13307415673323 105.97154293290107 l 11.98384611070094 3.554452290506133 a33.49986794692033,33.49986794692033 0 0,0 -0.16873281682686275,0.5514286082056311 l -11.920886521367944 -3.7602078712638214" fill="#ffa40f" stroke="none" /><path d="M 120.02730092923936 106.31721596034902 l 6.001299389530825 1.8929911933877772 a27.292774429536365,27.292774429536365 0 0,0 -0.14518163785927815,0.4468231367396431 l -5.967825500655299 -1.9960132301052154" fill="#ff5107" stroke="none" /><path d="M 119.79798401119884 107.00284435728193 l 8.471442552117358 2.9964764917769386 a29.985778223370332,29.985778223370332 0 0,0 -0.1763102916887634,0.48513020047026906 l -8.418607999423367 -3.141854489253339" fill="#ff750a" stroke="none" /><path d="M 119.67450827220406 107.3425965602758 l 2.8215421138539285 1.0530095661463892 a24.01163228941501,24.01163228941501 0 0,0 -0.1478495910151725,0.3859886277511825 l -2.8029982432452494 -1.1014217607307155" fill="#ff2303" stroke="none" /><path d="M 119.41010516605496 108.01547362559984 l 4.755274562796951 1.9637079508071336 a26.144782316449053,26.144782316449053 0 0,0 -0.17535556839107247,0.4144887644789858 l -4.720768013213569 -2.045271240952283" fill="#ff4106" stroke="none" /><path d="M 119.26925614724726 108.34839909993367 l 3.8372416658172406 1.6624837318234 a25.181898583234812,25.181898583234812 0 0,0 -0.1757443686079043,0.396257156052494 l -3.8080562124780633 -1.7282892243685817" fill="#ff3304" stroke="none" /><path d="M 119.12269723197855 108.67885076344098 l 7.330292130069498 3.326858689312458 a29.04991748099399,29.04991748099399 0 0,0 -0.21057784853883768,0.4535659518678015 l -7.271939664690829 -3.4525447084590897" fill="#ff6909" stroke="none" /><path d="M 118.97047184881838 109.00673069616215 l 5.023184820242908 2.384889172685265 a26.56058289249519,26.56058289249519 0 0,0 -0.19964292914263324,0.41132356631615263 l -4.98138863448556 -2.4710016949666933" fill="#ff4706" stroke="none" /><path d="M 118.81262510543309 109.33194174019688 l 6.066596654064094 3.0093156175556572 a27.77196983522269,27.77196983522269 0 0,0 -0.21612058348227156,0.42642641457558933 l -6.013897400795553 -3.113296243833941" fill="#ff5708" stroke="none" /><path d="M 118.64920377521936 109.65438752849418 l 8.219437736481737 4.255068373469491 a30.25552610967093,30.25552610967093 0 0,0 -0.24340929755072202,0.4604386597771549 l -8.144975930706122 -4.395922048332781" fill="#ff790b" stroke="none" /><line stroke="#e1ed5e" stroke-width="0.3" x1="174.80103733775053" x2="179.2010983576182" y1="140.37084112569926" y2="142.7455964860345" /><path d="M 175.68104954172406 140.8457921977663 a86.0,86.0 0 0,1 -30.038265399797805,32.042727171017184" fill="none" id="id113" stroke="none" /><text fill="#e1ed5e" style="font-size:6.75px; font-family:Arial;" text-anchor="middle"><textPath startOffset="22.206326154141568" xlink:href="#id113">May</textPath></text><path d="M 118.30583269289576 110.29060199501025 l 2.563984993353391 1.4413411031566112 a23.941340378431253,23.941340378431253 0 0,0 -0.20503820364272832,0.3575013907727151 l -2.5387947935582833 -1.4852623397876414" fill="#ff2203" stroke="none" /><path d="M 118.12598468904814 110.60418214915192 l 2.574354531991818 1.5060657306099472 a23.982538388907088,23.982538388907088 0 0,0 -0.21152498852033427,0.3545280476546877 l -2.548048667773257 -1.5501558721507391" fill="#ff2203" stroke="none" /><path d="M 117.75023020441432 111.22182372390056 l 8.945046970336572 5.655123294015877 a31.58273522167348,31.58273522167348 0 0,0 -0.29446409322161926,0.45701481186983395 l -8.846378013737901 -5.808259705807164" fill="#ff8b0c" stroke="none" /><path d="M 117.55443506779139 111.5257021239791 l 4.642915179268462 3.0483952993357164 a26.554221391238702,26.554221391238702 0 0,0 -0.2541579065654848,0.3799315857177977 l -4.589754167292256 -3.127863799259321" fill="#ff4606" stroke="none" /><path d="M 117.14729908036423 112.12312394758627 l 9.54005235486777 6.744807833728387 a32.68353677819957,32.68353677819957 0 0,0 -0.3287344487709969,0.45658339741551235 l -9.42253811372117 -6.908024836595031" fill="#ff990e" stroke="none" /><path d="M 116.93607887273984 112.41649034213515 l 4.542243449382689 3.3300932491325157 a26.632183999247353,26.632183999247353 0 0,0 -0.27423379681621357,0.3673809854819077 l -4.484248385871384 -3.4077871141237384" fill="#ff4706" stroke="none" /><path d="M 116.27256486870786 113.27417163493432 l 8.992752875402559 7.335742466032127 a32.60528852747781,32.60528852747781 0 0,0 -0.3585091212199898,0.43184733154645144 l -8.865147754289026 -7.489451054692349" fill="#ff980e" stroke="none" /><path d="M 115.56566222782051 114.09645910891815 l 3.5795539455132768 3.241688987116083 a25.82926018537305,25.82926018537305 0 0,0 -0.30128428862953394,0.32698459093767945 l -3.5232232488880206 -3.3028248328550975" fill="#ff3c05" stroke="none" /><path d="M 115.32070863581623 114.36230785411682 l 4.918478161726031 4.610798313030926 a27.741727412972487,27.741727412972487 0 0,0 -0.32958948776034397,0.34557326023531326 l -4.838382122586722 -4.6947786898487465" fill="#ff5708" stroke="none" /><path d="M 114.55890576462653 115.13401014063108 l 12.38014691278816 12.86918618402396 a38.85732316505728,38.85732316505728 0 0,0 -0.48602030318840533,0.4595625325224082 l -12.156790775208947 -13.080383353292289" fill="#ffe815" stroke="none" /><path d="M 113.75828350139079 115.86535959552629 l 4.852794603751389 5.595998325224394 a28.40707855514661,28.40707855514661 0 0,0 -0.37217942952898303,0.3171793841048882 l -4.755749697645358 -5.678702099552229" fill="#ff6008" stroke="none" /><path d="M 113.48314897796784 116.09983520530334 l 7.843251599044865 9.36539812952406 a33.215861728523805,33.215861728523805 0 0,0 -0.4415018673600078,0.36332597954318846 l -7.680879603140166 -9.499019227924427" fill="#ffa00e" stroke="none" /><path d="M 112.92097659922987 116.55440617244103 l 2.4797337172031257 3.177044617240796 a25.030222302574977,25.030222302574977 0 0,0 -0.34192627133477116,0.2621744843753142 l -2.424678717374861 -3.2192584434434814" fill="#ff3104" stroke="none" /><path d="M 112.63410532772338 116.77436683061366 l 4.699712296375046 6.239832264557076 a28.811709310932294,28.811709310932294 0 0,0 -0.39871979779468164,0.29496337436439085 l -4.5916075281618 -6.319805587661235" fill="#ff6509" stroke="none" /><path d="M 112.34349029814194 116.9893568818739 l 7.26370599129878 9.99763360204178 a33.35775474625972,33.35775474625972 0 0,0 -0.4674416964830191,0.33350723909383134 l -7.090536966966876 -10.121185102979831" fill="#ffa20f" stroke="none" /><path d="M 112.04921762599082 117.19931262002967 l 1.5000932518417451 2.1412653998355737 a23.614440145949825,23.614440145949825 0 0,0 -0.3349237343312453,0.23036359847069107 l -1.4630126328876165 -2.1667697876713587" fill="#ff1d02" stroke="none" /><path d="M 111.7513745106137 117.40417183066458 l 4.165348176926046 6.169017534101242 a28.443581313525748,28.443581313525748 0 0,0 -0.40813193848630824,0.27048759407433753 l -4.058541539699774 -6.239803149266898" fill="#ff6008" stroke="none" /><path d="M 111.45004920935366 117.60387380957326 l 3.193302735473764 4.909542078222949 a26.85668726996977,26.85668726996977 0 0,0 -0.3897010165663967,0.24872562683811486 l -3.108319916860437 -4.963782133884873" fill="#ff4b06" stroke="none" /><path d="M 111.1453310114006 117.79835938074945 l 6.672713306062355 10.65588355738588 a33.57270683876262,33.57270683876262 0 0,0 -0.49243295337684345,0.3024925396992224 l -6.488301152753202 -10.769164563913481" fill="#ffa50f" stroke="none" /><line stroke="#e1ed5e" stroke-width="0.3" x1="143.8653032363475" x2="146.44561519142675" y1="172.8068346515853" y2="177.08958963109032" /><path d="M 144.38136562736335 173.6633856474863 a86.0,86.0 0 0,1 -40.68145358897372,12.25698825130547" fill="none" id="id114" stroke="none" /><text fill="#e1ed5e" style="font-size:6.75px; font-family:Arial;" text-anchor="middle"><textPath startOffset="21.466115282336833" xlink:href="#id114">June</textPath></text><path d="M 110.21172684928248 118.3499491758327 l 9.02752693462832 16.222002691496773 a39.56474114762628,39.56474114762628 0 0,0 -0.5979498235513524,0.3260499198238854 l -8.74695429920832 -16.374993263080427" fill="#fff016" stroke="none" /><path d="M 109.2508944713604 118.85261126421891 l 3.5783971590568227 7.292498125185392 a29.123143180676948,29.123143180676948 0 0,0 -0.4519458776475251,0.2169614859765671 l -3.4523386134090646 -7.353013887661519" fill="#ff6a09" stroke="none" /><path d="M 108.59647513512805 119.15986991738527 l 1.1642504442924773 2.594887638626271 a23.844102838177736,23.844102838177736 0 0,0 -0.3759185467169059,0.16479164365294716 l -1.1194112229178175 -2.6145438355736728" fill="#ff2003" stroke="none" /><path d="M 107.93186726928326 119.44442032107085 l 1.8030070847118964 4.419946326229264 a25.77354795453747,25.77354795453747 0 0,0 -0.41222816921682875,0.1640340959512115 l -1.7266578394532015 -4.4503272665865445" fill="#ff3c05" stroke="none" /><path d="M 106.2309692047433 120.05430185196036 l 1.9432981804976253 6.254482572373781 a27.549424407263032,27.549424407263032 0 0,0 -0.4540735822438301,0.13680864550767335 l -1.8353496238135494 -6.28700658698718" fill="#ff5407" stroke="none" /><path d="M 104.13013068566511 120.58985236759428 l 1.1103698775644084 5.535503254612681 a26.64576988078951,26.64576988078951 0 0,0 -0.45048148773095864,0.08633584927861536 l -1.0149207752617453 -5.553796302239764" fill="#ff4806" stroke="none" /><path d="M 103.7750983002368 120.6578951692458 l 2.2256364155292094 12.179011008527722 a33.38070137754599,33.38070137754599 0 0,0 -0.5661224346951126,0.09842764186968833 l -2.015665009362047 -12.215517228918417" fill="#ffa20f" stroke="none" /><path d="M 103.06178313531738 120.77559828337769 l 0.8511169276142838 5.775217446438801 a26.837596815310448,26.837596815310448 0 0,0 -0.4576083857532402,0.06342035252829173 l -0.7515799506742131 -5.789012364459696" fill="#ff4a06" stroke="none" /><path d="M 102.70371172650421 120.8252237178851 l 0.17169325362897564 1.322459928928166 a22.333558711479323,22.333558711479323 0 0,0 -0.3816619889153276,0.04621395168993652 l -0.14890384166226775 -1.3252194093434535" fill="#ff0b01" stroke="none" /><path d="M 101.26447882468166 120.96189622390904 l 0.4206556611284576 6.9734187259280285 a27.986094754035555,27.986094754035555 0 0,0 -0.4811101964151315,0.02486790171817292 l -0.3005573962998465 -6.979626434408403" fill="#ff5a08" stroke="none" /><line stroke="#e1ed5e" stroke-width="0.3" x1="102.19456741930631" x2="102.32365962044197" y1="184.97166512339345" y2="189.96999836594603" /><path d="M 102.22038585953345 185.97133177190398 a86.0,86.0 0 0,1 -42.740103519485714,-10.115201625700543" fill="none" id="id115" stroke="none" /><text fill="#e1ed5e" style="font-size:6.75px; font-family:Arial;" text-anchor="middle"><textPath startOffset="22.20632615414155" xlink:href="#id115">July</textPath></text><path d="M 100.54218724476979 120.99299961872073 l 0.10696066610723508 4.141420227915319 a25.142801236878288,25.142801236878288 0 0,0 -0.4327438988583,0.007450078664859416 l -0.035657077356267115 -4.142647783859338" fill="#ff3304" stroke="none" /><path d="M 100.18074693466247 120.99922214144158 l 0.13412636817917967 15.582833566052795 a36.58341078936003,36.58341078936003 0 0,0 -0.6297466056832595,0.0 l 0.13412636817916893 -15.582833566052795" fill="#ffcb12" stroke="none" /><path d="M 99.09653310690486 120.98055641714683 l -0.128949624464373 2.994503607958755 a23.99727874308138,23.99727874308138 0 0,0 -0.412538283421892,-0.021323517072723973 l 0.18047597629975393 -2.991840284123829" fill="#ff2203" stroke="none" /><path d="M 98.73552117531835 120.96189622390904 l -0.7318376821258433 12.13203831177664 a33.15409149181441,33.15409149181441 0 0,0 -0.5693619059281292,-0.03926653054571283 l 0.9405623488329026 -12.11764343671464" fill="#ff9f0e" stroke="none" /><path d="M 98.37488393609728 120.93702456842531 l -0.4347436591631084 5.600977600951212 a26.61782450202387,26.61782450202387 0 0,0 -0.45650289256011023,-0.039388990434081214 l 0.5310908694647604 -5.592664358238467" fill="#ff4706" stroke="none" /><path d="M 98.01472825383883 120.90594882070398 l -0.06654001274077162 0.7007011022936432 a21.70385339954501,21.70385339954501 0 0,0 -0.37161896240606024,-0.038519824911648896 l 0.07859157175242522 -0.6994519089262337" fill="#ff0200" stroke="none" /><path d="M 97.2962882734958 120.8252237178851 l -1.5370719507211186 11.83923083606291 a32.938591917444725,32.938591917444725 0 0,0 -0.5616365720095949,-0.07783771123642698 l 1.7406371139175447 -11.81101855933388" fill="#ff9c0e" stroke="none" /><path d="M 96.58105272829116 120.7198165907248 l -0.7288545789493561 4.417071103173965 a25.4768008809584,25.4768008809584 0 0,0 -0.4320756589216723,-0.07512189168029648 l 0.8047792093430784 -4.403870632972662" fill="#ff3705" stroke="none" /><path d="M 96.22490169976321 120.6578951692458 l -1.0644918308805638 5.825056436138332 a26.92152221495521,26.92152221495521 0 0,0 -0.45514344053984057,-0.08722932362997649 l 1.1646028859920994 -5.805869914159887" fill="#ff4c07" stroke="none" /><path d="M 95.86986931433489 120.58985236759428 l -1.6360361098409546 8.156095904324607 a29.318564452671154,29.318564452671154 0 0,0 -0.4939599258089482,-0.1035141051356664 l 1.7761874970792895 -8.126725818462399" fill="#ff6c0a" stroke="none" /><path d="M 94.46302465271185 120.25689768951611 l -1.0733455527785811 3.9268101597710294 a25.07086092940431,25.07086092940431 0 0,0 -0.4153033860058834,-0.11736888523865989 l 1.1407801068890784 -3.907752481193848" fill="#ff3204" stroke="none" /><path d="M 94.11515582081647 120.15858648285463 l -0.30517480449643203 1.045379028146688 a22.089012843720564,22.089012843720564 0 0,0 -0.36407429214869136,-0.10969259767744219 l 0.32312407108536917 -1.0399710613635202" fill="#ff0701" stroke="none" /><path d="M 93.76903079525671 120.05430185196036 l -0.9419631697836592 3.0316974967378534 a24.17466286792085,24.17466286792085 0 0,0 -0.3963247816689419,-0.12689067956629568 l 0.9940092965435415 -3.015033970511851" fill="#ff2503" stroke="none" /><path d="M 93.08242187328487 119.8279376855182 l -20.752734380145377 59.483813056554574 a84.0,84.0 0 0,0 -1.3611217574810934,-0.4880498358401688 l 21.773575698256195 -59.117775679674445" fill="#4dd2ff" stroke="none" /><path d="M 91.07499286063937 119.00905698771935 l -2.9472283148411105 6.2771973308077555 a27.934649311227005,27.934649311227005 0 0,0 -0.43350230163736403,-0.20810744867742428 l 3.0548432844787166 -6.225535605630769" fill="#ff5908" stroke="none" /><path d="M 90.7491055286396 118.85261126421891 l -14.520963335438548 29.592606184463484 a53.9633238156879,53.9633238156879 0 0,0 -0.8303827247375891,-0.4163711366460185 l 15.028199967858898 -29.338267206908164" fill="#6bff28" stroke="none" /><path d="M 90.42595943632237 118.69057910512821 l -2.13289450817351 4.163867205571704 a25.67835752039455,25.67835752039455 0 0,0 -0.39166721533140725,-0.2049017757256103 l 2.204252626031413 -4.126536010901377" fill="#ff3a05" stroke="none" /><path d="M 90.10565033884886 118.52300852407294 l -3.0409120171838286 5.6928288512393905 a27.454103053543275,27.454103053543275 0 0,0 -0.41491933475248255,-0.2262471038555439 l 3.1384541638049517 -5.63964109562408" fill="#ff5307" stroke="none" /><line stroke="#e1ed5e" stroke-width="0.3" x1="58.666819895761336" x2="56.23545636021788" y1="174.27360380694188" y2="178.64263932499728" /><path d="M 58.180547188652646 175.14741091055294 a86.0,86.0 0 0,1 -31.652253787137756,-30.449443065178592" fill="none" id="id116" stroke="none" /><text fill="#e1ed5e" style="font-size:6.75px; font-family:Arial;" text-anchor="middle"><textPath startOffset="22.20632615414155" xlink:href="#id116">August</textPath></text><path d="M 89.7882731507175 118.34994917583269 l -2.3874841456449047 4.290186505896266 a25.909763823350385,25.909763823350385 0 0,0 -0.3878460098404995,-0.22022908654651363 l 2.4609789224066114 -4.248454253555119" fill="#ff3d05" stroke="none" /><path d="M 89.1626897886671 117.98757091392108 l -1.5734547341361342 2.6115916272768156 a24.048962221484185,24.048962221484185 0 0,0 -0.3527419325837734,-0.2166829053863541 l 1.6181758666522164 -2.584120255062083" fill="#ff2303" stroke="none" /><path d="M 88.8546689885994 117.79835938074946 l -1.4038114807056132 2.2417944528397356 a23.645057474260984,23.645057474260984 0 0,0 -0.3430990144787491,-0.2189820242083631 l 1.4421922972312857 -2.217297999807568" fill="#ff1d03" stroke="none" /><path d="M 88.54995079064634 117.60387380957326 l -1.1325830424057552 1.741289368528305 a23.07721761327377,23.07721761327377 0 0,0 -0.3311309309315799,-0.21945552500366922 l 1.162388672077297 -1.7215358224333175" fill="#ff1502" stroke="none" /><path d="M 88.24862548938628 117.40417183066458 l -1.7892846701098408 2.649989396937306 a24.197496432299843,24.197496432299843 0 0,0 -0.3431932248439373,-0.23605142945055846 l 1.8346347795766682 -2.618797178121646" fill="#ff2503" stroke="none" /><path d="M 87.95078237400918 117.19931262002967 l -2.0340799582703784 2.9034895195987733 a24.545099810591676,24.545099810591676 0 0,0 -0.34395010045136154,-0.24539926423048042 l 2.0837573865706265 -2.8680459935240736" fill="#ff2a04" stroke="none" /><path d="M 87.36589467227662 116.77436683061367 l -3.58407231002435 4.758591298417401 a26.95732871922115,26.95732871922115 0 0,0 -0.3682515793381913,-0.2823596079836148 l 3.6654526178560283 -4.69619234860642" fill="#ff4c07" stroke="none" /><path d="M 87.07902340077011 116.55440617244103 l -4.872550963784799 6.242731509568729 a28.919182381738814,28.919182381738814 0 0,0 -0.3897789471376837,-0.30966396915968525 l 4.979287403639841 -6.157933626403913" fill="#ff6709" stroke="none" /><path d="M 86.79598089348748 116.32954008644616 l -1.2858869892636087 1.590269066443792 a23.045106611608656,23.045106611608656 0 0,0 -0.3063132212462984,-0.25207492738776976 l 1.3130703390545957 -1.5678990201988414" fill="#ff1502" stroke="none" /><path d="M 86.51685102203217 116.09983520530335 l -1.4870503249968263 1.7756434504701353 a23.31608038121967,23.31608038121967 0 0,0 -0.3054789839894245,-0.2603358173808171 l 1.5173947855633074 -1.7497832428663667" fill="#ff1902" stroke="none" /><path d="M 86.24171649860922 115.8653595955263 l -2.633439178627552 3.0367494271832722 a25.019558307952316,25.019558307952316 0 0,0 -0.3229401241080948,-0.2849571119210031 l 2.6853216556422344 -2.9909691734899804" fill="#ff3104" stroke="none" /><path d="M 85.70375840098266 115.38237550388516 l -21.664249792180733 23.310156239678832 a52.82299644873564,52.82299644873564 0 0,0 -0.6607003946278088,-0.624733461959935 l 22.06228602119936 -22.93378814097297" fill="#77ff27" stroke="none" /><path d="M 85.44109423537348 115.13401014063109 l -0.4146598473033056 0.43103969731352615 a21.5981120376867,21.5981120376867 0 0,0 -0.26570825112044244,-0.2600514478950424 l 0.42201805079954224 -0.42383814649591406" fill="#ff0000" stroke="none" /><path d="M 84.43433777217949 114.09645910891817 l -0.4744617441478709 0.429678511407795 a21.640107467403293,21.640107467403293 0 0,0 -0.2476670629737758,-0.2782565707515476 l 0.48178765676998503 -0.42144777091538327" fill="#ff0100" stroke="none" /><path d="M 84.19399662182784 113.82643327865904 l -1.6845211717066289 1.473548944020512 a23.23807016609217,23.23807016609217 0 0,0 -0.2607726332266399,-0.3033374858960517 l 1.7096363145040476 -1.44433435896293" fill="#ff1802" stroke="none" /><path d="M 83.95833913139862 113.55231037782056 l -4.131665793918584 3.490512464716563 a26.408728085139664,26.408728085139664 0 0,0 -0.290375283456317,-0.34977573480120266 l 4.191137077268438 -3.418875472801599" fill="#ff4406" stroke="none" /><path d="M 83.50135304334701 112.99209946851258 l -3.2452722484996923 2.5555368246672816 a25.130685225130666,25.130685225130666 0 0,0 -0.2647017262113102,-0.3421626632798954 l 3.288780791929071 -2.4992961672741334" fill="#ff3304" stroke="none" /><path d="M 83.28015986056508 112.70617746262583 l -3.706724203653484 2.8169106369352748 a25.65561917025326,25.65561917025326 0 0,0 -0.26417802816804087,-0.3539096400874507 l 3.75466349851661 -2.7526881173385163" fill="#ff3a05" stroke="none" /><path d="M 83.06392112726016 112.41649034213515 l -3.6930408289343903 2.707510169864749 a25.579209744497128,25.579209744497128 0 0,0 -0.25727838062383657,-0.35733716848343977 l 3.7390990019338344 -2.643539395930171" fill="#ff3905" stroke="none" /><path d="M 82.6465618267979 111.8261652097733 l -2.692295682875965 1.8347680281835168 a24.25804078569882,24.25804078569882 0 0,0 -0.23218051746406232,-0.34707837094248195 l 2.723479305750758 -1.7881527430352138" fill="#ff2603" stroke="none" /><path d="M 82.44556493220864 111.52570212397912 l -4.112131006094048 2.699898737156093 a25.919255492671336,25.919255492671336 0 0,0 -0.24166019858823065,-0.37506199477810376 l 4.157996068059324 -2.6287151424565414" fill="#ff3e05" stroke="none" /><path d="M 82.05923443525364 110.91462005526583 l -3.303420906374597 2.0097015339495816 a24.86671565288063,24.86671565288063 0 0,0 -0.2193233951184581,-0.3675986256766537 l 3.3375251771912873 -1.9525408143868168" fill="#ff2f04" stroke="none" /><line stroke="#e1ed5e" stroke-width="0.3" x1="26.63291911575756" x2="22.317208475507996" y1="142.92168965132927" y2="145.44649492493687" /><path d="M 25.769776987707644 143.4266507060508 a86.0,86.0 0 0,1 -11.730757126820373,-40.83630448921669" fill="none" id="id117" stroke="none" /><text fill="#e1ed5e" style="font-size:6.75px; font-family:Arial;" text-anchor="middle"><textPath startOffset="21.46611528233685" xlink:href="#id117">September</textPath></text><path d="M 81.35079622478065 109.6543875284942 l -7.963635602000774 4.122643795634343 a29.967479237061916,29.967479237061916 0 0,0 -0.23320596762252815,-0.46013749837513573 l 8.033420239409569 -3.9849520855565226" fill="#ff750a" stroke="none" /><path d="M 81.18737489456691 109.33194174019688 l -6.580285097750349 3.2641291059564943 a28.34538568000535,28.34538568000535 0 0,0 -0.2130584199804107,-0.43896345097910505 l 6.635496774345479 -3.1503766990121043" fill="#ff5f08" stroke="none" /><path d="M 80.73074385275274 108.34839909993369 l -5.385827652949564 2.3334081184397655 a26.869576897398723,26.869576897398723 0 0,0 -0.18021683532268937,-0.42597936351029003 l 5.42519546946456 -2.2403542292633163" fill="#ff4b07" stroke="none" /><path d="M 80.58989483394504 108.01547362559985 l -4.163882185674589 1.71949031465053 a25.504948589979154,25.504948589979154 0 0,0 -0.16407866085742415,-0.40722978025508383 l 4.1928634607894 -1.6475611665526408" fill="#ff3805" stroke="none" /><path d="M 80.45479744820244 107.68017299344265 l -9.815581088157261 3.856975162494731 a31.546178905285636,31.546178905285636 0 0,0 -0.19424292330571458,-0.5071069788042573 l 9.880518291056484 -3.6874446168573156" fill="#ff8a0c" stroke="none" /><path d="M 79.97269907076064 106.31721596034903 l -17.930642034246706 5.655866381508981 a39.80150920234273,39.80150920234273 0 0,0 -0.2004730517837497,-0.6551575325224448 l 18.025341858536585 -5.346381876434489" fill="#fff316" stroke="none" /><path d="M 79.67330655649465 105.27499134158121 l -5.889157496674295 1.5282984854622657 a27.084231445408804,27.084231445408804 0 0,0 -0.11322328961528029,-0.4522707599629812 l 5.914592100584634 -1.4266998861018925" fill="#ff4e07" stroke="none" /><path d="M 79.58551787078972 104.9243191809786 l -2.8972798965027655 0.698873029289241 a23.980378215889218,23.980378215889218 0 0,0 -0.0933401211494299,-0.40210679897381296 l 2.9088805835827505 -0.6488975729668538" fill="#ff2203" stroke="none" /><path d="M 79.50377843672027 104.57218783832718 l -18.09322340653224 4.036139820214056 a39.537938339713065,39.537938339713065 0 0,0 -0.1424607672061037,-0.6655292767554474 l 18.160018212462784 -3.724096724042445" fill="#fff016" stroke="none" /><path d="M 79.4281124754447 104.21870165774334 l -3.057436246134333 0.6269921194453116 a24.121063202984285,24.121063202984285 0 0,0 -0.07990971351094298,-0.4074579076088069 l 3.067775892620942 -0.5742704847685499" fill="#ff2403" stroke="none" /><path d="M 79.35854240842038 103.8639653848113 l -8.791368198118706 1.6456949443589148 a29.944074387256705,29.944074387256705 0 0,0 -0.09047895479673408,-0.507454028622595 l 8.818393595254628 -1.494122165003106" fill="#ff750a" stroke="none" /><path d="M 79.23777060512086 103.15116336523772 l -2.946068335367788 0.447136115940785 a23.979806930463003,23.979806930463003 0 0,0 -0.058426170382660736,-0.40863249957628367 l 2.953328556767048 -0.3963581443841008" fill="#ff2203" stroke="none" /><path d="M 79.18660465613746 102.79330883721812 l -16.77750462999996 2.251662987954839 a37.927925089064985,37.927925089064985 0 0,0 -0.0812713993526918,-0.6478130164840364 l 16.8137775385995 -1.9625322171833937" fill="#ffdc14" stroke="none" /><path d="M 79.10278846688536 102.07522291339032 l -12.556451064957793 1.2469335882240968 a33.61821329349449,33.61821329349449 0 0,0 -0.05222894195922145,-0.5763420223524772 l 12.57605460319409 -1.0306101773230534" fill="#ffa50f" stroke="none" /><path d="M 79.07016306316243 101.71520430193888 l -1.6188447318081505 0.13266464791617127 a22.624271582744008,22.624271582744008 0 0,0 -0.028467195853751487,-0.3884122701320079 l 1.6208884863262374 -0.10477924128740272" fill="#ff0f01" stroke="none" /><path d="M 79.04373962182676 101.35467743843564 l -4.9878548743951026 0.3224303545861596 a25.998265457294714,25.998265457294714 0 0,0 -0.02502475311840773,-0.44683377760747905 l 4.992665978401042 -0.23652486064324293" fill="#ff3f05" stroke="none" /><path d="M 79.0235259727143 100.99374915477108 l -9.031498130494851 0.4278623576975478 a30.041627324672618,30.041627324672618 0 0,0 -0.020024700391642922,-0.5167485393522753 l 9.037524963737695 -0.2723365713312757" fill="#ff760a" stroke="none" /><path d="M 79.0095281055655 100.63252640178507 l -6.282805241219579 0.18932590998102938 a27.285657165268113,27.285657165268113 0 0,0 -0.010106006239515835,-0.46958639916128286 l 6.2851333101441025 -0.0811496950296177" fill="#ff5107" stroke="none" /><line stroke="#e1ed5e" stroke-width="0.3" x1="15.007084014347285" x2="10.007500721073583" y1="101.09737516637583" y2="101.16192664675087" /><path d="M 14.007167355692545 101.11028546245083 a86.0,86.0 0 0,1 10.666146001902534,-42.60595125391555" fill="none" id="id118" stroke="none" /><text fill="#e1ed5e" style="font-size:6.75px; font-family:Arial;" text-anchor="middle"><textPath startOffset="22.20632615414155" xlink:href="#id118">October</textPath></text><path d="M 79.00019446554 99.90962569577889 l -7.2412078058521505 -0.031163103682105654 a28.241274861967693,28.241274861967693 0 0,0 0.006276277560354379,-0.48610461374997954 l 7.239598521174081 0.15580397549255715" fill="#ff5e08" stroke="none" /><path d="M 79.00486145842228 99.54816195383935 l -3.2557456320380673 -0.07006716065544952 a24.256499505226014,24.256499505226014 0 0,0 0.012576770383304533,-0.4173617804861434 l 3.254057167199118 0.12609908856658733" fill="#ff2603" stroke="none" /><path d="M 79.01574976396665 99.18683210126434 l -9.915529847631769 -0.3842401077167829 a30.92297196507451,30.92297196507451 0 0,0 0.025189546334242755,-0.5317115107998318 l 9.907446693064026 0.5548627251396239" fill="#ff820c" stroke="none" /><path d="M 79.03285615573316 98.82574320788736 l -2.1396636839765333 -0.11983103814271856 a23.143016602415948,23.143016602415948 0 0,0 0.025699117597304456,-0.39755397453160063 l 2.1372839753748156 0.15664407692733096" fill="#ff1602" stroke="none" /><path d="M 79.05617556472873 98.46500227214037 l -5.102181860990169 -0.37394495871332034 a26.11586694263682,26.11586694263682 0 0,0 0.0367183072372707,-0.4480563523564521 l 5.094989069933401 0.4617152282775508" fill="#ff4006" stroke="none" /><path d="M 79.12142395522702 97.74499172005258 l -5.929083362260801 -0.6403756676568885 a26.963565251790648,26.963565251790648 0 0,0 0.053811119117487725,-0.4610208067019813 l 5.917181890139725 0.7423402126837315" fill="#ff4c07" stroke="none" /><path d="M 79.16333360222342 97.38593545837743 l -2.1916240772424187 -0.27495025737403966 a23.208803689778414,23.208803689778414 0 0,0 0.0531415304040883,-0.39596612688903143 l 2.1865665477804965 0.31263472632773054" fill="#ff1702" stroke="none" /><path d="M 79.21141760316559 97.0276538004421 l -7.072091126964711 -1.0111657823941693 a28.14401351815475,28.14401351815475 0 0,0 0.07269746992021453,-0.47898549582083183 l 7.053637763605194 1.1327503906070933" fill="#ff5c08" stroke="none" /><path d="M 79.32604984820605 96.31383870115002 l -8.912165597116456 -1.5890373959415924 a30.05271978336494,30.05271978336494 0 0,0 0.09518737623477615,-0.5084947700430383 l 8.883492496971819 1.7422102434472035" fill="#ff760a" stroke="none" /><path d="M 79.62865764111835 94.90015583598534 l -12.086878086541995 -3.0258779016559503 a33.45987796708535,33.45987796708535 0 0,0 0.14467998355158251,-0.5575109953039038 l 12.033001771120105 3.233485322508718" fill="#ffa30f" stroke="none" /><path d="M 79.81627453868168 94.20196356495316 l -8.66593774704977 -2.489402806114096 a30.016407453461206,30.016407453461206 0 0,0 0.14692903219561987,-0.4953716542291334 l 8.621802817742443 2.6382038470897684" fill="#ff760a" stroke="none" /><path d="M 80.02781315780177 93.51064311812611 l -0.7545195764594399 -0.24515827158498216 a21.793348832095358,21.793348832095358 0 0,0 0.11899449308875415,-0.3557783884304136 l 0.7501877895989133 0.2581097629377179" fill="#ff0300" stroke="none" /><path d="M 80.14247586403 93.16781622104843 l -4.056408240190386 -1.3956486412741032 a25.28978821633128,25.28978821633128 0 0,0 0.14517171697386275,-0.410419992918763 l 4.031783442406714 1.4652662606194773" fill="#ff3505" stroke="none" /><path d="M 80.38941819471856 92.48833698450439 l -7.013566967081993 -2.6864859042143805 a28.510481217291357,28.510481217291357 0 0,0 0.17948902442394346,-0.4567799893551583 l 6.966284392776359 2.806814898465302" fill="#ff6109" stroke="none" /><path d="M 80.52162464483688 92.15188598940014 l -8.373410065521913 -3.373765812265302 a30.02752966660281,30.02752966660281 0 0,0 0.19729275668440233,-0.47776005943236205 l 8.31409562195131 3.5174004421509752" fill="#ff760a" stroke="none" /><path d="M 80.803312248108 91.48605970444005 l -5.279268103656891 -2.3414129572617943 a26.775195784276274,26.775195784276274 0 0,0 0.19048343871540524,-0.4197050076727769 l 5.238182347978134 2.4319399737766423" fill="#ff4906" stroke="none" /><path d="M 80.95270993114464 91.15688171328213 l -2.268267312222744 -1.0530923861279107 a23.500807904141933,23.500807904141933 0 0,0 0.1735051287445813,-0.36544605046059414 l 2.249803989636411 1.0919808522290368" fill="#ff1b02" stroke="none" /><path d="M 81.10775173730289 90.83032412892265 l -4.5834561285150075 -2.2246588380257433 a26.094818645214747,26.094818645214747 0 0,0 0.19961292043573045,-0.4024074670529198 l 4.544483195125864 2.3032258935776246" fill="#ff4006" stroke="none" /><path d="M 81.6062741919709 89.86733742301443 l -6.2603010896256155 -3.4486497859950638 a28.14734601647433,28.14734601647433 0 0,0 0.23743272689125564,-0.42236632768392923 l 6.20001072144193 3.5558996236137776" fill="#ff5c08" stroke="none" /><line stroke="#e1ed5e" stroke-width="0.3" x1="26.266209847984243" x2="21.928928074336255" y1="57.711370442889674" y2="55.22380399835377" /><path d="M 25.398753493254645 57.213857153982495 a86.0,86.0 0 0,1 29.58750427330803,-30.492523968695096" fill="none" id="id119" stroke="none" /><text fill="#e1ed5e" style="font-size:6.75px; font-family:Arial;" text-anchor="middle"><textPath startOffset="21.46611528233685" xlink:href="#id119">November</textPath></text><path d="M 82.15384107792192 88.93136811851018 l -2.532371773646193 -1.5706399944073373 a23.979902144700702,23.979902144700702 0 0,0 0.2205835875751633,-0.34891026228077276 l 2.5049605898250666 1.6139979044023254" fill="#ff2203" stroke="none" /><path d="M 82.54541684631803 88.32363383020206 l -35.11649637603519 -23.491427247317247 a63.249443450110576,63.249443450110576 0 0,0 0.6131447260243357,-0.899714227355385 l 34.706927184342106 24.092419497943048" fill="#33ff56" stroke="none" /><path d="M 82.95767976084542 87.72973835380427 l -4.93722442914393 -3.5547410623349855 a27.083779177779718,27.083779177779718 0 0,0 0.2756579145102996,-0.3759970856014567 l 4.875303902119996 3.639200591607943" fill="#ff4e07" stroke="none" /><path d="M 83.6137871275137 86.86637796730984 l -5.277634486014874 -4.230047363927184 a27.76363263853388,27.76363263853388 0 0,0 0.3020967582543846,-0.37033490529709856 l 5.204039235684096 4.320266438832364" fill="#ff5708" stroke="none" /><path d="M 84.31358615837235 86.03803664274999 l -6.772757346261681 -6.028209560881993 a30.066948361011583,30.066948361011583 0 0,0 0.34742553462230685,-0.38363595279253543 l 6.667988171023329 6.143898300944084" fill="#ff760a" stroke="none" /><path d="M 84.5562425177563 85.77008943001954 l -3.7443787137691253 -3.4500784085954304 a26.091503999564736,26.091503999564736 0 0,0 0.3071748765538548,-0.3276727411587569 l 3.6844365152448146 3.5140205666322375" fill="#ff4006" stroke="none" /><path d="M 84.80347519578584 85.50635884689758 l -3.7260270114354235 -3.5536873809159215 a26.148977693797814,26.148977693797814 0 0,0 0.31345867395994886,-0.3230467173110623 l 3.6643040737723562 3.6172982937771074" fill="#ff4106" stroke="none" /><path d="M 85.05521093208273 85.24692304244772 l -5.1095410558059156 -5.043995741358623 a28.17978431708155,28.17978431708155 0 0,0 0.34374532862109003,-0.34226917693808545 l 5.021959927017512 5.131200768946818" fill="#ff5d08" stroke="none" /><path d="M 85.57189188830299 84.74124197986013 l -3.887110793240341 -4.110898153268137 a26.657659758722588,26.657659758722588 0 0,0 0.3361303876470885,-0.3123965625049547 l 3.815772521798396 4.177199301847739" fill="#ff4806" stroke="none" /><path d="M 85.83668400450813 84.49514656593479 l -6.270409247280696 -6.864337163813878 a30.297158535106284,30.297158535106284 0 0,0 0.3880763215717393,-0.3484187532239273 l 6.151321938112986 6.9712549258070835" fill="#ff790b" stroke="none" /><path d="M 86.10567301691215 84.25364557470407 l -5.592561854336377 -6.338015595210936 a29.452643952025625,29.452643952025625 0 0,0 0.3830333195022285,-0.3321627201993235 l 5.482634736187375 6.43334330882994" fill="#ff6e0a" stroke="none" /><path d="M 86.37877921826538 84.01681056812374 l -5.1734008589310285 -6.070487165600145 a28.975894362070274,28.975894362070274 0 0,0 0.3824024158246087,-0.32025102594836513 l 5.06814090614731 6.158639348942323" fill="#ff6809" stroke="none" /><path d="M 86.93701828274178 83.55741782278169 l -5.202598797387667 -6.548593583969175 a29.3636781486725,29.3636781486725 0 0,0 0.3984615396737242,-0.3110055520075535 l 5.089104702554517 6.6371775251999505" fill="#ff6d0a" stroke="none" /><path d="M 87.22198572758235 83.33499621200491 l -4.412177193412422 -5.754333034377772 a28.251183093578593,28.251183093578593 0 0,0 0.3884589418641317,-0.29257922141362 l 4.3124720977899 5.8294288452972465" fill="#ff5e08" stroke="none" /><path d="M 87.51073957382395 83.11751280151077 l -3.2657605171421893 -4.414525619822114 a26.491195516769608,26.491195516769608 0 0,0 0.368927343060332,-0.2680414044773554 l 3.189287857728076 4.470086259116137" fill="#ff4606" stroke="none" /><path d="M 87.80319425747018 82.90503203632743 l -10.53459848241008 -14.765228484290061 a39.13807424670236,39.13807424670236 0 0,0 0.5517888114814886,-0.38656332494267903 l 10.278878531344931 14.944376651996683" fill="#ffeb16" stroke="none" /><path d="M 88.09926311788651 82.69761687909137 l -4.721254061627016 -6.864192309653787 a29.33110892848844,29.33110892848844 0 0,0 0.4184505972774082,-0.282539711204927 l 4.602398769943069 6.94444393315738" fill="#ff6c0a" stroke="none" /><path d="M 88.70189139769569 82.29822771554957 l -3.952889602660568 -6.193350947042382 a28.347307817428966,28.347307817428966 0 0,0 0.4135748665270881,-0.25898054347783256 l 3.8456955837612377 6.260475831843145" fill="#ff5f08" stroke="none" /><path d="M 89.00827224532344 82.1063720568725 l -2.0028215473129873 -3.260428606308043 a24.826445981222392,24.826445981222392 0 0,0 0.36605759222784995,-0.22054560347092733 l 1.946401888867488 3.2944208192375894" fill="#ff2e04" stroke="none" /><line stroke="#e1ed5e" stroke-width="0.3" x1="56.762969772571076" x2="54.21961505331055" y1="26.818313649435495" y2="22.513508569990535" /><path d="M 56.25429882871897 25.957352633546506 a86.0,86.0 0 0,1 42.265352541879196,-11.944610805530505" fill="none" id="id120" stroke="none" /><text fill="#e1ed5e" style="font-size:6.75px; font-family:Arial;" text-anchor="middle"><textPath startOffset="22.20632615414155" xlink:href="#id120">December</textPath></text><path d="M 89.3179101791058 81.91981866633112 l -4.317004749268936 -7.30683134047625 a29.48683181425062,29.48683181425062 0 0,0 0.4392179686068165,-0.2544233969752907 l 4.1905900481968 7.3800588948415875" fill="#ff6f0a" stroke="none" /><path d="M 89.63071344664047 81.73862282372117 l -0.6989199394829748 -1.2308697001709765 a22.41546080857291,22.41546080857291 0 0,0 0.3371668619894205,-0.18763299365429773 l 0.6776289884215088 1.2427180913854587" fill="#ff0c01" stroke="none" /><path d="M 89.94658935756843 81.56283822128135 l -2.7504773667223885 -5.044158443596561 a26.745316366307307,26.745316366307307 0 0,0 0.4060893621697462,-0.21691887350586017 l 2.663242958024337 5.09075604360417" fill="#ff4906" stroke="none" /><path d="M 90.26544431104013 81.39251694778311 l -7.36669407206722 -14.081344796487965 a36.891898968625775,36.891898968625775 0 0,0 0.5652181707662023,-0.2895267002593051 l 7.123215413712254 14.206064022059774" fill="#ffcf13" stroke="none" /><path d="M 90.91171255644093 81.06846463323043 l -5.559304546377999 -11.580418344821016 a33.845697960034954,33.845697960034954 0 0,0 0.5273833250617063,-0.24761354255481094 l 5.359143010016684 11.674396870015833" fill="#ffa80f" stroke="none" /><path d="M 91.23893434514133 80.91482961587045 l -2.3314262452659333 -5.07879621975616 a26.588355695454993,26.588355695454993 0 0,0 0.4175864356631828,-0.1873588613296379 l 2.2436576911359762 5.118175411602326" fill="#ff4706" stroke="none" /><path d="M 91.90106846888425 80.62456947434976 l -3.470532631329019 -8.30270803339582 a29.99886423016455,29.99886423016455 0 0,0 0.47814779770782023,-0.1950484922612314 l 3.3271009640328177 8.361217411840629" fill="#ff750a" stroke="none" /><path d="M 92.23578459929587 80.48803036053334 l -2.115027276382301 -5.315198751398975 a26.720548762724984,26.720548762724984 0 0,0 0.42882260826120894,-0.166376509846409 l 2.0232215031214156 5.350817965135935" fill="#ff4906" stroke="none" /><path d="M 93.59665428221793 80.00007090966166 l -1.7427217426806756 -5.4431406352173095 a26.71531793054121,26.71531793054121 0 0,0 0.4391675486812462,-0.13645149513334787 l 1.6487688212887006 5.472332265233183" fill="#ff4906" stroke="none" /><path d="M 94.28887869178378 79.79150937346287 l -1.5686145078778766 -5.550456708649559 a26.767852386193482,26.767852386193482 0 0,0 0.4444765060958802,-0.12149221931329471 l 1.472840112558274 5.576635468789149" fill="#ff4906" stroke="none" /><path d="M 94.63758080256005 79.69619591428918 l -1.30135254559107 -4.927329654633557 a26.09628256411942,26.09628256411942 0 0,0 0.4352998009797936,-0.11096761162412384 l 1.2163438559262771 4.949000262426544" fill="#ff4006" stroke="none" /><path d="M 94.98787191387505 79.60689891045804 l -2.558324546079566 -10.409185517921042 a31.718962992266107,31.718962992266107 0 0,0 0.5313323740376762,-0.12574920627421832 l 2.378768485079356 10.451680636336132" fill="#ff8c0c" stroke="none" /><path d="M 95.33964822691252 79.52364482259891 l -5.93301695468284 -26.068109952383175 a47.73475353681221,47.73475353681221 0 0,0 0.8027559772506514,-0.17545136403630557 l 5.483418253278668 26.16637481451535" fill="#aeff20" stroke="none" /><path d="M 97.11714578562143 79.19881850522333 l -3.0857945428868145 -22.26549369788945 a43.47830815634631,43.47830815634631 0 0,0 0.7422063382593728,-0.09635968417060711 l 2.702073476119584 22.315311705224197" fill="#dfff1b" stroke="none" /><path d="M 97.47563105711357 79.15227682838746 l -1.4156574137339277 -11.691331392161606 a32.77672771335074,32.77672771335074 0 0,0 0.5606900926014937,-0.06300006488110539 l 1.214200617622716 11.71396741051331" fill="#ff9a0e" stroke="none" /><path d="M 97.83486435360386 79.11191278185805 l -0.9336373025577618 -9.007240464770925 a30.055498848927876,30.055498848927876 0 0,0 0.5150580394522604,-0.04891096702317753 l 0.778454136015265 9.021976976309283" fill="#ff760a" stroke="none" /><path d="M 98.19473922651362 79.07773832637324 l -0.2299412033690403 -2.6649280243012954 a23.674829776212537,23.674829776212537 0 0,0 0.40631623412017775,-0.03153795979630162 l 0.1840347798865284 2.6684912462860595" fill="#ff1e03" stroke="none" /><path d="M 98.55514903715128 79.0497635885617 l -0.47070852970541116 -6.8252402716787675 a27.841452425185977,27.841452425185977 0 0,0 0.47839298335396274,-0.028857971190477994 l 0.3531534975118254 6.832331512249552" fill="#ff5808" stroke="none" /><path d="M 99.27714615592234 79.0124445844662 l -0.19639840973088193 -5.702290361351038 a26.705671538083994,26.705671538083994 0 0,0 0.45955801824275067,-0.011869027782990857 l 0.09821375629325227 5.704826181276388" fill="#ff4906" stroke="none" /><path d="M 99.63851952072746 79.00311137660856 l -0.2538155773989632 -14.743084938508467 a35.74526960931558,35.74526960931558 0 0,0 0.6152960566714953,-0.005296047415669272 l 3.611549445922613e-15 14.745269609315578" fill="#ffc111" stroke="none" /></svg>