<?xml version="1.0" encoding="utf-8" ?>
<svg baseProfile="full" height="200mm" version="1.1" viewBox="0,0,200,200" width="200mm" xmlns="http://www.w3.org/2000/svg" xmlns:ev="http://www.w3.org/2001/xml-events" xmlns:xlink="http://www.w3.org/1999/xlink"><defs /><rect fill="#1a1a1a" height="200" width="200" x="0" y="0" /><rect fill="#1a1a1a" height="200" width="180" x="10" y="0" /><text alignment-baseline="middle" fill="#e1ed5e" style="dominant-baseline: central; font-size:9.0px; font-family:Arial;" text-anchor="middle" x="100.0" y="100.0">2015</text><line stroke="#e1ed5e" stroke-width="0.3" x1="100.0" x2="100.0" y1="15.0" y2="10.0" /><path d="M 100.0 14.0 a86.0,86.0 0 0,1 42.46469731375804,11.215312516191453" fill="none" id="id25" stroke="none" /><text fill="#e1ed5e" style="font-size:6.75px; font-family:Arial;" text-anchor="middle"><textPath startOffset="22.20632615414155" xlink:href="#id25">January</textPath></text><path d="M 100.72285384407766 79.0124445844662 l 1.9733535025822442 -57.29493773769433 a78.32891080783259,78.32891080783259 0 0,0 1.3471049632003385,0.05800917342596994 l -2.959299298171914 57.25248083774417" fill="#46fff6" stroke="none" /><path d="M 106.40334571778207 80.00007090966166 l 2.2848092400344306 -7.136272942243419 a28.493113156061522,28.493113156061522 0 0,0 0.46581786639364225,0.15357282678070303 l -2.4073099286704904 7.0958863912034795" fill="#ff5307" stroke="none" /><path d="M 108.76106565485865 80.91482961587045 l 2.066527250261081 -4.5017382848634515 a25.953401100403333,25.953401100403333 0 0,0 0.40440563480633146,0.18987386802911588 l -2.1437110963670105 4.465499434194332" fill="#ff2f04" stroke="none" /><path d="M 109.08828744355905 81.06846463323043 l 3.8759604598611186 -8.073895437590359 a29.95605141921088,29.95605141921088 0 0,0 0.4629333053546125,0.22715936244023693 l -4.014365032226163 8.00598091501529" fill="#ff6709" stroke="none" /><path d="M 110.05341064243156 81.56283822128135 l 2.9572965674163396 -5.4234485370545835 a27.177329279043814,27.177329279043814 0 0,0 0.4087935067908198,0.22749314393775233 l -3.0502141632791946 5.371739995556651" fill="#ff4106" stroke="none" /><path d="M 110.36928655335952 81.73862282372117 l 3.716561666204825 -6.545246294064149 a28.52682400941218,28.52682400941218 0 0,0 0.42491827440622165,0.24614009111291457 l -3.828676673076375 6.480302045561184" fill="#ff5407" stroke="none" /><line stroke="#e1ed5e" stroke-width="0.3" x1="143.23703022742887" x2="145.7803849466894" y1="26.81831364943548" y2="22.513508569990506" /><path d="M 143.74570117128098 25.957352633546492 a86.0,86.0 0 0,1 28.547481713284135,27.462654790039103" fill="none" id="id26" stroke="none" /><text fill="#e1ed5e" style="font-size:6.75px; font-family:Arial;" text-anchor="middle"><textPath startOffset="19.985693538727396" xlink:href="#id26">February</textPath></text><path d="M 110.68208982089419 81.91981866633111 l 8.14472861825692 -13.785520698727899 a37.011782699003525,37.011782699003525 0 0,0 0.5457262819295831,0.3287939786895284 l -8.38081696640414 13.643280110579756" fill="#ffc612" stroke="none" /><path d="M 112.48926042617603 83.11751280151076 l 8.465472422949516 -11.443290069447912 a35.234223229851494,35.234223229851494 0 0,0 0.48447702271215953,0.36489804924478103 l -8.661195599420058 11.295875430697283" fill="#ffaf10" stroke="none" /><path d="M 113.6212207817346 84.01681056812373 l 18.336414261075173 -21.51601441106662 a49.269470530786165,49.269470530786165 0 0,0 0.640752282826105,0.555654065588955 l -18.70406034254804 21.197195352057996" fill="#a4ff21" stroke="none" /><path d="M 115.19652480421416 85.50635884689758 l 4.7222267781190945 -4.50380999915516 a27.52562106258669,27.52562106258669 0 0,0 0.3240587147490257,0.3456832425537945 l -4.799052814838584 4.42185733972331" fill="#ff4506" stroke="none" /><path d="M 115.4437574822437 85.77008943001954 l 4.576886693828242 -4.217153009362554 a27.22352563363546,27.22352563363546 0 0,0 0.31456960094542913,0.3473556102013622 l -4.6487999353897065 4.137744611891643" fill="#ff4106" stroke="none" /><path d="M 116.38621287248628 86.86637796730983 l 5.4010105315565164 -4.328933809663083 a27.92174708367971,27.92174708367971 0 0,0 0.2973611808548739,0.3776185021849813 l -5.474725793005354 4.2353229135250645" fill="#ff4b07" stroke="none" /><path d="M 116.60985879189232 87.15038557335679 l 6.6354620397647235 -5.133284383803623 a29.389276789220915,29.389276789220915 0 0,0 0.30610199681979183,0.40279434694209315 l -6.722839976808629 5.0183052609804975" fill="#ff6008" stroke="none" /><path d="M 116.82858285166822 87.43820079747576 l 16.847471172360777 -12.575898505710038 a42.02357029929615,42.02357029929615 0 0,0 0.4277146727915011,0.5834023330121904 l -17.061448457665904 12.284033729026353" fill="#f9ff18" stroke="none" /><path d="M 117.45458315368197 88.32363383020206 l 6.906883315043165 -4.620408174084619 a29.30982604046376,29.30982604046376 0 0,0 0.27691276683342475,0.42175714178023455 l -6.985392717234515 4.500832968326711" fill="#ff5f08" stroke="none" /><line stroke="#e1ed5e" stroke-width="0.3" x1="172.23445277983987" x2="176.4835382374775" y1="55.19839476539836" y2="52.563006222186495" /><path d="M 173.08426987136738 54.67131705675599 a86.0,86.0 0 0,1 12.851231095245387,41.99856678651699" fill="none" id="id27" stroke="none" /><text fill="#e1ed5e" style="font-size:6.75px; font-family:Arial;" text-anchor="middle"><textPath startOffset="22.20632615414155" xlink:href="#id27">March</textPath></text><path d="M 117.84615892207809 88.93136811851018 l 22.82281703844865 -14.155279093960118 a47.85615206611711,47.85615206611711 0 0,0 0.42816261562073754,0.7037867623009275 l -23.06309545235561 13.76032455845211" fill="#b4ff20" stroke="none" /><path d="M 118.21658344932153 89.55222093294921 l 6.077647322275173 -3.4857203957720624 a28.006286009824315,28.006286009824315 0 0,0 0.23624283630566734,0.4202496451037202 l -6.136747799873273 3.3805872407335484" fill="#ff4c07" stroke="none" /><path d="M 119.04729006885535 91.15688171328212 l 18.297115571618768 -8.494833476082826 a41.17291833195067,41.17291833195067 0 0,0 0.2929113620309889,0.6453913593629204 l -18.440629250613103 8.178620107877842" fill="#fffa17" stroke="none" /><path d="M 119.61058180528143 92.48833698450437 l 10.043529748605854 -3.8470868282609874 a31.75511817114577,31.75511817114577 0 0,0 0.1911286299248327,0.5121297050222127 l -10.108262967032312 3.6736339862094414" fill="#ff800b" stroke="none" /><path d="M 119.85752413597 93.16781622104841 l 7.099361632170933 -2.4426078020657616 a28.50781382687752,28.50781382687752 0 0,0 0.15565633724001565,0.4653926360350844 l -7.140355263182719 2.3200420631083634" fill="#ff5307" stroke="none" /><path d="M 120.28053869075195 94.5502522615342 l 7.144980163963688 -1.9199854640794236 a28.398451576222612,28.398451576222612 0 0,0 0.12279445582498084,0.473177129304675 l -7.176970951658972 1.7967119092258983" fill="#ff5207" stroke="none" /><path d="M 120.45610955862082 95.25157060432595 l 7.11365742039049 -1.651276842692783 a28.302796526392484,28.302796526392484 0 0,0 0.10607566429363437,0.47551640368079623 l -7.141027471686162 1.528582269462023" fill="#ff5007" stroke="none" /><path d="M 120.6074358757038 95.95851677861258 l 39.570512156750674 -7.760478397594595 a61.32431595584834,61.32431595584834 0 0,0 0.19423535631077704,1.0376130401773938 l -39.69823323697131 7.078187279954638" fill="#31ff3b" stroke="none" /><path d="M 120.78858239683441 97.02765380044208 l 7.931325709485523 -1.1340189234661375 a29.011986422150585,29.011986422150585 0 0,0 0.0664291610693682,0.49497440930121706 l -7.949670869612728 0.9973261721002561" fill="#ff5a08" stroke="none" /><path d="M 120.87857604477298 97.74499172005257 l 8.230090545771416 -0.8888978963715238 a29.277954449123875,29.277954449123875 0 0,0 0.04980441366988028,0.5015236488700388 l -8.244172085123525 0.7470987167970502" fill="#ff5e08" stroke="none" /><path d="M 120.91429891909075 98.10471618934814 l 7.911180241563323 -0.7169225176033646 a28.943598095998354,28.943598095998354 0 0,0 0.04069403209073526,0.4965702657104728 l -7.922348757473554 0.5806383346851229" fill="#ff5908" stroke="none" /><path d="M 120.94382443527127 98.46500227214037 l 14.120268812714897 -1.0348912449716052 a35.158142223902395,35.158142223902395 0 0,0 0.03904129038305278,0.6039514821416868 l -14.135990694102365 0.7916806985768833" fill="#ffae10" stroke="none" /><line stroke="#e1ed5e" stroke-width="0.3" x1="184.98032266829074" x2="189.97916517819016" y1="98.17113171792111" y2="98.06355123074" /><path d="M 185.9800911702706 98.14961562048488 a86.0,86.0 0 0,1 -9.607161424134198,41.387399972396054" fill="none" id="id28" stroke="none" /><text fill="#e1ed5e" style="font-size:6.75px; font-family:Arial;" text-anchor="middle"><textPath startOffset="21.466115282336823" xlink:href="#id28">April</textPath></text><path d="M 120.9904718944345 100.63252640178507 l 7.060245986083357 0.21275329167225013 a28.063450810129815,28.063450810129815 0 0,0 -0.018706116960809108,0.48272175999629097 l -7.055537736271345 -0.33425229868254724" fill="#ff4d07" stroke="none" /><path d="M 120.9764740272857 100.99374915477107 l 31.855263875227045 1.5091259622488757 a52.89099085526003,52.89099085526003 0 0,0 -0.05091047287424394,0.9090406928908487 l -31.824567051465273 -2.057238371475148" fill="#7cff26" stroke="none" /><path d="M 120.89721153311464 102.0752229133903 l 7.756706115585544 0.7702890999590992 a28.794859527988812,28.794859527988812 0 0,0 -0.053226198832239675,0.49280849643666375 l -7.7422976152522525 -0.9036939182805543" fill="#ff5708" stroke="none" /><path d="M 120.8583938346157 102.4346265915055 l 7.025608596908904 0.820040778171416 a28.073304958421083,28.073304958421083 0 0,0 -0.06015506445628209,0.47949505081244215 l -7.010452023205774 -0.940853583271253" fill="#ff4d07" stroke="none" /><path d="M 120.76222939487914 103.15116336523771 l 42.299993468079535 6.420032609758297 a63.78441615950755,63.78441615950755 0 0,0 -0.17409575396916466,1.084094426153363 l -42.18321595974908 -7.147206265604865" fill="#34ff58" stroke="none" /><path d="M 120.64145759157962 103.86396538481128 l 5.673670024172846 1.0620792878109717 a26.77222175221938,26.77222175221938 0 0,0 -0.08869263150915645,0.4522418172615617 l -5.654547459688026 -1.1595848321404782" fill="#ff3b05" stroke="none" /><path d="M 120.5718875245553 104.21870165774334 l 6.479506521406196 1.3287601767502852 a27.614348673018597,27.614348673018597 0 0,0 -0.0994983922543977,0.46482336389216783 l -6.4556740904273555 -1.4400973600586222" fill="#ff4706" stroke="none" /><path d="M 120.41448212921028 104.9243191809786 l 8.31772243400779 2.0063756633450804 a29.55628714990678,29.55628714990678 0 0,0 -0.12355750491467132,0.49355081305946635 l -8.281953614798057 -2.149254315801943" fill="#ff6209" stroke="none" /><path d="M 120.32669344350535 105.2749913415812 l 5.593116151204716 1.4514726338577062 a26.778383951218963,26.778383951218963 0 0,0 -0.11962531956773007,0.4451703158227108 l -5.567302755295208 -1.5475338828559653" fill="#ff3b05" stroke="none" /><path d="M 120.23288151984713 105.62410040840565 l 20.16593934707218 5.605492604031682 a41.93051975187544,41.93051975187544 0 0,0 -0.19928450525857203,0.6937355064760281 l -20.066462204927507 -5.951785586012293" fill="#faff18" stroke="none" /><path d="M 120.13307415673323 105.97154293290107 l 13.605120041167112 4.035328027932162 a35.19095358415289,35.19095358415289 0 0,0 -0.17725051138965375,0.5792649268673413 l -13.533642757271325 -4.26891992735156" fill="#ffae10" stroke="none" /><path d="M 120.02730092923936 106.31721596034902 l 5.985076255586435 1.887873926660599 a27.27576335979532,27.27576335979532 0 0,0 -0.14509114889220304,0.44654464033537994 l -5.951692855677985 -1.9906174669737742" fill="#ff4206" stroke="none" /><path d="M 119.79798401119884 107.00284435728193 l 7.173469623030219 2.537363968137106 a28.609000088010106,28.609000088010106 0 0,0 -0.16821511560802768,0.4628557526358677 l -7.128730246416965 -2.660467517779105" fill="#ff5507" stroke="none" /><path d="M 119.67450827220406 107.3425965602758 l 6.317846567133844 2.357842840612471 a27.743486346606804,27.743486346606804 0 0,0 -0.17082816612550963,0.44597843640480467 l -6.276324121414827 -2.4662448438504194" fill="#ff4906" stroke="none" /><path d="M 119.54520255179757 107.68017299344265 l 8.74556706336043 3.436519411572172 a30.39652110761462,30.39652110761462 0 0,0 -0.1955471684432726,0.4853320353696402 l -8.685117280659764 -3.586550814784626" fill="#ff6e0a" stroke="none" /><line stroke="#e1ed5e" stroke-width="0.3" x1="174.80103733775053" x2="179.2010983576182" y1="140.37084112569926" y2="142.7455964860345" /><path d="M 175.68104954172406 140.8457921977663 a86.0,86.0 0 0,1 -30.038265399797805,32.042727171017184" fill="none" id="id29" stroke="none" /><text fill="#e1ed5e" style="font-size:6.75px; font-family:Arial;" text-anchor="middle"><textPath startOffset="22.206326154141568" xlink:href="#id29">May</textPath></text><path d="M 118.30583269289576 110.29060199501025 l 15.15455573320054 8.519115414077245 a38.384932755379005,38.384932755379005 0 0,0 -0.32873588256571695,0.5731787204833313 l -15.005667854482445 -8.77871398041889" fill="#ffd714" stroke="none" /><path d="M 118.12598468904814 110.60418214915192 l 24.630208689079478 14.409325826498808 a49.53551910938036,49.53551910938036 0 0,0 -0.4369012129177696,0.732271563360996 l -24.37852660046348 -14.831159483745907" fill="#a1ff22" stroke="none" /><path d="M 117.55443506779139 111.5257021239791 l 5.115776975502483 3.358861810400076 a27.119895973335282,27.119895973335282 0 0,0 -0.25957213677260393,0.38802512526503957 l -5.0572017333191575 -3.4464238498709223" fill="#ff4006" stroke="none" /><path d="M 116.93607887273984 112.41649034213515 l 16.255433461860164 11.9174830315227 a41.15602934209996,41.15602934209996 0 0,0 -0.42378703108549143,0.567731982425861 l -16.04788516407958 -12.195527893457875" fill="#fffa17" stroke="none" /><path d="M 116.71984013943494 112.70617746262583 l 22.106372002744774 16.799651394943968 a48.76544561348477,48.76544561348477 0 0,0 -0.5136468630964705,0.6639578108461262 l -21.813918322430236 -17.177687199903346" fill="#aaff21" stroke="none" /><path d="M 115.80600337817218 113.82643327865902 l 10.279618287582144 8.992181830077135 a34.657594451570255,34.657594451570255 0 0,0 -0.3966498151862744,0.4456402722175999 l -10.12330962274753 -9.1677962720356" fill="#ffa70f" stroke="none" /><path d="M 115.32070863581623 114.36230785411682 l 37.4275448879213 35.08623097546841 a72.30170289962393,72.30170289962393 0 0,0 -0.8589905332190808,0.900648139881311 l -36.81804780332325 -35.72528623193223" fill="#3effb8" stroke="none" /><path d="M 115.07121518719521 114.62390073753431 l 2.33778015442252 2.2683947179985138 a24.257426997962554,24.257426997962554 0 0,0 -0.29335242848397836,0.29716446127599694 l -2.298387100883006 -2.308299673255175" fill="#ff1702" stroke="none" /><path d="M 114.0293411484842 115.62618273729858 l 4.504559348589721 5.01727535078686 a27.74270768093801,27.74270768093801 0 0,0 -0.3580891937140664,0.31597207913602593 l -4.417527801969067 -5.094070571695174" fill="#ff4906" stroke="none" /><path d="M 113.75828350139079 115.86535959552629 l 6.254701831478237 7.212607132944154 a30.546884133312506,30.546884133312506 0 0,0 -0.40021440038452827,0.3410713944736876 l -6.1296219545166615 -7.319202917640788" fill="#ff700a" stroke="none" /><path d="M 113.48314897796784 116.09983520530334 l 12.946092083939071 15.458551221579354 a41.16353406811471,41.16353406811471 0 0,0 -0.5471415225275755,0.45026022383498937 l -12.678080432866805 -15.679106564271521" fill="#fffa17" stroke="none" /><path d="M 112.92097659922987 116.55440617244103 l 6.31268426607598 8.087835975589353 a31.25977940363245,31.25977940363245 0 0,0 -0.4270253649777589,0.32742484056924626 l -6.172530172604728 -8.195300157985972" fill="#ff790b" stroke="none" /><path d="M 112.34349029814194 116.9893568818739 l 4.396284516396654 6.050966525615709 a28.47940595523674,28.47940595523674 0 0,0 -0.39908147103447167,0.2847340333128508 l -4.291475717513298 -6.125744820772779" fill="#ff5307" stroke="none" /><path d="M 111.7513745106137 117.40417183066458 l 3.6656785452268363 5.428990389123138 a27.55065919141942,27.55065919141942 0 0,0 -0.3953195562270016,0.2619962457507198 l -3.5716842902598707 -5.491284655965176" fill="#ff4606" stroke="none" /><path d="M 111.1453310114006 117.79835938074945 l 30.293504476727616 48.37673094030287 a78.07893227760987,78.07893227760987 0 0,0 -1.1452350089800227,0.7034968802214189 l -29.456290267815287 -48.89101628735267" fill="#46fff4" stroke="none" /><line stroke="#e1ed5e" stroke-width="0.3" x1="143.8653032363475" x2="146.44561519142675" y1="172.8068346515853" y2="177.08958963109032" /><path d="M 144.38136562736335 173.6633856474863 a86.0,86.0 0 0,1 -40.68145358897372,12.25698825130547" fill="none" id="id30" stroke="none" /><text fill="#e1ed5e" style="font-size:6.75px; font-family:Arial;" text-anchor="middle"><textPath startOffset="21.466115282336833" xlink:href="#id30">June</textPath></text><path d="M 110.21172684928248 118.3499491758327 l 0.848684519836725 1.5250425354272097 a22.745285119707592,22.745285119707592 0 0,0 -0.34375403021612677,0.1874421056359422 l -0.8223076777519496 -1.5394252928229224" fill="#ff0000" stroke="none" /><path d="M 109.2508944713604 118.85261126421891 l 2.792334612702998 5.690563127261732 a27.338741302076464,27.338741302076464 0 0,0 -0.4242547363412163,0.20366805536165294 l -2.6939672083615487 -5.737785459122945" fill="#ff4306" stroke="none" /><path d="M 108.92500713936063 119.00905698771935 l 5.886827587955777 12.538145835516534 a34.85134795039811,34.85134795039811 0 0,0 -0.5452277710643489,0.2502873279621948 l -5.670131821124008 -12.637620233812804" fill="#ffaa0f" stroke="none" /><path d="M 108.59647513512805 119.15986991738527 l 2.5933726376685207 5.780122853143698 a27.335250731837046,27.335250731837046 0 0,0 -0.4309588747789405,0.18891970598920277 l -2.4934930882318262 -5.823907112427356" fill="#ff4306" stroke="none" /><path d="M 107.93186726928326 119.44442032107085 l 4.077328815263982 9.995287689473741 a31.794924097145255,31.794924097145255 0 0,0 -0.5085354710990326,0.20235675892633256 l -3.9046722681230834 -10.063991292806142" fill="#ff810b" stroke="none" /><path d="M 107.2578585660854 119.70592522655815 l 4.378060527051946 11.886940562133876 a33.66754790424074,33.66754790424074 0 0,0 -0.5455432377797377,0.1956123955691119 l -4.172797728642474 -11.960540498742949" fill="#ff9a0e" stroke="none" /><path d="M 105.88484417918355 120.15858648285463 l 3.766848899755389 12.903374669148803 a34.441957762395305,34.441957762395305 0 0,0 -0.57053731499976,0.1612395441621354 l -3.544180416651023 -12.966303006649458" fill="#ffa40f" stroke="none" /><path d="M 105.18746579009965 120.34920634021253 l 6.798084762007031 26.66728517118146 a48.52013907727479,48.52013907727479 0 0,0 -0.8110874022323752,0.19934554981026348 l -6.338044075031445 -26.780351979305756" fill="#adff20" stroke="none" /><path d="M 104.48393922423573 120.51570834832081 l 2.0079418719361737 9.187089245627613 a30.403958707278605,30.403958707278605 0 0,0 -0.5122466760468467,0.10734627144675767 l -1.849503734459949 -9.220291497800911" fill="#ff6e0a" stroke="none" /><path d="M 103.7750983002368 120.6578951692458 l 5.478900894328465 29.981354475093966 a51.4778603443731,51.4778603443731 0 0,0 -0.8730425194317454,0.15178963272479565 l -4.96200940342467 -30.07122268633977" fill="#8cff24" stroke="none" /><path d="M 101.26447882468166 120.96189622390904 l 0.46062273164090584 7.635972790181743 a28.649853185081415,28.649853185081415 0 0,0 -0.49252089704840313,0.02545770460324594 l -0.3291137661790231 -7.64277030154719" fill="#ff5507" stroke="none" /><path d="M 100.90346689309514 120.98055641714683 l 0.9572843474863855 22.230320129256416 a43.250921921825295,43.250921921825295 0 0,0 -0.7440798981744816,0.0256276161776453 l -0.5744840976372515 -22.243504543860155" fill="#eaff1a" stroke="none" /><line stroke="#e1ed5e" stroke-width="0.3" x1="102.19456741930631" x2="102.32365962044197" y1="184.97166512339345" y2="189.96999836594603" /><path d="M 102.22038585953345 185.97133177190398 a86.0,86.0 0 0,1 -42.740103519485714,-10.115201625700543" fill="none" id="id31" stroke="none" /><text fill="#e1ed5e" style="font-size:6.75px; font-family:Arial;" text-anchor="middle"><textPath startOffset="22.20632615414155" xlink:href="#id31">July</textPath></text><path d="M 100.18074693466247 120.99922214144158 l 0.17864374769079036 20.754873375551803 a41.755642182880734,41.755642182880734 0 0,0 -0.7187813647064774,0.0 l 0.17864374769077607 -20.754873375551803" fill="#fdff18" stroke="none" /><path d="M 99.81925306533755 120.99922214144158 l -0.11599936620476085 13.476834136907126 a34.477333349244766,34.477333349244766 0 0,0 -0.5934046694011852,-0.010215999529507712 l 0.347963725498614 -13.47284066009846" fill="#ffa50f" stroke="none" /><path d="M 98.73552117531835 120.96189622390904 l -0.4500313432308005 7.460394061312538 a28.473955295555193,28.473955295555193 0 0,0 -0.48898898226158044,-0.033723543160464116 l 0.5783830862713111 -7.451542173635789" fill="#ff5307" stroke="none" /><path d="M 98.37488393609728 120.93702456842531 l -1.4634450593272257 18.85415192321238 a39.91086238607966,39.91086238607966 0 0,0 -0.684482089151522,-0.05905999480241872 l 1.7877714662202893 -18.8261676761313" fill="#ffeb16" stroke="none" /><path d="M 97.65516085044442 120.86867818915974 l -2.714911198980749 24.162257839482592 a45.31430539250482,45.31430539250482 0 0,0 -0.7743838832783109,-0.09376710390520868 l 3.1304225053104493 -24.111945206852035" fill="#d2ff1c" stroke="none" /><path d="M 96.93821686468263 120.77559828337769 l -9.185349405952088 62.32679485013308 a84.0,84.0 0 0,0 -1.4286565455659315,-0.22312677061157693 l 10.256841815126537 -62.1594497721744" fill="#4dd2ff" stroke="none" /><path d="M 96.22490169976321 120.6578951692458 l -1.4337543296452184 7.8457153389635925 a28.975644215850217,28.975644215850217 0 0,0 -0.48987105167976996,-0.09388495295735491 l 1.5685929958966833 -7.81987318765777" fill="#ff5a08" stroke="none" /><path d="M 95.86986931433489 120.58985236759428 l -3.3895779138586333 16.897990438181154 a38.23459658022142,38.23459658022142 0 0,0 -0.6441774637564337,-0.13499365075032665 l 3.6799468390444536 -16.837140806704284" fill="#ffd513" stroke="none" /><path d="M 95.51606077576429 120.51570834832081 l -2.9966640570169645 13.710865098118024 a35.034522336346484,35.034522336346484 0 0,0 -0.5880458666289441,-0.13383732473177185 l 3.232230073038771 -13.657251039808566" fill="#ffac0f" stroke="none" /><path d="M 93.42475214034765 119.94407469862007 l -5.080351787864743 15.409748455900734 a37.22560697670801,37.22560697670801 0 0,0 -0.6068310465671582,-0.20587003834186954 l 5.344852567369126 -15.320015430660742" fill="#ffc812" stroke="none" /><path d="M 93.08242187328487 119.8279376855182 l -2.8015359781277915 8.030076390974264 a29.5047475377948,29.5047475377948 0 0,0 -0.47808992646046694,-0.17142603800388542 l 2.939345465217985 -7.98066281193042" fill="#ff6109" stroke="none" /><path d="M 92.40401165467489 119.57807347666478 l -7.886886813741897 20.32784181884741 a42.80422290807121,42.80422290807121 0 0,0 -0.6846207776774955,-0.2724247364004691 l 8.235628667461249 -20.189070238040873" fill="#f0ff19" stroke="none" /><path d="M 91.7346041902142 119.30500536409082 l -12.571746282237033 29.36309827137782 a52.941201365626995,52.941201365626995 0 0,0 -0.8346541538543021,-0.3658878528251729 l 13.075321110749078 -29.142345865258193" fill="#7cff26" stroke="none" /><path d="M 91.07499286063937 119.00905698771935 l -4.490049952582859 9.563198560361993 a31.564814966746887,31.564814966746887 0 0,0 -0.48983682545615104,-0.23515144355381706 l 4.6539994460392515 -9.484492840308613" fill="#ff7e0b" stroke="none" /><path d="M 90.42595943632237 118.69057910512821 l -2.5152038625623745 4.910217002536714 a26.51692681501661,26.51692681501661 0 0,0 -0.4044577569470923,-0.21159318258060733 l 2.599352522035962 -4.8661944010113904" fill="#ff3705" stroke="none" /><path d="M 90.10565033884886 118.52300852407294 l -2.8259678671370505 5.290436328247346 a26.997900543467722,26.997900543467722 0 0,0 -0.4080246552350422,-0.22248757485272322 l 2.9166153342407335 -5.241008101634857" fill="#ff3e05" stroke="none" /><line stroke="#e1ed5e" stroke-width="0.3" x1="58.666819895761336" x2="56.23545636021788" y1="174.27360380694188" y2="178.64263932499728" /><path d="M 58.180547188652646 175.14741091055294 a86.0,86.0 0 0,1 -31.652253787137756,-30.449443065178592" fill="none" id="id32" stroke="none" /><text fill="#e1ed5e" style="font-size:6.75px; font-family:Arial;" text-anchor="middle"><textPath startOffset="22.20632615414155" xlink:href="#id32">August</textPath></text><path d="M 89.1626897886671 117.98757091392108 l -4.285264042434001 7.112603528461448 a29.303771243625395,29.303771243625395 0 0,0 -0.42981766968867136,-0.26402911831984976 l 4.407060912054981 -7.03778594331322" fill="#ff5e08" stroke="none" /><path d="M 88.54995079064634 117.60387380957326 l -2.2723183774236544 3.493575026617573 a25.16755291207961,25.16755291207961 0 0,0 -0.36112478396239717,-0.23933381527767858 l 2.3321178601260133 -3.4539431902485758" fill="#ff2403" stroke="none" /><path d="M 87.65650970185807 116.9893568818739 l -7.358268918812582 10.127788305818612 a33.51863480771923,33.51863480771923 0 0,0 -0.4638580498178412,-0.343151095975457 l 7.531511939048988 -9.999627261103388" fill="#ff980e" stroke="none" /><path d="M 87.36589467227662 116.77436683061367 l -8.467834173736136 11.24278712315057 a35.0749592500431,35.0749592500431 0 0,0 -0.4791427694332859,-0.3673862439056081 l 8.660105671662908 -11.095361537417595" fill="#ffad10" stroke="none" /><path d="M 86.79598089348748 116.32954008644616 l -4.2114965015615065 5.2083990784485135 a27.698068657683955,27.698068657683955 0 0,0 -0.3681599211418908,-0.30297055089994956 l 4.300526551248086 -5.135133408691383" fill="#ff4806" stroke="none" /><path d="M 86.24171649860922 115.8653595955263 l -4.585524737732064 5.287796176822963 a27.999130340833513,27.999130340833513 0 0,0 -0.3613989709927668,-0.3188925727632735 l 4.675866061631419 -5.2080804622874" fill="#ff4c07" stroke="none" /><path d="M 85.97065885151581 115.62618273729859 l -4.334714572418477 4.82809857610175 a27.48847334007722,27.48847334007722 0 0,0 -0.34936599613976027,-0.3191375540858519 l 4.417180118025091 -4.752768255429322" fill="#ff4506" stroke="none" /><path d="M 85.70375840098266 115.38237550388516 l -26.353731044877936 28.35591326944087 a59.71145770091609,59.71145770091609 0 0,0 -0.7468600102056739,-0.7062027563008578 l 26.837926889474428 -27.89807587639408" fill="#36ff2e" stroke="none" /><path d="M 85.44109423537348 115.13401014063109 l -8.720734425984693 9.065219967098859 a33.57892769597005,33.57892769597005 0 0,0 -0.41310083663922026,-0.4043061148522144 l 8.875485214999708 -8.913763749324074" fill="#ff990e" stroke="none" /><path d="M 84.67929136418377 114.36230785411682 l -7.413903293946239 6.9501198697415045 a31.162191114900494,31.162191114900494 0 0,0 -0.3634900308723074,-0.39449663835890475 l 7.532439732814275 -6.821471976581256" fill="#ff780b" stroke="none" /><path d="M 84.43433777217949 114.09645910891817 l -6.478448466367584 5.866964254958735 a29.740226776253806,29.740226776253806 0 0,0 -0.34037144357733956,-0.38241092511204366 l 6.578478759593262 -5.754579160105828" fill="#ff6409" stroke="none" /><path d="M 83.95833913139862 113.55231037782056 l -12.161061207646119 10.273903516579127 a36.919940425896456,36.919940425896456 0 0,0 -0.4059505680015155,-0.48899361035684147 l 12.336107775541171 -10.063048649108525" fill="#ffc512" stroke="none" /><path d="M 83.72743513129214 113.27417163493432 l -20.897248122894585 17.046707788182793 a47.96822622134265,47.96822622134265 0 0,0 -0.5164169875783768,-0.6443095947458216 l 21.18758302252782 -16.68447035985871" fill="#b3ff20" stroke="none" /><path d="M 83.28015986056508 112.70617746262583 l -7.6037057250605455 5.778406582269429 a30.550200175039954,30.550200175039954 0 0,0 -0.3145779327648681,-0.42142854852959805 l 7.702044924520498 -5.646665154230522" fill="#ff700a" stroke="none" /><path d="M 83.06392112726016 112.41649034213515 l -5.46026002845255 4.003126486258489 a27.770484564881667,27.770484564881667 0 0,0 -0.2793184531249664,-0.387948901508293 l 5.528358273953125 -3.9085439792990586" fill="#ff4906" stroke="none" /><path d="M 82.44556493220864 111.52570212397912 l -7.235442680648275 4.750569115453126 a29.65560729848829,29.65560729848829 0 0,0 -0.2764963658401998,-0.4291284999629735 l 7.31614390986552 -4.625319015568705" fill="#ff6309" stroke="none" /><line stroke="#e1ed5e" stroke-width="0.3" x1="26.63291911575756" x2="22.317208475507996" y1="142.92168965132927" y2="145.44649492493687" /><path d="M 25.769776987707644 143.4266507060508 a86.0,86.0 0 0,1 -11.730757126820373,-40.83630448921669" fill="none" id="id33" stroke="none" /><text fill="#e1ed5e" style="font-size:6.75px; font-family:Arial;" text-anchor="middle"><textPath startOffset="21.46611528233685" xlink:href="#id33">September</textPath></text><path d="M 81.69416730710424 110.29060199501025 l -11.512767624748124 6.471888576437188 a34.20716321271403,34.20716321271403 0 0,0 -0.2841207728590275,-0.51576173119632 l 11.622464807058668 -6.272756326843045" fill="#ffa10e" stroke="none" /><path d="M 81.18737489456691 109.33194174019688 l -31.540300119381428 15.64546369966141 a56.20754274297022,56.20754274297022 0 0,0 -0.4224846464603255,-0.8704435075270108 l 31.804938022456472 -15.100231236169114" fill="#59ff2a" stroke="none" /><path d="M 80.20201598880116 107.00284435728193 l -25.467148026699757 9.008112833809626 a48.013361979592304,48.013361979592304 0 0,0 -0.2688957907638971,-0.7815370352894839 l 25.618434648406883 -8.568403095430845" fill="#b3ff20" stroke="none" /><path d="M 79.86692584326677 105.97154293290107 l -12.3892438388074 3.6746947293628276 a33.922722014012145,33.922722014012145 0 0,0 -0.16122559208877435,-0.5612474368716284 l 12.45066206778228 -3.4608898169866036" fill="#ff9d0e" stroke="none" /><path d="M 79.67330655649465 105.27499134158121 l -6.283453299689764 1.6306224051253022 a27.491588002752394,27.491588002752394 0 0,0 -0.11492620850968427,-0.45907307444390105 l 6.310590822494507 -1.5222214912840093" fill="#ff4506" stroke="none" /><path d="M 79.50377843672027 104.57218783832718 l -6.566369968911987 1.4647908064969253 a27.727765355259287,27.727765355259287 0 0,0 -0.0999070485537544,-0.4667324700740677 l 6.590611056190181 -1.3515445170066938" fill="#ff4806" stroke="none" /><path d="M 79.4281124754447 104.21870165774334 l -55.86808939700051 11.456936125708 a78.03073555776564,78.03073555776564 0 0,0 -0.258504928700562,-1.3181110621860854 l 56.05702425867674 -10.49356133645396" fill="#45fff3" stroke="none" /><path d="M 79.07016306316243 101.71520430193888 l -12.737673389861307 1.0438548690520104 a33.780373874594765,33.780373874594765 0 0,0 -0.04250446320819875,-0.5799396305225915 l 12.75375441173384 -0.8244421020326584" fill="#ff9b0e" stroke="none" /><path d="M 79.0235259727143 100.99374915477108 l -7.628208199501473 0.3613822533192105 a28.636763546683607,28.636763546683607 0 0,0 -0.01908826722371672,-0.4925833602353464 l 7.633298599576391 -0.23002164606986733" fill="#ff5507" stroke="none" /><line stroke="#e1ed5e" stroke-width="0.3" x1="15.007084014347285" x2="10.007500721073583" y1="101.09737516637583" y2="101.16192664675087" /><path d="M 14.007167355692545 101.11028546245083 a86.0,86.0 0 0,1 10.666146001902534,-42.60595125391555" fill="none" id="id34" stroke="none" /><text fill="#e1ed5e" style="font-size:6.75px; font-family:Arial;" text-anchor="middle"><textPath startOffset="22.20632615414155" xlink:href="#id34">October</textPath></text><path d="M 79.00175016825051 100.2711162175752 l -1.7256612218028715 0.02228065419833232 a22.725805052717625,22.725805052717625 0 0,0 -0.001683552215178044,-0.39119824413087834 l 1.7257890713075525 0.007427068136221387" fill="#ff0000" stroke="none" /><path d="M 79.05617556472873 98.46500227214037 l -12.305087047429137 -0.901854420967604 a33.33809177472056,33.33809177472056 0 0,0 0.046872588958171583,-0.5719643092038883 l 12.287739974651469 1.1135326473792708" fill="#ff950d" stroke="none" /><path d="M 79.08570108090925 98.10471618934814 l -9.377841847164309 -0.84983349910716 a30.41626968000762,30.41626968000762 0 0,0 0.05174078947592147,-0.5210226889805556 l 9.361823932006159 1.011131718792146" fill="#ff6e0a" stroke="none" /><path d="M 79.12142395522702 97.74499172005258 l -6.96533453953625 -0.7522968532708094 a28.00584297590931,28.00584297590931 0 0,0 0.05589119014082277,-0.47884158495194884 l 6.951352996391838 0.87208217654762" fill="#ff4c07" stroke="none" /><path d="M 80.02781315780177 93.51064311812611 l -5.383503301033174 -1.749206257240546 a26.660550355098394,26.660550355098394 0 0,0 0.14557004063092935,-0.43523589298197923 l 5.352595966630472 1.8416152531448473" fill="#ff3905" stroke="none" /><path d="M 80.38941819471856 92.48833698450439 l -5.305201756324724 -2.032111449747725 a26.681077593160186,26.681077593160186 0 0,0 0.16797193113918388,-0.42747024317486165 l 5.269436275303849 2.12313069781835" fill="#ff3905" stroke="none" /><path d="M 80.52162464483688 92.15188598940014 l -13.116701452613485 -5.284905263714651 a35.141360636212895,35.141360636212895 0 0,0 0.23089265052896943,-0.5591248674966539 l 13.023787115198317 5.509904701664617" fill="#ffad10" stroke="none" /><path d="M 81.43458229118936 90.18545643968196 l -5.048104695956313 -2.6686630062730385 a26.710089601957787,26.710089601957787 0 0,0 0.2183764787526221,-0.40461844948935033 l 5.001420117985219 2.7551624390948617" fill="#ff3a05" stroke="none" /><path d="M 81.6062741919709 89.86733742301443 l -12.69519982586872 -6.993481229712703 a35.494029057825195,35.494029057825195 0 0,0 0.29940457273038856,-0.5326073264273639 l 12.572937611845902 7.210972066074852" fill="#ffb210" stroke="none" /><line stroke="#e1ed5e" stroke-width="0.3" x1="26.266209847984243" x2="21.928928074336255" y1="57.711370442889674" y2="55.22380399835377" /><path d="M 25.398753493254645 57.213857153982495 a86.0,86.0 0 0,1 29.58750427330803,-30.492523968695096" fill="none" id="id35" stroke="none" /><text fill="#e1ed5e" style="font-size:6.75px; font-family:Arial;" text-anchor="middle"><textPath startOffset="21.46611528233685" xlink:href="#id35">November</textPath></text><path d="M 81.96595687620814 89.24020034530311 l -4.226005583863447 -2.5213965115793884 a25.921032774067832,25.921032774067832 0 0,0 0.23191202620726392,-0.3812023939232273 l 4.181977759369967 2.5937666787096902" fill="#ff2f04" stroke="none" /><path d="M 82.34701348167596 88.62581576622439 l -5.469339867960297 -3.5240087693229847 a27.506328949378847,27.506328949378847 0 0,0 0.2598737244051717,-0.3958055111804974 l 5.407869508197205 3.617632344481149" fill="#ff4506" stroke="none" /><path d="M 83.39014120810768 87.1503855733568 l -4.96103753955208 -3.8379266397173457 a27.27228621482606,27.27228621482606 0 0,0 0.2904445488009116,-0.3688350818714308 l 4.894238910157197 3.9227541155418244" fill="#ff4206" stroke="none" /><path d="M 84.80347519578584 85.50635884689758 l -4.823876044231918 -4.600757689860532 a27.66608966418285,27.66608966418285 0 0,0 0.3316449262889817,-0.34178924895284224 l 4.743966854239818 4.683111134363498" fill="#ff4706" stroke="none" /><path d="M 85.05521093208273 85.24692304244772 l -4.236888177048323 -4.182537274528988 a26.953556876156995,26.953556876156995 0 0,0 0.3287874442774081,-0.3273755265033752 l 4.164264932603602 4.254848651682472" fill="#ff3d05" stroke="none" /><path d="M 85.83668400450813 84.49514656593479 l -4.142899477196105 -4.535311448705711 a27.142692082052694,27.142692082052694 0 0,0 0.3476707589113334,-0.3121422401183797 l 4.064217730688799 4.60595269759337" fill="#ff4006" stroke="none" /><path d="M 86.10567301691215 84.25364557470407 l -3.95072445033725 -4.47733146826141 a26.97115740532574,26.97115740532574 0 0,0 0.3507614450032599,-0.3041768686461501 l 3.8730692066872163 4.544673330327241" fill="#ff3e05" stroke="none" /><path d="M 86.93701828274178 83.55741782278169 l -4.985884484279764 -6.275811842450822 a29.015289038607882,29.015289038607882 0 0,0 0.39373394184013394,-0.307315586910522 l 4.877117987280205 6.360705818584566" fill="#ff5a08" stroke="none" /><path d="M 88.70189139769569 82.29822771554957 l -3.5594060904844627 -5.576844611742456 a27.615932854896485,27.615932854896485 0 0,0 0.4029044245768776,-0.2522987137075189 l 3.4628825135353427 5.637287666772905" fill="#ff4706" stroke="none" /><line stroke="#e1ed5e" stroke-width="0.3" x1="56.762969772571076" x2="54.21961505331055" y1="26.818313649435495" y2="22.513508569990535" /><path d="M 56.25429882871897 25.957352633546506 a86.0,86.0 0 0,1 42.265352541879196,-11.944610805530505" fill="none" id="id36" stroke="none" /><text fill="#e1ed5e" style="font-size:6.75px; font-family:Arial;" text-anchor="middle"><textPath startOffset="22.20632615414155" xlink:href="#id36">December</textPath></text><path d="M 90.91171255644093 81.06846463323043 l -2.689444916092026 -5.602300968380885 a27.214409875202524,27.214409875202524 0 0,0 0.4240546608471128,-0.19909934921993755 l 2.592612043945305 5.64776530024083" fill="#ff4106" stroke="none" /><path d="M 92.23578459929587 80.48803036053334 l -3.7951337650109154 -9.537413760299867 a31.264760178858694,31.264760178858694 0 0,0 0.5017500248820529,-0.19467121449990102 l 3.6304005751291863 9.60132767869032" fill="#ff790b" stroke="none" /><path d="M 92.91201910852362 80.23233633223022 l -2.8160441385485204 -7.853663018669149 a29.343268388411396,29.343268388411396 0 0,0 0.4769231219317014,-0.166389112610995 l 2.6804390125535336 7.900972984452354" fill="#ff5f08" stroke="none" /><path d="M 93.59665428221793 80.00007090966166 l -2.1375852180530153 -6.67643989092995 a28.01028674032949,28.01028674032949 0 0,0 0.46045527130135533,-0.14306569417473966 l 2.022344574040931 6.712245719987214" fill="#ff4c07" stroke="none" /><path d="M 94.28887869178378 79.79150937346287 l -1.8856312598977827 -6.6722031601621525 a27.93353447087281,27.93353447087281 0 0,0 0.46383249673501226,-0.12678294273175192 l 1.770500873939048 6.7036726437202" fill="#ff4b07" stroke="none" /><path d="M 94.63758080256005 79.69619591428918 l -1.8012242855734657 -6.820001134220845 a28.05385174197142,28.05385174197142 0 0,0 0.4679530906362588,-0.11929166221337933 l 1.6835623062522076 6.849995792603087" fill="#ff4d07" stroke="none" /><path d="M 95.33964822691252 79.52364482259891 l -0.4915937836477874 -2.159933285530891 a23.215169575013483,23.215169575013483 0 0,0 0.390409811686944,-0.08532846336221526 l 0.4543412478073224 2.1680752469889746" fill="#ff0701" stroke="none" /><path d="M 98.19473922651362 79.07773832637324 l -2.3258948101684367 -26.95620519671232 a48.05636311988788,48.05636311988788 0 0,0 0.8247611777130331,-0.06401734087880565 l 1.8615434430930693 26.992247799779587" fill="#b2ff20" stroke="none" /><path d="M 98.91598698831166 79.02799685794201 l -0.8331501298634829 -16.118650747641176 a37.14016855746324,37.14016855746324 0 0,0 0.6387386838635057,-0.02750543134967894 l 0.5555706136106531 16.13060390551505" fill="#ffc712" stroke="none" /><path d="M 99.27714615592234 79.0124445844662 l -0.32610243540074413 -9.468155962906291 a30.47377011206691,30.47377011206691 0 0,0 0.5244004211283498,-0.013543715745803275 l 0.16307537907751524 9.472366470794453" fill="#ff6f0a" stroke="none" /><path d="M 99.63851952072746 79.00311137660856 l -0.4659381059433138 -27.064395110834095 a48.06840558721386,48.06840558721386 0 0,0 0.8274185852158429,-0.007121852988322745 l 6.629847252080757e-15 27.06840558721386" fill="#b2ff20" stroke="none" /></svg>